<?xml version="1.0" encoding="UTF-8" standalone="no"?>
<!DOCTYPE svg PUBLIC "-//W3C//DTD SVG 1.1//EN"
 "http://www.w3.org/Graphics/SVG/1.1/DTD/svg11.dtd">
<!-- Generated by graphviz version 2.40.1 (20161225.0304)
 -->
<!-- Title: dependencies Pages: 1 -->
<svg width="676pt" height="284pt"
 viewBox="0.00 0.00 676.00 284.00" xmlns="http://www.w3.org/2000/svg" xmlns:xlink="http://www.w3.org/1999/xlink">
<g id="graph0" class="graph" transform="scale(1 1) rotate(0) translate(4 280)">
<title>dependencies</title>
<polygon fill="#ffffff" stroke="transparent" points="-4,4 -4,-280 672,-280 672,4 -4,4"/>
<text text-anchor="start" x="313.0091" y="-42.4" font-family="sans-serif" font-weight="bold" font-size="14.00" fill="#000000">Legend</text>
<polygon fill="#ffffb3" stroke="transparent" points="100,-10 100,-30 120,-30 120,-10 100,-10"/>
<text text-anchor="start" x="123.629" y="-15.4" font-family="sans-serif" font-size="14.00" fill="#000000"> &#160;Declarations</text>
<polygon fill="#8dd3c7" stroke="transparent" points="213,-10 213,-30 233,-30 233,-10 213,-10"/>
<text text-anchor="start" x="236.7251" y="-15.4" font-family="sans-serif" font-size="14.00" fill="#000000"> &#160;Module</text>
<polygon fill="#80b1d3" stroke="transparent" points="299,-10 299,-30 319,-30 319,-10 299,-10"/>
<text text-anchor="start" x="322.7812" y="-15.4" font-family="sans-serif" font-size="14.00" fill="#000000"> &#160;Bootstrap</text>
<polygon fill="#fdb462" stroke="transparent" points="396,-10 396,-30 416,-30 416,-10 396,-10"/>
<text text-anchor="start" x="419.6732" y="-15.4" font-family="sans-serif" font-size="14.00" fill="#000000"> &#160;Providers</text>
<polygon fill="#fb8072" stroke="transparent" points="492,-10 492,-30 512,-30 512,-10 492,-10"/>
<text text-anchor="start" x="515.7258" y="-15.4" font-family="sans-serif" font-size="14.00" fill="#000000"> &#160;Exports</text>
<g id="clust1" class="cluster">
<title>cluster_KeyManagerModule</title>
<polygon fill="none" stroke="#000000" stroke-dasharray="1,5" points="8,-70 8,-268 660,-268 660,-70 8,-70"/>
</g>
<g id="clust2" class="cluster">
<title>cluster_KeyManagerModule_declarations</title>
<polygon fill="none" stroke="#000000" points="262,-78 262,-130 652,-130 652,-78 262,-78"/>
</g>
<g id="clust5" class="cluster">
<title>cluster_KeyManagerModule_imports</title>
<polygon fill="none" stroke="#000000" points="16,-78 16,-130 254,-130 254,-78 16,-78"/>
</g>
<g id="clust6" class="cluster">
<title>cluster_KeyManagerModule_exports</title>
<polygon fill="none" stroke="#000000" points="178,-208 178,-260 374,-260 374,-208 178,-208"/>
</g>
<!-- KeyManagerItemComponent -->
<g id="node1" class="node">
<title>KeyManagerItemComponent</title>
<polygon fill="#ffffb3" stroke="#000000" points="644.059,-122 463.941,-122 463.941,-86 644.059,-86 644.059,-122"/>
<text text-anchor="middle" x="554" y="-99.8" font-family="Times,serif" font-size="14.00" fill="#000000">KeyManagerItemComponent</text>
</g>
<!-- KeyManagerModule -->
<g id="node3" class="node">
<title>KeyManagerModule</title>
<polygon fill="#8dd3c7" stroke="#000000" points="342.1205,-187 339.1205,-191 318.1205,-191 315.1205,-187 209.8795,-187 209.8795,-151 342.1205,-151 342.1205,-187"/>
<text text-anchor="middle" x="276" y="-164.8" font-family="Times,serif" font-size="14.00" fill="#000000">KeyManagerModule</text>
</g>
<!-- KeyManagerItemComponent&#45;&gt;KeyManagerModule -->
<g id="edge1" class="edge">
<title>KeyManagerItemComponent&#45;&gt;KeyManagerModule</title>
<path fill="none" stroke="#000000" d="M554,-122.1061C554,-141.3391 554,-169 554,-169 554,-169 352.2347,-169 352.2347,-169"/>
<polygon fill="#000000" stroke="#000000" points="352.2348,-165.5001 342.2347,-169 352.2347,-172.5001 352.2348,-165.5001"/>
</g>
<!-- KeyManagerListComponent -->
<g id="node2" class="node">
<title>KeyManagerListComponent</title>
<polygon fill="#ffffb3" stroke="#000000" points="446.1811,-122 269.8189,-122 269.8189,-86 446.1811,-86 446.1811,-122"/>
<text text-anchor="middle" x="358" y="-99.8" font-family="Times,serif" font-size="14.00" fill="#000000">KeyManagerListComponent</text>
</g>
<!-- KeyManagerListComponent&#45;&gt;KeyManagerModule -->
<g id="edge2" class="edge">
<title>KeyManagerListComponent&#45;&gt;KeyManagerModule</title>
<path fill="none" stroke="#000000" d="M306.1098,-122.1061C306.1098,-122.1061 306.1098,-140.991 306.1098,-140.991"/>
<polygon fill="#000000" stroke="#000000" points="302.6098,-140.9909 306.1098,-150.991 309.6098,-140.991 302.6098,-140.9909"/>
</g>
<!-- KeyManagerListComponent  -->
<g id="node6" class="node">
<title>KeyManagerListComponent </title>
<polygon fill="#fb8072" stroke="#000000" points="365.6813,-252 186.3187,-252 186.3187,-216 365.6813,-216 365.6813,-252"/>
<text text-anchor="middle" x="276" y="-229.8" font-family="Times,serif" font-size="14.00" fill="#000000">KeyManagerListComponent </text>
</g>
<!-- KeyManagerModule&#45;&gt;KeyManagerListComponent  -->
<g id="edge5" class="edge">
<title>KeyManagerModule&#45;&gt;KeyManagerListComponent </title>
<path fill="none" stroke="#000000" stroke-dasharray="5,2" d="M276,-187.1061C276,-187.1061 276,-205.991 276,-205.991"/>
<polygon fill="#000000" stroke="#000000" points="272.5001,-205.9909 276,-215.991 279.5001,-205.991 272.5001,-205.9909"/>
</g>
<!-- UiFormModule -->
<g id="node4" class="node">
<title>UiFormModule</title>
<polygon fill="#8dd3c7" stroke="#000000" points="245.8809,-122 242.8809,-126 221.8809,-126 218.8809,-122 142.1191,-122 142.1191,-86 245.8809,-86 245.8809,-122"/>
<text text-anchor="middle" x="194" y="-99.8" font-family="Times,serif" font-size="14.00" fill="#000000">UiFormModule</text>
</g>
<!-- UiFormModule&#45;&gt;KeyManagerModule -->
<g id="edge3" class="edge">
<title>UiFormModule&#45;&gt;KeyManagerModule</title>
<path fill="none" stroke="#000000" d="M227.8152,-122.1061C227.8152,-122.1061 227.8152,-140.991 227.8152,-140.991"/>
<polygon fill="#000000" stroke="#000000" points="224.3153,-140.9909 227.8152,-150.991 231.3153,-140.991 224.3153,-140.9909"/>
</g>
<!-- UploadModule -->
<g id="node5" class="node">
<title>UploadModule</title>
<polygon fill="#8dd3c7" stroke="#000000" points="124.2619,-122 121.2619,-126 100.2619,-126 97.2619,-122 23.7381,-122 23.7381,-86 124.2619,-86 124.2619,-122"/>
<text text-anchor="middle" x="74" y="-99.8" font-family="Times,serif" font-size="14.00" fill="#000000">UploadModule</text>
</g>
<!-- UploadModule&#45;&gt;KeyManagerModule -->
<g id="edge4" class="edge">
<title>UploadModule&#45;&gt;KeyManagerModule</title>
<path fill="none" stroke="#000000" d="M74,-122.1061C74,-141.3391 74,-169 74,-169 74,-169 199.8576,-169 199.8576,-169"/>
<polygon fill="#000000" stroke="#000000" points="199.8577,-172.5001 209.8576,-169 199.8576,-165.5001 199.8577,-172.5001"/>
</g>
</g>
</svg>
