<?xml version="1.0" encoding="UTF-8" standalone="no"?>
<!DOCTYPE svg PUBLIC "-//W3C//DTD SVG 1.1//EN"
 "http://www.w3.org/Graphics/SVG/1.1/DTD/svg11.dtd">
<!-- Generated by graphviz version 2.40.1 (20161225.0304)
 -->
<!-- Title: dependencies Pages: 1 -->
<svg width="1206pt" height="211pt"
 viewBox="0.00 0.00 1206.00 211.00" xmlns="http://www.w3.org/2000/svg" xmlns:xlink="http://www.w3.org/1999/xlink">
<g id="graph0" class="graph" transform="scale(1 1) rotate(0) translate(4 207)">
<title>dependencies</title>
<polygon fill="#ffffff" stroke="transparent" points="-4,4 -4,-207 1202,-207 1202,4 -4,4"/>
<text text-anchor="start" x="578.0091" y="-42.4" font-family="sans-serif" font-weight="bold" font-size="14.00" fill="#000000">Legend</text>
<polygon fill="#ffffb3" stroke="transparent" points="365,-10 365,-30 385,-30 385,-10 365,-10"/>
<text text-anchor="start" x="388.629" y="-15.4" font-family="sans-serif" font-size="14.00" fill="#000000"> &#160;Declarations</text>
<polygon fill="#8dd3c7" stroke="transparent" points="478,-10 478,-30 498,-30 498,-10 478,-10"/>
<text text-anchor="start" x="501.7251" y="-15.4" font-family="sans-serif" font-size="14.00" fill="#000000"> &#160;Module</text>
<polygon fill="#80b1d3" stroke="transparent" points="564,-10 564,-30 584,-30 584,-10 564,-10"/>
<text text-anchor="start" x="587.7812" y="-15.4" font-family="sans-serif" font-size="14.00" fill="#000000"> &#160;Bootstrap</text>
<polygon fill="#fdb462" stroke="transparent" points="661,-10 661,-30 681,-30 681,-10 661,-10"/>
<text text-anchor="start" x="684.6732" y="-15.4" font-family="sans-serif" font-size="14.00" fill="#000000"> &#160;Providers</text>
<polygon fill="#fb8072" stroke="transparent" points="757,-10 757,-30 777,-30 777,-10 757,-10"/>
<text text-anchor="start" x="780.7258" y="-15.4" font-family="sans-serif" font-size="14.00" fill="#000000"> &#160;Exports</text>
<g id="clust1" class="cluster">
<title>cluster_NoOrganizationModule</title>
<polygon fill="none" stroke="#000000" stroke-dasharray="1,5" points="8,-70 8,-195 1190,-195 1190,-70 8,-70"/>
</g>
<g id="clust2" class="cluster">
<title>cluster_NoOrganizationModule_declarations</title>
<polygon fill="none" stroke="#000000" points="345,-78 345,-130 1182,-130 1182,-78 345,-78"/>
</g>
<g id="clust7" class="cluster">
<title>cluster_NoOrganizationModule_imports</title>
<polygon fill="none" stroke="#000000" points="16,-78 16,-130 337,-130 337,-78 16,-78"/>
</g>
<!-- OrganizationCreateComponent -->
<g id="node1" class="node">
<title>OrganizationCreateComponent</title>
<polygon fill="#ffffb3" stroke="#000000" points="1174.4468,-122 983.5532,-122 983.5532,-86 1174.4468,-86 1174.4468,-122"/>
<text text-anchor="middle" x="1079" y="-99.8" font-family="Times,serif" font-size="14.00" fill="#000000">OrganizationCreateComponent</text>
</g>
<!-- NoOrganizationModule -->
<g id="node5" class="node">
<title>NoOrganizationModule</title>
<polygon fill="#8dd3c7" stroke="#000000" points="622.7394,-187 619.7394,-191 598.7394,-191 595.7394,-187 473.2606,-187 473.2606,-151 622.7394,-151 622.7394,-187"/>
<text text-anchor="middle" x="548" y="-164.8" font-family="Times,serif" font-size="14.00" fill="#000000">NoOrganizationModule</text>
</g>
<!-- OrganizationCreateComponent&#45;&gt;NoOrganizationModule -->
<g id="edge1" class="edge">
<title>OrganizationCreateComponent&#45;&gt;NoOrganizationModule</title>
<path fill="none" stroke="#000000" d="M1079,-122.2843C1079,-143.3211 1079,-175 1079,-175 1079,-175 632.9531,-175 632.9531,-175"/>
<polygon fill="#000000" stroke="#000000" points="632.9531,-171.5001 622.9531,-175 632.9531,-178.5001 632.9531,-171.5001"/>
</g>
<!-- OrganizationFeedbackComponent -->
<g id="node2" class="node">
<title>OrganizationFeedbackComponent</title>
<polygon fill="#ffffb3" stroke="#000000" points="965.0562,-122 756.9438,-122 756.9438,-86 965.0562,-86 965.0562,-122"/>
<text text-anchor="middle" x="861" y="-99.8" font-family="Times,serif" font-size="14.00" fill="#000000">OrganizationFeedbackComponent</text>
</g>
<!-- OrganizationFeedbackComponent&#45;&gt;NoOrganizationModule -->
<g id="edge2" class="edge">
<title>OrganizationFeedbackComponent&#45;&gt;NoOrganizationModule</title>
<path fill="none" stroke="#000000" d="M861,-122.0225C861,-139.3734 861,-163 861,-163 861,-163 632.9713,-163 632.9713,-163"/>
<polygon fill="#000000" stroke="#000000" points="632.9713,-159.5001 622.9713,-163 632.9713,-166.5001 632.9713,-159.5001"/>
</g>
<!-- OrganizationFindComponent -->
<g id="node3" class="node">
<title>OrganizationFindComponent</title>
<polygon fill="#ffffb3" stroke="#000000" points="739.0884,-122 558.9116,-122 558.9116,-86 739.0884,-86 739.0884,-122"/>
<text text-anchor="middle" x="649" y="-99.8" font-family="Times,serif" font-size="14.00" fill="#000000">OrganizationFindComponent</text>
</g>
<!-- OrganizationFindComponent&#45;&gt;NoOrganizationModule -->
<g id="edge3" class="edge">
<title>OrganizationFindComponent&#45;&gt;NoOrganizationModule</title>
<path fill="none" stroke="#000000" d="M590.9127,-122.1061C590.9127,-122.1061 590.9127,-140.991 590.9127,-140.991"/>
<polygon fill="#000000" stroke="#000000" points="587.4128,-140.9909 590.9127,-150.991 594.4128,-140.991 587.4128,-140.9909"/>
</g>
<!-- OrganizationHomeComponent -->
<g id="node4" class="node">
<title>OrganizationHomeComponent</title>
<polygon fill="#ffffb3" stroke="#000000" points="541.1274,-122 352.8726,-122 352.8726,-86 541.1274,-86 541.1274,-122"/>
<text text-anchor="middle" x="447" y="-99.8" font-family="Times,serif" font-size="14.00" fill="#000000">OrganizationHomeComponent</text>
</g>
<!-- OrganizationHomeComponent&#45;&gt;NoOrganizationModule -->
<g id="edge4" class="edge">
<title>OrganizationHomeComponent&#45;&gt;NoOrganizationModule</title>
<path fill="none" stroke="#000000" d="M507.222,-122.1061C507.222,-122.1061 507.222,-140.991 507.222,-140.991"/>
<polygon fill="#000000" stroke="#000000" points="503.722,-140.9909 507.222,-150.991 510.722,-140.991 503.722,-140.9909"/>
</g>
<!-- ActionsListModule -->
<g id="node6" class="node">
<title>ActionsListModule</title>
<polygon fill="#8dd3c7" stroke="#000000" points="329.3753,-122 326.3753,-126 305.3753,-126 302.3753,-122 204.6247,-122 204.6247,-86 329.3753,-86 329.3753,-122"/>
<text text-anchor="middle" x="267" y="-99.8" font-family="Times,serif" font-size="14.00" fill="#000000">ActionsListModule</text>
</g>
<!-- ActionsListModule&#45;&gt;NoOrganizationModule -->
<g id="edge5" class="edge">
<title>ActionsListModule&#45;&gt;NoOrganizationModule</title>
<path fill="none" stroke="#000000" d="M267,-122.0225C267,-139.3734 267,-163 267,-163 267,-163 463.0663,-163 463.0663,-163"/>
<polygon fill="#000000" stroke="#000000" points="463.0663,-166.5001 473.0663,-163 463.0663,-159.5001 463.0663,-166.5001"/>
</g>
<!-- FeedbackMessageModule -->
<g id="node7" class="node">
<title>FeedbackMessageModule</title>
<polygon fill="#8dd3c7" stroke="#000000" points="186.1685,-122 183.1685,-126 162.1685,-126 159.1685,-122 23.8315,-122 23.8315,-86 186.1685,-86 186.1685,-122"/>
<text text-anchor="middle" x="105" y="-99.8" font-family="Times,serif" font-size="14.00" fill="#000000">FeedbackMessageModule</text>
</g>
<!-- FeedbackMessageModule&#45;&gt;NoOrganizationModule -->
<g id="edge6" class="edge">
<title>FeedbackMessageModule&#45;&gt;NoOrganizationModule</title>
<path fill="none" stroke="#000000" d="M105,-122.2843C105,-143.3211 105,-175 105,-175 105,-175 462.8511,-175 462.8511,-175"/>
<polygon fill="#000000" stroke="#000000" points="462.8511,-178.5001 472.8511,-175 462.8511,-171.5001 462.8511,-178.5001"/>
</g>
</g>
</svg>
