<?xml version="1.0" encoding="UTF-8" standalone="no"?>
<!DOCTYPE svg PUBLIC "-//W3C//DTD SVG 1.1//EN"
 "http://www.w3.org/Graphics/SVG/1.1/DTD/svg11.dtd">
<!-- Generated by graphviz version 2.40.1 (20161225.0304)
 -->
<!-- Title: dependencies Pages: 1 -->
<svg width="892pt" height="211pt"
 viewBox="0.00 0.00 892.00 211.00" xmlns="http://www.w3.org/2000/svg" xmlns:xlink="http://www.w3.org/1999/xlink">
<g id="graph0" class="graph" transform="scale(1 1) rotate(0) translate(4 207)">
<title>dependencies</title>
<polygon fill="#ffffff" stroke="transparent" points="-4,4 -4,-207 888,-207 888,4 -4,4"/>
<text text-anchor="start" x="421.0091" y="-42.4" font-family="sans-serif" font-weight="bold" font-size="14.00" fill="#000000">Legend</text>
<polygon fill="#ffffb3" stroke="transparent" points="208,-10 208,-30 228,-30 228,-10 208,-10"/>
<text text-anchor="start" x="231.629" y="-15.4" font-family="sans-serif" font-size="14.00" fill="#000000"> &#160;Declarations</text>
<polygon fill="#8dd3c7" stroke="transparent" points="321,-10 321,-30 341,-30 341,-10 321,-10"/>
<text text-anchor="start" x="344.7251" y="-15.4" font-family="sans-serif" font-size="14.00" fill="#000000"> &#160;Module</text>
<polygon fill="#80b1d3" stroke="transparent" points="407,-10 407,-30 427,-30 427,-10 407,-10"/>
<text text-anchor="start" x="430.7812" y="-15.4" font-family="sans-serif" font-size="14.00" fill="#000000"> &#160;Bootstrap</text>
<polygon fill="#fdb462" stroke="transparent" points="504,-10 504,-30 524,-30 524,-10 504,-10"/>
<text text-anchor="start" x="527.6732" y="-15.4" font-family="sans-serif" font-size="14.00" fill="#000000"> &#160;Providers</text>
<polygon fill="#fb8072" stroke="transparent" points="600,-10 600,-30 620,-30 620,-10 600,-10"/>
<text text-anchor="start" x="623.7258" y="-15.4" font-family="sans-serif" font-size="14.00" fill="#000000"> &#160;Exports</text>
<g id="clust1" class="cluster">
<title>cluster_DashboardHomeModule</title>
<polygon fill="none" stroke="#000000" stroke-dasharray="1,5" points="8,-70 8,-195 876,-195 876,-70 8,-70"/>
</g>
<g id="clust2" class="cluster">
<title>cluster_DashboardHomeModule_declarations</title>
<polygon fill="none" stroke="#000000" points="632,-78 632,-130 868,-130 868,-78 632,-78"/>
</g>
<g id="clust4" class="cluster">
<title>cluster_DashboardHomeModule_imports</title>
<polygon fill="none" stroke="#000000" points="16,-78 16,-130 624,-130 624,-78 16,-78"/>
</g>
<!-- CatalogDashboardHomeComponent -->
<g id="node1" class="node">
<title>CatalogDashboardHomeComponent</title>
<polygon fill="#ffffb3" stroke="#000000" points="859.7324,-122 640.2676,-122 640.2676,-86 859.7324,-86 859.7324,-122"/>
<text text-anchor="middle" x="750" y="-99.8" font-family="Times,serif" font-size="14.00" fill="#000000">CatalogDashboardHomeComponent</text>
</g>
<!-- DashboardHomeModule -->
<g id="node2" class="node">
<title>DashboardHomeModule</title>
<polygon fill="#8dd3c7" stroke="#000000" points="503.4031,-187 500.4031,-191 479.4031,-191 476.4031,-187 348.5969,-187 348.5969,-151 503.4031,-151 503.4031,-187"/>
<text text-anchor="middle" x="426" y="-164.8" font-family="Times,serif" font-size="14.00" fill="#000000">DashboardHomeModule</text>
</g>
<!-- CatalogDashboardHomeComponent&#45;&gt;DashboardHomeModule -->
<g id="edge1" class="edge">
<title>CatalogDashboardHomeComponent&#45;&gt;DashboardHomeModule</title>
<path fill="none" stroke="#000000" d="M750,-122.1061C750,-141.3391 750,-169 750,-169 750,-169 513.6061,-169 513.6061,-169"/>
<polygon fill="#000000" stroke="#000000" points="513.6061,-165.5001 503.6061,-169 513.606,-172.5001 513.6061,-165.5001"/>
</g>
<!-- CommonModule -->
<g id="node3" class="node">
<title>CommonModule</title>
<polygon fill="#8dd3c7" stroke="#000000" points="615.6681,-122 612.6681,-126 591.6681,-126 588.6681,-122 504.3319,-122 504.3319,-86 615.6681,-86 615.6681,-122"/>
<text text-anchor="middle" x="560" y="-99.8" font-family="Times,serif" font-size="14.00" fill="#000000">CommonModule</text>
</g>
<!-- CommonModule&#45;&gt;DashboardHomeModule -->
<g id="edge2" class="edge">
<title>CommonModule&#45;&gt;DashboardHomeModule</title>
<path fill="none" stroke="#000000" d="M504.2969,-104C498.4878,-104 494.655,-104 494.655,-104 494.655,-104 494.655,-140.8939 494.655,-140.8939"/>
<polygon fill="#000000" stroke="#000000" points="491.1551,-140.8938 494.655,-150.8939 498.1551,-140.8939 491.1551,-140.8938"/>
</g>
<!-- MatButtonModule -->
<g id="node4" class="node">
<title>MatButtonModule</title>
<polygon fill="#8dd3c7" stroke="#000000" points="486.2176,-122 483.2176,-126 462.2176,-126 459.2176,-122 365.7824,-122 365.7824,-86 486.2176,-86 486.2176,-122"/>
<text text-anchor="middle" x="426" y="-99.8" font-family="Times,serif" font-size="14.00" fill="#000000">MatButtonModule</text>
</g>
<!-- MatButtonModule&#45;&gt;DashboardHomeModule -->
<g id="edge3" class="edge">
<title>MatButtonModule&#45;&gt;DashboardHomeModule</title>
<path fill="none" stroke="#000000" d="M426,-122.1061C426,-122.1061 426,-140.991 426,-140.991"/>
<polygon fill="#000000" stroke="#000000" points="422.5001,-140.9909 426,-150.991 429.5001,-140.991 422.5001,-140.9909"/>
</g>
<!-- FlexLayoutModule -->
<g id="node5" class="node">
<title>FlexLayoutModule</title>
<polygon fill="#8dd3c7" stroke="#000000" points="348.0954,-122 345.0954,-126 324.0954,-126 321.0954,-122 223.9046,-122 223.9046,-86 348.0954,-86 348.0954,-122"/>
<text text-anchor="middle" x="286" y="-99.8" font-family="Times,serif" font-size="14.00" fill="#000000">FlexLayoutModule</text>
</g>
<!-- FlexLayoutModule&#45;&gt;DashboardHomeModule -->
<g id="edge4" class="edge">
<title>FlexLayoutModule&#45;&gt;DashboardHomeModule</title>
<path fill="none" stroke="#000000" d="M348.3091,-104C353.808,-104 357.345,-104 357.345,-104 357.345,-104 357.345,-140.8939 357.345,-140.8939"/>
<polygon fill="#000000" stroke="#000000" points="353.8451,-140.8938 357.345,-150.8939 360.8451,-140.8939 353.8451,-140.8938"/>
</g>
<!-- RouterModule.forChild(args) -->
<g id="node6" class="node">
<title>RouterModule.forChild(args)</title>
<polygon fill="#8dd3c7" stroke="#000000" points="205.7323,-122 202.7323,-126 181.7323,-126 178.7323,-122 24.2677,-122 24.2677,-86 205.7323,-86 205.7323,-122"/>
<text text-anchor="middle" x="115" y="-99.8" font-family="Times,serif" font-size="14.00" fill="#000000">RouterModule.forChild(args)</text>
</g>
<!-- RouterModule.forChild(args)&#45;&gt;DashboardHomeModule -->
<g id="edge5" class="edge">
<title>RouterModule.forChild(args)&#45;&gt;DashboardHomeModule</title>
<path fill="none" stroke="#000000" d="M115,-122.1061C115,-141.3391 115,-169 115,-169 115,-169 338.724,-169 338.724,-169"/>
<polygon fill="#000000" stroke="#000000" points="338.724,-172.5001 348.724,-169 338.724,-165.5001 338.724,-172.5001"/>
</g>
</g>
</svg>
