<?xml version="1.0" encoding="UTF-8" standalone="no"?>
<!DOCTYPE svg PUBLIC "-//W3C//DTD SVG 1.1//EN"
 "http://www.w3.org/Graphics/SVG/1.1/DTD/svg11.dtd">
<!-- Generated by graphviz version 2.40.1 (20161225.0304)
 -->
<!-- Title: dependencies Pages: 1 -->
<svg width="1325pt" height="211pt"
 viewBox="0.00 0.00 1325.00 211.00" xmlns="http://www.w3.org/2000/svg" xmlns:xlink="http://www.w3.org/1999/xlink">
<g id="graph0" class="graph" transform="scale(1 1) rotate(0) translate(4 207)">
<title>dependencies</title>
<polygon fill="#ffffff" stroke="transparent" points="-4,4 -4,-207 1321,-207 1321,4 -4,4"/>
<text text-anchor="start" x="637.5091" y="-42.4" font-family="sans-serif" font-weight="bold" font-size="14.00" fill="#000000">Legend</text>
<polygon fill="#ffffb3" stroke="transparent" points="424.5,-10 424.5,-30 444.5,-30 444.5,-10 424.5,-10"/>
<text text-anchor="start" x="448.129" y="-15.4" font-family="sans-serif" font-size="14.00" fill="#000000"> &#160;Declarations</text>
<polygon fill="#8dd3c7" stroke="transparent" points="537.5,-10 537.5,-30 557.5,-30 557.5,-10 537.5,-10"/>
<text text-anchor="start" x="561.2251" y="-15.4" font-family="sans-serif" font-size="14.00" fill="#000000"> &#160;Module</text>
<polygon fill="#80b1d3" stroke="transparent" points="623.5,-10 623.5,-30 643.5,-30 643.5,-10 623.5,-10"/>
<text text-anchor="start" x="647.2812" y="-15.4" font-family="sans-serif" font-size="14.00" fill="#000000"> &#160;Bootstrap</text>
<polygon fill="#fdb462" stroke="transparent" points="720.5,-10 720.5,-30 740.5,-30 740.5,-10 720.5,-10"/>
<text text-anchor="start" x="744.1732" y="-15.4" font-family="sans-serif" font-size="14.00" fill="#000000"> &#160;Providers</text>
<polygon fill="#fb8072" stroke="transparent" points="816.5,-10 816.5,-30 836.5,-30 836.5,-10 816.5,-10"/>
<text text-anchor="start" x="840.2258" y="-15.4" font-family="sans-serif" font-size="14.00" fill="#000000"> &#160;Exports</text>
<g id="clust1" class="cluster">
<title>cluster_FinancingModule</title>
<polygon fill="none" stroke="#000000" stroke-dasharray="1,5" points="8,-70 8,-195 1309,-195 1309,-70 8,-70"/>
</g>
<g id="clust2" class="cluster">
<title>cluster_FinancingModule_declarations</title>
<polygon fill="none" stroke="#000000" points="16,-78 16,-130 1301,-130 1301,-78 16,-78"/>
</g>
<!-- CardBlacklistComponent -->
<g id="node1" class="node">
<title>CardBlacklistComponent</title>
<polygon fill="#ffffb3" stroke="#000000" points="1293.3173,-122 1134.6827,-122 1134.6827,-86 1293.3173,-86 1293.3173,-122"/>
<text text-anchor="middle" x="1214" y="-99.8" font-family="Times,serif" font-size="14.00" fill="#000000">CardBlacklistComponent</text>
</g>
<!-- FinancingModule -->
<g id="node9" class="node">
<title>FinancingModule</title>
<polygon fill="#8dd3c7" stroke="#000000" points="692.5437,-187 689.5437,-191 668.5437,-191 665.5437,-187 577.4563,-187 577.4563,-151 692.5437,-151 692.5437,-187"/>
<text text-anchor="middle" x="635" y="-164.8" font-family="Times,serif" font-size="14.00" fill="#000000">FinancingModule</text>
</g>
<!-- CardBlacklistComponent&#45;&gt;FinancingModule -->
<g id="edge1" class="edge">
<title>CardBlacklistComponent&#45;&gt;FinancingModule</title>
<path fill="none" stroke="#000000" d="M1214,-122.2921C1214,-144.2057 1214,-178 1214,-178 1214,-178 702.6335,-178 702.6335,-178"/>
<polygon fill="#000000" stroke="#000000" points="702.6336,-174.5001 692.6335,-178 702.6335,-181.5001 702.6336,-174.5001"/>
</g>
<!-- CardHistoryComponent -->
<g id="node2" class="node">
<title>CardHistoryComponent</title>
<polygon fill="#ffffb3" stroke="#000000" points="1117.0379,-122 966.9621,-122 966.9621,-86 1117.0379,-86 1117.0379,-122"/>
<text text-anchor="middle" x="1042" y="-99.8" font-family="Times,serif" font-size="14.00" fill="#000000">CardHistoryComponent</text>
</g>
<!-- CardHistoryComponent&#45;&gt;FinancingModule -->
<g id="edge2" class="edge">
<title>CardHistoryComponent&#45;&gt;FinancingModule</title>
<path fill="none" stroke="#000000" d="M1042,-122.1061C1042,-141.3391 1042,-169 1042,-169 1042,-169 702.8809,-169 702.8809,-169"/>
<polygon fill="#000000" stroke="#000000" points="702.881,-165.5001 692.8809,-169 702.8809,-172.5001 702.881,-165.5001"/>
</g>
<!-- CardInvestorComponent -->
<g id="node3" class="node">
<title>CardInvestorComponent</title>
<polygon fill="#ffffb3" stroke="#000000" points="949.4158,-122 794.5842,-122 794.5842,-86 949.4158,-86 949.4158,-122"/>
<text text-anchor="middle" x="872" y="-99.8" font-family="Times,serif" font-size="14.00" fill="#000000">CardInvestorComponent</text>
</g>
<!-- CardInvestorComponent&#45;&gt;FinancingModule -->
<g id="edge3" class="edge">
<title>CardInvestorComponent&#45;&gt;FinancingModule</title>
<path fill="none" stroke="#000000" d="M872,-122.027C872,-138.3976 872,-160 872,-160 872,-160 702.6737,-160 702.6737,-160"/>
<polygon fill="#000000" stroke="#000000" points="702.6737,-156.5001 692.6737,-160 702.6736,-163.5001 702.6737,-156.5001"/>
</g>
<!-- CardStatComponent -->
<g id="node4" class="node">
<title>CardStatComponent</title>
<polygon fill="#ffffb3" stroke="#000000" points="777.323,-122 646.677,-122 646.677,-86 777.323,-86 777.323,-122"/>
<text text-anchor="middle" x="712" y="-99.8" font-family="Times,serif" font-size="14.00" fill="#000000">CardStatComponent</text>
</g>
<!-- CardStatComponent&#45;&gt;FinancingModule -->
<g id="edge4" class="edge">
<title>CardStatComponent&#45;&gt;FinancingModule</title>
<path fill="none" stroke="#000000" d="M669.805,-122.1061C669.805,-122.1061 669.805,-140.991 669.805,-140.991"/>
<polygon fill="#000000" stroke="#000000" points="666.3051,-140.9909 669.805,-150.991 673.3051,-140.991 666.3051,-140.9909"/>
</g>
<!-- CardViewComponent -->
<g id="node5" class="node">
<title>CardViewComponent</title>
<polygon fill="#ffffb3" stroke="#000000" points="628.3627,-122 489.6373,-122 489.6373,-86 628.3627,-86 628.3627,-122"/>
<text text-anchor="middle" x="559" y="-99.8" font-family="Times,serif" font-size="14.00" fill="#000000">CardViewComponent</text>
</g>
<!-- CardViewComponent&#45;&gt;FinancingModule -->
<g id="edge5" class="edge">
<title>CardViewComponent&#45;&gt;FinancingModule</title>
<path fill="none" stroke="#000000" d="M602.83,-122.1061C602.83,-122.1061 602.83,-140.991 602.83,-140.991"/>
<polygon fill="#000000" stroke="#000000" points="599.33,-140.9909 602.83,-150.991 606.33,-140.991 599.33,-140.9909"/>
</g>
<!-- DashboardComponent -->
<g id="node6" class="node">
<title>DashboardComponent</title>
<polygon fill="#ffffb3" stroke="#000000" points="471.9734,-122 330.0266,-122 330.0266,-86 471.9734,-86 471.9734,-122"/>
<text text-anchor="middle" x="401" y="-99.8" font-family="Times,serif" font-size="14.00" fill="#000000">DashboardComponent</text>
</g>
<!-- DashboardComponent&#45;&gt;FinancingModule -->
<g id="edge6" class="edge">
<title>DashboardComponent&#45;&gt;FinancingModule</title>
<path fill="none" stroke="#000000" d="M401,-122.027C401,-138.3976 401,-160 401,-160 401,-160 567.1573,-160 567.1573,-160"/>
<polygon fill="#000000" stroke="#000000" points="567.1573,-163.5001 577.1573,-160 567.1573,-156.5001 567.1573,-163.5001"/>
</g>
<!-- HomeComponent -->
<g id="node7" class="node">
<title>HomeComponent</title>
<polygon fill="#ffffb3" stroke="#000000" points="311.5451,-122 196.4549,-122 196.4549,-86 311.5451,-86 311.5451,-122"/>
<text text-anchor="middle" x="254" y="-99.8" font-family="Times,serif" font-size="14.00" fill="#000000">HomeComponent</text>
</g>
<!-- HomeComponent&#45;&gt;FinancingModule -->
<g id="edge7" class="edge">
<title>HomeComponent&#45;&gt;FinancingModule</title>
<path fill="none" stroke="#000000" d="M254,-122.1061C254,-141.3391 254,-169 254,-169 254,-169 567.1343,-169 567.1343,-169"/>
<polygon fill="#000000" stroke="#000000" points="567.1343,-172.5001 577.1343,-169 567.1343,-165.5001 567.1343,-172.5001"/>
</g>
<!-- ManagementComponent -->
<g id="node8" class="node">
<title>ManagementComponent</title>
<polygon fill="#ffffb3" stroke="#000000" points="178.4172,-122 23.5828,-122 23.5828,-86 178.4172,-86 178.4172,-122"/>
<text text-anchor="middle" x="101" y="-99.8" font-family="Times,serif" font-size="14.00" fill="#000000">ManagementComponent</text>
</g>
<!-- ManagementComponent&#45;&gt;FinancingModule -->
<g id="edge8" class="edge">
<title>ManagementComponent&#45;&gt;FinancingModule</title>
<path fill="none" stroke="#000000" d="M101,-122.2921C101,-144.2057 101,-178 101,-178 101,-178 567.3453,-178 567.3453,-178"/>
<polygon fill="#000000" stroke="#000000" points="567.3453,-181.5001 577.3453,-178 567.3452,-174.5001 567.3453,-181.5001"/>
</g>
</g>
</svg>
