<?xml version="1.0" encoding="UTF-8" standalone="no"?>
<!DOCTYPE svg PUBLIC "-//W3C//DTD SVG 1.1//EN"
 "http://www.w3.org/Graphics/SVG/1.1/DTD/svg11.dtd">
<!-- Generated by graphviz version 2.40.1 (20161225.0304)
 -->
<!-- Title: dependencies Pages: 1 -->
<svg width="3196pt" height="211pt"
 viewBox="0.00 0.00 3196.00 211.00" xmlns="http://www.w3.org/2000/svg" xmlns:xlink="http://www.w3.org/1999/xlink">
<g id="graph0" class="graph" transform="scale(1 1) rotate(0) translate(4 207)">
<title>dependencies</title>
<polygon fill="#ffffff" stroke="transparent" points="-4,4 -4,-207 3192,-207 3192,4 -4,4"/>
<text text-anchor="start" x="1573.0091" y="-42.4" font-family="sans-serif" font-weight="bold" font-size="14.00" fill="#000000">Legend</text>
<polygon fill="#ffffb3" stroke="transparent" points="1360,-10 1360,-30 1380,-30 1380,-10 1360,-10"/>
<text text-anchor="start" x="1383.629" y="-15.4" font-family="sans-serif" font-size="14.00" fill="#000000"> &#160;Declarations</text>
<polygon fill="#8dd3c7" stroke="transparent" points="1473,-10 1473,-30 1493,-30 1493,-10 1473,-10"/>
<text text-anchor="start" x="1496.7251" y="-15.4" font-family="sans-serif" font-size="14.00" fill="#000000"> &#160;Module</text>
<polygon fill="#80b1d3" stroke="transparent" points="1559,-10 1559,-30 1579,-30 1579,-10 1559,-10"/>
<text text-anchor="start" x="1582.7812" y="-15.4" font-family="sans-serif" font-size="14.00" fill="#000000"> &#160;Bootstrap</text>
<polygon fill="#fdb462" stroke="transparent" points="1656,-10 1656,-30 1676,-30 1676,-10 1656,-10"/>
<text text-anchor="start" x="1679.6732" y="-15.4" font-family="sans-serif" font-size="14.00" fill="#000000"> &#160;Providers</text>
<polygon fill="#fb8072" stroke="transparent" points="1752,-10 1752,-30 1772,-30 1772,-10 1752,-10"/>
<text text-anchor="start" x="1775.7258" y="-15.4" font-family="sans-serif" font-size="14.00" fill="#000000"> &#160;Exports</text>
<g id="clust1" class="cluster">
<title>cluster_FinancingModule</title>
<polygon fill="none" stroke="#000000" stroke-dasharray="1,5" points="8,-70 8,-195 3180,-195 3180,-70 8,-70"/>
</g>
<g id="clust2" class="cluster">
<title>cluster_FinancingModule_declarations</title>
<polygon fill="none" stroke="#000000" points="1886,-78 1886,-130 3172,-130 3172,-78 1886,-78"/>
</g>
<g id="clust11" class="cluster">
<title>cluster_FinancingModule_imports</title>
<polygon fill="none" stroke="#000000" points="16,-78 16,-130 1878,-130 1878,-78 16,-78"/>
</g>
<!-- HomeComponent -->
<g id="node1" class="node">
<title>HomeComponent</title>
<polygon fill="#ffffb3" stroke="#000000" points="3163.5451,-122 3048.4549,-122 3048.4549,-86 3163.5451,-86 3163.5451,-122"/>
<text text-anchor="middle" x="3106" y="-99.8" font-family="Times,serif" font-size="14.00" fill="#000000">HomeComponent</text>
</g>
<!-- FinancingModule -->
<g id="node9" class="node">
<title>FinancingModule</title>
<polygon fill="#8dd3c7" stroke="#000000" points="1534.5437,-187 1531.5437,-191 1510.5437,-191 1507.5437,-187 1419.4563,-187 1419.4563,-151 1534.5437,-151 1534.5437,-187"/>
<text text-anchor="middle" x="1477" y="-164.8" font-family="Times,serif" font-size="14.00" fill="#000000">FinancingModule</text>
</g>
<!-- HomeComponent&#45;&gt;FinancingModule -->
<g id="edge1" class="edge">
<title>HomeComponent&#45;&gt;FinancingModule</title>
<path fill="none" stroke="#000000" d="M3106,-122.1532C3106,-145.7566 3106,-184 3106,-184 3106,-184 1544.977,-184 1544.977,-184"/>
<polygon fill="#000000" stroke="#000000" points="1544.977,-180.5001 1534.977,-184 1544.9769,-187.5001 1544.977,-180.5001"/>
</g>
<!-- DashboardComponent -->
<g id="node2" class="node">
<title>DashboardComponent</title>
<polygon fill="#ffffb3" stroke="#000000" points="3029.9734,-122 2888.0266,-122 2888.0266,-86 3029.9734,-86 3029.9734,-122"/>
<text text-anchor="middle" x="2959" y="-99.8" font-family="Times,serif" font-size="14.00" fill="#000000">DashboardComponent</text>
</g>
<!-- DashboardComponent&#45;&gt;FinancingModule -->
<g id="edge2" class="edge">
<title>DashboardComponent&#45;&gt;FinancingModule</title>
<path fill="none" stroke="#000000" d="M2959,-122.2479C2959,-145.0179 2959,-181 2959,-181 2959,-181 1544.6413,-181 1544.6413,-181"/>
<polygon fill="#000000" stroke="#000000" points="1544.6413,-177.5001 1534.6413,-181 1544.6413,-184.5001 1544.6413,-177.5001"/>
</g>
<!-- CardStatComponent -->
<g id="node3" class="node">
<title>CardStatComponent</title>
<polygon fill="#ffffb3" stroke="#000000" points="2870.323,-122 2739.677,-122 2739.677,-86 2870.323,-86 2870.323,-122"/>
<text text-anchor="middle" x="2805" y="-99.8" font-family="Times,serif" font-size="14.00" fill="#000000">CardStatComponent</text>
</g>
<!-- CardStatComponent&#45;&gt;FinancingModule -->
<g id="edge3" class="edge">
<title>CardStatComponent&#45;&gt;FinancingModule</title>
<path fill="none" stroke="#000000" d="M2805,-122.2921C2805,-144.2057 2805,-178 2805,-178 2805,-178 1544.9164,-178 1544.9164,-178"/>
<polygon fill="#000000" stroke="#000000" points="1544.9165,-174.5001 1534.9164,-178 1544.9164,-181.5001 1544.9165,-174.5001"/>
</g>
<!-- CardHistoryComponent -->
<g id="node4" class="node">
<title>CardHistoryComponent</title>
<polygon fill="#ffffb3" stroke="#000000" points="2722.0379,-122 2571.9621,-122 2571.9621,-86 2722.0379,-86 2722.0379,-122"/>
<text text-anchor="middle" x="2647" y="-99.8" font-family="Times,serif" font-size="14.00" fill="#000000">CardHistoryComponent</text>
</g>
<!-- CardHistoryComponent&#45;&gt;FinancingModule -->
<g id="edge4" class="edge">
<title>CardHistoryComponent&#45;&gt;FinancingModule</title>
<path fill="none" stroke="#000000" d="M2647,-122.0267C2647,-142.7672 2647,-174 2647,-174 2647,-174 1544.6214,-174 1544.6214,-174"/>
<polygon fill="#000000" stroke="#000000" points="1544.6214,-170.5001 1534.6214,-174 1544.6214,-177.5001 1544.6214,-170.5001"/>
</g>
<!-- CardInvestorComponent -->
<g id="node5" class="node">
<title>CardInvestorComponent</title>
<polygon fill="#ffffb3" stroke="#000000" points="2554.4158,-122 2399.5842,-122 2399.5842,-86 2554.4158,-86 2554.4158,-122"/>
<text text-anchor="middle" x="2477" y="-99.8" font-family="Times,serif" font-size="14.00" fill="#000000">CardInvestorComponent</text>
</g>
<!-- CardInvestorComponent&#45;&gt;FinancingModule -->
<g id="edge5" class="edge">
<title>CardInvestorComponent&#45;&gt;FinancingModule</title>
<path fill="none" stroke="#000000" d="M2477,-122.308C2477,-142.1455 2477,-171 2477,-171 2477,-171 1544.7208,-171 1544.7208,-171"/>
<polygon fill="#000000" stroke="#000000" points="1544.7208,-167.5001 1534.7208,-171 1544.7208,-174.5001 1544.7208,-167.5001"/>
</g>
<!-- CardBlacklistComponent -->
<g id="node6" class="node">
<title>CardBlacklistComponent</title>
<polygon fill="#ffffb3" stroke="#000000" points="2382.3173,-122 2223.6827,-122 2223.6827,-86 2382.3173,-86 2382.3173,-122"/>
<text text-anchor="middle" x="2303" y="-99.8" font-family="Times,serif" font-size="14.00" fill="#000000">CardBlacklistComponent</text>
</g>
<!-- CardBlacklistComponent&#45;&gt;FinancingModule -->
<g id="edge6" class="edge">
<title>CardBlacklistComponent&#45;&gt;FinancingModule</title>
<path fill="none" stroke="#000000" d="M2303,-122.1686C2303,-141.0898 2303,-168 2303,-168 2303,-168 1544.7544,-168 1544.7544,-168"/>
<polygon fill="#000000" stroke="#000000" points="1544.7545,-164.5001 1534.7544,-168 1544.7544,-171.5001 1544.7545,-164.5001"/>
</g>
<!-- CardViewComponent -->
<g id="node7" class="node">
<title>CardViewComponent</title>
<polygon fill="#ffffb3" stroke="#000000" points="2205.3627,-122 2066.6373,-122 2066.6373,-86 2205.3627,-86 2205.3627,-122"/>
<text text-anchor="middle" x="2136" y="-99.8" font-family="Times,serif" font-size="14.00" fill="#000000">CardViewComponent</text>
</g>
<!-- CardViewComponent&#45;&gt;FinancingModule -->
<g id="edge7" class="edge">
<title>CardViewComponent&#45;&gt;FinancingModule</title>
<path fill="none" stroke="#000000" d="M2136,-122.302C2136,-140.2699 2136,-165 2136,-165 2136,-165 1544.6164,-165 1544.6164,-165"/>
<polygon fill="#000000" stroke="#000000" points="1544.6164,-161.5001 1534.6164,-165 1544.6164,-168.5001 1544.6164,-161.5001"/>
</g>
<!-- ManagementComponent -->
<g id="node8" class="node">
<title>ManagementComponent</title>
<polygon fill="#ffffb3" stroke="#000000" points="2048.4172,-122 1893.5828,-122 1893.5828,-86 2048.4172,-86 2048.4172,-122"/>
<text text-anchor="middle" x="1971" y="-99.8" font-family="Times,serif" font-size="14.00" fill="#000000">ManagementComponent</text>
</g>
<!-- ManagementComponent&#45;&gt;FinancingModule -->
<g id="edge8" class="edge">
<title>ManagementComponent&#45;&gt;FinancingModule</title>
<path fill="none" stroke="#000000" d="M1971,-122.0352C1971,-138.7344 1971,-161 1971,-161 1971,-161 1544.6349,-161 1544.6349,-161"/>
<polygon fill="#000000" stroke="#000000" points="1544.6349,-157.5001 1534.6349,-161 1544.6349,-164.5001 1544.6349,-157.5001"/>
</g>
<!-- CommonModule -->
<g id="node10" class="node">
<title>CommonModule</title>
<polygon fill="#8dd3c7" stroke="#000000" points="1869.6681,-122 1866.6681,-126 1845.6681,-126 1842.6681,-122 1758.3319,-122 1758.3319,-86 1869.6681,-86 1869.6681,-122"/>
<text text-anchor="middle" x="1814" y="-99.8" font-family="Times,serif" font-size="14.00" fill="#000000">CommonModule</text>
</g>
<!-- CommonModule&#45;&gt;FinancingModule -->
<g id="edge9" class="edge">
<title>CommonModule&#45;&gt;FinancingModule</title>
<path fill="none" stroke="#000000" d="M1814,-122.2819C1814,-137.9478 1814,-158 1814,-158 1814,-158 1544.5495,-158 1544.5495,-158"/>
<polygon fill="#000000" stroke="#000000" points="1544.5495,-154.5001 1534.5495,-158 1544.5494,-161.5001 1544.5495,-154.5001"/>
</g>
<!-- RouterModule.forChild(args) -->
<g id="node11" class="node">
<title>RouterModule.forChild(args)</title>
<polygon fill="#8dd3c7" stroke="#000000" points="1740.7323,-122 1737.7323,-126 1716.7323,-126 1713.7323,-122 1559.2677,-122 1559.2677,-86 1740.7323,-86 1740.7323,-122"/>
<text text-anchor="middle" x="1650" y="-99.8" font-family="Times,serif" font-size="14.00" fill="#000000">RouterModule.forChild(args)</text>
</g>
<!-- RouterModule.forChild(args)&#45;&gt;FinancingModule -->
<g id="edge10" class="edge">
<title>RouterModule.forChild(args)&#45;&gt;FinancingModule</title>
<path fill="none" stroke="#000000" d="M1650,-122.1243C1650,-136.7832 1650,-155 1650,-155 1650,-155 1544.6065,-155 1544.6065,-155"/>
<polygon fill="#000000" stroke="#000000" points="1544.6065,-151.5001 1534.6065,-155 1544.6065,-158.5001 1544.6065,-151.5001"/>
</g>
<!-- MatGridListModule -->
<g id="node12" class="node">
<title>MatGridListModule</title>
<polygon fill="#8dd3c7" stroke="#000000" points="1541.5366,-122 1538.5366,-126 1517.5366,-126 1514.5366,-122 1412.4634,-122 1412.4634,-86 1541.5366,-86 1541.5366,-122"/>
<text text-anchor="middle" x="1477" y="-99.8" font-family="Times,serif" font-size="14.00" fill="#000000">MatGridListModule</text>
</g>
<!-- MatGridListModule&#45;&gt;FinancingModule -->
<g id="edge11" class="edge">
<title>MatGridListModule&#45;&gt;FinancingModule</title>
<path fill="none" stroke="#000000" d="M1477,-122.1061C1477,-122.1061 1477,-140.991 1477,-140.991"/>
<polygon fill="#000000" stroke="#000000" points="1473.5001,-140.9909 1477,-150.991 1480.5001,-140.991 1473.5001,-140.9909"/>
</g>
<!-- MatCardModule -->
<g id="node13" class="node">
<title>MatCardModule</title>
<polygon fill="#8dd3c7" stroke="#000000" points="1394.8118,-122 1391.8118,-126 1370.8118,-126 1367.8118,-122 1285.1882,-122 1285.1882,-86 1394.8118,-86 1394.8118,-122"/>
<text text-anchor="middle" x="1340" y="-99.8" font-family="Times,serif" font-size="14.00" fill="#000000">MatCardModule</text>
</g>
<!-- MatCardModule&#45;&gt;FinancingModule -->
<g id="edge12" class="edge">
<title>MatCardModule&#45;&gt;FinancingModule</title>
<path fill="none" stroke="#000000" d="M1340,-122.1243C1340,-136.7832 1340,-155 1340,-155 1340,-155 1409.2967,-155 1409.2967,-155"/>
<polygon fill="#000000" stroke="#000000" points="1409.2968,-158.5001 1419.2967,-155 1409.2967,-151.5001 1409.2968,-158.5001"/>
</g>
<!-- MatIconModule -->
<g id="node14" class="node">
<title>MatIconModule</title>
<polygon fill="#8dd3c7" stroke="#000000" points="1267.4748,-122 1264.4748,-126 1243.4748,-126 1240.4748,-122 1160.5252,-122 1160.5252,-86 1267.4748,-86 1267.4748,-122"/>
<text text-anchor="middle" x="1214" y="-99.8" font-family="Times,serif" font-size="14.00" fill="#000000">MatIconModule</text>
</g>
<!-- MatIconModule&#45;&gt;FinancingModule -->
<g id="edge13" class="edge">
<title>MatIconModule&#45;&gt;FinancingModule</title>
<path fill="none" stroke="#000000" d="M1214,-122.2819C1214,-137.9478 1214,-158 1214,-158 1214,-158 1409.2835,-158 1409.2835,-158"/>
<polygon fill="#000000" stroke="#000000" points="1409.2836,-161.5001 1419.2835,-158 1409.2835,-154.5001 1409.2836,-161.5001"/>
</g>
<!-- MatListModule -->
<g id="node15" class="node">
<title>MatListModule</title>
<polygon fill="#8dd3c7" stroke="#000000" points="1142.8781,-122 1139.8781,-126 1118.8781,-126 1115.8781,-122 1039.1219,-122 1039.1219,-86 1142.8781,-86 1142.8781,-122"/>
<text text-anchor="middle" x="1091" y="-99.8" font-family="Times,serif" font-size="14.00" fill="#000000">MatListModule</text>
</g>
<!-- MatListModule&#45;&gt;FinancingModule -->
<g id="edge14" class="edge">
<title>MatListModule&#45;&gt;FinancingModule</title>
<path fill="none" stroke="#000000" d="M1091,-122.0352C1091,-138.7344 1091,-161 1091,-161 1091,-161 1409.2119,-161 1409.2119,-161"/>
<polygon fill="#000000" stroke="#000000" points="1409.2119,-164.5001 1419.2119,-161 1409.2119,-157.5001 1409.2119,-164.5001"/>
</g>
<!-- MatMenuModule -->
<g id="node16" class="node">
<title>MatMenuModule</title>
<polygon fill="#8dd3c7" stroke="#000000" points="1021.2591,-122 1018.2591,-126 997.2591,-126 994.2591,-122 906.7409,-122 906.7409,-86 1021.2591,-86 1021.2591,-122"/>
<text text-anchor="middle" x="964" y="-99.8" font-family="Times,serif" font-size="14.00" fill="#000000">MatMenuModule</text>
</g>
<!-- MatMenuModule&#45;&gt;FinancingModule -->
<g id="edge15" class="edge">
<title>MatMenuModule&#45;&gt;FinancingModule</title>
<path fill="none" stroke="#000000" d="M964,-122.302C964,-140.2699 964,-165 964,-165 964,-165 1409.1496,-165 1409.1496,-165"/>
<polygon fill="#000000" stroke="#000000" points="1409.1496,-168.5001 1419.1496,-165 1409.1495,-161.5001 1409.1496,-168.5001"/>
</g>
<!-- MatTabsModule -->
<g id="node17" class="node">
<title>MatTabsModule</title>
<polygon fill="#8dd3c7" stroke="#000000" points="888.8118,-122 885.8118,-126 864.8118,-126 861.8118,-122 779.1882,-122 779.1882,-86 888.8118,-86 888.8118,-122"/>
<text text-anchor="middle" x="834" y="-99.8" font-family="Times,serif" font-size="14.00" fill="#000000">MatTabsModule</text>
</g>
<!-- MatTabsModule&#45;&gt;FinancingModule -->
<g id="edge16" class="edge">
<title>MatTabsModule&#45;&gt;FinancingModule</title>
<path fill="none" stroke="#000000" d="M834,-122.1686C834,-141.0898 834,-168 834,-168 834,-168 1409.3722,-168 1409.3722,-168"/>
<polygon fill="#000000" stroke="#000000" points="1409.3722,-171.5001 1419.3722,-168 1409.3721,-164.5001 1409.3722,-171.5001"/>
</g>
<!-- MatFormFieldModule -->
<g id="node18" class="node">
<title>MatFormFieldModule</title>
<polygon fill="#8dd3c7" stroke="#000000" points="761.712,-122 758.712,-126 737.712,-126 734.712,-122 620.288,-122 620.288,-86 761.712,-86 761.712,-122"/>
<text text-anchor="middle" x="691" y="-99.8" font-family="Times,serif" font-size="14.00" fill="#000000">MatFormFieldModule</text>
</g>
<!-- MatFormFieldModule&#45;&gt;FinancingModule -->
<g id="edge17" class="edge">
<title>MatFormFieldModule&#45;&gt;FinancingModule</title>
<path fill="none" stroke="#000000" d="M691,-122.308C691,-142.1455 691,-171 691,-171 691,-171 1409.2035,-171 1409.2035,-171"/>
<polygon fill="#000000" stroke="#000000" points="1409.2036,-174.5001 1419.2035,-171 1409.2035,-167.5001 1409.2036,-174.5001"/>
</g>
<!-- MatInputModule -->
<g id="node19" class="node">
<title>MatInputModule</title>
<polygon fill="#8dd3c7" stroke="#000000" points="602.6513,-122 599.6513,-126 578.6513,-126 575.6513,-122 491.3487,-122 491.3487,-86 602.6513,-86 602.6513,-122"/>
<text text-anchor="middle" x="547" y="-99.8" font-family="Times,serif" font-size="14.00" fill="#000000">MatInputModule</text>
</g>
<!-- MatInputModule&#45;&gt;FinancingModule -->
<g id="edge18" class="edge">
<title>MatInputModule&#45;&gt;FinancingModule</title>
<path fill="none" stroke="#000000" d="M547,-122.0267C547,-142.7672 547,-174 547,-174 547,-174 1409.1757,-174 1409.1757,-174"/>
<polygon fill="#000000" stroke="#000000" points="1409.1757,-177.5001 1419.1757,-174 1409.1757,-170.5001 1409.1757,-177.5001"/>
</g>
<!-- MatCheckboxModule -->
<g id="node20" class="node">
<title>MatCheckboxModule</title>
<polygon fill="#8dd3c7" stroke="#000000" points="473.3655,-122 470.3655,-126 449.3655,-126 446.3655,-122 334.6345,-122 334.6345,-86 473.3655,-86 473.3655,-122"/>
<text text-anchor="middle" x="404" y="-99.8" font-family="Times,serif" font-size="14.00" fill="#000000">MatCheckboxModule</text>
</g>
<!-- MatCheckboxModule&#45;&gt;FinancingModule -->
<g id="edge19" class="edge">
<title>MatCheckboxModule&#45;&gt;FinancingModule</title>
<path fill="none" stroke="#000000" d="M404,-122.2921C404,-144.2057 404,-178 404,-178 404,-178 1409.3109,-178 1409.3109,-178"/>
<polygon fill="#000000" stroke="#000000" points="1409.3109,-181.5001 1419.3109,-178 1409.3108,-174.5001 1409.3109,-181.5001"/>
</g>
<!-- MatSlideToggleModule -->
<g id="node21" class="node">
<title>MatSlideToggleModule</title>
<polygon fill="#8dd3c7" stroke="#000000" points="316.0365,-122 313.0365,-126 292.0365,-126 289.0365,-122 165.9635,-122 165.9635,-86 316.0365,-86 316.0365,-122"/>
<text text-anchor="middle" x="241" y="-99.8" font-family="Times,serif" font-size="14.00" fill="#000000">MatSlideToggleModule</text>
</g>
<!-- MatSlideToggleModule&#45;&gt;FinancingModule -->
<g id="edge20" class="edge">
<title>MatSlideToggleModule&#45;&gt;FinancingModule</title>
<path fill="none" stroke="#000000" d="M241,-122.2479C241,-145.0179 241,-181 241,-181 241,-181 1409.4542,-181 1409.4542,-181"/>
<polygon fill="#000000" stroke="#000000" points="1409.4542,-184.5001 1419.4542,-181 1409.4541,-177.5001 1409.4542,-184.5001"/>
</g>
<!-- FlexLayoutModule -->
<g id="node22" class="node">
<title>FlexLayoutModule</title>
<polygon fill="#8dd3c7" stroke="#000000" points="148.0954,-122 145.0954,-126 124.0954,-126 121.0954,-122 23.9046,-122 23.9046,-86 148.0954,-86 148.0954,-122"/>
<text text-anchor="middle" x="86" y="-99.8" font-family="Times,serif" font-size="14.00" fill="#000000">FlexLayoutModule</text>
</g>
<!-- FlexLayoutModule&#45;&gt;FinancingModule -->
<g id="edge21" class="edge">
<title>FlexLayoutModule&#45;&gt;FinancingModule</title>
<path fill="none" stroke="#000000" d="M86,-122.1532C86,-145.7566 86,-184 86,-184 86,-184 1409.4404,-184 1409.4404,-184"/>
<polygon fill="#000000" stroke="#000000" points="1409.4404,-187.5001 1419.4404,-184 1409.4404,-180.5001 1409.4404,-187.5001"/>
</g>
</g>
</svg>
