<?xml version="1.0" encoding="UTF-8" standalone="no"?>
<!DOCTYPE svg PUBLIC "-//W3C//DTD SVG 1.1//EN"
 "http://www.w3.org/Graphics/SVG/1.1/DTD/svg11.dtd">
<!-- Generated by graphviz version 2.40.1 (20161225.0304)
 -->
<!-- Title: dependencies Pages: 1 -->
<svg width="533pt" height="284pt"
 viewBox="0.00 0.00 533.00 284.00" xmlns="http://www.w3.org/2000/svg" xmlns:xlink="http://www.w3.org/1999/xlink">
<g id="graph0" class="graph" transform="scale(1 1) rotate(0) translate(4 280)">
<title>dependencies</title>
<polygon fill="#ffffff" stroke="transparent" points="-4,4 -4,-280 529,-280 529,4 -4,4"/>
<text text-anchor="start" x="241.5091" y="-42.4" font-family="sans-serif" font-weight="bold" font-size="14.00" fill="#000000">Legend</text>
<polygon fill="#ffffb3" stroke="transparent" points="28.5,-10 28.5,-30 48.5,-30 48.5,-10 28.5,-10"/>
<text text-anchor="start" x="52.129" y="-15.4" font-family="sans-serif" font-size="14.00" fill="#000000"> &#160;Declarations</text>
<polygon fill="#8dd3c7" stroke="transparent" points="141.5,-10 141.5,-30 161.5,-30 161.5,-10 141.5,-10"/>
<text text-anchor="start" x="165.2251" y="-15.4" font-family="sans-serif" font-size="14.00" fill="#000000"> &#160;Module</text>
<polygon fill="#80b1d3" stroke="transparent" points="227.5,-10 227.5,-30 247.5,-30 247.5,-10 227.5,-10"/>
<text text-anchor="start" x="251.2812" y="-15.4" font-family="sans-serif" font-size="14.00" fill="#000000"> &#160;Bootstrap</text>
<polygon fill="#fdb462" stroke="transparent" points="324.5,-10 324.5,-30 344.5,-30 344.5,-10 324.5,-10"/>
<text text-anchor="start" x="348.1732" y="-15.4" font-family="sans-serif" font-size="14.00" fill="#000000"> &#160;Providers</text>
<polygon fill="#fb8072" stroke="transparent" points="420.5,-10 420.5,-30 440.5,-30 440.5,-10 420.5,-10"/>
<text text-anchor="start" x="444.2258" y="-15.4" font-family="sans-serif" font-size="14.00" fill="#000000"> &#160;Exports</text>
<g id="clust1" class="cluster">
<title>cluster_UploadModule</title>
<polygon fill="none" stroke="#000000" stroke-dasharray="1,5" points="8,-70 8,-268 517,-268 517,-70 8,-70"/>
</g>
<g id="clust2" class="cluster">
<title>cluster_UploadModule_declarations</title>
<polygon fill="none" stroke="#000000" points="21,-78 21,-130 503,-130 503,-78 21,-78"/>
</g>
<g id="clust7" class="cluster">
<title>cluster_UploadModule_exports</title>
<polygon fill="none" stroke="#000000" points="16,-208 16,-260 509,-260 509,-208 16,-208"/>
</g>
<!-- ButtonUploadComponent -->
<g id="node1" class="node">
<title>ButtonUploadComponent</title>
<polygon fill="#ffffb3" stroke="#000000" points="495.1624,-122 334.8376,-122 334.8376,-86 495.1624,-86 495.1624,-122"/>
<text text-anchor="middle" x="415" y="-99.8" font-family="Times,serif" font-size="14.00" fill="#000000">ButtonUploadComponent</text>
</g>
<!-- UploadModule -->
<g id="node4" class="node">
<title>UploadModule</title>
<polygon fill="#8dd3c7" stroke="#000000" points="304.2619,-187 301.2619,-191 280.2619,-191 277.2619,-187 203.7381,-187 203.7381,-151 304.2619,-151 304.2619,-187"/>
<text text-anchor="middle" x="254" y="-164.8" font-family="Times,serif" font-size="14.00" fill="#000000">UploadModule</text>
</g>
<!-- ButtonUploadComponent&#45;&gt;UploadModule -->
<g id="edge1" class="edge">
<title>ButtonUploadComponent&#45;&gt;UploadModule</title>
<path fill="none" stroke="#000000" d="M442.527,-122.0225C442.527,-139.3734 442.527,-163 442.527,-163 442.527,-163 314.5218,-163 314.5218,-163"/>
<polygon fill="#000000" stroke="#000000" points="314.5218,-159.5001 304.5218,-163 314.5217,-166.5001 314.5218,-159.5001"/>
</g>
<!-- DropZoneDirective -->
<g id="node2" class="node">
<title>DropZoneDirective</title>
<polygon fill="#ffffb3" stroke="#000000" points="316.6178,-122 191.3822,-122 191.3822,-86 316.6178,-86 316.6178,-122"/>
<text text-anchor="middle" x="254" y="-99.8" font-family="Times,serif" font-size="14.00" fill="#000000">DropZoneDirective</text>
</g>
<!-- DropZoneDirective&#45;&gt;UploadModule -->
<g id="edge2" class="edge">
<title>DropZoneDirective&#45;&gt;UploadModule</title>
<path fill="none" stroke="#000000" d="M254,-122.1061C254,-122.1061 254,-140.991 254,-140.991"/>
<polygon fill="#000000" stroke="#000000" points="250.5001,-140.9909 254,-150.991 257.5001,-140.991 250.5001,-140.9909"/>
</g>
<!-- FileUploadComponent -->
<g id="node3" class="node">
<title>FileUploadComponent</title>
<polygon fill="#ffffb3" stroke="#000000" points="173.323,-122 28.677,-122 28.677,-86 173.323,-86 173.323,-122"/>
<text text-anchor="middle" x="101" y="-99.8" font-family="Times,serif" font-size="14.00" fill="#000000">FileUploadComponent</text>
</g>
<!-- FileUploadComponent&#45;&gt;UploadModule -->
<g id="edge3" class="edge">
<title>FileUploadComponent&#45;&gt;UploadModule</title>
<path fill="none" stroke="#000000" d="M124.2204,-122.0225C124.2204,-139.3734 124.2204,-163 124.2204,-163 124.2204,-163 193.4522,-163 193.4522,-163"/>
<polygon fill="#000000" stroke="#000000" points="193.4523,-166.5001 203.4522,-163 193.4522,-159.5001 193.4523,-166.5001"/>
</g>
<!-- ButtonUploadComponent  -->
<g id="node5" class="node">
<title>ButtonUploadComponent </title>
<polygon fill="#fb8072" stroke="#000000" points="501.1621,-252 336.8379,-252 336.8379,-216 501.1621,-216 501.1621,-252"/>
<text text-anchor="middle" x="419" y="-229.8" font-family="Times,serif" font-size="14.00" fill="#000000">ButtonUploadComponent </text>
</g>
<!-- UploadModule&#45;&gt;ButtonUploadComponent  -->
<g id="edge4" class="edge">
<title>UploadModule&#45;&gt;ButtonUploadComponent </title>
<path fill="none" stroke="#000000" stroke-dasharray="5,2" d="M304.5382,-175C343.1262,-175 389.723,-175 389.723,-175 389.723,-175 389.723,-205.9775 389.723,-205.9775"/>
<polygon fill="#000000" stroke="#000000" points="386.2231,-205.9774 389.723,-215.9775 393.2231,-205.9775 386.2231,-205.9774"/>
</g>
<!-- DropZoneDirective  -->
<g id="node6" class="node">
<title>DropZoneDirective </title>
<polygon fill="#fb8072" stroke="#000000" points="318.6173,-252 189.3827,-252 189.3827,-216 318.6173,-216 318.6173,-252"/>
<text text-anchor="middle" x="254" y="-229.8" font-family="Times,serif" font-size="14.00" fill="#000000">DropZoneDirective </text>
</g>
<!-- UploadModule&#45;&gt;DropZoneDirective  -->
<g id="edge5" class="edge">
<title>UploadModule&#45;&gt;DropZoneDirective </title>
<path fill="none" stroke="#000000" stroke-dasharray="5,2" d="M254,-187.1061C254,-187.1061 254,-205.991 254,-205.991"/>
<polygon fill="#000000" stroke="#000000" points="250.5001,-205.9909 254,-215.991 257.5001,-205.991 250.5001,-205.9909"/>
</g>
<!-- FileUploadComponent  -->
<g id="node7" class="node">
<title>FileUploadComponent </title>
<polygon fill="#fb8072" stroke="#000000" points="171.8227,-252 24.1773,-252 24.1773,-216 171.8227,-216 171.8227,-252"/>
<text text-anchor="middle" x="98" y="-229.8" font-family="Times,serif" font-size="14.00" fill="#000000">FileUploadComponent </text>
</g>
<!-- UploadModule&#45;&gt;FileUploadComponent  -->
<g id="edge6" class="edge">
<title>UploadModule&#45;&gt;FileUploadComponent </title>
<path fill="none" stroke="#000000" stroke-dasharray="5,2" d="M203.6188,-175C151.1508,-175 76.5296,-175 76.5296,-175 76.5296,-175 76.5296,-205.9775 76.5296,-205.9775"/>
<polygon fill="#000000" stroke="#000000" points="73.0297,-205.9774 76.5296,-215.9775 80.0297,-205.9775 73.0297,-205.9774"/>
</g>
</g>
</svg>
