<?xml version="1.0" encoding="UTF-8" standalone="no"?>
<!DOCTYPE svg PUBLIC "-//W3C//DTD SVG 1.1//EN"
 "http://www.w3.org/Graphics/SVG/1.1/DTD/svg11.dtd">
<!-- Generated by graphviz version 2.40.1 (20161225.0304)
 -->
<!-- Title: dependencies Pages: 1 -->
<svg width="530pt" height="284pt"
 viewBox="0.00 0.00 530.00 284.00" xmlns="http://www.w3.org/2000/svg" xmlns:xlink="http://www.w3.org/1999/xlink">
<g id="graph0" class="graph" transform="scale(1 1) rotate(0) translate(4 280)">
<title>dependencies</title>
<polygon fill="#ffffff" stroke="transparent" points="-4,4 -4,-280 526,-280 526,4 -4,4"/>
<text text-anchor="start" x="240.0091" y="-42.4" font-family="sans-serif" font-weight="bold" font-size="14.00" fill="#000000">Legend</text>
<polygon fill="#ffffb3" stroke="transparent" points="27,-10 27,-30 47,-30 47,-10 27,-10"/>
<text text-anchor="start" x="50.629" y="-15.4" font-family="sans-serif" font-size="14.00" fill="#000000"> &#160;Declarations</text>
<polygon fill="#8dd3c7" stroke="transparent" points="140,-10 140,-30 160,-30 160,-10 140,-10"/>
<text text-anchor="start" x="163.7251" y="-15.4" font-family="sans-serif" font-size="14.00" fill="#000000"> &#160;Module</text>
<polygon fill="#80b1d3" stroke="transparent" points="226,-10 226,-30 246,-30 246,-10 226,-10"/>
<text text-anchor="start" x="249.7812" y="-15.4" font-family="sans-serif" font-size="14.00" fill="#000000"> &#160;Bootstrap</text>
<polygon fill="#fdb462" stroke="transparent" points="323,-10 323,-30 343,-30 343,-10 323,-10"/>
<text text-anchor="start" x="346.6732" y="-15.4" font-family="sans-serif" font-size="14.00" fill="#000000"> &#160;Providers</text>
<polygon fill="#fb8072" stroke="transparent" points="419,-10 419,-30 439,-30 439,-10 419,-10"/>
<text text-anchor="start" x="442.7258" y="-15.4" font-family="sans-serif" font-size="14.00" fill="#000000"> &#160;Exports</text>
<g id="clust1" class="cluster">
<title>cluster_NotificationWidgetModule</title>
<polygon fill="none" stroke="#000000" stroke-dasharray="1,5" points="8,-70 8,-268 514,-268 514,-70 8,-70"/>
</g>
<g id="clust2" class="cluster">
<title>cluster_NotificationWidgetModule_declarations</title>
<polygon fill="none" stroke="#000000" points="300,-78 300,-130 506,-130 506,-78 300,-78"/>
</g>
<g id="clust4" class="cluster">
<title>cluster_NotificationWidgetModule_imports</title>
<polygon fill="none" stroke="#000000" points="16,-78 16,-130 292,-130 292,-78 16,-78"/>
</g>
<g id="clust5" class="cluster">
<title>cluster_NotificationWidgetModule_exports</title>
<polygon fill="none" stroke="#000000" points="122,-208 122,-260 332,-260 332,-208 122,-208"/>
</g>
<!-- NotificationWidgetComponent -->
<g id="node1" class="node">
<title>NotificationWidgetComponent</title>
<polygon fill="#ffffb3" stroke="#000000" points="498.1923,-122 307.8077,-122 307.8077,-86 498.1923,-86 498.1923,-122"/>
<text text-anchor="middle" x="403" y="-99.8" font-family="Times,serif" font-size="14.00" fill="#000000">NotificationWidgetComponent</text>
</g>
<!-- NotificationWidgetModule -->
<g id="node2" class="node">
<title>NotificationWidgetModule</title>
<polygon fill="#8dd3c7" stroke="#000000" points="311.4101,-187 308.4101,-191 287.4101,-191 284.4101,-187 142.5899,-187 142.5899,-151 311.4101,-151 311.4101,-187"/>
<text text-anchor="middle" x="227" y="-164.8" font-family="Times,serif" font-size="14.00" fill="#000000">NotificationWidgetModule</text>
</g>
<!-- NotificationWidgetComponent&#45;&gt;NotificationWidgetModule -->
<g id="edge1" class="edge">
<title>NotificationWidgetComponent&#45;&gt;NotificationWidgetModule</title>
<path fill="none" stroke="#000000" d="M317.5255,-122.1061C317.5255,-141.3391 317.5255,-169 317.5255,-169 317.5255,-169 316.9032,-169 316.9032,-169"/>
<polygon fill="#000000" stroke="#000000" points="321.3033,-165.5002 311.3033,-169 321.3032,-172.5002 321.3033,-165.5002"/>
</g>
<!-- NotificationWidgetComponent  -->
<g id="node5" class="node">
<title>NotificationWidgetComponent </title>
<polygon fill="#fb8072" stroke="#000000" points="323.6924,-252 130.3076,-252 130.3076,-216 323.6924,-216 323.6924,-252"/>
<text text-anchor="middle" x="227" y="-229.8" font-family="Times,serif" font-size="14.00" fill="#000000">NotificationWidgetComponent </text>
</g>
<!-- NotificationWidgetModule&#45;&gt;NotificationWidgetComponent  -->
<g id="edge4" class="edge">
<title>NotificationWidgetModule&#45;&gt;NotificationWidgetComponent </title>
<path fill="none" stroke="#000000" stroke-dasharray="5,2" d="M227,-187.1061C227,-187.1061 227,-205.991 227,-205.991"/>
<polygon fill="#000000" stroke="#000000" points="223.5001,-205.9909 227,-215.991 230.5001,-205.991 223.5001,-205.9909"/>
</g>
<!-- InvitationModule -->
<g id="node3" class="node">
<title>InvitationModule</title>
<polygon fill="#8dd3c7" stroke="#000000" points="283.9874,-122 280.9874,-126 259.9874,-126 256.9874,-122 170.0126,-122 170.0126,-86 283.9874,-86 283.9874,-122"/>
<text text-anchor="middle" x="227" y="-99.8" font-family="Times,serif" font-size="14.00" fill="#000000">InvitationModule</text>
</g>
<!-- InvitationModule&#45;&gt;NotificationWidgetModule -->
<g id="edge2" class="edge">
<title>InvitationModule&#45;&gt;NotificationWidgetModule</title>
<path fill="none" stroke="#000000" d="M227,-122.1061C227,-122.1061 227,-140.991 227,-140.991"/>
<polygon fill="#000000" stroke="#000000" points="223.5001,-140.9909 227,-150.991 230.5001,-140.991 223.5001,-140.9909"/>
</g>
<!-- NotificationModule -->
<g id="node4" class="node">
<title>NotificationModule</title>
<polygon fill="#8dd3c7" stroke="#000000" points="151.6994,-122 148.6994,-126 127.6994,-126 124.6994,-122 24.3006,-122 24.3006,-86 151.6994,-86 151.6994,-122"/>
<text text-anchor="middle" x="88" y="-99.8" font-family="Times,serif" font-size="14.00" fill="#000000">NotificationModule</text>
</g>
<!-- NotificationModule&#45;&gt;NotificationWidgetModule -->
<g id="edge3" class="edge">
<title>NotificationModule&#45;&gt;NotificationWidgetModule</title>
<path fill="none" stroke="#000000" d="M147.1974,-122.1061C147.1974,-122.1061 147.1974,-140.991 147.1974,-140.991"/>
<polygon fill="#000000" stroke="#000000" points="143.6975,-140.9909 147.1974,-150.991 150.6975,-140.991 143.6975,-140.9909"/>
</g>
</g>
</svg>
