<?xml version="1.0" encoding="UTF-8" standalone="no"?>
<!DOCTYPE svg PUBLIC "-//W3C//DTD SVG 1.1//EN"
 "http://www.w3.org/Graphics/SVG/1.1/DTD/svg11.dtd">
<!-- Generated by graphviz version 2.40.1 (20161225.0304)
 -->
<!-- Title: dependencies Pages: 1 -->
<svg width="5008pt" height="284pt"
 viewBox="0.00 0.00 5008.00 284.00" xmlns="http://www.w3.org/2000/svg" xmlns:xlink="http://www.w3.org/1999/xlink">
<g id="graph0" class="graph" transform="scale(1 1) rotate(0) translate(4 280)">
<title>dependencies</title>
<polygon fill="#ffffff" stroke="transparent" points="-4,4 -4,-280 5004,-280 5004,4 -4,4"/>
<text text-anchor="start" x="2479.0091" y="-42.4" font-family="sans-serif" font-weight="bold" font-size="14.00" fill="#000000">Legend</text>
<polygon fill="#ffffb3" stroke="transparent" points="2266,-10 2266,-30 2286,-30 2286,-10 2266,-10"/>
<text text-anchor="start" x="2289.629" y="-15.4" font-family="sans-serif" font-size="14.00" fill="#000000"> &#160;Declarations</text>
<polygon fill="#8dd3c7" stroke="transparent" points="2379,-10 2379,-30 2399,-30 2399,-10 2379,-10"/>
<text text-anchor="start" x="2402.7251" y="-15.4" font-family="sans-serif" font-size="14.00" fill="#000000"> &#160;Module</text>
<polygon fill="#80b1d3" stroke="transparent" points="2465,-10 2465,-30 2485,-30 2485,-10 2465,-10"/>
<text text-anchor="start" x="2488.7812" y="-15.4" font-family="sans-serif" font-size="14.00" fill="#000000"> &#160;Bootstrap</text>
<polygon fill="#fdb462" stroke="transparent" points="2562,-10 2562,-30 2582,-30 2582,-10 2562,-10"/>
<text text-anchor="start" x="2585.6732" y="-15.4" font-family="sans-serif" font-size="14.00" fill="#000000"> &#160;Providers</text>
<polygon fill="#fb8072" stroke="transparent" points="2658,-10 2658,-30 2678,-30 2678,-10 2658,-10"/>
<text text-anchor="start" x="2681.7258" y="-15.4" font-family="sans-serif" font-size="14.00" fill="#000000"> &#160;Exports</text>
<g id="clust1" class="cluster">
<title>cluster_OrganizationModule</title>
<polygon fill="none" stroke="#000000" stroke-dasharray="1,5" points="8,-70 8,-268 4992,-268 4992,-70 8,-70"/>
</g>
<g id="clust2" class="cluster">
<title>cluster_OrganizationModule_declarations</title>
<polygon fill="none" stroke="#000000" points="969,-78 969,-130 4984,-130 4984,-78 969,-78"/>
</g>
<g id="clust21" class="cluster">
<title>cluster_OrganizationModule_imports</title>
<polygon fill="none" stroke="#000000" points="16,-78 16,-130 961,-130 961,-78 16,-78"/>
</g>
<g id="clust22" class="cluster">
<title>cluster_OrganizationModule_exports</title>
<polygon fill="none" stroke="#000000" points="2041,-208 2041,-260 2471,-260 2471,-208 2041,-208"/>
</g>
<!-- MemberAddComponent -->
<g id="node1" class="node">
<title>MemberAddComponent</title>
<polygon fill="#ffffb3" stroke="#000000" points="4976.3641,-122 4823.6359,-122 4823.6359,-86 4976.3641,-86 4976.3641,-122"/>
<text text-anchor="middle" x="4900" y="-99.8" font-family="Times,serif" font-size="14.00" fill="#000000">MemberAddComponent</text>
</g>
<!-- OrganizationModule -->
<g id="node19" class="node">
<title>OrganizationModule</title>
<polygon fill="#8dd3c7" stroke="#000000" points="2323.1331,-187 2320.1331,-191 2299.1331,-191 2296.1331,-187 2190.8669,-187 2190.8669,-151 2323.1331,-151 2323.1331,-187"/>
<text text-anchor="middle" x="2257" y="-164.8" font-family="Times,serif" font-size="14.00" fill="#000000">OrganizationModule</text>
</g>
<!-- MemberAddComponent&#45;&gt;OrganizationModule -->
<g id="edge1" class="edge">
<title>MemberAddComponent&#45;&gt;OrganizationModule</title>
<path fill="none" stroke="#000000" d="M4900,-122.3802C4900,-146.2785 4900,-185 4900,-185 4900,-185 2333.3232,-185 2333.3232,-185"/>
<polygon fill="#000000" stroke="#000000" points="2333.3232,-181.5001 2323.3232,-185 2333.3232,-188.5001 2333.3232,-181.5001"/>
</g>
<!-- MemberEditableComponent -->
<g id="node2" class="node">
<title>MemberEditableComponent</title>
<polygon fill="#ffffb3" stroke="#000000" points="4805.9115,-122 4630.0885,-122 4630.0885,-86 4805.9115,-86 4805.9115,-122"/>
<text text-anchor="middle" x="4718" y="-99.8" font-family="Times,serif" font-size="14.00" fill="#000000">MemberEditableComponent</text>
</g>
<!-- MemberEditableComponent&#45;&gt;OrganizationModule -->
<g id="edge2" class="edge">
<title>MemberEditableComponent&#45;&gt;OrganizationModule</title>
<path fill="none" stroke="#000000" d="M4718,-122.0908C4718,-145.1328 4718,-182 4718,-182 4718,-182 2333.1438,-182 2333.1438,-182"/>
<polygon fill="#000000" stroke="#000000" points="2333.1439,-178.5001 2323.1438,-182 2333.1438,-185.5001 2333.1439,-178.5001"/>
</g>
<!-- MemberFormRoleComponent -->
<g id="node3" class="node">
<title>MemberFormRoleComponent</title>
<polygon fill="#ffffb3" stroke="#000000" points="4612.5336,-122 4427.4664,-122 4427.4664,-86 4612.5336,-86 4612.5336,-122"/>
<text text-anchor="middle" x="4520" y="-99.8" font-family="Times,serif" font-size="14.00" fill="#000000">MemberFormRoleComponent</text>
</g>
<!-- MemberFormRoleComponent&#45;&gt;OrganizationModule -->
<g id="edge3" class="edge">
<title>MemberFormRoleComponent&#45;&gt;OrganizationModule</title>
<path fill="none" stroke="#000000" d="M4520,-122.0109C4520,-144.4852 4520,-180 4520,-180 4520,-180 2333.197,-180 2333.197,-180"/>
<polygon fill="#000000" stroke="#000000" points="2333.197,-176.5001 2323.197,-180 2333.197,-183.5001 2333.197,-176.5001"/>
</g>
<!-- MemberInvitationComponent -->
<g id="node4" class="node">
<title>MemberInvitationComponent</title>
<polygon fill="#ffffb3" stroke="#000000" points="4409.6951,-122 4226.3049,-122 4226.3049,-86 4409.6951,-86 4409.6951,-122"/>
<text text-anchor="middle" x="4318" y="-99.8" font-family="Times,serif" font-size="14.00" fill="#000000">MemberInvitationComponent</text>
</g>
<!-- MemberInvitationComponent&#45;&gt;OrganizationModule -->
<g id="edge4" class="edge">
<title>MemberInvitationComponent&#45;&gt;OrganizationModule</title>
<path fill="none" stroke="#000000" d="M4318,-122.0449C4318,-143.6623 4318,-177 4318,-177 4318,-177 2333.2389,-177 2333.2389,-177"/>
<polygon fill="#000000" stroke="#000000" points="2333.2389,-173.5001 2323.2389,-177 2333.2389,-180.5001 2333.2389,-173.5001"/>
</g>
<!-- MemberPendingComponent -->
<g id="node5" class="node">
<title>MemberPendingComponent</title>
<polygon fill="#ffffb3" stroke="#000000" points="4208.1456,-122 4033.8544,-122 4033.8544,-86 4208.1456,-86 4208.1456,-122"/>
<text text-anchor="middle" x="4121" y="-99.8" font-family="Times,serif" font-size="14.00" fill="#000000">MemberPendingComponent</text>
</g>
<!-- MemberPendingComponent&#45;&gt;OrganizationModule -->
<g id="edge5" class="edge">
<title>MemberPendingComponent&#45;&gt;OrganizationModule</title>
<path fill="none" stroke="#000000" d="M4121,-122.2843C4121,-143.3211 4121,-175 4121,-175 4121,-175 2333.3407,-175 2333.3407,-175"/>
<polygon fill="#000000" stroke="#000000" points="2333.3408,-171.5001 2323.3407,-175 2333.3407,-178.5001 2333.3408,-171.5001"/>
</g>
<!-- MemberRepertoryComponent -->
<g id="node6" class="node">
<title>MemberRepertoryComponent</title>
<polygon fill="#ffffb3" stroke="#000000" points="4015.2352,-122 3830.7648,-122 3830.7648,-86 4015.2352,-86 4015.2352,-122"/>
<text text-anchor="middle" x="3923" y="-99.8" font-family="Times,serif" font-size="14.00" fill="#000000">MemberRepertoryComponent</text>
</g>
<!-- MemberRepertoryComponent&#45;&gt;OrganizationModule -->
<g id="edge6" class="edge">
<title>MemberRepertoryComponent&#45;&gt;OrganizationModule</title>
<path fill="none" stroke="#000000" d="M3923,-122.2228C3923,-142.3652 3923,-172 3923,-172 3923,-172 2333.3373,-172 2333.3373,-172"/>
<polygon fill="#000000" stroke="#000000" points="2333.3373,-168.5001 2323.3373,-172 2333.3372,-175.5001 2333.3373,-168.5001"/>
</g>
<!-- OrganizationActivityViewComponent -->
<g id="node7" class="node">
<title>OrganizationActivityViewComponent</title>
<polygon fill="#ffffb3" stroke="#000000" points="3812.1175,-122 3581.8825,-122 3581.8825,-86 3812.1175,-86 3812.1175,-122"/>
<text text-anchor="middle" x="3697" y="-99.8" font-family="Times,serif" font-size="14.00" fill="#000000">OrganizationActivityViewComponent</text>
</g>
<!-- OrganizationActivityViewComponent&#45;&gt;OrganizationModule -->
<g id="edge7" class="edge">
<title>OrganizationActivityViewComponent&#45;&gt;OrganizationModule</title>
<path fill="none" stroke="#000000" d="M3658.5638,-122.2222C3658.5638,-140.8285 3658.5638,-167 3658.5638,-167 3658.5638,-167 2333.1882,-167 2333.1882,-167"/>
<polygon fill="#000000" stroke="#000000" points="2333.1882,-163.5001 2323.1882,-167 2333.1882,-170.5001 2333.1882,-163.5001"/>
</g>
<!-- OrganizationActivityViewComponent&#45;&gt;OrganizationModule -->
<g id="edge8" class="edge">
<title>OrganizationActivityViewComponent&#45;&gt;OrganizationModule</title>
<path fill="none" stroke="#000000" d="M3735.4362,-122.1061C3735.4362,-141.3391 3735.4362,-169 3735.4362,-169 3735.4362,-169 2333.3975,-169 2333.3975,-169"/>
<polygon fill="#000000" stroke="#000000" points="2333.3975,-165.5001 2323.3975,-169 2333.3974,-172.5001 2333.3975,-165.5001"/>
</g>
<!-- OrganizationAdminViewComponent -->
<g id="node8" class="node">
<title>OrganizationAdminViewComponent</title>
<polygon fill="#ffffb3" stroke="#000000" points="3563.6217,-122 3340.3783,-122 3340.3783,-86 3563.6217,-86 3563.6217,-122"/>
<text text-anchor="middle" x="3452" y="-99.8" font-family="Times,serif" font-size="14.00" fill="#000000">OrganizationAdminViewComponent</text>
</g>
<!-- OrganizationAdminViewComponent&#45;&gt;OrganizationModule -->
<g id="edge9" class="edge">
<title>OrganizationAdminViewComponent&#45;&gt;OrganizationModule</title>
<path fill="none" stroke="#000000" d="M3452,-122.002C3452,-139.6754 3452,-164 3452,-164 3452,-164 2333.3792,-164 2333.3792,-164"/>
<polygon fill="#000000" stroke="#000000" points="2333.3792,-160.5001 2323.3792,-164 2333.3791,-167.5001 2333.3792,-160.5001"/>
</g>
<!-- OrganizationDisplayActionsComponent -->
<g id="node9" class="node">
<title>OrganizationDisplayActionsComponent</title>
<polygon fill="#ffffb3" stroke="#000000" points="3321.5097,-122 3080.4903,-122 3080.4903,-86 3321.5097,-86 3321.5097,-122"/>
<text text-anchor="middle" x="3201" y="-99.8" font-family="Times,serif" font-size="14.00" fill="#000000">OrganizationDisplayActionsComponent</text>
</g>
<!-- OrganizationDisplayActionsComponent&#45;&gt;OrganizationModule -->
<g id="edge10" class="edge">
<title>OrganizationDisplayActionsComponent&#45;&gt;OrganizationModule</title>
<path fill="none" stroke="#000000" d="M3201,-122.0336C3201,-139.0597 3201,-162 3201,-162 3201,-162 2333.3802,-162 2333.3802,-162"/>
<polygon fill="#000000" stroke="#000000" points="2333.3803,-158.5001 2323.3802,-162 2333.3802,-165.5001 2333.3803,-158.5001"/>
</g>
<!-- OrganizationDisplayComponent -->
<g id="node10" class="node">
<title>OrganizationDisplayComponent</title>
<polygon fill="#ffffb3" stroke="#000000" points="3061.9622,-122 2864.0378,-122 2864.0378,-86 3061.9622,-86 3061.9622,-122"/>
<text text-anchor="middle" x="2963" y="-99.8" font-family="Times,serif" font-size="14.00" fill="#000000">OrganizationDisplayComponent</text>
</g>
<!-- OrganizationDisplayComponent&#45;&gt;OrganizationModule -->
<g id="edge11" class="edge">
<title>OrganizationDisplayComponent&#45;&gt;OrganizationModule</title>
<path fill="none" stroke="#000000" d="M2963,-122.0091C2963,-138.0494 2963,-159 2963,-159 2963,-159 2333.4188,-159 2333.4188,-159"/>
<polygon fill="#000000" stroke="#000000" points="2333.4188,-155.5001 2323.4188,-159 2333.4187,-162.5001 2333.4188,-155.5001"/>
</g>
<!-- OrganizationDisplayOperationsComponent -->
<g id="node11" class="node">
<title>OrganizationDisplayOperationsComponent</title>
<polygon fill="#ffffb3" stroke="#000000" points="2845.8847,-122 2586.1153,-122 2586.1153,-86 2845.8847,-86 2845.8847,-122"/>
<text text-anchor="middle" x="2716" y="-99.8" font-family="Times,serif" font-size="14.00" fill="#000000">OrganizationDisplayOperationsComponent</text>
</g>
<!-- OrganizationDisplayOperationsComponent&#45;&gt;OrganizationModule -->
<g id="edge12" class="edge">
<title>OrganizationDisplayOperationsComponent&#45;&gt;OrganizationModule</title>
<path fill="none" stroke="#000000" d="M2716,-122.2396C2716,-137.5706 2716,-157 2716,-157 2716,-157 2333.2523,-157 2333.2523,-157"/>
<polygon fill="#000000" stroke="#000000" points="2333.2524,-153.5001 2323.2523,-157 2333.2523,-160.5001 2333.2524,-153.5001"/>
</g>
<!-- OrganizationEditableComponent -->
<g id="node12" class="node">
<title>OrganizationEditableComponent</title>
<polygon fill="#ffffb3" stroke="#000000" points="2568.5688,-122 2367.4312,-122 2367.4312,-86 2568.5688,-86 2568.5688,-122"/>
<text text-anchor="middle" x="2468" y="-99.8" font-family="Times,serif" font-size="14.00" fill="#000000">OrganizationEditableComponent</text>
</g>
<!-- OrganizationEditableComponent&#45;&gt;OrganizationModule -->
<g id="edge13" class="edge">
<title>OrganizationEditableComponent&#45;&gt;OrganizationModule</title>
<path fill="none" stroke="#000000" d="M2415.2334,-122.0511C2415.2334,-136.373 2415.2334,-154 2415.2334,-154 2415.2334,-154 2333.1884,-154 2333.1884,-154"/>
<polygon fill="#000000" stroke="#000000" points="2333.1884,-150.5001 2323.1884,-154 2333.1883,-157.5001 2333.1884,-150.5001"/>
</g>
<!-- OrganizationFormComponent -->
<g id="node13" class="node">
<title>OrganizationFormComponent</title>
<polygon fill="#ffffb3" stroke="#000000" points="2349.2492,-122 2164.7508,-122 2164.7508,-86 2349.2492,-86 2349.2492,-122"/>
<text text-anchor="middle" x="2257" y="-99.8" font-family="Times,serif" font-size="14.00" fill="#000000">OrganizationFormComponent</text>
</g>
<!-- OrganizationFormComponent&#45;&gt;OrganizationModule -->
<g id="edge14" class="edge">
<title>OrganizationFormComponent&#45;&gt;OrganizationModule</title>
<path fill="none" stroke="#000000" d="M2234.8946,-122.1061C2234.8946,-122.1061 2234.8946,-140.991 2234.8946,-140.991"/>
<polygon fill="#000000" stroke="#000000" points="2231.3947,-140.9909 2234.8946,-150.991 2238.3947,-140.991 2231.3947,-140.9909"/>
</g>
<!-- OrganizationFormComponent&#45;&gt;OrganizationModule -->
<g id="edge15" class="edge">
<title>OrganizationFormComponent&#45;&gt;OrganizationModule</title>
<path fill="none" stroke="#000000" d="M2279.1054,-122.1061C2279.1054,-122.1061 2279.1054,-140.991 2279.1054,-140.991"/>
<polygon fill="#000000" stroke="#000000" points="2275.6055,-140.9909 2279.1054,-150.991 2282.6055,-140.991 2275.6055,-140.9909"/>
</g>
<!-- OrganizationFormOperationComponent -->
<g id="node14" class="node">
<title>OrganizationFormOperationComponent</title>
<polygon fill="#ffffb3" stroke="#000000" points="2146.2268,-122 1905.7732,-122 1905.7732,-86 2146.2268,-86 2146.2268,-122"/>
<text text-anchor="middle" x="2026" y="-99.8" font-family="Times,serif" font-size="14.00" fill="#000000">OrganizationFormOperationComponent</text>
</g>
<!-- OrganizationFormOperationComponent&#45;&gt;OrganizationModule -->
<g id="edge16" class="edge">
<title>OrganizationFormOperationComponent&#45;&gt;OrganizationModule</title>
<path fill="none" stroke="#000000" d="M2097.9003,-122.0511C2097.9003,-136.373 2097.9003,-154 2097.9003,-154 2097.9003,-154 2180.4492,-154 2180.4492,-154"/>
<polygon fill="#000000" stroke="#000000" points="2180.4493,-157.5001 2190.4492,-154 2180.4492,-150.5001 2180.4493,-157.5001"/>
</g>
<!-- OrganizationSearchComponent -->
<g id="node15" class="node">
<title>OrganizationSearchComponent</title>
<polygon fill="#ffffb3" stroke="#000000" points="1887.0028,-122 1694.9972,-122 1694.9972,-86 1887.0028,-86 1887.0028,-122"/>
<text text-anchor="middle" x="1791" y="-99.8" font-family="Times,serif" font-size="14.00" fill="#000000">OrganizationSearchComponent</text>
</g>
<!-- OrganizationSearchComponent&#45;&gt;OrganizationModule -->
<g id="edge17" class="edge">
<title>OrganizationSearchComponent&#45;&gt;OrganizationModule</title>
<path fill="none" stroke="#000000" d="M1791,-122.2396C1791,-137.5706 1791,-157 1791,-157 1791,-157 2180.7285,-157 2180.7285,-157"/>
<polygon fill="#000000" stroke="#000000" points="2180.7285,-160.5001 2190.7285,-157 2180.7284,-153.5001 2180.7285,-160.5001"/>
</g>
<!-- OrganizationSignerFormComponent -->
<g id="node16" class="node">
<title>OrganizationSignerFormComponent</title>
<polygon fill="#ffffb3" stroke="#000000" points="1676.7976,-122 1455.2024,-122 1455.2024,-86 1676.7976,-86 1676.7976,-122"/>
<text text-anchor="middle" x="1566" y="-99.8" font-family="Times,serif" font-size="14.00" fill="#000000">OrganizationSignerFormComponent</text>
</g>
<!-- OrganizationSignerFormComponent&#45;&gt;OrganizationModule -->
<g id="edge18" class="edge">
<title>OrganizationSignerFormComponent&#45;&gt;OrganizationModule</title>
<path fill="none" stroke="#000000" d="M1566,-122.027C1566,-138.3976 1566,-160 1566,-160 1566,-160 2180.744,-160 2180.744,-160"/>
<polygon fill="#000000" stroke="#000000" points="2180.7441,-163.5001 2190.744,-160 2180.744,-156.5001 2180.7441,-163.5001"/>
</g>
<!-- OrganizationSignerRepertoryComponent -->
<g id="node17" class="node">
<title>OrganizationSignerRepertoryComponent</title>
<polygon fill="#ffffb3" stroke="#000000" points="1437.4412,-122 1190.5588,-122 1190.5588,-86 1437.4412,-86 1437.4412,-122"/>
<text text-anchor="middle" x="1314" y="-99.8" font-family="Times,serif" font-size="14.00" fill="#000000">OrganizationSignerRepertoryComponent</text>
</g>
<!-- OrganizationSignerRepertoryComponent&#45;&gt;OrganizationModule -->
<g id="edge19" class="edge">
<title>OrganizationSignerRepertoryComponent&#45;&gt;OrganizationModule</title>
<path fill="none" stroke="#000000" d="M1314,-122.0225C1314,-139.3734 1314,-163 1314,-163 1314,-163 2180.6901,-163 2180.6901,-163"/>
<polygon fill="#000000" stroke="#000000" points="2180.6901,-166.5001 2190.6901,-163 2180.69,-159.5001 2180.6901,-166.5001"/>
</g>
<!-- OrganizationWidgetComponent -->
<g id="node18" class="node">
<title>OrganizationWidgetComponent</title>
<polygon fill="#ffffb3" stroke="#000000" points="1172.626,-122 977.374,-122 977.374,-86 1172.626,-86 1172.626,-122"/>
<text text-anchor="middle" x="1075" y="-99.8" font-family="Times,serif" font-size="14.00" fill="#000000">OrganizationWidgetComponent</text>
</g>
<!-- OrganizationWidgetComponent&#45;&gt;OrganizationModule -->
<g id="edge20" class="edge">
<title>OrganizationWidgetComponent&#45;&gt;OrganizationModule</title>
<path fill="none" stroke="#000000" d="M1075,-122.302C1075,-140.2699 1075,-165 1075,-165 1075,-165 2180.4914,-165 2180.4914,-165"/>
<polygon fill="#000000" stroke="#000000" points="2180.4915,-168.5001 2190.4914,-165 2180.4914,-161.5001 2180.4915,-168.5001"/>
</g>
<!-- OrganizationSearchComponent  -->
<g id="node27" class="node">
<title>OrganizationSearchComponent </title>
<polygon fill="#fb8072" stroke="#000000" points="2463.0022,-252 2266.9978,-252 2266.9978,-216 2463.0022,-216 2463.0022,-252"/>
<text text-anchor="middle" x="2365" y="-229.8" font-family="Times,serif" font-size="14.00" fill="#000000">OrganizationSearchComponent </text>
</g>
<!-- OrganizationModule&#45;&gt;OrganizationSearchComponent  -->
<g id="edge28" class="edge">
<title>OrganizationModule&#45;&gt;OrganizationSearchComponent </title>
<path fill="none" stroke="#000000" stroke-dasharray="5,2" d="M2295.1576,-187.1061C2295.1576,-187.1061 2295.1576,-205.991 2295.1576,-205.991"/>
<polygon fill="#000000" stroke="#000000" points="2291.6577,-205.9909 2295.1576,-215.991 2298.6577,-205.991 2291.6577,-205.9909"/>
</g>
<!-- OrganizationWidgetComponent  -->
<g id="node28" class="node">
<title>OrganizationWidgetComponent </title>
<polygon fill="#fb8072" stroke="#000000" points="2248.6256,-252 2049.3744,-252 2049.3744,-216 2248.6256,-216 2248.6256,-252"/>
<text text-anchor="middle" x="2149" y="-229.8" font-family="Times,serif" font-size="14.00" fill="#000000">OrganizationWidgetComponent </text>
</g>
<!-- OrganizationModule&#45;&gt;OrganizationWidgetComponent  -->
<g id="edge29" class="edge">
<title>OrganizationModule&#45;&gt;OrganizationWidgetComponent </title>
<path fill="none" stroke="#000000" stroke-dasharray="5,2" d="M2219.6233,-187.1061C2219.6233,-187.1061 2219.6233,-205.991 2219.6233,-205.991"/>
<polygon fill="#000000" stroke="#000000" points="2216.1233,-205.9909 2219.6233,-215.991 2223.1233,-205.991 2216.1233,-205.9909"/>
</g>
<!-- AuthModule -->
<g id="node20" class="node">
<title>AuthModule</title>
<polygon fill="#8dd3c7" stroke="#000000" points="952.5482,-122 949.5482,-126 928.5482,-126 925.5482,-122 865.4518,-122 865.4518,-86 952.5482,-86 952.5482,-122"/>
<text text-anchor="middle" x="909" y="-99.8" font-family="Times,serif" font-size="14.00" fill="#000000">AuthModule</text>
</g>
<!-- AuthModule&#45;&gt;OrganizationModule -->
<g id="edge21" class="edge">
<title>AuthModule&#45;&gt;OrganizationModule</title>
<path fill="none" stroke="#000000" d="M909,-122.1686C909,-141.0898 909,-168 909,-168 909,-168 2180.6123,-168 2180.6123,-168"/>
<polygon fill="#000000" stroke="#000000" points="2180.6123,-171.5001 2190.6123,-168 2180.6122,-164.5001 2180.6123,-171.5001"/>
</g>
<!-- AvatarListModule -->
<g id="node21" class="node">
<title>AvatarListModule</title>
<polygon fill="#8dd3c7" stroke="#000000" points="847.9159,-122 844.9159,-126 823.9159,-126 820.9159,-122 728.0841,-122 728.0841,-86 847.9159,-86 847.9159,-122"/>
<text text-anchor="middle" x="788" y="-99.8" font-family="Times,serif" font-size="14.00" fill="#000000">AvatarListModule</text>
</g>
<!-- AvatarListModule&#45;&gt;OrganizationModule -->
<g id="edge22" class="edge">
<title>AvatarListModule&#45;&gt;OrganizationModule</title>
<path fill="none" stroke="#000000" d="M788,-122.308C788,-142.1455 788,-171 788,-171 788,-171 2180.5454,-171 2180.5454,-171"/>
<polygon fill="#000000" stroke="#000000" points="2180.5454,-174.5001 2190.5454,-171 2180.5453,-167.5001 2180.5454,-174.5001"/>
</g>
<!-- EditableSidenavModule -->
<g id="node22" class="node">
<title>EditableSidenavModule</title>
<polygon fill="#8dd3c7" stroke="#000000" points="710.8061,-122 707.8061,-126 686.8061,-126 683.8061,-122 559.1939,-122 559.1939,-86 710.8061,-86 710.8061,-122"/>
<text text-anchor="middle" x="635" y="-99.8" font-family="Times,serif" font-size="14.00" fill="#000000">EditableSidenavModule</text>
</g>
<!-- EditableSidenavModule&#45;&gt;OrganizationModule -->
<g id="edge23" class="edge">
<title>EditableSidenavModule&#45;&gt;OrganizationModule</title>
<path fill="none" stroke="#000000" d="M635,-122.0267C635,-142.7672 635,-174 635,-174 635,-174 2180.6462,-174 2180.6462,-174"/>
<polygon fill="#000000" stroke="#000000" points="2180.6462,-177.5001 2190.6462,-174 2180.6461,-170.5001 2180.6462,-177.5001"/>
</g>
<!-- FeedbackMessageModule -->
<g id="node23" class="node">
<title>FeedbackMessageModule</title>
<polygon fill="#8dd3c7" stroke="#000000" points="541.1685,-122 538.1685,-126 517.1685,-126 514.1685,-122 378.8315,-122 378.8315,-86 541.1685,-86 541.1685,-122"/>
<text text-anchor="middle" x="460" y="-99.8" font-family="Times,serif" font-size="14.00" fill="#000000">FeedbackMessageModule</text>
</g>
<!-- FeedbackMessageModule&#45;&gt;OrganizationModule -->
<g id="edge24" class="edge">
<title>FeedbackMessageModule&#45;&gt;OrganizationModule</title>
<path fill="none" stroke="#000000" d="M460,-122.1686C460,-143.498 460,-176 460,-176 460,-176 2180.644,-176 2180.644,-176"/>
<polygon fill="#000000" stroke="#000000" points="2180.644,-179.5001 2190.644,-176 2180.644,-172.5001 2180.644,-179.5001"/>
</g>
<!-- UiFormModule -->
<g id="node24" class="node">
<title>UiFormModule</title>
<polygon fill="#8dd3c7" stroke="#000000" points="360.8809,-122 357.8809,-126 336.8809,-126 333.8809,-122 257.1191,-122 257.1191,-86 360.8809,-86 360.8809,-122"/>
<text text-anchor="middle" x="309" y="-99.8" font-family="Times,serif" font-size="14.00" fill="#000000">UiFormModule</text>
</g>
<!-- UiFormModule&#45;&gt;OrganizationModule -->
<g id="edge25" class="edge">
<title>UiFormModule&#45;&gt;OrganizationModule</title>
<path fill="none" stroke="#000000" d="M309,-122.1554C309,-144.3519 309,-179 309,-179 309,-179 2180.7899,-179 2180.7899,-179"/>
<polygon fill="#000000" stroke="#000000" points="2180.79,-182.5001 2190.7899,-179 2180.7899,-175.5001 2180.79,-182.5001"/>
</g>
<!-- UploadModule -->
<g id="node25" class="node">
<title>UploadModule</title>
<polygon fill="#8dd3c7" stroke="#000000" points="239.2619,-122 236.2619,-126 215.2619,-126 212.2619,-122 138.7381,-122 138.7381,-86 239.2619,-86 239.2619,-122"/>
<text text-anchor="middle" x="189" y="-99.8" font-family="Times,serif" font-size="14.00" fill="#000000">UploadModule</text>
</g>
<!-- UploadModule&#45;&gt;OrganizationModule -->
<g id="edge26" class="edge">
<title>UploadModule&#45;&gt;OrganizationModule</title>
<path fill="none" stroke="#000000" d="M189,-122.0908C189,-145.1328 189,-182 189,-182 189,-182 2180.8263,-182 2180.8263,-182"/>
<polygon fill="#000000" stroke="#000000" points="2180.8263,-185.5001 2190.8263,-182 2180.8263,-178.5001 2180.8263,-185.5001"/>
</g>
<!-- WalletModule -->
<g id="node26" class="node">
<title>WalletModule</title>
<polygon fill="#8dd3c7" stroke="#000000" points="120.3655,-122 117.3655,-126 96.3655,-126 93.3655,-122 23.6345,-122 23.6345,-86 120.3655,-86 120.3655,-122"/>
<text text-anchor="middle" x="72" y="-99.8" font-family="Times,serif" font-size="14.00" fill="#000000">WalletModule</text>
</g>
<!-- WalletModule&#45;&gt;OrganizationModule -->
<g id="edge27" class="edge">
<title>WalletModule&#45;&gt;OrganizationModule</title>
<path fill="none" stroke="#000000" d="M72,-122.3802C72,-146.2785 72,-185 72,-185 72,-185 2180.7134,-185 2180.7134,-185"/>
<polygon fill="#000000" stroke="#000000" points="2180.7135,-188.5001 2190.7134,-185 2180.7134,-181.5001 2180.7135,-188.5001"/>
</g>
</g>
</svg>
