<?xml version="1.0" encoding="UTF-8" standalone="no"?>
<!DOCTYPE svg PUBLIC "-//W3C//DTD SVG 1.1//EN"
 "http://www.w3.org/Graphics/SVG/1.1/DTD/svg11.dtd">
<!-- Generated by graphviz version 2.40.1 (20161225.0304)
 -->
<!-- Title: dependencies Pages: 1 -->
<svg width="2046pt" height="284pt"
 viewBox="0.00 0.00 2046.00 284.00" xmlns="http://www.w3.org/2000/svg" xmlns:xlink="http://www.w3.org/1999/xlink">
<g id="graph0" class="graph" transform="scale(1 1) rotate(0) translate(4 280)">
<title>dependencies</title>
<polygon fill="#ffffff" stroke="transparent" points="-4,4 -4,-280 2042,-280 2042,4 -4,4"/>
<text text-anchor="start" x="998.0091" y="-42.4" font-family="sans-serif" font-weight="bold" font-size="14.00" fill="#000000">Legend</text>
<polygon fill="#ffffb3" stroke="transparent" points="785,-10 785,-30 805,-30 805,-10 785,-10"/>
<text text-anchor="start" x="808.629" y="-15.4" font-family="sans-serif" font-size="14.00" fill="#000000"> &#160;Declarations</text>
<polygon fill="#8dd3c7" stroke="transparent" points="898,-10 898,-30 918,-30 918,-10 898,-10"/>
<text text-anchor="start" x="921.7251" y="-15.4" font-family="sans-serif" font-size="14.00" fill="#000000"> &#160;Module</text>
<polygon fill="#80b1d3" stroke="transparent" points="984,-10 984,-30 1004,-30 1004,-10 984,-10"/>
<text text-anchor="start" x="1007.7812" y="-15.4" font-family="sans-serif" font-size="14.00" fill="#000000"> &#160;Bootstrap</text>
<polygon fill="#fdb462" stroke="transparent" points="1081,-10 1081,-30 1101,-30 1101,-10 1081,-10"/>
<text text-anchor="start" x="1104.6732" y="-15.4" font-family="sans-serif" font-size="14.00" fill="#000000"> &#160;Providers</text>
<polygon fill="#fb8072" stroke="transparent" points="1177,-10 1177,-30 1197,-30 1197,-10 1177,-10"/>
<text text-anchor="start" x="1200.7258" y="-15.4" font-family="sans-serif" font-size="14.00" fill="#000000"> &#160;Exports</text>
<g id="clust1" class="cluster">
<title>cluster_AppModule</title>
<polygon fill="none" stroke="#000000" stroke-dasharray="1,5" points="8,-70 8,-268 2030,-268 2030,-70 8,-70"/>
</g>
<g id="clust2" class="cluster">
<title>cluster_AppModule_declarations</title>
<polygon fill="none" stroke="#000000" points="1480,-78 1480,-130 2022,-130 2022,-78 1480,-78"/>
</g>
<g id="clust7" class="cluster">
<title>cluster_AppModule_imports</title>
<polygon fill="none" stroke="#000000" points="16,-78 16,-130 1472,-130 1472,-78 16,-78"/>
</g>
<g id="clust9" class="cluster">
<title>cluster_AppModule_bootstrap</title>
<polygon fill="none" stroke="#000000" points="959,-208 959,-260 1083,-260 1083,-208 959,-208"/>
</g>
<!-- AppComponent -->
<g id="node1" class="node">
<title>AppComponent</title>
<polygon fill="#ffffb3" stroke="#000000" points="2013.9399,-122 1908.0601,-122 1908.0601,-86 2013.9399,-86 2013.9399,-122"/>
<text text-anchor="middle" x="1961" y="-99.8" font-family="Times,serif" font-size="14.00" fill="#000000">AppComponent</text>
</g>
<!-- AppModule -->
<g id="node5" class="node">
<title>AppModule</title>
<polygon fill="#8dd3c7" stroke="#000000" points="1062.6571,-187 1059.6571,-191 1038.6571,-191 1035.6571,-187 979.3429,-187 979.3429,-151 1062.6571,-151 1062.6571,-187"/>
<text text-anchor="middle" x="1021" y="-164.8" font-family="Times,serif" font-size="14.00" fill="#000000">AppModule</text>
</g>
<!-- AppComponent&#45;&gt;AppModule -->
<g id="edge1" class="edge">
<title>AppComponent&#45;&gt;AppModule</title>
<path fill="none" stroke="#000000" d="M1961,-122.3228C1961,-145.6602 1961,-183 1961,-183 1961,-183 1072.9092,-183 1072.9092,-183"/>
<polygon fill="#000000" stroke="#000000" points="1072.9093,-179.5001 1062.9092,-183 1072.9092,-186.5001 1072.9093,-179.5001"/>
</g>
<!-- AppGridComponent -->
<g id="node2" class="node">
<title>AppGridComponent</title>
<polygon fill="#ffffb3" stroke="#000000" points="1890.5968,-122 1759.4032,-122 1759.4032,-86 1890.5968,-86 1890.5968,-122"/>
<text text-anchor="middle" x="1825" y="-99.8" font-family="Times,serif" font-size="14.00" fill="#000000">AppGridComponent</text>
</g>
<!-- AppGridComponent&#45;&gt;AppModule -->
<g id="edge2" class="edge">
<title>AppGridComponent&#45;&gt;AppModule</title>
<path fill="none" stroke="#000000" d="M1825,-122.2921C1825,-144.2057 1825,-178 1825,-178 1825,-178 1072.8136,-178 1072.8136,-178"/>
<polygon fill="#000000" stroke="#000000" points="1072.8136,-174.5001 1062.8136,-178 1072.8136,-181.5001 1072.8136,-174.5001"/>
</g>
<!-- HomeComponent -->
<g id="node3" class="node">
<title>HomeComponent</title>
<polygon fill="#ffffb3" stroke="#000000" points="1741.5451,-122 1626.4549,-122 1626.4549,-86 1741.5451,-86 1741.5451,-122"/>
<text text-anchor="middle" x="1684" y="-99.8" font-family="Times,serif" font-size="14.00" fill="#000000">HomeComponent</text>
</g>
<!-- HomeComponent&#45;&gt;AppModule -->
<g id="edge3" class="edge">
<title>HomeComponent&#45;&gt;AppModule</title>
<path fill="none" stroke="#000000" d="M1684,-122.0267C1684,-142.7672 1684,-174 1684,-174 1684,-174 1072.7248,-174 1072.7248,-174"/>
<polygon fill="#000000" stroke="#000000" points="1072.7248,-170.5001 1062.7248,-174 1072.7247,-177.5001 1072.7248,-170.5001"/>
</g>
<!-- LayoutComponent -->
<g id="node4" class="node">
<title>LayoutComponent</title>
<polygon fill="#ffffb3" stroke="#000000" points="1608.4902,-122 1487.5098,-122 1487.5098,-86 1608.4902,-86 1608.4902,-122"/>
<text text-anchor="middle" x="1548" y="-99.8" font-family="Times,serif" font-size="14.00" fill="#000000">LayoutComponent</text>
</g>
<!-- LayoutComponent&#45;&gt;AppModule -->
<g id="edge4" class="edge">
<title>LayoutComponent&#45;&gt;AppModule</title>
<path fill="none" stroke="#000000" d="M1548,-122.1061C1548,-141.3391 1548,-169 1548,-169 1548,-169 1072.7933,-169 1072.7933,-169"/>
<polygon fill="#000000" stroke="#000000" points="1072.7933,-165.5001 1062.7933,-169 1072.7933,-172.5001 1072.7933,-165.5001"/>
</g>
<!-- AppComponent  -->
<g id="node17" class="node">
<title>AppComponent </title>
<polygon fill="#80b1d3" stroke="#000000" points="1075.439,-252 966.561,-252 966.561,-216 1075.439,-216 1075.439,-252"/>
<text text-anchor="middle" x="1021" y="-229.8" font-family="Times,serif" font-size="14.00" fill="#000000">AppComponent </text>
</g>
<!-- AppModule&#45;&gt;AppComponent  -->
<g id="edge16" class="edge">
<title>AppModule&#45;&gt;AppComponent </title>
<path fill="none" stroke="#000000" stroke-dasharray="1,5" d="M1021,-187.1061C1021,-187.1061 1021,-205.991 1021,-205.991"/>
<polygon fill="#000000" stroke="#000000" points="1017.5001,-205.9909 1021,-215.991 1024.5001,-205.991 1017.5001,-205.9909"/>
</g>
<!-- AccountModule -->
<g id="node6" class="node">
<title>AccountModule</title>
<polygon fill="#8dd3c7" stroke="#000000" points="1464.4762,-122 1461.4762,-126 1440.4762,-126 1437.4762,-122 1357.5238,-122 1357.5238,-86 1464.4762,-86 1464.4762,-122"/>
<text text-anchor="middle" x="1411" y="-99.8" font-family="Times,serif" font-size="14.00" fill="#000000">AccountModule</text>
</g>
<!-- AccountModule&#45;&gt;AppModule -->
<g id="edge5" class="edge">
<title>AccountModule&#45;&gt;AppModule</title>
<path fill="none" stroke="#000000" d="M1411,-122.302C1411,-140.2699 1411,-165 1411,-165 1411,-165 1072.7368,-165 1072.7368,-165"/>
<polygon fill="#000000" stroke="#000000" points="1072.7369,-161.5001 1062.7368,-165 1072.7368,-168.5001 1072.7369,-161.5001"/>
</g>
<!-- AppRoutingModule -->
<g id="node7" class="node">
<title>AppRoutingModule</title>
<polygon fill="#8dd3c7" stroke="#000000" points="1339.2744,-122 1336.2744,-126 1315.2744,-126 1312.2744,-122 1210.7256,-122 1210.7256,-86 1339.2744,-86 1339.2744,-122"/>
<text text-anchor="middle" x="1275" y="-99.8" font-family="Times,serif" font-size="14.00" fill="#000000">AppRoutingModule</text>
</g>
<!-- AppRoutingModule&#45;&gt;AppModule -->
<g id="edge6" class="edge">
<title>AppRoutingModule&#45;&gt;AppModule</title>
<path fill="none" stroke="#000000" d="M1275,-122.027C1275,-138.3976 1275,-160 1275,-160 1275,-160 1072.6585,-160 1072.6585,-160"/>
<polygon fill="#000000" stroke="#000000" points="1072.6585,-156.5001 1062.6585,-160 1072.6585,-163.5001 1072.6585,-156.5001"/>
</g>
<!-- AuthModule -->
<g id="node8" class="node">
<title>AuthModule</title>
<polygon fill="#8dd3c7" stroke="#000000" points="1192.5482,-122 1189.5482,-126 1168.5482,-126 1165.5482,-122 1105.4518,-122 1105.4518,-86 1192.5482,-86 1192.5482,-122"/>
<text text-anchor="middle" x="1149" y="-99.8" font-family="Times,serif" font-size="14.00" fill="#000000">AuthModule</text>
</g>
<!-- AuthModule&#45;&gt;AppModule -->
<g id="edge7" class="edge">
<title>AuthModule&#45;&gt;AppModule</title>
<path fill="none" stroke="#000000" d="M1149,-122.1871C1149,-137.1824 1149,-156 1149,-156 1149,-156 1072.912,-156 1072.912,-156"/>
<polygon fill="#000000" stroke="#000000" points="1072.912,-152.5001 1062.912,-156 1072.912,-159.5001 1072.912,-152.5001"/>
</g>
<!-- KeyManagerModule -->
<g id="node9" class="node">
<title>KeyManagerModule</title>
<polygon fill="#8dd3c7" stroke="#000000" points="1087.1205,-122 1084.1205,-126 1063.1205,-126 1060.1205,-122 954.8795,-122 954.8795,-86 1087.1205,-86 1087.1205,-122"/>
<text text-anchor="middle" x="1021" y="-99.8" font-family="Times,serif" font-size="14.00" fill="#000000">KeyManagerModule</text>
</g>
<!-- KeyManagerModule&#45;&gt;AppModule -->
<g id="edge8" class="edge">
<title>KeyManagerModule&#45;&gt;AppModule</title>
<path fill="none" stroke="#000000" d="M1021,-122.1061C1021,-122.1061 1021,-140.991 1021,-140.991"/>
<polygon fill="#000000" stroke="#000000" points="1017.5001,-140.9909 1021,-150.991 1024.5001,-140.991 1017.5001,-140.9909"/>
</g>
<!-- NotificationWidgetModule -->
<g id="node10" class="node">
<title>NotificationWidgetModule</title>
<polygon fill="#8dd3c7" stroke="#000000" points="936.4101,-122 933.4101,-126 912.4101,-126 909.4101,-122 767.5899,-122 767.5899,-86 936.4101,-86 936.4101,-122"/>
<text text-anchor="middle" x="852" y="-99.8" font-family="Times,serif" font-size="14.00" fill="#000000">NotificationWidgetModule</text>
</g>
<!-- NotificationWidgetModule&#45;&gt;AppModule -->
<g id="edge9" class="edge">
<title>NotificationWidgetModule&#45;&gt;AppModule</title>
<path fill="none" stroke="#000000" d="M852,-122.1871C852,-137.1824 852,-156 852,-156 852,-156 969.2247,-156 969.2247,-156"/>
<polygon fill="#000000" stroke="#000000" points="969.2247,-159.5001 979.2247,-156 969.2247,-152.5001 969.2247,-159.5001"/>
</g>
<!-- OrganizationModule -->
<g id="node11" class="node">
<title>OrganizationModule</title>
<polygon fill="#8dd3c7" stroke="#000000" points="749.1331,-122 746.1331,-126 725.1331,-126 722.1331,-122 616.8669,-122 616.8669,-86 749.1331,-86 749.1331,-122"/>
<text text-anchor="middle" x="683" y="-99.8" font-family="Times,serif" font-size="14.00" fill="#000000">OrganizationModule</text>
</g>
<!-- OrganizationModule&#45;&gt;AppModule -->
<g id="edge10" class="edge">
<title>OrganizationModule&#45;&gt;AppModule</title>
<path fill="none" stroke="#000000" d="M683,-122.027C683,-138.3976 683,-160 683,-160 683,-160 969.2156,-160 969.2156,-160"/>
<polygon fill="#000000" stroke="#000000" points="969.2156,-163.5001 979.2156,-160 969.2155,-156.5001 969.2156,-163.5001"/>
</g>
<!-- ProfileModule -->
<g id="node12" class="node">
<title>ProfileModule</title>
<polygon fill="#8dd3c7" stroke="#000000" points="598.65,-122 595.65,-126 574.65,-126 571.65,-122 501.35,-122 501.35,-86 598.65,-86 598.65,-122"/>
<text text-anchor="middle" x="550" y="-99.8" font-family="Times,serif" font-size="14.00" fill="#000000">ProfileModule</text>
</g>
<!-- ProfileModule&#45;&gt;AppModule -->
<g id="edge11" class="edge">
<title>ProfileModule&#45;&gt;AppModule</title>
<path fill="none" stroke="#000000" d="M550,-122.302C550,-140.2699 550,-165 550,-165 550,-165 969.2019,-165 969.2019,-165"/>
<polygon fill="#000000" stroke="#000000" points="969.2019,-168.5001 979.2019,-165 969.2019,-161.5001 969.2019,-168.5001"/>
</g>
<!-- ToolbarModule -->
<g id="node13" class="node">
<title>ToolbarModule</title>
<polygon fill="#8dd3c7" stroke="#000000" points="482.8683,-122 479.8683,-126 458.8683,-126 455.8683,-122 379.1317,-122 379.1317,-86 482.8683,-86 482.8683,-122"/>
<text text-anchor="middle" x="431" y="-99.8" font-family="Times,serif" font-size="14.00" fill="#000000">ToolbarModule</text>
</g>
<!-- ToolbarModule&#45;&gt;AppModule -->
<g id="edge12" class="edge">
<title>ToolbarModule&#45;&gt;AppModule</title>
<path fill="none" stroke="#000000" d="M431,-122.1061C431,-141.3391 431,-169 431,-169 431,-169 969.0416,-169 969.0416,-169"/>
<polygon fill="#000000" stroke="#000000" points="969.0417,-172.5001 979.0416,-169 969.0416,-165.5001 969.0417,-172.5001"/>
</g>
<!-- UiFormModule -->
<g id="node14" class="node">
<title>UiFormModule</title>
<polygon fill="#8dd3c7" stroke="#000000" points="360.8809,-122 357.8809,-126 336.8809,-126 333.8809,-122 257.1191,-122 257.1191,-86 360.8809,-86 360.8809,-122"/>
<text text-anchor="middle" x="309" y="-99.8" font-family="Times,serif" font-size="14.00" fill="#000000">UiFormModule</text>
</g>
<!-- UiFormModule&#45;&gt;AppModule -->
<g id="edge13" class="edge">
<title>UiFormModule&#45;&gt;AppModule</title>
<path fill="none" stroke="#000000" d="M309,-122.0267C309,-142.7672 309,-174 309,-174 309,-174 969.1193,-174 969.1193,-174"/>
<polygon fill="#000000" stroke="#000000" points="969.1193,-177.5001 979.1193,-174 969.1193,-170.5001 969.1193,-177.5001"/>
</g>
<!-- UploadModule -->
<g id="node15" class="node">
<title>UploadModule</title>
<polygon fill="#8dd3c7" stroke="#000000" points="239.2619,-122 236.2619,-126 215.2619,-126 212.2619,-122 138.7381,-122 138.7381,-86 239.2619,-86 239.2619,-122"/>
<text text-anchor="middle" x="189" y="-99.8" font-family="Times,serif" font-size="14.00" fill="#000000">UploadModule</text>
</g>
<!-- UploadModule&#45;&gt;AppModule -->
<g id="edge14" class="edge">
<title>UploadModule&#45;&gt;AppModule</title>
<path fill="none" stroke="#000000" d="M189,-122.2921C189,-144.2057 189,-178 189,-178 189,-178 969.1708,-178 969.1708,-178"/>
<polygon fill="#000000" stroke="#000000" points="969.1708,-181.5001 979.1708,-178 969.1708,-174.5001 969.1708,-181.5001"/>
</g>
<!-- WalletModule -->
<g id="node16" class="node">
<title>WalletModule</title>
<polygon fill="#8dd3c7" stroke="#000000" points="120.3655,-122 117.3655,-126 96.3655,-126 93.3655,-122 23.6345,-122 23.6345,-86 120.3655,-86 120.3655,-122"/>
<text text-anchor="middle" x="72" y="-99.8" font-family="Times,serif" font-size="14.00" fill="#000000">WalletModule</text>
</g>
<!-- WalletModule&#45;&gt;AppModule -->
<g id="edge15" class="edge">
<title>WalletModule&#45;&gt;AppModule</title>
<path fill="none" stroke="#000000" d="M72,-122.3228C72,-145.6602 72,-183 72,-183 72,-183 969.3058,-183 969.3058,-183"/>
<polygon fill="#000000" stroke="#000000" points="969.3058,-186.5001 979.3058,-183 969.3058,-179.5001 969.3058,-186.5001"/>
</g>
</g>
</svg>
