<?xml version="1.0" encoding="UTF-8" standalone="no"?>
<!DOCTYPE svg PUBLIC "-//W3C//DTD SVG 1.1//EN"
 "http://www.w3.org/Graphics/SVG/1.1/DTD/svg11.dtd">
<!-- Generated by graphviz version 2.40.1 (20161225.0304)
 -->
<!-- Title: dependencies Pages: 1 -->
<svg width="6137pt" height="284pt"
 viewBox="0.00 0.00 6137.00 284.00" xmlns="http://www.w3.org/2000/svg" xmlns:xlink="http://www.w3.org/1999/xlink">
<g id="graph0" class="graph" transform="scale(1 1) rotate(0) translate(4 280)">
<title>dependencies</title>
<polygon fill="#ffffff" stroke="transparent" points="-4,4 -4,-280 6133,-280 6133,4 -4,4"/>
<text text-anchor="start" x="3043.5091" y="-42.4" font-family="sans-serif" font-weight="bold" font-size="14.00" fill="#000000">Legend</text>
<polygon fill="#ffffb3" stroke="transparent" points="2830.5,-10 2830.5,-30 2850.5,-30 2850.5,-10 2830.5,-10"/>
<text text-anchor="start" x="2854.129" y="-15.4" font-family="sans-serif" font-size="14.00" fill="#000000"> &#160;Declarations</text>
<polygon fill="#8dd3c7" stroke="transparent" points="2943.5,-10 2943.5,-30 2963.5,-30 2963.5,-10 2943.5,-10"/>
<text text-anchor="start" x="2967.2251" y="-15.4" font-family="sans-serif" font-size="14.00" fill="#000000"> &#160;Module</text>
<polygon fill="#80b1d3" stroke="transparent" points="3029.5,-10 3029.5,-30 3049.5,-30 3049.5,-10 3029.5,-10"/>
<text text-anchor="start" x="3053.2812" y="-15.4" font-family="sans-serif" font-size="14.00" fill="#000000"> &#160;Bootstrap</text>
<polygon fill="#fdb462" stroke="transparent" points="3126.5,-10 3126.5,-30 3146.5,-30 3146.5,-10 3126.5,-10"/>
<text text-anchor="start" x="3150.1732" y="-15.4" font-family="sans-serif" font-size="14.00" fill="#000000"> &#160;Providers</text>
<polygon fill="#fb8072" stroke="transparent" points="3222.5,-10 3222.5,-30 3242.5,-30 3242.5,-10 3222.5,-10"/>
<text text-anchor="start" x="3246.2258" y="-15.4" font-family="sans-serif" font-size="14.00" fill="#000000"> &#160;Exports</text>
<g id="clust1" class="cluster">
<title>cluster_AppModule</title>
<polygon fill="none" stroke="#000000" stroke-dasharray="1,5" points="8,-70 8,-268 6121,-268 6121,-70 8,-70"/>
</g>
<g id="clust2" class="cluster">
<title>cluster_AppModule_declarations</title>
<polygon fill="none" stroke="#000000" points="5570,-78 5570,-130 6113,-130 6113,-78 5570,-78"/>
</g>
<g id="clust7" class="cluster">
<title>cluster_AppModule_imports</title>
<polygon fill="none" stroke="#000000" points="16,-78 16,-130 5562,-130 5562,-78 16,-78"/>
</g>
<g id="clust9" class="cluster">
<title>cluster_AppModule_bootstrap</title>
<polygon fill="none" stroke="#000000" points="3167,-208 3167,-260 3291,-260 3291,-208 3167,-208"/>
</g>
<!-- AppComponent -->
<g id="node1" class="node">
<title>AppComponent</title>
<polygon fill="#ffffb3" stroke="#000000" points="6104.9399,-122 5999.0601,-122 5999.0601,-86 6104.9399,-86 6104.9399,-122"/>
<text text-anchor="middle" x="6052" y="-99.8" font-family="Times,serif" font-size="14.00" fill="#000000">AppComponent</text>
</g>
<!-- AppModule -->
<g id="node5" class="node">
<title>AppModule</title>
<polygon fill="#8dd3c7" stroke="#000000" points="3270.6571,-187 3267.6571,-191 3246.6571,-191 3243.6571,-187 3187.3429,-187 3187.3429,-151 3270.6571,-151 3270.6571,-187"/>
<text text-anchor="middle" x="3229" y="-164.8" font-family="Times,serif" font-size="14.00" fill="#000000">AppModule</text>
</g>
<!-- AppComponent&#45;&gt;AppModule -->
<g id="edge1" class="edge">
<title>AppComponent&#45;&gt;AppModule</title>
<path fill="none" stroke="#000000" d="M6052,-122.1985C6052,-146.3563 6052,-186 6052,-186 6052,-186 3280.8203,-186 3280.8203,-186"/>
<polygon fill="#000000" stroke="#000000" points="3280.8203,-182.5001 3270.8203,-186 3280.8202,-189.5001 3280.8203,-182.5001"/>
</g>
<!-- LayoutComponent -->
<g id="node2" class="node">
<title>LayoutComponent</title>
<polygon fill="#ffffb3" stroke="#000000" points="5981.4902,-122 5860.5098,-122 5860.5098,-86 5981.4902,-86 5981.4902,-122"/>
<text text-anchor="middle" x="5921" y="-99.8" font-family="Times,serif" font-size="14.00" fill="#000000">LayoutComponent</text>
</g>
<!-- LayoutComponent&#45;&gt;AppModule -->
<g id="edge2" class="edge">
<title>LayoutComponent&#45;&gt;AppModule</title>
<path fill="none" stroke="#000000" d="M5921,-122.1532C5921,-145.7566 5921,-184 5921,-184 5921,-184 3280.7446,-184 3280.7446,-184"/>
<polygon fill="#000000" stroke="#000000" points="3280.7447,-180.5001 3270.7446,-184 3280.7446,-187.5001 3280.7447,-180.5001"/>
</g>
<!-- HomeComponent -->
<g id="node3" class="node">
<title>HomeComponent</title>
<polygon fill="#ffffb3" stroke="#000000" points="5842.5451,-122 5727.4549,-122 5727.4549,-86 5842.5451,-86 5842.5451,-122"/>
<text text-anchor="middle" x="5785" y="-99.8" font-family="Times,serif" font-size="14.00" fill="#000000">HomeComponent</text>
</g>
<!-- HomeComponent&#45;&gt;AppModule -->
<g id="edge3" class="edge">
<title>HomeComponent&#45;&gt;AppModule</title>
<path fill="none" stroke="#000000" d="M5785,-122.0908C5785,-145.1328 5785,-182 5785,-182 5785,-182 3280.7062,-182 3280.7062,-182"/>
<polygon fill="#000000" stroke="#000000" points="3280.7063,-178.5001 3270.7062,-182 3280.7062,-185.5001 3280.7063,-178.5001"/>
</g>
<!-- AppGridComponent -->
<g id="node4" class="node">
<title>AppGridComponent</title>
<polygon fill="#ffffb3" stroke="#000000" points="5709.5968,-122 5578.4032,-122 5578.4032,-86 5709.5968,-86 5709.5968,-122"/>
<text text-anchor="middle" x="5644" y="-99.8" font-family="Times,serif" font-size="14.00" fill="#000000">AppGridComponent</text>
</g>
<!-- AppGridComponent&#45;&gt;AppModule -->
<g id="edge4" class="edge">
<title>AppGridComponent&#45;&gt;AppModule</title>
<path fill="none" stroke="#000000" d="M5644,-122.2479C5644,-145.0179 5644,-181 5644,-181 5644,-181 3280.6624,-181 3280.6624,-181"/>
<polygon fill="#000000" stroke="#000000" points="3280.6625,-177.5001 3270.6624,-181 3280.6624,-184.5001 3280.6625,-177.5001"/>
</g>
<!-- AppComponent  -->
<g id="node43" class="node">
<title>AppComponent </title>
<polygon fill="#80b1d3" stroke="#000000" points="3283.439,-252 3174.561,-252 3174.561,-216 3283.439,-216 3283.439,-252"/>
<text text-anchor="middle" x="3229" y="-229.8" font-family="Times,serif" font-size="14.00" fill="#000000">AppComponent </text>
</g>
<!-- AppModule&#45;&gt;AppComponent  -->
<g id="edge42" class="edge">
<title>AppModule&#45;&gt;AppComponent </title>
<path fill="none" stroke="#000000" stroke-dasharray="1,5" d="M3229,-187.1061C3229,-187.1061 3229,-205.991 3229,-205.991"/>
<polygon fill="#000000" stroke="#000000" points="3225.5001,-205.9909 3229,-215.991 3232.5001,-205.991 3225.5001,-205.9909"/>
</g>
<!-- BrowserModule -->
<g id="node6" class="node">
<title>BrowserModule</title>
<polygon fill="#8dd3c7" stroke="#000000" points="5554.4734,-122 5551.4734,-126 5530.4734,-126 5527.4734,-122 5447.5266,-122 5447.5266,-86 5554.4734,-86 5554.4734,-122"/>
<text text-anchor="middle" x="5501" y="-99.8" font-family="Times,serif" font-size="14.00" fill="#000000">BrowserModule</text>
</g>
<!-- BrowserModule&#45;&gt;AppModule -->
<g id="edge5" class="edge">
<title>BrowserModule&#45;&gt;AppModule</title>
<path fill="none" stroke="#000000" d="M5501,-122.1554C5501,-144.3519 5501,-179 5501,-179 5501,-179 3280.866,-179 3280.866,-179"/>
<polygon fill="#000000" stroke="#000000" points="3280.866,-175.5001 3270.866,-179 3280.866,-182.5001 3280.866,-175.5001"/>
</g>
<!-- BrowserAnimationsModule -->
<g id="node7" class="node">
<title>BrowserAnimationsModule</title>
<polygon fill="#8dd3c7" stroke="#000000" points="5429.3019,-122 5426.3019,-126 5405.3019,-126 5402.3019,-122 5256.6981,-122 5256.6981,-86 5429.3019,-86 5429.3019,-122"/>
<text text-anchor="middle" x="5343" y="-99.8" font-family="Times,serif" font-size="14.00" fill="#000000">BrowserAnimationsModule</text>
</g>
<!-- BrowserAnimationsModule&#45;&gt;AppModule -->
<g id="edge6" class="edge">
<title>BrowserAnimationsModule&#45;&gt;AppModule</title>
<path fill="none" stroke="#000000" d="M5343,-122.0449C5343,-143.6623 5343,-177 5343,-177 5343,-177 3280.7527,-177 3280.7527,-177"/>
<polygon fill="#000000" stroke="#000000" points="3280.7528,-173.5001 3270.7527,-177 3280.7527,-180.5001 3280.7528,-173.5001"/>
</g>
<!-- AppRoutingModule -->
<g id="node8" class="node">
<title>AppRoutingModule</title>
<polygon fill="#8dd3c7" stroke="#000000" points="5238.2744,-122 5235.2744,-126 5214.2744,-126 5211.2744,-122 5109.7256,-122 5109.7256,-86 5238.2744,-86 5238.2744,-122"/>
<text text-anchor="middle" x="5174" y="-99.8" font-family="Times,serif" font-size="14.00" fill="#000000">AppRoutingModule</text>
</g>
<!-- AppRoutingModule&#45;&gt;AppModule -->
<g id="edge7" class="edge">
<title>AppRoutingModule&#45;&gt;AppModule</title>
<path fill="none" stroke="#000000" d="M5174,-122.2843C5174,-143.3211 5174,-175 5174,-175 5174,-175 3280.9773,-175 3280.9773,-175"/>
<polygon fill="#000000" stroke="#000000" points="3280.9773,-171.5001 3270.9773,-175 3280.9772,-178.5001 3280.9773,-171.5001"/>
</g>
<!-- FlexLayoutModule -->
<g id="node9" class="node">
<title>FlexLayoutModule</title>
<polygon fill="#8dd3c7" stroke="#000000" points="5092.0954,-122 5089.0954,-126 5068.0954,-126 5065.0954,-122 4967.9046,-122 4967.9046,-86 5092.0954,-86 5092.0954,-122"/>
<text text-anchor="middle" x="5030" y="-99.8" font-family="Times,serif" font-size="14.00" fill="#000000">FlexLayoutModule</text>
</g>
<!-- FlexLayoutModule&#45;&gt;AppModule -->
<g id="edge8" class="edge">
<title>FlexLayoutModule&#45;&gt;AppModule</title>
<path fill="none" stroke="#000000" d="M5030,-122.0267C5030,-142.7672 5030,-174 5030,-174 5030,-174 3280.8674,-174 3280.8674,-174"/>
<polygon fill="#000000" stroke="#000000" points="3280.8674,-170.5001 3270.8674,-174 3280.8674,-177.5001 3280.8674,-170.5001"/>
</g>
<!-- HttpClientModule -->
<g id="node10" class="node">
<title>HttpClientModule</title>
<polygon fill="#8dd3c7" stroke="#000000" points="4950.1611,-122 4947.1611,-126 4926.1611,-126 4923.1611,-122 4831.8389,-122 4831.8389,-86 4950.1611,-86 4950.1611,-122"/>
<text text-anchor="middle" x="4891" y="-99.8" font-family="Times,serif" font-size="14.00" fill="#000000">HttpClientModule</text>
</g>
<!-- HttpClientModule&#45;&gt;AppModule -->
<g id="edge9" class="edge">
<title>HttpClientModule&#45;&gt;AppModule</title>
<path fill="none" stroke="#000000" d="M4891,-122.2228C4891,-142.3652 4891,-172 4891,-172 4891,-172 3280.9146,-172 3280.9146,-172"/>
<polygon fill="#000000" stroke="#000000" points="3280.9146,-168.5001 3270.9146,-172 3280.9146,-175.5001 3280.9146,-168.5001"/>
</g>
<!-- MatSnackBarModule -->
<g id="node11" class="node">
<title>MatSnackBarModule</title>
<polygon fill="#8dd3c7" stroke="#000000" points="4813.024,-122 4810.024,-126 4789.024,-126 4786.024,-122 4676.976,-122 4676.976,-86 4813.024,-86 4813.024,-122"/>
<text text-anchor="middle" x="4745" y="-99.8" font-family="Times,serif" font-size="14.00" fill="#000000">MatSnackBarModule</text>
</g>
<!-- MatSnackBarModule&#45;&gt;AppModule -->
<g id="edge10" class="edge">
<title>MatSnackBarModule&#45;&gt;AppModule</title>
<path fill="none" stroke="#000000" d="M4745,-122.0348C4745,-141.5762 4745,-170 4745,-170 4745,-170 3280.7313,-170 3280.7313,-170"/>
<polygon fill="#000000" stroke="#000000" points="3280.7313,-166.5001 3270.7313,-170 3280.7313,-173.5001 3280.7313,-166.5001"/>
</g>
<!-- MatCardModule -->
<g id="node12" class="node">
<title>MatCardModule</title>
<polygon fill="#8dd3c7" stroke="#000000" points="4658.8118,-122 4655.8118,-126 4634.8118,-126 4631.8118,-122 4549.1882,-122 4549.1882,-86 4658.8118,-86 4658.8118,-122"/>
<text text-anchor="middle" x="4604" y="-99.8" font-family="Times,serif" font-size="14.00" fill="#000000">MatCardModule</text>
</g>
<!-- MatCardModule&#45;&gt;AppModule -->
<g id="edge11" class="edge">
<title>MatCardModule&#45;&gt;AppModule</title>
<path fill="none" stroke="#000000" d="M4604,-122.1061C4604,-141.3391 4604,-169 4604,-169 4604,-169 3280.9018,-169 3280.9018,-169"/>
<polygon fill="#000000" stroke="#000000" points="3280.9018,-165.5001 3270.9018,-169 3280.9018,-172.5001 3280.9018,-165.5001"/>
</g>
<!-- MatToolbarModule -->
<g id="node13" class="node">
<title>MatToolbarModule</title>
<polygon fill="#8dd3c7" stroke="#000000" points="4531.4187,-122 4528.4187,-126 4507.4187,-126 4504.4187,-122 4404.5813,-122 4404.5813,-86 4531.4187,-86 4531.4187,-122"/>
<text text-anchor="middle" x="4468" y="-99.8" font-family="Times,serif" font-size="14.00" fill="#000000">MatToolbarModule</text>
</g>
<!-- MatToolbarModule&#45;&gt;AppModule -->
<g id="edge12" class="edge">
<title>MatToolbarModule&#45;&gt;AppModule</title>
<path fill="none" stroke="#000000" d="M4468,-122.2222C4468,-140.8285 4468,-167 4468,-167 4468,-167 3280.9337,-167 3280.9337,-167"/>
<polygon fill="#000000" stroke="#000000" points="3280.9337,-163.5001 3270.9337,-167 3280.9337,-170.5001 3280.9337,-163.5001"/>
</g>
<!-- MatSidenavModule -->
<g id="node14" class="node">
<title>MatSidenavModule</title>
<polygon fill="#8dd3c7" stroke="#000000" points="4386.7022,-122 4383.7022,-126 4362.7022,-126 4359.7022,-122 4259.2978,-122 4259.2978,-86 4386.7022,-86 4386.7022,-122"/>
<text text-anchor="middle" x="4323" y="-99.8" font-family="Times,serif" font-size="14.00" fill="#000000">MatSidenavModule</text>
</g>
<!-- MatSidenavModule&#45;&gt;AppModule -->
<g id="edge13" class="edge">
<title>MatSidenavModule&#45;&gt;AppModule</title>
<path fill="none" stroke="#000000" d="M4323,-122.302C4323,-140.2699 4323,-165 4323,-165 4323,-165 3280.8824,-165 3280.8824,-165"/>
<polygon fill="#000000" stroke="#000000" points="3280.8824,-161.5001 3270.8824,-165 3280.8824,-168.5001 3280.8824,-161.5001"/>
</g>
<!-- MatIconModule -->
<g id="node15" class="node">
<title>MatIconModule</title>
<polygon fill="#8dd3c7" stroke="#000000" points="4241.4748,-122 4238.4748,-126 4217.4748,-126 4214.4748,-122 4134.5252,-122 4134.5252,-86 4241.4748,-86 4241.4748,-122"/>
<text text-anchor="middle" x="4188" y="-99.8" font-family="Times,serif" font-size="14.00" fill="#000000">MatIconModule</text>
</g>
<!-- MatIconModule&#45;&gt;AppModule -->
<g id="edge14" class="edge">
<title>MatIconModule&#45;&gt;AppModule</title>
<path fill="none" stroke="#000000" d="M4188,-122.0225C4188,-139.3734 4188,-163 4188,-163 4188,-163 3280.8237,-163 3280.8237,-163"/>
<polygon fill="#000000" stroke="#000000" points="3280.8237,-159.5001 3270.8237,-163 3280.8236,-166.5001 3280.8237,-159.5001"/>
</g>
<!-- MatButtonModule -->
<g id="node16" class="node">
<title>MatButtonModule</title>
<polygon fill="#8dd3c7" stroke="#000000" points="4116.2176,-122 4113.2176,-126 4092.2176,-126 4089.2176,-122 3995.7824,-122 3995.7824,-86 4116.2176,-86 4116.2176,-122"/>
<text text-anchor="middle" x="4056" y="-99.8" font-family="Times,serif" font-size="14.00" fill="#000000">MatButtonModule</text>
</g>
<!-- MatButtonModule&#45;&gt;AppModule -->
<g id="edge15" class="edge">
<title>MatButtonModule&#45;&gt;AppModule</title>
<path fill="none" stroke="#000000" d="M4056,-122.0336C4056,-139.0597 4056,-162 4056,-162 4056,-162 3280.8625,-162 3280.8625,-162"/>
<polygon fill="#000000" stroke="#000000" points="3280.8625,-158.5001 3270.8625,-162 3280.8624,-165.5001 3280.8625,-158.5001"/>
</g>
<!-- MatListModule -->
<g id="node17" class="node">
<title>MatListModule</title>
<polygon fill="#8dd3c7" stroke="#000000" points="3977.8781,-122 3974.8781,-126 3953.8781,-126 3950.8781,-122 3874.1219,-122 3874.1219,-86 3977.8781,-86 3977.8781,-122"/>
<text text-anchor="middle" x="3926" y="-99.8" font-family="Times,serif" font-size="14.00" fill="#000000">MatListModule</text>
</g>
<!-- MatListModule&#45;&gt;AppModule -->
<g id="edge16" class="edge">
<title>MatListModule&#45;&gt;AppModule</title>
<path fill="none" stroke="#000000" d="M3926,-122.027C3926,-138.3976 3926,-160 3926,-160 3926,-160 3280.7717,-160 3280.7717,-160"/>
<polygon fill="#000000" stroke="#000000" points="3280.7717,-156.5001 3270.7717,-160 3280.7716,-163.5001 3280.7717,-156.5001"/>
</g>
<!-- MatRippleModule -->
<g id="node18" class="node">
<title>MatRippleModule</title>
<polygon fill="#8dd3c7" stroke="#000000" points="3855.9328,-122 3852.9328,-126 3831.9328,-126 3828.9328,-122 3736.0672,-122 3736.0672,-86 3855.9328,-86 3855.9328,-122"/>
<text text-anchor="middle" x="3796" y="-99.8" font-family="Times,serif" font-size="14.00" fill="#000000">MatRippleModule</text>
</g>
<!-- MatRippleModule&#45;&gt;AppModule -->
<g id="edge17" class="edge">
<title>MatRippleModule&#45;&gt;AppModule</title>
<path fill="none" stroke="#000000" d="M3796,-122.2819C3796,-137.9478 3796,-158 3796,-158 3796,-158 3280.6929,-158 3280.6929,-158"/>
<polygon fill="#000000" stroke="#000000" points="3280.6929,-154.5001 3270.6929,-158 3280.6928,-161.5001 3280.6929,-154.5001"/>
</g>
<!-- MatDividerModule -->
<g id="node19" class="node">
<title>MatDividerModule</title>
<polygon fill="#8dd3c7" stroke="#000000" points="3718.3627,-122 3715.3627,-126 3694.3627,-126 3691.3627,-122 3593.6373,-122 3593.6373,-86 3718.3627,-86 3718.3627,-122"/>
<text text-anchor="middle" x="3656" y="-99.8" font-family="Times,serif" font-size="14.00" fill="#000000">MatDividerModule</text>
</g>
<!-- MatDividerModule&#45;&gt;AppModule -->
<g id="edge18" class="edge">
<title>MatDividerModule&#45;&gt;AppModule</title>
<path fill="none" stroke="#000000" d="M3656,-122.2396C3656,-137.5706 3656,-157 3656,-157 3656,-157 3280.72,-157 3280.72,-157"/>
<polygon fill="#000000" stroke="#000000" points="3280.7201,-153.5001 3270.72,-157 3280.72,-160.5001 3280.7201,-153.5001"/>
</g>
<!-- MatFormFieldModule -->
<g id="node20" class="node">
<title>MatFormFieldModule</title>
<polygon fill="#8dd3c7" stroke="#000000" points="3575.712,-122 3572.712,-126 3551.712,-126 3548.712,-122 3434.288,-122 3434.288,-86 3575.712,-86 3575.712,-122"/>
<text text-anchor="middle" x="3505" y="-99.8" font-family="Times,serif" font-size="14.00" fill="#000000">MatFormFieldModule</text>
</g>
<!-- MatFormFieldModule&#45;&gt;AppModule -->
<g id="edge19" class="edge">
<title>MatFormFieldModule&#45;&gt;AppModule</title>
<path fill="none" stroke="#000000" d="M3505,-122.1243C3505,-136.7832 3505,-155 3505,-155 3505,-155 3280.9185,-155 3280.9185,-155"/>
<polygon fill="#000000" stroke="#000000" points="3280.9185,-151.5001 3270.9185,-155 3280.9184,-158.5001 3280.9185,-151.5001"/>
</g>
<!-- MatInputModule -->
<g id="node21" class="node">
<title>MatInputModule</title>
<polygon fill="#8dd3c7" stroke="#000000" points="3416.6513,-122 3413.6513,-126 3392.6513,-126 3389.6513,-122 3305.3487,-122 3305.3487,-86 3416.6513,-86 3416.6513,-122"/>
<text text-anchor="middle" x="3361" y="-99.8" font-family="Times,serif" font-size="14.00" fill="#000000">MatInputModule</text>
</g>
<!-- MatInputModule&#45;&gt;AppModule -->
<g id="edge20" class="edge">
<title>MatInputModule&#45;&gt;AppModule</title>
<path fill="none" stroke="#000000" d="M3361,-122.2458C3361,-136.1772 3361,-153 3361,-153 3361,-153 3280.7656,-153 3280.7656,-153"/>
<polygon fill="#000000" stroke="#000000" points="3280.7657,-149.5001 3270.7656,-153 3280.7656,-156.5001 3280.7657,-149.5001"/>
</g>
<!-- MatSelectModule -->
<g id="node22" class="node">
<title>MatSelectModule</title>
<polygon fill="#8dd3c7" stroke="#000000" points="3287.3076,-122 3284.3076,-126 3263.3076,-126 3260.3076,-122 3170.6924,-122 3170.6924,-86 3287.3076,-86 3287.3076,-122"/>
<text text-anchor="middle" x="3229" y="-99.8" font-family="Times,serif" font-size="14.00" fill="#000000">MatSelectModule</text>
</g>
<!-- MatSelectModule&#45;&gt;AppModule -->
<g id="edge21" class="edge">
<title>MatSelectModule&#45;&gt;AppModule</title>
<path fill="none" stroke="#000000" d="M3229,-122.1061C3229,-122.1061 3229,-140.991 3229,-140.991"/>
<polygon fill="#000000" stroke="#000000" points="3225.5001,-140.9909 3229,-150.991 3232.5001,-140.991 3225.5001,-140.9909"/>
</g>
<!-- MatChipsModule -->
<g id="node23" class="node">
<title>MatChipsModule</title>
<polygon fill="#8dd3c7" stroke="#000000" points="3152.2716,-122 3149.2716,-126 3128.2716,-126 3125.2716,-122 3037.7284,-122 3037.7284,-86 3152.2716,-86 3152.2716,-122"/>
<text text-anchor="middle" x="3095" y="-99.8" font-family="Times,serif" font-size="14.00" fill="#000000">MatChipsModule</text>
</g>
<!-- MatChipsModule&#45;&gt;AppModule -->
<g id="edge22" class="edge">
<title>MatChipsModule&#45;&gt;AppModule</title>
<path fill="none" stroke="#000000" d="M3095,-122.2458C3095,-136.1772 3095,-153 3095,-153 3095,-153 3177.3361,-153 3177.3361,-153"/>
<polygon fill="#000000" stroke="#000000" points="3177.3361,-156.5001 3187.3361,-153 3177.3361,-149.5001 3177.3361,-156.5001"/>
</g>
<!-- MatCheckboxModule -->
<g id="node24" class="node">
<title>MatCheckboxModule</title>
<polygon fill="#8dd3c7" stroke="#000000" points="3019.3655,-122 3016.3655,-126 2995.3655,-126 2992.3655,-122 2880.6345,-122 2880.6345,-86 3019.3655,-86 3019.3655,-122"/>
<text text-anchor="middle" x="2950" y="-99.8" font-family="Times,serif" font-size="14.00" fill="#000000">MatCheckboxModule</text>
</g>
<!-- MatCheckboxModule&#45;&gt;AppModule -->
<g id="edge23" class="edge">
<title>MatCheckboxModule&#45;&gt;AppModule</title>
<path fill="none" stroke="#000000" d="M2950,-122.1243C2950,-136.7832 2950,-155 2950,-155 2950,-155 3177.2309,-155 3177.2309,-155"/>
<polygon fill="#000000" stroke="#000000" points="3177.2309,-158.5001 3187.2309,-155 3177.2308,-151.5001 3177.2309,-158.5001"/>
</g>
<!-- MatProgressSpinnerModule -->
<g id="node25" class="node">
<title>MatProgressSpinnerModule</title>
<polygon fill="#8dd3c7" stroke="#000000" points="2862.8557,-122 2859.8557,-126 2838.8557,-126 2835.8557,-122 2689.1443,-122 2689.1443,-86 2862.8557,-86 2862.8557,-122"/>
<text text-anchor="middle" x="2776" y="-99.8" font-family="Times,serif" font-size="14.00" fill="#000000">MatProgressSpinnerModule</text>
</g>
<!-- MatProgressSpinnerModule&#45;&gt;AppModule -->
<g id="edge24" class="edge">
<title>MatProgressSpinnerModule&#45;&gt;AppModule</title>
<path fill="none" stroke="#000000" d="M2776,-122.2396C2776,-137.5706 2776,-157 2776,-157 2776,-157 3177.1948,-157 3177.1948,-157"/>
<polygon fill="#000000" stroke="#000000" points="3177.1949,-160.5001 3187.1948,-157 3177.1948,-153.5001 3177.1949,-160.5001"/>
</g>
<!-- MatMenuModule -->
<g id="node26" class="node">
<title>MatMenuModule</title>
<polygon fill="#8dd3c7" stroke="#000000" points="2671.2591,-122 2668.2591,-126 2647.2591,-126 2644.2591,-122 2556.7409,-122 2556.7409,-86 2671.2591,-86 2671.2591,-122"/>
<text text-anchor="middle" x="2614" y="-99.8" font-family="Times,serif" font-size="14.00" fill="#000000">MatMenuModule</text>
</g>
<!-- MatMenuModule&#45;&gt;AppModule -->
<g id="edge25" class="edge">
<title>MatMenuModule&#45;&gt;AppModule</title>
<path fill="none" stroke="#000000" d="M2614,-122.2819C2614,-137.9478 2614,-158 2614,-158 2614,-158 3177.2121,-158 3177.2121,-158"/>
<polygon fill="#000000" stroke="#000000" points="3177.2121,-161.5001 3187.2121,-158 3177.212,-154.5001 3177.2121,-161.5001"/>
</g>
<!-- MatBadgeModule -->
<g id="node27" class="node">
<title>MatBadgeModule</title>
<polygon fill="#8dd3c7" stroke="#000000" points="2538.8655,-122 2535.8655,-126 2514.8655,-126 2511.8655,-122 2421.1345,-122 2421.1345,-86 2538.8655,-86 2538.8655,-122"/>
<text text-anchor="middle" x="2480" y="-99.8" font-family="Times,serif" font-size="14.00" fill="#000000">MatBadgeModule</text>
</g>
<!-- MatBadgeModule&#45;&gt;AppModule -->
<g id="edge26" class="edge">
<title>MatBadgeModule&#45;&gt;AppModule</title>
<path fill="none" stroke="#000000" d="M2480,-122.027C2480,-138.3976 2480,-160 2480,-160 2480,-160 3177.1256,-160 3177.1256,-160"/>
<polygon fill="#000000" stroke="#000000" points="3177.1256,-163.5001 3187.1256,-160 3177.1255,-156.5001 3177.1256,-163.5001"/>
</g>
<!-- AuthModule -->
<g id="node28" class="node">
<title>AuthModule</title>
<polygon fill="#8dd3c7" stroke="#000000" points="2402.5482,-122 2399.5482,-126 2378.5482,-126 2375.5482,-122 2315.4518,-122 2315.4518,-86 2402.5482,-86 2402.5482,-122"/>
<text text-anchor="middle" x="2359" y="-99.8" font-family="Times,serif" font-size="14.00" fill="#000000">AuthModule</text>
</g>
<!-- AuthModule&#45;&gt;AppModule -->
<g id="edge27" class="edge">
<title>AuthModule&#45;&gt;AppModule</title>
<path fill="none" stroke="#000000" d="M2359,-122.0336C2359,-139.0597 2359,-162 2359,-162 2359,-162 3177.3312,-162 3177.3312,-162"/>
<polygon fill="#000000" stroke="#000000" points="3177.3312,-165.5001 3187.3312,-162 3177.3312,-158.5001 3177.3312,-165.5001"/>
</g>
<!-- UploadModule -->
<g id="node29" class="node">
<title>UploadModule</title>
<polygon fill="#8dd3c7" stroke="#000000" points="2297.2619,-122 2294.2619,-126 2273.2619,-126 2270.2619,-122 2196.7381,-122 2196.7381,-86 2297.2619,-86 2297.2619,-122"/>
<text text-anchor="middle" x="2247" y="-99.8" font-family="Times,serif" font-size="14.00" fill="#000000">UploadModule</text>
</g>
<!-- UploadModule&#45;&gt;AppModule -->
<g id="edge28" class="edge">
<title>UploadModule&#45;&gt;AppModule</title>
<path fill="none" stroke="#000000" d="M2247,-122.0225C2247,-139.3734 2247,-163 2247,-163 2247,-163 3177.1188,-163 3177.1188,-163"/>
<polygon fill="#000000" stroke="#000000" points="3177.1189,-166.5001 3187.1188,-163 3177.1188,-159.5001 3177.1189,-166.5001"/>
</g>
<!-- UiFormModule -->
<g id="node30" class="node">
<title>UiFormModule</title>
<polygon fill="#8dd3c7" stroke="#000000" points="2178.8809,-122 2175.8809,-126 2154.8809,-126 2151.8809,-122 2075.1191,-122 2075.1191,-86 2178.8809,-86 2178.8809,-122"/>
<text text-anchor="middle" x="2127" y="-99.8" font-family="Times,serif" font-size="14.00" fill="#000000">UiFormModule</text>
</g>
<!-- UiFormModule&#45;&gt;AppModule -->
<g id="edge29" class="edge">
<title>UiFormModule&#45;&gt;AppModule</title>
<path fill="none" stroke="#000000" d="M2127,-122.302C2127,-140.2699 2127,-165 2127,-165 2127,-165 3177.146,-165 3177.146,-165"/>
<polygon fill="#000000" stroke="#000000" points="3177.146,-168.5001 3187.146,-165 3177.1459,-161.5001 3177.146,-168.5001"/>
</g>
<!-- OrganizationModule -->
<g id="node31" class="node">
<title>OrganizationModule</title>
<polygon fill="#8dd3c7" stroke="#000000" points="2057.1331,-122 2054.1331,-126 2033.1331,-126 2030.1331,-122 1924.8669,-122 1924.8669,-86 2057.1331,-86 2057.1331,-122"/>
<text text-anchor="middle" x="1991" y="-99.8" font-family="Times,serif" font-size="14.00" fill="#000000">OrganizationModule</text>
</g>
<!-- OrganizationModule&#45;&gt;AppModule -->
<g id="edge30" class="edge">
<title>OrganizationModule&#45;&gt;AppModule</title>
<path fill="none" stroke="#000000" d="M1991,-122.2222C1991,-140.8285 1991,-167 1991,-167 1991,-167 3177.1001,-167 3177.1001,-167"/>
<polygon fill="#000000" stroke="#000000" points="3177.1002,-170.5001 3187.1001,-167 3177.1001,-163.5001 3177.1002,-170.5001"/>
</g>
<!-- ToolbarModule -->
<g id="node32" class="node">
<title>ToolbarModule</title>
<polygon fill="#8dd3c7" stroke="#000000" points="1906.8683,-122 1903.8683,-126 1882.8683,-126 1879.8683,-122 1803.1317,-122 1803.1317,-86 1906.8683,-86 1906.8683,-122"/>
<text text-anchor="middle" x="1855" y="-99.8" font-family="Times,serif" font-size="14.00" fill="#000000">ToolbarModule</text>
</g>
<!-- ToolbarModule&#45;&gt;AppModule -->
<g id="edge31" class="edge">
<title>ToolbarModule&#45;&gt;AppModule</title>
<path fill="none" stroke="#000000" d="M1855,-122.1061C1855,-141.3391 1855,-169 1855,-169 1855,-169 3177.1287,-169 3177.1287,-169"/>
<polygon fill="#000000" stroke="#000000" points="3177.1287,-172.5001 3187.1287,-169 3177.1286,-165.5001 3177.1287,-172.5001"/>
</g>
<!-- AccountModule -->
<g id="node33" class="node">
<title>AccountModule</title>
<polygon fill="#8dd3c7" stroke="#000000" points="1785.4762,-122 1782.4762,-126 1761.4762,-126 1758.4762,-122 1678.5238,-122 1678.5238,-86 1785.4762,-86 1785.4762,-122"/>
<text text-anchor="middle" x="1732" y="-99.8" font-family="Times,serif" font-size="14.00" fill="#000000">AccountModule</text>
</g>
<!-- AccountModule&#45;&gt;AppModule -->
<g id="edge32" class="edge">
<title>AccountModule&#45;&gt;AppModule</title>
<path fill="none" stroke="#000000" d="M1732,-122.0348C1732,-141.5762 1732,-170 1732,-170 1732,-170 3177.005,-170 3177.005,-170"/>
<polygon fill="#000000" stroke="#000000" points="3177.0051,-173.5001 3187.005,-170 3177.005,-166.5001 3177.0051,-173.5001"/>
</g>
<!-- ProfileModule -->
<g id="node34" class="node">
<title>ProfileModule</title>
<polygon fill="#8dd3c7" stroke="#000000" points="1660.65,-122 1657.65,-126 1636.65,-126 1633.65,-122 1563.35,-122 1563.35,-86 1660.65,-86 1660.65,-122"/>
<text text-anchor="middle" x="1612" y="-99.8" font-family="Times,serif" font-size="14.00" fill="#000000">ProfileModule</text>
</g>
<!-- ProfileModule&#45;&gt;AppModule -->
<g id="edge33" class="edge">
<title>ProfileModule&#45;&gt;AppModule</title>
<path fill="none" stroke="#000000" d="M1612,-122.2228C1612,-142.3652 1612,-172 1612,-172 1612,-172 3176.9931,-172 3176.9931,-172"/>
<polygon fill="#000000" stroke="#000000" points="3176.9932,-175.5001 3186.9931,-172 3176.9931,-168.5001 3176.9932,-175.5001"/>
</g>
<!-- WalletModule -->
<g id="node35" class="node">
<title>WalletModule</title>
<polygon fill="#8dd3c7" stroke="#000000" points="1545.3655,-122 1542.3655,-126 1521.3655,-126 1518.3655,-122 1448.6345,-122 1448.6345,-86 1545.3655,-86 1545.3655,-122"/>
<text text-anchor="middle" x="1497" y="-99.8" font-family="Times,serif" font-size="14.00" fill="#000000">WalletModule</text>
</g>
<!-- WalletModule&#45;&gt;AppModule -->
<g id="edge34" class="edge">
<title>WalletModule&#45;&gt;AppModule</title>
<path fill="none" stroke="#000000" d="M1497,-122.0267C1497,-142.7672 1497,-174 1497,-174 1497,-174 3177.0445,-174 3177.0445,-174"/>
<polygon fill="#000000" stroke="#000000" points="3177.0445,-177.5001 3187.0445,-174 3177.0444,-170.5001 3177.0445,-177.5001"/>
</g>
<!-- KeyManagerModule -->
<g id="node36" class="node">
<title>KeyManagerModule</title>
<polygon fill="#8dd3c7" stroke="#000000" points="1430.1205,-122 1427.1205,-126 1406.1205,-126 1403.1205,-122 1297.8795,-122 1297.8795,-86 1430.1205,-86 1430.1205,-122"/>
<text text-anchor="middle" x="1364" y="-99.8" font-family="Times,serif" font-size="14.00" fill="#000000">KeyManagerModule</text>
</g>
<!-- KeyManagerModule&#45;&gt;AppModule -->
<g id="edge35" class="edge">
<title>KeyManagerModule&#45;&gt;AppModule</title>
<path fill="none" stroke="#000000" d="M1364,-122.2843C1364,-143.3211 1364,-175 1364,-175 1364,-175 3176.9885,-175 3176.9885,-175"/>
<polygon fill="#000000" stroke="#000000" points="3176.9885,-178.5001 3186.9885,-175 3176.9884,-171.5001 3176.9885,-178.5001"/>
</g>
<!-- NotificationWidgetModule -->
<g id="node37" class="node">
<title>NotificationWidgetModule</title>
<polygon fill="#8dd3c7" stroke="#000000" points="1279.4101,-122 1276.4101,-126 1255.4101,-126 1252.4101,-122 1110.5899,-122 1110.5899,-86 1279.4101,-86 1279.4101,-122"/>
<text text-anchor="middle" x="1195" y="-99.8" font-family="Times,serif" font-size="14.00" fill="#000000">NotificationWidgetModule</text>
</g>
<!-- NotificationWidgetModule&#45;&gt;AppModule -->
<g id="edge36" class="edge">
<title>NotificationWidgetModule&#45;&gt;AppModule</title>
<path fill="none" stroke="#000000" d="M1195,-122.0449C1195,-143.6623 1195,-177 1195,-177 1195,-177 3176.9839,-177 3176.9839,-177"/>
<polygon fill="#000000" stroke="#000000" points="3176.9839,-180.5001 3186.9839,-177 3176.9839,-173.5001 3176.9839,-180.5001"/>
</g>
<!-- AngularFireModule.initializeApp(args) -->
<g id="node38" class="node">
<title>AngularFireModule.initializeApp(args)</title>
<polygon fill="#8dd3c7" stroke="#000000" points="1092.7057,-122 1089.7057,-126 1068.7057,-126 1065.7057,-122 855.2943,-122 855.2943,-86 1092.7057,-86 1092.7057,-122"/>
<text text-anchor="middle" x="974" y="-99.8" font-family="Times,serif" font-size="14.00" fill="#000000">AngularFireModule.initializeApp(args)</text>
</g>
<!-- AngularFireModule.initializeApp(args)&#45;&gt;AppModule -->
<g id="edge37" class="edge">
<title>AngularFireModule.initializeApp(args)&#45;&gt;AppModule</title>
<path fill="none" stroke="#000000" d="M974,-122.1554C974,-144.3519 974,-179 974,-179 974,-179 3176.9565,-179 3176.9565,-179"/>
<polygon fill="#000000" stroke="#000000" points="3176.9566,-182.5001 3186.9565,-179 3176.9565,-175.5001 3176.9566,-182.5001"/>
</g>
<!-- AngularFirestoreModule.enablePersistence(args) -->
<g id="node39" class="node">
<title>AngularFirestoreModule.enablePersistence(args)</title>
<polygon fill="#8dd3c7" stroke="#000000" points="837.3285,-122 834.3285,-126 813.3285,-126 810.3285,-122 546.6715,-122 546.6715,-86 837.3285,-86 837.3285,-122"/>
<text text-anchor="middle" x="692" y="-99.8" font-family="Times,serif" font-size="14.00" fill="#000000">AngularFirestoreModule.enablePersistence(args)</text>
</g>
<!-- AngularFirestoreModule.enablePersistence(args)&#45;&gt;AppModule -->
<g id="edge38" class="edge">
<title>AngularFirestoreModule.enablePersistence(args)&#45;&gt;AppModule</title>
<path fill="none" stroke="#000000" d="M692,-122.2479C692,-145.0179 692,-181 692,-181 692,-181 3177.0823,-181 3177.0823,-181"/>
<polygon fill="#000000" stroke="#000000" points="3177.0823,-184.5001 3187.0823,-181 3177.0823,-177.5001 3177.0823,-184.5001"/>
</g>
<!-- AngularFireFunctionsModule -->
<g id="node40" class="node">
<title>AngularFireFunctionsModule</title>
<polygon fill="#8dd3c7" stroke="#000000" points="528.6937,-122 525.6937,-126 504.6937,-126 501.6937,-122 345.3063,-122 345.3063,-86 528.6937,-86 528.6937,-122"/>
<text text-anchor="middle" x="437" y="-99.8" font-family="Times,serif" font-size="14.00" fill="#000000">AngularFireFunctionsModule</text>
</g>
<!-- AngularFireFunctionsModule&#45;&gt;AppModule -->
<g id="edge39" class="edge">
<title>AngularFireFunctionsModule&#45;&gt;AppModule</title>
<path fill="none" stroke="#000000" d="M437,-122.0908C437,-145.1328 437,-182 437,-182 437,-182 3177.0906,-182 3177.0906,-182"/>
<polygon fill="#000000" stroke="#000000" points="3177.0906,-185.5001 3187.0906,-182 3177.0906,-178.5001 3177.0906,-185.5001"/>
</g>
<!-- AkitaNgRouterStoreModule.forRoot() -->
<g id="node41" class="node">
<title>AkitaNgRouterStoreModule.forRoot()</title>
<polygon fill="#8dd3c7" stroke="#000000" points="327.7793,-122 324.7793,-126 303.7793,-126 300.7793,-122 96.2207,-122 96.2207,-86 327.7793,-86 327.7793,-122"/>
<text text-anchor="middle" x="212" y="-99.8" font-family="Times,serif" font-size="14.00" fill="#000000">AkitaNgRouterStoreModule.forRoot()</text>
</g>
<!-- AkitaNgRouterStoreModule.forRoot()&#45;&gt;AppModule -->
<g id="edge40" class="edge">
<title>AkitaNgRouterStoreModule.forRoot()&#45;&gt;AppModule</title>
<path fill="none" stroke="#000000" d="M212,-122.1532C212,-145.7566 212,-184 212,-184 212,-184 3177.2132,-184 3177.2132,-184"/>
<polygon fill="#000000" stroke="#000000" points="3177.2133,-187.5001 3187.2132,-184 3177.2132,-180.5001 3177.2133,-187.5001"/>
</g>
<!-- { &#160;} -->
<g id="node42" class="node">
<title>{ &#160;}</title>
<polygon fill="#8dd3c7" stroke="#000000" points="78,-122 75,-126 54,-126 51,-122 24,-122 24,-86 78,-86 78,-122"/>
<text text-anchor="middle" x="51" y="-99.8" font-family="Times,serif" font-size="14.00" fill="#000000">{ &#160;}</text>
</g>
<!-- { &#160;}&#45;&gt;AppModule -->
<g id="edge41" class="edge">
<title>{ &#160;}&#45;&gt;AppModule</title>
<path fill="none" stroke="#000000" d="M51,-122.1985C51,-146.3563 51,-186 51,-186 51,-186 3177.069,-186 3177.069,-186"/>
<polygon fill="#000000" stroke="#000000" points="3177.069,-189.5001 3187.069,-186 3177.0689,-182.5001 3177.069,-189.5001"/>
</g>
</g>
</svg>
