<?xml version="1.0" encoding="UTF-8" standalone="no"?>
<!DOCTYPE svg PUBLIC "-//W3C//DTD SVG 1.1//EN"
 "http://www.w3.org/Graphics/SVG/1.1/DTD/svg11.dtd">
<!-- Generated by graphviz version 2.40.1 (20161225.0304)
 -->
<!-- Title: dependencies Pages: 1 -->
<svg width="774pt" height="284pt"
 viewBox="0.00 0.00 774.00 284.00" xmlns="http://www.w3.org/2000/svg" xmlns:xlink="http://www.w3.org/1999/xlink">
<g id="graph0" class="graph" transform="scale(1 1) rotate(0) translate(4 280)">
<title>dependencies</title>
<polygon fill="#ffffff" stroke="transparent" points="-4,4 -4,-280 770,-280 770,4 -4,4"/>
<text text-anchor="start" x="362.0091" y="-42.4" font-family="sans-serif" font-weight="bold" font-size="14.00" fill="#000000">Legend</text>
<polygon fill="#ffffb3" stroke="transparent" points="149,-10 149,-30 169,-30 169,-10 149,-10"/>
<text text-anchor="start" x="172.629" y="-15.4" font-family="sans-serif" font-size="14.00" fill="#000000"> &#160;Declarations</text>
<polygon fill="#8dd3c7" stroke="transparent" points="262,-10 262,-30 282,-30 282,-10 262,-10"/>
<text text-anchor="start" x="285.7251" y="-15.4" font-family="sans-serif" font-size="14.00" fill="#000000"> &#160;Module</text>
<polygon fill="#80b1d3" stroke="transparent" points="348,-10 348,-30 368,-30 368,-10 348,-10"/>
<text text-anchor="start" x="371.7812" y="-15.4" font-family="sans-serif" font-size="14.00" fill="#000000"> &#160;Bootstrap</text>
<polygon fill="#fdb462" stroke="transparent" points="445,-10 445,-30 465,-30 465,-10 445,-10"/>
<text text-anchor="start" x="468.6732" y="-15.4" font-family="sans-serif" font-size="14.00" fill="#000000"> &#160;Providers</text>
<polygon fill="#fb8072" stroke="transparent" points="541,-10 541,-30 561,-30 561,-10 541,-10"/>
<text text-anchor="start" x="564.7258" y="-15.4" font-family="sans-serif" font-size="14.00" fill="#000000"> &#160;Exports</text>
<g id="clust1" class="cluster">
<title>cluster_FinancingRangeSliderModule</title>
<polygon fill="none" stroke="#000000" stroke-dasharray="1,5" points="8,-70 8,-268 758,-268 758,-70 8,-70"/>
</g>
<g id="clust2" class="cluster">
<title>cluster_FinancingRangeSliderModule_declarations</title>
<polygon fill="none" stroke="#000000" points="528,-78 528,-130 750,-130 750,-78 528,-78"/>
</g>
<g id="clust4" class="cluster">
<title>cluster_FinancingRangeSliderModule_imports</title>
<polygon fill="none" stroke="#000000" points="16,-78 16,-130 520,-130 520,-78 16,-78"/>
</g>
<g id="clust5" class="cluster">
<title>cluster_FinancingRangeSliderModule_exports</title>
<polygon fill="none" stroke="#000000" points="222,-208 222,-260 448,-260 448,-208 222,-208"/>
</g>
<!-- FinancingRangeSliderComponent -->
<g id="node1" class="node">
<title>FinancingRangeSliderComponent</title>
<polygon fill="#ffffb3" stroke="#000000" points="742.0307,-122 535.9693,-122 535.9693,-86 742.0307,-86 742.0307,-122"/>
<text text-anchor="middle" x="639" y="-99.8" font-family="Times,serif" font-size="14.00" fill="#000000">FinancingRangeSliderComponent</text>
</g>
<!-- FinancingRangeSliderModule -->
<g id="node2" class="node">
<title>FinancingRangeSliderModule</title>
<polygon fill="#8dd3c7" stroke="#000000" points="427.2478,-187 424.2478,-191 403.2478,-191 400.2478,-187 242.7522,-187 242.7522,-151 427.2478,-151 427.2478,-187"/>
<text text-anchor="middle" x="335" y="-164.8" font-family="Times,serif" font-size="14.00" fill="#000000">FinancingRangeSliderModule</text>
</g>
<!-- FinancingRangeSliderComponent&#45;&gt;FinancingRangeSliderModule -->
<g id="edge1" class="edge">
<title>FinancingRangeSliderComponent&#45;&gt;FinancingRangeSliderModule</title>
<path fill="none" stroke="#000000" d="M639,-122.1061C639,-141.3391 639,-169 639,-169 639,-169 437.4482,-169 437.4482,-169"/>
<polygon fill="#000000" stroke="#000000" points="437.4482,-165.5001 427.4482,-169 437.4482,-172.5001 437.4482,-165.5001"/>
</g>
<!-- FinancingRangeSliderComponent  -->
<g id="node7" class="node">
<title>FinancingRangeSliderComponent </title>
<polygon fill="#fb8072" stroke="#000000" points="440.0302,-252 229.9698,-252 229.9698,-216 440.0302,-216 440.0302,-252"/>
<text text-anchor="middle" x="335" y="-229.8" font-family="Times,serif" font-size="14.00" fill="#000000">FinancingRangeSliderComponent </text>
</g>
<!-- FinancingRangeSliderModule&#45;&gt;FinancingRangeSliderComponent  -->
<g id="edge6" class="edge">
<title>FinancingRangeSliderModule&#45;&gt;FinancingRangeSliderComponent </title>
<path fill="none" stroke="#000000" stroke-dasharray="5,2" d="M335,-187.1061C335,-187.1061 335,-205.991 335,-205.991"/>
<polygon fill="#000000" stroke="#000000" points="331.5001,-205.9909 335,-215.991 338.5001,-205.991 331.5001,-205.9909"/>
</g>
<!-- CommonModule -->
<g id="node3" class="node">
<title>CommonModule</title>
<polygon fill="#8dd3c7" stroke="#000000" points="511.6681,-122 508.6681,-126 487.6681,-126 484.6681,-122 400.3319,-122 400.3319,-86 511.6681,-86 511.6681,-122"/>
<text text-anchor="middle" x="456" y="-99.8" font-family="Times,serif" font-size="14.00" fill="#000000">CommonModule</text>
</g>
<!-- CommonModule&#45;&gt;FinancingRangeSliderModule -->
<g id="edge2" class="edge">
<title>CommonModule&#45;&gt;FinancingRangeSliderModule</title>
<path fill="none" stroke="#000000" d="M413.77,-122.1061C413.77,-122.1061 413.77,-140.991 413.77,-140.991"/>
<polygon fill="#000000" stroke="#000000" points="410.2701,-140.9909 413.77,-150.991 417.2701,-140.991 410.2701,-140.9909"/>
</g>
<!-- FormsModule -->
<g id="node4" class="node">
<title>FormsModule</title>
<polygon fill="#8dd3c7" stroke="#000000" points="382.8288,-122 379.8288,-126 358.8288,-126 355.8288,-122 287.1712,-122 287.1712,-86 382.8288,-86 382.8288,-122"/>
<text text-anchor="middle" x="335" y="-99.8" font-family="Times,serif" font-size="14.00" fill="#000000">FormsModule</text>
</g>
<!-- FormsModule&#45;&gt;FinancingRangeSliderModule -->
<g id="edge3" class="edge">
<title>FormsModule&#45;&gt;FinancingRangeSliderModule</title>
<path fill="none" stroke="#000000" d="M335,-122.1061C335,-122.1061 335,-140.991 335,-140.991"/>
<polygon fill="#000000" stroke="#000000" points="331.5001,-140.9909 335,-150.991 338.5001,-140.991 331.5001,-140.9909"/>
</g>
<!-- MatInputModule -->
<g id="node5" class="node">
<title>MatInputModule</title>
<polygon fill="#8dd3c7" stroke="#000000" points="269.6513,-122 266.6513,-126 245.6513,-126 242.6513,-122 158.3487,-122 158.3487,-86 269.6513,-86 269.6513,-122"/>
<text text-anchor="middle" x="214" y="-99.8" font-family="Times,serif" font-size="14.00" fill="#000000">MatInputModule</text>
</g>
<!-- MatInputModule&#45;&gt;FinancingRangeSliderModule -->
<g id="edge4" class="edge">
<title>MatInputModule&#45;&gt;FinancingRangeSliderModule</title>
<path fill="none" stroke="#000000" d="M256.2258,-122.1061C256.2258,-122.1061 256.2258,-140.991 256.2258,-140.991"/>
<polygon fill="#000000" stroke="#000000" points="252.7259,-140.9909 256.2258,-150.991 259.7259,-140.991 252.7259,-140.9909"/>
</g>
<!-- MatSliderModule -->
<g id="node6" class="node">
<title>MatSliderModule</title>
<polygon fill="#8dd3c7" stroke="#000000" points="139.5395,-122 136.5395,-126 115.5395,-126 112.5395,-122 24.4605,-122 24.4605,-86 139.5395,-86 139.5395,-122"/>
<text text-anchor="middle" x="82" y="-99.8" font-family="Times,serif" font-size="14.00" fill="#000000">MatSliderModule</text>
</g>
<!-- MatSliderModule&#45;&gt;FinancingRangeSliderModule -->
<g id="edge5" class="edge">
<title>MatSliderModule&#45;&gt;FinancingRangeSliderModule</title>
<path fill="none" stroke="#000000" d="M82,-122.1061C82,-141.3391 82,-169 82,-169 82,-169 232.5873,-169 232.5873,-169"/>
<polygon fill="#000000" stroke="#000000" points="232.5873,-172.5001 242.5873,-169 232.5872,-165.5001 232.5873,-172.5001"/>
</g>
</g>
</svg>
