<?xml version="1.0" encoding="UTF-8" standalone="no"?>
<!DOCTYPE svg PUBLIC "-//W3C//DTD SVG 1.1//EN"
 "http://www.w3.org/Graphics/SVG/1.1/DTD/svg11.dtd">
<!-- Generated by graphviz version 2.40.1 (20161225.0304)
 -->
<!-- Title: dependencies Pages: 1 -->
<svg width="504pt" height="284pt"
 viewBox="0.00 0.00 504.00 284.00" xmlns="http://www.w3.org/2000/svg" xmlns:xlink="http://www.w3.org/1999/xlink">
<g id="graph0" class="graph" transform="scale(1 1) rotate(0) translate(4 280)">
<title>dependencies</title>
<polygon fill="#ffffff" stroke="transparent" points="-4,4 -4,-280 500,-280 500,4 -4,4"/>
<text text-anchor="start" x="227.0091" y="-42.4" font-family="sans-serif" font-weight="bold" font-size="14.00" fill="#000000">Legend</text>
<polygon fill="#ffffb3" stroke="transparent" points="14,-10 14,-30 34,-30 34,-10 14,-10"/>
<text text-anchor="start" x="37.629" y="-15.4" font-family="sans-serif" font-size="14.00" fill="#000000"> &#160;Declarations</text>
<polygon fill="#8dd3c7" stroke="transparent" points="127,-10 127,-30 147,-30 147,-10 127,-10"/>
<text text-anchor="start" x="150.7251" y="-15.4" font-family="sans-serif" font-size="14.00" fill="#000000"> &#160;Module</text>
<polygon fill="#80b1d3" stroke="transparent" points="213,-10 213,-30 233,-30 233,-10 213,-10"/>
<text text-anchor="start" x="236.7812" y="-15.4" font-family="sans-serif" font-size="14.00" fill="#000000"> &#160;Bootstrap</text>
<polygon fill="#fdb462" stroke="transparent" points="310,-10 310,-30 330,-30 330,-10 310,-10"/>
<text text-anchor="start" x="333.6732" y="-15.4" font-family="sans-serif" font-size="14.00" fill="#000000"> &#160;Providers</text>
<polygon fill="#fb8072" stroke="transparent" points="406,-10 406,-30 426,-30 426,-10 406,-10"/>
<text text-anchor="start" x="429.7258" y="-15.4" font-family="sans-serif" font-size="14.00" fill="#000000"> &#160;Exports</text>
<g id="clust1" class="cluster">
<title>cluster_UiFormModule</title>
<polygon fill="none" stroke="#000000" stroke-dasharray="1,5" points="32,-70 32,-268 464,-268 464,-70 32,-70"/>
</g>
<g id="clust2" class="cluster">
<title>cluster_UiFormModule_declarations</title>
<polygon fill="none" stroke="#000000" points="43,-78 43,-130 453,-130 453,-78 43,-78"/>
</g>
<g id="clust6" class="cluster">
<title>cluster_UiFormModule_exports</title>
<polygon fill="none" stroke="#000000" points="40,-208 40,-260 456,-260 456,-208 40,-208"/>
</g>
<!-- ChipsAutocompleteComponent -->
<g id="node1" class="node">
<title>ChipsAutocompleteComponent</title>
<polygon fill="#ffffb3" stroke="#000000" points="444.8173,-122 251.1827,-122 251.1827,-86 444.8173,-86 444.8173,-122"/>
<text text-anchor="middle" x="348" y="-99.8" font-family="Times,serif" font-size="14.00" fill="#000000">ChipsAutocompleteComponent</text>
</g>
<!-- UiFormModule -->
<g id="node3" class="node">
<title>UiFormModule</title>
<polygon fill="#8dd3c7" stroke="#000000" points="194.8809,-187 191.8809,-191 170.8809,-191 167.8809,-187 91.1191,-187 91.1191,-151 194.8809,-151 194.8809,-187"/>
<text text-anchor="middle" x="143" y="-164.8" font-family="Times,serif" font-size="14.00" fill="#000000">UiFormModule</text>
</g>
<!-- ChipsAutocompleteComponent&#45;&gt;UiFormModule -->
<g id="edge1" class="edge">
<title>ChipsAutocompleteComponent&#45;&gt;UiFormModule</title>
<path fill="none" stroke="#000000" d="M380.3028,-122.0225C380.3028,-139.3734 380.3028,-163 380.3028,-163 380.3028,-163 205.0771,-163 205.0771,-163"/>
<polygon fill="#000000" stroke="#000000" points="205.0771,-159.5001 195.0771,-163 205.0771,-166.5001 205.0771,-159.5001"/>
</g>
<!-- PasswordConfirmComponent -->
<g id="node2" class="node">
<title>PasswordConfirmComponent</title>
<polygon fill="#ffffb3" stroke="#000000" points="233.4255,-122 50.5745,-122 50.5745,-86 233.4255,-86 233.4255,-122"/>
<text text-anchor="middle" x="142" y="-99.8" font-family="Times,serif" font-size="14.00" fill="#000000">PasswordConfirmComponent</text>
</g>
<!-- PasswordConfirmComponent&#45;&gt;UiFormModule -->
<g id="edge2" class="edge">
<title>PasswordConfirmComponent&#45;&gt;UiFormModule</title>
<path fill="none" stroke="#000000" d="M143,-122.1061C143,-122.1061 143,-140.991 143,-140.991"/>
<polygon fill="#000000" stroke="#000000" points="139.5001,-140.9909 143,-150.991 146.5001,-140.991 139.5001,-140.9909"/>
</g>
<!-- ChipsAutocompleteComponent  -->
<g id="node4" class="node">
<title>ChipsAutocompleteComponent </title>
<polygon fill="#fb8072" stroke="#000000" points="448.3171,-252 251.6829,-252 251.6829,-216 448.3171,-216 448.3171,-252"/>
<text text-anchor="middle" x="350" y="-229.8" font-family="Times,serif" font-size="14.00" fill="#000000">ChipsAutocompleteComponent </text>
</g>
<!-- UiFormModule&#45;&gt;ChipsAutocompleteComponent  -->
<g id="edge3" class="edge">
<title>UiFormModule&#45;&gt;ChipsAutocompleteComponent </title>
<path fill="none" stroke="#000000" stroke-dasharray="5,2" d="M194.8899,-175C245.8325,-175 315.9472,-175 315.9472,-175 315.9472,-175 315.9472,-205.9775 315.9472,-205.9775"/>
<polygon fill="#000000" stroke="#000000" points="312.4473,-205.9774 315.9472,-215.9775 319.4473,-205.9775 312.4473,-205.9774"/>
</g>
<!-- PasswordConfirmComponent  -->
<g id="node5" class="node">
<title>PasswordConfirmComponent </title>
<polygon fill="#fb8072" stroke="#000000" points="233.925,-252 48.075,-252 48.075,-216 233.925,-216 233.925,-252"/>
<text text-anchor="middle" x="141" y="-229.8" font-family="Times,serif" font-size="14.00" fill="#000000">PasswordConfirmComponent </text>
</g>
<!-- UiFormModule&#45;&gt;PasswordConfirmComponent  -->
<g id="edge4" class="edge">
<title>UiFormModule&#45;&gt;PasswordConfirmComponent </title>
<path fill="none" stroke="#000000" stroke-dasharray="5,2" d="M143,-187.1061C143,-187.1061 143,-205.991 143,-205.991"/>
<polygon fill="#000000" stroke="#000000" points="139.5001,-205.9909 143,-215.991 146.5001,-205.991 139.5001,-205.9909"/>
</g>
</g>
</svg>
