<?xml version="1.0" encoding="UTF-8" standalone="no"?>
<!DOCTYPE svg PUBLIC "-//W3C//DTD SVG 1.1//EN"
 "http://www.w3.org/Graphics/SVG/1.1/DTD/svg11.dtd">
<!-- Generated by graphviz version 2.40.1 (20161225.0304)
 -->
<!-- Title: dependencies Pages: 1 -->
<svg width="504pt" height="284pt"
 viewBox="0.00 0.00 504.00 284.00" xmlns="http://www.w3.org/2000/svg" xmlns:xlink="http://www.w3.org/1999/xlink">
<g id="graph0" class="graph" transform="scale(1 1) rotate(0) translate(4 280)">
<title>dependencies</title>
<polygon fill="#ffffff" stroke="transparent" points="-4,4 -4,-280 500,-280 500,4 -4,4"/>
<text text-anchor="start" x="227.0091" y="-42.4" font-family="sans-serif" font-weight="bold" font-size="14.00" fill="#000000">Legend</text>
<polygon fill="#ffffb3" stroke="transparent" points="14,-10 14,-30 34,-30 34,-10 14,-10"/>
<text text-anchor="start" x="37.629" y="-15.4" font-family="sans-serif" font-size="14.00" fill="#000000"> &#160;Declarations</text>
<polygon fill="#8dd3c7" stroke="transparent" points="127,-10 127,-30 147,-30 147,-10 127,-10"/>
<text text-anchor="start" x="150.7251" y="-15.4" font-family="sans-serif" font-size="14.00" fill="#000000"> &#160;Module</text>
<polygon fill="#80b1d3" stroke="transparent" points="213,-10 213,-30 233,-30 233,-10 213,-10"/>
<text text-anchor="start" x="236.7812" y="-15.4" font-family="sans-serif" font-size="14.00" fill="#000000"> &#160;Bootstrap</text>
<polygon fill="#fdb462" stroke="transparent" points="310,-10 310,-30 330,-30 330,-10 310,-10"/>
<text text-anchor="start" x="333.6732" y="-15.4" font-family="sans-serif" font-size="14.00" fill="#000000"> &#160;Providers</text>
<polygon fill="#fb8072" stroke="transparent" points="406,-10 406,-30 426,-30 426,-10 406,-10"/>
<text text-anchor="start" x="429.7258" y="-15.4" font-family="sans-serif" font-size="14.00" fill="#000000"> &#160;Exports</text>
<g id="clust1" class="cluster">
<title>cluster_EditableModule</title>
<polygon fill="none" stroke="#000000" stroke-dasharray="1,5" points="17,-70 17,-268 479,-268 479,-70 17,-70"/>
</g>
<g id="clust2" class="cluster">
<title>cluster_EditableModule_declarations</title>
<polygon fill="none" stroke="#000000" points="29,-78 29,-130 465,-130 465,-78 29,-78"/>
</g>
<g id="clust7" class="cluster">
<title>cluster_EditableModule_exports</title>
<polygon fill="none" stroke="#000000" points="25,-208 25,-260 471,-260 471,-208 25,-208"/>
</g>
<!-- EditModeDirective -->
<g id="node1" class="node">
<title>EditModeDirective</title>
<polygon fill="#ffffb3" stroke="#000000" points="457.0758,-122 332.9242,-122 332.9242,-86 457.0758,-86 457.0758,-122"/>
<text text-anchor="middle" x="395" y="-99.8" font-family="Times,serif" font-size="14.00" fill="#000000">EditModeDirective</text>
</g>
<!-- EditableModule -->
<g id="node4" class="node">
<title>EditableModule</title>
<polygon fill="#8dd3c7" stroke="#000000" points="304.2036,-187 301.2036,-191 280.2036,-191 277.2036,-187 197.7964,-187 197.7964,-151 304.2036,-151 304.2036,-187"/>
<text text-anchor="middle" x="251" y="-164.8" font-family="Times,serif" font-size="14.00" fill="#000000">EditableModule</text>
</g>
<!-- EditModeDirective&#45;&gt;EditableModule -->
<g id="edge1" class="edge">
<title>EditModeDirective&#45;&gt;EditableModule</title>
<path fill="none" stroke="#000000" d="M416.4293,-122.0225C416.4293,-139.3734 416.4293,-163 416.4293,-163 416.4293,-163 314.2535,-163 314.2535,-163"/>
<polygon fill="#000000" stroke="#000000" points="314.2535,-159.5001 304.2535,-163 314.2534,-166.5001 314.2535,-159.5001"/>
</g>
<!-- EditableComponent -->
<g id="node2" class="node">
<title>EditableComponent</title>
<polygon fill="#ffffb3" stroke="#000000" points="314.986,-122 187.014,-122 187.014,-86 314.986,-86 314.986,-122"/>
<text text-anchor="middle" x="251" y="-99.8" font-family="Times,serif" font-size="14.00" fill="#000000">EditableComponent</text>
</g>
<!-- EditableComponent&#45;&gt;EditableModule -->
<g id="edge2" class="edge">
<title>EditableComponent&#45;&gt;EditableModule</title>
<path fill="none" stroke="#000000" d="M251,-122.1061C251,-122.1061 251,-140.991 251,-140.991"/>
<polygon fill="#000000" stroke="#000000" points="247.5001,-140.9909 251,-150.991 254.5001,-140.991 247.5001,-140.9909"/>
</g>
<!-- ViewModeDirective -->
<g id="node3" class="node">
<title>ViewModeDirective</title>
<polygon fill="#ffffb3" stroke="#000000" points="168.5604,-122 37.4396,-122 37.4396,-86 168.5604,-86 168.5604,-122"/>
<text text-anchor="middle" x="103" y="-99.8" font-family="Times,serif" font-size="14.00" fill="#000000">ViewModeDirective</text>
</g>
<!-- ViewModeDirective&#45;&gt;EditableModule -->
<g id="edge3" class="edge">
<title>ViewModeDirective&#45;&gt;EditableModule</title>
<path fill="none" stroke="#000000" d="M124.0101,-122.0225C124.0101,-139.3734 124.0101,-163 124.0101,-163 124.0101,-163 187.8806,-163 187.8806,-163"/>
<polygon fill="#000000" stroke="#000000" points="187.8807,-166.5001 197.8806,-163 187.8806,-159.5001 187.8807,-166.5001"/>
</g>
<!-- EditModeDirective  -->
<g id="node5" class="node">
<title>EditModeDirective </title>
<polygon fill="#fb8072" stroke="#000000" points="462.5765,-252 335.4235,-252 335.4235,-216 462.5765,-216 462.5765,-252"/>
<text text-anchor="middle" x="399" y="-229.8" font-family="Times,serif" font-size="14.00" fill="#000000">EditModeDirective </text>
</g>
<!-- EditableModule&#45;&gt;EditModeDirective  -->
<g id="edge4" class="edge">
<title>EditableModule&#45;&gt;EditModeDirective </title>
<path fill="none" stroke="#000000" stroke-dasharray="5,2" d="M304.2973,-175C338.2232,-175 375.8207,-175 375.8207,-175 375.8207,-175 375.8207,-205.9775 375.8207,-205.9775"/>
<polygon fill="#000000" stroke="#000000" points="372.3208,-205.9774 375.8207,-215.9775 379.3208,-205.9775 372.3208,-205.9774"/>
</g>
<!-- EditableComponent  -->
<g id="node6" class="node">
<title>EditableComponent </title>
<polygon fill="#fb8072" stroke="#000000" points="316.9869,-252 185.0131,-252 185.0131,-216 316.9869,-216 316.9869,-252"/>
<text text-anchor="middle" x="251" y="-229.8" font-family="Times,serif" font-size="14.00" fill="#000000">EditableComponent </text>
</g>
<!-- EditableModule&#45;&gt;EditableComponent  -->
<g id="edge5" class="edge">
<title>EditableModule&#45;&gt;EditableComponent </title>
<path fill="none" stroke="#000000" stroke-dasharray="5,2" d="M251,-187.1061C251,-187.1061 251,-205.991 251,-205.991"/>
<polygon fill="#000000" stroke="#000000" points="247.5001,-205.9909 251,-215.991 254.5001,-205.991 247.5001,-205.9909"/>
</g>
<!-- ViewModeDirective  -->
<g id="node7" class="node">
<title>ViewModeDirective </title>
<polygon fill="#fb8072" stroke="#000000" points="167.0611,-252 32.9389,-252 32.9389,-216 167.0611,-216 167.0611,-252"/>
<text text-anchor="middle" x="100" y="-229.8" font-family="Times,serif" font-size="14.00" fill="#000000">ViewModeDirective </text>
</g>
<!-- EditableModule&#45;&gt;ViewModeDirective  -->
<g id="edge6" class="edge">
<title>EditableModule&#45;&gt;ViewModeDirective </title>
<path fill="none" stroke="#000000" stroke-dasharray="5,2" d="M197.5958,-175C147.6641,-175 80.7399,-175 80.7399,-175 80.7399,-175 80.7399,-205.9775 80.7399,-205.9775"/>
<polygon fill="#000000" stroke="#000000" points="77.24,-205.9774 80.7399,-215.9775 84.24,-205.9775 77.24,-205.9774"/>
</g>
</g>
</svg>
