<?xml version="1.0" encoding="UTF-8" standalone="no"?>
<!DOCTYPE svg PUBLIC "-//W3C//DTD SVG 1.1//EN"
 "http://www.w3.org/Graphics/SVG/1.1/DTD/svg11.dtd">
<!-- Generated by graphviz version 2.40.1 (20161225.0304)
 -->
<!-- Title: dependencies Pages: 1 -->
<svg width="504pt" height="284pt"
 viewBox="0.00 0.00 504.00 284.00" xmlns="http://www.w3.org/2000/svg" xmlns:xlink="http://www.w3.org/1999/xlink">
<g id="graph0" class="graph" transform="scale(1 1) rotate(0) translate(4 280)">
<title>dependencies</title>
<polygon fill="#ffffff" stroke="transparent" points="-4,4 -4,-280 500,-280 500,4 -4,4"/>
<text text-anchor="start" x="227.0091" y="-42.4" font-family="sans-serif" font-weight="bold" font-size="14.00" fill="#000000">Legend</text>
<polygon fill="#ffffb3" stroke="transparent" points="14,-10 14,-30 34,-30 34,-10 14,-10"/>
<text text-anchor="start" x="37.629" y="-15.4" font-family="sans-serif" font-size="14.00" fill="#000000"> &#160;Declarations</text>
<polygon fill="#8dd3c7" stroke="transparent" points="127,-10 127,-30 147,-30 147,-10 127,-10"/>
<text text-anchor="start" x="150.7251" y="-15.4" font-family="sans-serif" font-size="14.00" fill="#000000"> &#160;Module</text>
<polygon fill="#80b1d3" stroke="transparent" points="213,-10 213,-30 233,-30 233,-10 213,-10"/>
<text text-anchor="start" x="236.7812" y="-15.4" font-family="sans-serif" font-size="14.00" fill="#000000"> &#160;Bootstrap</text>
<polygon fill="#fdb462" stroke="transparent" points="310,-10 310,-30 330,-30 330,-10 310,-10"/>
<text text-anchor="start" x="333.6732" y="-15.4" font-family="sans-serif" font-size="14.00" fill="#000000"> &#160;Providers</text>
<polygon fill="#fb8072" stroke="transparent" points="406,-10 406,-30 426,-30 426,-10 406,-10"/>
<text text-anchor="start" x="429.7258" y="-15.4" font-family="sans-serif" font-size="14.00" fill="#000000"> &#160;Exports</text>
<g id="clust1" class="cluster">
<title>cluster_MovieImdbSearchModule</title>
<polygon fill="none" stroke="#000000" stroke-dasharray="1,5" points="75,-70 75,-268 421,-268 421,-70 75,-70"/>
</g>
<g id="clust2" class="cluster">
<title>cluster_MovieImdbSearchModule_declarations</title>
<polygon fill="none" stroke="#000000" points="211,-78 211,-130 413,-130 413,-78 211,-78"/>
</g>
<g id="clust4" class="cluster">
<title>cluster_MovieImdbSearchModule_imports</title>
<polygon fill="none" stroke="#000000" points="83,-78 83,-130 203,-130 203,-78 83,-78"/>
</g>
<g id="clust5" class="cluster">
<title>cluster_MovieImdbSearchModule_exports</title>
<polygon fill="none" stroke="#000000" points="145,-208 145,-260 351,-260 351,-208 145,-208"/>
</g>
<!-- MovieImdbSearchComponent -->
<g id="node1" class="node">
<title>MovieImdbSearchComponent</title>
<polygon fill="#ffffb3" stroke="#000000" points="404.521,-122 219.479,-122 219.479,-86 404.521,-86 404.521,-122"/>
<text text-anchor="middle" x="312" y="-99.8" font-family="Times,serif" font-size="14.00" fill="#000000">MovieImdbSearchComponent</text>
</g>
<!-- MovieImdbSearchModule -->
<g id="node2" class="node">
<title>MovieImdbSearchModule</title>
<polygon fill="#8dd3c7" stroke="#000000" points="329.738,-187 326.738,-191 305.738,-191 302.738,-187 166.262,-187 166.262,-151 329.738,-151 329.738,-187"/>
<text text-anchor="middle" x="248" y="-164.8" font-family="Times,serif" font-size="14.00" fill="#000000">MovieImdbSearchModule</text>
</g>
<!-- MovieImdbSearchComponent&#45;&gt;MovieImdbSearchModule -->
<g id="edge1" class="edge">
<title>MovieImdbSearchComponent&#45;&gt;MovieImdbSearchModule</title>
<path fill="none" stroke="#000000" d="M274.5544,-122.1061C274.5544,-122.1061 274.5544,-140.991 274.5544,-140.991"/>
<polygon fill="#000000" stroke="#000000" points="271.0544,-140.9909 274.5544,-150.991 278.0544,-140.991 271.0544,-140.9909"/>
</g>
<!-- MovieImdbSearchComponent  -->
<g id="node4" class="node">
<title>MovieImdbSearchComponent </title>
<polygon fill="#fb8072" stroke="#000000" points="342.5204,-252 153.4796,-252 153.4796,-216 342.5204,-216 342.5204,-252"/>
<text text-anchor="middle" x="248" y="-229.8" font-family="Times,serif" font-size="14.00" fill="#000000">MovieImdbSearchComponent </text>
</g>
<!-- MovieImdbSearchModule&#45;&gt;MovieImdbSearchComponent  -->
<g id="edge3" class="edge">
<title>MovieImdbSearchModule&#45;&gt;MovieImdbSearchComponent </title>
<path fill="none" stroke="#000000" stroke-dasharray="5,2" d="M248,-187.1061C248,-187.1061 248,-205.991 248,-205.991"/>
<polygon fill="#000000" stroke="#000000" points="244.5001,-205.9909 248,-215.991 251.5001,-205.991 244.5001,-205.9909"/>
</g>
<!-- UiFormModule -->
<g id="node3" class="node">
<title>UiFormModule</title>
<polygon fill="#8dd3c7" stroke="#000000" points="194.8809,-122 191.8809,-126 170.8809,-126 167.8809,-122 91.1191,-122 91.1191,-86 194.8809,-86 194.8809,-122"/>
<text text-anchor="middle" x="143" y="-99.8" font-family="Times,serif" font-size="14.00" fill="#000000">UiFormModule</text>
</g>
<!-- UiFormModule&#45;&gt;MovieImdbSearchModule -->
<g id="edge2" class="edge">
<title>UiFormModule&#45;&gt;MovieImdbSearchModule</title>
<path fill="none" stroke="#000000" d="M180.5358,-122.1061C180.5358,-122.1061 180.5358,-140.991 180.5358,-140.991"/>
<polygon fill="#000000" stroke="#000000" points="177.0358,-140.9909 180.5358,-150.991 184.0358,-140.991 177.0358,-140.9909"/>
</g>
</g>
</svg>
