<?xml version="1.0" encoding="UTF-8" standalone="no"?>
<!DOCTYPE svg PUBLIC "-//W3C//DTD SVG 1.1//EN"
 "http://www.w3.org/Graphics/SVG/1.1/DTD/svg11.dtd">
<!-- Generated by graphviz version 2.40.1 (20161225.0304)
 -->
<!-- Title: dependencies Pages: 1 -->
<svg width="510pt" height="284pt"
 viewBox="0.00 0.00 510.00 284.00" xmlns="http://www.w3.org/2000/svg" xmlns:xlink="http://www.w3.org/1999/xlink">
<g id="graph0" class="graph" transform="scale(1 1) rotate(0) translate(4 280)">
<title>dependencies</title>
<polygon fill="#ffffff" stroke="transparent" points="-4,4 -4,-280 506,-280 506,4 -4,4"/>
<text text-anchor="start" x="230.0091" y="-42.4" font-family="sans-serif" font-weight="bold" font-size="14.00" fill="#000000">Legend</text>
<polygon fill="#ffffb3" stroke="transparent" points="17,-10 17,-30 37,-30 37,-10 17,-10"/>
<text text-anchor="start" x="40.629" y="-15.4" font-family="sans-serif" font-size="14.00" fill="#000000"> &#160;Declarations</text>
<polygon fill="#8dd3c7" stroke="transparent" points="130,-10 130,-30 150,-30 150,-10 130,-10"/>
<text text-anchor="start" x="153.7251" y="-15.4" font-family="sans-serif" font-size="14.00" fill="#000000"> &#160;Module</text>
<polygon fill="#80b1d3" stroke="transparent" points="216,-10 216,-30 236,-30 236,-10 216,-10"/>
<text text-anchor="start" x="239.7812" y="-15.4" font-family="sans-serif" font-size="14.00" fill="#000000"> &#160;Bootstrap</text>
<polygon fill="#fdb462" stroke="transparent" points="313,-10 313,-30 333,-30 333,-10 313,-10"/>
<text text-anchor="start" x="336.6732" y="-15.4" font-family="sans-serif" font-size="14.00" fill="#000000"> &#160;Providers</text>
<polygon fill="#fb8072" stroke="transparent" points="409,-10 409,-30 429,-30 429,-10 409,-10"/>
<text text-anchor="start" x="432.7258" y="-15.4" font-family="sans-serif" font-size="14.00" fill="#000000"> &#160;Exports</text>
<g id="clust1" class="cluster">
<title>cluster_ToolbarModule</title>
<polygon fill="none" stroke="#000000" stroke-dasharray="1,5" points="8,-70 8,-268 494,-268 494,-70 8,-70"/>
</g>
<g id="clust2" class="cluster">
<title>cluster_ToolbarModule_declarations</title>
<polygon fill="none" stroke="#000000" points="16,-78 16,-130 486,-130 486,-78 16,-78"/>
</g>
<g id="clust7" class="cluster">
<title>cluster_ToolbarModule_exports</title>
<polygon fill="none" stroke="#000000" points="90,-208 90,-260 390,-260 390,-208 90,-208"/>
</g>
<!-- ContextMenuComponent -->
<g id="node1" class="node">
<title>ContextMenuComponent</title>
<polygon fill="#ffffb3" stroke="#000000" points="478.3243,-122 319.6757,-122 319.6757,-86 478.3243,-86 478.3243,-122"/>
<text text-anchor="middle" x="399" y="-99.8" font-family="Times,serif" font-size="14.00" fill="#000000">ContextMenuComponent</text>
</g>
<!-- ToolbarModule -->
<g id="node4" class="node">
<title>ToolbarModule</title>
<polygon fill="#8dd3c7" stroke="#000000" points="292.8683,-187 289.8683,-191 268.8683,-191 265.8683,-187 189.1317,-187 189.1317,-151 292.8683,-151 292.8683,-187"/>
<text text-anchor="middle" x="241" y="-164.8" font-family="Times,serif" font-size="14.00" fill="#000000">ToolbarModule</text>
</g>
<!-- ContextMenuComponent&#45;&gt;ToolbarModule -->
<g id="edge1" class="edge">
<title>ContextMenuComponent&#45;&gt;ToolbarModule</title>
<path fill="none" stroke="#000000" d="M350.7299,-122.1061C350.7299,-141.3391 350.7299,-169 350.7299,-169 350.7299,-169 302.9728,-169 302.9728,-169"/>
<polygon fill="#000000" stroke="#000000" points="302.9729,-165.5001 292.9728,-169 302.9728,-172.5001 302.9729,-165.5001"/>
</g>
<!-- HeaderComponent -->
<g id="node2" class="node">
<title>HeaderComponent</title>
<polygon fill="#ffffb3" stroke="#000000" points="301.7437,-122 180.2563,-122 180.2563,-86 301.7437,-86 301.7437,-122"/>
<text text-anchor="middle" x="241" y="-99.8" font-family="Times,serif" font-size="14.00" fill="#000000">HeaderComponent</text>
</g>
<!-- HeaderComponent&#45;&gt;ToolbarModule -->
<g id="edge2" class="edge">
<title>HeaderComponent&#45;&gt;ToolbarModule</title>
<path fill="none" stroke="#000000" d="M241,-122.1061C241,-122.1061 241,-140.991 241,-140.991"/>
<polygon fill="#000000" stroke="#000000" points="237.5001,-140.9909 241,-150.991 244.5001,-140.991 237.5001,-140.9909"/>
</g>
<!-- LeftMenuComponent -->
<g id="node3" class="node">
<title>LeftMenuComponent</title>
<polygon fill="#ffffb3" stroke="#000000" points="161.8104,-122 24.1896,-122 24.1896,-86 161.8104,-86 161.8104,-122"/>
<text text-anchor="middle" x="93" y="-99.8" font-family="Times,serif" font-size="14.00" fill="#000000">LeftMenuComponent</text>
</g>
<!-- LeftMenuComponent&#45;&gt;ToolbarModule -->
<g id="edge3" class="edge">
<title>LeftMenuComponent&#45;&gt;ToolbarModule</title>
<path fill="none" stroke="#000000" d="M129.625,-122.1061C129.625,-141.3391 129.625,-169 129.625,-169 129.625,-169 178.8995,-169 178.8995,-169"/>
<polygon fill="#000000" stroke="#000000" points="178.8996,-172.5001 188.8995,-169 178.8995,-165.5001 178.8996,-172.5001"/>
</g>
<!-- HeaderComponent  -->
<g id="node5" class="node">
<title>HeaderComponent </title>
<polygon fill="#fb8072" stroke="#000000" points="381.7436,-252 256.2564,-252 256.2564,-216 381.7436,-216 381.7436,-252"/>
<text text-anchor="middle" x="319" y="-229.8" font-family="Times,serif" font-size="14.00" fill="#000000">HeaderComponent </text>
</g>
<!-- ToolbarModule&#45;&gt;HeaderComponent  -->
<g id="edge4" class="edge">
<title>ToolbarModule&#45;&gt;HeaderComponent </title>
<path fill="none" stroke="#000000" stroke-dasharray="5,2" d="M274.6562,-187.1061C274.6562,-187.1061 274.6562,-205.991 274.6562,-205.991"/>
<polygon fill="#000000" stroke="#000000" points="271.1563,-205.9909 274.6562,-215.991 278.1563,-205.991 271.1563,-205.9909"/>
</g>
<!-- LeftMenuComponent  -->
<g id="node6" class="node">
<title>LeftMenuComponent </title>
<polygon fill="#fb8072" stroke="#000000" points="238.3101,-252 97.6899,-252 97.6899,-216 238.3101,-216 238.3101,-252"/>
<text text-anchor="middle" x="168" y="-229.8" font-family="Times,serif" font-size="14.00" fill="#000000">LeftMenuComponent </text>
</g>
<!-- ToolbarModule&#45;&gt;LeftMenuComponent  -->
<g id="edge5" class="edge">
<title>ToolbarModule&#45;&gt;LeftMenuComponent </title>
<path fill="none" stroke="#000000" stroke-dasharray="5,2" d="M213.7355,-187.1061C213.7355,-187.1061 213.7355,-205.991 213.7355,-205.991"/>
<polygon fill="#000000" stroke="#000000" points="210.2355,-205.9909 213.7355,-215.991 217.2355,-205.991 210.2355,-205.9909"/>
</g>
</g>
</svg>
