<?xml version="1.0" encoding="UTF-8" standalone="no"?>
<!DOCTYPE svg PUBLIC "-//W3C//DTD SVG 1.1//EN"
 "http://www.w3.org/Graphics/SVG/1.1/DTD/svg11.dtd">
<!-- Generated by graphviz version 2.40.1 (20161225.0304)
 -->
<!-- Title: dependencies Pages: 1 -->
<svg width="530pt" height="349pt"
 viewBox="0.00 0.00 530.00 349.00" xmlns="http://www.w3.org/2000/svg" xmlns:xlink="http://www.w3.org/1999/xlink">
<g id="graph0" class="graph" transform="scale(1 1) rotate(0) translate(4 345)">
<title>dependencies</title>
<polygon fill="#ffffff" stroke="transparent" points="-4,4 -4,-345 526,-345 526,4 -4,4"/>
<text text-anchor="start" x="240.0091" y="-42.4" font-family="sans-serif" font-weight="bold" font-size="14.00" fill="#000000">Legend</text>
<polygon fill="#ffffb3" stroke="transparent" points="27,-10 27,-30 47,-30 47,-10 27,-10"/>
<text text-anchor="start" x="50.629" y="-15.4" font-family="sans-serif" font-size="14.00" fill="#000000"> &#160;Declarations</text>
<polygon fill="#8dd3c7" stroke="transparent" points="140,-10 140,-30 160,-30 160,-10 140,-10"/>
<text text-anchor="start" x="163.7251" y="-15.4" font-family="sans-serif" font-size="14.00" fill="#000000"> &#160;Module</text>
<polygon fill="#80b1d3" stroke="transparent" points="226,-10 226,-30 246,-30 246,-10 226,-10"/>
<text text-anchor="start" x="249.7812" y="-15.4" font-family="sans-serif" font-size="14.00" fill="#000000"> &#160;Bootstrap</text>
<polygon fill="#fdb462" stroke="transparent" points="323,-10 323,-30 343,-30 343,-10 323,-10"/>
<text text-anchor="start" x="346.6732" y="-15.4" font-family="sans-serif" font-size="14.00" fill="#000000"> &#160;Providers</text>
<polygon fill="#fb8072" stroke="transparent" points="419,-10 419,-30 439,-30 439,-10 419,-10"/>
<text text-anchor="start" x="442.7258" y="-15.4" font-family="sans-serif" font-size="14.00" fill="#000000"> &#160;Exports</text>
<g id="clust1" class="cluster">
<title>cluster_NotificationWidgetModule</title>
<polygon fill="none" stroke="#000000" stroke-dasharray="1,5" points="8,-70 8,-333 514,-333 514,-70 8,-70"/>
</g>
<g id="clust2" class="cluster">
<title>cluster_NotificationWidgetModule_declarations</title>
<polygon fill="none" stroke="#000000" points="300,-143 300,-195 506,-195 506,-143 300,-143"/>
</g>
<g id="clust3" class="cluster">
<title>cluster_NotificationWidgetModule_NotificationWidgetComponent_providers</title>
<polygon fill="none" stroke="#000000" points="177,-78 177,-130 495,-130 495,-78 177,-78"/>
</g>
<g id="clust4" class="cluster">
<title>cluster_NotificationWidgetModule_imports</title>
<polygon fill="none" stroke="#000000" points="16,-143 16,-195 292,-195 292,-143 16,-143"/>
</g>
<g id="clust5" class="cluster">
<title>cluster_NotificationWidgetModule_exports</title>
<polygon fill="none" stroke="#000000" points="122,-273 122,-325 332,-325 332,-273 122,-273"/>
</g>
<!-- NotificationWidgetComponent -->
<g id="node1" class="node">
<title>NotificationWidgetComponent</title>
<polygon fill="#ffffb3" stroke="#000000" points="498.1923,-187 307.8077,-187 307.8077,-151 498.1923,-151 498.1923,-187"/>
<text text-anchor="middle" x="403" y="-164.8" font-family="Times,serif" font-size="14.00" fill="#000000">NotificationWidgetComponent</text>
</g>
<!-- NotificationWidgetModule -->
<g id="node2" class="node">
<title>NotificationWidgetModule</title>
<polygon fill="#8dd3c7" stroke="#000000" points="311.4101,-252 308.4101,-256 287.4101,-256 284.4101,-252 142.5899,-252 142.5899,-216 311.4101,-216 311.4101,-252"/>
<text text-anchor="middle" x="227" y="-229.8" font-family="Times,serif" font-size="14.00" fill="#000000">NotificationWidgetModule</text>
</g>
<!-- NotificationWidgetComponent&#45;&gt;NotificationWidgetModule -->
<g id="edge1" class="edge">
<title>NotificationWidgetComponent&#45;&gt;NotificationWidgetModule</title>
<path fill="none" stroke="#000000" d="M317.5255,-187.1061C317.5255,-206.3391 317.5255,-234 317.5255,-234 317.5255,-234 316.9032,-234 316.9032,-234"/>
<polygon fill="#000000" stroke="#000000" points="321.3033,-230.5002 311.3033,-234 321.3032,-237.5002 321.3033,-230.5002"/>
</g>
<!-- NotificationWidgetComponent  -->
<g id="node7" class="node">
<title>NotificationWidgetComponent </title>
<polygon fill="#fb8072" stroke="#000000" points="323.6924,-317 130.3076,-317 130.3076,-281 323.6924,-281 323.6924,-317"/>
<text text-anchor="middle" x="227" y="-294.8" font-family="Times,serif" font-size="14.00" fill="#000000">NotificationWidgetComponent </text>
</g>
<!-- NotificationWidgetModule&#45;&gt;NotificationWidgetComponent  -->
<g id="edge6" class="edge">
<title>NotificationWidgetModule&#45;&gt;NotificationWidgetComponent </title>
<path fill="none" stroke="#000000" stroke-dasharray="5,2" d="M227,-252.1061C227,-252.1061 227,-270.991 227,-270.991"/>
<polygon fill="#000000" stroke="#000000" points="223.5001,-270.9909 227,-280.991 230.5001,-270.991 223.5001,-270.9909"/>
</g>
<!-- InvitationQuery -->
<g id="node3" class="node">
<title>InvitationQuery</title>
<ellipse fill="#fdb462" stroke="#000000" cx="414" cy="-104" rx="72.9334" ry="18"/>
<text text-anchor="middle" x="414" y="-99.8" font-family="Times,serif" font-size="14.00" fill="#000000">InvitationQuery</text>
</g>
<!-- InvitationQuery&#45;&gt;NotificationWidgetComponent -->
<g id="edge2" class="edge">
<title>InvitationQuery&#45;&gt;NotificationWidgetComponent</title>
<path fill="none" stroke="#000000" d="M414,-122.1061C414,-122.1061 414,-140.991 414,-140.991"/>
<polygon fill="#000000" stroke="#000000" points="410.5001,-140.9909 414,-150.991 417.5001,-140.991 410.5001,-140.9909"/>
</g>
<!-- InvitationStore -->
<g id="node4" class="node">
<title>InvitationStore</title>
<ellipse fill="#fdb462" stroke="#000000" cx="254" cy="-104" rx="68.9371" ry="18"/>
<text text-anchor="middle" x="254" y="-99.8" font-family="Times,serif" font-size="14.00" fill="#000000">InvitationStore</text>
</g>
<!-- InvitationStore&#45;&gt;NotificationWidgetComponent -->
<g id="edge3" class="edge">
<title>InvitationStore&#45;&gt;NotificationWidgetComponent</title>
<path fill="none" stroke="#000000" d="M315.4362,-112.2323C315.4362,-112.2323 315.4362,-140.7574 315.4362,-140.7574"/>
<polygon fill="#000000" stroke="#000000" points="311.9363,-140.7574 315.4362,-150.7574 318.9363,-140.7575 311.9363,-140.7574"/>
</g>
<!-- InvitationModule -->
<g id="node5" class="node">
<title>InvitationModule</title>
<polygon fill="#8dd3c7" stroke="#000000" points="283.9874,-187 280.9874,-191 259.9874,-191 256.9874,-187 170.0126,-187 170.0126,-151 283.9874,-151 283.9874,-187"/>
<text text-anchor="middle" x="227" y="-164.8" font-family="Times,serif" font-size="14.00" fill="#000000">InvitationModule</text>
</g>
<!-- InvitationModule&#45;&gt;NotificationWidgetModule -->
<g id="edge4" class="edge">
<title>InvitationModule&#45;&gt;NotificationWidgetModule</title>
<path fill="none" stroke="#000000" d="M227,-187.1061C227,-187.1061 227,-205.991 227,-205.991"/>
<polygon fill="#000000" stroke="#000000" points="223.5001,-205.9909 227,-215.991 230.5001,-205.991 223.5001,-205.9909"/>
</g>
<!-- NotificationModule -->
<g id="node6" class="node">
<title>NotificationModule</title>
<polygon fill="#8dd3c7" stroke="#000000" points="151.6994,-187 148.6994,-191 127.6994,-191 124.6994,-187 24.3006,-187 24.3006,-151 151.6994,-151 151.6994,-187"/>
<text text-anchor="middle" x="88" y="-164.8" font-family="Times,serif" font-size="14.00" fill="#000000">NotificationModule</text>
</g>
<!-- NotificationModule&#45;&gt;NotificationWidgetModule -->
<g id="edge5" class="edge">
<title>NotificationModule&#45;&gt;NotificationWidgetModule</title>
<path fill="none" stroke="#000000" d="M147.1974,-187.1061C147.1974,-187.1061 147.1974,-205.991 147.1974,-205.991"/>
<polygon fill="#000000" stroke="#000000" points="143.6975,-205.9909 147.1974,-215.991 150.6975,-205.991 143.6975,-205.9909"/>
</g>
</g>
</svg>
