<?xml version="1.0" encoding="UTF-8" standalone="no"?>
<!DOCTYPE svg PUBLIC "-//W3C//DTD SVG 1.1//EN"
 "http://www.w3.org/Graphics/SVG/1.1/DTD/svg11.dtd">
<!-- Generated by graphviz version 2.40.1 (20161225.0304)
 -->
<!-- Title: dependencies Pages: 1 -->
<svg width="1332pt" height="284pt"
 viewBox="0.00 0.00 1332.00 284.00" xmlns="http://www.w3.org/2000/svg" xmlns:xlink="http://www.w3.org/1999/xlink">
<g id="graph0" class="graph" transform="scale(1 1) rotate(0) translate(4 280)">
<title>dependencies</title>
<polygon fill="#ffffff" stroke="transparent" points="-4,4 -4,-280 1328,-280 1328,4 -4,4"/>
<text text-anchor="start" x="641.0091" y="-42.4" font-family="sans-serif" font-weight="bold" font-size="14.00" fill="#000000">Legend</text>
<polygon fill="#ffffb3" stroke="transparent" points="428,-10 428,-30 448,-30 448,-10 428,-10"/>
<text text-anchor="start" x="451.629" y="-15.4" font-family="sans-serif" font-size="14.00" fill="#000000"> &#160;Declarations</text>
<polygon fill="#8dd3c7" stroke="transparent" points="541,-10 541,-30 561,-30 561,-10 541,-10"/>
<text text-anchor="start" x="564.7251" y="-15.4" font-family="sans-serif" font-size="14.00" fill="#000000"> &#160;Module</text>
<polygon fill="#80b1d3" stroke="transparent" points="627,-10 627,-30 647,-30 647,-10 627,-10"/>
<text text-anchor="start" x="650.7812" y="-15.4" font-family="sans-serif" font-size="14.00" fill="#000000"> &#160;Bootstrap</text>
<polygon fill="#fdb462" stroke="transparent" points="724,-10 724,-30 744,-30 744,-10 724,-10"/>
<text text-anchor="start" x="747.6732" y="-15.4" font-family="sans-serif" font-size="14.00" fill="#000000"> &#160;Providers</text>
<polygon fill="#fb8072" stroke="transparent" points="820,-10 820,-30 840,-30 840,-10 820,-10"/>
<text text-anchor="start" x="843.7258" y="-15.4" font-family="sans-serif" font-size="14.00" fill="#000000"> &#160;Exports</text>
<g id="clust1" class="cluster">
<title>cluster_CatalogFormSelectionModule</title>
<polygon fill="none" stroke="#000000" stroke-dasharray="1,5" points="8,-70 8,-268 1316,-268 1316,-70 8,-70"/>
</g>
<g id="clust2" class="cluster">
<title>cluster_CatalogFormSelectionModule_declarations</title>
<polygon fill="none" stroke="#000000" points="1084,-78 1084,-130 1308,-130 1308,-78 1084,-78"/>
</g>
<g id="clust4" class="cluster">
<title>cluster_CatalogFormSelectionModule_imports</title>
<polygon fill="none" stroke="#000000" points="16,-78 16,-130 1076,-130 1076,-78 16,-78"/>
</g>
<g id="clust5" class="cluster">
<title>cluster_CatalogFormSelectionModule_exports</title>
<polygon fill="none" stroke="#000000" points="512,-208 512,-260 738,-260 738,-208 512,-208"/>
</g>
<!-- CatalogFormSelectionComponent -->
<g id="node1" class="node">
<title>CatalogFormSelectionComponent</title>
<polygon fill="#ffffb3" stroke="#000000" points="1299.8116,-122 1092.1884,-122 1092.1884,-86 1299.8116,-86 1299.8116,-122"/>
<text text-anchor="middle" x="1196" y="-99.8" font-family="Times,serif" font-size="14.00" fill="#000000">CatalogFormSelectionComponent</text>
</g>
<!-- CatalogFormSelectionModule -->
<g id="node2" class="node">
<title>CatalogFormSelectionModule</title>
<polygon fill="#8dd3c7" stroke="#000000" points="717.5294,-187 714.5294,-191 693.5294,-191 690.5294,-187 532.4706,-187 532.4706,-151 717.5294,-151 717.5294,-187"/>
<text text-anchor="middle" x="625" y="-164.8" font-family="Times,serif" font-size="14.00" fill="#000000">CatalogFormSelectionModule</text>
</g>
<!-- CatalogFormSelectionComponent&#45;&gt;CatalogFormSelectionModule -->
<g id="edge1" class="edge">
<title>CatalogFormSelectionComponent&#45;&gt;CatalogFormSelectionModule</title>
<path fill="none" stroke="#000000" d="M1196,-122.2921C1196,-144.2057 1196,-178 1196,-178 1196,-178 727.6935,-178 727.6935,-178"/>
<polygon fill="#000000" stroke="#000000" points="727.6936,-174.5001 717.6935,-178 727.6935,-181.5001 727.6936,-174.5001"/>
</g>
<!-- CatalogFormSelectionComponent  -->
<g id="node11" class="node">
<title>CatalogFormSelectionComponent </title>
<polygon fill="#fb8072" stroke="#000000" points="730.3115,-252 519.6885,-252 519.6885,-216 730.3115,-216 730.3115,-252"/>
<text text-anchor="middle" x="625" y="-229.8" font-family="Times,serif" font-size="14.00" fill="#000000">CatalogFormSelectionComponent </text>
</g>
<!-- CatalogFormSelectionModule&#45;&gt;CatalogFormSelectionComponent  -->
<g id="edge10" class="edge">
<title>CatalogFormSelectionModule&#45;&gt;CatalogFormSelectionComponent </title>
<path fill="none" stroke="#000000" stroke-dasharray="5,2" d="M625,-187.1061C625,-187.1061 625,-205.991 625,-205.991"/>
<polygon fill="#000000" stroke="#000000" points="621.5001,-205.9909 625,-215.991 628.5001,-205.991 621.5001,-205.9909"/>
</g>
<!-- CommonModule -->
<g id="node3" class="node">
<title>CommonModule</title>
<polygon fill="#8dd3c7" stroke="#000000" points="1067.6681,-122 1064.6681,-126 1043.6681,-126 1040.6681,-122 956.3319,-122 956.3319,-86 1067.6681,-86 1067.6681,-122"/>
<text text-anchor="middle" x="1012" y="-99.8" font-family="Times,serif" font-size="14.00" fill="#000000">CommonModule</text>
</g>
<!-- CommonModule&#45;&gt;CatalogFormSelectionModule -->
<g id="edge2" class="edge">
<title>CommonModule&#45;&gt;CatalogFormSelectionModule</title>
<path fill="none" stroke="#000000" d="M1012,-122.1061C1012,-141.3391 1012,-169 1012,-169 1012,-169 727.6961,-169 727.6961,-169"/>
<polygon fill="#000000" stroke="#000000" points="727.6962,-165.5001 717.6961,-169 727.6961,-172.5001 727.6962,-165.5001"/>
</g>
<!-- MatListModule -->
<g id="node4" class="node">
<title>MatListModule</title>
<polygon fill="#8dd3c7" stroke="#000000" points="937.8781,-122 934.8781,-126 913.8781,-126 910.8781,-122 834.1219,-122 834.1219,-86 937.8781,-86 937.8781,-122"/>
<text text-anchor="middle" x="886" y="-99.8" font-family="Times,serif" font-size="14.00" fill="#000000">MatListModule</text>
</g>
<!-- MatListModule&#45;&gt;CatalogFormSelectionModule -->
<g id="edge3" class="edge">
<title>MatListModule&#45;&gt;CatalogFormSelectionModule</title>
<path fill="none" stroke="#000000" d="M886,-122.027C886,-138.3976 886,-160 886,-160 886,-160 727.7537,-160 727.7537,-160"/>
<polygon fill="#000000" stroke="#000000" points="727.7538,-156.5001 717.7537,-160 727.7537,-163.5001 727.7538,-156.5001"/>
</g>
<!-- MatSelectModule -->
<g id="node5" class="node">
<title>MatSelectModule</title>
<polygon fill="#8dd3c7" stroke="#000000" points="816.3076,-122 813.3076,-126 792.3076,-126 789.3076,-122 699.6924,-122 699.6924,-86 816.3076,-86 816.3076,-122"/>
<text text-anchor="middle" x="758" y="-99.8" font-family="Times,serif" font-size="14.00" fill="#000000">MatSelectModule</text>
</g>
<!-- MatSelectModule&#45;&gt;CatalogFormSelectionModule -->
<g id="edge4" class="edge">
<title>MatSelectModule&#45;&gt;CatalogFormSelectionModule</title>
<path fill="none" stroke="#000000" d="M708.8054,-122.1061C708.8054,-122.1061 708.8054,-140.991 708.8054,-140.991"/>
<polygon fill="#000000" stroke="#000000" points="705.3055,-140.9909 708.8054,-150.991 712.3055,-140.991 705.3055,-140.9909"/>
</g>
<!-- MatTableModule -->
<g id="node6" class="node">
<title>MatTableModule</title>
<polygon fill="#8dd3c7" stroke="#000000" points="681.972,-122 678.972,-126 657.972,-126 654.972,-122 568.028,-122 568.028,-86 681.972,-86 681.972,-122"/>
<text text-anchor="middle" x="625" y="-99.8" font-family="Times,serif" font-size="14.00" fill="#000000">MatTableModule</text>
</g>
<!-- MatTableModule&#45;&gt;CatalogFormSelectionModule -->
<g id="edge5" class="edge">
<title>MatTableModule&#45;&gt;CatalogFormSelectionModule</title>
<path fill="none" stroke="#000000" d="M625,-122.1061C625,-122.1061 625,-140.991 625,-140.991"/>
<polygon fill="#000000" stroke="#000000" points="621.5001,-140.9909 625,-150.991 628.5001,-140.991 621.5001,-140.9909"/>
</g>
<!-- MatSortModule -->
<g id="node7" class="node">
<title>MatSortModule</title>
<polygon fill="#8dd3c7" stroke="#000000" points="549.9343,-122 546.9343,-126 525.9343,-126 522.9343,-122 444.0657,-122 444.0657,-86 549.9343,-86 549.9343,-122"/>
<text text-anchor="middle" x="497" y="-99.8" font-family="Times,serif" font-size="14.00" fill="#000000">MatSortModule</text>
</g>
<!-- MatSortModule&#45;&gt;CatalogFormSelectionModule -->
<g id="edge6" class="edge">
<title>MatSortModule&#45;&gt;CatalogFormSelectionModule</title>
<path fill="none" stroke="#000000" d="M540.9762,-122.1061C540.9762,-122.1061 540.9762,-140.991 540.9762,-140.991"/>
<polygon fill="#000000" stroke="#000000" points="537.4762,-140.9909 540.9762,-150.991 544.4762,-140.991 537.4762,-140.9909"/>
</g>
<!-- MatCheckboxModule -->
<g id="node8" class="node">
<title>MatCheckboxModule</title>
<polygon fill="#8dd3c7" stroke="#000000" points="426.3655,-122 423.3655,-126 402.3655,-126 399.3655,-122 287.6345,-122 287.6345,-86 426.3655,-86 426.3655,-122"/>
<text text-anchor="middle" x="357" y="-99.8" font-family="Times,serif" font-size="14.00" fill="#000000">MatCheckboxModule</text>
</g>
<!-- MatCheckboxModule&#45;&gt;CatalogFormSelectionModule -->
<g id="edge7" class="edge">
<title>MatCheckboxModule&#45;&gt;CatalogFormSelectionModule</title>
<path fill="none" stroke="#000000" d="M357,-122.027C357,-138.3976 357,-160 357,-160 357,-160 522.3943,-160 522.3943,-160"/>
<polygon fill="#000000" stroke="#000000" points="522.3944,-163.5001 532.3943,-160 522.3943,-156.5001 522.3944,-163.5001"/>
</g>
<!-- MatIconModule -->
<g id="node9" class="node">
<title>MatIconModule</title>
<polygon fill="#8dd3c7" stroke="#000000" points="269.4748,-122 266.4748,-126 245.4748,-126 242.4748,-122 162.5252,-122 162.5252,-86 269.4748,-86 269.4748,-122"/>
<text text-anchor="middle" x="216" y="-99.8" font-family="Times,serif" font-size="14.00" fill="#000000">MatIconModule</text>
</g>
<!-- MatIconModule&#45;&gt;CatalogFormSelectionModule -->
<g id="edge8" class="edge">
<title>MatIconModule&#45;&gt;CatalogFormSelectionModule</title>
<path fill="none" stroke="#000000" d="M216,-122.1061C216,-141.3391 216,-169 216,-169 216,-169 522.4471,-169 522.4471,-169"/>
<polygon fill="#000000" stroke="#000000" points="522.4472,-172.5001 532.4471,-169 522.4471,-165.5001 522.4472,-172.5001"/>
</g>
<!-- MatButtonModule -->
<g id="node10" class="node">
<title>MatButtonModule</title>
<polygon fill="#8dd3c7" stroke="#000000" points="144.2176,-122 141.2176,-126 120.2176,-126 117.2176,-122 23.7824,-122 23.7824,-86 144.2176,-86 144.2176,-122"/>
<text text-anchor="middle" x="84" y="-99.8" font-family="Times,serif" font-size="14.00" fill="#000000">MatButtonModule</text>
</g>
<!-- MatButtonModule&#45;&gt;CatalogFormSelectionModule -->
<g id="edge9" class="edge">
<title>MatButtonModule&#45;&gt;CatalogFormSelectionModule</title>
<path fill="none" stroke="#000000" d="M84,-122.2921C84,-144.2057 84,-178 84,-178 84,-178 522.3063,-178 522.3063,-178"/>
<polygon fill="#000000" stroke="#000000" points="522.3064,-181.5001 532.3063,-178 522.3063,-174.5001 522.3064,-181.5001"/>
</g>
</g>
</svg>
