<?xml version="1.0" encoding="UTF-8" standalone="no"?>
<!DOCTYPE svg PUBLIC "-//W3C//DTD SVG 1.1//EN"
 "http://www.w3.org/Graphics/SVG/1.1/DTD/svg11.dtd">
<!-- Generated by graphviz version 2.40.1 (20161225.0304)
 -->
<!-- Title: dependencies Pages: 1 -->
<svg width="1538pt" height="284pt"
 viewBox="0.00 0.00 1538.00 284.00" xmlns="http://www.w3.org/2000/svg" xmlns:xlink="http://www.w3.org/1999/xlink">
<g id="graph0" class="graph" transform="scale(1 1) rotate(0) translate(4 280)">
<title>dependencies</title>
<polygon fill="#ffffff" stroke="transparent" points="-4,4 -4,-280 1534,-280 1534,4 -4,4"/>
<text text-anchor="start" x="744.0091" y="-42.4" font-family="sans-serif" font-weight="bold" font-size="14.00" fill="#000000">Legend</text>
<polygon fill="#ffffb3" stroke="transparent" points="531,-10 531,-30 551,-30 551,-10 531,-10"/>
<text text-anchor="start" x="554.629" y="-15.4" font-family="sans-serif" font-size="14.00" fill="#000000"> &#160;Declarations</text>
<polygon fill="#8dd3c7" stroke="transparent" points="644,-10 644,-30 664,-30 664,-10 644,-10"/>
<text text-anchor="start" x="667.7251" y="-15.4" font-family="sans-serif" font-size="14.00" fill="#000000"> &#160;Module</text>
<polygon fill="#80b1d3" stroke="transparent" points="730,-10 730,-30 750,-30 750,-10 730,-10"/>
<text text-anchor="start" x="753.7812" y="-15.4" font-family="sans-serif" font-size="14.00" fill="#000000"> &#160;Bootstrap</text>
<polygon fill="#fdb462" stroke="transparent" points="827,-10 827,-30 847,-30 847,-10 827,-10"/>
<text text-anchor="start" x="850.6732" y="-15.4" font-family="sans-serif" font-size="14.00" fill="#000000"> &#160;Providers</text>
<polygon fill="#fb8072" stroke="transparent" points="923,-10 923,-30 943,-30 943,-10 923,-10"/>
<text text-anchor="start" x="946.7258" y="-15.4" font-family="sans-serif" font-size="14.00" fill="#000000"> &#160;Exports</text>
<g id="clust1" class="cluster">
<title>cluster_AuthModule</title>
<polygon fill="none" stroke="#000000" stroke-dasharray="1,5" points="8,-70 8,-268 1522,-268 1522,-70 8,-70"/>
</g>
<g id="clust2" class="cluster">
<title>cluster_AuthModule_declarations</title>
<polygon fill="none" stroke="#000000" points="324,-78 324,-130 1514,-130 1514,-78 324,-78"/>
</g>
<g id="clust10" class="cluster">
<title>cluster_AuthModule_imports</title>
<polygon fill="none" stroke="#000000" points="16,-78 16,-130 316,-130 316,-78 16,-78"/>
</g>
<g id="clust11" class="cluster">
<title>cluster_AuthModule_exports</title>
<polygon fill="none" stroke="#000000" points="674,-208 674,-260 844,-260 844,-208 674,-208"/>
</g>
<!-- EmailVerifyComponent -->
<g id="node1" class="node">
<title>EmailVerifyComponent</title>
<polygon fill="#ffffb3" stroke="#000000" points="1505.8047,-122 1354.1953,-122 1354.1953,-86 1505.8047,-86 1505.8047,-122"/>
<text text-anchor="middle" x="1430" y="-99.8" font-family="Times,serif" font-size="14.00" fill="#000000">EmailVerifyComponent</text>
</g>
<!-- AuthModule -->
<g id="node8" class="node">
<title>AuthModule</title>
<polygon fill="#8dd3c7" stroke="#000000" points="802.5482,-187 799.5482,-191 778.5482,-191 775.5482,-187 715.4518,-187 715.4518,-151 802.5482,-151 802.5482,-187"/>
<text text-anchor="middle" x="759" y="-164.8" font-family="Times,serif" font-size="14.00" fill="#000000">AuthModule</text>
</g>
<!-- EmailVerifyComponent&#45;&gt;AuthModule -->
<g id="edge1" class="edge">
<title>EmailVerifyComponent&#45;&gt;AuthModule</title>
<path fill="none" stroke="#000000" d="M1430,-122.0109C1430,-144.4852 1430,-180 1430,-180 1430,-180 812.7673,-180 812.7673,-180"/>
<polygon fill="#000000" stroke="#000000" points="812.7674,-176.5001 802.7673,-180 812.7673,-183.5001 812.7674,-176.5001"/>
</g>
<!-- IdentityComponent -->
<g id="node2" class="node">
<title>IdentityComponent</title>
<polygon fill="#ffffb3" stroke="#000000" points="1336.3795,-122 1211.6205,-122 1211.6205,-86 1336.3795,-86 1336.3795,-122"/>
<text text-anchor="middle" x="1274" y="-99.8" font-family="Times,serif" font-size="14.00" fill="#000000">IdentityComponent</text>
</g>
<!-- IdentityComponent&#45;&gt;AuthModule -->
<g id="edge2" class="edge">
<title>IdentityComponent&#45;&gt;AuthModule</title>
<path fill="none" stroke="#000000" d="M1274,-122.1289C1274,-142.5724 1274,-173 1274,-173 1274,-173 812.9086,-173 812.9086,-173"/>
<polygon fill="#000000" stroke="#000000" points="812.9086,-169.5001 802.9086,-173 812.9086,-176.5001 812.9086,-169.5001"/>
</g>
<!-- IdentityFeedbackComponent -->
<g id="node3" class="node">
<title>IdentityFeedbackComponent</title>
<polygon fill="#ffffb3" stroke="#000000" points="1193.021,-122 1014.979,-122 1014.979,-86 1193.021,-86 1193.021,-122"/>
<text text-anchor="middle" x="1104" y="-99.8" font-family="Times,serif" font-size="14.00" fill="#000000">IdentityFeedbackComponent</text>
</g>
<!-- IdentityFeedbackComponent&#45;&gt;AuthModule -->
<g id="edge3" class="edge">
<title>IdentityFeedbackComponent&#45;&gt;AuthModule</title>
<path fill="none" stroke="#000000" d="M1104,-122.2667C1104,-140.5552 1104,-166 1104,-166 1104,-166 812.6945,-166 812.6945,-166"/>
<polygon fill="#000000" stroke="#000000" points="812.6945,-162.5001 802.6945,-166 812.6945,-169.5001 812.6945,-162.5001"/>
</g>
<!-- LoginViewComponent -->
<g id="node4" class="node">
<title>LoginViewComponent</title>
<polygon fill="#ffffb3" stroke="#000000" points="996.594,-122 851.406,-122 851.406,-86 996.594,-86 996.594,-122"/>
<text text-anchor="middle" x="924" y="-99.8" font-family="Times,serif" font-size="14.00" fill="#000000">LoginViewComponent</text>
</g>
<!-- LoginViewComponent&#45;&gt;AuthModule -->
<g id="edge4" class="edge">
<title>LoginViewComponent&#45;&gt;AuthModule</title>
<path fill="none" stroke="#000000" d="M924,-122.0091C924,-138.0494 924,-159 924,-159 924,-159 812.7838,-159 812.7838,-159"/>
<polygon fill="#000000" stroke="#000000" points="812.7838,-155.5001 802.7838,-159 812.7837,-162.5001 812.7838,-155.5001"/>
</g>
<!-- SigninFormComponent -->
<g id="node5" class="node">
<title>SigninFormComponent</title>
<polygon fill="#ffffb3" stroke="#000000" points="833.2302,-122 684.7698,-122 684.7698,-86 833.2302,-86 833.2302,-122"/>
<text text-anchor="middle" x="759" y="-99.8" font-family="Times,serif" font-size="14.00" fill="#000000">SigninFormComponent</text>
</g>
<!-- SigninFormComponent&#45;&gt;AuthModule -->
<g id="edge5" class="edge">
<title>SigninFormComponent&#45;&gt;AuthModule</title>
<path fill="none" stroke="#000000" d="M759,-122.1061C759,-122.1061 759,-140.991 759,-140.991"/>
<polygon fill="#000000" stroke="#000000" points="755.5001,-140.9909 759,-150.991 762.5001,-140.991 755.5001,-140.9909"/>
</g>
<!-- SignupFormComponent -->
<g id="node6" class="node">
<title>SignupFormComponent</title>
<polygon fill="#ffffb3" stroke="#000000" points="666.8398,-122 515.1602,-122 515.1602,-86 666.8398,-86 666.8398,-122"/>
<text text-anchor="middle" x="591" y="-99.8" font-family="Times,serif" font-size="14.00" fill="#000000">SignupFormComponent</text>
</g>
<!-- SignupFormComponent&#45;&gt;AuthModule -->
<g id="edge6" class="edge">
<title>SignupFormComponent&#45;&gt;AuthModule</title>
<path fill="none" stroke="#000000" d="M591,-122.0091C591,-138.0494 591,-159 591,-159 591,-159 705.2985,-159 705.2985,-159"/>
<polygon fill="#000000" stroke="#000000" points="705.2986,-162.5001 715.2985,-159 705.2985,-155.5001 705.2986,-162.5001"/>
</g>
<!-- WelcomeViewComponent -->
<g id="node7" class="node">
<title>WelcomeViewComponent</title>
<polygon fill="#ffffb3" stroke="#000000" points="497.7907,-122 332.2093,-122 332.2093,-86 497.7907,-86 497.7907,-122"/>
<text text-anchor="middle" x="415" y="-99.8" font-family="Times,serif" font-size="14.00" fill="#000000">WelcomeViewComponent</text>
</g>
<!-- WelcomeViewComponent&#45;&gt;AuthModule -->
<g id="edge7" class="edge">
<title>WelcomeViewComponent&#45;&gt;AuthModule</title>
<path fill="none" stroke="#000000" d="M415,-122.2667C415,-140.5552 415,-166 415,-166 415,-166 705.4322,-166 705.4322,-166"/>
<polygon fill="#000000" stroke="#000000" points="705.4322,-169.5001 715.4322,-166 705.4321,-162.5001 705.4322,-169.5001"/>
</g>
<!-- EmailVerifyComponent  -->
<g id="node11" class="node">
<title>EmailVerifyComponent </title>
<polygon fill="#fb8072" stroke="#000000" points="836.3045,-252 681.6955,-252 681.6955,-216 836.3045,-216 836.3045,-252"/>
<text text-anchor="middle" x="759" y="-229.8" font-family="Times,serif" font-size="14.00" fill="#000000">EmailVerifyComponent </text>
</g>
<!-- AuthModule&#45;&gt;EmailVerifyComponent  -->
<g id="edge10" class="edge">
<title>AuthModule&#45;&gt;EmailVerifyComponent </title>
<path fill="none" stroke="#000000" stroke-dasharray="5,2" d="M759,-187.1061C759,-187.1061 759,-205.991 759,-205.991"/>
<polygon fill="#000000" stroke="#000000" points="755.5001,-205.9909 759,-215.991 762.5001,-205.991 755.5001,-205.9909"/>
</g>
<!-- FeedbackMessageModule -->
<g id="node9" class="node">
<title>FeedbackMessageModule</title>
<polygon fill="#8dd3c7" stroke="#000000" points="308.1685,-122 305.1685,-126 284.1685,-126 281.1685,-122 145.8315,-122 145.8315,-86 308.1685,-86 308.1685,-122"/>
<text text-anchor="middle" x="227" y="-99.8" font-family="Times,serif" font-size="14.00" fill="#000000">FeedbackMessageModule</text>
</g>
<!-- FeedbackMessageModule&#45;&gt;AuthModule -->
<g id="edge8" class="edge">
<title>FeedbackMessageModule&#45;&gt;AuthModule</title>
<path fill="none" stroke="#000000" d="M227,-122.1289C227,-142.5724 227,-173 227,-173 227,-173 705.0116,-173 705.0116,-173"/>
<polygon fill="#000000" stroke="#000000" points="705.0116,-176.5001 715.0116,-173 705.0116,-169.5001 705.0116,-176.5001"/>
</g>
<!-- UiFormModule -->
<g id="node10" class="node">
<title>UiFormModule</title>
<polygon fill="#8dd3c7" stroke="#000000" points="127.8809,-122 124.8809,-126 103.8809,-126 100.8809,-122 24.1191,-122 24.1191,-86 127.8809,-86 127.8809,-122"/>
<text text-anchor="middle" x="76" y="-99.8" font-family="Times,serif" font-size="14.00" fill="#000000">UiFormModule</text>
</g>
<!-- UiFormModule&#45;&gt;AuthModule -->
<g id="edge9" class="edge">
<title>UiFormModule&#45;&gt;AuthModule</title>
<path fill="none" stroke="#000000" d="M76,-122.0109C76,-144.4852 76,-180 76,-180 76,-180 705.2363,-180 705.2363,-180"/>
<polygon fill="#000000" stroke="#000000" points="705.2363,-183.5001 715.2363,-180 705.2362,-176.5001 705.2363,-183.5001"/>
</g>
</g>
</svg>
