<?xml version="1.0" encoding="UTF-8" standalone="no"?>
<!DOCTYPE svg PUBLIC "-//W3C//DTD SVG 1.1//EN"
 "http://www.w3.org/Graphics/SVG/1.1/DTD/svg11.dtd">
<!-- Generated by graphviz version 2.40.1 (20161225.0304)
 -->
<!-- Title: dependencies Pages: 1 -->
<svg width="3211pt" height="211pt"
 viewBox="0.00 0.00 3211.00 211.00" xmlns="http://www.w3.org/2000/svg" xmlns:xlink="http://www.w3.org/1999/xlink">
<g id="graph0" class="graph" transform="scale(1 1) rotate(0) translate(4 207)">
<title>dependencies</title>
<polygon fill="#ffffff" stroke="transparent" points="-4,4 -4,-207 3207,-207 3207,4 -4,4"/>
<text text-anchor="start" x="1580.5091" y="-42.4" font-family="sans-serif" font-weight="bold" font-size="14.00" fill="#000000">Legend</text>
<polygon fill="#ffffb3" stroke="transparent" points="1367.5,-10 1367.5,-30 1387.5,-30 1387.5,-10 1367.5,-10"/>
<text text-anchor="start" x="1391.129" y="-15.4" font-family="sans-serif" font-size="14.00" fill="#000000"> &#160;Declarations</text>
<polygon fill="#8dd3c7" stroke="transparent" points="1480.5,-10 1480.5,-30 1500.5,-30 1500.5,-10 1480.5,-10"/>
<text text-anchor="start" x="1504.2251" y="-15.4" font-family="sans-serif" font-size="14.00" fill="#000000"> &#160;Module</text>
<polygon fill="#80b1d3" stroke="transparent" points="1566.5,-10 1566.5,-30 1586.5,-30 1586.5,-10 1566.5,-10"/>
<text text-anchor="start" x="1590.2812" y="-15.4" font-family="sans-serif" font-size="14.00" fill="#000000"> &#160;Bootstrap</text>
<polygon fill="#fdb462" stroke="transparent" points="1663.5,-10 1663.5,-30 1683.5,-30 1683.5,-10 1663.5,-10"/>
<text text-anchor="start" x="1687.1732" y="-15.4" font-family="sans-serif" font-size="14.00" fill="#000000"> &#160;Providers</text>
<polygon fill="#fb8072" stroke="transparent" points="1759.5,-10 1759.5,-30 1779.5,-30 1779.5,-10 1759.5,-10"/>
<text text-anchor="start" x="1783.2258" y="-15.4" font-family="sans-serif" font-size="14.00" fill="#000000"> &#160;Exports</text>
<g id="clust1" class="cluster">
<title>cluster_DistributionRightCreateModule</title>
<polygon fill="none" stroke="#000000" stroke-dasharray="1,5" points="8,-70 8,-195 3195,-195 3195,-70 8,-70"/>
</g>
<g id="clust2" class="cluster">
<title>cluster_DistributionRightCreateModule_declarations</title>
<polygon fill="none" stroke="#000000" points="2955,-78 2955,-130 3187,-130 3187,-78 2955,-78"/>
</g>
<g id="clust4" class="cluster">
<title>cluster_DistributionRightCreateModule_imports</title>
<polygon fill="none" stroke="#000000" points="16,-78 16,-130 2947,-130 2947,-78 16,-78"/>
</g>
<!-- DistributionRightCreateComponent -->
<g id="node1" class="node">
<title>DistributionRightCreateComponent</title>
<polygon fill="#ffffb3" stroke="#000000" points="3179.1469,-122 2962.8531,-122 2962.8531,-86 3179.1469,-86 3179.1469,-122"/>
<text text-anchor="middle" x="3071" y="-99.8" font-family="Times,serif" font-size="14.00" fill="#000000">DistributionRightCreateComponent</text>
</g>
<!-- DistributionRightCreateModule -->
<g id="node2" class="node">
<title>DistributionRightCreateModule</title>
<polygon fill="#8dd3c7" stroke="#000000" points="1624.364,-187 1621.364,-191 1600.364,-191 1597.364,-187 1429.636,-187 1429.636,-151 1624.364,-151 1624.364,-187"/>
<text text-anchor="middle" x="1527" y="-164.8" font-family="Times,serif" font-size="14.00" fill="#000000">DistributionRightCreateModule</text>
</g>
<!-- DistributionRightCreateComponent&#45;&gt;DistributionRightCreateModule -->
<g id="edge1" class="edge">
<title>DistributionRightCreateComponent&#45;&gt;DistributionRightCreateModule</title>
<path fill="none" stroke="#000000" d="M3071,-122.1532C3071,-145.7566 3071,-184 3071,-184 3071,-184 1634.462,-184 1634.462,-184"/>
<polygon fill="#000000" stroke="#000000" points="1634.4621,-180.5001 1624.462,-184 1634.462,-187.5001 1634.4621,-180.5001"/>
</g>
<!-- CommonModule -->
<g id="node3" class="node">
<title>CommonModule</title>
<polygon fill="#8dd3c7" stroke="#000000" points="2938.6681,-122 2935.6681,-126 2914.6681,-126 2911.6681,-122 2827.3319,-122 2827.3319,-86 2938.6681,-86 2938.6681,-122"/>
<text text-anchor="middle" x="2883" y="-99.8" font-family="Times,serif" font-size="14.00" fill="#000000">CommonModule</text>
</g>
<!-- CommonModule&#45;&gt;DistributionRightCreateModule -->
<g id="edge2" class="edge">
<title>CommonModule&#45;&gt;DistributionRightCreateModule</title>
<path fill="none" stroke="#000000" d="M2883,-122.0109C2883,-144.4852 2883,-180 2883,-180 2883,-180 1634.5202,-180 1634.5202,-180"/>
<polygon fill="#000000" stroke="#000000" points="1634.5202,-176.5001 1624.5202,-180 1634.5201,-183.5001 1634.5202,-176.5001"/>
</g>
<!-- ReactiveFormsModule -->
<g id="node4" class="node">
<title>ReactiveFormsModule</title>
<polygon fill="#8dd3c7" stroke="#000000" points="2809.3047,-122 2806.3047,-126 2785.3047,-126 2782.3047,-122 2664.6953,-122 2664.6953,-86 2809.3047,-86 2809.3047,-122"/>
<text text-anchor="middle" x="2737" y="-99.8" font-family="Times,serif" font-size="14.00" fill="#000000">ReactiveFormsModule</text>
</g>
<!-- ReactiveFormsModule&#45;&gt;DistributionRightCreateModule -->
<g id="edge3" class="edge">
<title>ReactiveFormsModule&#45;&gt;DistributionRightCreateModule</title>
<path fill="none" stroke="#000000" d="M2737,-122.0449C2737,-143.6623 2737,-177 2737,-177 2737,-177 1634.4836,-177 1634.4836,-177"/>
<polygon fill="#000000" stroke="#000000" points="1634.4837,-173.5001 1624.4836,-177 1634.4836,-180.5001 1634.4837,-173.5001"/>
</g>
<!-- DatepickerModule -->
<g id="node5" class="node">
<title>DatepickerModule</title>
<polygon fill="#8dd3c7" stroke="#000000" points="2646.4566,-122 2643.4566,-126 2622.4566,-126 2619.4566,-122 2525.5434,-122 2525.5434,-86 2646.4566,-86 2646.4566,-122"/>
<text text-anchor="middle" x="2586" y="-99.8" font-family="Times,serif" font-size="14.00" fill="#000000">DatepickerModule</text>
</g>
<!-- DatepickerModule&#45;&gt;DistributionRightCreateModule -->
<g id="edge4" class="edge">
<title>DatepickerModule&#45;&gt;DistributionRightCreateModule</title>
<path fill="none" stroke="#000000" d="M2586,-122.1289C2586,-142.5724 2586,-173 2586,-173 2586,-173 1634.73,-173 1634.73,-173"/>
<polygon fill="#000000" stroke="#000000" points="1634.73,-169.5001 1624.73,-173 1634.7299,-176.5001 1634.73,-169.5001"/>
</g>
<!-- MonthCalendarModule -->
<g id="node6" class="node">
<title>MonthCalendarModule</title>
<polygon fill="#8dd3c7" stroke="#000000" points="2507.9172,-122 2504.9172,-126 2483.9172,-126 2480.9172,-122 2360.0828,-122 2360.0828,-86 2507.9172,-86 2507.9172,-122"/>
<text text-anchor="middle" x="2434" y="-99.8" font-family="Times,serif" font-size="14.00" fill="#000000">MonthCalendarModule</text>
</g>
<!-- MonthCalendarModule&#45;&gt;DistributionRightCreateModule -->
<g id="edge5" class="edge">
<title>MonthCalendarModule&#45;&gt;DistributionRightCreateModule</title>
<path fill="none" stroke="#000000" d="M2434,-122.1061C2434,-141.3391 2434,-169 2434,-169 2434,-169 1634.4954,-169 1634.4954,-169"/>
<polygon fill="#000000" stroke="#000000" points="1634.4954,-165.5001 1624.4954,-169 1634.4954,-172.5001 1634.4954,-165.5001"/>
</g>
<!-- FlexLayoutModule -->
<g id="node7" class="node">
<title>FlexLayoutModule</title>
<polygon fill="#8dd3c7" stroke="#000000" points="2342.0954,-122 2339.0954,-126 2318.0954,-126 2315.0954,-122 2217.9046,-122 2217.9046,-86 2342.0954,-86 2342.0954,-122"/>
<text text-anchor="middle" x="2280" y="-99.8" font-family="Times,serif" font-size="14.00" fill="#000000">FlexLayoutModule</text>
</g>
<!-- FlexLayoutModule&#45;&gt;DistributionRightCreateModule -->
<g id="edge6" class="edge">
<title>FlexLayoutModule&#45;&gt;DistributionRightCreateModule</title>
<path fill="none" stroke="#000000" d="M2280,-122.2667C2280,-140.5552 2280,-166 2280,-166 2280,-166 1634.6696,-166 1634.6696,-166"/>
<polygon fill="#000000" stroke="#000000" points="1634.6697,-162.5001 1624.6696,-166 1634.6696,-169.5001 1634.6697,-162.5001"/>
</g>
<!-- TranslateSlugModule -->
<g id="node8" class="node">
<title>TranslateSlugModule</title>
<polygon fill="#8dd3c7" stroke="#000000" points="2199.8061,-122 2196.8061,-126 2175.8061,-126 2172.8061,-122 2062.1939,-122 2062.1939,-86 2199.8061,-86 2199.8061,-122"/>
<text text-anchor="middle" x="2131" y="-99.8" font-family="Times,serif" font-size="14.00" fill="#000000">TranslateSlugModule</text>
</g>
<!-- TranslateSlugModule&#45;&gt;DistributionRightCreateModule -->
<g id="edge7" class="edge">
<title>TranslateSlugModule&#45;&gt;DistributionRightCreateModule</title>
<path fill="none" stroke="#000000" d="M2131,-122.0336C2131,-139.0597 2131,-162 2131,-162 2131,-162 1634.3785,-162 1634.3785,-162"/>
<polygon fill="#000000" stroke="#000000" points="1634.3785,-158.5001 1624.3785,-162 1634.3784,-165.5001 1634.3785,-158.5001"/>
</g>
<!-- MatInputModule -->
<g id="node9" class="node">
<title>MatInputModule</title>
<polygon fill="#8dd3c7" stroke="#000000" points="2044.6513,-122 2041.6513,-126 2020.6513,-126 2017.6513,-122 1933.3487,-122 1933.3487,-86 2044.6513,-86 2044.6513,-122"/>
<text text-anchor="middle" x="1989" y="-99.8" font-family="Times,serif" font-size="14.00" fill="#000000">MatInputModule</text>
</g>
<!-- MatInputModule&#45;&gt;DistributionRightCreateModule -->
<g id="edge8" class="edge">
<title>MatInputModule&#45;&gt;DistributionRightCreateModule</title>
<path fill="none" stroke="#000000" d="M1989,-122.0091C1989,-138.0494 1989,-159 1989,-159 1989,-159 1634.4138,-159 1634.4138,-159"/>
<polygon fill="#000000" stroke="#000000" points="1634.4138,-155.5001 1624.4138,-159 1634.4138,-162.5001 1634.4138,-155.5001"/>
</g>
<!-- MatButtonModule -->
<g id="node10" class="node">
<title>MatButtonModule</title>
<polygon fill="#8dd3c7" stroke="#000000" points="1915.2176,-122 1912.2176,-126 1891.2176,-126 1888.2176,-122 1794.7824,-122 1794.7824,-86 1915.2176,-86 1915.2176,-122"/>
<text text-anchor="middle" x="1855" y="-99.8" font-family="Times,serif" font-size="14.00" fill="#000000">MatButtonModule</text>
</g>
<!-- MatButtonModule&#45;&gt;DistributionRightCreateModule -->
<g id="edge9" class="edge">
<title>MatButtonModule&#45;&gt;DistributionRightCreateModule</title>
<path fill="none" stroke="#000000" d="M1855,-122.1243C1855,-136.7832 1855,-155 1855,-155 1855,-155 1634.5228,-155 1634.5228,-155"/>
<polygon fill="#000000" stroke="#000000" points="1634.5228,-151.5001 1624.5228,-155 1634.5227,-158.5001 1634.5228,-151.5001"/>
</g>
<!-- MatAutocompleteModule -->
<g id="node11" class="node">
<title>MatAutocompleteModule</title>
<polygon fill="#8dd3c7" stroke="#000000" points="1776.9129,-122 1773.9129,-126 1752.9129,-126 1749.9129,-122 1615.0871,-122 1615.0871,-86 1776.9129,-86 1776.9129,-122"/>
<text text-anchor="middle" x="1696" y="-99.8" font-family="Times,serif" font-size="14.00" fill="#000000">MatAutocompleteModule</text>
</g>
<!-- MatAutocompleteModule&#45;&gt;DistributionRightCreateModule -->
<g id="edge10" class="edge">
<title>MatAutocompleteModule&#45;&gt;DistributionRightCreateModule</title>
<path fill="none" stroke="#000000" d="M1619.8629,-122.1061C1619.8629,-122.1061 1619.8629,-140.991 1619.8629,-140.991"/>
<polygon fill="#000000" stroke="#000000" points="1616.363,-140.9909 1619.8629,-150.991 1623.363,-140.991 1616.363,-140.9909"/>
</g>
<!-- MatExpansionModule -->
<g id="node12" class="node">
<title>MatExpansionModule</title>
<polygon fill="#8dd3c7" stroke="#000000" points="1597.7021,-122 1594.7021,-126 1573.7021,-126 1570.7021,-122 1456.2979,-122 1456.2979,-86 1597.7021,-86 1597.7021,-122"/>
<text text-anchor="middle" x="1527" y="-99.8" font-family="Times,serif" font-size="14.00" fill="#000000">MatExpansionModule</text>
</g>
<!-- MatExpansionModule&#45;&gt;DistributionRightCreateModule -->
<g id="edge11" class="edge">
<title>MatExpansionModule&#45;&gt;DistributionRightCreateModule</title>
<path fill="none" stroke="#000000" d="M1527,-122.1061C1527,-122.1061 1527,-140.991 1527,-140.991"/>
<polygon fill="#000000" stroke="#000000" points="1523.5001,-140.9909 1527,-150.991 1530.5001,-140.991 1523.5001,-140.9909"/>
</g>
<!-- MatCardModule -->
<g id="node13" class="node">
<title>MatCardModule</title>
<polygon fill="#8dd3c7" stroke="#000000" points="1438.8118,-122 1435.8118,-126 1414.8118,-126 1411.8118,-122 1329.1882,-122 1329.1882,-86 1438.8118,-86 1438.8118,-122"/>
<text text-anchor="middle" x="1384" y="-99.8" font-family="Times,serif" font-size="14.00" fill="#000000">MatCardModule</text>
</g>
<!-- MatCardModule&#45;&gt;DistributionRightCreateModule -->
<g id="edge12" class="edge">
<title>MatCardModule&#45;&gt;DistributionRightCreateModule</title>
<path fill="none" stroke="#000000" d="M1434.1119,-122.1061C1434.1119,-122.1061 1434.1119,-140.991 1434.1119,-140.991"/>
<polygon fill="#000000" stroke="#000000" points="1430.6119,-140.9909 1434.1119,-150.991 1437.6119,-140.991 1430.6119,-140.9909"/>
</g>
<!-- MatSortModule -->
<g id="node14" class="node">
<title>MatSortModule</title>
<polygon fill="#8dd3c7" stroke="#000000" points="1311.9343,-122 1308.9343,-126 1287.9343,-126 1284.9343,-122 1206.0657,-122 1206.0657,-86 1311.9343,-86 1311.9343,-122"/>
<text text-anchor="middle" x="1259" y="-99.8" font-family="Times,serif" font-size="14.00" fill="#000000">MatSortModule</text>
</g>
<!-- MatSortModule&#45;&gt;DistributionRightCreateModule -->
<g id="edge13" class="edge">
<title>MatSortModule&#45;&gt;DistributionRightCreateModule</title>
<path fill="none" stroke="#000000" d="M1259,-122.1243C1259,-136.7832 1259,-155 1259,-155 1259,-155 1419.4877,-155 1419.4877,-155"/>
<polygon fill="#000000" stroke="#000000" points="1419.4878,-158.5001 1429.4877,-155 1419.4877,-151.5001 1419.4878,-158.5001"/>
</g>
<!-- MatChipsModule -->
<g id="node15" class="node">
<title>MatChipsModule</title>
<polygon fill="#8dd3c7" stroke="#000000" points="1188.2716,-122 1185.2716,-126 1164.2716,-126 1161.2716,-122 1073.7284,-122 1073.7284,-86 1188.2716,-86 1188.2716,-122"/>
<text text-anchor="middle" x="1131" y="-99.8" font-family="Times,serif" font-size="14.00" fill="#000000">MatChipsModule</text>
</g>
<!-- MatChipsModule&#45;&gt;DistributionRightCreateModule -->
<g id="edge14" class="edge">
<title>MatChipsModule&#45;&gt;DistributionRightCreateModule</title>
<path fill="none" stroke="#000000" d="M1131,-122.0091C1131,-138.0494 1131,-159 1131,-159 1131,-159 1419.6203,-159 1419.6203,-159"/>
<polygon fill="#000000" stroke="#000000" points="1419.6204,-162.5001 1429.6203,-159 1419.6203,-155.5001 1419.6204,-162.5001"/>
</g>
<!-- MatTableModule -->
<g id="node16" class="node">
<title>MatTableModule</title>
<polygon fill="#8dd3c7" stroke="#000000" points="1055.972,-122 1052.972,-126 1031.972,-126 1028.972,-122 942.028,-122 942.028,-86 1055.972,-86 1055.972,-122"/>
<text text-anchor="middle" x="999" y="-99.8" font-family="Times,serif" font-size="14.00" fill="#000000">MatTableModule</text>
</g>
<!-- MatTableModule&#45;&gt;DistributionRightCreateModule -->
<g id="edge15" class="edge">
<title>MatTableModule&#45;&gt;DistributionRightCreateModule</title>
<path fill="none" stroke="#000000" d="M999,-122.0336C999,-139.0597 999,-162 999,-162 999,-162 1419.5413,-162 1419.5413,-162"/>
<polygon fill="#000000" stroke="#000000" points="1419.5414,-165.5001 1429.5413,-162 1419.5413,-158.5001 1419.5414,-165.5001"/>
</g>
<!-- MatFormFieldModule -->
<g id="node17" class="node">
<title>MatFormFieldModule</title>
<polygon fill="#8dd3c7" stroke="#000000" points="923.712,-122 920.712,-126 899.712,-126 896.712,-122 782.288,-122 782.288,-86 923.712,-86 923.712,-122"/>
<text text-anchor="middle" x="853" y="-99.8" font-family="Times,serif" font-size="14.00" fill="#000000">MatFormFieldModule</text>
</g>
<!-- MatFormFieldModule&#45;&gt;DistributionRightCreateModule -->
<g id="edge16" class="edge">
<title>MatFormFieldModule&#45;&gt;DistributionRightCreateModule</title>
<path fill="none" stroke="#000000" d="M853,-122.2667C853,-140.5552 853,-166 853,-166 853,-166 1419.3548,-166 1419.3548,-166"/>
<polygon fill="#000000" stroke="#000000" points="1419.3548,-169.5001 1429.3548,-166 1419.3547,-162.5001 1419.3548,-169.5001"/>
</g>
<!-- MatListModule -->
<g id="node18" class="node">
<title>MatListModule</title>
<polygon fill="#8dd3c7" stroke="#000000" points="763.8781,-122 760.8781,-126 739.8781,-126 736.8781,-122 660.1219,-122 660.1219,-86 763.8781,-86 763.8781,-122"/>
<text text-anchor="middle" x="712" y="-99.8" font-family="Times,serif" font-size="14.00" fill="#000000">MatListModule</text>
</g>
<!-- MatListModule&#45;&gt;DistributionRightCreateModule -->
<g id="edge17" class="edge">
<title>MatListModule&#45;&gt;DistributionRightCreateModule</title>
<path fill="none" stroke="#000000" d="M712,-122.1061C712,-141.3391 712,-169 712,-169 712,-169 1419.5015,-169 1419.5015,-169"/>
<polygon fill="#000000" stroke="#000000" points="1419.5015,-172.5001 1429.5015,-169 1419.5014,-165.5001 1419.5015,-172.5001"/>
</g>
<!-- MatCheckboxModule -->
<g id="node19" class="node">
<title>MatCheckboxModule</title>
<polygon fill="#8dd3c7" stroke="#000000" points="642.3655,-122 639.3655,-126 618.3655,-126 615.3655,-122 503.6345,-122 503.6345,-86 642.3655,-86 642.3655,-122"/>
<text text-anchor="middle" x="573" y="-99.8" font-family="Times,serif" font-size="14.00" fill="#000000">MatCheckboxModule</text>
</g>
<!-- MatCheckboxModule&#45;&gt;DistributionRightCreateModule -->
<g id="edge18" class="edge">
<title>MatCheckboxModule&#45;&gt;DistributionRightCreateModule</title>
<path fill="none" stroke="#000000" d="M573,-122.1289C573,-142.5724 573,-173 573,-173 573,-173 1419.3886,-173 1419.3886,-173"/>
<polygon fill="#000000" stroke="#000000" points="1419.3886,-176.5001 1429.3886,-173 1419.3885,-169.5001 1419.3886,-176.5001"/>
</g>
<!-- MatIconModule -->
<g id="node20" class="node">
<title>MatIconModule</title>
<polygon fill="#8dd3c7" stroke="#000000" points="485.4748,-122 482.4748,-126 461.4748,-126 458.4748,-122 378.5252,-122 378.5252,-86 485.4748,-86 485.4748,-122"/>
<text text-anchor="middle" x="432" y="-99.8" font-family="Times,serif" font-size="14.00" fill="#000000">MatIconModule</text>
</g>
<!-- MatIconModule&#45;&gt;DistributionRightCreateModule -->
<g id="edge19" class="edge">
<title>MatIconModule&#45;&gt;DistributionRightCreateModule</title>
<path fill="none" stroke="#000000" d="M432,-122.0449C432,-143.6623 432,-177 432,-177 432,-177 1419.3447,-177 1419.3447,-177"/>
<polygon fill="#000000" stroke="#000000" points="1419.3448,-180.5001 1429.3447,-177 1419.3447,-173.5001 1419.3448,-180.5001"/>
</g>
<!-- MatSnackBarModule -->
<g id="node21" class="node">
<title>MatSnackBarModule</title>
<polygon fill="#8dd3c7" stroke="#000000" points="360.024,-122 357.024,-126 336.024,-126 333.024,-122 223.976,-122 223.976,-86 360.024,-86 360.024,-122"/>
<text text-anchor="middle" x="292" y="-99.8" font-family="Times,serif" font-size="14.00" fill="#000000">MatSnackBarModule</text>
</g>
<!-- MatSnackBarModule&#45;&gt;DistributionRightCreateModule -->
<g id="edge20" class="edge">
<title>MatSnackBarModule&#45;&gt;DistributionRightCreateModule</title>
<path fill="none" stroke="#000000" d="M292,-122.0109C292,-144.4852 292,-180 292,-180 292,-180 1419.5761,-180 1419.5761,-180"/>
<polygon fill="#000000" stroke="#000000" points="1419.5761,-183.5001 1429.5761,-180 1419.576,-176.5001 1419.5761,-183.5001"/>
</g>
<!-- RouterModule.forChild(args) -->
<g id="node22" class="node">
<title>RouterModule.forChild(args)</title>
<polygon fill="#8dd3c7" stroke="#000000" points="205.7323,-122 202.7323,-126 181.7323,-126 178.7323,-122 24.2677,-122 24.2677,-86 205.7323,-86 205.7323,-122"/>
<text text-anchor="middle" x="115" y="-99.8" font-family="Times,serif" font-size="14.00" fill="#000000">RouterModule.forChild(args)</text>
</g>
<!-- RouterModule.forChild(args)&#45;&gt;DistributionRightCreateModule -->
<g id="edge21" class="edge">
<title>RouterModule.forChild(args)&#45;&gt;DistributionRightCreateModule</title>
<path fill="none" stroke="#000000" d="M115,-122.1532C115,-145.7566 115,-184 115,-184 115,-184 1419.3904,-184 1419.3904,-184"/>
<polygon fill="#000000" stroke="#000000" points="1419.3905,-187.5001 1429.3904,-184 1419.3904,-180.5001 1419.3905,-187.5001"/>
</g>
</g>
</svg>
