<?xml version="1.0" encoding="UTF-8" standalone="no"?>
<!DOCTYPE svg PUBLIC "-//W3C//DTD SVG 1.1//EN"
 "http://www.w3.org/Graphics/SVG/1.1/DTD/svg11.dtd">
<!-- Generated by graphviz version 2.40.1 (20161225.0304)
 -->
<!-- Title: dependencies Pages: 1 -->
<svg width="737pt" height="211pt"
 viewBox="0.00 0.00 737.00 211.00" xmlns="http://www.w3.org/2000/svg" xmlns:xlink="http://www.w3.org/1999/xlink">
<g id="graph0" class="graph" transform="scale(1 1) rotate(0) translate(4 207)">
<title>dependencies</title>
<polygon fill="#ffffff" stroke="transparent" points="-4,4 -4,-207 733,-207 733,4 -4,4"/>
<text text-anchor="start" x="343.5091" y="-42.4" font-family="sans-serif" font-weight="bold" font-size="14.00" fill="#000000">Legend</text>
<polygon fill="#ffffb3" stroke="transparent" points="130.5,-10 130.5,-30 150.5,-30 150.5,-10 130.5,-10"/>
<text text-anchor="start" x="154.129" y="-15.4" font-family="sans-serif" font-size="14.00" fill="#000000"> &#160;Declarations</text>
<polygon fill="#8dd3c7" stroke="transparent" points="243.5,-10 243.5,-30 263.5,-30 263.5,-10 243.5,-10"/>
<text text-anchor="start" x="267.2251" y="-15.4" font-family="sans-serif" font-size="14.00" fill="#000000"> &#160;Module</text>
<polygon fill="#80b1d3" stroke="transparent" points="329.5,-10 329.5,-30 349.5,-30 349.5,-10 329.5,-10"/>
<text text-anchor="start" x="353.2812" y="-15.4" font-family="sans-serif" font-size="14.00" fill="#000000"> &#160;Bootstrap</text>
<polygon fill="#fdb462" stroke="transparent" points="426.5,-10 426.5,-30 446.5,-30 446.5,-10 426.5,-10"/>
<text text-anchor="start" x="450.1732" y="-15.4" font-family="sans-serif" font-size="14.00" fill="#000000"> &#160;Providers</text>
<polygon fill="#fb8072" stroke="transparent" points="522.5,-10 522.5,-30 542.5,-30 542.5,-10 522.5,-10"/>
<text text-anchor="start" x="546.2258" y="-15.4" font-family="sans-serif" font-size="14.00" fill="#000000"> &#160;Exports</text>
<g id="clust1" class="cluster">
<title>cluster_DistributionRightCreateModule</title>
<polygon fill="none" stroke="#000000" stroke-dasharray="1,5" points="8,-70 8,-195 721,-195 721,-70 8,-70"/>
</g>
<g id="clust2" class="cluster">
<title>cluster_DistributionRightCreateModule_declarations</title>
<polygon fill="none" stroke="#000000" points="481,-78 481,-130 713,-130 713,-78 481,-78"/>
</g>
<g id="clust4" class="cluster">
<title>cluster_DistributionRightCreateModule_imports</title>
<polygon fill="none" stroke="#000000" points="16,-78 16,-130 473,-130 473,-78 16,-78"/>
</g>
<!-- DistributionRightCreateComponent -->
<g id="node1" class="node">
<title>DistributionRightCreateComponent</title>
<polygon fill="#ffffb3" stroke="#000000" points="705.1469,-122 488.8531,-122 488.8531,-86 705.1469,-86 705.1469,-122"/>
<text text-anchor="middle" x="597" y="-99.8" font-family="Times,serif" font-size="14.00" fill="#000000">DistributionRightCreateComponent</text>
</g>
<!-- DistributionRightCreateModule -->
<g id="node2" class="node">
<title>DistributionRightCreateModule</title>
<polygon fill="#8dd3c7" stroke="#000000" points="426.364,-187 423.364,-191 402.364,-191 399.364,-187 231.636,-187 231.636,-151 426.364,-151 426.364,-187"/>
<text text-anchor="middle" x="329" y="-164.8" font-family="Times,serif" font-size="14.00" fill="#000000">DistributionRightCreateModule</text>
</g>
<!-- DistributionRightCreateComponent&#45;&gt;DistributionRightCreateModule -->
<g id="edge1" class="edge">
<title>DistributionRightCreateComponent&#45;&gt;DistributionRightCreateModule</title>
<path fill="none" stroke="#000000" d="M597,-122.1061C597,-141.3391 597,-169 597,-169 597,-169 436.5123,-169 436.5123,-169"/>
<polygon fill="#000000" stroke="#000000" points="436.5123,-165.5001 426.5123,-169 436.5122,-172.5001 436.5123,-165.5001"/>
</g>
<!-- DatepickerModule -->
<g id="node3" class="node">
<title>DatepickerModule</title>
<polygon fill="#8dd3c7" stroke="#000000" points="465.4566,-122 462.4566,-126 441.4566,-126 438.4566,-122 344.5434,-122 344.5434,-86 465.4566,-86 465.4566,-122"/>
<text text-anchor="middle" x="405" y="-99.8" font-family="Times,serif" font-size="14.00" fill="#000000">DatepickerModule</text>
</g>
<!-- DatepickerModule&#45;&gt;DistributionRightCreateModule -->
<g id="edge2" class="edge">
<title>DatepickerModule&#45;&gt;DistributionRightCreateModule</title>
<path fill="none" stroke="#000000" d="M385.4769,-122.1061C385.4769,-122.1061 385.4769,-140.991 385.4769,-140.991"/>
<polygon fill="#000000" stroke="#000000" points="381.9769,-140.9909 385.4769,-150.991 388.9769,-140.991 381.9769,-140.9909"/>
</g>
<!-- MonthCalendarModule -->
<g id="node4" class="node">
<title>MonthCalendarModule</title>
<polygon fill="#8dd3c7" stroke="#000000" points="326.9172,-122 323.9172,-126 302.9172,-126 299.9172,-122 179.0828,-122 179.0828,-86 326.9172,-86 326.9172,-122"/>
<text text-anchor="middle" x="253" y="-99.8" font-family="Times,serif" font-size="14.00" fill="#000000">MonthCalendarModule</text>
</g>
<!-- MonthCalendarModule&#45;&gt;DistributionRightCreateModule -->
<g id="edge3" class="edge">
<title>MonthCalendarModule&#45;&gt;DistributionRightCreateModule</title>
<path fill="none" stroke="#000000" d="M279.1382,-122.1061C279.1382,-122.1061 279.1382,-140.991 279.1382,-140.991"/>
<polygon fill="#000000" stroke="#000000" points="275.6382,-140.9909 279.1382,-150.991 282.6382,-140.991 275.6382,-140.9909"/>
</g>
<!-- TranslateSlugModule -->
<g id="node5" class="node">
<title>TranslateSlugModule</title>
<polygon fill="#8dd3c7" stroke="#000000" points="161.8061,-122 158.8061,-126 137.8061,-126 134.8061,-122 24.1939,-122 24.1939,-86 161.8061,-86 161.8061,-122"/>
<text text-anchor="middle" x="93" y="-99.8" font-family="Times,serif" font-size="14.00" fill="#000000">TranslateSlugModule</text>
</g>
<!-- TranslateSlugModule&#45;&gt;DistributionRightCreateModule -->
<g id="edge4" class="edge">
<title>TranslateSlugModule&#45;&gt;DistributionRightCreateModule</title>
<path fill="none" stroke="#000000" d="M93,-122.1061C93,-141.3391 93,-169 93,-169 93,-169 221.3062,-169 221.3062,-169"/>
<polygon fill="#000000" stroke="#000000" points="221.3062,-172.5001 231.3062,-169 221.3062,-165.5001 221.3062,-172.5001"/>
</g>
</g>
</svg>
