<?xml version="1.0" encoding="UTF-8" standalone="no"?>
<!DOCTYPE svg PUBLIC "-//W3C//DTD SVG 1.1//EN"
 "http://www.w3.org/Graphics/SVG/1.1/DTD/svg11.dtd">
<!-- Generated by graphviz version 2.40.1 (20161225.0304)
 -->
<!-- Title: dependencies Pages: 1 -->
<svg width="4358pt" height="284pt"
 viewBox="0.00 0.00 4358.00 284.00" xmlns="http://www.w3.org/2000/svg" xmlns:xlink="http://www.w3.org/1999/xlink">
<g id="graph0" class="graph" transform="scale(1 1) rotate(0) translate(4 280)">
<title>dependencies</title>
<polygon fill="#ffffff" stroke="transparent" points="-4,4 -4,-280 4354,-280 4354,4 -4,4"/>
<text text-anchor="start" x="2154.0091" y="-42.4" font-family="sans-serif" font-weight="bold" font-size="14.00" fill="#000000">Legend</text>
<polygon fill="#ffffb3" stroke="transparent" points="1941,-10 1941,-30 1961,-30 1961,-10 1941,-10"/>
<text text-anchor="start" x="1964.629" y="-15.4" font-family="sans-serif" font-size="14.00" fill="#000000"> &#160;Declarations</text>
<polygon fill="#8dd3c7" stroke="transparent" points="2054,-10 2054,-30 2074,-30 2074,-10 2054,-10"/>
<text text-anchor="start" x="2077.7251" y="-15.4" font-family="sans-serif" font-size="14.00" fill="#000000"> &#160;Module</text>
<polygon fill="#80b1d3" stroke="transparent" points="2140,-10 2140,-30 2160,-30 2160,-10 2140,-10"/>
<text text-anchor="start" x="2163.7812" y="-15.4" font-family="sans-serif" font-size="14.00" fill="#000000"> &#160;Bootstrap</text>
<polygon fill="#fdb462" stroke="transparent" points="2237,-10 2237,-30 2257,-30 2257,-10 2237,-10"/>
<text text-anchor="start" x="2260.6732" y="-15.4" font-family="sans-serif" font-size="14.00" fill="#000000"> &#160;Providers</text>
<polygon fill="#fb8072" stroke="transparent" points="2333,-10 2333,-30 2353,-30 2353,-10 2333,-10"/>
<text text-anchor="start" x="2356.7258" y="-15.4" font-family="sans-serif" font-size="14.00" fill="#000000"> &#160;Exports</text>
<g id="clust1" class="cluster">
<title>cluster_AppModule</title>
<polygon fill="none" stroke="#000000" stroke-dasharray="1,5" points="8,-70 8,-268 3747,-268 3747,-70 8,-70"/>
</g>
<g id="clust2" class="cluster">
<title>cluster_AppModule_declarations</title>
<polygon fill="none" stroke="#000000" points="16,-78 16,-130 276,-130 276,-78 16,-78"/>
</g>
<g id="clust5" class="cluster">
<title>cluster_AppModule_imports</title>
<polygon fill="none" stroke="#000000" points="284,-78 284,-130 3739,-130 3739,-78 284,-78"/>
</g>
<g id="clust7" class="cluster">
<title>cluster_AppModule_bootstrap</title>
<polygon fill="none" stroke="#000000" points="1992,-208 1992,-260 2116,-260 2116,-208 1992,-208"/>
</g>
<g id="clust9" class="cluster">
<title>cluster_DashboardHomeModule</title>
<polygon fill="none" stroke="#000000" stroke-dasharray="1,5" points="3755,-70 3755,-195 4342,-195 4342,-70 3755,-70"/>
</g>
<g id="clust10" class="cluster">
<title>cluster_DashboardHomeModule_declarations</title>
<polygon fill="none" stroke="#000000" points="4098,-78 4098,-130 4334,-130 4334,-78 4098,-78"/>
</g>
<g id="clust12" class="cluster">
<title>cluster_DashboardHomeModule_imports</title>
<polygon fill="none" stroke="#000000" points="3763,-78 3763,-130 4090,-130 4090,-78 3763,-78"/>
</g>
<!-- AppComponent -->
<g id="node1" class="node">
<title>AppComponent</title>
<polygon fill="#ffffb3" stroke="#000000" points="267.9399,-122 162.0601,-122 162.0601,-86 267.9399,-86 267.9399,-122"/>
<text text-anchor="middle" x="215" y="-99.8" font-family="Times,serif" font-size="14.00" fill="#000000">AppComponent</text>
</g>
<!-- AppModule -->
<g id="node3" class="node">
<title>AppModule</title>
<polygon fill="#8dd3c7" stroke="#000000" points="2095.6571,-187 2092.6571,-191 2071.6571,-191 2068.6571,-187 2012.3429,-187 2012.3429,-151 2095.6571,-151 2095.6571,-187"/>
<text text-anchor="middle" x="2054" y="-164.8" font-family="Times,serif" font-size="14.00" fill="#000000">AppModule</text>
</g>
<!-- AppComponent&#45;&gt;AppModule -->
<g id="edge1" class="edge">
<title>AppComponent&#45;&gt;AppModule</title>
<path fill="none" stroke="#000000" d="M215,-122.2479C215,-145.0179 215,-181 215,-181 215,-181 2002.1347,-181 2002.1347,-181"/>
<polygon fill="#000000" stroke="#000000" points="2002.1347,-184.5001 2012.1347,-181 2002.1346,-177.5001 2002.1347,-184.5001"/>
</g>
<!-- LayoutComponent -->
<g id="node2" class="node">
<title>LayoutComponent</title>
<polygon fill="#ffffb3" stroke="#000000" points="144.4902,-122 23.5098,-122 23.5098,-86 144.4902,-86 144.4902,-122"/>
<text text-anchor="middle" x="84" y="-99.8" font-family="Times,serif" font-size="14.00" fill="#000000">LayoutComponent</text>
</g>
<!-- LayoutComponent&#45;&gt;AppModule -->
<g id="edge2" class="edge">
<title>LayoutComponent&#45;&gt;AppModule</title>
<path fill="none" stroke="#000000" d="M84,-122.1532C84,-145.7566 84,-184 84,-184 84,-184 2001.9424,-184 2001.9424,-184"/>
<polygon fill="#000000" stroke="#000000" points="2001.9424,-187.5001 2011.9424,-184 2001.9423,-180.5001 2001.9424,-187.5001"/>
</g>
<!-- AppComponent  -->
<g id="node26" class="node">
<title>AppComponent </title>
<polygon fill="#80b1d3" stroke="#000000" points="2108.439,-252 1999.561,-252 1999.561,-216 2108.439,-216 2108.439,-252"/>
<text text-anchor="middle" x="2054" y="-229.8" font-family="Times,serif" font-size="14.00" fill="#000000">AppComponent </text>
</g>
<!-- AppModule&#45;&gt;AppComponent  -->
<g id="edge25" class="edge">
<title>AppModule&#45;&gt;AppComponent </title>
<path fill="none" stroke="#000000" stroke-dasharray="1,5" d="M2054,-187.1061C2054,-187.1061 2054,-205.991 2054,-205.991"/>
<polygon fill="#000000" stroke="#000000" points="2050.5001,-205.9909 2054,-215.991 2057.5001,-205.991 2050.5001,-205.9909"/>
</g>
<!-- BrowserModule -->
<g id="node4" class="node">
<title>BrowserModule</title>
<polygon fill="#8dd3c7" stroke="#000000" points="589.4734,-122 586.4734,-126 565.4734,-126 562.4734,-122 482.5266,-122 482.5266,-86 589.4734,-86 589.4734,-122"/>
<text text-anchor="middle" x="536" y="-99.8" font-family="Times,serif" font-size="14.00" fill="#000000">BrowserModule</text>
</g>
<!-- BrowserModule&#45;&gt;AppModule -->
<g id="edge3" class="edge">
<title>BrowserModule&#45;&gt;AppModule</title>
<path fill="none" stroke="#000000" d="M536,-122.2843C536,-143.3211 536,-175 536,-175 536,-175 2002.2136,-175 2002.2136,-175"/>
<polygon fill="#000000" stroke="#000000" points="2002.2137,-178.5001 2012.2136,-175 2002.2136,-171.5001 2002.2137,-178.5001"/>
</g>
<!-- BrowserAnimationsModule -->
<g id="node5" class="node">
<title>BrowserAnimationsModule</title>
<polygon fill="#8dd3c7" stroke="#000000" points="464.3019,-122 461.3019,-126 440.3019,-126 437.3019,-122 291.6981,-122 291.6981,-86 464.3019,-86 464.3019,-122"/>
<text text-anchor="middle" x="378" y="-99.8" font-family="Times,serif" font-size="14.00" fill="#000000">BrowserAnimationsModule</text>
</g>
<!-- BrowserAnimationsModule&#45;&gt;AppModule -->
<g id="edge4" class="edge">
<title>BrowserAnimationsModule&#45;&gt;AppModule</title>
<path fill="none" stroke="#000000" d="M378,-122.2921C378,-144.2057 378,-178 378,-178 378,-178 2002.1524,-178 2002.1524,-178"/>
<polygon fill="#000000" stroke="#000000" points="2002.1524,-181.5001 2012.1524,-178 2002.1524,-174.5001 2002.1524,-181.5001"/>
</g>
<!-- AppRoutingModule -->
<g id="node6" class="node">
<title>AppRoutingModule</title>
<polygon fill="#8dd3c7" stroke="#000000" points="3451.2744,-122 3448.2744,-126 3427.2744,-126 3424.2744,-122 3322.7256,-122 3322.7256,-86 3451.2744,-86 3451.2744,-122"/>
<text text-anchor="middle" x="3387" y="-99.8" font-family="Times,serif" font-size="14.00" fill="#000000">AppRoutingModule</text>
</g>
<!-- AppRoutingModule&#45;&gt;AppModule -->
<g id="edge5" class="edge">
<title>AppRoutingModule&#45;&gt;AppModule</title>
<path fill="none" stroke="#000000" d="M3387,-122.0109C3387,-144.4852 3387,-180 3387,-180 3387,-180 2105.725,-180 2105.725,-180"/>
<polygon fill="#000000" stroke="#000000" points="2105.725,-176.5001 2095.725,-180 2105.7249,-183.5001 2105.725,-176.5001"/>
</g>
<!-- FlexLayoutModule -->
<g id="node7" class="node">
<title>FlexLayoutModule</title>
<polygon fill="#8dd3c7" stroke="#000000" points="3731.0954,-122 3728.0954,-126 3707.0954,-126 3704.0954,-122 3606.9046,-122 3606.9046,-86 3731.0954,-86 3731.0954,-122"/>
<text text-anchor="middle" x="3669" y="-99.8" font-family="Times,serif" font-size="14.00" fill="#000000">FlexLayoutModule</text>
</g>
<!-- FlexLayoutModule&#45;&gt;AppModule -->
<g id="edge6" class="edge">
<title>FlexLayoutModule&#45;&gt;AppModule</title>
<path fill="none" stroke="#000000" d="M3648.3174,-122.3802C3648.3174,-146.2785 3648.3174,-185 3648.3174,-185 3648.3174,-185 2105.8246,-185 2105.8246,-185"/>
<polygon fill="#000000" stroke="#000000" points="2105.8247,-181.5001 2095.8246,-185 2105.8246,-188.5001 2105.8247,-181.5001"/>
</g>
<!-- DashboardHomeModule -->
<g id="node28" class="node">
<title>DashboardHomeModule</title>
<polygon fill="#8dd3c7" stroke="#000000" points="3939.4031,-187 3936.4031,-191 3915.4031,-191 3912.4031,-187 3784.5969,-187 3784.5969,-151 3939.4031,-151 3939.4031,-187"/>
<text text-anchor="middle" x="3862" y="-164.8" font-family="Times,serif" font-size="14.00" fill="#000000">DashboardHomeModule</text>
</g>
<!-- FlexLayoutModule&#45;&gt;DashboardHomeModule -->
<g id="edge29" class="edge">
<title>FlexLayoutModule&#45;&gt;DashboardHomeModule</title>
<path fill="none" stroke="#000000" d="M3689.6826,-122.0511C3689.6826,-136.373 3689.6826,-154 3689.6826,-154 3689.6826,-154 3774.6622,-154 3774.6622,-154"/>
<polygon fill="#000000" stroke="#000000" points="3774.6622,-157.5001 3784.6622,-154 3774.6621,-150.5001 3774.6622,-157.5001"/>
</g>
<!-- HttpClientModule -->
<g id="node8" class="node">
<title>HttpClientModule</title>
<polygon fill="#8dd3c7" stroke="#000000" points="3055.1611,-122 3052.1611,-126 3031.1611,-126 3028.1611,-122 2936.8389,-122 2936.8389,-86 3055.1611,-86 3055.1611,-122"/>
<text text-anchor="middle" x="2996" y="-99.8" font-family="Times,serif" font-size="14.00" fill="#000000">HttpClientModule</text>
</g>
<!-- HttpClientModule&#45;&gt;AppModule -->
<g id="edge7" class="edge">
<title>HttpClientModule&#45;&gt;AppModule</title>
<path fill="none" stroke="#000000" d="M2996,-122.2843C2996,-143.3211 2996,-175 2996,-175 2996,-175 2105.692,-175 2105.692,-175"/>
<polygon fill="#000000" stroke="#000000" points="2105.6921,-171.5001 2095.692,-175 2105.692,-178.5001 2105.6921,-171.5001"/>
</g>
<!-- MatSidenavModule -->
<g id="node9" class="node">
<title>MatSidenavModule</title>
<polygon fill="#8dd3c7" stroke="#000000" points="2918.7022,-122 2915.7022,-126 2894.7022,-126 2891.7022,-122 2791.2978,-122 2791.2978,-86 2918.7022,-86 2918.7022,-122"/>
<text text-anchor="middle" x="2855" y="-99.8" font-family="Times,serif" font-size="14.00" fill="#000000">MatSidenavModule</text>
</g>
<!-- MatSidenavModule&#45;&gt;AppModule -->
<g id="edge8" class="edge">
<title>MatSidenavModule&#45;&gt;AppModule</title>
<path fill="none" stroke="#000000" d="M2855,-122.2228C2855,-142.3652 2855,-172 2855,-172 2855,-172 2105.6576,-172 2105.6576,-172"/>
<polygon fill="#000000" stroke="#000000" points="2105.6576,-168.5001 2095.6576,-172 2105.6575,-175.5001 2105.6576,-168.5001"/>
</g>
<!-- MatIconModule -->
<g id="node10" class="node">
<title>MatIconModule</title>
<polygon fill="#8dd3c7" stroke="#000000" points="2773.4748,-122 2770.4748,-126 2749.4748,-126 2746.4748,-122 2666.5252,-122 2666.5252,-86 2773.4748,-86 2773.4748,-122"/>
<text text-anchor="middle" x="2720" y="-99.8" font-family="Times,serif" font-size="14.00" fill="#000000">MatIconModule</text>
</g>
<!-- MatIconModule&#45;&gt;AppModule -->
<g id="edge9" class="edge">
<title>MatIconModule&#45;&gt;AppModule</title>
<path fill="none" stroke="#000000" d="M2720,-122.1061C2720,-141.3391 2720,-169 2720,-169 2720,-169 2105.6613,-169 2105.6613,-169"/>
<polygon fill="#000000" stroke="#000000" points="2105.6613,-165.5001 2095.6613,-169 2105.6612,-172.5001 2105.6613,-165.5001"/>
</g>
<!-- MatButtonModule -->
<g id="node11" class="node">
<title>MatButtonModule</title>
<polygon fill="#8dd3c7" stroke="#000000" points="3589.2176,-122 3586.2176,-126 3565.2176,-126 3562.2176,-122 3468.7824,-122 3468.7824,-86 3589.2176,-86 3589.2176,-122"/>
<text text-anchor="middle" x="3529" y="-99.8" font-family="Times,serif" font-size="14.00" fill="#000000">MatButtonModule</text>
</g>
<!-- MatButtonModule&#45;&gt;AppModule -->
<g id="edge10" class="edge">
<title>MatButtonModule&#45;&gt;AppModule</title>
<path fill="none" stroke="#000000" d="M3508.9638,-122.0908C3508.9638,-145.1328 3508.9638,-182 3508.9638,-182 3508.9638,-182 2105.9751,-182 2105.9751,-182"/>
<polygon fill="#000000" stroke="#000000" points="2105.9752,-178.5001 2095.9751,-182 2105.9751,-185.5001 2105.9752,-178.5001"/>
</g>
<!-- MatButtonModule&#45;&gt;DashboardHomeModule -->
<g id="edge28" class="edge">
<title>MatButtonModule&#45;&gt;DashboardHomeModule</title>
<path fill="none" stroke="#000000" d="M3549.0362,-122.2396C3549.0362,-137.5706 3549.0362,-157 3549.0362,-157 3549.0362,-157 3774.6382,-157 3774.6382,-157"/>
<polygon fill="#000000" stroke="#000000" points="3774.6382,-160.5001 3784.6382,-157 3774.6381,-153.5001 3774.6382,-160.5001"/>
</g>
<!-- MatDividerModule -->
<g id="node12" class="node">
<title>MatDividerModule</title>
<polygon fill="#8dd3c7" stroke="#000000" points="2577.3627,-122 2574.3627,-126 2553.3627,-126 2550.3627,-122 2452.6373,-122 2452.6373,-86 2577.3627,-86 2577.3627,-122"/>
<text text-anchor="middle" x="2515" y="-99.8" font-family="Times,serif" font-size="14.00" fill="#000000">MatDividerModule</text>
</g>
<!-- MatDividerModule&#45;&gt;AppModule -->
<g id="edge11" class="edge">
<title>MatDividerModule&#45;&gt;AppModule</title>
<path fill="none" stroke="#000000" d="M2515,-122.002C2515,-139.6754 2515,-164 2515,-164 2515,-164 2105.7237,-164 2105.7237,-164"/>
<polygon fill="#000000" stroke="#000000" points="2105.7238,-160.5001 2095.7237,-164 2105.7237,-167.5001 2105.7238,-160.5001"/>
</g>
<!-- OrganizationModule -->
<g id="node13" class="node">
<title>OrganizationModule</title>
<polygon fill="#8dd3c7" stroke="#000000" points="2434.1331,-122 2431.1331,-126 2410.1331,-126 2407.1331,-122 2301.8669,-122 2301.8669,-86 2434.1331,-86 2434.1331,-122"/>
<text text-anchor="middle" x="2368" y="-99.8" font-family="Times,serif" font-size="14.00" fill="#000000">OrganizationModule</text>
</g>
<!-- OrganizationModule&#45;&gt;AppModule -->
<g id="edge12" class="edge">
<title>OrganizationModule&#45;&gt;AppModule</title>
<path fill="none" stroke="#000000" d="M2368,-122.0336C2368,-139.0597 2368,-162 2368,-162 2368,-162 2105.6968,-162 2105.6968,-162"/>
<polygon fill="#000000" stroke="#000000" points="2105.6968,-158.5001 2095.6968,-162 2105.6967,-165.5001 2105.6968,-158.5001"/>
</g>
<!-- ToolbarModule -->
<g id="node14" class="node">
<title>ToolbarModule</title>
<polygon fill="#8dd3c7" stroke="#000000" points="2283.8683,-122 2280.8683,-126 2259.8683,-126 2256.8683,-122 2180.1317,-122 2180.1317,-86 2283.8683,-86 2283.8683,-122"/>
<text text-anchor="middle" x="2232" y="-99.8" font-family="Times,serif" font-size="14.00" fill="#000000">ToolbarModule</text>
</g>
<!-- ToolbarModule&#45;&gt;AppModule -->
<g id="edge13" class="edge">
<title>ToolbarModule&#45;&gt;AppModule</title>
<path fill="none" stroke="#000000" d="M2232,-122.0091C2232,-138.0494 2232,-159 2232,-159 2232,-159 2105.7331,-159 2105.7331,-159"/>
<polygon fill="#000000" stroke="#000000" points="2105.7331,-155.5001 2095.7331,-159 2105.7331,-162.5001 2105.7331,-155.5001"/>
</g>
<!-- MovieModule -->
<g id="node15" class="node">
<title>MovieModule</title>
<polygon fill="#8dd3c7" stroke="#000000" points="2162.0997,-122 2159.0997,-126 2138.0997,-126 2135.0997,-122 2065.9003,-122 2065.9003,-86 2162.0997,-86 2162.0997,-122"/>
<text text-anchor="middle" x="2114" y="-99.8" font-family="Times,serif" font-size="14.00" fill="#000000">MovieModule</text>
</g>
<!-- MovieModule&#45;&gt;AppModule -->
<g id="edge14" class="edge">
<title>MovieModule&#45;&gt;AppModule</title>
<path fill="none" stroke="#000000" d="M2080.8892,-122.1061C2080.8892,-122.1061 2080.8892,-140.991 2080.8892,-140.991"/>
<polygon fill="#000000" stroke="#000000" points="2077.3893,-140.9909 2080.8892,-150.991 2084.3893,-140.991 2077.3893,-140.9909"/>
</g>
<!-- AccountModule -->
<g id="node16" class="node">
<title>AccountModule</title>
<polygon fill="#8dd3c7" stroke="#000000" points="2047.4762,-122 2044.4762,-126 2023.4762,-126 2020.4762,-122 1940.5238,-122 1940.5238,-86 2047.4762,-86 2047.4762,-122"/>
<text text-anchor="middle" x="1994" y="-99.8" font-family="Times,serif" font-size="14.00" fill="#000000">AccountModule</text>
</g>
<!-- AccountModule&#45;&gt;AppModule -->
<g id="edge15" class="edge">
<title>AccountModule&#45;&gt;AppModule</title>
<path fill="none" stroke="#000000" d="M2029.83,-122.1061C2029.83,-122.1061 2029.83,-140.991 2029.83,-140.991"/>
<polygon fill="#000000" stroke="#000000" points="2026.33,-140.9909 2029.83,-150.991 2033.33,-140.991 2026.33,-140.9909"/>
</g>
<!-- ProfileModule -->
<g id="node17" class="node">
<title>ProfileModule</title>
<polygon fill="#8dd3c7" stroke="#000000" points="1922.65,-122 1919.65,-126 1898.65,-126 1895.65,-122 1825.35,-122 1825.35,-86 1922.65,-86 1922.65,-122"/>
<text text-anchor="middle" x="1874" y="-99.8" font-family="Times,serif" font-size="14.00" fill="#000000">ProfileModule</text>
</g>
<!-- ProfileModule&#45;&gt;AppModule -->
<g id="edge16" class="edge">
<title>ProfileModule&#45;&gt;AppModule</title>
<path fill="none" stroke="#000000" d="M1874,-122.0511C1874,-136.373 1874,-154 1874,-154 1874,-154 2002.252,-154 2002.252,-154"/>
<polygon fill="#000000" stroke="#000000" points="2002.252,-157.5001 2012.252,-154 2002.2519,-150.5001 2002.252,-157.5001"/>
</g>
<!-- WalletModule -->
<g id="node18" class="node">
<title>WalletModule</title>
<polygon fill="#8dd3c7" stroke="#000000" points="1807.3655,-122 1804.3655,-126 1783.3655,-126 1780.3655,-122 1710.6345,-122 1710.6345,-86 1807.3655,-86 1807.3655,-122"/>
<text text-anchor="middle" x="1759" y="-99.8" font-family="Times,serif" font-size="14.00" fill="#000000">WalletModule</text>
</g>
<!-- WalletModule&#45;&gt;AppModule -->
<g id="edge17" class="edge">
<title>WalletModule&#45;&gt;AppModule</title>
<path fill="none" stroke="#000000" d="M1759,-122.2396C1759,-137.5706 1759,-157 1759,-157 1759,-157 2002.047,-157 2002.047,-157"/>
<polygon fill="#000000" stroke="#000000" points="2002.047,-160.5001 2012.047,-157 2002.0469,-153.5001 2002.047,-160.5001"/>
</g>
<!-- KeyManagerModule -->
<g id="node19" class="node">
<title>KeyManagerModule</title>
<polygon fill="#8dd3c7" stroke="#000000" points="1692.1205,-122 1689.1205,-126 1668.1205,-126 1665.1205,-122 1559.8795,-122 1559.8795,-86 1692.1205,-86 1692.1205,-122"/>
<text text-anchor="middle" x="1626" y="-99.8" font-family="Times,serif" font-size="14.00" fill="#000000">KeyManagerModule</text>
</g>
<!-- KeyManagerModule&#45;&gt;AppModule -->
<g id="edge18" class="edge">
<title>KeyManagerModule&#45;&gt;AppModule</title>
<path fill="none" stroke="#000000" d="M1626,-122.027C1626,-138.3976 1626,-160 1626,-160 1626,-160 2002.1823,-160 2002.1823,-160"/>
<polygon fill="#000000" stroke="#000000" points="2002.1823,-163.5001 2012.1823,-160 2002.1822,-156.5001 2002.1823,-163.5001"/>
</g>
<!-- NotificationWidgetModule -->
<g id="node20" class="node">
<title>NotificationWidgetModule</title>
<polygon fill="#8dd3c7" stroke="#000000" points="1541.4101,-122 1538.4101,-126 1517.4101,-126 1514.4101,-122 1372.5899,-122 1372.5899,-86 1541.4101,-86 1541.4101,-122"/>
<text text-anchor="middle" x="1457" y="-99.8" font-family="Times,serif" font-size="14.00" fill="#000000">NotificationWidgetModule</text>
</g>
<!-- NotificationWidgetModule&#45;&gt;AppModule -->
<g id="edge19" class="edge">
<title>NotificationWidgetModule&#45;&gt;AppModule</title>
<path fill="none" stroke="#000000" d="M1457,-122.0225C1457,-139.3734 1457,-163 1457,-163 1457,-163 2002.0201,-163 2002.0201,-163"/>
<polygon fill="#000000" stroke="#000000" points="2002.0202,-166.5001 2012.0201,-163 2002.0201,-159.5001 2002.0202,-166.5001"/>
</g>
<!-- AngularFireModule.initializeApp(args) -->
<g id="node21" class="node">
<title>AngularFireModule.initializeApp(args)</title>
<polygon fill="#8dd3c7" stroke="#000000" points="1354.7057,-122 1351.7057,-126 1330.7057,-126 1327.7057,-122 1117.2943,-122 1117.2943,-86 1354.7057,-86 1354.7057,-122"/>
<text text-anchor="middle" x="1236" y="-99.8" font-family="Times,serif" font-size="14.00" fill="#000000">AngularFireModule.initializeApp(args)</text>
</g>
<!-- AngularFireModule.initializeApp(args)&#45;&gt;AppModule -->
<g id="edge20" class="edge">
<title>AngularFireModule.initializeApp(args)&#45;&gt;AppModule</title>
<path fill="none" stroke="#000000" d="M1236,-122.2667C1236,-140.5552 1236,-166 1236,-166 1236,-166 2002.3107,-166 2002.3107,-166"/>
<polygon fill="#000000" stroke="#000000" points="2002.3107,-169.5001 2012.3107,-166 2002.3106,-162.5001 2002.3107,-169.5001"/>
</g>
<!-- AngularFirestoreModule.enablePersistence(args) -->
<g id="node22" class="node">
<title>AngularFirestoreModule.enablePersistence(args)</title>
<polygon fill="#8dd3c7" stroke="#000000" points="1099.3285,-122 1096.3285,-126 1075.3285,-126 1072.3285,-122 808.6715,-122 808.6715,-86 1099.3285,-86 1099.3285,-122"/>
<text text-anchor="middle" x="954" y="-99.8" font-family="Times,serif" font-size="14.00" fill="#000000">AngularFirestoreModule.enablePersistence(args)</text>
</g>
<!-- AngularFirestoreModule.enablePersistence(args)&#45;&gt;AppModule -->
<g id="edge21" class="edge">
<title>AngularFirestoreModule.enablePersistence(args)&#45;&gt;AppModule</title>
<path fill="none" stroke="#000000" d="M954,-122.1061C954,-141.3391 954,-169 954,-169 954,-169 2002.2219,-169 2002.2219,-169"/>
<polygon fill="#000000" stroke="#000000" points="2002.2219,-172.5001 2012.2219,-169 2002.2219,-165.5001 2002.2219,-172.5001"/>
</g>
<!-- AngularFireFunctionsModule -->
<g id="node23" class="node">
<title>AngularFireFunctionsModule</title>
<polygon fill="#8dd3c7" stroke="#000000" points="790.6937,-122 787.6937,-126 766.6937,-126 763.6937,-122 607.3063,-122 607.3063,-86 790.6937,-86 790.6937,-122"/>
<text text-anchor="middle" x="699" y="-99.8" font-family="Times,serif" font-size="14.00" fill="#000000">AngularFireFunctionsModule</text>
</g>
<!-- AngularFireFunctionsModule&#45;&gt;AppModule -->
<g id="edge22" class="edge">
<title>AngularFireFunctionsModule&#45;&gt;AppModule</title>
<path fill="none" stroke="#000000" d="M699,-122.2228C699,-142.3652 699,-172 699,-172 699,-172 2002.3355,-172 2002.3355,-172"/>
<polygon fill="#000000" stroke="#000000" points="2002.3355,-175.5001 2012.3355,-172 2002.3354,-168.5001 2002.3355,-175.5001"/>
</g>
<!-- AkitaNgRouterStoreModule.forRoot() -->
<g id="node24" class="node">
<title>AkitaNgRouterStoreModule.forRoot()</title>
<polygon fill="#8dd3c7" stroke="#000000" points="3304.7793,-122 3301.7793,-126 3280.7793,-126 3277.7793,-122 3073.2207,-122 3073.2207,-86 3304.7793,-86 3304.7793,-122"/>
<text text-anchor="middle" x="3189" y="-99.8" font-family="Times,serif" font-size="14.00" fill="#000000">AkitaNgRouterStoreModule.forRoot()</text>
</g>
<!-- AkitaNgRouterStoreModule.forRoot()&#45;&gt;AppModule -->
<g id="edge23" class="edge">
<title>AkitaNgRouterStoreModule.forRoot()&#45;&gt;AppModule</title>
<path fill="none" stroke="#000000" d="M3189,-122.0449C3189,-143.6623 3189,-177 3189,-177 3189,-177 2105.7413,-177 2105.7413,-177"/>
<polygon fill="#000000" stroke="#000000" points="2105.7414,-173.5001 2095.7413,-177 2105.7413,-180.5001 2105.7414,-173.5001"/>
</g>
<!-- { &#160;} -->
<g id="node25" class="node">
<title>{ &#160;}</title>
<polygon fill="#8dd3c7" stroke="#000000" points="2649,-122 2646,-126 2625,-126 2622,-122 2595,-122 2595,-86 2649,-86 2649,-122"/>
<text text-anchor="middle" x="2622" y="-99.8" font-family="Times,serif" font-size="14.00" fill="#000000">{ &#160;}</text>
</g>
<!-- { &#160;}&#45;&gt;AppModule -->
<g id="edge24" class="edge">
<title>{ &#160;}&#45;&gt;AppModule</title>
<path fill="none" stroke="#000000" d="M2622,-122.2222C2622,-140.8285 2622,-167 2622,-167 2622,-167 2105.7664,-167 2105.7664,-167"/>
<polygon fill="#000000" stroke="#000000" points="2105.7664,-163.5001 2095.7664,-167 2105.7664,-170.5001 2105.7664,-163.5001"/>
</g>
<!-- CatalogDashboardHomeComponent -->
<g id="node27" class="node">
<title>CatalogDashboardHomeComponent</title>
<polygon fill="#ffffb3" stroke="#000000" points="4325.7324,-122 4106.2676,-122 4106.2676,-86 4325.7324,-86 4325.7324,-122"/>
<text text-anchor="middle" x="4216" y="-99.8" font-family="Times,serif" font-size="14.00" fill="#000000">CatalogDashboardHomeComponent</text>
</g>
<!-- CatalogDashboardHomeComponent&#45;&gt;DashboardHomeModule -->
<g id="edge26" class="edge">
<title>CatalogDashboardHomeComponent&#45;&gt;DashboardHomeModule</title>
<path fill="none" stroke="#000000" d="M4216,-122.2843C4216,-143.3211 4216,-175 4216,-175 4216,-175 3949.2494,-175 3949.2494,-175"/>
<polygon fill="#000000" stroke="#000000" points="3949.2494,-171.5001 3939.2494,-175 3949.2493,-178.5001 3949.2494,-171.5001"/>
</g>
<!-- CommonModule -->
<g id="node29" class="node">
<title>CommonModule</title>
<polygon fill="#8dd3c7" stroke="#000000" points="4081.6681,-122 4078.6681,-126 4057.6681,-126 4054.6681,-122 3970.3319,-122 3970.3319,-86 4081.6681,-86 4081.6681,-122"/>
<text text-anchor="middle" x="4026" y="-99.8" font-family="Times,serif" font-size="14.00" fill="#000000">CommonModule</text>
</g>
<!-- CommonModule&#45;&gt;DashboardHomeModule -->
<g id="edge27" class="edge">
<title>CommonModule&#45;&gt;DashboardHomeModule</title>
<path fill="none" stroke="#000000" d="M4026,-122.0225C4026,-139.3734 4026,-163 4026,-163 4026,-163 3949.6776,-163 3949.6776,-163"/>
<polygon fill="#000000" stroke="#000000" points="3949.6776,-159.5001 3939.6776,-163 3949.6775,-166.5001 3949.6776,-159.5001"/>
</g>
<!-- RouterModule.forChild(args) -->
<g id="node30" class="node">
<title>RouterModule.forChild(args)</title>
<polygon fill="#8dd3c7" stroke="#000000" points="3952.7323,-122 3949.7323,-126 3928.7323,-126 3925.7323,-122 3771.2677,-122 3771.2677,-86 3952.7323,-86 3952.7323,-122"/>
<text text-anchor="middle" x="3862" y="-99.8" font-family="Times,serif" font-size="14.00" fill="#000000">RouterModule.forChild(args)</text>
</g>
<!-- RouterModule.forChild(args)&#45;&gt;DashboardHomeModule -->
<g id="edge30" class="edge">
<title>RouterModule.forChild(args)&#45;&gt;DashboardHomeModule</title>
<path fill="none" stroke="#000000" d="M3862,-122.1061C3862,-122.1061 3862,-140.991 3862,-140.991"/>
<polygon fill="#000000" stroke="#000000" points="3858.5001,-140.9909 3862,-150.991 3865.5001,-140.991 3858.5001,-140.9909"/>
</g>
</g>
</svg>
