<?xml version="1.0" encoding="UTF-8" standalone="no"?>
<!DOCTYPE svg PUBLIC "-//W3C//DTD SVG 1.1//EN"
 "http://www.w3.org/Graphics/SVG/1.1/DTD/svg11.dtd">
<!-- Generated by graphviz version 2.40.1 (20161225.0304)
 -->
<!-- Title: dependencies Pages: 1 -->
<svg width="6136pt" height="284pt"
 viewBox="0.00 0.00 6136.00 284.00" xmlns="http://www.w3.org/2000/svg" xmlns:xlink="http://www.w3.org/1999/xlink">
<g id="graph0" class="graph" transform="scale(1 1) rotate(0) translate(4 280)">
<title>dependencies</title>
<polygon fill="#ffffff" stroke="transparent" points="-4,4 -4,-280 6132,-280 6132,4 -4,4"/>
<text text-anchor="start" x="3043.0091" y="-42.4" font-family="sans-serif" font-weight="bold" font-size="14.00" fill="#000000">Legend</text>
<polygon fill="#ffffb3" stroke="transparent" points="2830,-10 2830,-30 2850,-30 2850,-10 2830,-10"/>
<text text-anchor="start" x="2853.629" y="-15.4" font-family="sans-serif" font-size="14.00" fill="#000000"> &#160;Declarations</text>
<polygon fill="#8dd3c7" stroke="transparent" points="2943,-10 2943,-30 2963,-30 2963,-10 2943,-10"/>
<text text-anchor="start" x="2966.7251" y="-15.4" font-family="sans-serif" font-size="14.00" fill="#000000"> &#160;Module</text>
<polygon fill="#80b1d3" stroke="transparent" points="3029,-10 3029,-30 3049,-30 3049,-10 3029,-10"/>
<text text-anchor="start" x="3052.7812" y="-15.4" font-family="sans-serif" font-size="14.00" fill="#000000"> &#160;Bootstrap</text>
<polygon fill="#fdb462" stroke="transparent" points="3126,-10 3126,-30 3146,-30 3146,-10 3126,-10"/>
<text text-anchor="start" x="3149.6732" y="-15.4" font-family="sans-serif" font-size="14.00" fill="#000000"> &#160;Providers</text>
<polygon fill="#fb8072" stroke="transparent" points="3222,-10 3222,-30 3242,-30 3242,-10 3222,-10"/>
<text text-anchor="start" x="3245.7258" y="-15.4" font-family="sans-serif" font-size="14.00" fill="#000000"> &#160;Exports</text>
<g id="clust1" class="cluster">
<title>cluster_AppModule</title>
<polygon fill="none" stroke="#000000" stroke-dasharray="1,5" points="8,-70 8,-268 6120,-268 6120,-70 8,-70"/>
</g>
<g id="clust2" class="cluster">
<title>cluster_AppModule_declarations</title>
<polygon fill="none" stroke="#000000" points="5852,-78 5852,-130 6112,-130 6112,-78 5852,-78"/>
</g>
<g id="clust5" class="cluster">
<title>cluster_AppModule_imports</title>
<polygon fill="none" stroke="#000000" points="16,-78 16,-130 5844,-130 5844,-78 16,-78"/>
</g>
<g id="clust7" class="cluster">
<title>cluster_AppModule_bootstrap</title>
<polygon fill="none" stroke="#000000" points="3170,-208 3170,-260 3294,-260 3294,-208 3170,-208"/>
</g>
<!-- AppComponent -->
<g id="node1" class="node">
<title>AppComponent</title>
<polygon fill="#ffffb3" stroke="#000000" points="6103.9399,-122 5998.0601,-122 5998.0601,-86 6103.9399,-86 6103.9399,-122"/>
<text text-anchor="middle" x="6051" y="-99.8" font-family="Times,serif" font-size="14.00" fill="#000000">AppComponent</text>
</g>
<!-- AppModule -->
<g id="node3" class="node">
<title>AppModule</title>
<polygon fill="#8dd3c7" stroke="#000000" points="3273.6571,-187 3270.6571,-191 3249.6571,-191 3246.6571,-187 3190.3429,-187 3190.3429,-151 3273.6571,-151 3273.6571,-187"/>
<text text-anchor="middle" x="3232" y="-164.8" font-family="Times,serif" font-size="14.00" fill="#000000">AppModule</text>
</g>
<!-- AppComponent&#45;&gt;AppModule -->
<g id="edge1" class="edge">
<title>AppComponent&#45;&gt;AppModule</title>
<path fill="none" stroke="#000000" d="M6051,-122.1985C6051,-146.3563 6051,-186 6051,-186 6051,-186 3283.761,-186 3283.761,-186"/>
<polygon fill="#000000" stroke="#000000" points="3283.761,-182.5001 3273.761,-186 3283.761,-189.5001 3283.761,-182.5001"/>
</g>
<!-- LayoutComponent -->
<g id="node2" class="node">
<title>LayoutComponent</title>
<polygon fill="#ffffb3" stroke="#000000" points="5980.4902,-122 5859.5098,-122 5859.5098,-86 5980.4902,-86 5980.4902,-122"/>
<text text-anchor="middle" x="5920" y="-99.8" font-family="Times,serif" font-size="14.00" fill="#000000">LayoutComponent</text>
</g>
<!-- LayoutComponent&#45;&gt;AppModule -->
<g id="edge2" class="edge">
<title>LayoutComponent&#45;&gt;AppModule</title>
<path fill="none" stroke="#000000" d="M5920,-122.1532C5920,-145.7566 5920,-184 5920,-184 5920,-184 3283.6826,-184 3283.6826,-184"/>
<polygon fill="#000000" stroke="#000000" points="3283.6826,-180.5001 3273.6826,-184 3283.6826,-187.5001 3283.6826,-180.5001"/>
</g>
<!-- AppComponent  -->
<g id="node43" class="node">
<title>AppComponent </title>
<polygon fill="#80b1d3" stroke="#000000" points="3286.439,-252 3177.561,-252 3177.561,-216 3286.439,-216 3286.439,-252"/>
<text text-anchor="middle" x="3232" y="-229.8" font-family="Times,serif" font-size="14.00" fill="#000000">AppComponent </text>
</g>
<!-- AppModule&#45;&gt;AppComponent  -->
<g id="edge42" class="edge">
<title>AppModule&#45;&gt;AppComponent </title>
<path fill="none" stroke="#000000" stroke-dasharray="1,5" d="M3232,-187.1061C3232,-187.1061 3232,-205.991 3232,-205.991"/>
<polygon fill="#000000" stroke="#000000" points="3228.5001,-205.9909 3232,-215.991 3235.5001,-205.991 3228.5001,-205.9909"/>
</g>
<!-- BrowserModule -->
<g id="node4" class="node">
<title>BrowserModule</title>
<polygon fill="#8dd3c7" stroke="#000000" points="5836.4734,-122 5833.4734,-126 5812.4734,-126 5809.4734,-122 5729.5266,-122 5729.5266,-86 5836.4734,-86 5836.4734,-122"/>
<text text-anchor="middle" x="5783" y="-99.8" font-family="Times,serif" font-size="14.00" fill="#000000">BrowserModule</text>
</g>
<!-- BrowserModule&#45;&gt;AppModule -->
<g id="edge3" class="edge">
<title>BrowserModule&#45;&gt;AppModule</title>
<path fill="none" stroke="#000000" d="M5783,-122.0908C5783,-145.1328 5783,-182 5783,-182 5783,-182 3283.8864,-182 3283.8864,-182"/>
<polygon fill="#000000" stroke="#000000" points="3283.8865,-178.5001 3273.8864,-182 3283.8864,-185.5001 3283.8865,-178.5001"/>
</g>
<!-- BrowserAnimationsModule -->
<g id="node5" class="node">
<title>BrowserAnimationsModule</title>
<polygon fill="#8dd3c7" stroke="#000000" points="5711.3019,-122 5708.3019,-126 5687.3019,-126 5684.3019,-122 5538.6981,-122 5538.6981,-86 5711.3019,-86 5711.3019,-122"/>
<text text-anchor="middle" x="5625" y="-99.8" font-family="Times,serif" font-size="14.00" fill="#000000">BrowserAnimationsModule</text>
</g>
<!-- BrowserAnimationsModule&#45;&gt;AppModule -->
<g id="edge4" class="edge">
<title>BrowserAnimationsModule&#45;&gt;AppModule</title>
<path fill="none" stroke="#000000" d="M5625,-122.2479C5625,-145.0179 5625,-181 5625,-181 5625,-181 3283.7878,-181 3283.7878,-181"/>
<polygon fill="#000000" stroke="#000000" points="3283.7879,-177.5001 3273.7878,-181 3283.7878,-184.5001 3283.7879,-177.5001"/>
</g>
<!-- AppRoutingModule -->
<g id="node6" class="node">
<title>AppRoutingModule</title>
<polygon fill="#8dd3c7" stroke="#000000" points="5520.2744,-122 5517.2744,-126 5496.2744,-126 5493.2744,-122 5391.7256,-122 5391.7256,-86 5520.2744,-86 5520.2744,-122"/>
<text text-anchor="middle" x="5456" y="-99.8" font-family="Times,serif" font-size="14.00" fill="#000000">AppRoutingModule</text>
</g>
<!-- AppRoutingModule&#45;&gt;AppModule -->
<g id="edge5" class="edge">
<title>AppRoutingModule&#45;&gt;AppModule</title>
<path fill="none" stroke="#000000" d="M5456,-122.1554C5456,-144.3519 5456,-179 5456,-179 5456,-179 3283.9521,-179 3283.9521,-179"/>
<polygon fill="#000000" stroke="#000000" points="3283.9522,-175.5001 3273.9521,-179 3283.9521,-182.5001 3283.9522,-175.5001"/>
</g>
<!-- FlexLayoutModule -->
<g id="node7" class="node">
<title>FlexLayoutModule</title>
<polygon fill="#8dd3c7" stroke="#000000" points="5374.0954,-122 5371.0954,-126 5350.0954,-126 5347.0954,-122 5249.9046,-122 5249.9046,-86 5374.0954,-86 5374.0954,-122"/>
<text text-anchor="middle" x="5312" y="-99.8" font-family="Times,serif" font-size="14.00" fill="#000000">FlexLayoutModule</text>
</g>
<!-- FlexLayoutModule&#45;&gt;AppModule -->
<g id="edge6" class="edge">
<title>FlexLayoutModule&#45;&gt;AppModule</title>
<path fill="none" stroke="#000000" d="M5312,-122.0449C5312,-143.6623 5312,-177 5312,-177 5312,-177 3284.0188,-177 3284.0188,-177"/>
<polygon fill="#000000" stroke="#000000" points="3284.0189,-173.5001 3274.0188,-177 3284.0188,-180.5001 3284.0189,-173.5001"/>
</g>
<!-- HttpClientModule -->
<g id="node8" class="node">
<title>HttpClientModule</title>
<polygon fill="#8dd3c7" stroke="#000000" points="5232.1611,-122 5229.1611,-126 5208.1611,-126 5205.1611,-122 5113.8389,-122 5113.8389,-86 5232.1611,-86 5232.1611,-122"/>
<text text-anchor="middle" x="5173" y="-99.8" font-family="Times,serif" font-size="14.00" fill="#000000">HttpClientModule</text>
</g>
<!-- HttpClientModule&#45;&gt;AppModule -->
<g id="edge7" class="edge">
<title>HttpClientModule&#45;&gt;AppModule</title>
<path fill="none" stroke="#000000" d="M5173,-122.2843C5173,-143.3211 5173,-175 5173,-175 5173,-175 3283.8909,-175 3283.8909,-175"/>
<polygon fill="#000000" stroke="#000000" points="3283.891,-171.5001 3273.8909,-175 3283.8909,-178.5001 3283.891,-171.5001"/>
</g>
<!-- MatSnackBarModule -->
<g id="node9" class="node">
<title>MatSnackBarModule</title>
<polygon fill="#8dd3c7" stroke="#000000" points="5095.024,-122 5092.024,-126 5071.024,-126 5068.024,-122 4958.976,-122 4958.976,-86 5095.024,-86 5095.024,-122"/>
<text text-anchor="middle" x="5027" y="-99.8" font-family="Times,serif" font-size="14.00" fill="#000000">MatSnackBarModule</text>
</g>
<!-- MatSnackBarModule&#45;&gt;AppModule -->
<g id="edge8" class="edge">
<title>MatSnackBarModule&#45;&gt;AppModule</title>
<path fill="none" stroke="#000000" d="M5027,-122.0267C5027,-142.7672 5027,-174 5027,-174 5027,-174 3283.7279,-174 3283.7279,-174"/>
<polygon fill="#000000" stroke="#000000" points="3283.728,-170.5001 3273.7279,-174 3283.7279,-177.5001 3283.728,-170.5001"/>
</g>
<!-- MatCardModule -->
<g id="node10" class="node">
<title>MatCardModule</title>
<polygon fill="#8dd3c7" stroke="#000000" points="4940.8118,-122 4937.8118,-126 4916.8118,-126 4913.8118,-122 4831.1882,-122 4831.1882,-86 4940.8118,-86 4940.8118,-122"/>
<text text-anchor="middle" x="4886" y="-99.8" font-family="Times,serif" font-size="14.00" fill="#000000">MatCardModule</text>
</g>
<!-- MatCardModule&#45;&gt;AppModule -->
<g id="edge9" class="edge">
<title>MatCardModule&#45;&gt;AppModule</title>
<path fill="none" stroke="#000000" d="M4886,-122.2228C4886,-142.3652 4886,-172 4886,-172 4886,-172 3283.7129,-172 3283.7129,-172"/>
<polygon fill="#000000" stroke="#000000" points="3283.7129,-168.5001 3273.7129,-172 3283.7128,-175.5001 3283.7129,-168.5001"/>
</g>
<!-- MatToolbarModule -->
<g id="node11" class="node">
<title>MatToolbarModule</title>
<polygon fill="#8dd3c7" stroke="#000000" points="4813.4187,-122 4810.4187,-126 4789.4187,-126 4786.4187,-122 4686.5813,-122 4686.5813,-86 4813.4187,-86 4813.4187,-122"/>
<text text-anchor="middle" x="4750" y="-99.8" font-family="Times,serif" font-size="14.00" fill="#000000">MatToolbarModule</text>
</g>
<!-- MatToolbarModule&#45;&gt;AppModule -->
<g id="edge10" class="edge">
<title>MatToolbarModule&#45;&gt;AppModule</title>
<path fill="none" stroke="#000000" d="M4750,-122.0348C4750,-141.5762 4750,-170 4750,-170 4750,-170 3283.7864,-170 3283.7864,-170"/>
<polygon fill="#000000" stroke="#000000" points="3283.7864,-166.5001 3273.7864,-170 3283.7863,-173.5001 3283.7864,-166.5001"/>
</g>
<!-- MatSidenavModule -->
<g id="node12" class="node">
<title>MatSidenavModule</title>
<polygon fill="#8dd3c7" stroke="#000000" points="4668.7022,-122 4665.7022,-126 4644.7022,-126 4641.7022,-122 4541.2978,-122 4541.2978,-86 4668.7022,-86 4668.7022,-122"/>
<text text-anchor="middle" x="4605" y="-99.8" font-family="Times,serif" font-size="14.00" fill="#000000">MatSidenavModule</text>
</g>
<!-- MatSidenavModule&#45;&gt;AppModule -->
<g id="edge11" class="edge">
<title>MatSidenavModule&#45;&gt;AppModule</title>
<path fill="none" stroke="#000000" d="M4605,-122.1061C4605,-141.3391 4605,-169 4605,-169 4605,-169 3283.8408,-169 3283.8408,-169"/>
<polygon fill="#000000" stroke="#000000" points="3283.8409,-165.5001 3273.8408,-169 3283.8408,-172.5001 3283.8409,-165.5001"/>
</g>
<!-- MatIconModule -->
<g id="node13" class="node">
<title>MatIconModule</title>
<polygon fill="#8dd3c7" stroke="#000000" points="4523.4748,-122 4520.4748,-126 4499.4748,-126 4496.4748,-122 4416.5252,-122 4416.5252,-86 4523.4748,-86 4523.4748,-122"/>
<text text-anchor="middle" x="4470" y="-99.8" font-family="Times,serif" font-size="14.00" fill="#000000">MatIconModule</text>
</g>
<!-- MatIconModule&#45;&gt;AppModule -->
<g id="edge12" class="edge">
<title>MatIconModule&#45;&gt;AppModule</title>
<path fill="none" stroke="#000000" d="M4470,-122.2222C4470,-140.8285 4470,-167 4470,-167 4470,-167 3283.8999,-167 3283.8999,-167"/>
<polygon fill="#000000" stroke="#000000" points="3283.8999,-163.5001 3273.8999,-167 3283.8998,-170.5001 3283.8999,-163.5001"/>
</g>
<!-- MatButtonModule -->
<g id="node14" class="node">
<title>MatButtonModule</title>
<polygon fill="#8dd3c7" stroke="#000000" points="4398.2176,-122 4395.2176,-126 4374.2176,-126 4371.2176,-122 4277.7824,-122 4277.7824,-86 4398.2176,-86 4398.2176,-122"/>
<text text-anchor="middle" x="4338" y="-99.8" font-family="Times,serif" font-size="14.00" fill="#000000">MatButtonModule</text>
</g>
<!-- MatButtonModule&#45;&gt;AppModule -->
<g id="edge13" class="edge">
<title>MatButtonModule&#45;&gt;AppModule</title>
<path fill="none" stroke="#000000" d="M4338,-122.302C4338,-140.2699 4338,-165 4338,-165 4338,-165 3283.6714,-165 3283.6714,-165"/>
<polygon fill="#000000" stroke="#000000" points="3283.6714,-161.5001 3273.6714,-165 3283.6713,-168.5001 3283.6714,-161.5001"/>
</g>
<!-- MatListModule -->
<g id="node15" class="node">
<title>MatListModule</title>
<polygon fill="#8dd3c7" stroke="#000000" points="4259.8781,-122 4256.8781,-126 4235.8781,-126 4232.8781,-122 4156.1219,-122 4156.1219,-86 4259.8781,-86 4259.8781,-122"/>
<text text-anchor="middle" x="4208" y="-99.8" font-family="Times,serif" font-size="14.00" fill="#000000">MatListModule</text>
</g>
<!-- MatListModule&#45;&gt;AppModule -->
<g id="edge14" class="edge">
<title>MatListModule&#45;&gt;AppModule</title>
<path fill="none" stroke="#000000" d="M4208,-122.0225C4208,-139.3734 4208,-163 4208,-163 4208,-163 3283.9375,-163 3283.9375,-163"/>
<polygon fill="#000000" stroke="#000000" points="3283.9375,-159.5001 3273.9375,-163 3283.9375,-166.5001 3283.9375,-159.5001"/>
</g>
<!-- MatRippleModule -->
<g id="node16" class="node">
<title>MatRippleModule</title>
<polygon fill="#8dd3c7" stroke="#000000" points="4137.9328,-122 4134.9328,-126 4113.9328,-126 4110.9328,-122 4018.0672,-122 4018.0672,-86 4137.9328,-86 4137.9328,-122"/>
<text text-anchor="middle" x="4078" y="-99.8" font-family="Times,serif" font-size="14.00" fill="#000000">MatRippleModule</text>
</g>
<!-- MatRippleModule&#45;&gt;AppModule -->
<g id="edge15" class="edge">
<title>MatRippleModule&#45;&gt;AppModule</title>
<path fill="none" stroke="#000000" d="M4078,-122.0336C4078,-139.0597 4078,-162 4078,-162 4078,-162 3283.6647,-162 3283.6647,-162"/>
<polygon fill="#000000" stroke="#000000" points="3283.6647,-158.5001 3273.6647,-162 3283.6647,-165.5001 3283.6647,-158.5001"/>
</g>
<!-- MatDividerModule -->
<g id="node17" class="node">
<title>MatDividerModule</title>
<polygon fill="#8dd3c7" stroke="#000000" points="4000.3627,-122 3997.3627,-126 3976.3627,-126 3973.3627,-122 3875.6373,-122 3875.6373,-86 4000.3627,-86 4000.3627,-122"/>
<text text-anchor="middle" x="3938" y="-99.8" font-family="Times,serif" font-size="14.00" fill="#000000">MatDividerModule</text>
</g>
<!-- MatDividerModule&#45;&gt;AppModule -->
<g id="edge16" class="edge">
<title>MatDividerModule&#45;&gt;AppModule</title>
<path fill="none" stroke="#000000" d="M3938,-122.027C3938,-138.3976 3938,-160 3938,-160 3938,-160 3283.7881,-160 3283.7881,-160"/>
<polygon fill="#000000" stroke="#000000" points="3283.7882,-156.5001 3273.7881,-160 3283.7881,-163.5001 3283.7882,-156.5001"/>
</g>
<!-- MatFormFieldModule -->
<g id="node18" class="node">
<title>MatFormFieldModule</title>
<polygon fill="#8dd3c7" stroke="#000000" points="3857.712,-122 3854.712,-126 3833.712,-126 3830.712,-122 3716.288,-122 3716.288,-86 3857.712,-86 3857.712,-122"/>
<text text-anchor="middle" x="3787" y="-99.8" font-family="Times,serif" font-size="14.00" fill="#000000">MatFormFieldModule</text>
</g>
<!-- MatFormFieldModule&#45;&gt;AppModule -->
<g id="edge17" class="edge">
<title>MatFormFieldModule&#45;&gt;AppModule</title>
<path fill="none" stroke="#000000" d="M3787,-122.2819C3787,-137.9478 3787,-158 3787,-158 3787,-158 3283.7152,-158 3283.7152,-158"/>
<polygon fill="#000000" stroke="#000000" points="3283.7152,-154.5001 3273.7152,-158 3283.7152,-161.5001 3283.7152,-154.5001"/>
</g>
<!-- MatInputModule -->
<g id="node19" class="node">
<title>MatInputModule</title>
<polygon fill="#8dd3c7" stroke="#000000" points="3698.6513,-122 3695.6513,-126 3674.6513,-126 3671.6513,-122 3587.3487,-122 3587.3487,-86 3698.6513,-86 3698.6513,-122"/>
<text text-anchor="middle" x="3643" y="-99.8" font-family="Times,serif" font-size="14.00" fill="#000000">MatInputModule</text>
</g>
<!-- MatInputModule&#45;&gt;AppModule -->
<g id="edge18" class="edge">
<title>MatInputModule&#45;&gt;AppModule</title>
<path fill="none" stroke="#000000" d="M3643,-122.2396C3643,-137.5706 3643,-157 3643,-157 3643,-157 3283.6707,-157 3283.6707,-157"/>
<polygon fill="#000000" stroke="#000000" points="3283.6707,-153.5001 3273.6707,-157 3283.6706,-160.5001 3283.6707,-153.5001"/>
</g>
<!-- MatSelectModule -->
<g id="node20" class="node">
<title>MatSelectModule</title>
<polygon fill="#8dd3c7" stroke="#000000" points="3569.3076,-122 3566.3076,-126 3545.3076,-126 3542.3076,-122 3452.6924,-122 3452.6924,-86 3569.3076,-86 3569.3076,-122"/>
<text text-anchor="middle" x="3511" y="-99.8" font-family="Times,serif" font-size="14.00" fill="#000000">MatSelectModule</text>
</g>
<!-- MatSelectModule&#45;&gt;AppModule -->
<g id="edge19" class="edge">
<title>MatSelectModule&#45;&gt;AppModule</title>
<path fill="none" stroke="#000000" d="M3511,-122.1243C3511,-136.7832 3511,-155 3511,-155 3511,-155 3283.7691,-155 3283.7691,-155"/>
<polygon fill="#000000" stroke="#000000" points="3283.7692,-151.5001 3273.7691,-155 3283.7691,-158.5001 3283.7692,-151.5001"/>
</g>
<!-- MatChipsModule -->
<g id="node21" class="node">
<title>MatChipsModule</title>
<polygon fill="#8dd3c7" stroke="#000000" points="3434.2716,-122 3431.2716,-126 3410.2716,-126 3407.2716,-122 3319.7284,-122 3319.7284,-86 3434.2716,-86 3434.2716,-122"/>
<text text-anchor="middle" x="3377" y="-99.8" font-family="Times,serif" font-size="14.00" fill="#000000">MatChipsModule</text>
</g>
<!-- MatChipsModule&#45;&gt;AppModule -->
<g id="edge20" class="edge">
<title>MatChipsModule&#45;&gt;AppModule</title>
<path fill="none" stroke="#000000" d="M3377,-122.2458C3377,-136.1772 3377,-153 3377,-153 3377,-153 3283.94,-153 3283.94,-153"/>
<polygon fill="#000000" stroke="#000000" points="3283.94,-149.5001 3273.94,-153 3283.94,-156.5001 3283.94,-149.5001"/>
</g>
<!-- MatCheckboxModule -->
<g id="node22" class="node">
<title>MatCheckboxModule</title>
<polygon fill="#8dd3c7" stroke="#000000" points="3301.3655,-122 3298.3655,-126 3277.3655,-126 3274.3655,-122 3162.6345,-122 3162.6345,-86 3301.3655,-86 3301.3655,-122"/>
<text text-anchor="middle" x="3232" y="-99.8" font-family="Times,serif" font-size="14.00" fill="#000000">MatCheckboxModule</text>
</g>
<!-- MatCheckboxModule&#45;&gt;AppModule -->
<g id="edge21" class="edge">
<title>MatCheckboxModule&#45;&gt;AppModule</title>
<path fill="none" stroke="#000000" d="M3232,-122.1061C3232,-122.1061 3232,-140.991 3232,-140.991"/>
<polygon fill="#000000" stroke="#000000" points="3228.5001,-140.9909 3232,-150.991 3235.5001,-140.991 3228.5001,-140.9909"/>
</g>
<!-- MatProgressSpinnerModule -->
<g id="node23" class="node">
<title>MatProgressSpinnerModule</title>
<polygon fill="#8dd3c7" stroke="#000000" points="3144.8557,-122 3141.8557,-126 3120.8557,-126 3117.8557,-122 2971.1443,-122 2971.1443,-86 3144.8557,-86 3144.8557,-122"/>
<text text-anchor="middle" x="3058" y="-99.8" font-family="Times,serif" font-size="14.00" fill="#000000">MatProgressSpinnerModule</text>
</g>
<!-- MatProgressSpinnerModule&#45;&gt;AppModule -->
<g id="edge22" class="edge">
<title>MatProgressSpinnerModule&#45;&gt;AppModule</title>
<path fill="none" stroke="#000000" d="M3058,-122.2458C3058,-136.1772 3058,-153 3058,-153 3058,-153 3180.3227,-153 3180.3227,-153"/>
<polygon fill="#000000" stroke="#000000" points="3180.3227,-156.5001 3190.3227,-153 3180.3226,-149.5001 3180.3227,-156.5001"/>
</g>
<!-- MatMenuModule -->
<g id="node24" class="node">
<title>MatMenuModule</title>
<polygon fill="#8dd3c7" stroke="#000000" points="2953.2591,-122 2950.2591,-126 2929.2591,-126 2926.2591,-122 2838.7409,-122 2838.7409,-86 2953.2591,-86 2953.2591,-122"/>
<text text-anchor="middle" x="2896" y="-99.8" font-family="Times,serif" font-size="14.00" fill="#000000">MatMenuModule</text>
</g>
<!-- MatMenuModule&#45;&gt;AppModule -->
<g id="edge23" class="edge">
<title>MatMenuModule&#45;&gt;AppModule</title>
<path fill="none" stroke="#000000" d="M2896,-122.1243C2896,-136.7832 2896,-155 2896,-155 2896,-155 3180.1247,-155 3180.1247,-155"/>
<polygon fill="#000000" stroke="#000000" points="3180.1248,-158.5001 3190.1247,-155 3180.1247,-151.5001 3180.1248,-158.5001"/>
</g>
<!-- MatBadgeModule -->
<g id="node25" class="node">
<title>MatBadgeModule</title>
<polygon fill="#8dd3c7" stroke="#000000" points="2820.8655,-122 2817.8655,-126 2796.8655,-126 2793.8655,-122 2703.1345,-122 2703.1345,-86 2820.8655,-86 2820.8655,-122"/>
<text text-anchor="middle" x="2762" y="-99.8" font-family="Times,serif" font-size="14.00" fill="#000000">MatBadgeModule</text>
</g>
<!-- MatBadgeModule&#45;&gt;AppModule -->
<g id="edge24" class="edge">
<title>MatBadgeModule&#45;&gt;AppModule</title>
<path fill="none" stroke="#000000" d="M2762,-122.2396C2762,-137.5706 2762,-157 2762,-157 2762,-157 3180.2906,-157 3180.2906,-157"/>
<polygon fill="#000000" stroke="#000000" points="3180.2907,-160.5001 3190.2906,-157 3180.2906,-153.5001 3180.2907,-160.5001"/>
</g>
<!-- AuthModule -->
<g id="node26" class="node">
<title>AuthModule</title>
<polygon fill="#8dd3c7" stroke="#000000" points="2684.5482,-122 2681.5482,-126 2660.5482,-126 2657.5482,-122 2597.4518,-122 2597.4518,-86 2684.5482,-86 2684.5482,-122"/>
<text text-anchor="middle" x="2641" y="-99.8" font-family="Times,serif" font-size="14.00" fill="#000000">AuthModule</text>
</g>
<!-- AuthModule&#45;&gt;AppModule -->
<g id="edge25" class="edge">
<title>AuthModule&#45;&gt;AppModule</title>
<path fill="none" stroke="#000000" d="M2641,-122.2819C2641,-137.9478 2641,-158 2641,-158 2641,-158 3179.9705,-158 3179.9705,-158"/>
<polygon fill="#000000" stroke="#000000" points="3179.9706,-161.5001 3189.9705,-158 3179.9705,-154.5001 3179.9706,-161.5001"/>
</g>
<!-- UploadModule -->
<g id="node27" class="node">
<title>UploadModule</title>
<polygon fill="#8dd3c7" stroke="#000000" points="2579.2619,-122 2576.2619,-126 2555.2619,-126 2552.2619,-122 2478.7381,-122 2478.7381,-86 2579.2619,-86 2579.2619,-122"/>
<text text-anchor="middle" x="2529" y="-99.8" font-family="Times,serif" font-size="14.00" fill="#000000">UploadModule</text>
</g>
<!-- UploadModule&#45;&gt;AppModule -->
<g id="edge26" class="edge">
<title>UploadModule&#45;&gt;AppModule</title>
<path fill="none" stroke="#000000" d="M2529,-122.027C2529,-138.3976 2529,-160 2529,-160 2529,-160 3180.1294,-160 3180.1294,-160"/>
<polygon fill="#000000" stroke="#000000" points="3180.1295,-163.5001 3190.1294,-160 3180.1294,-156.5001 3180.1295,-163.5001"/>
</g>
<!-- UiFormModule -->
<g id="node28" class="node">
<title>UiFormModule</title>
<polygon fill="#8dd3c7" stroke="#000000" points="2460.8809,-122 2457.8809,-126 2436.8809,-126 2433.8809,-122 2357.1191,-122 2357.1191,-86 2460.8809,-86 2460.8809,-122"/>
<text text-anchor="middle" x="2409" y="-99.8" font-family="Times,serif" font-size="14.00" fill="#000000">UiFormModule</text>
</g>
<!-- UiFormModule&#45;&gt;AppModule -->
<g id="edge27" class="edge">
<title>UiFormModule&#45;&gt;AppModule</title>
<path fill="none" stroke="#000000" d="M2409,-122.0336C2409,-139.0597 2409,-162 2409,-162 2409,-162 3180.34,-162 3180.34,-162"/>
<polygon fill="#000000" stroke="#000000" points="3180.34,-165.5001 3190.34,-162 3180.34,-158.5001 3180.34,-165.5001"/>
</g>
<!-- OrganizationModule -->
<g id="node29" class="node">
<title>OrganizationModule</title>
<polygon fill="#8dd3c7" stroke="#000000" points="2339.1331,-122 2336.1331,-126 2315.1331,-126 2312.1331,-122 2206.8669,-122 2206.8669,-86 2339.1331,-86 2339.1331,-122"/>
<text text-anchor="middle" x="2273" y="-99.8" font-family="Times,serif" font-size="14.00" fill="#000000">OrganizationModule</text>
</g>
<!-- OrganizationModule&#45;&gt;AppModule -->
<g id="edge28" class="edge">
<title>OrganizationModule&#45;&gt;AppModule</title>
<path fill="none" stroke="#000000" d="M2273,-122.0225C2273,-139.3734 2273,-163 2273,-163 2273,-163 3180.1763,-163 3180.1763,-163"/>
<polygon fill="#000000" stroke="#000000" points="3180.1764,-166.5001 3190.1763,-163 3180.1763,-159.5001 3180.1764,-166.5001"/>
</g>
<!-- ToolbarModule -->
<g id="node30" class="node">
<title>ToolbarModule</title>
<polygon fill="#8dd3c7" stroke="#000000" points="2188.8683,-122 2185.8683,-126 2164.8683,-126 2161.8683,-122 2085.1317,-122 2085.1317,-86 2188.8683,-86 2188.8683,-122"/>
<text text-anchor="middle" x="2137" y="-99.8" font-family="Times,serif" font-size="14.00" fill="#000000">ToolbarModule</text>
</g>
<!-- ToolbarModule&#45;&gt;AppModule -->
<g id="edge29" class="edge">
<title>ToolbarModule&#45;&gt;AppModule</title>
<path fill="none" stroke="#000000" d="M2137,-122.302C2137,-140.2699 2137,-165 2137,-165 2137,-165 3180.0793,-165 3180.0793,-165"/>
<polygon fill="#000000" stroke="#000000" points="3180.0794,-168.5001 3190.0793,-165 3180.0793,-161.5001 3180.0794,-168.5001"/>
</g>
<!-- MovieModule -->
<g id="node31" class="node">
<title>MovieModule</title>
<polygon fill="#8dd3c7" stroke="#000000" points="2067.0997,-122 2064.0997,-126 2043.0997,-126 2040.0997,-122 1970.9003,-122 1970.9003,-86 2067.0997,-86 2067.0997,-122"/>
<text text-anchor="middle" x="2019" y="-99.8" font-family="Times,serif" font-size="14.00" fill="#000000">MovieModule</text>
</g>
<!-- MovieModule&#45;&gt;AppModule -->
<g id="edge30" class="edge">
<title>MovieModule&#45;&gt;AppModule</title>
<path fill="none" stroke="#000000" d="M2019,-122.2222C2019,-140.8285 2019,-167 2019,-167 2019,-167 3180.2458,-167 3180.2458,-167"/>
<polygon fill="#000000" stroke="#000000" points="3180.2458,-170.5001 3190.2458,-167 3180.2458,-163.5001 3180.2458,-170.5001"/>
</g>
<!-- AccountModule -->
<g id="node32" class="node">
<title>AccountModule</title>
<polygon fill="#8dd3c7" stroke="#000000" points="1952.4762,-122 1949.4762,-126 1928.4762,-126 1925.4762,-122 1845.5238,-122 1845.5238,-86 1952.4762,-86 1952.4762,-122"/>
<text text-anchor="middle" x="1899" y="-99.8" font-family="Times,serif" font-size="14.00" fill="#000000">AccountModule</text>
</g>
<!-- AccountModule&#45;&gt;AppModule -->
<g id="edge31" class="edge">
<title>AccountModule&#45;&gt;AppModule</title>
<path fill="none" stroke="#000000" d="M1899,-122.1061C1899,-141.3391 1899,-169 1899,-169 1899,-169 3180.275,-169 3180.275,-169"/>
<polygon fill="#000000" stroke="#000000" points="3180.2751,-172.5001 3190.275,-169 3180.275,-165.5001 3180.2751,-172.5001"/>
</g>
<!-- ProfileModule -->
<g id="node33" class="node">
<title>ProfileModule</title>
<polygon fill="#8dd3c7" stroke="#000000" points="1827.65,-122 1824.65,-126 1803.65,-126 1800.65,-122 1730.35,-122 1730.35,-86 1827.65,-86 1827.65,-122"/>
<text text-anchor="middle" x="1779" y="-99.8" font-family="Times,serif" font-size="14.00" fill="#000000">ProfileModule</text>
</g>
<!-- ProfileModule&#45;&gt;AppModule -->
<g id="edge32" class="edge">
<title>ProfileModule&#45;&gt;AppModule</title>
<path fill="none" stroke="#000000" d="M1779,-122.0348C1779,-141.5762 1779,-170 1779,-170 1779,-170 3180.0815,-170 3180.0815,-170"/>
<polygon fill="#000000" stroke="#000000" points="3180.0816,-173.5001 3190.0815,-170 3180.0815,-166.5001 3180.0816,-173.5001"/>
</g>
<!-- WalletModule -->
<g id="node34" class="node">
<title>WalletModule</title>
<polygon fill="#8dd3c7" stroke="#000000" points="1712.3655,-122 1709.3655,-126 1688.3655,-126 1685.3655,-122 1615.6345,-122 1615.6345,-86 1712.3655,-86 1712.3655,-122"/>
<text text-anchor="middle" x="1664" y="-99.8" font-family="Times,serif" font-size="14.00" fill="#000000">WalletModule</text>
</g>
<!-- WalletModule&#45;&gt;AppModule -->
<g id="edge33" class="edge">
<title>WalletModule&#45;&gt;AppModule</title>
<path fill="none" stroke="#000000" d="M1664,-122.2228C1664,-142.3652 1664,-172 1664,-172 1664,-172 3180.0598,-172 3180.0598,-172"/>
<polygon fill="#000000" stroke="#000000" points="3180.0598,-175.5001 3190.0598,-172 3180.0598,-168.5001 3180.0598,-175.5001"/>
</g>
<!-- KeyManagerModule -->
<g id="node35" class="node">
<title>KeyManagerModule</title>
<polygon fill="#8dd3c7" stroke="#000000" points="1597.1205,-122 1594.1205,-126 1573.1205,-126 1570.1205,-122 1464.8795,-122 1464.8795,-86 1597.1205,-86 1597.1205,-122"/>
<text text-anchor="middle" x="1531" y="-99.8" font-family="Times,serif" font-size="14.00" fill="#000000">KeyManagerModule</text>
</g>
<!-- KeyManagerModule&#45;&gt;AppModule -->
<g id="edge34" class="edge">
<title>KeyManagerModule&#45;&gt;AppModule</title>
<path fill="none" stroke="#000000" d="M1531,-122.0267C1531,-142.7672 1531,-174 1531,-174 1531,-174 3179.9526,-174 3179.9526,-174"/>
<polygon fill="#000000" stroke="#000000" points="3179.9526,-177.5001 3189.9526,-174 3179.9525,-170.5001 3179.9526,-177.5001"/>
</g>
<!-- NotificationWidgetModule -->
<g id="node36" class="node">
<title>NotificationWidgetModule</title>
<polygon fill="#8dd3c7" stroke="#000000" points="1446.4101,-122 1443.4101,-126 1422.4101,-126 1419.4101,-122 1277.5899,-122 1277.5899,-86 1446.4101,-86 1446.4101,-122"/>
<text text-anchor="middle" x="1362" y="-99.8" font-family="Times,serif" font-size="14.00" fill="#000000">NotificationWidgetModule</text>
</g>
<!-- NotificationWidgetModule&#45;&gt;AppModule -->
<g id="edge35" class="edge">
<title>NotificationWidgetModule&#45;&gt;AppModule</title>
<path fill="none" stroke="#000000" d="M1362,-122.2843C1362,-143.3211 1362,-175 1362,-175 1362,-175 3180.3205,-175 3180.3205,-175"/>
<polygon fill="#000000" stroke="#000000" points="3180.3205,-178.5001 3190.3205,-175 3180.3205,-171.5001 3180.3205,-178.5001"/>
</g>
<!-- NoOrganizationModule -->
<g id="node37" class="node">
<title>NoOrganizationModule</title>
<polygon fill="#8dd3c7" stroke="#000000" points="1259.7394,-122 1256.7394,-126 1235.7394,-126 1232.7394,-122 1110.2606,-122 1110.2606,-86 1259.7394,-86 1259.7394,-122"/>
<text text-anchor="middle" x="1185" y="-99.8" font-family="Times,serif" font-size="14.00" fill="#000000">NoOrganizationModule</text>
</g>
<!-- NoOrganizationModule&#45;&gt;AppModule -->
<g id="edge36" class="edge">
<title>NoOrganizationModule&#45;&gt;AppModule</title>
<path fill="none" stroke="#000000" d="M1185,-122.0449C1185,-143.6623 1185,-177 1185,-177 1185,-177 3180.1828,-177 3180.1828,-177"/>
<polygon fill="#000000" stroke="#000000" points="3180.1828,-180.5001 3190.1828,-177 3180.1828,-173.5001 3180.1828,-180.5001"/>
</g>
<!-- AngularFireModule.initializeApp(args) -->
<g id="node38" class="node">
<title>AngularFireModule.initializeApp(args)</title>
<polygon fill="#8dd3c7" stroke="#000000" points="1092.7057,-122 1089.7057,-126 1068.7057,-126 1065.7057,-122 855.2943,-122 855.2943,-86 1092.7057,-86 1092.7057,-122"/>
<text text-anchor="middle" x="974" y="-99.8" font-family="Times,serif" font-size="14.00" fill="#000000">AngularFireModule.initializeApp(args)</text>
</g>
<!-- AngularFireModule.initializeApp(args)&#45;&gt;AppModule -->
<g id="edge37" class="edge">
<title>AngularFireModule.initializeApp(args)&#45;&gt;AppModule</title>
<path fill="none" stroke="#000000" d="M974,-122.1554C974,-144.3519 974,-179 974,-179 974,-179 3179.9006,-179 3179.9006,-179"/>
<polygon fill="#000000" stroke="#000000" points="3179.9006,-182.5001 3189.9006,-179 3179.9006,-175.5001 3179.9006,-182.5001"/>
</g>
<!-- AngularFirestoreModule.enablePersistence(args) -->
<g id="node39" class="node">
<title>AngularFirestoreModule.enablePersistence(args)</title>
<polygon fill="#8dd3c7" stroke="#000000" points="837.3285,-122 834.3285,-126 813.3285,-126 810.3285,-122 546.6715,-122 546.6715,-86 837.3285,-86 837.3285,-122"/>
<text text-anchor="middle" x="692" y="-99.8" font-family="Times,serif" font-size="14.00" fill="#000000">AngularFirestoreModule.enablePersistence(args)</text>
</g>
<!-- AngularFirestoreModule.enablePersistence(args)&#45;&gt;AppModule -->
<g id="edge38" class="edge">
<title>AngularFirestoreModule.enablePersistence(args)&#45;&gt;AppModule</title>
<path fill="none" stroke="#000000" d="M692,-122.2479C692,-145.0179 692,-181 692,-181 692,-181 3180.2942,-181 3180.2942,-181"/>
<polygon fill="#000000" stroke="#000000" points="3180.2942,-184.5001 3190.2942,-181 3180.2941,-177.5001 3180.2942,-184.5001"/>
</g>
<!-- AngularFireFunctionsModule -->
<g id="node40" class="node">
<title>AngularFireFunctionsModule</title>
<polygon fill="#8dd3c7" stroke="#000000" points="528.6937,-122 525.6937,-126 504.6937,-126 501.6937,-122 345.3063,-122 345.3063,-86 528.6937,-86 528.6937,-122"/>
<text text-anchor="middle" x="437" y="-99.8" font-family="Times,serif" font-size="14.00" fill="#000000">AngularFireFunctionsModule</text>
</g>
<!-- AngularFireFunctionsModule&#45;&gt;AppModule -->
<g id="edge39" class="edge">
<title>AngularFireFunctionsModule&#45;&gt;AppModule</title>
<path fill="none" stroke="#000000" d="M437,-122.0908C437,-145.1328 437,-182 437,-182 437,-182 3180.3205,-182 3180.3205,-182"/>
<polygon fill="#000000" stroke="#000000" points="3180.3205,-185.5001 3190.3205,-182 3180.3204,-178.5001 3180.3205,-185.5001"/>
</g>
<!-- AkitaNgRouterStoreModule.forRoot() -->
<g id="node41" class="node">
<title>AkitaNgRouterStoreModule.forRoot()</title>
<polygon fill="#8dd3c7" stroke="#000000" points="327.7793,-122 324.7793,-126 303.7793,-126 300.7793,-122 96.2207,-122 96.2207,-86 327.7793,-86 327.7793,-122"/>
<text text-anchor="middle" x="212" y="-99.8" font-family="Times,serif" font-size="14.00" fill="#000000">AkitaNgRouterStoreModule.forRoot()</text>
</g>
<!-- AkitaNgRouterStoreModule.forRoot()&#45;&gt;AppModule -->
<g id="edge40" class="edge">
<title>AkitaNgRouterStoreModule.forRoot()&#45;&gt;AppModule</title>
<path fill="none" stroke="#000000" d="M212,-122.1532C212,-145.7566 212,-184 212,-184 212,-184 3180.1717,-184 3180.1717,-184"/>
<polygon fill="#000000" stroke="#000000" points="3180.1717,-187.5001 3190.1717,-184 3180.1717,-180.5001 3180.1717,-187.5001"/>
</g>
<!-- { &#160;} -->
<g id="node42" class="node">
<title>{ &#160;}</title>
<polygon fill="#8dd3c7" stroke="#000000" points="78,-122 75,-126 54,-126 51,-122 24,-122 24,-86 78,-86 78,-122"/>
<text text-anchor="middle" x="51" y="-99.8" font-family="Times,serif" font-size="14.00" fill="#000000">{ &#160;}</text>
</g>
<!-- { &#160;}&#45;&gt;AppModule -->
<g id="edge41" class="edge">
<title>{ &#160;}&#45;&gt;AppModule</title>
<path fill="none" stroke="#000000" d="M51,-122.1985C51,-146.3563 51,-186 51,-186 51,-186 3180.3237,-186 3180.3237,-186"/>
<polygon fill="#000000" stroke="#000000" points="3180.3237,-189.5001 3190.3237,-186 3180.3236,-182.5001 3180.3237,-189.5001"/>
</g>
</g>
</svg>
