<?xml version="1.0" encoding="UTF-8" standalone="no"?>
<!DOCTYPE svg PUBLIC "-//W3C//DTD SVG 1.1//EN"
 "http://www.w3.org/Graphics/SVG/1.1/DTD/svg11.dtd">
<!-- Generated by graphviz version 2.40.1 (20161225.0304)
 -->
<!-- Title: dependencies Pages: 1 -->
<svg width="2045pt" height="284pt"
 viewBox="0.00 0.00 2045.00 284.00" xmlns="http://www.w3.org/2000/svg" xmlns:xlink="http://www.w3.org/1999/xlink">
<g id="graph0" class="graph" transform="scale(1 1) rotate(0) translate(4 280)">
<title>dependencies</title>
<polygon fill="#ffffff" stroke="transparent" points="-4,4 -4,-280 2041,-280 2041,4 -4,4"/>
<text text-anchor="start" x="997.5091" y="-42.4" font-family="sans-serif" font-weight="bold" font-size="14.00" fill="#000000">Legend</text>
<polygon fill="#ffffb3" stroke="transparent" points="784.5,-10 784.5,-30 804.5,-30 804.5,-10 784.5,-10"/>
<text text-anchor="start" x="808.129" y="-15.4" font-family="sans-serif" font-size="14.00" fill="#000000"> &#160;Declarations</text>
<polygon fill="#8dd3c7" stroke="transparent" points="897.5,-10 897.5,-30 917.5,-30 917.5,-10 897.5,-10"/>
<text text-anchor="start" x="921.2251" y="-15.4" font-family="sans-serif" font-size="14.00" fill="#000000"> &#160;Module</text>
<polygon fill="#80b1d3" stroke="transparent" points="983.5,-10 983.5,-30 1003.5,-30 1003.5,-10 983.5,-10"/>
<text text-anchor="start" x="1007.2812" y="-15.4" font-family="sans-serif" font-size="14.00" fill="#000000"> &#160;Bootstrap</text>
<polygon fill="#fdb462" stroke="transparent" points="1080.5,-10 1080.5,-30 1100.5,-30 1100.5,-10 1080.5,-10"/>
<text text-anchor="start" x="1104.1732" y="-15.4" font-family="sans-serif" font-size="14.00" fill="#000000"> &#160;Providers</text>
<polygon fill="#fb8072" stroke="transparent" points="1176.5,-10 1176.5,-30 1196.5,-30 1196.5,-10 1176.5,-10"/>
<text text-anchor="start" x="1200.2258" y="-15.4" font-family="sans-serif" font-size="14.00" fill="#000000"> &#160;Exports</text>
<g id="clust1" class="cluster">
<title>cluster_AppModule</title>
<polygon fill="none" stroke="#000000" stroke-dasharray="1,5" points="8,-70 8,-268 2029,-268 2029,-70 8,-70"/>
</g>
<g id="clust2" class="cluster">
<title>cluster_AppModule_declarations</title>
<polygon fill="none" stroke="#000000" points="1761,-78 1761,-130 2021,-130 2021,-78 1761,-78"/>
</g>
<g id="clust5" class="cluster">
<title>cluster_AppModule_imports</title>
<polygon fill="none" stroke="#000000" points="16,-78 16,-130 1753,-130 1753,-78 16,-78"/>
</g>
<g id="clust7" class="cluster">
<title>cluster_AppModule_bootstrap</title>
<polygon fill="none" stroke="#000000" points="967,-208 967,-260 1091,-260 1091,-208 967,-208"/>
</g>
<!-- AppComponent -->
<g id="node1" class="node">
<title>AppComponent</title>
<polygon fill="#ffffb3" stroke="#000000" points="2012.9399,-122 1907.0601,-122 1907.0601,-86 2012.9399,-86 2012.9399,-122"/>
<text text-anchor="middle" x="1960" y="-99.8" font-family="Times,serif" font-size="14.00" fill="#000000">AppComponent</text>
</g>
<!-- AppModule -->
<g id="node3" class="node">
<title>AppModule</title>
<polygon fill="#8dd3c7" stroke="#000000" points="1070.6571,-187 1067.6571,-191 1046.6571,-191 1043.6571,-187 987.3429,-187 987.3429,-151 1070.6571,-151 1070.6571,-187"/>
<text text-anchor="middle" x="1029" y="-164.8" font-family="Times,serif" font-size="14.00" fill="#000000">AppModule</text>
</g>
<!-- AppComponent&#45;&gt;AppModule -->
<g id="edge1" class="edge">
<title>AppComponent&#45;&gt;AppModule</title>
<path fill="none" stroke="#000000" d="M1960,-122.3228C1960,-145.6602 1960,-183 1960,-183 1960,-183 1080.8118,-183 1080.8118,-183"/>
<polygon fill="#000000" stroke="#000000" points="1080.8118,-179.5001 1070.8118,-183 1080.8118,-186.5001 1080.8118,-179.5001"/>
</g>
<!-- LayoutComponent -->
<g id="node2" class="node">
<title>LayoutComponent</title>
<polygon fill="#ffffb3" stroke="#000000" points="1889.4902,-122 1768.5098,-122 1768.5098,-86 1889.4902,-86 1889.4902,-122"/>
<text text-anchor="middle" x="1829" y="-99.8" font-family="Times,serif" font-size="14.00" fill="#000000">LayoutComponent</text>
</g>
<!-- LayoutComponent&#45;&gt;AppModule -->
<g id="edge2" class="edge">
<title>LayoutComponent&#45;&gt;AppModule</title>
<path fill="none" stroke="#000000" d="M1829,-122.2921C1829,-144.2057 1829,-178 1829,-178 1829,-178 1080.8851,-178 1080.8851,-178"/>
<polygon fill="#000000" stroke="#000000" points="1080.8851,-174.5001 1070.8851,-178 1080.8851,-181.5001 1080.8851,-174.5001"/>
</g>
<!-- AppComponent  -->
<g id="node17" class="node">
<title>AppComponent </title>
<polygon fill="#80b1d3" stroke="#000000" points="1083.439,-252 974.561,-252 974.561,-216 1083.439,-216 1083.439,-252"/>
<text text-anchor="middle" x="1029" y="-229.8" font-family="Times,serif" font-size="14.00" fill="#000000">AppComponent </text>
</g>
<!-- AppModule&#45;&gt;AppComponent  -->
<g id="edge16" class="edge">
<title>AppModule&#45;&gt;AppComponent </title>
<path fill="none" stroke="#000000" stroke-dasharray="1,5" d="M1029,-187.1061C1029,-187.1061 1029,-205.991 1029,-205.991"/>
<polygon fill="#000000" stroke="#000000" points="1025.5001,-205.9909 1029,-215.991 1032.5001,-205.991 1025.5001,-205.9909"/>
</g>
<!-- AccountModule -->
<g id="node4" class="node">
<title>AccountModule</title>
<polygon fill="#8dd3c7" stroke="#000000" points="1745.4762,-122 1742.4762,-126 1721.4762,-126 1718.4762,-122 1638.5238,-122 1638.5238,-86 1745.4762,-86 1745.4762,-122"/>
<text text-anchor="middle" x="1692" y="-99.8" font-family="Times,serif" font-size="14.00" fill="#000000">AccountModule</text>
</g>
<!-- AccountModule&#45;&gt;AppModule -->
<g id="edge3" class="edge">
<title>AccountModule&#45;&gt;AppModule</title>
<path fill="none" stroke="#000000" d="M1692,-122.0267C1692,-142.7672 1692,-174 1692,-174 1692,-174 1080.7248,-174 1080.7248,-174"/>
<polygon fill="#000000" stroke="#000000" points="1080.7248,-170.5001 1070.7248,-174 1080.7247,-177.5001 1080.7248,-170.5001"/>
</g>
<!-- AppRoutingModule -->
<g id="node5" class="node">
<title>AppRoutingModule</title>
<polygon fill="#8dd3c7" stroke="#000000" points="1620.2744,-122 1617.2744,-126 1596.2744,-126 1593.2744,-122 1491.7256,-122 1491.7256,-86 1620.2744,-86 1620.2744,-122"/>
<text text-anchor="middle" x="1556" y="-99.8" font-family="Times,serif" font-size="14.00" fill="#000000">AppRoutingModule</text>
</g>
<!-- AppRoutingModule&#45;&gt;AppModule -->
<g id="edge4" class="edge">
<title>AppRoutingModule&#45;&gt;AppModule</title>
<path fill="none" stroke="#000000" d="M1556,-122.1061C1556,-141.3391 1556,-169 1556,-169 1556,-169 1080.7933,-169 1080.7933,-169"/>
<polygon fill="#000000" stroke="#000000" points="1080.7933,-165.5001 1070.7933,-169 1080.7933,-172.5001 1080.7933,-165.5001"/>
</g>
<!-- AuthModule -->
<g id="node6" class="node">
<title>AuthModule</title>
<polygon fill="#8dd3c7" stroke="#000000" points="1473.5482,-122 1470.5482,-126 1449.5482,-126 1446.5482,-122 1386.4518,-122 1386.4518,-86 1473.5482,-86 1473.5482,-122"/>
<text text-anchor="middle" x="1430" y="-99.8" font-family="Times,serif" font-size="14.00" fill="#000000">AuthModule</text>
</g>
<!-- AuthModule&#45;&gt;AppModule -->
<g id="edge5" class="edge">
<title>AuthModule&#45;&gt;AppModule</title>
<path fill="none" stroke="#000000" d="M1430,-122.302C1430,-140.2699 1430,-165 1430,-165 1430,-165 1080.7792,-165 1080.7792,-165"/>
<polygon fill="#000000" stroke="#000000" points="1080.7793,-161.5001 1070.7792,-165 1080.7792,-168.5001 1080.7793,-161.5001"/>
</g>
<!-- KeyManagerModule -->
<g id="node7" class="node">
<title>KeyManagerModule</title>
<polygon fill="#8dd3c7" stroke="#000000" points="1368.1205,-122 1365.1205,-126 1344.1205,-126 1341.1205,-122 1235.8795,-122 1235.8795,-86 1368.1205,-86 1368.1205,-122"/>
<text text-anchor="middle" x="1302" y="-99.8" font-family="Times,serif" font-size="14.00" fill="#000000">KeyManagerModule</text>
</g>
<!-- KeyManagerModule&#45;&gt;AppModule -->
<g id="edge6" class="edge">
<title>KeyManagerModule&#45;&gt;AppModule</title>
<path fill="none" stroke="#000000" d="M1302,-122.027C1302,-138.3976 1302,-160 1302,-160 1302,-160 1080.76,-160 1080.76,-160"/>
<polygon fill="#000000" stroke="#000000" points="1080.76,-156.5001 1070.76,-160 1080.76,-163.5001 1080.76,-156.5001"/>
</g>
<!-- MovieModule -->
<g id="node8" class="node">
<title>MovieModule</title>
<polygon fill="#8dd3c7" stroke="#000000" points="1218.0997,-122 1215.0997,-126 1194.0997,-126 1191.0997,-122 1121.9003,-122 1121.9003,-86 1218.0997,-86 1218.0997,-122"/>
<text text-anchor="middle" x="1170" y="-99.8" font-family="Times,serif" font-size="14.00" fill="#000000">MovieModule</text>
</g>
<!-- MovieModule&#45;&gt;AppModule -->
<g id="edge7" class="edge">
<title>MovieModule&#45;&gt;AppModule</title>
<path fill="none" stroke="#000000" d="M1170,-122.1871C1170,-137.1824 1170,-156 1170,-156 1170,-156 1080.9229,-156 1080.9229,-156"/>
<polygon fill="#000000" stroke="#000000" points="1080.9229,-152.5001 1070.9229,-156 1080.9229,-159.5001 1080.9229,-152.5001"/>
</g>
<!-- NoOrganizationModule -->
<g id="node9" class="node">
<title>NoOrganizationModule</title>
<polygon fill="#8dd3c7" stroke="#000000" points="1103.7394,-122 1100.7394,-126 1079.7394,-126 1076.7394,-122 954.2606,-122 954.2606,-86 1103.7394,-86 1103.7394,-122"/>
<text text-anchor="middle" x="1029" y="-99.8" font-family="Times,serif" font-size="14.00" fill="#000000">NoOrganizationModule</text>
</g>
<!-- NoOrganizationModule&#45;&gt;AppModule -->
<g id="edge8" class="edge">
<title>NoOrganizationModule&#45;&gt;AppModule</title>
<path fill="none" stroke="#000000" d="M1029,-122.1061C1029,-122.1061 1029,-140.991 1029,-140.991"/>
<polygon fill="#000000" stroke="#000000" points="1025.5001,-140.9909 1029,-150.991 1032.5001,-140.991 1025.5001,-140.9909"/>
</g>
<!-- NotificationWidgetModule -->
<g id="node10" class="node">
<title>NotificationWidgetModule</title>
<polygon fill="#8dd3c7" stroke="#000000" points="936.4101,-122 933.4101,-126 912.4101,-126 909.4101,-122 767.5899,-122 767.5899,-86 936.4101,-86 936.4101,-122"/>
<text text-anchor="middle" x="852" y="-99.8" font-family="Times,serif" font-size="14.00" fill="#000000">NotificationWidgetModule</text>
</g>
<!-- NotificationWidgetModule&#45;&gt;AppModule -->
<g id="edge9" class="edge">
<title>NotificationWidgetModule&#45;&gt;AppModule</title>
<path fill="none" stroke="#000000" d="M852,-122.1871C852,-137.1824 852,-156 852,-156 852,-156 977.0535,-156 977.0535,-156"/>
<polygon fill="#000000" stroke="#000000" points="977.0535,-159.5001 987.0535,-156 977.0534,-152.5001 977.0535,-159.5001"/>
</g>
<!-- OrganizationModule -->
<g id="node11" class="node">
<title>OrganizationModule</title>
<polygon fill="#8dd3c7" stroke="#000000" points="749.1331,-122 746.1331,-126 725.1331,-126 722.1331,-122 616.8669,-122 616.8669,-86 749.1331,-86 749.1331,-122"/>
<text text-anchor="middle" x="683" y="-99.8" font-family="Times,serif" font-size="14.00" fill="#000000">OrganizationModule</text>
</g>
<!-- OrganizationModule&#45;&gt;AppModule -->
<g id="edge10" class="edge">
<title>OrganizationModule&#45;&gt;AppModule</title>
<path fill="none" stroke="#000000" d="M683,-122.027C683,-138.3976 683,-160 683,-160 683,-160 977.2643,-160 977.2643,-160"/>
<polygon fill="#000000" stroke="#000000" points="977.2644,-163.5001 987.2643,-160 977.2643,-156.5001 977.2644,-163.5001"/>
</g>
<!-- ProfileModule -->
<g id="node12" class="node">
<title>ProfileModule</title>
<polygon fill="#8dd3c7" stroke="#000000" points="598.65,-122 595.65,-126 574.65,-126 571.65,-122 501.35,-122 501.35,-86 598.65,-86 598.65,-122"/>
<text text-anchor="middle" x="550" y="-99.8" font-family="Times,serif" font-size="14.00" fill="#000000">ProfileModule</text>
</g>
<!-- ProfileModule&#45;&gt;AppModule -->
<g id="edge11" class="edge">
<title>ProfileModule&#45;&gt;AppModule</title>
<path fill="none" stroke="#000000" d="M550,-122.302C550,-140.2699 550,-165 550,-165 550,-165 977.3298,-165 977.3298,-165"/>
<polygon fill="#000000" stroke="#000000" points="977.3299,-168.5001 987.3298,-165 977.3298,-161.5001 977.3299,-168.5001"/>
</g>
<!-- ToolbarModule -->
<g id="node13" class="node">
<title>ToolbarModule</title>
<polygon fill="#8dd3c7" stroke="#000000" points="482.8683,-122 479.8683,-126 458.8683,-126 455.8683,-122 379.1317,-122 379.1317,-86 482.8683,-86 482.8683,-122"/>
<text text-anchor="middle" x="431" y="-99.8" font-family="Times,serif" font-size="14.00" fill="#000000">ToolbarModule</text>
</g>
<!-- ToolbarModule&#45;&gt;AppModule -->
<g id="edge12" class="edge">
<title>ToolbarModule&#45;&gt;AppModule</title>
<path fill="none" stroke="#000000" d="M431,-122.1061C431,-141.3391 431,-169 431,-169 431,-169 976.9498,-169 976.9498,-169"/>
<polygon fill="#000000" stroke="#000000" points="976.9498,-172.5001 986.9498,-169 976.9498,-165.5001 976.9498,-172.5001"/>
</g>
<!-- UiFormModule -->
<g id="node14" class="node">
<title>UiFormModule</title>
<polygon fill="#8dd3c7" stroke="#000000" points="360.8809,-122 357.8809,-126 336.8809,-126 333.8809,-122 257.1191,-122 257.1191,-86 360.8809,-86 360.8809,-122"/>
<text text-anchor="middle" x="309" y="-99.8" font-family="Times,serif" font-size="14.00" fill="#000000">UiFormModule</text>
</g>
<!-- UiFormModule&#45;&gt;AppModule -->
<g id="edge13" class="edge">
<title>UiFormModule&#45;&gt;AppModule</title>
<path fill="none" stroke="#000000" d="M309,-122.0267C309,-142.7672 309,-174 309,-174 309,-174 977.1777,-174 977.1777,-174"/>
<polygon fill="#000000" stroke="#000000" points="977.1777,-177.5001 987.1777,-174 977.1776,-170.5001 977.1777,-177.5001"/>
</g>
<!-- UploadModule -->
<g id="node15" class="node">
<title>UploadModule</title>
<polygon fill="#8dd3c7" stroke="#000000" points="239.2619,-122 236.2619,-126 215.2619,-126 212.2619,-122 138.7381,-122 138.7381,-86 239.2619,-86 239.2619,-122"/>
<text text-anchor="middle" x="189" y="-99.8" font-family="Times,serif" font-size="14.00" fill="#000000">UploadModule</text>
</g>
<!-- UploadModule&#45;&gt;AppModule -->
<g id="edge14" class="edge">
<title>UploadModule&#45;&gt;AppModule</title>
<path fill="none" stroke="#000000" d="M189,-122.2921C189,-144.2057 189,-178 189,-178 189,-178 977.0569,-178 977.0569,-178"/>
<polygon fill="#000000" stroke="#000000" points="977.0569,-181.5001 987.0569,-178 977.0568,-174.5001 977.0569,-181.5001"/>
</g>
<!-- WalletModule -->
<g id="node16" class="node">
<title>WalletModule</title>
<polygon fill="#8dd3c7" stroke="#000000" points="120.3655,-122 117.3655,-126 96.3655,-126 93.3655,-122 23.6345,-122 23.6345,-86 120.3655,-86 120.3655,-122"/>
<text text-anchor="middle" x="72" y="-99.8" font-family="Times,serif" font-size="14.00" fill="#000000">WalletModule</text>
</g>
<!-- WalletModule&#45;&gt;AppModule -->
<g id="edge15" class="edge">
<title>WalletModule&#45;&gt;AppModule</title>
<path fill="none" stroke="#000000" d="M72,-122.3228C72,-145.6602 72,-183 72,-183 72,-183 977.2635,-183 977.2635,-183"/>
<polygon fill="#000000" stroke="#000000" points="977.2636,-186.5001 987.2635,-183 977.2635,-179.5001 977.2636,-186.5001"/>
</g>
</g>
</svg>
