<?xml version="1.0" encoding="UTF-8" standalone="no"?>
<!DOCTYPE svg PUBLIC "-//W3C//DTD SVG 1.1//EN"
 "http://www.w3.org/Graphics/SVG/1.1/DTD/svg11.dtd">
<!-- Generated by graphviz version 2.40.1 (20161225.0304)
 -->
<!-- Title: dependencies Pages: 1 -->
<svg width="1985pt" height="211pt"
 viewBox="0.00 0.00 1985.00 211.00" xmlns="http://www.w3.org/2000/svg" xmlns:xlink="http://www.w3.org/1999/xlink">
<g id="graph0" class="graph" transform="scale(1 1) rotate(0) translate(4 207)">
<title>dependencies</title>
<polygon fill="#ffffff" stroke="transparent" points="-4,4 -4,-207 1981,-207 1981,4 -4,4"/>
<text text-anchor="start" x="967.5091" y="-42.4" font-family="sans-serif" font-weight="bold" font-size="14.00" fill="#000000">Legend</text>
<polygon fill="#ffffb3" stroke="transparent" points="754.5,-10 754.5,-30 774.5,-30 774.5,-10 754.5,-10"/>
<text text-anchor="start" x="778.129" y="-15.4" font-family="sans-serif" font-size="14.00" fill="#000000"> &#160;Declarations</text>
<polygon fill="#8dd3c7" stroke="transparent" points="867.5,-10 867.5,-30 887.5,-30 887.5,-10 867.5,-10"/>
<text text-anchor="start" x="891.2251" y="-15.4" font-family="sans-serif" font-size="14.00" fill="#000000"> &#160;Module</text>
<polygon fill="#80b1d3" stroke="transparent" points="953.5,-10 953.5,-30 973.5,-30 973.5,-10 953.5,-10"/>
<text text-anchor="start" x="977.2812" y="-15.4" font-family="sans-serif" font-size="14.00" fill="#000000"> &#160;Bootstrap</text>
<polygon fill="#fdb462" stroke="transparent" points="1050.5,-10 1050.5,-30 1070.5,-30 1070.5,-10 1050.5,-10"/>
<text text-anchor="start" x="1074.1732" y="-15.4" font-family="sans-serif" font-size="14.00" fill="#000000"> &#160;Providers</text>
<polygon fill="#fb8072" stroke="transparent" points="1146.5,-10 1146.5,-30 1166.5,-30 1166.5,-10 1146.5,-10"/>
<text text-anchor="start" x="1170.2258" y="-15.4" font-family="sans-serif" font-size="14.00" fill="#000000"> &#160;Exports</text>
<g id="clust1" class="cluster">
<title>cluster_TemplateModule</title>
<polygon fill="none" stroke="#000000" stroke-dasharray="1,5" points="8,-70 8,-195 1969,-195 1969,-70 8,-70"/>
</g>
<g id="clust2" class="cluster">
<title>cluster_TemplateModule_declarations</title>
<polygon fill="none" stroke="#000000" points="565,-78 565,-130 1961,-130 1961,-78 565,-78"/>
</g>
<g id="clust10" class="cluster">
<title>cluster_TemplateModule_imports</title>
<polygon fill="none" stroke="#000000" points="16,-78 16,-130 557,-130 557,-78 16,-78"/>
</g>
<!-- TemplateAddComponent -->
<g id="node1" class="node">
<title>TemplateAddComponent</title>
<polygon fill="#ffffb3" stroke="#000000" points="1953.3075,-122 1794.6925,-122 1794.6925,-86 1953.3075,-86 1953.3075,-122"/>
<text text-anchor="middle" x="1874" y="-99.8" font-family="Times,serif" font-size="14.00" fill="#000000">TemplateAddComponent</text>
</g>
<!-- TemplateModule -->
<g id="node8" class="node">
<title>TemplateModule</title>
<polygon fill="#8dd3c7" stroke="#000000" points="939.4188,-187 936.4188,-191 915.4188,-191 912.4188,-187 826.5812,-187 826.5812,-151 939.4188,-151 939.4188,-187"/>
<text text-anchor="middle" x="883" y="-164.8" font-family="Times,serif" font-size="14.00" fill="#000000">TemplateModule</text>
</g>
<!-- TemplateAddComponent&#45;&gt;TemplateModule -->
<g id="edge1" class="edge">
<title>TemplateAddComponent&#45;&gt;TemplateModule</title>
<path fill="none" stroke="#000000" d="M1874,-122.0908C1874,-145.1328 1874,-182 1874,-182 1874,-182 949.4793,-182 949.4793,-182"/>
<polygon fill="#000000" stroke="#000000" points="949.4794,-178.5001 939.4793,-182 949.4793,-185.5001 949.4794,-178.5001"/>
</g>
<!-- TemplateCreateComponent -->
<g id="node2" class="node">
<title>TemplateCreateComponent</title>
<polygon fill="#ffffb3" stroke="#000000" points="1776.2324,-122 1605.7676,-122 1605.7676,-86 1776.2324,-86 1776.2324,-122"/>
<text text-anchor="middle" x="1691" y="-99.8" font-family="Times,serif" font-size="14.00" fill="#000000">TemplateCreateComponent</text>
</g>
<!-- TemplateCreateComponent&#45;&gt;TemplateModule -->
<g id="edge2" class="edge">
<title>TemplateCreateComponent&#45;&gt;TemplateModule</title>
<path fill="none" stroke="#000000" d="M1691,-122.2843C1691,-143.3211 1691,-175 1691,-175 1691,-175 949.4958,-175 949.4958,-175"/>
<polygon fill="#000000" stroke="#000000" points="949.4959,-171.5001 939.4958,-175 949.4958,-178.5001 949.4959,-171.5001"/>
</g>
<!-- TemplateEditableComponent -->
<g id="node3" class="node">
<title>TemplateEditableComponent</title>
<polygon fill="#ffffb3" stroke="#000000" points="1587.3543,-122 1406.6457,-122 1406.6457,-86 1587.3543,-86 1587.3543,-122"/>
<text text-anchor="middle" x="1497" y="-99.8" font-family="Times,serif" font-size="14.00" fill="#000000">TemplateEditableComponent</text>
</g>
<!-- TemplateEditableComponent&#45;&gt;TemplateModule -->
<g id="edge3" class="edge">
<title>TemplateEditableComponent&#45;&gt;TemplateModule</title>
<path fill="none" stroke="#000000" d="M1497,-122.1061C1497,-141.3391 1497,-169 1497,-169 1497,-169 949.3893,-169 949.3893,-169"/>
<polygon fill="#000000" stroke="#000000" points="949.3894,-165.5001 939.3893,-169 949.3893,-172.5001 949.3894,-165.5001"/>
</g>
<!-- TemplateListComponent -->
<g id="node4" class="node">
<title>TemplateListComponent</title>
<polygon fill="#ffffb3" stroke="#000000" points="1388.979,-122 1233.021,-122 1233.021,-86 1388.979,-86 1388.979,-122"/>
<text text-anchor="middle" x="1311" y="-99.8" font-family="Times,serif" font-size="14.00" fill="#000000">TemplateListComponent</text>
</g>
<!-- TemplateListComponent&#45;&gt;TemplateModule -->
<g id="edge4" class="edge">
<title>TemplateListComponent&#45;&gt;TemplateModule</title>
<path fill="none" stroke="#000000" d="M1311,-122.0225C1311,-139.3734 1311,-163 1311,-163 1311,-163 949.3936,-163 949.3936,-163"/>
<polygon fill="#000000" stroke="#000000" points="949.3937,-159.5001 939.3936,-163 949.3936,-166.5001 949.3937,-159.5001"/>
</g>
<!-- TemplateMaterialFormComponent -->
<g id="node5" class="node">
<title>TemplateMaterialFormComponent</title>
<polygon fill="#ffffb3" stroke="#000000" points="1214.9552,-122 1003.0448,-122 1003.0448,-86 1214.9552,-86 1214.9552,-122"/>
<text text-anchor="middle" x="1109" y="-99.8" font-family="Times,serif" font-size="14.00" fill="#000000">TemplateMaterialFormComponent</text>
</g>
<!-- TemplateMaterialFormComponent&#45;&gt;TemplateModule -->
<g id="edge5" class="edge">
<title>TemplateMaterialFormComponent&#45;&gt;TemplateModule</title>
<path fill="none" stroke="#000000" d="M1109,-122.2396C1109,-137.5706 1109,-157 1109,-157 1109,-157 949.4464,-157 949.4464,-157"/>
<polygon fill="#000000" stroke="#000000" points="949.4464,-153.5001 939.4464,-157 949.4463,-160.5001 949.4464,-153.5001"/>
</g>
<!-- TemplateMaterialListComponent -->
<g id="node6" class="node">
<title>TemplateMaterialListComponent</title>
<polygon fill="#ffffb3" stroke="#000000" points="984.9002,-122 781.0998,-122 781.0998,-86 984.9002,-86 984.9002,-122"/>
<text text-anchor="middle" x="883" y="-99.8" font-family="Times,serif" font-size="14.00" fill="#000000">TemplateMaterialListComponent</text>
</g>
<!-- TemplateMaterialListComponent&#45;&gt;TemplateModule -->
<g id="edge6" class="edge">
<title>TemplateMaterialListComponent&#45;&gt;TemplateModule</title>
<path fill="none" stroke="#000000" d="M883,-122.1061C883,-122.1061 883,-140.991 883,-140.991"/>
<polygon fill="#000000" stroke="#000000" points="879.5001,-140.9909 883,-150.991 886.5001,-140.991 879.5001,-140.9909"/>
</g>
<!-- TemplateRepertoryComponent -->
<g id="node7" class="node">
<title>TemplateRepertoryComponent</title>
<polygon fill="#ffffb3" stroke="#000000" points="763.1783,-122 572.8217,-122 572.8217,-86 763.1783,-86 763.1783,-122"/>
<text text-anchor="middle" x="668" y="-99.8" font-family="Times,serif" font-size="14.00" fill="#000000">TemplateRepertoryComponent</text>
</g>
<!-- TemplateRepertoryComponent&#45;&gt;TemplateModule -->
<g id="edge7" class="edge">
<title>TemplateRepertoryComponent&#45;&gt;TemplateModule</title>
<path fill="none" stroke="#000000" d="M668,-122.2396C668,-137.5706 668,-157 668,-157 668,-157 816.5113,-157 816.5113,-157"/>
<polygon fill="#000000" stroke="#000000" points="816.5113,-160.5001 826.5113,-157 816.5112,-153.5001 816.5113,-160.5001"/>
</g>
<!-- ConfirmModule -->
<g id="node9" class="node">
<title>ConfirmModule</title>
<polygon fill="#8dd3c7" stroke="#000000" points="549.4888,-122 546.4888,-126 525.4888,-126 522.4888,-122 442.5112,-122 442.5112,-86 549.4888,-86 549.4888,-122"/>
<text text-anchor="middle" x="496" y="-99.8" font-family="Times,serif" font-size="14.00" fill="#000000">ConfirmModule</text>
</g>
<!-- ConfirmModule&#45;&gt;TemplateModule -->
<g id="edge8" class="edge">
<title>ConfirmModule&#45;&gt;TemplateModule</title>
<path fill="none" stroke="#000000" d="M496,-122.0225C496,-139.3734 496,-163 496,-163 496,-163 816.7269,-163 816.7269,-163"/>
<polygon fill="#000000" stroke="#000000" points="816.7269,-166.5001 826.7269,-163 816.7268,-159.5001 816.7269,-166.5001"/>
</g>
<!-- EditableModule -->
<g id="node10" class="node">
<title>EditableModule</title>
<polygon fill="#8dd3c7" stroke="#000000" points="424.2036,-122 421.2036,-126 400.2036,-126 397.2036,-122 317.7964,-122 317.7964,-86 424.2036,-86 424.2036,-122"/>
<text text-anchor="middle" x="371" y="-99.8" font-family="Times,serif" font-size="14.00" fill="#000000">EditableModule</text>
</g>
<!-- EditableModule&#45;&gt;TemplateModule -->
<g id="edge9" class="edge">
<title>EditableModule&#45;&gt;TemplateModule</title>
<path fill="none" stroke="#000000" d="M371,-122.1061C371,-141.3391 371,-169 371,-169 371,-169 816.7424,-169 816.7424,-169"/>
<polygon fill="#000000" stroke="#000000" points="816.7425,-172.5001 826.7424,-169 816.7424,-165.5001 816.7425,-172.5001"/>
</g>
<!-- EditableSidenavModule -->
<g id="node11" class="node">
<title>EditableSidenavModule</title>
<polygon fill="#8dd3c7" stroke="#000000" points="299.8061,-122 296.8061,-126 275.8061,-126 272.8061,-122 148.1939,-122 148.1939,-86 299.8061,-86 299.8061,-122"/>
<text text-anchor="middle" x="224" y="-99.8" font-family="Times,serif" font-size="14.00" fill="#000000">EditableSidenavModule</text>
</g>
<!-- EditableSidenavModule&#45;&gt;TemplateModule -->
<g id="edge10" class="edge">
<title>EditableSidenavModule&#45;&gt;TemplateModule</title>
<path fill="none" stroke="#000000" d="M224,-122.2843C224,-143.3211 224,-175 224,-175 224,-175 816.5291,-175 816.5291,-175"/>
<polygon fill="#000000" stroke="#000000" points="816.5292,-178.5001 826.5291,-175 816.5291,-171.5001 816.5292,-178.5001"/>
</g>
<!-- MaterialModule -->
<g id="node12" class="node">
<title>MaterialModule</title>
<polygon fill="#8dd3c7" stroke="#000000" points="130.4706,-122 127.4706,-126 106.4706,-126 103.4706,-122 23.5294,-122 23.5294,-86 130.4706,-86 130.4706,-122"/>
<text text-anchor="middle" x="77" y="-99.8" font-family="Times,serif" font-size="14.00" fill="#000000">MaterialModule</text>
</g>
<!-- MaterialModule&#45;&gt;TemplateModule -->
<g id="edge11" class="edge">
<title>MaterialModule&#45;&gt;TemplateModule</title>
<path fill="none" stroke="#000000" d="M77,-122.0908C77,-145.1328 77,-182 77,-182 77,-182 816.644,-182 816.644,-182"/>
<polygon fill="#000000" stroke="#000000" points="816.644,-185.5001 826.644,-182 816.644,-178.5001 816.644,-185.5001"/>
</g>
</g>
</svg>
