<?xml version="1.0" encoding="UTF-8" standalone="no"?>
<!DOCTYPE svg PUBLIC "-//W3C//DTD SVG 1.1//EN"
 "http://www.w3.org/Graphics/SVG/1.1/DTD/svg11.dtd">
<!-- Generated by graphviz version 2.40.1 (20161225.0304)
 -->
<!-- Title: dependencies Pages: 1 -->
<svg width="1191pt" height="211pt"
 viewBox="0.00 0.00 1191.00 211.00" xmlns="http://www.w3.org/2000/svg" xmlns:xlink="http://www.w3.org/1999/xlink">
<g id="graph0" class="graph" transform="scale(1 1) rotate(0) translate(4 207)">
<title>dependencies</title>
<polygon fill="#ffffff" stroke="transparent" points="-4,4 -4,-207 1187,-207 1187,4 -4,4"/>
<text text-anchor="start" x="570.5091" y="-42.4" font-family="sans-serif" font-weight="bold" font-size="14.00" fill="#000000">Legend</text>
<polygon fill="#ffffb3" stroke="transparent" points="357.5,-10 357.5,-30 377.5,-30 377.5,-10 357.5,-10"/>
<text text-anchor="start" x="381.129" y="-15.4" font-family="sans-serif" font-size="14.00" fill="#000000"> &#160;Declarations</text>
<polygon fill="#8dd3c7" stroke="transparent" points="470.5,-10 470.5,-30 490.5,-30 490.5,-10 470.5,-10"/>
<text text-anchor="start" x="494.2251" y="-15.4" font-family="sans-serif" font-size="14.00" fill="#000000"> &#160;Module</text>
<polygon fill="#80b1d3" stroke="transparent" points="556.5,-10 556.5,-30 576.5,-30 576.5,-10 556.5,-10"/>
<text text-anchor="start" x="580.2812" y="-15.4" font-family="sans-serif" font-size="14.00" fill="#000000"> &#160;Bootstrap</text>
<polygon fill="#fdb462" stroke="transparent" points="653.5,-10 653.5,-30 673.5,-30 673.5,-10 653.5,-10"/>
<text text-anchor="start" x="677.1732" y="-15.4" font-family="sans-serif" font-size="14.00" fill="#000000"> &#160;Providers</text>
<polygon fill="#fb8072" stroke="transparent" points="749.5,-10 749.5,-30 769.5,-30 769.5,-10 749.5,-10"/>
<text text-anchor="start" x="773.2258" y="-15.4" font-family="sans-serif" font-size="14.00" fill="#000000"> &#160;Exports</text>
<g id="clust1" class="cluster">
<title>cluster_FinancingModule</title>
<polygon fill="none" stroke="#000000" stroke-dasharray="1,5" points="8,-70 8,-195 1175,-195 1175,-70 8,-70"/>
</g>
<g id="clust2" class="cluster">
<title>cluster_FinancingModule_declarations</title>
<polygon fill="none" stroke="#000000" points="16,-78 16,-130 1167,-130 1167,-78 16,-78"/>
</g>
<!-- CardBlacklistComponent -->
<g id="node1" class="node">
<title>CardBlacklistComponent</title>
<polygon fill="#ffffb3" stroke="#000000" points="1159.3173,-122 1000.6827,-122 1000.6827,-86 1159.3173,-86 1159.3173,-122"/>
<text text-anchor="middle" x="1080" y="-99.8" font-family="Times,serif" font-size="14.00" fill="#000000">CardBlacklistComponent</text>
</g>
<!-- FinancingModule -->
<g id="node8" class="node">
<title>FinancingModule</title>
<polygon fill="#8dd3c7" stroke="#000000" points="635.5437,-187 632.5437,-191 611.5437,-191 608.5437,-187 520.4563,-187 520.4563,-151 635.5437,-151 635.5437,-187"/>
<text text-anchor="middle" x="578" y="-164.8" font-family="Times,serif" font-size="14.00" fill="#000000">FinancingModule</text>
</g>
<!-- CardBlacklistComponent&#45;&gt;FinancingModule -->
<g id="edge1" class="edge">
<title>CardBlacklistComponent&#45;&gt;FinancingModule</title>
<path fill="none" stroke="#000000" d="M1080,-122.2921C1080,-144.2057 1080,-178 1080,-178 1080,-178 645.5858,-178 645.5858,-178"/>
<polygon fill="#000000" stroke="#000000" points="645.5858,-174.5001 635.5858,-178 645.5857,-181.5001 645.5858,-174.5001"/>
</g>
<!-- CardHistoryComponent -->
<g id="node2" class="node">
<title>CardHistoryComponent</title>
<polygon fill="#ffffb3" stroke="#000000" points="983.0379,-122 832.9621,-122 832.9621,-86 983.0379,-86 983.0379,-122"/>
<text text-anchor="middle" x="908" y="-99.8" font-family="Times,serif" font-size="14.00" fill="#000000">CardHistoryComponent</text>
</g>
<!-- CardHistoryComponent&#45;&gt;FinancingModule -->
<g id="edge2" class="edge">
<title>CardHistoryComponent&#45;&gt;FinancingModule</title>
<path fill="none" stroke="#000000" d="M908,-122.1061C908,-141.3391 908,-169 908,-169 908,-169 645.8592,-169 645.8592,-169"/>
<polygon fill="#000000" stroke="#000000" points="645.8593,-165.5001 635.8592,-169 645.8592,-172.5001 645.8593,-165.5001"/>
</g>
<!-- CardInvestorComponent -->
<g id="node3" class="node">
<title>CardInvestorComponent</title>
<polygon fill="#ffffb3" stroke="#000000" points="815.4158,-122 660.5842,-122 660.5842,-86 815.4158,-86 815.4158,-122"/>
<text text-anchor="middle" x="738" y="-99.8" font-family="Times,serif" font-size="14.00" fill="#000000">CardInvestorComponent</text>
</g>
<!-- CardInvestorComponent&#45;&gt;FinancingModule -->
<g id="edge3" class="edge">
<title>CardInvestorComponent&#45;&gt;FinancingModule</title>
<path fill="none" stroke="#000000" d="M738,-122.027C738,-138.3976 738,-160 738,-160 738,-160 645.7637,-160 645.7637,-160"/>
<polygon fill="#000000" stroke="#000000" points="645.7637,-156.5001 635.7637,-160 645.7636,-163.5001 645.7637,-156.5001"/>
</g>
<!-- CardStatComponent -->
<g id="node4" class="node">
<title>CardStatComponent</title>
<polygon fill="#ffffb3" stroke="#000000" points="643.323,-122 512.677,-122 512.677,-86 643.323,-86 643.323,-122"/>
<text text-anchor="middle" x="578" y="-99.8" font-family="Times,serif" font-size="14.00" fill="#000000">CardStatComponent</text>
</g>
<!-- CardStatComponent&#45;&gt;FinancingModule -->
<g id="edge4" class="edge">
<title>CardStatComponent&#45;&gt;FinancingModule</title>
<path fill="none" stroke="#000000" d="M578,-122.1061C578,-122.1061 578,-140.991 578,-140.991"/>
<polygon fill="#000000" stroke="#000000" points="574.5001,-140.9909 578,-150.991 581.5001,-140.991 574.5001,-140.9909"/>
</g>
<!-- CardViewComponent -->
<g id="node5" class="node">
<title>CardViewComponent</title>
<polygon fill="#ffffb3" stroke="#000000" points="494.3627,-122 355.6373,-122 355.6373,-86 494.3627,-86 494.3627,-122"/>
<text text-anchor="middle" x="425" y="-99.8" font-family="Times,serif" font-size="14.00" fill="#000000">CardViewComponent</text>
</g>
<!-- CardViewComponent&#45;&gt;FinancingModule -->
<g id="edge5" class="edge">
<title>CardViewComponent&#45;&gt;FinancingModule</title>
<path fill="none" stroke="#000000" d="M425,-122.027C425,-138.3976 425,-160 425,-160 425,-160 510.1573,-160 510.1573,-160"/>
<polygon fill="#000000" stroke="#000000" points="510.1573,-163.5001 520.1573,-160 510.1572,-156.5001 510.1573,-163.5001"/>
</g>
<!-- DashboardComponent -->
<g id="node6" class="node">
<title>DashboardComponent</title>
<polygon fill="#ffffb3" stroke="#000000" points="337.9734,-122 196.0266,-122 196.0266,-86 337.9734,-86 337.9734,-122"/>
<text text-anchor="middle" x="267" y="-99.8" font-family="Times,serif" font-size="14.00" fill="#000000">DashboardComponent</text>
</g>
<!-- DashboardComponent&#45;&gt;FinancingModule -->
<g id="edge6" class="edge">
<title>DashboardComponent&#45;&gt;FinancingModule</title>
<path fill="none" stroke="#000000" d="M267,-122.1061C267,-141.3391 267,-169 267,-169 267,-169 510.2321,-169 510.2321,-169"/>
<polygon fill="#000000" stroke="#000000" points="510.2322,-172.5001 520.2321,-169 510.2321,-165.5001 510.2322,-172.5001"/>
</g>
<!-- ManagementComponent -->
<g id="node7" class="node">
<title>ManagementComponent</title>
<polygon fill="#ffffb3" stroke="#000000" points="178.4172,-122 23.5828,-122 23.5828,-86 178.4172,-86 178.4172,-122"/>
<text text-anchor="middle" x="101" y="-99.8" font-family="Times,serif" font-size="14.00" fill="#000000">ManagementComponent</text>
</g>
<!-- ManagementComponent&#45;&gt;FinancingModule -->
<g id="edge7" class="edge">
<title>ManagementComponent&#45;&gt;FinancingModule</title>
<path fill="none" stroke="#000000" d="M101,-122.2921C101,-144.2057 101,-178 101,-178 101,-178 509.9873,-178 509.9873,-178"/>
<polygon fill="#000000" stroke="#000000" points="509.9874,-181.5001 519.9873,-178 509.9873,-174.5001 509.9874,-181.5001"/>
</g>
</g>
</svg>
