<?xml version="1.0" encoding="UTF-8" standalone="no"?>
<!DOCTYPE svg PUBLIC "-//W3C//DTD SVG 1.1//EN"
 "http://www.w3.org/Graphics/SVG/1.1/DTD/svg11.dtd">
<!-- Generated by graphviz version 2.40.1 (20161225.0304)
 -->
<!-- Title: dependencies Pages: 1 -->
<svg width="1693pt" height="284pt"
 viewBox="0.00 0.00 1693.00 284.00" xmlns="http://www.w3.org/2000/svg" xmlns:xlink="http://www.w3.org/1999/xlink">
<g id="graph0" class="graph" transform="scale(1 1) rotate(0) translate(4 280)">
<title>dependencies</title>
<polygon fill="#ffffff" stroke="transparent" points="-4,4 -4,-280 1689,-280 1689,4 -4,4"/>
<text text-anchor="start" x="821.5091" y="-42.4" font-family="sans-serif" font-weight="bold" font-size="14.00" fill="#000000">Legend</text>
<polygon fill="#ffffb3" stroke="transparent" points="608.5,-10 608.5,-30 628.5,-30 628.5,-10 608.5,-10"/>
<text text-anchor="start" x="632.129" y="-15.4" font-family="sans-serif" font-size="14.00" fill="#000000"> &#160;Declarations</text>
<polygon fill="#8dd3c7" stroke="transparent" points="721.5,-10 721.5,-30 741.5,-30 741.5,-10 721.5,-10"/>
<text text-anchor="start" x="745.2251" y="-15.4" font-family="sans-serif" font-size="14.00" fill="#000000"> &#160;Module</text>
<polygon fill="#80b1d3" stroke="transparent" points="807.5,-10 807.5,-30 827.5,-30 827.5,-10 807.5,-10"/>
<text text-anchor="start" x="831.2812" y="-15.4" font-family="sans-serif" font-size="14.00" fill="#000000"> &#160;Bootstrap</text>
<polygon fill="#fdb462" stroke="transparent" points="904.5,-10 904.5,-30 924.5,-30 924.5,-10 904.5,-10"/>
<text text-anchor="start" x="928.1732" y="-15.4" font-family="sans-serif" font-size="14.00" fill="#000000"> &#160;Providers</text>
<polygon fill="#fb8072" stroke="transparent" points="1000.5,-10 1000.5,-30 1020.5,-30 1020.5,-10 1000.5,-10"/>
<text text-anchor="start" x="1024.2258" y="-15.4" font-family="sans-serif" font-size="14.00" fill="#000000"> &#160;Exports</text>
<g id="clust1" class="cluster">
<title>cluster_ProfileModule</title>
<polygon fill="none" stroke="#000000" stroke-dasharray="1,5" points="8,-70 8,-268 1677,-268 1677,-70 8,-70"/>
</g>
<g id="clust2" class="cluster">
<title>cluster_ProfileModule_declarations</title>
<polygon fill="none" stroke="#000000" points="432,-78 432,-130 1669,-130 1669,-78 432,-78"/>
</g>
<g id="clust10" class="cluster">
<title>cluster_ProfileModule_imports</title>
<polygon fill="none" stroke="#000000" points="16,-78 16,-130 424,-130 424,-78 16,-78"/>
</g>
<g id="clust11" class="cluster">
<title>cluster_ProfileModule_exports</title>
<polygon fill="none" stroke="#000000" points="510,-208 510,-260 1042,-260 1042,-208 510,-208"/>
</g>
<!-- PasswordFormComponent -->
<g id="node1" class="node">
<title>PasswordFormComponent</title>
<polygon fill="#ffffb3" stroke="#000000" points="1660.8201,-122 1495.1799,-122 1495.1799,-86 1660.8201,-86 1660.8201,-122"/>
<text text-anchor="middle" x="1578" y="-99.8" font-family="Times,serif" font-size="14.00" fill="#000000">PasswordFormComponent</text>
</g>
<!-- ProfileModule -->
<g id="node8" class="node">
<title>ProfileModule</title>
<polygon fill="#8dd3c7" stroke="#000000" points="826.65,-187 823.65,-191 802.65,-191 799.65,-187 729.35,-187 729.35,-151 826.65,-151 826.65,-187"/>
<text text-anchor="middle" x="778" y="-164.8" font-family="Times,serif" font-size="14.00" fill="#000000">ProfileModule</text>
</g>
<!-- PasswordFormComponent&#45;&gt;ProfileModule -->
<g id="edge1" class="edge">
<title>PasswordFormComponent&#45;&gt;ProfileModule</title>
<path fill="none" stroke="#000000" d="M1578,-122.2843C1578,-143.3211 1578,-175 1578,-175 1578,-175 836.8393,-175 836.8393,-175"/>
<polygon fill="#000000" stroke="#000000" points="836.8394,-171.5001 826.8393,-175 836.8393,-178.5001 836.8394,-171.5001"/>
</g>
<!-- ProfileDeleteComponent -->
<g id="node2" class="node">
<title>ProfileDeleteComponent</title>
<polygon fill="#ffffb3" stroke="#000000" points="1476.9636,-122 1321.0364,-122 1321.0364,-86 1476.9636,-86 1476.9636,-122"/>
<text text-anchor="middle" x="1399" y="-99.8" font-family="Times,serif" font-size="14.00" fill="#000000">ProfileDeleteComponent</text>
</g>
<!-- ProfileDeleteComponent&#45;&gt;ProfileModule -->
<g id="edge2" class="edge">
<title>ProfileDeleteComponent&#45;&gt;ProfileModule</title>
<path fill="none" stroke="#000000" d="M1399,-122.1061C1399,-141.3391 1399,-169 1399,-169 1399,-169 836.7288,-169 836.7288,-169"/>
<polygon fill="#000000" stroke="#000000" points="836.7289,-165.5001 826.7288,-169 836.7288,-172.5001 836.7289,-165.5001"/>
</g>
<!-- ProfileDisplayComponent -->
<g id="node3" class="node">
<title>ProfileDisplayComponent</title>
<polygon fill="#ffffb3" stroke="#000000" points="1303.479,-122 1140.521,-122 1140.521,-86 1303.479,-86 1303.479,-122"/>
<text text-anchor="middle" x="1222" y="-99.8" font-family="Times,serif" font-size="14.00" fill="#000000">ProfileDisplayComponent</text>
</g>
<!-- ProfileDisplayComponent&#45;&gt;ProfileModule -->
<g id="edge3" class="edge">
<title>ProfileDisplayComponent&#45;&gt;ProfileModule</title>
<path fill="none" stroke="#000000" d="M1222,-122.0225C1222,-139.3734 1222,-163 1222,-163 1222,-163 836.7859,-163 836.7859,-163"/>
<polygon fill="#000000" stroke="#000000" points="836.7859,-159.5001 826.7859,-163 836.7858,-166.5001 836.7859,-159.5001"/>
</g>
<!-- ProfileEditableComponent -->
<g id="node4" class="node">
<title>ProfileEditableComponent</title>
<polygon fill="#ffffb3" stroke="#000000" points="1122.0856,-122 955.9144,-122 955.9144,-86 1122.0856,-86 1122.0856,-122"/>
<text text-anchor="middle" x="1039" y="-99.8" font-family="Times,serif" font-size="14.00" fill="#000000">ProfileEditableComponent</text>
</g>
<!-- ProfileEditableComponent&#45;&gt;ProfileModule -->
<g id="edge4" class="edge">
<title>ProfileEditableComponent&#45;&gt;ProfileModule</title>
<path fill="none" stroke="#000000" d="M994.8445,-122.2396C994.8445,-137.5706 994.8445,-157 994.8445,-157 994.8445,-157 836.6641,-157 836.6641,-157"/>
<polygon fill="#000000" stroke="#000000" points="836.6642,-153.5001 826.6641,-157 836.6641,-160.5001 836.6642,-153.5001"/>
</g>
<!-- ProfileFormComponent -->
<g id="node5" class="node">
<title>ProfileFormComponent</title>
<polygon fill="#ffffb3" stroke="#000000" points="937.766,-122 788.234,-122 788.234,-86 937.766,-86 937.766,-122"/>
<text text-anchor="middle" x="863" y="-99.8" font-family="Times,serif" font-size="14.00" fill="#000000">ProfileFormComponent</text>
</g>
<!-- ProfileFormComponent&#45;&gt;ProfileModule -->
<g id="edge5" class="edge">
<title>ProfileFormComponent&#45;&gt;ProfileModule</title>
<path fill="none" stroke="#000000" d="M807.4709,-122.1061C807.4709,-122.1061 807.4709,-140.991 807.4709,-140.991"/>
<polygon fill="#000000" stroke="#000000" points="803.971,-140.9909 807.4709,-150.991 810.971,-140.991 803.971,-140.9909"/>
</g>
<!-- ProfileMenuComponent -->
<g id="node6" class="node">
<title>ProfileMenuComponent</title>
<polygon fill="#ffffb3" stroke="#000000" points="770.0912,-122 617.9088,-122 617.9088,-86 770.0912,-86 770.0912,-122"/>
<text text-anchor="middle" x="694" y="-99.8" font-family="Times,serif" font-size="14.00" fill="#000000">ProfileMenuComponent</text>
</g>
<!-- ProfileMenuComponent&#45;&gt;ProfileModule -->
<g id="edge6" class="edge">
<title>ProfileMenuComponent&#45;&gt;ProfileModule</title>
<path fill="none" stroke="#000000" d="M749.6105,-122.1061C749.6105,-122.1061 749.6105,-140.991 749.6105,-140.991"/>
<polygon fill="#000000" stroke="#000000" points="746.1105,-140.9909 749.6105,-150.991 753.1105,-140.991 746.1105,-140.9909"/>
</g>
<!-- ProfileWidgetComponent -->
<g id="node7" class="node">
<title>ProfileWidgetComponent</title>
<polygon fill="#ffffb3" stroke="#000000" points="600.1428,-122 439.8572,-122 439.8572,-86 600.1428,-86 600.1428,-122"/>
<text text-anchor="middle" x="520" y="-99.8" font-family="Times,serif" font-size="14.00" fill="#000000">ProfileWidgetComponent</text>
</g>
<!-- ProfileWidgetComponent&#45;&gt;ProfileModule -->
<g id="edge7" class="edge">
<title>ProfileWidgetComponent&#45;&gt;ProfileModule</title>
<path fill="none" stroke="#000000" d="M559.125,-122.2396C559.125,-137.5706 559.125,-157 559.125,-157 559.125,-157 719.1526,-157 719.1526,-157"/>
<polygon fill="#000000" stroke="#000000" points="719.1526,-160.5001 729.1526,-157 719.1526,-153.5001 719.1526,-160.5001"/>
</g>
<!-- ProfileDeleteComponent  -->
<g id="node12" class="node">
<title>ProfileDeleteComponent </title>
<polygon fill="#fb8072" stroke="#000000" points="1033.9643,-252 874.0357,-252 874.0357,-216 1033.9643,-216 1033.9643,-252"/>
<text text-anchor="middle" x="954" y="-229.8" font-family="Times,serif" font-size="14.00" fill="#000000">ProfileDeleteComponent </text>
</g>
<!-- ProfileModule&#45;&gt;ProfileDeleteComponent  -->
<g id="edge11" class="edge">
<title>ProfileModule&#45;&gt;ProfileDeleteComponent </title>
<path fill="none" stroke="#000000" stroke-dasharray="5,2" d="M826.7852,-181C862.9793,-181 906.0756,-181 906.0756,-181 906.0756,-181 906.0756,-205.7604 906.0756,-205.7604"/>
<polygon fill="#000000" stroke="#000000" points="902.5756,-205.7604 906.0756,-215.7604 909.5756,-205.7604 902.5756,-205.7604"/>
</g>
<!-- ProfileMenuComponent  -->
<g id="node13" class="node">
<title>ProfileMenuComponent </title>
<polygon fill="#fb8072" stroke="#000000" points="855.5917,-252 700.4083,-252 700.4083,-216 855.5917,-216 855.5917,-252"/>
<text text-anchor="middle" x="778" y="-229.8" font-family="Times,serif" font-size="14.00" fill="#000000">ProfileMenuComponent </text>
</g>
<!-- ProfileModule&#45;&gt;ProfileMenuComponent  -->
<g id="edge12" class="edge">
<title>ProfileModule&#45;&gt;ProfileMenuComponent </title>
<path fill="none" stroke="#000000" stroke-dasharray="5,2" d="M778,-187.1061C778,-187.1061 778,-205.991 778,-205.991"/>
<polygon fill="#000000" stroke="#000000" points="774.5001,-205.9909 778,-215.991 781.5001,-205.991 774.5001,-205.9909"/>
</g>
<!-- ProfileWidgetComponent  -->
<g id="node14" class="node">
<title>ProfileWidgetComponent </title>
<polygon fill="#fb8072" stroke="#000000" points="682.1425,-252 517.8575,-252 517.8575,-216 682.1425,-216 682.1425,-252"/>
<text text-anchor="middle" x="600" y="-229.8" font-family="Times,serif" font-size="14.00" fill="#000000">ProfileWidgetComponent </text>
</g>
<!-- ProfileModule&#45;&gt;ProfileWidgetComponent  -->
<g id="edge13" class="edge">
<title>ProfileModule&#45;&gt;ProfileWidgetComponent </title>
<path fill="none" stroke="#000000" stroke-dasharray="5,2" d="M729.2484,-181C693.0793,-181 650.0128,-181 650.0128,-181 650.0128,-181 650.0128,-205.7604 650.0128,-205.7604"/>
<polygon fill="#000000" stroke="#000000" points="646.5129,-205.7604 650.0128,-215.7604 653.5129,-205.7604 646.5129,-205.7604"/>
</g>
<!-- EditableSidenavModule -->
<g id="node9" class="node">
<title>EditableSidenavModule</title>
<polygon fill="#8dd3c7" stroke="#000000" points="415.8061,-122 412.8061,-126 391.8061,-126 388.8061,-122 264.1939,-122 264.1939,-86 415.8061,-86 415.8061,-122"/>
<text text-anchor="middle" x="340" y="-99.8" font-family="Times,serif" font-size="14.00" fill="#000000">EditableSidenavModule</text>
</g>
<!-- EditableSidenavModule&#45;&gt;ProfileModule -->
<g id="edge8" class="edge">
<title>EditableSidenavModule&#45;&gt;ProfileModule</title>
<path fill="none" stroke="#000000" d="M340,-122.0225C340,-139.3734 340,-163 340,-163 340,-163 719.0308,-163 719.0308,-163"/>
<polygon fill="#000000" stroke="#000000" points="719.0308,-166.5001 729.0308,-163 719.0307,-159.5001 719.0308,-166.5001"/>
</g>
<!-- UiFormModule -->
<g id="node10" class="node">
<title>UiFormModule</title>
<polygon fill="#8dd3c7" stroke="#000000" points="245.8809,-122 242.8809,-126 221.8809,-126 218.8809,-122 142.1191,-122 142.1191,-86 245.8809,-86 245.8809,-122"/>
<text text-anchor="middle" x="194" y="-99.8" font-family="Times,serif" font-size="14.00" fill="#000000">UiFormModule</text>
</g>
<!-- UiFormModule&#45;&gt;ProfileModule -->
<g id="edge9" class="edge">
<title>UiFormModule&#45;&gt;ProfileModule</title>
<path fill="none" stroke="#000000" d="M194,-122.1061C194,-141.3391 194,-169 194,-169 194,-169 719.213,-169 719.213,-169"/>
<polygon fill="#000000" stroke="#000000" points="719.213,-172.5001 729.213,-169 719.2129,-165.5001 719.213,-172.5001"/>
</g>
<!-- UploadModule -->
<g id="node11" class="node">
<title>UploadModule</title>
<polygon fill="#8dd3c7" stroke="#000000" points="124.2619,-122 121.2619,-126 100.2619,-126 97.2619,-122 23.7381,-122 23.7381,-86 124.2619,-86 124.2619,-122"/>
<text text-anchor="middle" x="74" y="-99.8" font-family="Times,serif" font-size="14.00" fill="#000000">UploadModule</text>
</g>
<!-- UploadModule&#45;&gt;ProfileModule -->
<g id="edge10" class="edge">
<title>UploadModule&#45;&gt;ProfileModule</title>
<path fill="none" stroke="#000000" d="M74,-122.2843C74,-143.3211 74,-175 74,-175 74,-175 719.3335,-175 719.3335,-175"/>
<polygon fill="#000000" stroke="#000000" points="719.3335,-178.5001 729.3335,-175 719.3334,-171.5001 719.3335,-178.5001"/>
</g>
</g>
</svg>
