<?xml version="1.0" encoding="UTF-8" standalone="no"?>
<!DOCTYPE svg PUBLIC "-//W3C//DTD SVG 1.1//EN"
 "http://www.w3.org/Graphics/SVG/1.1/DTD/svg11.dtd">
<!-- Generated by graphviz version 2.40.1 (20161225.0304)
 -->
<!-- Title: dependencies Pages: 1 -->
<svg width="8321pt" height="211pt"
 viewBox="0.00 0.00 8321.00 211.00" xmlns="http://www.w3.org/2000/svg" xmlns:xlink="http://www.w3.org/1999/xlink">
<g id="graph0" class="graph" transform="scale(1 1) rotate(0) translate(4 207)">
<title>dependencies</title>
<polygon fill="#ffffff" stroke="transparent" points="-4,4 -4,-207 8317,-207 8317,4 -4,4"/>
<text text-anchor="start" x="4135.5091" y="-42.4" font-family="sans-serif" font-weight="bold" font-size="14.00" fill="#000000">Legend</text>
<polygon fill="#ffffb3" stroke="transparent" points="3922.5,-10 3922.5,-30 3942.5,-30 3942.5,-10 3922.5,-10"/>
<text text-anchor="start" x="3946.129" y="-15.4" font-family="sans-serif" font-size="14.00" fill="#000000"> &#160;Declarations</text>
<polygon fill="#8dd3c7" stroke="transparent" points="4035.5,-10 4035.5,-30 4055.5,-30 4055.5,-10 4035.5,-10"/>
<text text-anchor="start" x="4059.2251" y="-15.4" font-family="sans-serif" font-size="14.00" fill="#000000"> &#160;Module</text>
<polygon fill="#80b1d3" stroke="transparent" points="4121.5,-10 4121.5,-30 4141.5,-30 4141.5,-10 4121.5,-10"/>
<text text-anchor="start" x="4145.2812" y="-15.4" font-family="sans-serif" font-size="14.00" fill="#000000"> &#160;Bootstrap</text>
<polygon fill="#fdb462" stroke="transparent" points="4218.5,-10 4218.5,-30 4238.5,-30 4238.5,-10 4218.5,-10"/>
<text text-anchor="start" x="4242.1732" y="-15.4" font-family="sans-serif" font-size="14.00" fill="#000000"> &#160;Providers</text>
<polygon fill="#fb8072" stroke="transparent" points="4314.5,-10 4314.5,-30 4334.5,-30 4334.5,-10 4314.5,-10"/>
<text text-anchor="start" x="4338.2258" y="-15.4" font-family="sans-serif" font-size="14.00" fill="#000000"> &#160;Exports</text>
<g id="clust1" class="cluster">
<title>cluster_DeliveryModule</title>
<polygon fill="none" stroke="#000000" stroke-dasharray="1,5" points="8,-70 8,-195 8305,-195 8305,-70 8,-70"/>
</g>
<g id="clust2" class="cluster">
<title>cluster_DeliveryModule_declarations</title>
<polygon fill="none" stroke="#000000" points="1920,-78 1920,-130 8297,-130 8297,-78 1920,-78"/>
</g>
<g id="clust29" class="cluster">
<title>cluster_DeliveryModule_imports</title>
<polygon fill="none" stroke="#000000" points="16,-78 16,-130 1912,-130 1912,-78 16,-78"/>
</g>
<!-- DeliveryActionsComponent -->
<g id="node1" class="node">
<title>DeliveryActionsComponent</title>
<polygon fill="#ffffb3" stroke="#000000" points="8288.8571,-122 8115.1429,-122 8115.1429,-86 8288.8571,-86 8288.8571,-122"/>
<text text-anchor="middle" x="8202" y="-99.8" font-family="Times,serif" font-size="14.00" fill="#000000">DeliveryActionsComponent</text>
</g>
<!-- DeliveryModule -->
<g id="node27" class="node">
<title>DeliveryModule</title>
<polygon fill="#8dd3c7" stroke="#000000" points="3356.0284,-187 3353.0284,-191 3332.0284,-191 3329.0284,-187 3247.9716,-187 3247.9716,-151 3356.0284,-151 3356.0284,-187"/>
<text text-anchor="middle" x="3302" y="-164.8" font-family="Times,serif" font-size="14.00" fill="#000000">DeliveryModule</text>
</g>
<!-- DeliveryActionsComponent&#45;&gt;DeliveryModule -->
<g id="edge1" class="edge">
<title>DeliveryActionsComponent&#45;&gt;DeliveryModule</title>
<path fill="none" stroke="#000000" d="M8202,-122.1985C8202,-146.3563 8202,-186 8202,-186 8202,-186 3366.1912,-186 3366.1912,-186"/>
<polygon fill="#000000" stroke="#000000" points="3366.1913,-182.5001 3356.1912,-186 3366.1912,-189.5001 3366.1913,-182.5001"/>
</g>
<!-- DeliveryAddChooseStarterComponent -->
<g id="node2" class="node">
<title>DeliveryAddChooseStarterComponent</title>
<polygon fill="#ffffb3" stroke="#000000" points="8096.7268,-122 7863.2732,-122 7863.2732,-86 8096.7268,-86 8096.7268,-122"/>
<text text-anchor="middle" x="7980" y="-99.8" font-family="Times,serif" font-size="14.00" fill="#000000">DeliveryAddChooseStarterComponent</text>
</g>
<!-- DeliveryAddChooseStarterComponent&#45;&gt;DeliveryModule -->
<g id="edge2" class="edge">
<title>DeliveryAddChooseStarterComponent&#45;&gt;DeliveryModule</title>
<path fill="none" stroke="#000000" d="M7980,-122.1532C7980,-145.7566 7980,-184 7980,-184 7980,-184 3366.1539,-184 3366.1539,-184"/>
<polygon fill="#000000" stroke="#000000" points="3366.1539,-180.5001 3356.1539,-184 3366.1539,-187.5001 3366.1539,-180.5001"/>
</g>
<!-- DeliveryAddFindMovieComponent -->
<g id="node3" class="node">
<title>DeliveryAddFindMovieComponent</title>
<polygon fill="#ffffb3" stroke="#000000" points="7845.1399,-122 7628.8601,-122 7628.8601,-86 7845.1399,-86 7845.1399,-122"/>
<text text-anchor="middle" x="7737" y="-99.8" font-family="Times,serif" font-size="14.00" fill="#000000">DeliveryAddFindMovieComponent</text>
</g>
<!-- DeliveryAddFindMovieComponent&#45;&gt;DeliveryModule -->
<g id="edge3" class="edge">
<title>DeliveryAddFindMovieComponent&#45;&gt;DeliveryModule</title>
<path fill="none" stroke="#000000" d="M7737,-122.0908C7737,-145.1328 7737,-182 7737,-182 7737,-182 3366.0782,-182 3366.0782,-182"/>
<polygon fill="#000000" stroke="#000000" points="3366.0782,-178.5001 3356.0782,-182 3366.0781,-185.5001 3366.0782,-178.5001"/>
</g>
<!-- DeliveryAddSettingsComponent -->
<g id="node4" class="node">
<title>DeliveryAddSettingsComponent</title>
<polygon fill="#ffffb3" stroke="#000000" points="7610.5308,-122 7411.4692,-122 7411.4692,-86 7610.5308,-86 7610.5308,-122"/>
<text text-anchor="middle" x="7511" y="-99.8" font-family="Times,serif" font-size="14.00" fill="#000000">DeliveryAddSettingsComponent</text>
</g>
<!-- DeliveryAddSettingsComponent&#45;&gt;DeliveryModule -->
<g id="edge4" class="edge">
<title>DeliveryAddSettingsComponent&#45;&gt;DeliveryModule</title>
<path fill="none" stroke="#000000" d="M7511,-122.0109C7511,-144.4852 7511,-180 7511,-180 7511,-180 3366.3699,-180 3366.3699,-180"/>
<polygon fill="#000000" stroke="#000000" points="3366.3699,-176.5001 3356.3699,-180 3366.3699,-183.5001 3366.3699,-176.5001"/>
</g>
<!-- DeliveryAddSpecificDeliveryListPickerComponent -->
<g id="node5" class="node">
<title>DeliveryAddSpecificDeliveryListPickerComponent</title>
<polygon fill="#ffffb3" stroke="#000000" points="7393.3039,-122 7086.6961,-122 7086.6961,-86 7393.3039,-86 7393.3039,-122"/>
<text text-anchor="middle" x="7240" y="-99.8" font-family="Times,serif" font-size="14.00" fill="#000000">DeliveryAddSpecificDeliveryListPickerComponent</text>
</g>
<!-- DeliveryAddSpecificDeliveryListPickerComponent&#45;&gt;DeliveryModule -->
<g id="edge5" class="edge">
<title>DeliveryAddSpecificDeliveryListPickerComponent&#45;&gt;DeliveryModule</title>
<path fill="none" stroke="#000000" d="M7240,-122.2921C7240,-144.2057 7240,-178 7240,-178 7240,-178 3366.1702,-178 3366.1702,-178"/>
<polygon fill="#000000" stroke="#000000" points="3366.1702,-174.5001 3356.1702,-178 3366.1701,-181.5001 3366.1702,-174.5001"/>
</g>
<!-- DeliveryAddTemplatePickerComponent -->
<g id="node6" class="node">
<title>DeliveryAddTemplatePickerComponent</title>
<polygon fill="#ffffb3" stroke="#000000" points="7068.5478,-122 6825.4522,-122 6825.4522,-86 7068.5478,-86 7068.5478,-122"/>
<text text-anchor="middle" x="6947" y="-99.8" font-family="Times,serif" font-size="14.00" fill="#000000">DeliveryAddTemplatePickerComponent</text>
</g>
<!-- DeliveryAddTemplatePickerComponent&#45;&gt;DeliveryModule -->
<g id="edge6" class="edge">
<title>DeliveryAddTemplatePickerComponent&#45;&gt;DeliveryModule</title>
<path fill="none" stroke="#000000" d="M6947,-122.0449C6947,-143.6623 6947,-177 6947,-177 6947,-177 3366.3549,-177 3366.3549,-177"/>
<polygon fill="#000000" stroke="#000000" points="3366.3549,-173.5001 3356.3549,-177 3366.3548,-180.5001 3366.3549,-173.5001"/>
</g>
<!-- DeliveryEditableComponent -->
<g id="node7" class="node">
<title>DeliveryEditableComponent</title>
<polygon fill="#ffffb3" stroke="#000000" points="6807.4636,-122 6630.5364,-122 6630.5364,-86 6807.4636,-86 6807.4636,-122"/>
<text text-anchor="middle" x="6719" y="-99.8" font-family="Times,serif" font-size="14.00" fill="#000000">DeliveryEditableComponent</text>
</g>
<!-- DeliveryEditableComponent&#45;&gt;DeliveryModule -->
<g id="edge7" class="edge">
<title>DeliveryEditableComponent&#45;&gt;DeliveryModule</title>
<path fill="none" stroke="#000000" d="M6719,-122.2843C6719,-143.3211 6719,-175 6719,-175 6719,-175 3366.3628,-175 3366.3628,-175"/>
<polygon fill="#000000" stroke="#000000" points="3366.3629,-171.5001 3356.3628,-175 3366.3628,-178.5001 3366.3629,-171.5001"/>
</g>
<!-- DeliveryInformationsDatesDisplayComponent -->
<g id="node8" class="node">
<title>DeliveryInformationsDatesDisplayComponent</title>
<polygon fill="#ffffb3" stroke="#000000" points="6612.0408,-122 6333.9592,-122 6333.9592,-86 6612.0408,-86 6612.0408,-122"/>
<text text-anchor="middle" x="6473" y="-99.8" font-family="Times,serif" font-size="14.00" fill="#000000">DeliveryInformationsDatesDisplayComponent</text>
</g>
<!-- DeliveryInformationsDatesDisplayComponent&#45;&gt;DeliveryModule -->
<g id="edge8" class="edge">
<title>DeliveryInformationsDatesDisplayComponent&#45;&gt;DeliveryModule</title>
<path fill="none" stroke="#000000" d="M6473,-122.1289C6473,-142.5724 6473,-173 6473,-173 6473,-173 3366.0393,-173 3366.0393,-173"/>
<polygon fill="#000000" stroke="#000000" points="3366.0394,-169.5001 3356.0393,-173 3366.0393,-176.5001 3366.0394,-169.5001"/>
</g>
<!-- DeliveryInformationsDatesFormComponent -->
<g id="node9" class="node">
<title>DeliveryInformationsDatesFormComponent</title>
<polygon fill="#ffffb3" stroke="#000000" points="6316.3277,-122 6051.6723,-122 6051.6723,-86 6316.3277,-86 6316.3277,-122"/>
<text text-anchor="middle" x="6184" y="-99.8" font-family="Times,serif" font-size="14.00" fill="#000000">DeliveryInformationsDatesFormComponent</text>
</g>
<!-- DeliveryInformationsDatesFormComponent&#45;&gt;DeliveryModule -->
<g id="edge9" class="edge">
<title>DeliveryInformationsDatesFormComponent&#45;&gt;DeliveryModule</title>
<path fill="none" stroke="#000000" d="M6184,-122.308C6184,-142.1455 6184,-171 6184,-171 6184,-171 3366.0485,-171 3366.0485,-171"/>
<polygon fill="#000000" stroke="#000000" points="3366.0485,-167.5001 3356.0485,-171 3366.0484,-174.5001 3366.0485,-167.5001"/>
</g>
<!-- DeliveryInformationsDeadlinesFormComponent -->
<g id="node10" class="node">
<title>DeliveryInformationsDeadlinesFormComponent</title>
<polygon fill="#ffffb3" stroke="#000000" points="6033.4328,-122 5744.5672,-122 5744.5672,-86 6033.4328,-86 6033.4328,-122"/>
<text text-anchor="middle" x="5889" y="-99.8" font-family="Times,serif" font-size="14.00" fill="#000000">DeliveryInformationsDeadlinesFormComponent</text>
</g>
<!-- DeliveryInformationsDeadlinesFormComponent&#45;&gt;DeliveryModule -->
<g id="edge10" class="edge">
<title>DeliveryInformationsDeadlinesFormComponent&#45;&gt;DeliveryModule</title>
<path fill="none" stroke="#000000" d="M5889,-122.1061C5889,-141.3391 5889,-169 5889,-169 5889,-169 3366.0332,-169 3366.0332,-169"/>
<polygon fill="#000000" stroke="#000000" points="3366.0332,-165.5001 3356.0332,-169 3366.0331,-172.5001 3366.0332,-165.5001"/>
</g>
<!-- DeliveryInformationsDeadlinesRepertoryComponent -->
<g id="node11" class="node">
<title>DeliveryInformationsDeadlinesRepertoryComponent</title>
<polygon fill="#ffffb3" stroke="#000000" points="5726.0769,-122 5411.9231,-122 5411.9231,-86 5726.0769,-86 5726.0769,-122"/>
<text text-anchor="middle" x="5569" y="-99.8" font-family="Times,serif" font-size="14.00" fill="#000000">DeliveryInformationsDeadlinesRepertoryComponent</text>
</g>
<!-- DeliveryInformationsDeadlinesRepertoryComponent&#45;&gt;DeliveryModule -->
<g id="edge11" class="edge">
<title>DeliveryInformationsDeadlinesRepertoryComponent&#45;&gt;DeliveryModule</title>
<path fill="none" stroke="#000000" d="M5569,-122.1686C5569,-141.0898 5569,-168 5569,-168 5569,-168 3366.0797,-168 3366.0797,-168"/>
<polygon fill="#000000" stroke="#000000" points="3366.0797,-164.5001 3356.0797,-168 3366.0797,-171.5001 3366.0797,-164.5001"/>
</g>
<!-- DeliveryInformationsEditableComponent -->
<g id="node12" class="node">
<title>DeliveryInformationsEditableComponent</title>
<polygon fill="#ffffb3" stroke="#000000" points="5393.7766,-122 5144.2234,-122 5144.2234,-86 5393.7766,-86 5393.7766,-122"/>
<text text-anchor="middle" x="5269" y="-99.8" font-family="Times,serif" font-size="14.00" fill="#000000">DeliveryInformationsEditableComponent</text>
</g>
<!-- DeliveryInformationsEditableComponent&#45;&gt;DeliveryModule -->
<g id="edge12" class="edge">
<title>DeliveryInformationsEditableComponent&#45;&gt;DeliveryModule</title>
<path fill="none" stroke="#000000" d="M5269,-122.2667C5269,-140.5552 5269,-166 5269,-166 5269,-166 3366.1461,-166 3366.1461,-166"/>
<polygon fill="#000000" stroke="#000000" points="3366.1461,-162.5001 3356.1461,-166 3366.1461,-169.5001 3366.1461,-162.5001"/>
</g>
<!-- DeliveryInformationsStakeholdersComponent -->
<g id="node13" class="node">
<title>DeliveryInformationsStakeholdersComponent</title>
<polygon fill="#ffffb3" stroke="#000000" points="5126.4356,-122 4851.5644,-122 4851.5644,-86 5126.4356,-86 5126.4356,-122"/>
<text text-anchor="middle" x="4989" y="-99.8" font-family="Times,serif" font-size="14.00" fill="#000000">DeliveryInformationsStakeholdersComponent</text>
</g>
<!-- DeliveryInformationsStakeholdersComponent&#45;&gt;DeliveryModule -->
<g id="edge13" class="edge">
<title>DeliveryInformationsStakeholdersComponent&#45;&gt;DeliveryModule</title>
<path fill="none" stroke="#000000" d="M4989,-122.002C4989,-139.6754 4989,-164 4989,-164 4989,-164 3366.2188,-164 3366.2188,-164"/>
<polygon fill="#000000" stroke="#000000" points="3366.2189,-160.5001 3356.2188,-164 3366.2188,-167.5001 3366.2189,-160.5001"/>
</g>
<!-- DeliveryInformationsStepsFormComponent -->
<g id="node14" class="node">
<title>DeliveryInformationsStepsFormComponent</title>
<polygon fill="#ffffb3" stroke="#000000" points="4833.7892,-122 4570.2108,-122 4570.2108,-86 4833.7892,-86 4833.7892,-122"/>
<text text-anchor="middle" x="4702" y="-99.8" font-family="Times,serif" font-size="14.00" fill="#000000">DeliveryInformationsStepsFormComponent</text>
</g>
<!-- DeliveryInformationsStepsFormComponent&#45;&gt;DeliveryModule -->
<g id="edge14" class="edge">
<title>DeliveryInformationsStepsFormComponent&#45;&gt;DeliveryModule</title>
<path fill="none" stroke="#000000" d="M4702,-122.0336C4702,-139.0597 4702,-162 4702,-162 4702,-162 3366.452,-162 3366.452,-162"/>
<polygon fill="#000000" stroke="#000000" points="3366.452,-158.5001 3356.452,-162 3366.4519,-165.5001 3366.452,-158.5001"/>
</g>
<!-- DeliveryInformationsStepsRepertoryComponent -->
<g id="node15" class="node">
<title>DeliveryInformationsStepsRepertoryComponent</title>
<polygon fill="#ffffb3" stroke="#000000" points="4552.4328,-122 4263.5672,-122 4263.5672,-86 4552.4328,-86 4552.4328,-122"/>
<text text-anchor="middle" x="4408" y="-99.8" font-family="Times,serif" font-size="14.00" fill="#000000">DeliveryInformationsStepsRepertoryComponent</text>
</g>
<!-- DeliveryInformationsStepsRepertoryComponent&#45;&gt;DeliveryModule -->
<g id="edge15" class="edge">
<title>DeliveryInformationsStepsRepertoryComponent&#45;&gt;DeliveryModule</title>
<path fill="none" stroke="#000000" d="M4408,-122.027C4408,-138.3976 4408,-160 4408,-160 4408,-160 3366.0934,-160 3366.0934,-160"/>
<polygon fill="#000000" stroke="#000000" points="3366.0934,-156.5001 3356.0934,-160 3366.0933,-163.5001 3366.0934,-156.5001"/>
</g>
<!-- DeliveryListComponent -->
<g id="node16" class="node">
<title>DeliveryListComponent</title>
<polygon fill="#ffffb3" stroke="#000000" points="4245.0884,-122 4092.9116,-122 4092.9116,-86 4245.0884,-86 4245.0884,-122"/>
<text text-anchor="middle" x="4169" y="-99.8" font-family="Times,serif" font-size="14.00" fill="#000000">DeliveryListComponent</text>
</g>
<!-- DeliveryListComponent&#45;&gt;DeliveryModule -->
<g id="edge16" class="edge">
<title>DeliveryListComponent&#45;&gt;DeliveryModule</title>
<path fill="none" stroke="#000000" d="M4169,-122.0091C4169,-138.0494 4169,-159 4169,-159 4169,-159 3366.2347,-159 3366.2347,-159"/>
<polygon fill="#000000" stroke="#000000" points="3366.2348,-155.5001 3356.2347,-159 3366.2347,-162.5001 3366.2348,-155.5001"/>
</g>
<!-- DeliveryMaterialFormComponent -->
<g id="node17" class="node">
<title>DeliveryMaterialFormComponent</title>
<polygon fill="#ffffb3" stroke="#000000" points="4075.0646,-122 3866.9354,-122 3866.9354,-86 4075.0646,-86 4075.0646,-122"/>
<text text-anchor="middle" x="3971" y="-99.8" font-family="Times,serif" font-size="14.00" fill="#000000">DeliveryMaterialFormComponent</text>
</g>
<!-- DeliveryMaterialFormComponent&#45;&gt;DeliveryModule -->
<g id="edge17" class="edge">
<title>DeliveryMaterialFormComponent&#45;&gt;DeliveryModule</title>
<path fill="none" stroke="#000000" d="M3971,-122.2396C3971,-137.5706 3971,-157 3971,-157 3971,-157 3366.1804,-157 3366.1804,-157"/>
<polygon fill="#000000" stroke="#000000" points="3366.1804,-153.5001 3356.1804,-157 3366.1804,-160.5001 3366.1804,-153.5001"/>
</g>
<!-- DeliveryMaterialListComponent -->
<g id="node18" class="node">
<title>DeliveryMaterialListComponent</title>
<polygon fill="#ffffb3" stroke="#000000" points="3848.5098,-122 3649.4902,-122 3649.4902,-86 3848.5098,-86 3848.5098,-122"/>
<text text-anchor="middle" x="3749" y="-99.8" font-family="Times,serif" font-size="14.00" fill="#000000">DeliveryMaterialListComponent</text>
</g>
<!-- DeliveryMaterialListComponent&#45;&gt;DeliveryModule -->
<g id="edge18" class="edge">
<title>DeliveryMaterialListComponent&#45;&gt;DeliveryModule</title>
<path fill="none" stroke="#000000" d="M3749,-122.1243C3749,-136.7832 3749,-155 3749,-155 3749,-155 3366.3641,-155 3366.3641,-155"/>
<polygon fill="#000000" stroke="#000000" points="3366.3641,-151.5001 3356.3641,-155 3366.3641,-158.5001 3366.3641,-151.5001"/>
</g>
<!-- DeliveryRepertoryComponent -->
<g id="node19" class="node">
<title>DeliveryRepertoryComponent</title>
<polygon fill="#ffffb3" stroke="#000000" points="3631.2878,-122 3444.7122,-122 3444.7122,-86 3631.2878,-86 3631.2878,-122"/>
<text text-anchor="middle" x="3538" y="-99.8" font-family="Times,serif" font-size="14.00" fill="#000000">DeliveryRepertoryComponent</text>
</g>
<!-- DeliveryRepertoryComponent&#45;&gt;DeliveryModule -->
<g id="edge19" class="edge">
<title>DeliveryRepertoryComponent&#45;&gt;DeliveryModule</title>
<path fill="none" stroke="#000000" d="M3538,-122.2458C3538,-136.1772 3538,-153 3538,-153 3538,-153 3366.1432,-153 3366.1432,-153"/>
<polygon fill="#000000" stroke="#000000" points="3366.1432,-149.5001 3356.1432,-153 3366.1431,-156.5001 3366.1432,-149.5001"/>
</g>
<!-- DeliveryStakeholdersEditableComponent -->
<g id="node20" class="node">
<title>DeliveryStakeholdersEditableComponent</title>
<polygon fill="#ffffb3" stroke="#000000" points="3426.7766,-122 3177.2234,-122 3177.2234,-86 3426.7766,-86 3426.7766,-122"/>
<text text-anchor="middle" x="3302" y="-99.8" font-family="Times,serif" font-size="14.00" fill="#000000">DeliveryStakeholdersEditableComponent</text>
</g>
<!-- DeliveryStakeholdersEditableComponent&#45;&gt;DeliveryModule -->
<g id="edge20" class="edge">
<title>DeliveryStakeholdersEditableComponent&#45;&gt;DeliveryModule</title>
<path fill="none" stroke="#000000" d="M3302,-122.1061C3302,-122.1061 3302,-140.991 3302,-140.991"/>
<polygon fill="#000000" stroke="#000000" points="3298.5001,-140.9909 3302,-150.991 3305.5001,-140.991 3298.5001,-140.9909"/>
</g>
<!-- DeliveryStakeholdersRepertoryComponent -->
<g id="node21" class="node">
<title>DeliveryStakeholdersRepertoryComponent</title>
<polygon fill="#ffffb3" stroke="#000000" points="3159.1007,-122 2900.8993,-122 2900.8993,-86 3159.1007,-86 3159.1007,-122"/>
<text text-anchor="middle" x="3030" y="-99.8" font-family="Times,serif" font-size="14.00" fill="#000000">DeliveryStakeholdersRepertoryComponent</text>
</g>
<!-- DeliveryStakeholdersRepertoryComponent&#45;&gt;DeliveryModule -->
<g id="edge21" class="edge">
<title>DeliveryStakeholdersRepertoryComponent&#45;&gt;DeliveryModule</title>
<path fill="none" stroke="#000000" d="M3030,-122.2458C3030,-136.1772 3030,-153 3030,-153 3030,-153 3237.9363,-153 3237.9363,-153"/>
<polygon fill="#000000" stroke="#000000" points="3237.9364,-156.5001 3247.9363,-153 3237.9363,-149.5001 3237.9364,-156.5001"/>
</g>
<!-- DeliveryStatusesComponent -->
<g id="node22" class="node">
<title>DeliveryStatusesComponent</title>
<polygon fill="#ffffb3" stroke="#000000" points="2883.1923,-122 2706.8077,-122 2706.8077,-86 2883.1923,-86 2883.1923,-122"/>
<text text-anchor="middle" x="2795" y="-99.8" font-family="Times,serif" font-size="14.00" fill="#000000">DeliveryStatusesComponent</text>
</g>
<!-- DeliveryStatusesComponent&#45;&gt;DeliveryModule -->
<g id="edge22" class="edge">
<title>DeliveryStatusesComponent&#45;&gt;DeliveryModule</title>
<path fill="none" stroke="#000000" d="M2795,-122.1243C2795,-136.7832 2795,-155 2795,-155 2795,-155 3237.7421,-155 3237.7421,-155"/>
<polygon fill="#000000" stroke="#000000" points="3237.7422,-158.5001 3247.7421,-155 3237.7421,-151.5001 3237.7422,-158.5001"/>
</g>
<!-- MovieEditableComponent -->
<g id="node23" class="node">
<title>MovieEditableComponent</title>
<polygon fill="#ffffb3" stroke="#000000" points="2689.0365,-122 2524.9635,-122 2524.9635,-86 2689.0365,-86 2689.0365,-122"/>
<text text-anchor="middle" x="2607" y="-99.8" font-family="Times,serif" font-size="14.00" fill="#000000">MovieEditableComponent</text>
</g>
<!-- MovieEditableComponent&#45;&gt;DeliveryModule -->
<g id="edge23" class="edge">
<title>MovieEditableComponent&#45;&gt;DeliveryModule</title>
<path fill="none" stroke="#000000" d="M2607,-122.2396C2607,-137.5706 2607,-157 2607,-157 2607,-157 3237.754,-157 3237.754,-157"/>
<polygon fill="#000000" stroke="#000000" points="3237.754,-160.5001 3247.754,-157 3237.754,-153.5001 3237.754,-160.5001"/>
</g>
<!-- MovieMaterialFormComponent -->
<g id="node24" class="node">
<title>MovieMaterialFormComponent</title>
<polygon fill="#ffffb3" stroke="#000000" points="2506.6371,-122 2311.3629,-122 2311.3629,-86 2506.6371,-86 2506.6371,-122"/>
<text text-anchor="middle" x="2409" y="-99.8" font-family="Times,serif" font-size="14.00" fill="#000000">MovieMaterialFormComponent</text>
</g>
<!-- MovieMaterialFormComponent&#45;&gt;DeliveryModule -->
<g id="edge24" class="edge">
<title>MovieMaterialFormComponent&#45;&gt;DeliveryModule</title>
<path fill="none" stroke="#000000" d="M2409,-122.0091C2409,-138.0494 2409,-159 2409,-159 2409,-159 3237.8169,-159 3237.8169,-159"/>
<polygon fill="#000000" stroke="#000000" points="3237.817,-162.5001 3247.8169,-159 3237.8169,-155.5001 3237.817,-162.5001"/>
</g>
<!-- MovieMaterialListComponent -->
<g id="node25" class="node">
<title>MovieMaterialListComponent</title>
<polygon fill="#ffffb3" stroke="#000000" points="2293.5814,-122 2106.4186,-122 2106.4186,-86 2293.5814,-86 2293.5814,-122"/>
<text text-anchor="middle" x="2200" y="-99.8" font-family="Times,serif" font-size="14.00" fill="#000000">MovieMaterialListComponent</text>
</g>
<!-- MovieMaterialListComponent&#45;&gt;DeliveryModule -->
<g id="edge25" class="edge">
<title>MovieMaterialListComponent&#45;&gt;DeliveryModule</title>
<path fill="none" stroke="#000000" d="M2200,-122.027C2200,-138.3976 2200,-160 2200,-160 2200,-160 3237.7275,-160 3237.7275,-160"/>
<polygon fill="#000000" stroke="#000000" points="3237.7276,-163.5001 3247.7275,-160 3237.7275,-156.5001 3237.7276,-163.5001"/>
</g>
<!-- NewTemplateComponent -->
<g id="node26" class="node">
<title>NewTemplateComponent</title>
<polygon fill="#ffffb3" stroke="#000000" points="2088.1288,-122 1927.8712,-122 1927.8712,-86 2088.1288,-86 2088.1288,-122"/>
<text text-anchor="middle" x="2008" y="-99.8" font-family="Times,serif" font-size="14.00" fill="#000000">NewTemplateComponent</text>
</g>
<!-- NewTemplateComponent&#45;&gt;DeliveryModule -->
<g id="edge26" class="edge">
<title>NewTemplateComponent&#45;&gt;DeliveryModule</title>
<path fill="none" stroke="#000000" d="M2008,-122.0336C2008,-139.0597 2008,-162 2008,-162 2008,-162 3237.6361,-162 3237.6361,-162"/>
<polygon fill="#000000" stroke="#000000" points="3237.6361,-165.5001 3247.6361,-162 3237.6361,-158.5001 3237.6361,-165.5001"/>
</g>
<!-- ActionsListModule -->
<g id="node28" class="node">
<title>ActionsListModule</title>
<polygon fill="#8dd3c7" stroke="#000000" points="1904.3753,-122 1901.3753,-126 1880.3753,-126 1877.3753,-122 1779.6247,-122 1779.6247,-86 1904.3753,-86 1904.3753,-122"/>
<text text-anchor="middle" x="1842" y="-99.8" font-family="Times,serif" font-size="14.00" fill="#000000">ActionsListModule</text>
</g>
<!-- ActionsListModule&#45;&gt;DeliveryModule -->
<g id="edge27" class="edge">
<title>ActionsListModule&#45;&gt;DeliveryModule</title>
<path fill="none" stroke="#000000" d="M1842,-122.002C1842,-139.6754 1842,-164 1842,-164 1842,-164 3237.8694,-164 3237.8694,-164"/>
<polygon fill="#000000" stroke="#000000" points="3237.8694,-167.5001 3247.8694,-164 3237.8694,-160.5001 3237.8694,-167.5001"/>
</g>
<!-- ActionsPickerListModule -->
<g id="node29" class="node">
<title>ActionsPickerListModule</title>
<polygon fill="#8dd3c7" stroke="#000000" points="1761.1386,-122 1758.1386,-126 1737.1386,-126 1734.1386,-122 1600.8614,-122 1600.8614,-86 1761.1386,-86 1761.1386,-122"/>
<text text-anchor="middle" x="1681" y="-99.8" font-family="Times,serif" font-size="14.00" fill="#000000">ActionsPickerListModule</text>
</g>
<!-- ActionsPickerListModule&#45;&gt;DeliveryModule -->
<g id="edge28" class="edge">
<title>ActionsPickerListModule&#45;&gt;DeliveryModule</title>
<path fill="none" stroke="#000000" d="M1681,-122.2667C1681,-140.5552 1681,-166 1681,-166 1681,-166 3237.6029,-166 3237.6029,-166"/>
<polygon fill="#000000" stroke="#000000" points="3237.6029,-169.5001 3247.6029,-166 3237.6029,-162.5001 3237.6029,-169.5001"/>
</g>
<!-- ActionsPickerModule -->
<g id="node30" class="node">
<title>ActionsPickerModule</title>
<polygon fill="#8dd3c7" stroke="#000000" points="1582.3599,-122 1579.3599,-126 1558.3599,-126 1555.3599,-122 1443.6401,-122 1443.6401,-86 1582.3599,-86 1582.3599,-122"/>
<text text-anchor="middle" x="1513" y="-99.8" font-family="Times,serif" font-size="14.00" fill="#000000">ActionsPickerModule</text>
</g>
<!-- ActionsPickerModule&#45;&gt;DeliveryModule -->
<g id="edge29" class="edge">
<title>ActionsPickerModule&#45;&gt;DeliveryModule</title>
<path fill="none" stroke="#000000" d="M1513,-122.1686C1513,-141.0898 1513,-168 1513,-168 1513,-168 3237.9714,-168 3237.9714,-168"/>
<polygon fill="#000000" stroke="#000000" points="3237.9714,-171.5001 3247.9714,-168 3237.9713,-164.5001 3237.9714,-171.5001"/>
</g>
<!-- AvatarListModule -->
<g id="node31" class="node">
<title>AvatarListModule</title>
<polygon fill="#8dd3c7" stroke="#000000" points="1425.9159,-122 1422.9159,-126 1401.9159,-126 1398.9159,-122 1306.0841,-122 1306.0841,-86 1425.9159,-86 1425.9159,-122"/>
<text text-anchor="middle" x="1366" y="-99.8" font-family="Times,serif" font-size="14.00" fill="#000000">AvatarListModule</text>
</g>
<!-- AvatarListModule&#45;&gt;DeliveryModule -->
<g id="edge30" class="edge">
<title>AvatarListModule&#45;&gt;DeliveryModule</title>
<path fill="none" stroke="#000000" d="M1366,-122.1061C1366,-141.3391 1366,-169 1366,-169 1366,-169 3237.945,-169 3237.945,-169"/>
<polygon fill="#000000" stroke="#000000" points="3237.9451,-172.5001 3247.945,-169 3237.945,-165.5001 3237.9451,-172.5001"/>
</g>
<!-- ConfirmModule -->
<g id="node32" class="node">
<title>ConfirmModule</title>
<polygon fill="#8dd3c7" stroke="#000000" points="1288.4888,-122 1285.4888,-126 1264.4888,-126 1261.4888,-122 1181.5112,-122 1181.5112,-86 1288.4888,-86 1288.4888,-122"/>
<text text-anchor="middle" x="1235" y="-99.8" font-family="Times,serif" font-size="14.00" fill="#000000">ConfirmModule</text>
</g>
<!-- ConfirmModule&#45;&gt;DeliveryModule -->
<g id="edge31" class="edge">
<title>ConfirmModule&#45;&gt;DeliveryModule</title>
<path fill="none" stroke="#000000" d="M1235,-122.308C1235,-142.1455 1235,-171 1235,-171 1235,-171 3237.7752,-171 3237.7752,-171"/>
<polygon fill="#000000" stroke="#000000" points="3237.7753,-174.5001 3247.7752,-171 3237.7752,-167.5001 3237.7753,-174.5001"/>
</g>
<!-- DeliveryRoutingModule -->
<g id="node33" class="node">
<title>DeliveryRoutingModule</title>
<polygon fill="#8dd3c7" stroke="#000000" points="1163.6456,-122 1160.6456,-126 1139.6456,-126 1136.6456,-122 1010.3544,-122 1010.3544,-86 1163.6456,-86 1163.6456,-122"/>
<text text-anchor="middle" x="1087" y="-99.8" font-family="Times,serif" font-size="14.00" fill="#000000">DeliveryRoutingModule</text>
</g>
<!-- DeliveryRoutingModule&#45;&gt;DeliveryModule -->
<g id="edge32" class="edge">
<title>DeliveryRoutingModule&#45;&gt;DeliveryModule</title>
<path fill="none" stroke="#000000" d="M1087,-122.1289C1087,-142.5724 1087,-173 1087,-173 1087,-173 3237.7969,-173 3237.7969,-173"/>
<polygon fill="#000000" stroke="#000000" points="3237.797,-176.5001 3247.7969,-173 3237.7969,-169.5001 3237.797,-176.5001"/>
</g>
<!-- EditableModule -->
<g id="node34" class="node">
<title>EditableModule</title>
<polygon fill="#8dd3c7" stroke="#000000" points="992.2036,-122 989.2036,-126 968.2036,-126 965.2036,-122 885.7964,-122 885.7964,-86 992.2036,-86 992.2036,-122"/>
<text text-anchor="middle" x="939" y="-99.8" font-family="Times,serif" font-size="14.00" fill="#000000">EditableModule</text>
</g>
<!-- EditableModule&#45;&gt;DeliveryModule -->
<g id="edge33" class="edge">
<title>EditableModule&#45;&gt;DeliveryModule</title>
<path fill="none" stroke="#000000" d="M939,-122.2843C939,-143.3211 939,-175 939,-175 939,-175 3237.9223,-175 3237.9223,-175"/>
<polygon fill="#000000" stroke="#000000" points="3237.9223,-178.5001 3247.9223,-175 3237.9222,-171.5001 3237.9223,-178.5001"/>
</g>
<!-- EditableSidenavModule -->
<g id="node35" class="node">
<title>EditableSidenavModule</title>
<polygon fill="#8dd3c7" stroke="#000000" points="867.8061,-122 864.8061,-126 843.8061,-126 840.8061,-122 716.1939,-122 716.1939,-86 867.8061,-86 867.8061,-122"/>
<text text-anchor="middle" x="792" y="-99.8" font-family="Times,serif" font-size="14.00" fill="#000000">EditableSidenavModule</text>
</g>
<!-- EditableSidenavModule&#45;&gt;DeliveryModule -->
<g id="edge34" class="edge">
<title>EditableSidenavModule&#45;&gt;DeliveryModule</title>
<path fill="none" stroke="#000000" d="M792,-122.0449C792,-143.6623 792,-177 792,-177 792,-177 3237.8288,-177 3237.8288,-177"/>
<polygon fill="#000000" stroke="#000000" points="3237.8288,-180.5001 3247.8288,-177 3237.8288,-173.5001 3237.8288,-180.5001"/>
</g>
<!-- FeedbackMessageModule -->
<g id="node36" class="node">
<title>FeedbackMessageModule</title>
<polygon fill="#8dd3c7" stroke="#000000" points="698.1685,-122 695.1685,-126 674.1685,-126 671.1685,-122 535.8315,-122 535.8315,-86 698.1685,-86 698.1685,-122"/>
<text text-anchor="middle" x="617" y="-99.8" font-family="Times,serif" font-size="14.00" fill="#000000">FeedbackMessageModule</text>
</g>
<!-- FeedbackMessageModule&#45;&gt;DeliveryModule -->
<g id="edge35" class="edge">
<title>FeedbackMessageModule&#45;&gt;DeliveryModule</title>
<path fill="none" stroke="#000000" d="M617,-122.2921C617,-144.2057 617,-178 617,-178 617,-178 3237.7594,-178 3237.7594,-178"/>
<polygon fill="#000000" stroke="#000000" points="3237.7594,-181.5001 3247.7594,-178 3237.7593,-174.5001 3237.7594,-181.5001"/>
</g>
<!-- MaterialModule -->
<g id="node37" class="node">
<title>MaterialModule</title>
<polygon fill="#8dd3c7" stroke="#000000" points="517.4706,-122 514.4706,-126 493.4706,-126 490.4706,-122 410.5294,-122 410.5294,-86 517.4706,-86 517.4706,-122"/>
<text text-anchor="middle" x="464" y="-99.8" font-family="Times,serif" font-size="14.00" fill="#000000">MaterialModule</text>
</g>
<!-- MaterialModule&#45;&gt;DeliveryModule -->
<g id="edge36" class="edge">
<title>MaterialModule&#45;&gt;DeliveryModule</title>
<path fill="none" stroke="#000000" d="M464,-122.0109C464,-144.4852 464,-180 464,-180 464,-180 3237.8414,-180 3237.8414,-180"/>
<polygon fill="#000000" stroke="#000000" points="3237.8414,-183.5001 3247.8414,-180 3237.8413,-176.5001 3237.8414,-183.5001"/>
</g>
<!-- MovieModule -->
<g id="node38" class="node">
<title>MovieModule</title>
<polygon fill="#8dd3c7" stroke="#000000" points="392.0997,-122 389.0997,-126 368.0997,-126 365.0997,-122 295.9003,-122 295.9003,-86 392.0997,-86 392.0997,-122"/>
<text text-anchor="middle" x="344" y="-99.8" font-family="Times,serif" font-size="14.00" fill="#000000">MovieModule</text>
</g>
<!-- MovieModule&#45;&gt;DeliveryModule -->
<g id="edge37" class="edge">
<title>MovieModule&#45;&gt;DeliveryModule</title>
<path fill="none" stroke="#000000" d="M344,-122.0908C344,-145.1328 344,-182 344,-182 344,-182 3237.8137,-182 3237.8137,-182"/>
<polygon fill="#000000" stroke="#000000" points="3237.8137,-185.5001 3247.8137,-182 3237.8136,-178.5001 3237.8137,-185.5001"/>
</g>
<!-- OrganizationModule -->
<g id="node39" class="node">
<title>OrganizationModule</title>
<polygon fill="#8dd3c7" stroke="#000000" points="278.1331,-122 275.1331,-126 254.1331,-126 251.1331,-122 145.8669,-122 145.8669,-86 278.1331,-86 278.1331,-122"/>
<text text-anchor="middle" x="212" y="-99.8" font-family="Times,serif" font-size="14.00" fill="#000000">OrganizationModule</text>
</g>
<!-- OrganizationModule&#45;&gt;DeliveryModule -->
<g id="edge38" class="edge">
<title>OrganizationModule&#45;&gt;DeliveryModule</title>
<path fill="none" stroke="#000000" d="M212,-122.1532C212,-145.7566 212,-184 212,-184 212,-184 3237.7134,-184 3237.7134,-184"/>
<polygon fill="#000000" stroke="#000000" points="3237.7134,-187.5001 3247.7134,-184 3237.7134,-180.5001 3237.7134,-187.5001"/>
</g>
<!-- UiFormModule -->
<g id="node40" class="node">
<title>UiFormModule</title>
<polygon fill="#8dd3c7" stroke="#000000" points="127.8809,-122 124.8809,-126 103.8809,-126 100.8809,-122 24.1191,-122 24.1191,-86 127.8809,-86 127.8809,-122"/>
<text text-anchor="middle" x="76" y="-99.8" font-family="Times,serif" font-size="14.00" fill="#000000">UiFormModule</text>
</g>
<!-- UiFormModule&#45;&gt;DeliveryModule -->
<g id="edge39" class="edge">
<title>UiFormModule&#45;&gt;DeliveryModule</title>
<path fill="none" stroke="#000000" d="M76,-122.1985C76,-146.3563 76,-186 76,-186 76,-186 3237.6963,-186 3237.6963,-186"/>
<polygon fill="#000000" stroke="#000000" points="3237.6963,-189.5001 3247.6963,-186 3237.6962,-182.5001 3237.6963,-189.5001"/>
</g>
</g>
</svg>
