<?xml version="1.0" encoding="UTF-8" standalone="no"?>
<!DOCTYPE svg PUBLIC "-//W3C//DTD SVG 1.1//EN"
 "http://www.w3.org/Graphics/SVG/1.1/DTD/svg11.dtd">
<!-- Generated by graphviz version 2.40.1 (20161225.0304)
 -->
<!-- Title: dependencies Pages: 1 -->
<svg width="8139pt" height="211pt"
 viewBox="0.00 0.00 8139.00 211.00" xmlns="http://www.w3.org/2000/svg" xmlns:xlink="http://www.w3.org/1999/xlink">
<g id="graph0" class="graph" transform="scale(1 1) rotate(0) translate(4 207)">
<title>dependencies</title>
<polygon fill="#ffffff" stroke="transparent" points="-4,4 -4,-207 8135,-207 8135,4 -4,4"/>
<text text-anchor="start" x="4044.5091" y="-42.4" font-family="sans-serif" font-weight="bold" font-size="14.00" fill="#000000">Legend</text>
<polygon fill="#ffffb3" stroke="transparent" points="3831.5,-10 3831.5,-30 3851.5,-30 3851.5,-10 3831.5,-10"/>
<text text-anchor="start" x="3855.129" y="-15.4" font-family="sans-serif" font-size="14.00" fill="#000000"> &#160;Declarations</text>
<polygon fill="#8dd3c7" stroke="transparent" points="3944.5,-10 3944.5,-30 3964.5,-30 3964.5,-10 3944.5,-10"/>
<text text-anchor="start" x="3968.2251" y="-15.4" font-family="sans-serif" font-size="14.00" fill="#000000"> &#160;Module</text>
<polygon fill="#80b1d3" stroke="transparent" points="4030.5,-10 4030.5,-30 4050.5,-30 4050.5,-10 4030.5,-10"/>
<text text-anchor="start" x="4054.2812" y="-15.4" font-family="sans-serif" font-size="14.00" fill="#000000"> &#160;Bootstrap</text>
<polygon fill="#fdb462" stroke="transparent" points="4127.5,-10 4127.5,-30 4147.5,-30 4147.5,-10 4127.5,-10"/>
<text text-anchor="start" x="4151.1732" y="-15.4" font-family="sans-serif" font-size="14.00" fill="#000000"> &#160;Providers</text>
<polygon fill="#fb8072" stroke="transparent" points="4223.5,-10 4223.5,-30 4243.5,-30 4243.5,-10 4223.5,-10"/>
<text text-anchor="start" x="4247.2258" y="-15.4" font-family="sans-serif" font-size="14.00" fill="#000000"> &#160;Exports</text>
<g id="clust1" class="cluster">
<title>cluster_DeliveryModule</title>
<polygon fill="none" stroke="#000000" stroke-dasharray="1,5" points="8,-70 8,-195 8123,-195 8123,-70 8,-70"/>
</g>
<g id="clust2" class="cluster">
<title>cluster_DeliveryModule_declarations</title>
<polygon fill="none" stroke="#000000" points="1920,-78 1920,-130 8115,-130 8115,-78 1920,-78"/>
</g>
<g id="clust28" class="cluster">
<title>cluster_DeliveryModule_imports</title>
<polygon fill="none" stroke="#000000" points="16,-78 16,-130 1912,-130 1912,-78 16,-78"/>
</g>
<!-- DeliveryActionsComponent -->
<g id="node1" class="node">
<title>DeliveryActionsComponent</title>
<polygon fill="#ffffb3" stroke="#000000" points="8106.8571,-122 7933.1429,-122 7933.1429,-86 8106.8571,-86 8106.8571,-122"/>
<text text-anchor="middle" x="8020" y="-99.8" font-family="Times,serif" font-size="14.00" fill="#000000">DeliveryActionsComponent</text>
</g>
<!-- DeliveryModule -->
<g id="node26" class="node">
<title>DeliveryModule</title>
<polygon fill="#8dd3c7" stroke="#000000" points="3292.0284,-187 3289.0284,-191 3268.0284,-191 3265.0284,-187 3183.9716,-187 3183.9716,-151 3292.0284,-151 3292.0284,-187"/>
<text text-anchor="middle" x="3238" y="-164.8" font-family="Times,serif" font-size="14.00" fill="#000000">DeliveryModule</text>
</g>
<!-- DeliveryActionsComponent&#45;&gt;DeliveryModule -->
<g id="edge1" class="edge">
<title>DeliveryActionsComponent&#45;&gt;DeliveryModule</title>
<path fill="none" stroke="#000000" d="M8020,-122.1985C8020,-146.3563 8020,-186 8020,-186 8020,-186 3302.1153,-186 3302.1153,-186"/>
<polygon fill="#000000" stroke="#000000" points="3302.1153,-182.5001 3292.1153,-186 3302.1153,-189.5001 3302.1153,-182.5001"/>
</g>
<!-- DeliveryAddChooseStarterComponent -->
<g id="node2" class="node">
<title>DeliveryAddChooseStarterComponent</title>
<polygon fill="#ffffb3" stroke="#000000" points="7914.7268,-122 7681.2732,-122 7681.2732,-86 7914.7268,-86 7914.7268,-122"/>
<text text-anchor="middle" x="7798" y="-99.8" font-family="Times,serif" font-size="14.00" fill="#000000">DeliveryAddChooseStarterComponent</text>
</g>
<!-- DeliveryAddChooseStarterComponent&#45;&gt;DeliveryModule -->
<g id="edge2" class="edge">
<title>DeliveryAddChooseStarterComponent&#45;&gt;DeliveryModule</title>
<path fill="none" stroke="#000000" d="M7798,-122.1532C7798,-145.7566 7798,-184 7798,-184 7798,-184 3302.3876,-184 3302.3876,-184"/>
<polygon fill="#000000" stroke="#000000" points="3302.3877,-180.5001 3292.3876,-184 3302.3876,-187.5001 3302.3877,-180.5001"/>
</g>
<!-- DeliveryAddFindMovieComponent -->
<g id="node3" class="node">
<title>DeliveryAddFindMovieComponent</title>
<polygon fill="#ffffb3" stroke="#000000" points="7663.1399,-122 7446.8601,-122 7446.8601,-86 7663.1399,-86 7663.1399,-122"/>
<text text-anchor="middle" x="7555" y="-99.8" font-family="Times,serif" font-size="14.00" fill="#000000">DeliveryAddFindMovieComponent</text>
</g>
<!-- DeliveryAddFindMovieComponent&#45;&gt;DeliveryModule -->
<g id="edge3" class="edge">
<title>DeliveryAddFindMovieComponent&#45;&gt;DeliveryModule</title>
<path fill="none" stroke="#000000" d="M7555,-122.0908C7555,-145.1328 7555,-182 7555,-182 7555,-182 3302.1915,-182 3302.1915,-182"/>
<polygon fill="#000000" stroke="#000000" points="3302.1915,-178.5001 3292.1915,-182 3302.1914,-185.5001 3302.1915,-178.5001"/>
</g>
<!-- DeliveryAddSettingsComponent -->
<g id="node4" class="node">
<title>DeliveryAddSettingsComponent</title>
<polygon fill="#ffffb3" stroke="#000000" points="7428.5308,-122 7229.4692,-122 7229.4692,-86 7428.5308,-86 7428.5308,-122"/>
<text text-anchor="middle" x="7329" y="-99.8" font-family="Times,serif" font-size="14.00" fill="#000000">DeliveryAddSettingsComponent</text>
</g>
<!-- DeliveryAddSettingsComponent&#45;&gt;DeliveryModule -->
<g id="edge4" class="edge">
<title>DeliveryAddSettingsComponent&#45;&gt;DeliveryModule</title>
<path fill="none" stroke="#000000" d="M7329,-122.0109C7329,-144.4852 7329,-180 7329,-180 7329,-180 3302.3571,-180 3302.3571,-180"/>
<polygon fill="#000000" stroke="#000000" points="3302.3571,-176.5001 3292.3571,-180 3302.357,-183.5001 3302.3571,-176.5001"/>
</g>
<!-- DeliveryAddSpecificDeliveryListPickerComponent -->
<g id="node5" class="node">
<title>DeliveryAddSpecificDeliveryListPickerComponent</title>
<polygon fill="#ffffb3" stroke="#000000" points="7211.3039,-122 6904.6961,-122 6904.6961,-86 7211.3039,-86 7211.3039,-122"/>
<text text-anchor="middle" x="7058" y="-99.8" font-family="Times,serif" font-size="14.00" fill="#000000">DeliveryAddSpecificDeliveryListPickerComponent</text>
</g>
<!-- DeliveryAddSpecificDeliveryListPickerComponent&#45;&gt;DeliveryModule -->
<g id="edge5" class="edge">
<title>DeliveryAddSpecificDeliveryListPickerComponent&#45;&gt;DeliveryModule</title>
<path fill="none" stroke="#000000" d="M7058,-122.2921C7058,-144.2057 7058,-178 7058,-178 7058,-178 3302.3671,-178 3302.3671,-178"/>
<polygon fill="#000000" stroke="#000000" points="3302.3671,-174.5001 3292.3671,-178 3302.3671,-181.5001 3302.3671,-174.5001"/>
</g>
<!-- DeliveryAddTemplatePickerComponent -->
<g id="node6" class="node">
<title>DeliveryAddTemplatePickerComponent</title>
<polygon fill="#ffffb3" stroke="#000000" points="6886.5478,-122 6643.4522,-122 6643.4522,-86 6886.5478,-86 6886.5478,-122"/>
<text text-anchor="middle" x="6765" y="-99.8" font-family="Times,serif" font-size="14.00" fill="#000000">DeliveryAddTemplatePickerComponent</text>
</g>
<!-- DeliveryAddTemplatePickerComponent&#45;&gt;DeliveryModule -->
<g id="edge6" class="edge">
<title>DeliveryAddTemplatePickerComponent&#45;&gt;DeliveryModule</title>
<path fill="none" stroke="#000000" d="M6765,-122.1686C6765,-143.498 6765,-176 6765,-176 6765,-176 3302.3406,-176 3302.3406,-176"/>
<polygon fill="#000000" stroke="#000000" points="3302.3406,-172.5001 3292.3406,-176 3302.3406,-179.5001 3302.3406,-172.5001"/>
</g>
<!-- DeliveryEditableComponent -->
<g id="node7" class="node">
<title>DeliveryEditableComponent</title>
<polygon fill="#ffffb3" stroke="#000000" points="6625.4636,-122 6448.5364,-122 6448.5364,-86 6625.4636,-86 6625.4636,-122"/>
<text text-anchor="middle" x="6537" y="-99.8" font-family="Times,serif" font-size="14.00" fill="#000000">DeliveryEditableComponent</text>
</g>
<!-- DeliveryEditableComponent&#45;&gt;DeliveryModule -->
<g id="edge7" class="edge">
<title>DeliveryEditableComponent&#45;&gt;DeliveryModule</title>
<path fill="none" stroke="#000000" d="M6537,-122.0267C6537,-142.7672 6537,-174 6537,-174 6537,-174 3302.1683,-174 3302.1683,-174"/>
<polygon fill="#000000" stroke="#000000" points="3302.1683,-170.5001 3292.1683,-174 3302.1683,-177.5001 3302.1683,-170.5001"/>
</g>
<!-- DeliveryInformationsDatesDisplayComponent -->
<g id="node8" class="node">
<title>DeliveryInformationsDatesDisplayComponent</title>
<polygon fill="#ffffb3" stroke="#000000" points="6430.0408,-122 6151.9592,-122 6151.9592,-86 6430.0408,-86 6430.0408,-122"/>
<text text-anchor="middle" x="6291" y="-99.8" font-family="Times,serif" font-size="14.00" fill="#000000">DeliveryInformationsDatesDisplayComponent</text>
</g>
<!-- DeliveryInformationsDatesDisplayComponent&#45;&gt;DeliveryModule -->
<g id="edge8" class="edge">
<title>DeliveryInformationsDatesDisplayComponent&#45;&gt;DeliveryModule</title>
<path fill="none" stroke="#000000" d="M6291,-122.2228C6291,-142.3652 6291,-172 6291,-172 6291,-172 3302.2863,-172 3302.2863,-172"/>
<polygon fill="#000000" stroke="#000000" points="3302.2863,-168.5001 3292.2863,-172 3302.2862,-175.5001 3302.2863,-168.5001"/>
</g>
<!-- DeliveryInformationsDatesFormComponent -->
<g id="node9" class="node">
<title>DeliveryInformationsDatesFormComponent</title>
<polygon fill="#ffffb3" stroke="#000000" points="6134.3277,-122 5869.6723,-122 5869.6723,-86 6134.3277,-86 6134.3277,-122"/>
<text text-anchor="middle" x="6002" y="-99.8" font-family="Times,serif" font-size="14.00" fill="#000000">DeliveryInformationsDatesFormComponent</text>
</g>
<!-- DeliveryInformationsDatesFormComponent&#45;&gt;DeliveryModule -->
<g id="edge9" class="edge">
<title>DeliveryInformationsDatesFormComponent&#45;&gt;DeliveryModule</title>
<path fill="none" stroke="#000000" d="M6002,-122.0348C6002,-141.5762 6002,-170 6002,-170 6002,-170 3302.2812,-170 3302.2812,-170"/>
<polygon fill="#000000" stroke="#000000" points="3302.2812,-166.5001 3292.2812,-170 3302.2812,-173.5001 3302.2812,-166.5001"/>
</g>
<!-- DeliveryInformationsDeadlinesFormComponent -->
<g id="node10" class="node">
<title>DeliveryInformationsDeadlinesFormComponent</title>
<polygon fill="#ffffb3" stroke="#000000" points="5851.4328,-122 5562.5672,-122 5562.5672,-86 5851.4328,-86 5851.4328,-122"/>
<text text-anchor="middle" x="5707" y="-99.8" font-family="Times,serif" font-size="14.00" fill="#000000">DeliveryInformationsDeadlinesFormComponent</text>
</g>
<!-- DeliveryInformationsDeadlinesFormComponent&#45;&gt;DeliveryModule -->
<g id="edge10" class="edge">
<title>DeliveryInformationsDeadlinesFormComponent&#45;&gt;DeliveryModule</title>
<path fill="none" stroke="#000000" d="M5707,-122.1061C5707,-141.3391 5707,-169 5707,-169 5707,-169 3302.155,-169 3302.155,-169"/>
<polygon fill="#000000" stroke="#000000" points="3302.1551,-165.5001 3292.155,-169 3302.155,-172.5001 3302.1551,-165.5001"/>
</g>
<!-- DeliveryInformationsDeadlinesRepertoryComponent -->
<g id="node11" class="node">
<title>DeliveryInformationsDeadlinesRepertoryComponent</title>
<polygon fill="#ffffb3" stroke="#000000" points="5544.0769,-122 5229.9231,-122 5229.9231,-86 5544.0769,-86 5544.0769,-122"/>
<text text-anchor="middle" x="5387" y="-99.8" font-family="Times,serif" font-size="14.00" fill="#000000">DeliveryInformationsDeadlinesRepertoryComponent</text>
</g>
<!-- DeliveryInformationsDeadlinesRepertoryComponent&#45;&gt;DeliveryModule -->
<g id="edge11" class="edge">
<title>DeliveryInformationsDeadlinesRepertoryComponent&#45;&gt;DeliveryModule</title>
<path fill="none" stroke="#000000" d="M5387,-122.2222C5387,-140.8285 5387,-167 5387,-167 5387,-167 3302.1964,-167 3302.1964,-167"/>
<polygon fill="#000000" stroke="#000000" points="3302.1965,-163.5001 3292.1964,-167 3302.1964,-170.5001 3302.1965,-163.5001"/>
</g>
<!-- DeliveryInformationsEditableComponent -->
<g id="node12" class="node">
<title>DeliveryInformationsEditableComponent</title>
<polygon fill="#ffffb3" stroke="#000000" points="5211.7766,-122 4962.2234,-122 4962.2234,-86 5211.7766,-86 5211.7766,-122"/>
<text text-anchor="middle" x="5087" y="-99.8" font-family="Times,serif" font-size="14.00" fill="#000000">DeliveryInformationsEditableComponent</text>
</g>
<!-- DeliveryInformationsEditableComponent&#45;&gt;DeliveryModule -->
<g id="edge12" class="edge">
<title>DeliveryInformationsEditableComponent&#45;&gt;DeliveryModule</title>
<path fill="none" stroke="#000000" d="M5087,-122.302C5087,-140.2699 5087,-165 5087,-165 5087,-165 3302.3357,-165 3302.3357,-165"/>
<polygon fill="#000000" stroke="#000000" points="3302.3357,-161.5001 3292.3357,-165 3302.3357,-168.5001 3302.3357,-161.5001"/>
</g>
<!-- DeliveryInformationsStakeholdersComponent -->
<g id="node13" class="node">
<title>DeliveryInformationsStakeholdersComponent</title>
<polygon fill="#ffffb3" stroke="#000000" points="4944.4356,-122 4669.5644,-122 4669.5644,-86 4944.4356,-86 4944.4356,-122"/>
<text text-anchor="middle" x="4807" y="-99.8" font-family="Times,serif" font-size="14.00" fill="#000000">DeliveryInformationsStakeholdersComponent</text>
</g>
<!-- DeliveryInformationsStakeholdersComponent&#45;&gt;DeliveryModule -->
<g id="edge13" class="edge">
<title>DeliveryInformationsStakeholdersComponent&#45;&gt;DeliveryModule</title>
<path fill="none" stroke="#000000" d="M4807,-122.0225C4807,-139.3734 4807,-163 4807,-163 4807,-163 3302.4642,-163 3302.4642,-163"/>
<polygon fill="#000000" stroke="#000000" points="3302.4642,-159.5001 3292.4642,-163 3302.4641,-166.5001 3302.4642,-159.5001"/>
</g>
<!-- DeliveryInformationsStepsFormComponent -->
<g id="node14" class="node">
<title>DeliveryInformationsStepsFormComponent</title>
<polygon fill="#ffffb3" stroke="#000000" points="4651.7892,-122 4388.2108,-122 4388.2108,-86 4651.7892,-86 4651.7892,-122"/>
<text text-anchor="middle" x="4520" y="-99.8" font-family="Times,serif" font-size="14.00" fill="#000000">DeliveryInformationsStepsFormComponent</text>
</g>
<!-- DeliveryInformationsStepsFormComponent&#45;&gt;DeliveryModule -->
<g id="edge14" class="edge">
<title>DeliveryInformationsStepsFormComponent&#45;&gt;DeliveryModule</title>
<path fill="none" stroke="#000000" d="M4520,-122.0352C4520,-138.7344 4520,-161 4520,-161 4520,-161 3302.2671,-161 3302.2671,-161"/>
<polygon fill="#000000" stroke="#000000" points="3302.2671,-157.5001 3292.2671,-161 3302.2671,-164.5001 3302.2671,-157.5001"/>
</g>
<!-- DeliveryInformationsStepsRepertoryComponent -->
<g id="node15" class="node">
<title>DeliveryInformationsStepsRepertoryComponent</title>
<polygon fill="#ffffb3" stroke="#000000" points="4370.4328,-122 4081.5672,-122 4081.5672,-86 4370.4328,-86 4370.4328,-122"/>
<text text-anchor="middle" x="4226" y="-99.8" font-family="Times,serif" font-size="14.00" fill="#000000">DeliveryInformationsStepsRepertoryComponent</text>
</g>
<!-- DeliveryInformationsStepsRepertoryComponent&#45;&gt;DeliveryModule -->
<g id="edge15" class="edge">
<title>DeliveryInformationsStepsRepertoryComponent&#45;&gt;DeliveryModule</title>
<path fill="none" stroke="#000000" d="M4226,-122.0091C4226,-138.0494 4226,-159 4226,-159 4226,-159 3302.1731,-159 3302.1731,-159"/>
<polygon fill="#000000" stroke="#000000" points="3302.1732,-155.5001 3292.1731,-159 3302.1731,-162.5001 3302.1732,-155.5001"/>
</g>
<!-- DeliveryListComponent -->
<g id="node16" class="node">
<title>DeliveryListComponent</title>
<polygon fill="#ffffb3" stroke="#000000" points="4063.0884,-122 3910.9116,-122 3910.9116,-86 4063.0884,-86 4063.0884,-122"/>
<text text-anchor="middle" x="3987" y="-99.8" font-family="Times,serif" font-size="14.00" fill="#000000">DeliveryListComponent</text>
</g>
<!-- DeliveryListComponent&#45;&gt;DeliveryModule -->
<g id="edge16" class="edge">
<title>DeliveryListComponent&#45;&gt;DeliveryModule</title>
<path fill="none" stroke="#000000" d="M3987,-122.2396C3987,-137.5706 3987,-157 3987,-157 3987,-157 3302.1675,-157 3302.1675,-157"/>
<polygon fill="#000000" stroke="#000000" points="3302.1676,-153.5001 3292.1675,-157 3302.1675,-160.5001 3302.1676,-153.5001"/>
</g>
<!-- DeliveryMaterialFormComponent -->
<g id="node17" class="node">
<title>DeliveryMaterialFormComponent</title>
<polygon fill="#ffffb3" stroke="#000000" points="3893.0646,-122 3684.9354,-122 3684.9354,-86 3893.0646,-86 3893.0646,-122"/>
<text text-anchor="middle" x="3789" y="-99.8" font-family="Times,serif" font-size="14.00" fill="#000000">DeliveryMaterialFormComponent</text>
</g>
<!-- DeliveryMaterialFormComponent&#45;&gt;DeliveryModule -->
<g id="edge17" class="edge">
<title>DeliveryMaterialFormComponent&#45;&gt;DeliveryModule</title>
<path fill="none" stroke="#000000" d="M3789,-122.1243C3789,-136.7832 3789,-155 3789,-155 3789,-155 3302.0875,-155 3302.0875,-155"/>
<polygon fill="#000000" stroke="#000000" points="3302.0875,-151.5001 3292.0875,-155 3302.0874,-158.5001 3302.0875,-151.5001"/>
</g>
<!-- DeliveryMaterialListComponent -->
<g id="node18" class="node">
<title>DeliveryMaterialListComponent</title>
<polygon fill="#ffffb3" stroke="#000000" points="3666.5098,-122 3467.4902,-122 3467.4902,-86 3666.5098,-86 3666.5098,-122"/>
<text text-anchor="middle" x="3567" y="-99.8" font-family="Times,serif" font-size="14.00" fill="#000000">DeliveryMaterialListComponent</text>
</g>
<!-- DeliveryMaterialListComponent&#45;&gt;DeliveryModule -->
<g id="edge18" class="edge">
<title>DeliveryMaterialListComponent&#45;&gt;DeliveryModule</title>
<path fill="none" stroke="#000000" d="M3567,-122.2458C3567,-136.1772 3567,-153 3567,-153 3567,-153 3302.3277,-153 3302.3277,-153"/>
<polygon fill="#000000" stroke="#000000" points="3302.3277,-149.5001 3292.3277,-153 3302.3276,-156.5001 3302.3277,-149.5001"/>
</g>
<!-- DeliveryRepertoryComponent -->
<g id="node19" class="node">
<title>DeliveryRepertoryComponent</title>
<polygon fill="#ffffb3" stroke="#000000" points="3449.2878,-122 3262.7122,-122 3262.7122,-86 3449.2878,-86 3449.2878,-122"/>
<text text-anchor="middle" x="3356" y="-99.8" font-family="Times,serif" font-size="14.00" fill="#000000">DeliveryRepertoryComponent</text>
</g>
<!-- DeliveryRepertoryComponent&#45;&gt;DeliveryModule -->
<g id="edge19" class="edge">
<title>DeliveryRepertoryComponent&#45;&gt;DeliveryModule</title>
<path fill="none" stroke="#000000" d="M3277.56,-122.1061C3277.56,-122.1061 3277.56,-140.991 3277.56,-140.991"/>
<polygon fill="#000000" stroke="#000000" points="3274.06,-140.9909 3277.56,-150.991 3281.06,-140.991 3274.06,-140.9909"/>
</g>
<!-- DeliveryStakeholdersEditableComponent -->
<g id="node20" class="node">
<title>DeliveryStakeholdersEditableComponent</title>
<polygon fill="#ffffb3" stroke="#000000" points="3244.7766,-122 2995.2234,-122 2995.2234,-86 3244.7766,-86 3244.7766,-122"/>
<text text-anchor="middle" x="3120" y="-99.8" font-family="Times,serif" font-size="14.00" fill="#000000">DeliveryStakeholdersEditableComponent</text>
</g>
<!-- DeliveryStakeholdersEditableComponent&#45;&gt;DeliveryModule -->
<g id="edge20" class="edge">
<title>DeliveryStakeholdersEditableComponent&#45;&gt;DeliveryModule</title>
<path fill="none" stroke="#000000" d="M3214.1873,-122.1061C3214.1873,-122.1061 3214.1873,-140.991 3214.1873,-140.991"/>
<polygon fill="#000000" stroke="#000000" points="3210.6873,-140.9909 3214.1873,-150.991 3217.6873,-140.991 3210.6873,-140.9909"/>
</g>
<!-- DeliveryStakeholdersRepertoryComponent -->
<g id="node21" class="node">
<title>DeliveryStakeholdersRepertoryComponent</title>
<polygon fill="#ffffb3" stroke="#000000" points="2977.1007,-122 2718.8993,-122 2718.8993,-86 2977.1007,-86 2977.1007,-122"/>
<text text-anchor="middle" x="2848" y="-99.8" font-family="Times,serif" font-size="14.00" fill="#000000">DeliveryStakeholdersRepertoryComponent</text>
</g>
<!-- DeliveryStakeholdersRepertoryComponent&#45;&gt;DeliveryModule -->
<g id="edge21" class="edge">
<title>DeliveryStakeholdersRepertoryComponent&#45;&gt;DeliveryModule</title>
<path fill="none" stroke="#000000" d="M2848,-122.2458C2848,-136.1772 2848,-153 2848,-153 2848,-153 3173.7722,-153 3173.7722,-153"/>
<polygon fill="#000000" stroke="#000000" points="3173.7722,-156.5001 3183.7722,-153 3173.7721,-149.5001 3173.7722,-156.5001"/>
</g>
<!-- DeliveryStatusesComponent -->
<g id="node22" class="node">
<title>DeliveryStatusesComponent</title>
<polygon fill="#ffffb3" stroke="#000000" points="2701.1923,-122 2524.8077,-122 2524.8077,-86 2701.1923,-86 2701.1923,-122"/>
<text text-anchor="middle" x="2613" y="-99.8" font-family="Times,serif" font-size="14.00" fill="#000000">DeliveryStatusesComponent</text>
</g>
<!-- DeliveryStatusesComponent&#45;&gt;DeliveryModule -->
<g id="edge22" class="edge">
<title>DeliveryStatusesComponent&#45;&gt;DeliveryModule</title>
<path fill="none" stroke="#000000" d="M2613,-122.1243C2613,-136.7832 2613,-155 2613,-155 2613,-155 3173.9006,-155 3173.9006,-155"/>
<polygon fill="#000000" stroke="#000000" points="3173.9006,-158.5001 3183.9006,-155 3173.9006,-151.5001 3173.9006,-158.5001"/>
</g>
<!-- MovieMaterialFormComponent -->
<g id="node23" class="node">
<title>MovieMaterialFormComponent</title>
<polygon fill="#ffffb3" stroke="#000000" points="2506.6371,-122 2311.3629,-122 2311.3629,-86 2506.6371,-86 2506.6371,-122"/>
<text text-anchor="middle" x="2409" y="-99.8" font-family="Times,serif" font-size="14.00" fill="#000000">MovieMaterialFormComponent</text>
</g>
<!-- MovieMaterialFormComponent&#45;&gt;DeliveryModule -->
<g id="edge23" class="edge">
<title>MovieMaterialFormComponent&#45;&gt;DeliveryModule</title>
<path fill="none" stroke="#000000" d="M2409,-122.2396C2409,-137.5706 2409,-157 2409,-157 2409,-157 3173.9268,-157 3173.9268,-157"/>
<polygon fill="#000000" stroke="#000000" points="3173.9268,-160.5001 3183.9268,-157 3173.9267,-153.5001 3173.9268,-160.5001"/>
</g>
<!-- MovieMaterialListComponent -->
<g id="node24" class="node">
<title>MovieMaterialListComponent</title>
<polygon fill="#ffffb3" stroke="#000000" points="2293.5814,-122 2106.4186,-122 2106.4186,-86 2293.5814,-86 2293.5814,-122"/>
<text text-anchor="middle" x="2200" y="-99.8" font-family="Times,serif" font-size="14.00" fill="#000000">MovieMaterialListComponent</text>
</g>
<!-- MovieMaterialListComponent&#45;&gt;DeliveryModule -->
<g id="edge24" class="edge">
<title>MovieMaterialListComponent&#45;&gt;DeliveryModule</title>
<path fill="none" stroke="#000000" d="M2200,-122.0091C2200,-138.0494 2200,-159 2200,-159 2200,-159 3173.6541,-159 3173.6541,-159"/>
<polygon fill="#000000" stroke="#000000" points="3173.6541,-162.5001 3183.6541,-159 3173.654,-155.5001 3173.6541,-162.5001"/>
</g>
<!-- NewTemplateComponent -->
<g id="node25" class="node">
<title>NewTemplateComponent</title>
<polygon fill="#ffffb3" stroke="#000000" points="2088.1288,-122 1927.8712,-122 1927.8712,-86 2088.1288,-86 2088.1288,-122"/>
<text text-anchor="middle" x="2008" y="-99.8" font-family="Times,serif" font-size="14.00" fill="#000000">NewTemplateComponent</text>
</g>
<!-- NewTemplateComponent&#45;&gt;DeliveryModule -->
<g id="edge25" class="edge">
<title>NewTemplateComponent&#45;&gt;DeliveryModule</title>
<path fill="none" stroke="#000000" d="M2008,-122.0352C2008,-138.7344 2008,-161 2008,-161 2008,-161 3173.9601,-161 3173.9601,-161"/>
<polygon fill="#000000" stroke="#000000" points="3173.9601,-164.5001 3183.9601,-161 3173.9601,-157.5001 3173.9601,-164.5001"/>
</g>
<!-- ActionsListModule -->
<g id="node27" class="node">
<title>ActionsListModule</title>
<polygon fill="#8dd3c7" stroke="#000000" points="1904.3753,-122 1901.3753,-126 1880.3753,-126 1877.3753,-122 1779.6247,-122 1779.6247,-86 1904.3753,-86 1904.3753,-122"/>
<text text-anchor="middle" x="1842" y="-99.8" font-family="Times,serif" font-size="14.00" fill="#000000">ActionsListModule</text>
</g>
<!-- ActionsListModule&#45;&gt;DeliveryModule -->
<g id="edge26" class="edge">
<title>ActionsListModule&#45;&gt;DeliveryModule</title>
<path fill="none" stroke="#000000" d="M1842,-122.0225C1842,-139.3734 1842,-163 1842,-163 1842,-163 3173.7036,-163 3173.7036,-163"/>
<polygon fill="#000000" stroke="#000000" points="3173.7036,-166.5001 3183.7036,-163 3173.7036,-159.5001 3173.7036,-166.5001"/>
</g>
<!-- ActionsPickerListModule -->
<g id="node28" class="node">
<title>ActionsPickerListModule</title>
<polygon fill="#8dd3c7" stroke="#000000" points="1761.1386,-122 1758.1386,-126 1737.1386,-126 1734.1386,-122 1600.8614,-122 1600.8614,-86 1761.1386,-86 1761.1386,-122"/>
<text text-anchor="middle" x="1681" y="-99.8" font-family="Times,serif" font-size="14.00" fill="#000000">ActionsPickerListModule</text>
</g>
<!-- ActionsPickerListModule&#45;&gt;DeliveryModule -->
<g id="edge27" class="edge">
<title>ActionsPickerListModule&#45;&gt;DeliveryModule</title>
<path fill="none" stroke="#000000" d="M1681,-122.302C1681,-140.2699 1681,-165 1681,-165 1681,-165 3173.9524,-165 3173.9524,-165"/>
<polygon fill="#000000" stroke="#000000" points="3173.9524,-168.5001 3183.9524,-165 3173.9523,-161.5001 3173.9524,-168.5001"/>
</g>
<!-- ActionsPickerModule -->
<g id="node29" class="node">
<title>ActionsPickerModule</title>
<polygon fill="#8dd3c7" stroke="#000000" points="1582.3599,-122 1579.3599,-126 1558.3599,-126 1555.3599,-122 1443.6401,-122 1443.6401,-86 1582.3599,-86 1582.3599,-122"/>
<text text-anchor="middle" x="1513" y="-99.8" font-family="Times,serif" font-size="14.00" fill="#000000">ActionsPickerModule</text>
</g>
<!-- ActionsPickerModule&#45;&gt;DeliveryModule -->
<g id="edge28" class="edge">
<title>ActionsPickerModule&#45;&gt;DeliveryModule</title>
<path fill="none" stroke="#000000" d="M1513,-122.2222C1513,-140.8285 1513,-167 1513,-167 1513,-167 3173.5251,-167 3173.5251,-167"/>
<polygon fill="#000000" stroke="#000000" points="3173.5252,-170.5001 3183.5251,-167 3173.5251,-163.5001 3173.5252,-170.5001"/>
</g>
<!-- AvatarListModule -->
<g id="node30" class="node">
<title>AvatarListModule</title>
<polygon fill="#8dd3c7" stroke="#000000" points="1425.9159,-122 1422.9159,-126 1401.9159,-126 1398.9159,-122 1306.0841,-122 1306.0841,-86 1425.9159,-86 1425.9159,-122"/>
<text text-anchor="middle" x="1366" y="-99.8" font-family="Times,serif" font-size="14.00" fill="#000000">AvatarListModule</text>
</g>
<!-- AvatarListModule&#45;&gt;DeliveryModule -->
<g id="edge29" class="edge">
<title>AvatarListModule&#45;&gt;DeliveryModule</title>
<path fill="none" stroke="#000000" d="M1366,-122.1061C1366,-141.3391 1366,-169 1366,-169 1366,-169 3173.7431,-169 3173.7431,-169"/>
<polygon fill="#000000" stroke="#000000" points="3173.7431,-172.5001 3183.7431,-169 3173.743,-165.5001 3173.7431,-172.5001"/>
</g>
<!-- ConfirmModule -->
<g id="node31" class="node">
<title>ConfirmModule</title>
<polygon fill="#8dd3c7" stroke="#000000" points="1288.4888,-122 1285.4888,-126 1264.4888,-126 1261.4888,-122 1181.5112,-122 1181.5112,-86 1288.4888,-86 1288.4888,-122"/>
<text text-anchor="middle" x="1235" y="-99.8" font-family="Times,serif" font-size="14.00" fill="#000000">ConfirmModule</text>
</g>
<!-- ConfirmModule&#45;&gt;DeliveryModule -->
<g id="edge30" class="edge">
<title>ConfirmModule&#45;&gt;DeliveryModule</title>
<path fill="none" stroke="#000000" d="M1235,-122.0348C1235,-141.5762 1235,-170 1235,-170 1235,-170 3173.9063,-170 3173.9063,-170"/>
<polygon fill="#000000" stroke="#000000" points="3173.9064,-173.5001 3183.9063,-170 3173.9063,-166.5001 3173.9064,-173.5001"/>
</g>
<!-- DeliveryRoutingModule -->
<g id="node32" class="node">
<title>DeliveryRoutingModule</title>
<polygon fill="#8dd3c7" stroke="#000000" points="1163.6456,-122 1160.6456,-126 1139.6456,-126 1136.6456,-122 1010.3544,-122 1010.3544,-86 1163.6456,-86 1163.6456,-122"/>
<text text-anchor="middle" x="1087" y="-99.8" font-family="Times,serif" font-size="14.00" fill="#000000">DeliveryRoutingModule</text>
</g>
<!-- DeliveryRoutingModule&#45;&gt;DeliveryModule -->
<g id="edge31" class="edge">
<title>DeliveryRoutingModule&#45;&gt;DeliveryModule</title>
<path fill="none" stroke="#000000" d="M1087,-122.2228C1087,-142.3652 1087,-172 1087,-172 1087,-172 3173.7531,-172 3173.7531,-172"/>
<polygon fill="#000000" stroke="#000000" points="3173.7532,-175.5001 3183.7531,-172 3173.7531,-168.5001 3173.7532,-175.5001"/>
</g>
<!-- EditableModule -->
<g id="node33" class="node">
<title>EditableModule</title>
<polygon fill="#8dd3c7" stroke="#000000" points="992.2036,-122 989.2036,-126 968.2036,-126 965.2036,-122 885.7964,-122 885.7964,-86 992.2036,-86 992.2036,-122"/>
<text text-anchor="middle" x="939" y="-99.8" font-family="Times,serif" font-size="14.00" fill="#000000">EditableModule</text>
</g>
<!-- EditableModule&#45;&gt;DeliveryModule -->
<g id="edge32" class="edge">
<title>EditableModule&#45;&gt;DeliveryModule</title>
<path fill="none" stroke="#000000" d="M939,-122.0267C939,-142.7672 939,-174 939,-174 939,-174 3173.7185,-174 3173.7185,-174"/>
<polygon fill="#000000" stroke="#000000" points="3173.7185,-177.5001 3183.7185,-174 3173.7184,-170.5001 3173.7185,-177.5001"/>
</g>
<!-- EditableSidenavModule -->
<g id="node34" class="node">
<title>EditableSidenavModule</title>
<polygon fill="#8dd3c7" stroke="#000000" points="867.8061,-122 864.8061,-126 843.8061,-126 840.8061,-122 716.1939,-122 716.1939,-86 867.8061,-86 867.8061,-122"/>
<text text-anchor="middle" x="792" y="-99.8" font-family="Times,serif" font-size="14.00" fill="#000000">EditableSidenavModule</text>
</g>
<!-- EditableSidenavModule&#45;&gt;DeliveryModule -->
<g id="edge33" class="edge">
<title>EditableSidenavModule&#45;&gt;DeliveryModule</title>
<path fill="none" stroke="#000000" d="M792,-122.1686C792,-143.498 792,-176 792,-176 792,-176 3173.7721,-176 3173.7721,-176"/>
<polygon fill="#000000" stroke="#000000" points="3173.7721,-179.5001 3183.7721,-176 3173.7721,-172.5001 3173.7721,-179.5001"/>
</g>
<!-- FeedbackMessageModule -->
<g id="node35" class="node">
<title>FeedbackMessageModule</title>
<polygon fill="#8dd3c7" stroke="#000000" points="698.1685,-122 695.1685,-126 674.1685,-126 671.1685,-122 535.8315,-122 535.8315,-86 698.1685,-86 698.1685,-122"/>
<text text-anchor="middle" x="617" y="-99.8" font-family="Times,serif" font-size="14.00" fill="#000000">FeedbackMessageModule</text>
</g>
<!-- FeedbackMessageModule&#45;&gt;DeliveryModule -->
<g id="edge34" class="edge">
<title>FeedbackMessageModule&#45;&gt;DeliveryModule</title>
<path fill="none" stroke="#000000" d="M617,-122.2921C617,-144.2057 617,-178 617,-178 617,-178 3173.8583,-178 3173.8583,-178"/>
<polygon fill="#000000" stroke="#000000" points="3173.8584,-181.5001 3183.8583,-178 3173.8583,-174.5001 3173.8584,-181.5001"/>
</g>
<!-- MaterialModule -->
<g id="node36" class="node">
<title>MaterialModule</title>
<polygon fill="#8dd3c7" stroke="#000000" points="517.4706,-122 514.4706,-126 493.4706,-126 490.4706,-122 410.5294,-122 410.5294,-86 517.4706,-86 517.4706,-122"/>
<text text-anchor="middle" x="464" y="-99.8" font-family="Times,serif" font-size="14.00" fill="#000000">MaterialModule</text>
</g>
<!-- MaterialModule&#45;&gt;DeliveryModule -->
<g id="edge35" class="edge">
<title>MaterialModule&#45;&gt;DeliveryModule</title>
<path fill="none" stroke="#000000" d="M464,-122.0109C464,-144.4852 464,-180 464,-180 464,-180 3173.8321,-180 3173.8321,-180"/>
<polygon fill="#000000" stroke="#000000" points="3173.8322,-183.5001 3183.8321,-180 3173.8321,-176.5001 3173.8322,-183.5001"/>
</g>
<!-- MovieModule -->
<g id="node37" class="node">
<title>MovieModule</title>
<polygon fill="#8dd3c7" stroke="#000000" points="392.0997,-122 389.0997,-126 368.0997,-126 365.0997,-122 295.9003,-122 295.9003,-86 392.0997,-86 392.0997,-122"/>
<text text-anchor="middle" x="344" y="-99.8" font-family="Times,serif" font-size="14.00" fill="#000000">MovieModule</text>
</g>
<!-- MovieModule&#45;&gt;DeliveryModule -->
<g id="edge36" class="edge">
<title>MovieModule&#45;&gt;DeliveryModule</title>
<path fill="none" stroke="#000000" d="M344,-122.0908C344,-145.1328 344,-182 344,-182 344,-182 3173.7265,-182 3173.7265,-182"/>
<polygon fill="#000000" stroke="#000000" points="3173.7265,-185.5001 3183.7265,-182 3173.7264,-178.5001 3173.7265,-185.5001"/>
</g>
<!-- OrganizationModule -->
<g id="node38" class="node">
<title>OrganizationModule</title>
<polygon fill="#8dd3c7" stroke="#000000" points="278.1331,-122 275.1331,-126 254.1331,-126 251.1331,-122 145.8669,-122 145.8669,-86 278.1331,-86 278.1331,-122"/>
<text text-anchor="middle" x="212" y="-99.8" font-family="Times,serif" font-size="14.00" fill="#000000">OrganizationModule</text>
</g>
<!-- OrganizationModule&#45;&gt;DeliveryModule -->
<g id="edge37" class="edge">
<title>OrganizationModule&#45;&gt;DeliveryModule</title>
<path fill="none" stroke="#000000" d="M212,-122.1532C212,-145.7566 212,-184 212,-184 212,-184 3173.8705,-184 3173.8705,-184"/>
<polygon fill="#000000" stroke="#000000" points="3173.8705,-187.5001 3183.8705,-184 3173.8704,-180.5001 3173.8705,-187.5001"/>
</g>
<!-- UiFormModule -->
<g id="node39" class="node">
<title>UiFormModule</title>
<polygon fill="#8dd3c7" stroke="#000000" points="127.8809,-122 124.8809,-126 103.8809,-126 100.8809,-122 24.1191,-122 24.1191,-86 127.8809,-86 127.8809,-122"/>
<text text-anchor="middle" x="76" y="-99.8" font-family="Times,serif" font-size="14.00" fill="#000000">UiFormModule</text>
</g>
<!-- UiFormModule&#45;&gt;DeliveryModule -->
<g id="edge38" class="edge">
<title>UiFormModule&#45;&gt;DeliveryModule</title>
<path fill="none" stroke="#000000" d="M76,-122.1985C76,-146.3563 76,-186 76,-186 76,-186 3173.7828,-186 3173.7828,-186"/>
<polygon fill="#000000" stroke="#000000" points="3173.7829,-189.5001 3183.7828,-186 3173.7828,-182.5001 3173.7829,-189.5001"/>
</g>
</g>
</svg>
