<?xml version="1.0" encoding="UTF-8" standalone="no"?>
<!DOCTYPE svg PUBLIC "-//W3C//DTD SVG 1.1//EN"
 "http://www.w3.org/Graphics/SVG/1.1/DTD/svg11.dtd">
<!-- Generated by graphviz version 2.40.1 (20161225.0304)
 -->
<!-- Title: dependencies Pages: 1 -->
<svg width="6480pt" height="290pt"
 viewBox="0.00 0.00 6480.00 290.00" xmlns="http://www.w3.org/2000/svg" xmlns:xlink="http://www.w3.org/1999/xlink">
<g id="graph0" class="graph" transform="scale(1 1) rotate(0) translate(4 286)">
<title>dependencies</title>
<polygon fill="#ffffff" stroke="transparent" points="-4,4 -4,-286 6476,-286 6476,4 -4,4"/>
<text text-anchor="start" x="3215.0091" y="-42.4" font-family="sans-serif" font-weight="bold" font-size="14.00" fill="#000000">Legend</text>
<polygon fill="#ffffb3" stroke="transparent" points="3002,-10 3002,-30 3022,-30 3022,-10 3002,-10"/>
<text text-anchor="start" x="3025.629" y="-15.4" font-family="sans-serif" font-size="14.00" fill="#000000"> &#160;Declarations</text>
<polygon fill="#8dd3c7" stroke="transparent" points="3115,-10 3115,-30 3135,-30 3135,-10 3115,-10"/>
<text text-anchor="start" x="3138.7251" y="-15.4" font-family="sans-serif" font-size="14.00" fill="#000000"> &#160;Module</text>
<polygon fill="#80b1d3" stroke="transparent" points="3201,-10 3201,-30 3221,-30 3221,-10 3201,-10"/>
<text text-anchor="start" x="3224.7812" y="-15.4" font-family="sans-serif" font-size="14.00" fill="#000000"> &#160;Bootstrap</text>
<polygon fill="#fdb462" stroke="transparent" points="3298,-10 3298,-30 3318,-30 3318,-10 3298,-10"/>
<text text-anchor="start" x="3321.6732" y="-15.4" font-family="sans-serif" font-size="14.00" fill="#000000"> &#160;Providers</text>
<polygon fill="#fb8072" stroke="transparent" points="3394,-10 3394,-30 3414,-30 3414,-10 3394,-10"/>
<text text-anchor="start" x="3417.7258" y="-15.4" font-family="sans-serif" font-size="14.00" fill="#000000"> &#160;Exports</text>
<g id="clust1" class="cluster">
<title>cluster_AppModule</title>
<polygon fill="none" stroke="#000000" stroke-dasharray="1,5" points="8,-70 8,-274 6120,-274 6120,-70 8,-70"/>
</g>
<g id="clust2" class="cluster">
<title>cluster_AppModule_declarations</title>
<polygon fill="none" stroke="#000000" points="16,-78 16,-130 276,-130 276,-78 16,-78"/>
</g>
<g id="clust5" class="cluster">
<title>cluster_AppModule_imports</title>
<polygon fill="none" stroke="#000000" points="284,-78 284,-130 6112,-130 6112,-78 284,-78"/>
</g>
<g id="clust7" class="cluster">
<title>cluster_AppModule_bootstrap</title>
<polygon fill="none" stroke="#000000" points="3192,-214 3192,-266 3316,-266 3316,-214 3192,-214"/>
</g>
<g id="clust9" class="cluster">
<title>cluster_AppRoutingModule</title>
<polygon fill="none" stroke="#000000" stroke-dasharray="1,5" points="6128,-138 6128,-206 6464,-206 6464,-138 6128,-138"/>
</g>
<g id="clust11" class="cluster">
<title>cluster_AppRoutingModule_imports</title>
<polygon fill="none" stroke="#000000" points="6262,-146 6262,-198 6456,-198 6456,-146 6262,-146"/>
</g>
<g id="clust12" class="cluster">
<title>cluster_AppRoutingModule_exports</title>
<polygon fill="none" stroke="#000000" points="6136,-146 6136,-198 6254,-198 6254,-146 6136,-146"/>
</g>
<!-- AppComponent -->
<g id="node1" class="node">
<title>AppComponent</title>
<polygon fill="#ffffb3" stroke="#000000" points="267.9399,-122 162.0601,-122 162.0601,-86 267.9399,-86 267.9399,-122"/>
<text text-anchor="middle" x="215" y="-99.8" font-family="Times,serif" font-size="14.00" fill="#000000">AppComponent</text>
</g>
<!-- AppModule -->
<g id="node3" class="node">
<title>AppModule</title>
<polygon fill="#8dd3c7" stroke="#000000" points="3295.6571,-190 3292.6571,-194 3271.6571,-194 3268.6571,-190 3212.3429,-190 3212.3429,-154 3295.6571,-154 3295.6571,-190"/>
<text text-anchor="middle" x="3254" y="-167.8" font-family="Times,serif" font-size="14.00" fill="#000000">AppModule</text>
</g>
<!-- AppComponent&#45;&gt;AppModule -->
<g id="edge1" class="edge">
<title>AppComponent&#45;&gt;AppModule</title>
<path fill="none" stroke="#000000" d="M215,-122.0098C215,-146.4207 215,-187 215,-187 215,-187 3202.1963,-187 3202.1963,-187"/>
<polygon fill="#000000" stroke="#000000" points="3202.1963,-190.5001 3212.1963,-187 3202.1962,-183.5001 3202.1963,-190.5001"/>
</g>
<!-- LayoutComponent -->
<g id="node2" class="node">
<title>LayoutComponent</title>
<polygon fill="#ffffb3" stroke="#000000" points="144.4902,-122 23.5098,-122 23.5098,-86 144.4902,-86 144.4902,-122"/>
<text text-anchor="middle" x="84" y="-99.8" font-family="Times,serif" font-size="14.00" fill="#000000">LayoutComponent</text>
</g>
<!-- LayoutComponent&#45;&gt;AppModule -->
<g id="edge2" class="edge">
<title>LayoutComponent&#45;&gt;AppModule</title>
<path fill="none" stroke="#000000" d="M84,-122.0263C84,-146.9773 84,-189 84,-189 84,-189 3202.1745,-189 3202.1745,-189"/>
<polygon fill="#000000" stroke="#000000" points="3202.1745,-192.5001 3212.1745,-189 3202.1745,-185.5001 3202.1745,-192.5001"/>
</g>
<!-- AppComponent  -->
<g id="node43" class="node">
<title>AppComponent </title>
<polygon fill="#80b1d3" stroke="#000000" points="3308.439,-258 3199.561,-258 3199.561,-222 3308.439,-222 3308.439,-258"/>
<text text-anchor="middle" x="3254" y="-235.8" font-family="Times,serif" font-size="14.00" fill="#000000">AppComponent </text>
</g>
<!-- AppModule&#45;&gt;AppComponent  -->
<g id="edge42" class="edge">
<title>AppModule&#45;&gt;AppComponent </title>
<path fill="none" stroke="#000000" stroke-dasharray="1,5" d="M3254,-190.2228C3254,-190.2228 3254,-211.7269 3254,-211.7269"/>
<polygon fill="#000000" stroke="#000000" points="3250.5001,-211.7269 3254,-221.7269 3257.5001,-211.727 3250.5001,-211.7269"/>
</g>
<!-- BrowserModule -->
<g id="node4" class="node">
<title>BrowserModule</title>
<polygon fill="#8dd3c7" stroke="#000000" points="5957.4734,-122 5954.4734,-126 5933.4734,-126 5930.4734,-122 5850.5266,-122 5850.5266,-86 5957.4734,-86 5957.4734,-122"/>
<text text-anchor="middle" x="5904" y="-99.8" font-family="Times,serif" font-size="14.00" fill="#000000">BrowserModule</text>
</g>
<!-- BrowserModule&#45;&gt;AppModule -->
<g id="edge3" class="edge">
<title>BrowserModule&#45;&gt;AppModule</title>
<path fill="none" stroke="#000000" d="M5904,-122.0098C5904,-146.4207 5904,-187 5904,-187 5904,-187 3305.8923,-187 3305.8923,-187"/>
<polygon fill="#000000" stroke="#000000" points="3305.8923,-183.5001 3295.8923,-187 3305.8923,-190.5001 3305.8923,-183.5001"/>
</g>
<!-- BrowserAnimationsModule -->
<g id="node5" class="node">
<title>BrowserAnimationsModule</title>
<polygon fill="#8dd3c7" stroke="#000000" points="5832.3019,-122 5829.3019,-126 5808.3019,-126 5805.3019,-122 5659.6981,-122 5659.6981,-86 5832.3019,-86 5832.3019,-122"/>
<text text-anchor="middle" x="5746" y="-99.8" font-family="Times,serif" font-size="14.00" fill="#000000">BrowserAnimationsModule</text>
</g>
<!-- BrowserAnimationsModule&#45;&gt;AppModule -->
<g id="edge4" class="edge">
<title>BrowserAnimationsModule&#45;&gt;AppModule</title>
<path fill="none" stroke="#000000" d="M5746,-122.3802C5746,-146.2785 5746,-185 5746,-185 5746,-185 3305.6894,-185 3305.6894,-185"/>
<polygon fill="#000000" stroke="#000000" points="3305.6895,-181.5001 3295.6894,-185 3305.6894,-188.5001 3305.6895,-181.5001"/>
</g>
<!-- AppRoutingModule -->
<g id="node6" class="node">
<title>AppRoutingModule</title>
<polygon fill="#8dd3c7" stroke="#000000" points="6104.2744,-122 6101.2744,-126 6080.2744,-126 6077.2744,-122 5975.7256,-122 5975.7256,-86 6104.2744,-86 6104.2744,-122"/>
<text text-anchor="middle" x="6040" y="-99.8" font-family="Times,serif" font-size="14.00" fill="#000000">AppRoutingModule</text>
</g>
<!-- AppRoutingModule&#45;&gt;AppModule -->
<g id="edge5" class="edge">
<title>AppRoutingModule&#45;&gt;AppModule</title>
<path fill="none" stroke="#000000" d="M6040,-122.0263C6040,-146.9773 6040,-189 6040,-189 6040,-189 3305.8193,-189 3305.8193,-189"/>
<polygon fill="#000000" stroke="#000000" points="3305.8194,-185.5001 3295.8193,-189 3305.8193,-192.5001 3305.8194,-185.5001"/>
</g>
<!-- RouterModule  -->
<g id="node45" class="node">
<title>RouterModule </title>
<polygon fill="#fb8072" stroke="#000000" points="6245.6523,-190 6144.3477,-190 6144.3477,-154 6245.6523,-154 6245.6523,-190"/>
<text text-anchor="middle" x="6195" y="-167.8" font-family="Times,serif" font-size="14.00" fill="#000000">RouterModule </text>
</g>
<!-- AppRoutingModule&#45;&gt;RouterModule  -->
<g id="edge44" class="edge">
<title>AppRoutingModule&#45;&gt;RouterModule </title>
<path fill="none" stroke="#000000" stroke-dasharray="5,2" d="M6104.3874,-110C6146.9734,-110 6195,-110 6195,-110 6195,-110 6195,-143.7333 6195,-143.7333"/>
<polygon fill="#000000" stroke="#000000" points="6191.5001,-143.7333 6195,-153.7333 6198.5001,-143.7333 6191.5001,-143.7333"/>
</g>
<!-- FlexLayoutModule -->
<g id="node7" class="node">
<title>FlexLayoutModule</title>
<polygon fill="#8dd3c7" stroke="#000000" points="5570.0954,-122 5567.0954,-126 5546.0954,-126 5543.0954,-122 5445.9046,-122 5445.9046,-86 5570.0954,-86 5570.0954,-122"/>
<text text-anchor="middle" x="5508" y="-99.8" font-family="Times,serif" font-size="14.00" fill="#000000">FlexLayoutModule</text>
</g>
<!-- FlexLayoutModule&#45;&gt;AppModule -->
<g id="edge6" class="edge">
<title>FlexLayoutModule&#45;&gt;AppModule</title>
<path fill="none" stroke="#000000" d="M5508,-122.0908C5508,-145.1328 5508,-182 5508,-182 5508,-182 3306.0248,-182 3306.0248,-182"/>
<polygon fill="#000000" stroke="#000000" points="3306.0249,-178.5001 3296.0248,-182 3306.0248,-185.5001 3306.0249,-178.5001"/>
</g>
<!-- HttpClientModule -->
<g id="node8" class="node">
<title>HttpClientModule</title>
<polygon fill="#8dd3c7" stroke="#000000" points="5428.1611,-122 5425.1611,-126 5404.1611,-126 5401.1611,-122 5309.8389,-122 5309.8389,-86 5428.1611,-86 5428.1611,-122"/>
<text text-anchor="middle" x="5369" y="-99.8" font-family="Times,serif" font-size="14.00" fill="#000000">HttpClientModule</text>
</g>
<!-- HttpClientModule&#45;&gt;AppModule -->
<g id="edge7" class="edge">
<title>HttpClientModule&#45;&gt;AppModule</title>
<path fill="none" stroke="#000000" d="M5369,-122.0109C5369,-144.4852 5369,-180 5369,-180 5369,-180 3305.7725,-180 3305.7725,-180"/>
<polygon fill="#000000" stroke="#000000" points="3305.7725,-176.5001 3295.7725,-180 3305.7725,-183.5001 3305.7725,-176.5001"/>
</g>
<!-- MatSnackBarModule -->
<g id="node9" class="node">
<title>MatSnackBarModule</title>
<polygon fill="#8dd3c7" stroke="#000000" points="5291.024,-122 5288.024,-126 5267.024,-126 5264.024,-122 5154.976,-122 5154.976,-86 5291.024,-86 5291.024,-122"/>
<text text-anchor="middle" x="5223" y="-99.8" font-family="Times,serif" font-size="14.00" fill="#000000">MatSnackBarModule</text>
</g>
<!-- MatSnackBarModule&#45;&gt;AppModule -->
<g id="edge8" class="edge">
<title>MatSnackBarModule&#45;&gt;AppModule</title>
<path fill="none" stroke="#000000" d="M5223,-122.2921C5223,-144.2057 5223,-178 5223,-178 5223,-178 3306.0363,-178 3306.0363,-178"/>
<polygon fill="#000000" stroke="#000000" points="3306.0363,-174.5001 3296.0363,-178 3306.0363,-181.5001 3306.0363,-174.5001"/>
</g>
<!-- MatCardModule -->
<g id="node10" class="node">
<title>MatCardModule</title>
<polygon fill="#8dd3c7" stroke="#000000" points="5136.8118,-122 5133.8118,-126 5112.8118,-126 5109.8118,-122 5027.1882,-122 5027.1882,-86 5136.8118,-86 5136.8118,-122"/>
<text text-anchor="middle" x="5082" y="-99.8" font-family="Times,serif" font-size="14.00" fill="#000000">MatCardModule</text>
</g>
<!-- MatCardModule&#45;&gt;AppModule -->
<g id="edge9" class="edge">
<title>MatCardModule&#45;&gt;AppModule</title>
<path fill="none" stroke="#000000" d="M5082,-122.0449C5082,-143.6623 5082,-177 5082,-177 5082,-177 3306.0539,-177 3306.0539,-177"/>
<polygon fill="#000000" stroke="#000000" points="3306.054,-173.5001 3296.0539,-177 3306.0539,-180.5001 3306.054,-173.5001"/>
</g>
<!-- MatToolbarModule -->
<g id="node11" class="node">
<title>MatToolbarModule</title>
<polygon fill="#8dd3c7" stroke="#000000" points="5009.4187,-122 5006.4187,-126 4985.4187,-126 4982.4187,-122 4882.5813,-122 4882.5813,-86 5009.4187,-86 5009.4187,-122"/>
<text text-anchor="middle" x="4946" y="-99.8" font-family="Times,serif" font-size="14.00" fill="#000000">MatToolbarModule</text>
</g>
<!-- MatToolbarModule&#45;&gt;AppModule -->
<g id="edge10" class="edge">
<title>MatToolbarModule&#45;&gt;AppModule</title>
<path fill="none" stroke="#000000" d="M4946,-122.2843C4946,-143.3211 4946,-175 4946,-175 4946,-175 3305.825,-175 3305.825,-175"/>
<polygon fill="#000000" stroke="#000000" points="3305.825,-171.5001 3295.825,-175 3305.8249,-178.5001 3305.825,-171.5001"/>
</g>
<!-- MatSidenavModule -->
<g id="node12" class="node">
<title>MatSidenavModule</title>
<polygon fill="#8dd3c7" stroke="#000000" points="4864.7022,-122 4861.7022,-126 4840.7022,-126 4837.7022,-122 4737.2978,-122 4737.2978,-86 4864.7022,-86 4864.7022,-122"/>
<text text-anchor="middle" x="4801" y="-99.8" font-family="Times,serif" font-size="14.00" fill="#000000">MatSidenavModule</text>
</g>
<!-- MatSidenavModule&#45;&gt;AppModule -->
<g id="edge11" class="edge">
<title>MatSidenavModule&#45;&gt;AppModule</title>
<path fill="none" stroke="#000000" d="M4801,-122.1289C4801,-142.5724 4801,-173 4801,-173 4801,-173 3305.7788,-173 3305.7788,-173"/>
<polygon fill="#000000" stroke="#000000" points="3305.7788,-169.5001 3295.7788,-173 3305.7787,-176.5001 3305.7788,-169.5001"/>
</g>
<!-- MatIconModule -->
<g id="node13" class="node">
<title>MatIconModule</title>
<polygon fill="#8dd3c7" stroke="#000000" points="4719.4748,-122 4716.4748,-126 4695.4748,-126 4692.4748,-122 4612.5252,-122 4612.5252,-86 4719.4748,-86 4719.4748,-122"/>
<text text-anchor="middle" x="4666" y="-99.8" font-family="Times,serif" font-size="14.00" fill="#000000">MatIconModule</text>
</g>
<!-- MatIconModule&#45;&gt;AppModule -->
<g id="edge12" class="edge">
<title>MatIconModule&#45;&gt;AppModule</title>
<path fill="none" stroke="#000000" d="M4666,-122.2228C4666,-142.3652 4666,-172 4666,-172 4666,-172 3305.8753,-172 3305.8753,-172"/>
<polygon fill="#000000" stroke="#000000" points="3305.8753,-168.5001 3295.8753,-172 3305.8752,-175.5001 3305.8753,-168.5001"/>
</g>
<!-- MatButtonModule -->
<g id="node14" class="node">
<title>MatButtonModule</title>
<polygon fill="#8dd3c7" stroke="#000000" points="4594.2176,-122 4591.2176,-126 4570.2176,-126 4567.2176,-122 4473.7824,-122 4473.7824,-86 4594.2176,-86 4594.2176,-122"/>
<text text-anchor="middle" x="4534" y="-99.8" font-family="Times,serif" font-size="14.00" fill="#000000">MatButtonModule</text>
</g>
<!-- MatButtonModule&#45;&gt;AppModule -->
<g id="edge13" class="edge">
<title>MatButtonModule&#45;&gt;AppModule</title>
<path fill="none" stroke="#000000" d="M4534,-122.0348C4534,-141.5762 4534,-170 4534,-170 4534,-170 3305.8602,-170 3305.8602,-170"/>
<polygon fill="#000000" stroke="#000000" points="3305.8602,-166.5001 3295.8602,-170 3305.8601,-173.5001 3305.8602,-166.5001"/>
</g>
<!-- MatListModule -->
<g id="node15" class="node">
<title>MatListModule</title>
<polygon fill="#8dd3c7" stroke="#000000" points="4455.8781,-122 4452.8781,-126 4431.8781,-126 4428.8781,-122 4352.1219,-122 4352.1219,-86 4455.8781,-86 4455.8781,-122"/>
<text text-anchor="middle" x="4404" y="-99.8" font-family="Times,serif" font-size="14.00" fill="#000000">MatListModule</text>
</g>
<!-- MatListModule&#45;&gt;AppModule -->
<g id="edge14" class="edge">
<title>MatListModule&#45;&gt;AppModule</title>
<path fill="none" stroke="#000000" d="M4404,-122.1686C4404,-141.0898 4404,-168 4404,-168 4404,-168 3305.9501,-168 3305.9501,-168"/>
<polygon fill="#000000" stroke="#000000" points="3305.9501,-164.5001 3295.9501,-168 3305.9501,-171.5001 3305.9501,-164.5001"/>
</g>
<!-- MatRippleModule -->
<g id="node16" class="node">
<title>MatRippleModule</title>
<polygon fill="#8dd3c7" stroke="#000000" points="4333.9328,-122 4330.9328,-126 4309.9328,-126 4306.9328,-122 4214.0672,-122 4214.0672,-86 4333.9328,-86 4333.9328,-122"/>
<text text-anchor="middle" x="4274" y="-99.8" font-family="Times,serif" font-size="14.00" fill="#000000">MatRippleModule</text>
</g>
<!-- MatRippleModule&#45;&gt;AppModule -->
<g id="edge15" class="edge">
<title>MatRippleModule&#45;&gt;AppModule</title>
<path fill="none" stroke="#000000" d="M4274,-122.2667C4274,-140.5552 4274,-166 4274,-166 4274,-166 3305.8868,-166 3305.8868,-166"/>
<polygon fill="#000000" stroke="#000000" points="3305.8868,-162.5001 3295.8868,-166 3305.8868,-169.5001 3305.8868,-162.5001"/>
</g>
<!-- MatDividerModule -->
<g id="node17" class="node">
<title>MatDividerModule</title>
<polygon fill="#8dd3c7" stroke="#000000" points="4196.3627,-122 4193.3627,-126 4172.3627,-126 4169.3627,-122 4071.6373,-122 4071.6373,-86 4196.3627,-86 4196.3627,-122"/>
<text text-anchor="middle" x="4134" y="-99.8" font-family="Times,serif" font-size="14.00" fill="#000000">MatDividerModule</text>
</g>
<!-- MatDividerModule&#45;&gt;AppModule -->
<g id="edge16" class="edge">
<title>MatDividerModule&#45;&gt;AppModule</title>
<path fill="none" stroke="#000000" d="M4134,-122.302C4134,-140.2699 4134,-165 4134,-165 4134,-165 3305.8522,-165 3305.8522,-165"/>
<polygon fill="#000000" stroke="#000000" points="3305.8523,-161.5001 3295.8522,-165 3305.8522,-168.5001 3305.8523,-161.5001"/>
</g>
<!-- MatFormFieldModule -->
<g id="node18" class="node">
<title>MatFormFieldModule</title>
<polygon fill="#8dd3c7" stroke="#000000" points="4053.712,-122 4050.712,-126 4029.712,-126 4026.712,-122 3912.288,-122 3912.288,-86 4053.712,-86 4053.712,-122"/>
<text text-anchor="middle" x="3983" y="-99.8" font-family="Times,serif" font-size="14.00" fill="#000000">MatFormFieldModule</text>
</g>
<!-- MatFormFieldModule&#45;&gt;AppModule -->
<g id="edge17" class="edge">
<title>MatFormFieldModule&#45;&gt;AppModule</title>
<path fill="none" stroke="#000000" d="M3983,-122.0225C3983,-139.3734 3983,-163 3983,-163 3983,-163 3305.8125,-163 3305.8125,-163"/>
<polygon fill="#000000" stroke="#000000" points="3305.8126,-159.5001 3295.8125,-163 3305.8125,-166.5001 3305.8126,-159.5001"/>
</g>
<!-- MatInputModule -->
<g id="node19" class="node">
<title>MatInputModule</title>
<polygon fill="#8dd3c7" stroke="#000000" points="3894.6513,-122 3891.6513,-126 3870.6513,-126 3867.6513,-122 3783.3487,-122 3783.3487,-86 3894.6513,-86 3894.6513,-122"/>
<text text-anchor="middle" x="3839" y="-99.8" font-family="Times,serif" font-size="14.00" fill="#000000">MatInputModule</text>
</g>
<!-- MatInputModule&#45;&gt;AppModule -->
<g id="edge18" class="edge">
<title>MatInputModule&#45;&gt;AppModule</title>
<path fill="none" stroke="#000000" d="M3839,-122.0352C3839,-138.7344 3839,-161 3839,-161 3839,-161 3306.0718,-161 3306.0718,-161"/>
<polygon fill="#000000" stroke="#000000" points="3306.0718,-157.5001 3296.0718,-161 3306.0717,-164.5001 3306.0718,-157.5001"/>
</g>
<!-- MatSelectModule -->
<g id="node20" class="node">
<title>MatSelectModule</title>
<polygon fill="#8dd3c7" stroke="#000000" points="3765.3076,-122 3762.3076,-126 3741.3076,-126 3738.3076,-122 3648.6924,-122 3648.6924,-86 3765.3076,-86 3765.3076,-122"/>
<text text-anchor="middle" x="3707" y="-99.8" font-family="Times,serif" font-size="14.00" fill="#000000">MatSelectModule</text>
</g>
<!-- MatSelectModule&#45;&gt;AppModule -->
<g id="edge19" class="edge">
<title>MatSelectModule&#45;&gt;AppModule</title>
<path fill="none" stroke="#000000" d="M3707,-122.027C3707,-138.3976 3707,-160 3707,-160 3707,-160 3305.8052,-160 3305.8052,-160"/>
<polygon fill="#000000" stroke="#000000" points="3305.8052,-156.5001 3295.8052,-160 3305.8051,-163.5001 3305.8052,-156.5001"/>
</g>
<!-- MatChipsModule -->
<g id="node21" class="node">
<title>MatChipsModule</title>
<polygon fill="#8dd3c7" stroke="#000000" points="3630.2716,-122 3627.2716,-126 3606.2716,-126 3603.2716,-122 3515.7284,-122 3515.7284,-86 3630.2716,-86 3630.2716,-122"/>
<text text-anchor="middle" x="3573" y="-99.8" font-family="Times,serif" font-size="14.00" fill="#000000">MatChipsModule</text>
</g>
<!-- MatChipsModule&#45;&gt;AppModule -->
<g id="edge20" class="edge">
<title>MatChipsModule&#45;&gt;AppModule</title>
<path fill="none" stroke="#000000" d="M3573,-122.2819C3573,-137.9478 3573,-158 3573,-158 3573,-158 3305.7037,-158 3305.7037,-158"/>
<polygon fill="#000000" stroke="#000000" points="3305.7037,-154.5001 3295.7037,-158 3305.7036,-161.5001 3305.7037,-154.5001"/>
</g>
<!-- MatCheckboxModule -->
<g id="node22" class="node">
<title>MatCheckboxModule</title>
<polygon fill="#8dd3c7" stroke="#000000" points="3497.3655,-122 3494.3655,-126 3473.3655,-126 3470.3655,-122 3358.6345,-122 3358.6345,-86 3497.3655,-86 3497.3655,-122"/>
<text text-anchor="middle" x="3428" y="-99.8" font-family="Times,serif" font-size="14.00" fill="#000000">MatCheckboxModule</text>
</g>
<!-- MatCheckboxModule&#45;&gt;AppModule -->
<g id="edge21" class="edge">
<title>MatCheckboxModule&#45;&gt;AppModule</title>
<path fill="none" stroke="#000000" d="M3428,-122.1871C3428,-137.1824 3428,-156 3428,-156 3428,-156 3305.6773,-156 3305.6773,-156"/>
<polygon fill="#000000" stroke="#000000" points="3305.6774,-152.5001 3295.6773,-156 3305.6773,-159.5001 3305.6774,-152.5001"/>
</g>
<!-- MatProgressSpinnerModule -->
<g id="node23" class="node">
<title>MatProgressSpinnerModule</title>
<polygon fill="#8dd3c7" stroke="#000000" points="3340.8557,-122 3337.8557,-126 3316.8557,-126 3313.8557,-122 3167.1443,-122 3167.1443,-86 3340.8557,-86 3340.8557,-122"/>
<text text-anchor="middle" x="3254" y="-99.8" font-family="Times,serif" font-size="14.00" fill="#000000">MatProgressSpinnerModule</text>
</g>
<!-- MatProgressSpinnerModule&#45;&gt;AppModule -->
<g id="edge22" class="edge">
<title>MatProgressSpinnerModule&#45;&gt;AppModule</title>
<path fill="none" stroke="#000000" d="M3254,-122.2228C3254,-122.2228 3254,-143.7269 3254,-143.7269"/>
<polygon fill="#000000" stroke="#000000" points="3250.5001,-143.7269 3254,-153.7269 3257.5001,-143.727 3250.5001,-143.7269"/>
</g>
<!-- MatMenuModule -->
<g id="node24" class="node">
<title>MatMenuModule</title>
<polygon fill="#8dd3c7" stroke="#000000" points="3149.2591,-122 3146.2591,-126 3125.2591,-126 3122.2591,-122 3034.7409,-122 3034.7409,-86 3149.2591,-86 3149.2591,-122"/>
<text text-anchor="middle" x="3092" y="-99.8" font-family="Times,serif" font-size="14.00" fill="#000000">MatMenuModule</text>
</g>
<!-- MatMenuModule&#45;&gt;AppModule -->
<g id="edge23" class="edge">
<title>MatMenuModule&#45;&gt;AppModule</title>
<path fill="none" stroke="#000000" d="M3092,-122.1871C3092,-137.1824 3092,-156 3092,-156 3092,-156 3202.281,-156 3202.281,-156"/>
<polygon fill="#000000" stroke="#000000" points="3202.281,-159.5001 3212.281,-156 3202.2809,-152.5001 3202.281,-159.5001"/>
</g>
<!-- MatBadgeModule -->
<g id="node25" class="node">
<title>MatBadgeModule</title>
<polygon fill="#8dd3c7" stroke="#000000" points="3016.8655,-122 3013.8655,-126 2992.8655,-126 2989.8655,-122 2899.1345,-122 2899.1345,-86 3016.8655,-86 3016.8655,-122"/>
<text text-anchor="middle" x="2958" y="-99.8" font-family="Times,serif" font-size="14.00" fill="#000000">MatBadgeModule</text>
</g>
<!-- MatBadgeModule&#45;&gt;AppModule -->
<g id="edge24" class="edge">
<title>MatBadgeModule&#45;&gt;AppModule</title>
<path fill="none" stroke="#000000" d="M2958,-122.2819C2958,-137.9478 2958,-158 2958,-158 2958,-158 3202.2182,-158 3202.2182,-158"/>
<polygon fill="#000000" stroke="#000000" points="3202.2183,-161.5001 3212.2182,-158 3202.2182,-154.5001 3202.2183,-161.5001"/>
</g>
<!-- AuthModule -->
<g id="node26" class="node">
<title>AuthModule</title>
<polygon fill="#8dd3c7" stroke="#000000" points="2880.5482,-122 2877.5482,-126 2856.5482,-126 2853.5482,-122 2793.4518,-122 2793.4518,-86 2880.5482,-86 2880.5482,-122"/>
<text text-anchor="middle" x="2837" y="-99.8" font-family="Times,serif" font-size="14.00" fill="#000000">AuthModule</text>
</g>
<!-- AuthModule&#45;&gt;AppModule -->
<g id="edge25" class="edge">
<title>AuthModule&#45;&gt;AppModule</title>
<path fill="none" stroke="#000000" d="M2837,-122.027C2837,-138.3976 2837,-160 2837,-160 2837,-160 3202.1072,-160 3202.1072,-160"/>
<polygon fill="#000000" stroke="#000000" points="3202.1072,-163.5001 3212.1072,-160 3202.1071,-156.5001 3202.1072,-163.5001"/>
</g>
<!-- UploadModule -->
<g id="node27" class="node">
<title>UploadModule</title>
<polygon fill="#8dd3c7" stroke="#000000" points="2775.2619,-122 2772.2619,-126 2751.2619,-126 2748.2619,-122 2674.7381,-122 2674.7381,-86 2775.2619,-86 2775.2619,-122"/>
<text text-anchor="middle" x="2725" y="-99.8" font-family="Times,serif" font-size="14.00" fill="#000000">UploadModule</text>
</g>
<!-- UploadModule&#45;&gt;AppModule -->
<g id="edge26" class="edge">
<title>UploadModule&#45;&gt;AppModule</title>
<path fill="none" stroke="#000000" d="M2725,-122.0352C2725,-138.7344 2725,-161 2725,-161 2725,-161 3202.0481,-161 3202.0481,-161"/>
<polygon fill="#000000" stroke="#000000" points="3202.0481,-164.5001 3212.0481,-161 3202.0481,-157.5001 3202.0481,-164.5001"/>
</g>
<!-- UiFormModule -->
<g id="node28" class="node">
<title>UiFormModule</title>
<polygon fill="#8dd3c7" stroke="#000000" points="2656.8809,-122 2653.8809,-126 2632.8809,-126 2629.8809,-122 2553.1191,-122 2553.1191,-86 2656.8809,-86 2656.8809,-122"/>
<text text-anchor="middle" x="2605" y="-99.8" font-family="Times,serif" font-size="14.00" fill="#000000">UiFormModule</text>
</g>
<!-- UiFormModule&#45;&gt;AppModule -->
<g id="edge27" class="edge">
<title>UiFormModule&#45;&gt;AppModule</title>
<path fill="none" stroke="#000000" d="M2605,-122.0225C2605,-139.3734 2605,-163 2605,-163 2605,-163 3201.9174,-163 3201.9174,-163"/>
<polygon fill="#000000" stroke="#000000" points="3201.9174,-166.5001 3211.9174,-163 3201.9173,-159.5001 3201.9174,-166.5001"/>
</g>
<!-- OrganizationModule -->
<g id="node29" class="node">
<title>OrganizationModule</title>
<polygon fill="#8dd3c7" stroke="#000000" points="2535.1331,-122 2532.1331,-126 2511.1331,-126 2508.1331,-122 2402.8669,-122 2402.8669,-86 2535.1331,-86 2535.1331,-122"/>
<text text-anchor="middle" x="2469" y="-99.8" font-family="Times,serif" font-size="14.00" fill="#000000">OrganizationModule</text>
</g>
<!-- OrganizationModule&#45;&gt;AppModule -->
<g id="edge28" class="edge">
<title>OrganizationModule&#45;&gt;AppModule</title>
<path fill="none" stroke="#000000" d="M2469,-122.302C2469,-140.2699 2469,-165 2469,-165 2469,-165 3202.0725,-165 3202.0725,-165"/>
<polygon fill="#000000" stroke="#000000" points="3202.0726,-168.5001 3212.0725,-165 3202.0725,-161.5001 3202.0726,-168.5001"/>
</g>
<!-- ToolbarModule -->
<g id="node30" class="node">
<title>ToolbarModule</title>
<polygon fill="#8dd3c7" stroke="#000000" points="2384.8683,-122 2381.8683,-126 2360.8683,-126 2357.8683,-122 2281.1317,-122 2281.1317,-86 2384.8683,-86 2384.8683,-122"/>
<text text-anchor="middle" x="2333" y="-99.8" font-family="Times,serif" font-size="14.00" fill="#000000">ToolbarModule</text>
</g>
<!-- ToolbarModule&#45;&gt;AppModule -->
<g id="edge29" class="edge">
<title>ToolbarModule&#45;&gt;AppModule</title>
<path fill="none" stroke="#000000" d="M2333,-122.2667C2333,-140.5552 2333,-166 2333,-166 2333,-166 3202.3358,-166 3202.3358,-166"/>
<polygon fill="#000000" stroke="#000000" points="3202.3358,-169.5001 3212.3358,-166 3202.3358,-162.5001 3202.3358,-169.5001"/>
</g>
<!-- MovieModule -->
<g id="node31" class="node">
<title>MovieModule</title>
<polygon fill="#8dd3c7" stroke="#000000" points="2263.0997,-122 2260.0997,-126 2239.0997,-126 2236.0997,-122 2166.9003,-122 2166.9003,-86 2263.0997,-86 2263.0997,-122"/>
<text text-anchor="middle" x="2215" y="-99.8" font-family="Times,serif" font-size="14.00" fill="#000000">MovieModule</text>
</g>
<!-- MovieModule&#45;&gt;AppModule -->
<g id="edge30" class="edge">
<title>MovieModule&#45;&gt;AppModule</title>
<path fill="none" stroke="#000000" d="M2215,-122.1686C2215,-141.0898 2215,-168 2215,-168 2215,-168 3202.3065,-168 3202.3065,-168"/>
<polygon fill="#000000" stroke="#000000" points="3202.3066,-171.5001 3212.3065,-168 3202.3065,-164.5001 3202.3066,-171.5001"/>
</g>
<!-- AccountModule -->
<g id="node32" class="node">
<title>AccountModule</title>
<polygon fill="#8dd3c7" stroke="#000000" points="2148.4762,-122 2145.4762,-126 2124.4762,-126 2121.4762,-122 2041.5238,-122 2041.5238,-86 2148.4762,-86 2148.4762,-122"/>
<text text-anchor="middle" x="2095" y="-99.8" font-family="Times,serif" font-size="14.00" fill="#000000">AccountModule</text>
</g>
<!-- AccountModule&#45;&gt;AppModule -->
<g id="edge31" class="edge">
<title>AccountModule&#45;&gt;AppModule</title>
<path fill="none" stroke="#000000" d="M2095,-122.0348C2095,-141.5762 2095,-170 2095,-170 2095,-170 3202.0659,-170 3202.0659,-170"/>
<polygon fill="#000000" stroke="#000000" points="3202.0659,-173.5001 3212.0659,-170 3202.0658,-166.5001 3202.0659,-173.5001"/>
</g>
<!-- ProfileModule -->
<g id="node33" class="node">
<title>ProfileModule</title>
<polygon fill="#8dd3c7" stroke="#000000" points="2023.65,-122 2020.65,-126 1999.65,-126 1996.65,-122 1926.35,-122 1926.35,-86 2023.65,-86 2023.65,-122"/>
<text text-anchor="middle" x="1975" y="-99.8" font-family="Times,serif" font-size="14.00" fill="#000000">ProfileModule</text>
</g>
<!-- ProfileModule&#45;&gt;AppModule -->
<g id="edge32" class="edge">
<title>ProfileModule&#45;&gt;AppModule</title>
<path fill="none" stroke="#000000" d="M1975,-122.2228C1975,-142.3652 1975,-172 1975,-172 1975,-172 3202.1725,-172 3202.1725,-172"/>
<polygon fill="#000000" stroke="#000000" points="3202.1726,-175.5001 3212.1725,-172 3202.1725,-168.5001 3202.1726,-175.5001"/>
</g>
<!-- WalletModule -->
<g id="node34" class="node">
<title>WalletModule</title>
<polygon fill="#8dd3c7" stroke="#000000" points="1908.3655,-122 1905.3655,-126 1884.3655,-126 1881.3655,-122 1811.6345,-122 1811.6345,-86 1908.3655,-86 1908.3655,-122"/>
<text text-anchor="middle" x="1860" y="-99.8" font-family="Times,serif" font-size="14.00" fill="#000000">WalletModule</text>
</g>
<!-- WalletModule&#45;&gt;AppModule -->
<g id="edge33" class="edge">
<title>WalletModule&#45;&gt;AppModule</title>
<path fill="none" stroke="#000000" d="M1860,-122.1289C1860,-142.5724 1860,-173 1860,-173 1860,-173 3202.2803,-173 3202.2803,-173"/>
<polygon fill="#000000" stroke="#000000" points="3202.2804,-176.5001 3212.2803,-173 3202.2803,-169.5001 3202.2804,-176.5001"/>
</g>
<!-- KeyManagerModule -->
<g id="node35" class="node">
<title>KeyManagerModule</title>
<polygon fill="#8dd3c7" stroke="#000000" points="1793.1205,-122 1790.1205,-126 1769.1205,-126 1766.1205,-122 1660.8795,-122 1660.8795,-86 1793.1205,-86 1793.1205,-122"/>
<text text-anchor="middle" x="1727" y="-99.8" font-family="Times,serif" font-size="14.00" fill="#000000">KeyManagerModule</text>
</g>
<!-- KeyManagerModule&#45;&gt;AppModule -->
<g id="edge34" class="edge">
<title>KeyManagerModule&#45;&gt;AppModule</title>
<path fill="none" stroke="#000000" d="M1727,-122.2843C1727,-143.3211 1727,-175 1727,-175 1727,-175 3201.9659,-175 3201.9659,-175"/>
<polygon fill="#000000" stroke="#000000" points="3201.9659,-178.5001 3211.9659,-175 3201.9659,-171.5001 3201.9659,-178.5001"/>
</g>
<!-- NotificationWidgetModule -->
<g id="node36" class="node">
<title>NotificationWidgetModule</title>
<polygon fill="#8dd3c7" stroke="#000000" points="1642.4101,-122 1639.4101,-126 1618.4101,-126 1615.4101,-122 1473.5899,-122 1473.5899,-86 1642.4101,-86 1642.4101,-122"/>
<text text-anchor="middle" x="1558" y="-99.8" font-family="Times,serif" font-size="14.00" fill="#000000">NotificationWidgetModule</text>
</g>
<!-- NotificationWidgetModule&#45;&gt;AppModule -->
<g id="edge35" class="edge">
<title>NotificationWidgetModule&#45;&gt;AppModule</title>
<path fill="none" stroke="#000000" d="M1558,-122.0449C1558,-143.6623 1558,-177 1558,-177 1558,-177 3202.0762,-177 3202.0762,-177"/>
<polygon fill="#000000" stroke="#000000" points="3202.0762,-180.5001 3212.0762,-177 3202.0761,-173.5001 3202.0762,-180.5001"/>
</g>
<!-- NoOrganizationModule -->
<g id="node37" class="node">
<title>NoOrganizationModule</title>
<polygon fill="#8dd3c7" stroke="#000000" points="1455.7394,-122 1452.7394,-126 1431.7394,-126 1428.7394,-122 1306.2606,-122 1306.2606,-86 1455.7394,-86 1455.7394,-122"/>
<text text-anchor="middle" x="1381" y="-99.8" font-family="Times,serif" font-size="14.00" fill="#000000">NoOrganizationModule</text>
</g>
<!-- NoOrganizationModule&#45;&gt;AppModule -->
<g id="edge36" class="edge">
<title>NoOrganizationModule&#45;&gt;AppModule</title>
<path fill="none" stroke="#000000" d="M1381,-122.2921C1381,-144.2057 1381,-178 1381,-178 1381,-178 3202.2536,-178 3202.2536,-178"/>
<polygon fill="#000000" stroke="#000000" points="3202.2537,-181.5001 3212.2536,-178 3202.2536,-174.5001 3202.2537,-181.5001"/>
</g>
<!-- AngularFireModule.initializeApp(args) -->
<g id="node38" class="node">
<title>AngularFireModule.initializeApp(args)</title>
<polygon fill="#8dd3c7" stroke="#000000" points="1288.7057,-122 1285.7057,-126 1264.7057,-126 1261.7057,-122 1051.2943,-122 1051.2943,-86 1288.7057,-86 1288.7057,-122"/>
<text text-anchor="middle" x="1170" y="-99.8" font-family="Times,serif" font-size="14.00" fill="#000000">AngularFireModule.initializeApp(args)</text>
</g>
<!-- AngularFireModule.initializeApp(args)&#45;&gt;AppModule -->
<g id="edge37" class="edge">
<title>AngularFireModule.initializeApp(args)&#45;&gt;AppModule</title>
<path fill="none" stroke="#000000" d="M1170,-122.0109C1170,-144.4852 1170,-180 1170,-180 1170,-180 3201.9004,-180 3201.9004,-180"/>
<polygon fill="#000000" stroke="#000000" points="3201.9004,-183.5001 3211.9004,-180 3201.9003,-176.5001 3201.9004,-183.5001"/>
</g>
<!-- AngularFirestoreModule.enablePersistence(args) -->
<g id="node39" class="node">
<title>AngularFirestoreModule.enablePersistence(args)</title>
<polygon fill="#8dd3c7" stroke="#000000" points="1033.3285,-122 1030.3285,-126 1009.3285,-126 1006.3285,-122 742.6715,-122 742.6715,-86 1033.3285,-86 1033.3285,-122"/>
<text text-anchor="middle" x="888" y="-99.8" font-family="Times,serif" font-size="14.00" fill="#000000">AngularFirestoreModule.enablePersistence(args)</text>
</g>
<!-- AngularFirestoreModule.enablePersistence(args)&#45;&gt;AppModule -->
<g id="edge38" class="edge">
<title>AngularFirestoreModule.enablePersistence(args)&#45;&gt;AppModule</title>
<path fill="none" stroke="#000000" d="M888,-122.0908C888,-145.1328 888,-182 888,-182 888,-182 3202.1816,-182 3202.1816,-182"/>
<polygon fill="#000000" stroke="#000000" points="3202.1816,-185.5001 3212.1816,-182 3202.1816,-178.5001 3202.1816,-185.5001"/>
</g>
<!-- AngularFireFunctionsModule -->
<g id="node40" class="node">
<title>AngularFireFunctionsModule</title>
<polygon fill="#8dd3c7" stroke="#000000" points="724.6937,-122 721.6937,-126 700.6937,-126 697.6937,-122 541.3063,-122 541.3063,-86 724.6937,-86 724.6937,-122"/>
<text text-anchor="middle" x="633" y="-99.8" font-family="Times,serif" font-size="14.00" fill="#000000">AngularFireFunctionsModule</text>
</g>
<!-- AngularFireFunctionsModule&#45;&gt;AppModule -->
<g id="edge39" class="edge">
<title>AngularFireFunctionsModule&#45;&gt;AppModule</title>
<path fill="none" stroke="#000000" d="M633,-122.1532C633,-145.7566 633,-184 633,-184 633,-184 3202.3011,-184 3202.3011,-184"/>
<polygon fill="#000000" stroke="#000000" points="3202.3012,-187.5001 3212.3011,-184 3202.3011,-180.5001 3202.3012,-187.5001"/>
</g>
<!-- AkitaNgRouterStoreModule.forRoot() -->
<g id="node41" class="node">
<title>AkitaNgRouterStoreModule.forRoot()</title>
<polygon fill="#8dd3c7" stroke="#000000" points="523.7793,-122 520.7793,-126 499.7793,-126 496.7793,-122 292.2207,-122 292.2207,-86 523.7793,-86 523.7793,-122"/>
<text text-anchor="middle" x="408" y="-99.8" font-family="Times,serif" font-size="14.00" fill="#000000">AkitaNgRouterStoreModule.forRoot()</text>
</g>
<!-- AkitaNgRouterStoreModule.forRoot()&#45;&gt;AppModule -->
<g id="edge40" class="edge">
<title>AkitaNgRouterStoreModule.forRoot()&#45;&gt;AppModule</title>
<path fill="none" stroke="#000000" d="M408,-122.3802C408,-146.2785 408,-185 408,-185 408,-185 3202.1172,-185 3202.1172,-185"/>
<polygon fill="#000000" stroke="#000000" points="3202.1172,-188.5001 3212.1172,-185 3202.1172,-181.5001 3202.1172,-188.5001"/>
</g>
<!-- { &#160;} -->
<g id="node42" class="node">
<title>{ &#160;}</title>
<polygon fill="#8dd3c7" stroke="#000000" points="5642,-122 5639,-126 5618,-126 5615,-122 5588,-122 5588,-86 5642,-86 5642,-122"/>
<text text-anchor="middle" x="5615" y="-99.8" font-family="Times,serif" font-size="14.00" fill="#000000">{ &#160;}</text>
</g>
<!-- { &#160;}&#45;&gt;AppModule -->
<g id="edge41" class="edge">
<title>{ &#160;}&#45;&gt;AppModule</title>
<path fill="none" stroke="#000000" d="M5615,-122.1532C5615,-145.7566 5615,-184 5615,-184 5615,-184 3305.73,-184 3305.73,-184"/>
<polygon fill="#000000" stroke="#000000" points="3305.7301,-180.5001 3295.73,-184 3305.73,-187.5001 3305.7301,-180.5001"/>
</g>
<!-- RouterModule.forRoot(args) -->
<g id="node44" class="node">
<title>RouterModule.forRoot(args)</title>
<polygon fill="#8dd3c7" stroke="#000000" points="6447.8419,-190 6444.8419,-194 6423.8419,-194 6420.8419,-190 6270.1581,-190 6270.1581,-154 6447.8419,-154 6447.8419,-190"/>
<text text-anchor="middle" x="6359" y="-167.8" font-family="Times,serif" font-size="14.00" fill="#000000">RouterModule.forRoot(args)</text>
</g>
<!-- RouterModule.forRoot(args)&#45;&gt;AppRoutingModule -->
<g id="edge43" class="edge">
<title>RouterModule.forRoot(args)&#45;&gt;AppRoutingModule</title>
<path fill="none" stroke="#000000" d="M6359,-153.7079C6359,-131.7943 6359,-98 6359,-98 6359,-98 6114.5544,-98 6114.5544,-98"/>
<polygon fill="#000000" stroke="#000000" points="6114.5544,-94.5001 6104.5544,-98 6114.5544,-101.5001 6114.5544,-94.5001"/>
</g>
</g>
</svg>
