<?xml version="1.0" encoding="UTF-8" standalone="no"?>
<!DOCTYPE svg PUBLIC "-//W3C//DTD SVG 1.1//EN"
 "http://www.w3.org/Graphics/SVG/1.1/DTD/svg11.dtd">
<!-- Generated by graphviz version 2.40.1 (20161225.0304)
 -->
<!-- Title: dependencies Pages: 1 -->
<svg width="504pt" height="284pt"
 viewBox="0.00 0.00 504.00 284.00" xmlns="http://www.w3.org/2000/svg" xmlns:xlink="http://www.w3.org/1999/xlink">
<g id="graph0" class="graph" transform="scale(1 1) rotate(0) translate(4 280)">
<title>dependencies</title>
<polygon fill="#ffffff" stroke="transparent" points="-4,4 -4,-280 500,-280 500,4 -4,4"/>
<text text-anchor="start" x="227.0091" y="-42.4" font-family="sans-serif" font-weight="bold" font-size="14.00" fill="#000000">Legend</text>
<polygon fill="#ffffb3" stroke="transparent" points="14,-10 14,-30 34,-30 34,-10 14,-10"/>
<text text-anchor="start" x="37.629" y="-15.4" font-family="sans-serif" font-size="14.00" fill="#000000"> &#160;Declarations</text>
<polygon fill="#8dd3c7" stroke="transparent" points="127,-10 127,-30 147,-30 147,-10 127,-10"/>
<text text-anchor="start" x="150.7251" y="-15.4" font-family="sans-serif" font-size="14.00" fill="#000000"> &#160;Module</text>
<polygon fill="#80b1d3" stroke="transparent" points="213,-10 213,-30 233,-30 233,-10 213,-10"/>
<text text-anchor="start" x="236.7812" y="-15.4" font-family="sans-serif" font-size="14.00" fill="#000000"> &#160;Bootstrap</text>
<polygon fill="#fdb462" stroke="transparent" points="310,-10 310,-30 330,-30 330,-10 310,-10"/>
<text text-anchor="start" x="333.6732" y="-15.4" font-family="sans-serif" font-size="14.00" fill="#000000"> &#160;Providers</text>
<polygon fill="#fb8072" stroke="transparent" points="406,-10 406,-30 426,-30 426,-10 406,-10"/>
<text text-anchor="start" x="429.7258" y="-15.4" font-family="sans-serif" font-size="14.00" fill="#000000"> &#160;Exports</text>
<g id="clust1" class="cluster">
<title>cluster_InvitationModule</title>
<polygon fill="none" stroke="#000000" stroke-dasharray="1,5" points="63.5,-70 63.5,-268 432.5,-268 432.5,-70 63.5,-70"/>
</g>
<g id="clust2" class="cluster">
<title>cluster_InvitationModule_declarations</title>
<polygon fill="none" stroke="#000000" points="71.5,-78 71.5,-130 424.5,-130 424.5,-78 71.5,-78"/>
</g>
<g id="clust6" class="cluster">
<title>cluster_InvitationModule_exports</title>
<polygon fill="none" stroke="#000000" points="158.5,-208 158.5,-260 336.5,-260 336.5,-208 158.5,-208"/>
</g>
<!-- InvitationItemComponent -->
<g id="node1" class="node">
<title>InvitationItemComponent</title>
<polygon fill="#ffffb3" stroke="#000000" points="416.427,-122 254.573,-122 254.573,-86 416.427,-86 416.427,-122"/>
<text text-anchor="middle" x="335.5" y="-99.8" font-family="Times,serif" font-size="14.00" fill="#000000">InvitationItemComponent</text>
</g>
<!-- InvitationModule -->
<g id="node3" class="node">
<title>InvitationModule</title>
<polygon fill="#8dd3c7" stroke="#000000" points="304.4874,-187 301.4874,-191 280.4874,-191 277.4874,-187 190.5126,-187 190.5126,-151 304.4874,-151 304.4874,-187"/>
<text text-anchor="middle" x="247.5" y="-164.8" font-family="Times,serif" font-size="14.00" fill="#000000">InvitationModule</text>
</g>
<!-- InvitationItemComponent&#45;&gt;InvitationModule -->
<g id="edge1" class="edge">
<title>InvitationItemComponent&#45;&gt;InvitationModule</title>
<path fill="none" stroke="#000000" d="M279.6403,-122.1061C279.6403,-122.1061 279.6403,-140.991 279.6403,-140.991"/>
<polygon fill="#000000" stroke="#000000" points="276.1403,-140.9909 279.6403,-150.991 283.1403,-140.991 276.1403,-140.9909"/>
</g>
<!-- InvitationListComponent -->
<g id="node2" class="node">
<title>InvitationListComponent</title>
<polygon fill="#ffffb3" stroke="#000000" points="237.049,-122 79.951,-122 79.951,-86 237.049,-86 237.049,-122"/>
<text text-anchor="middle" x="158.5" y="-99.8" font-family="Times,serif" font-size="14.00" fill="#000000">InvitationListComponent</text>
</g>
<!-- InvitationListComponent&#45;&gt;InvitationModule -->
<g id="edge2" class="edge">
<title>InvitationListComponent&#45;&gt;InvitationModule</title>
<path fill="none" stroke="#000000" d="M213.8903,-122.1061C213.8903,-122.1061 213.8903,-140.991 213.8903,-140.991"/>
<polygon fill="#000000" stroke="#000000" points="210.3903,-140.9909 213.8903,-150.991 217.3903,-140.991 210.3903,-140.9909"/>
</g>
<!-- InvitationListComponent  -->
<g id="node4" class="node">
<title>InvitationListComponent </title>
<polygon fill="#fb8072" stroke="#000000" points="328.0484,-252 166.9516,-252 166.9516,-216 328.0484,-216 328.0484,-252"/>
<text text-anchor="middle" x="247.5" y="-229.8" font-family="Times,serif" font-size="14.00" fill="#000000">InvitationListComponent </text>
</g>
<!-- InvitationModule&#45;&gt;InvitationListComponent  -->
<g id="edge3" class="edge">
<title>InvitationModule&#45;&gt;InvitationListComponent </title>
<path fill="none" stroke="#000000" stroke-dasharray="5,2" d="M247.5,-187.1061C247.5,-187.1061 247.5,-205.991 247.5,-205.991"/>
<polygon fill="#000000" stroke="#000000" points="244.0001,-205.9909 247.5,-215.991 251.0001,-205.991 244.0001,-205.9909"/>
</g>
</g>
</svg>
