<?xml version="1.0" encoding="UTF-8" standalone="no"?>
<!DOCTYPE svg PUBLIC "-//W3C//DTD SVG 1.1//EN"
 "http://www.w3.org/Graphics/SVG/1.1/DTD/svg11.dtd">
<!-- Generated by graphviz version 2.40.1 (20161225.0304)
 -->
<!-- Title: dependencies Pages: 1 -->
<svg width="2066pt" height="211pt"
 viewBox="0.00 0.00 2066.00 211.00" xmlns="http://www.w3.org/2000/svg" xmlns:xlink="http://www.w3.org/1999/xlink">
<g id="graph0" class="graph" transform="scale(1 1) rotate(0) translate(4 207)">
<title>dependencies</title>
<polygon fill="#ffffff" stroke="transparent" points="-4,4 -4,-207 2062,-207 2062,4 -4,4"/>
<text text-anchor="start" x="1008.0091" y="-42.4" font-family="sans-serif" font-weight="bold" font-size="14.00" fill="#000000">Legend</text>
<polygon fill="#ffffb3" stroke="transparent" points="795,-10 795,-30 815,-30 815,-10 795,-10"/>
<text text-anchor="start" x="818.629" y="-15.4" font-family="sans-serif" font-size="14.00" fill="#000000"> &#160;Declarations</text>
<polygon fill="#8dd3c7" stroke="transparent" points="908,-10 908,-30 928,-30 928,-10 908,-10"/>
<text text-anchor="start" x="931.7251" y="-15.4" font-family="sans-serif" font-size="14.00" fill="#000000"> &#160;Module</text>
<polygon fill="#80b1d3" stroke="transparent" points="994,-10 994,-30 1014,-30 1014,-10 994,-10"/>
<text text-anchor="start" x="1017.7812" y="-15.4" font-family="sans-serif" font-size="14.00" fill="#000000"> &#160;Bootstrap</text>
<polygon fill="#fdb462" stroke="transparent" points="1091,-10 1091,-30 1111,-30 1111,-10 1091,-10"/>
<text text-anchor="start" x="1114.6732" y="-15.4" font-family="sans-serif" font-size="14.00" fill="#000000"> &#160;Providers</text>
<polygon fill="#fb8072" stroke="transparent" points="1187,-10 1187,-30 1207,-30 1207,-10 1187,-10"/>
<text text-anchor="start" x="1210.7258" y="-15.4" font-family="sans-serif" font-size="14.00" fill="#000000"> &#160;Exports</text>
<g id="clust1" class="cluster">
<title>cluster_ImportMovieModule</title>
<polygon fill="none" stroke="#000000" stroke-dasharray="1,5" points="8,-70 8,-195 2050,-195 2050,-70 8,-70"/>
</g>
<g id="clust2" class="cluster">
<title>cluster_ImportMovieModule_declarations</title>
<polygon fill="none" stroke="#000000" points="420,-78 420,-130 2042,-130 2042,-78 420,-78"/>
</g>
<g id="clust11" class="cluster">
<title>cluster_ImportMovieModule_imports</title>
<polygon fill="none" stroke="#000000" points="16,-78 16,-130 412,-130 412,-78 16,-78"/>
</g>
<!-- ImportSpreadsheetComponent -->
<g id="node1" class="node">
<title>ImportSpreadsheetComponent</title>
<polygon fill="#ffffb3" stroke="#000000" points="2033.5716,-122 1846.4284,-122 1846.4284,-86 2033.5716,-86 2033.5716,-122"/>
<text text-anchor="middle" x="1940" y="-99.8" font-family="Times,serif" font-size="14.00" fill="#000000">ImportSpreadsheetComponent</text>
</g>
<!-- ImportMovieModule -->
<g id="node9" class="node">
<title>ImportMovieModule</title>
<polygon fill="#8dd3c7" stroke="#000000" points="1031.2022,-187 1028.2022,-191 1007.2022,-191 1004.2022,-187 896.7978,-187 896.7978,-151 1031.2022,-151 1031.2022,-187"/>
<text text-anchor="middle" x="964" y="-164.8" font-family="Times,serif" font-size="14.00" fill="#000000">ImportMovieModule</text>
</g>
<!-- ImportSpreadsheetComponent&#45;&gt;ImportMovieModule -->
<g id="edge1" class="edge">
<title>ImportSpreadsheetComponent&#45;&gt;ImportMovieModule</title>
<path fill="none" stroke="#000000" d="M1940,-122.0908C1940,-145.1328 1940,-182 1940,-182 1940,-182 1041.4695,-182 1041.4695,-182"/>
<polygon fill="#000000" stroke="#000000" points="1041.4695,-178.5001 1031.4695,-182 1041.4695,-185.5001 1041.4695,-178.5001"/>
</g>
<!-- ImportStepperComponent -->
<g id="node2" class="node">
<title>ImportStepperComponent</title>
<polygon fill="#ffffb3" stroke="#000000" points="1828.1979,-122 1665.8021,-122 1665.8021,-86 1828.1979,-86 1828.1979,-122"/>
<text text-anchor="middle" x="1747" y="-99.8" font-family="Times,serif" font-size="14.00" fill="#000000">ImportStepperComponent</text>
</g>
<!-- ImportStepperComponent&#45;&gt;ImportMovieModule -->
<g id="edge2" class="edge">
<title>ImportStepperComponent&#45;&gt;ImportMovieModule</title>
<path fill="none" stroke="#000000" d="M1747,-122.2843C1747,-143.3211 1747,-175 1747,-175 1747,-175 1041.4358,-175 1041.4358,-175"/>
<polygon fill="#000000" stroke="#000000" points="1041.4359,-171.5001 1031.4358,-175 1041.4358,-178.5001 1041.4359,-171.5001"/>
</g>
<!-- PreviewMovieComponent -->
<g id="node3" class="node">
<title>PreviewMovieComponent</title>
<polygon fill="#ffffb3" stroke="#000000" points="1647.752,-122 1484.248,-122 1484.248,-86 1647.752,-86 1647.752,-122"/>
<text text-anchor="middle" x="1566" y="-99.8" font-family="Times,serif" font-size="14.00" fill="#000000">PreviewMovieComponent</text>
</g>
<!-- PreviewMovieComponent&#45;&gt;ImportMovieModule -->
<g id="edge3" class="edge">
<title>PreviewMovieComponent&#45;&gt;ImportMovieModule</title>
<path fill="none" stroke="#000000" d="M1566,-122.1061C1566,-141.3391 1566,-169 1566,-169 1566,-169 1041.3047,-169 1041.3047,-169"/>
<polygon fill="#000000" stroke="#000000" points="1041.3048,-165.5001 1031.3047,-169 1041.3047,-172.5001 1041.3048,-165.5001"/>
</g>
<!-- PreviewSheetComponent -->
<g id="node4" class="node">
<title>PreviewSheetComponent</title>
<polygon fill="#ffffb3" stroke="#000000" points="1466.3047,-122 1307.6953,-122 1307.6953,-86 1466.3047,-86 1466.3047,-122"/>
<text text-anchor="middle" x="1387" y="-99.8" font-family="Times,serif" font-size="14.00" fill="#000000">PreviewSheetComponent</text>
</g>
<!-- PreviewSheetComponent&#45;&gt;ImportMovieModule -->
<g id="edge4" class="edge">
<title>PreviewSheetComponent&#45;&gt;ImportMovieModule</title>
<path fill="none" stroke="#000000" d="M1387,-122.0225C1387,-139.3734 1387,-163 1387,-163 1387,-163 1041.4933,-163 1041.4933,-163"/>
<polygon fill="#000000" stroke="#000000" points="1041.4934,-159.5001 1031.4933,-163 1041.4933,-166.5001 1041.4934,-159.5001"/>
</g>
<!-- TableExtractedMoviesComponent -->
<g id="node5" class="node">
<title>TableExtractedMoviesComponent</title>
<polygon fill="#ffffb3" stroke="#000000" points="1289.3375,-122 1080.6625,-122 1080.6625,-86 1289.3375,-86 1289.3375,-122"/>
<text text-anchor="middle" x="1185" y="-99.8" font-family="Times,serif" font-size="14.00" fill="#000000">TableExtractedMoviesComponent</text>
</g>
<!-- TableExtractedMoviesComponent&#45;&gt;ImportMovieModule -->
<g id="edge5" class="edge">
<title>TableExtractedMoviesComponent&#45;&gt;ImportMovieModule</title>
<path fill="none" stroke="#000000" d="M1185,-122.2396C1185,-137.5706 1185,-157 1185,-157 1185,-157 1041.2074,-157 1041.2074,-157"/>
<polygon fill="#000000" stroke="#000000" points="1041.2074,-153.5001 1031.2074,-157 1041.2074,-160.5001 1041.2074,-153.5001"/>
</g>
<!-- TableExtractedSalesComponent -->
<g id="node6" class="node">
<title>TableExtractedSalesComponent</title>
<polygon fill="#ffffb3" stroke="#000000" points="1062.3904,-122 865.6096,-122 865.6096,-86 1062.3904,-86 1062.3904,-122"/>
<text text-anchor="middle" x="964" y="-99.8" font-family="Times,serif" font-size="14.00" fill="#000000">TableExtractedSalesComponent</text>
</g>
<!-- TableExtractedSalesComponent&#45;&gt;ImportMovieModule -->
<g id="edge6" class="edge">
<title>TableExtractedSalesComponent&#45;&gt;ImportMovieModule</title>
<path fill="none" stroke="#000000" d="M964,-122.1061C964,-122.1061 964,-140.991 964,-140.991"/>
<polygon fill="#000000" stroke="#000000" points="960.5001,-140.9909 964,-150.991 967.5001,-140.991 960.5001,-140.9909"/>
</g>
<!-- ViewExtractedElementsComponent -->
<g id="node7" class="node">
<title>ViewExtractedElementsComponent</title>
<polygon fill="#ffffb3" stroke="#000000" points="847.8875,-122 630.1125,-122 630.1125,-86 847.8875,-86 847.8875,-122"/>
<text text-anchor="middle" x="739" y="-99.8" font-family="Times,serif" font-size="14.00" fill="#000000">ViewExtractedElementsComponent</text>
</g>
<!-- ViewExtractedElementsComponent&#45;&gt;ImportMovieModule -->
<g id="edge7" class="edge">
<title>ViewExtractedElementsComponent&#45;&gt;ImportMovieModule</title>
<path fill="none" stroke="#000000" d="M739,-122.2396C739,-137.5706 739,-157 739,-157 739,-157 886.7974,-157 886.7974,-157"/>
<polygon fill="#000000" stroke="#000000" points="886.7974,-160.5001 896.7974,-157 886.7973,-153.5001 886.7974,-160.5001"/>
</g>
<!-- ViewImportErrorsComponent -->
<g id="node8" class="node">
<title>ViewImportErrorsComponent</title>
<polygon fill="#ffffb3" stroke="#000000" points="612.2324,-122 427.7676,-122 427.7676,-86 612.2324,-86 612.2324,-122"/>
<text text-anchor="middle" x="520" y="-99.8" font-family="Times,serif" font-size="14.00" fill="#000000">ViewImportErrorsComponent</text>
</g>
<!-- ViewImportErrorsComponent&#45;&gt;ImportMovieModule -->
<g id="edge8" class="edge">
<title>ViewImportErrorsComponent&#45;&gt;ImportMovieModule</title>
<path fill="none" stroke="#000000" d="M520,-122.0225C520,-139.3734 520,-163 520,-163 520,-163 886.566,-163 886.566,-163"/>
<polygon fill="#000000" stroke="#000000" points="886.566,-166.5001 896.566,-163 886.5659,-159.5001 886.566,-166.5001"/>
</g>
<!-- MovieDisplayModule -->
<g id="node10" class="node">
<title>MovieDisplayModule</title>
<polygon fill="#8dd3c7" stroke="#000000" points="403.647,-122 400.647,-126 379.647,-126 376.647,-122 264.353,-122 264.353,-86 403.647,-86 403.647,-122"/>
<text text-anchor="middle" x="334" y="-99.8" font-family="Times,serif" font-size="14.00" fill="#000000">MovieDisplayModule</text>
</g>
<!-- MovieDisplayModule&#45;&gt;ImportMovieModule -->
<g id="edge9" class="edge">
<title>MovieDisplayModule&#45;&gt;ImportMovieModule</title>
<path fill="none" stroke="#000000" d="M334,-122.1061C334,-141.3391 334,-169 334,-169 334,-169 886.8775,-169 886.8775,-169"/>
<polygon fill="#000000" stroke="#000000" points="886.8775,-172.5001 896.8775,-169 886.8774,-165.5001 886.8775,-172.5001"/>
</g>
<!-- UiFormModule -->
<g id="node11" class="node">
<title>UiFormModule</title>
<polygon fill="#8dd3c7" stroke="#000000" points="245.8809,-122 242.8809,-126 221.8809,-126 218.8809,-122 142.1191,-122 142.1191,-86 245.8809,-86 245.8809,-122"/>
<text text-anchor="middle" x="194" y="-99.8" font-family="Times,serif" font-size="14.00" fill="#000000">UiFormModule</text>
</g>
<!-- UiFormModule&#45;&gt;ImportMovieModule -->
<g id="edge10" class="edge">
<title>UiFormModule&#45;&gt;ImportMovieModule</title>
<path fill="none" stroke="#000000" d="M194,-122.2843C194,-143.3211 194,-175 194,-175 194,-175 886.6789,-175 886.6789,-175"/>
<polygon fill="#000000" stroke="#000000" points="886.6789,-178.5001 896.6789,-175 886.6788,-171.5001 886.6789,-178.5001"/>
</g>
<!-- UploadModule -->
<g id="node12" class="node">
<title>UploadModule</title>
<polygon fill="#8dd3c7" stroke="#000000" points="124.2619,-122 121.2619,-126 100.2619,-126 97.2619,-122 23.7381,-122 23.7381,-86 124.2619,-86 124.2619,-122"/>
<text text-anchor="middle" x="74" y="-99.8" font-family="Times,serif" font-size="14.00" fill="#000000">UploadModule</text>
</g>
<!-- UploadModule&#45;&gt;ImportMovieModule -->
<g id="edge11" class="edge">
<title>UploadModule&#45;&gt;ImportMovieModule</title>
<path fill="none" stroke="#000000" d="M74,-122.0908C74,-145.1328 74,-182 74,-182 74,-182 886.7405,-182 886.7405,-182"/>
<polygon fill="#000000" stroke="#000000" points="886.7406,-185.5001 896.7405,-182 886.7405,-178.5001 886.7406,-185.5001"/>
</g>
</g>
</svg>
