<?xml version="1.0" encoding="UTF-8" standalone="no"?>
<!DOCTYPE svg PUBLIC "-//W3C//DTD SVG 1.1//EN"
 "http://www.w3.org/Graphics/SVG/1.1/DTD/svg11.dtd">
<!-- Generated by graphviz version 2.40.1 (20161225.0304)
 -->
<!-- Title: dependencies Pages: 1 -->
<svg width="3343pt" height="211pt"
 viewBox="0.00 0.00 3343.00 211.00" xmlns="http://www.w3.org/2000/svg" xmlns:xlink="http://www.w3.org/1999/xlink">
<g id="graph0" class="graph" transform="scale(1 1) rotate(0) translate(4 207)">
<title>dependencies</title>
<polygon fill="#ffffff" stroke="transparent" points="-4,4 -4,-207 3339,-207 3339,4 -4,4"/>
<text text-anchor="start" x="1646.5091" y="-42.4" font-family="sans-serif" font-weight="bold" font-size="14.00" fill="#000000">Legend</text>
<polygon fill="#ffffb3" stroke="transparent" points="1433.5,-10 1433.5,-30 1453.5,-30 1453.5,-10 1433.5,-10"/>
<text text-anchor="start" x="1457.129" y="-15.4" font-family="sans-serif" font-size="14.00" fill="#000000"> &#160;Declarations</text>
<polygon fill="#8dd3c7" stroke="transparent" points="1546.5,-10 1546.5,-30 1566.5,-30 1566.5,-10 1546.5,-10"/>
<text text-anchor="start" x="1570.2251" y="-15.4" font-family="sans-serif" font-size="14.00" fill="#000000"> &#160;Module</text>
<polygon fill="#80b1d3" stroke="transparent" points="1632.5,-10 1632.5,-30 1652.5,-30 1652.5,-10 1632.5,-10"/>
<text text-anchor="start" x="1656.2812" y="-15.4" font-family="sans-serif" font-size="14.00" fill="#000000"> &#160;Bootstrap</text>
<polygon fill="#fdb462" stroke="transparent" points="1729.5,-10 1729.5,-30 1749.5,-30 1749.5,-10 1729.5,-10"/>
<text text-anchor="start" x="1753.1732" y="-15.4" font-family="sans-serif" font-size="14.00" fill="#000000"> &#160;Providers</text>
<polygon fill="#fb8072" stroke="transparent" points="1825.5,-10 1825.5,-30 1845.5,-30 1845.5,-10 1825.5,-10"/>
<text text-anchor="start" x="1849.2258" y="-15.4" font-family="sans-serif" font-size="14.00" fill="#000000"> &#160;Exports</text>
<g id="clust1" class="cluster">
<title>cluster_MovieViewModule</title>
<polygon fill="none" stroke="#000000" stroke-dasharray="1,5" points="8,-70 8,-195 3327,-195 3327,-70 8,-70"/>
</g>
<g id="clust2" class="cluster">
<title>cluster_MovieViewModule_declarations</title>
<polygon fill="none" stroke="#000000" points="3085,-78 3085,-130 3319,-130 3319,-78 3085,-78"/>
</g>
<g id="clust4" class="cluster">
<title>cluster_MovieViewModule_imports</title>
<polygon fill="none" stroke="#000000" points="16,-78 16,-130 3077,-130 3077,-78 16,-78"/>
</g>
<!-- MarketplaceMovieViewComponent -->
<g id="node1" class="node">
<title>MarketplaceMovieViewComponent</title>
<polygon fill="#ffffb3" stroke="#000000" points="3311.1601,-122 3092.8399,-122 3092.8399,-86 3311.1601,-86 3311.1601,-122"/>
<text text-anchor="middle" x="3202" y="-99.8" font-family="Times,serif" font-size="14.00" fill="#000000">MarketplaceMovieViewComponent</text>
</g>
<!-- MovieViewModule -->
<g id="node2" class="node">
<title>MovieViewModule</title>
<polygon fill="#8dd3c7" stroke="#000000" points="1608.4187,-187 1605.4187,-191 1584.4187,-191 1581.4187,-187 1481.5813,-187 1481.5813,-151 1608.4187,-151 1608.4187,-187"/>
<text text-anchor="middle" x="1545" y="-164.8" font-family="Times,serif" font-size="14.00" fill="#000000">MovieViewModule</text>
</g>
<!-- MarketplaceMovieViewComponent&#45;&gt;MovieViewModule -->
<g id="edge1" class="edge">
<title>MarketplaceMovieViewComponent&#45;&gt;MovieViewModule</title>
<path fill="none" stroke="#000000" d="M3202,-122.3228C3202,-145.6602 3202,-183 3202,-183 3202,-183 1618.4361,-183 1618.4361,-183"/>
<polygon fill="#000000" stroke="#000000" points="1618.4362,-179.5001 1608.4361,-183 1618.4361,-186.5001 1618.4362,-179.5001"/>
</g>
<!-- CommonModule -->
<g id="node3" class="node">
<title>CommonModule</title>
<polygon fill="#8dd3c7" stroke="#000000" points="3068.6681,-122 3065.6681,-126 3044.6681,-126 3041.6681,-122 2957.3319,-122 2957.3319,-86 3068.6681,-86 3068.6681,-122"/>
<text text-anchor="middle" x="3013" y="-99.8" font-family="Times,serif" font-size="14.00" fill="#000000">CommonModule</text>
</g>
<!-- CommonModule&#45;&gt;MovieViewModule -->
<g id="edge2" class="edge">
<title>CommonModule&#45;&gt;MovieViewModule</title>
<path fill="none" stroke="#000000" d="M3013,-122.1554C3013,-144.3519 3013,-179 3013,-179 3013,-179 1618.5493,-179 1618.5493,-179"/>
<polygon fill="#000000" stroke="#000000" points="1618.5493,-175.5001 1608.5493,-179 1618.5493,-182.5001 1618.5493,-175.5001"/>
</g>
<!-- FlexLayoutModule -->
<g id="node4" class="node">
<title>FlexLayoutModule</title>
<polygon fill="#8dd3c7" stroke="#000000" points="2939.0954,-122 2936.0954,-126 2915.0954,-126 2912.0954,-122 2814.9046,-122 2814.9046,-86 2939.0954,-86 2939.0954,-122"/>
<text text-anchor="middle" x="2877" y="-99.8" font-family="Times,serif" font-size="14.00" fill="#000000">FlexLayoutModule</text>
</g>
<!-- FlexLayoutModule&#45;&gt;MovieViewModule -->
<g id="edge3" class="edge">
<title>FlexLayoutModule&#45;&gt;MovieViewModule</title>
<path fill="none" stroke="#000000" d="M2877,-122.2843C2877,-143.3211 2877,-175 2877,-175 2877,-175 1618.349,-175 1618.349,-175"/>
<polygon fill="#000000" stroke="#000000" points="1618.3491,-171.5001 1608.349,-175 1618.349,-178.5001 1618.3491,-171.5001"/>
</g>
<!-- MovieDisplayAvailabilitiesModule -->
<g id="node5" class="node">
<title>MovieDisplayAvailabilitiesModule</title>
<polygon fill="#8dd3c7" stroke="#000000" points="2796.5758,-122 2793.5758,-126 2772.5758,-126 2769.5758,-122 2581.4242,-122 2581.4242,-86 2796.5758,-86 2796.5758,-122"/>
<text text-anchor="middle" x="2689" y="-99.8" font-family="Times,serif" font-size="14.00" fill="#000000">MovieDisplayAvailabilitiesModule</text>
</g>
<!-- MovieDisplayAvailabilitiesModule&#45;&gt;MovieViewModule -->
<g id="edge4" class="edge">
<title>MovieDisplayAvailabilitiesModule&#45;&gt;MovieViewModule</title>
<path fill="none" stroke="#000000" d="M2689,-122.308C2689,-142.1455 2689,-171 2689,-171 2689,-171 1618.5463,-171 1618.5463,-171"/>
<polygon fill="#000000" stroke="#000000" points="1618.5463,-167.5001 1608.5463,-171 1618.5462,-174.5001 1618.5463,-167.5001"/>
</g>
<!-- MovieDisplayProductionModule -->
<g id="node6" class="node">
<title>MovieDisplayProductionModule</title>
<polygon fill="#8dd3c7" stroke="#000000" points="2563.5856,-122 2560.5856,-126 2539.5856,-126 2536.5856,-122 2362.4144,-122 2362.4144,-86 2563.5856,-86 2563.5856,-122"/>
<text text-anchor="middle" x="2463" y="-99.8" font-family="Times,serif" font-size="14.00" fill="#000000">MovieDisplayProductionModule</text>
</g>
<!-- MovieDisplayProductionModule&#45;&gt;MovieViewModule -->
<g id="edge5" class="edge">
<title>MovieDisplayProductionModule&#45;&gt;MovieViewModule</title>
<path fill="none" stroke="#000000" d="M2463,-122.2222C2463,-140.8285 2463,-167 2463,-167 2463,-167 1618.4601,-167 1618.4601,-167"/>
<polygon fill="#000000" stroke="#000000" points="1618.4601,-163.5001 1608.4601,-167 1618.46,-170.5001 1618.4601,-163.5001"/>
</g>
<!-- MovieDisplayPrincipalInformationsModule -->
<g id="node7" class="node">
<title>MovieDisplayPrincipalInformationsModule</title>
<polygon fill="#8dd3c7" stroke="#000000" points="2344.0041,-122 2341.0041,-126 2320.0041,-126 2317.0041,-122 2081.9959,-122 2081.9959,-86 2344.0041,-86 2344.0041,-122"/>
<text text-anchor="middle" x="2213" y="-99.8" font-family="Times,serif" font-size="14.00" fill="#000000">MovieDisplayPrincipalInformationsModule</text>
</g>
<!-- MovieDisplayPrincipalInformationsModule&#45;&gt;MovieViewModule -->
<g id="edge6" class="edge">
<title>MovieDisplayPrincipalInformationsModule&#45;&gt;MovieViewModule</title>
<path fill="none" stroke="#000000" d="M2213,-122.0225C2213,-139.3734 2213,-163 2213,-163 2213,-163 1618.446,-163 1618.446,-163"/>
<polygon fill="#000000" stroke="#000000" points="1618.4461,-159.5001 1608.446,-163 1618.446,-166.5001 1618.4461,-159.5001"/>
</g>
<!-- MovieDisplaySynopsisModule -->
<g id="node8" class="node">
<title>MovieDisplaySynopsisModule</title>
<polygon fill="#8dd3c7" stroke="#000000" points="2064.2091,-122 2061.2091,-126 2040.2091,-126 2037.2091,-122 1873.7909,-122 1873.7909,-86 2064.2091,-86 2064.2091,-122"/>
<text text-anchor="middle" x="1969" y="-99.8" font-family="Times,serif" font-size="14.00" fill="#000000">MovieDisplaySynopsisModule</text>
</g>
<!-- MovieDisplaySynopsisModule&#45;&gt;MovieViewModule -->
<g id="edge7" class="edge">
<title>MovieDisplaySynopsisModule&#45;&gt;MovieViewModule</title>
<path fill="none" stroke="#000000" d="M1969,-122.0091C1969,-138.0494 1969,-159 1969,-159 1969,-159 1618.4771,-159 1618.4771,-159"/>
<polygon fill="#000000" stroke="#000000" points="1618.4771,-155.5001 1608.4771,-159 1618.477,-162.5001 1618.4771,-155.5001"/>
</g>
<!-- MovieDisplayFilmDetailsModule -->
<g id="node9" class="node">
<title>MovieDisplayFilmDetailsModule</title>
<polygon fill="#8dd3c7" stroke="#000000" points="1855.7533,-122 1852.7533,-126 1831.7533,-126 1828.7533,-122 1650.2467,-122 1650.2467,-86 1855.7533,-86 1855.7533,-122"/>
<text text-anchor="middle" x="1753" y="-99.8" font-family="Times,serif" font-size="14.00" fill="#000000">MovieDisplayFilmDetailsModule</text>
</g>
<!-- MovieDisplayFilmDetailsModule&#45;&gt;MovieViewModule -->
<g id="edge8" class="edge">
<title>MovieDisplayFilmDetailsModule&#45;&gt;MovieViewModule</title>
<path fill="none" stroke="#000000" d="M1753,-122.1243C1753,-136.7832 1753,-155 1753,-155 1753,-155 1618.254,-155 1618.254,-155"/>
<polygon fill="#000000" stroke="#000000" points="1618.2541,-151.5001 1608.254,-155 1618.254,-158.5001 1618.2541,-151.5001"/>
</g>
<!-- MovieDisplayPrizesModule -->
<g id="node10" class="node">
<title>MovieDisplayPrizesModule</title>
<polygon fill="#8dd3c7" stroke="#000000" points="1631.8543,-122 1628.8543,-126 1607.8543,-126 1604.8543,-122 1458.1457,-122 1458.1457,-86 1631.8543,-86 1631.8543,-122"/>
<text text-anchor="middle" x="1545" y="-99.8" font-family="Times,serif" font-size="14.00" fill="#000000">MovieDisplayPrizesModule</text>
</g>
<!-- MovieDisplayPrizesModule&#45;&gt;MovieViewModule -->
<g id="edge9" class="edge">
<title>MovieDisplayPrizesModule&#45;&gt;MovieViewModule</title>
<path fill="none" stroke="#000000" d="M1545,-122.1061C1545,-122.1061 1545,-140.991 1545,-140.991"/>
<polygon fill="#000000" stroke="#000000" points="1541.5001,-140.9909 1545,-150.991 1548.5001,-140.991 1541.5001,-140.9909"/>
</g>
<!-- MovieDisplayAssetsModule -->
<g id="node11" class="node">
<title>MovieDisplayAssetsModule</title>
<polygon fill="#8dd3c7" stroke="#000000" points="1440.1923,-122 1437.1923,-126 1416.1923,-126 1413.1923,-122 1263.8077,-122 1263.8077,-86 1440.1923,-86 1440.1923,-122"/>
<text text-anchor="middle" x="1352" y="-99.8" font-family="Times,serif" font-size="14.00" fill="#000000">MovieDisplayAssetsModule</text>
</g>
<!-- MovieDisplayAssetsModule&#45;&gt;MovieViewModule -->
<g id="edge10" class="edge">
<title>MovieDisplayAssetsModule&#45;&gt;MovieViewModule</title>
<path fill="none" stroke="#000000" d="M1352,-122.1243C1352,-136.7832 1352,-155 1352,-155 1352,-155 1471.5373,-155 1471.5373,-155"/>
<polygon fill="#000000" stroke="#000000" points="1471.5373,-158.5001 1481.5373,-155 1471.5372,-151.5001 1471.5373,-158.5001"/>
</g>
<!-- MovieDisplayKeywordsModule -->
<g id="node12" class="node">
<title>MovieDisplayKeywordsModule</title>
<polygon fill="#8dd3c7" stroke="#000000" points="1245.6797,-122 1242.6797,-126 1221.6797,-126 1218.6797,-122 1048.3203,-122 1048.3203,-86 1245.6797,-86 1245.6797,-122"/>
<text text-anchor="middle" x="1147" y="-99.8" font-family="Times,serif" font-size="14.00" fill="#000000">MovieDisplayKeywordsModule</text>
</g>
<!-- MovieDisplayKeywordsModule&#45;&gt;MovieViewModule -->
<g id="edge11" class="edge">
<title>MovieDisplayKeywordsModule&#45;&gt;MovieViewModule</title>
<path fill="none" stroke="#000000" d="M1147,-122.0091C1147,-138.0494 1147,-159 1147,-159 1147,-159 1471.4956,-159 1471.4956,-159"/>
<polygon fill="#000000" stroke="#000000" points="1471.4957,-162.5001 1481.4956,-159 1471.4956,-155.5001 1471.4957,-162.5001"/>
</g>
<!-- MovieDisplayVersionInfoModule -->
<g id="node13" class="node">
<title>MovieDisplayVersionInfoModule</title>
<polygon fill="#8dd3c7" stroke="#000000" points="1030.785,-122 1027.785,-126 1006.785,-126 1003.785,-122 823.215,-122 823.215,-86 1030.785,-86 1030.785,-122"/>
<text text-anchor="middle" x="927" y="-99.8" font-family="Times,serif" font-size="14.00" fill="#000000">MovieDisplayVersionInfoModule</text>
</g>
<!-- MovieDisplayVersionInfoModule&#45;&gt;MovieViewModule -->
<g id="edge12" class="edge">
<title>MovieDisplayVersionInfoModule&#45;&gt;MovieViewModule</title>
<path fill="none" stroke="#000000" d="M927,-122.0225C927,-139.3734 927,-163 927,-163 927,-163 1471.7674,-163 1471.7674,-163"/>
<polygon fill="#000000" stroke="#000000" points="1471.7675,-166.5001 1481.7674,-163 1471.7674,-159.5001 1471.7675,-166.5001"/>
</g>
<!-- MatCardModule -->
<g id="node14" class="node">
<title>MatCardModule</title>
<polygon fill="#8dd3c7" stroke="#000000" points="805.8118,-122 802.8118,-126 781.8118,-126 778.8118,-122 696.1882,-122 696.1882,-86 805.8118,-86 805.8118,-122"/>
<text text-anchor="middle" x="751" y="-99.8" font-family="Times,serif" font-size="14.00" fill="#000000">MatCardModule</text>
</g>
<!-- MatCardModule&#45;&gt;MovieViewModule -->
<g id="edge13" class="edge">
<title>MatCardModule&#45;&gt;MovieViewModule</title>
<path fill="none" stroke="#000000" d="M751,-122.2222C751,-140.8285 751,-167 751,-167 751,-167 1471.6995,-167 1471.6995,-167"/>
<polygon fill="#000000" stroke="#000000" points="1471.6996,-170.5001 1481.6995,-167 1471.6995,-163.5001 1471.6996,-170.5001"/>
</g>
<!-- MatDividerModule -->
<g id="node15" class="node">
<title>MatDividerModule</title>
<polygon fill="#8dd3c7" stroke="#000000" points="678.3627,-122 675.3627,-126 654.3627,-126 651.3627,-122 553.6373,-122 553.6373,-86 678.3627,-86 678.3627,-122"/>
<text text-anchor="middle" x="616" y="-99.8" font-family="Times,serif" font-size="14.00" fill="#000000">MatDividerModule</text>
</g>
<!-- MatDividerModule&#45;&gt;MovieViewModule -->
<g id="edge14" class="edge">
<title>MatDividerModule&#45;&gt;MovieViewModule</title>
<path fill="none" stroke="#000000" d="M616,-122.308C616,-142.1455 616,-171 616,-171 616,-171 1471.5117,-171 1471.5117,-171"/>
<polygon fill="#000000" stroke="#000000" points="1471.5117,-174.5001 1481.5117,-171 1471.5117,-167.5001 1471.5117,-174.5001"/>
</g>
<!-- MatProgressSpinnerModule -->
<g id="node16" class="node">
<title>MatProgressSpinnerModule</title>
<polygon fill="#8dd3c7" stroke="#000000" points="535.8557,-122 532.8557,-126 511.8557,-126 508.8557,-122 362.1443,-122 362.1443,-86 535.8557,-86 535.8557,-122"/>
<text text-anchor="middle" x="449" y="-99.8" font-family="Times,serif" font-size="14.00" fill="#000000">MatProgressSpinnerModule</text>
</g>
<!-- MatProgressSpinnerModule&#45;&gt;MovieViewModule -->
<g id="edge15" class="edge">
<title>MatProgressSpinnerModule&#45;&gt;MovieViewModule</title>
<path fill="none" stroke="#000000" d="M449,-122.2843C449,-143.3211 449,-175 449,-175 449,-175 1471.738,-175 1471.738,-175"/>
<polygon fill="#000000" stroke="#000000" points="1471.738,-178.5001 1481.738,-175 1471.738,-171.5001 1471.738,-178.5001"/>
</g>
<!-- MatButtonModule -->
<g id="node17" class="node">
<title>MatButtonModule</title>
<polygon fill="#8dd3c7" stroke="#000000" points="344.2176,-122 341.2176,-126 320.2176,-126 317.2176,-122 223.7824,-122 223.7824,-86 344.2176,-86 344.2176,-122"/>
<text text-anchor="middle" x="284" y="-99.8" font-family="Times,serif" font-size="14.00" fill="#000000">MatButtonModule</text>
</g>
<!-- MatButtonModule&#45;&gt;MovieViewModule -->
<g id="edge16" class="edge">
<title>MatButtonModule&#45;&gt;MovieViewModule</title>
<path fill="none" stroke="#000000" d="M284,-122.1554C284,-144.3519 284,-179 284,-179 284,-179 1471.6026,-179 1471.6026,-179"/>
<polygon fill="#000000" stroke="#000000" points="1471.6027,-182.5001 1481.6026,-179 1471.6026,-175.5001 1471.6027,-182.5001"/>
</g>
<!-- RouterModule.forChild(args) -->
<g id="node18" class="node">
<title>RouterModule.forChild(args)</title>
<polygon fill="#8dd3c7" stroke="#000000" points="205.7323,-122 202.7323,-126 181.7323,-126 178.7323,-122 24.2677,-122 24.2677,-86 205.7323,-86 205.7323,-122"/>
<text text-anchor="middle" x="115" y="-99.8" font-family="Times,serif" font-size="14.00" fill="#000000">RouterModule.forChild(args)</text>
</g>
<!-- RouterModule.forChild(args)&#45;&gt;MovieViewModule -->
<g id="edge17" class="edge">
<title>RouterModule.forChild(args)&#45;&gt;MovieViewModule</title>
<path fill="none" stroke="#000000" d="M115,-122.3228C115,-145.6602 115,-183 115,-183 115,-183 1471.7095,-183 1471.7095,-183"/>
<polygon fill="#000000" stroke="#000000" points="1471.7096,-186.5001 1481.7095,-183 1471.7095,-179.5001 1471.7096,-186.5001"/>
</g>
</g>
</svg>
