<?xml version="1.0" encoding="UTF-8" standalone="no"?>
<!DOCTYPE svg PUBLIC "-//W3C//DTD SVG 1.1//EN"
 "http://www.w3.org/Graphics/SVG/1.1/DTD/svg11.dtd">
<!-- Generated by graphviz version 2.40.1 (20161225.0304)
 -->
<!-- Title: dependencies Pages: 1 -->
<svg width="2271pt" height="211pt"
 viewBox="0.00 0.00 2271.00 211.00" xmlns="http://www.w3.org/2000/svg" xmlns:xlink="http://www.w3.org/1999/xlink">
<g id="graph0" class="graph" transform="scale(1 1) rotate(0) translate(4 207)">
<title>dependencies</title>
<polygon fill="#ffffff" stroke="transparent" points="-4,4 -4,-207 2267,-207 2267,4 -4,4"/>
<text text-anchor="start" x="1110.5091" y="-42.4" font-family="sans-serif" font-weight="bold" font-size="14.00" fill="#000000">Legend</text>
<polygon fill="#ffffb3" stroke="transparent" points="897.5,-10 897.5,-30 917.5,-30 917.5,-10 897.5,-10"/>
<text text-anchor="start" x="921.129" y="-15.4" font-family="sans-serif" font-size="14.00" fill="#000000"> &#160;Declarations</text>
<polygon fill="#8dd3c7" stroke="transparent" points="1010.5,-10 1010.5,-30 1030.5,-30 1030.5,-10 1010.5,-10"/>
<text text-anchor="start" x="1034.2251" y="-15.4" font-family="sans-serif" font-size="14.00" fill="#000000"> &#160;Module</text>
<polygon fill="#80b1d3" stroke="transparent" points="1096.5,-10 1096.5,-30 1116.5,-30 1116.5,-10 1096.5,-10"/>
<text text-anchor="start" x="1120.2812" y="-15.4" font-family="sans-serif" font-size="14.00" fill="#000000"> &#160;Bootstrap</text>
<polygon fill="#fdb462" stroke="transparent" points="1193.5,-10 1193.5,-30 1213.5,-30 1213.5,-10 1193.5,-10"/>
<text text-anchor="start" x="1217.1732" y="-15.4" font-family="sans-serif" font-size="14.00" fill="#000000"> &#160;Providers</text>
<polygon fill="#fb8072" stroke="transparent" points="1289.5,-10 1289.5,-30 1309.5,-30 1309.5,-10 1289.5,-10"/>
<text text-anchor="start" x="1313.2258" y="-15.4" font-family="sans-serif" font-size="14.00" fill="#000000"> &#160;Exports</text>
<g id="clust1" class="cluster">
<title>cluster_MovieViewModule</title>
<polygon fill="none" stroke="#000000" stroke-dasharray="1,5" points="8,-70 8,-195 2255,-195 2255,-70 8,-70"/>
</g>
<g id="clust2" class="cluster">
<title>cluster_MovieViewModule_declarations</title>
<polygon fill="none" stroke="#000000" points="2013,-78 2013,-130 2247,-130 2247,-78 2013,-78"/>
</g>
<g id="clust4" class="cluster">
<title>cluster_MovieViewModule_imports</title>
<polygon fill="none" stroke="#000000" points="16,-78 16,-130 2005,-130 2005,-78 16,-78"/>
</g>
<!-- MarketplaceMovieViewComponent -->
<g id="node1" class="node">
<title>MarketplaceMovieViewComponent</title>
<polygon fill="#ffffb3" stroke="#000000" points="2239.1601,-122 2020.8399,-122 2020.8399,-86 2239.1601,-86 2239.1601,-122"/>
<text text-anchor="middle" x="2130" y="-99.8" font-family="Times,serif" font-size="14.00" fill="#000000">MarketplaceMovieViewComponent</text>
</g>
<!-- MovieViewModule -->
<g id="node2" class="node">
<title>MovieViewModule</title>
<polygon fill="#8dd3c7" stroke="#000000" points="1187.4187,-187 1184.4187,-191 1163.4187,-191 1160.4187,-187 1060.5813,-187 1060.5813,-151 1187.4187,-151 1187.4187,-187"/>
<text text-anchor="middle" x="1124" y="-164.8" font-family="Times,serif" font-size="14.00" fill="#000000">MovieViewModule</text>
</g>
<!-- MarketplaceMovieViewComponent&#45;&gt;MovieViewModule -->
<g id="edge1" class="edge">
<title>MarketplaceMovieViewComponent&#45;&gt;MovieViewModule</title>
<path fill="none" stroke="#000000" d="M2130,-122.0109C2130,-144.4852 2130,-180 2130,-180 2130,-180 1197.3109,-180 1197.3109,-180"/>
<polygon fill="#000000" stroke="#000000" points="1197.3109,-176.5001 1187.3109,-180 1197.3109,-183.5001 1197.3109,-176.5001"/>
</g>
<!-- MovieDisplayAssetsModule -->
<g id="node3" class="node">
<title>MovieDisplayAssetsModule</title>
<polygon fill="#8dd3c7" stroke="#000000" points="1997.1923,-122 1994.1923,-126 1973.1923,-126 1970.1923,-122 1820.8077,-122 1820.8077,-86 1997.1923,-86 1997.1923,-122"/>
<text text-anchor="middle" x="1909" y="-99.8" font-family="Times,serif" font-size="14.00" fill="#000000">MovieDisplayAssetsModule</text>
</g>
<!-- MovieDisplayAssetsModule&#45;&gt;MovieViewModule -->
<g id="edge2" class="edge">
<title>MovieDisplayAssetsModule&#45;&gt;MovieViewModule</title>
<path fill="none" stroke="#000000" d="M1909,-122.1289C1909,-142.5724 1909,-173 1909,-173 1909,-173 1197.2435,-173 1197.2435,-173"/>
<polygon fill="#000000" stroke="#000000" points="1197.2436,-169.5001 1187.2435,-173 1197.2435,-176.5001 1197.2436,-169.5001"/>
</g>
<!-- MovieDisplayAvailabilitiesModule -->
<g id="node4" class="node">
<title>MovieDisplayAvailabilitiesModule</title>
<polygon fill="#8dd3c7" stroke="#000000" points="1802.5758,-122 1799.5758,-126 1778.5758,-126 1775.5758,-122 1587.4242,-122 1587.4242,-86 1802.5758,-86 1802.5758,-122"/>
<text text-anchor="middle" x="1695" y="-99.8" font-family="Times,serif" font-size="14.00" fill="#000000">MovieDisplayAvailabilitiesModule</text>
</g>
<!-- MovieDisplayAvailabilitiesModule&#45;&gt;MovieViewModule -->
<g id="edge3" class="edge">
<title>MovieDisplayAvailabilitiesModule&#45;&gt;MovieViewModule</title>
<path fill="none" stroke="#000000" d="M1695,-122.2667C1695,-140.5552 1695,-166 1695,-166 1695,-166 1197.2887,-166 1197.2887,-166"/>
<polygon fill="#000000" stroke="#000000" points="1197.2887,-162.5001 1187.2887,-166 1197.2886,-169.5001 1197.2887,-162.5001"/>
</g>
<!-- MovieDisplayFilmDetailsModule -->
<g id="node5" class="node">
<title>MovieDisplayFilmDetailsModule</title>
<polygon fill="#8dd3c7" stroke="#000000" points="1569.7533,-122 1566.7533,-126 1545.7533,-126 1542.7533,-122 1364.2467,-122 1364.2467,-86 1569.7533,-86 1569.7533,-122"/>
<text text-anchor="middle" x="1467" y="-99.8" font-family="Times,serif" font-size="14.00" fill="#000000">MovieDisplayFilmDetailsModule</text>
</g>
<!-- MovieDisplayFilmDetailsModule&#45;&gt;MovieViewModule -->
<g id="edge4" class="edge">
<title>MovieDisplayFilmDetailsModule&#45;&gt;MovieViewModule</title>
<path fill="none" stroke="#000000" d="M1467,-122.0091C1467,-138.0494 1467,-159 1467,-159 1467,-159 1197.3112,-159 1197.3112,-159"/>
<polygon fill="#000000" stroke="#000000" points="1197.3112,-155.5001 1187.3112,-159 1197.3112,-162.5001 1197.3112,-155.5001"/>
</g>
<!-- MovieDisplayKeywordsModule -->
<g id="node6" class="node">
<title>MovieDisplayKeywordsModule</title>
<polygon fill="#8dd3c7" stroke="#000000" points="1346.6797,-122 1343.6797,-126 1322.6797,-126 1319.6797,-122 1149.3203,-122 1149.3203,-86 1346.6797,-86 1346.6797,-122"/>
<text text-anchor="middle" x="1248" y="-99.8" font-family="Times,serif" font-size="14.00" fill="#000000">MovieDisplayKeywordsModule</text>
</g>
<!-- MovieDisplayKeywordsModule&#45;&gt;MovieViewModule -->
<g id="edge5" class="edge">
<title>MovieDisplayKeywordsModule&#45;&gt;MovieViewModule</title>
<path fill="none" stroke="#000000" d="M1168.3096,-122.1061C1168.3096,-122.1061 1168.3096,-140.991 1168.3096,-140.991"/>
<polygon fill="#000000" stroke="#000000" points="1164.8097,-140.9909 1168.3096,-150.991 1171.8097,-140.991 1164.8097,-140.9909"/>
</g>
<!-- MovieDisplayPrincipalInformationsModule -->
<g id="node7" class="node">
<title>MovieDisplayPrincipalInformationsModule</title>
<polygon fill="#8dd3c7" stroke="#000000" points="1131.0041,-122 1128.0041,-126 1107.0041,-126 1104.0041,-122 868.9959,-122 868.9959,-86 1131.0041,-86 1131.0041,-122"/>
<text text-anchor="middle" x="1000" y="-99.8" font-family="Times,serif" font-size="14.00" fill="#000000">MovieDisplayPrincipalInformationsModule</text>
</g>
<!-- MovieDisplayPrincipalInformationsModule&#45;&gt;MovieViewModule -->
<g id="edge6" class="edge">
<title>MovieDisplayPrincipalInformationsModule&#45;&gt;MovieViewModule</title>
<path fill="none" stroke="#000000" d="M1096.0214,-122.1061C1096.0214,-122.1061 1096.0214,-140.991 1096.0214,-140.991"/>
<polygon fill="#000000" stroke="#000000" points="1092.5215,-140.9909 1096.0214,-150.991 1099.5215,-140.991 1092.5215,-140.9909"/>
</g>
<!-- MovieDisplayPrizesModule -->
<g id="node8" class="node">
<title>MovieDisplayPrizesModule</title>
<polygon fill="#8dd3c7" stroke="#000000" points="850.8543,-122 847.8543,-126 826.8543,-126 823.8543,-122 677.1457,-122 677.1457,-86 850.8543,-86 850.8543,-122"/>
<text text-anchor="middle" x="764" y="-99.8" font-family="Times,serif" font-size="14.00" fill="#000000">MovieDisplayPrizesModule</text>
</g>
<!-- MovieDisplayPrizesModule&#45;&gt;MovieViewModule -->
<g id="edge7" class="edge">
<title>MovieDisplayPrizesModule&#45;&gt;MovieViewModule</title>
<path fill="none" stroke="#000000" d="M764,-122.0091C764,-138.0494 764,-159 764,-159 764,-159 1050.4679,-159 1050.4679,-159"/>
<polygon fill="#000000" stroke="#000000" points="1050.468,-162.5001 1060.4679,-159 1050.4679,-155.5001 1050.468,-162.5001"/>
</g>
<!-- MovieDisplayProductionModule -->
<g id="node9" class="node">
<title>MovieDisplayProductionModule</title>
<polygon fill="#8dd3c7" stroke="#000000" points="659.5856,-122 656.5856,-126 635.5856,-126 632.5856,-122 458.4144,-122 458.4144,-86 659.5856,-86 659.5856,-122"/>
<text text-anchor="middle" x="559" y="-99.8" font-family="Times,serif" font-size="14.00" fill="#000000">MovieDisplayProductionModule</text>
</g>
<!-- MovieDisplayProductionModule&#45;&gt;MovieViewModule -->
<g id="edge8" class="edge">
<title>MovieDisplayProductionModule&#45;&gt;MovieViewModule</title>
<path fill="none" stroke="#000000" d="M559,-122.2667C559,-140.5552 559,-166 559,-166 559,-166 1050.559,-166 1050.559,-166"/>
<polygon fill="#000000" stroke="#000000" points="1050.559,-169.5001 1060.559,-166 1050.559,-162.5001 1050.559,-169.5001"/>
</g>
<!-- MovieDisplaySynopsisModule -->
<g id="node10" class="node">
<title>MovieDisplaySynopsisModule</title>
<polygon fill="#8dd3c7" stroke="#000000" points="440.2091,-122 437.2091,-126 416.2091,-126 413.2091,-122 249.7909,-122 249.7909,-86 440.2091,-86 440.2091,-122"/>
<text text-anchor="middle" x="345" y="-99.8" font-family="Times,serif" font-size="14.00" fill="#000000">MovieDisplaySynopsisModule</text>
</g>
<!-- MovieDisplaySynopsisModule&#45;&gt;MovieViewModule -->
<g id="edge9" class="edge">
<title>MovieDisplaySynopsisModule&#45;&gt;MovieViewModule</title>
<path fill="none" stroke="#000000" d="M345,-122.1289C345,-142.5724 345,-173 345,-173 345,-173 1050.5815,-173 1050.5815,-173"/>
<polygon fill="#000000" stroke="#000000" points="1050.5815,-176.5001 1060.5815,-173 1050.5814,-169.5001 1050.5815,-176.5001"/>
</g>
<!-- MovieDisplayVersionInfoModule -->
<g id="node11" class="node">
<title>MovieDisplayVersionInfoModule</title>
<polygon fill="#8dd3c7" stroke="#000000" points="231.785,-122 228.785,-126 207.785,-126 204.785,-122 24.215,-122 24.215,-86 231.785,-86 231.785,-122"/>
<text text-anchor="middle" x="128" y="-99.8" font-family="Times,serif" font-size="14.00" fill="#000000">MovieDisplayVersionInfoModule</text>
</g>
<!-- MovieDisplayVersionInfoModule&#45;&gt;MovieViewModule -->
<g id="edge10" class="edge">
<title>MovieDisplayVersionInfoModule&#45;&gt;MovieViewModule</title>
<path fill="none" stroke="#000000" d="M128,-122.0109C128,-144.4852 128,-180 128,-180 128,-180 1050.5609,-180 1050.5609,-180"/>
<polygon fill="#000000" stroke="#000000" points="1050.5609,-183.5001 1060.5609,-180 1050.5608,-176.5001 1050.5609,-183.5001"/>
</g>
</g>
</svg>
