<?xml version="1.0" encoding="UTF-8" standalone="no"?>
<!DOCTYPE svg PUBLIC "-//W3C//DTD SVG 1.1//EN"
 "http://www.w3.org/Graphics/SVG/1.1/DTD/svg11.dtd">
<!-- Generated by graphviz version 2.40.1 (20161225.0304)
 -->
<!-- Title: dependencies Pages: 1 -->
<svg width="4635pt" height="284pt"
 viewBox="0.00 0.00 4635.00 284.00" xmlns="http://www.w3.org/2000/svg" xmlns:xlink="http://www.w3.org/1999/xlink">
<g id="graph0" class="graph" transform="scale(1 1) rotate(0) translate(4 280)">
<title>dependencies</title>
<polygon fill="#ffffff" stroke="transparent" points="-4,4 -4,-280 4631,-280 4631,4 -4,4"/>
<text text-anchor="start" x="2292.5091" y="-42.4" font-family="sans-serif" font-weight="bold" font-size="14.00" fill="#000000">Legend</text>
<polygon fill="#ffffb3" stroke="transparent" points="2079.5,-10 2079.5,-30 2099.5,-30 2099.5,-10 2079.5,-10"/>
<text text-anchor="start" x="2103.129" y="-15.4" font-family="sans-serif" font-size="14.00" fill="#000000"> &#160;Declarations</text>
<polygon fill="#8dd3c7" stroke="transparent" points="2192.5,-10 2192.5,-30 2212.5,-30 2212.5,-10 2192.5,-10"/>
<text text-anchor="start" x="2216.2251" y="-15.4" font-family="sans-serif" font-size="14.00" fill="#000000"> &#160;Module</text>
<polygon fill="#80b1d3" stroke="transparent" points="2278.5,-10 2278.5,-30 2298.5,-30 2298.5,-10 2278.5,-10"/>
<text text-anchor="start" x="2302.2812" y="-15.4" font-family="sans-serif" font-size="14.00" fill="#000000"> &#160;Bootstrap</text>
<polygon fill="#fdb462" stroke="transparent" points="2375.5,-10 2375.5,-30 2395.5,-30 2395.5,-10 2375.5,-10"/>
<text text-anchor="start" x="2399.1732" y="-15.4" font-family="sans-serif" font-size="14.00" fill="#000000"> &#160;Providers</text>
<polygon fill="#fb8072" stroke="transparent" points="2471.5,-10 2471.5,-30 2491.5,-30 2491.5,-10 2471.5,-10"/>
<text text-anchor="start" x="2495.2258" y="-15.4" font-family="sans-serif" font-size="14.00" fill="#000000"> &#160;Exports</text>
<g id="clust1" class="cluster">
<title>cluster_AppModule</title>
<polygon fill="none" stroke="#000000" stroke-dasharray="1,5" points="8,-70 8,-268 4619,-268 4619,-70 8,-70"/>
</g>
<g id="clust2" class="cluster">
<title>cluster_AppModule_declarations</title>
<polygon fill="none" stroke="#000000" points="1323,-78 1323,-130 4611,-130 4611,-78 1323,-78"/>
</g>
<g id="clust17" class="cluster">
<title>cluster_AppModule_imports</title>
<polygon fill="none" stroke="#000000" points="16,-78 16,-130 1315,-130 1315,-78 16,-78"/>
</g>
<g id="clust19" class="cluster">
<title>cluster_AppModule_bootstrap</title>
<polygon fill="none" stroke="#000000" points="1662,-208 1662,-260 1786,-260 1786,-208 1662,-208"/>
</g>
<!-- AppComponent -->
<g id="node1" class="node">
<title>AppComponent</title>
<polygon fill="#ffffb3" stroke="#000000" points="4602.9399,-122 4497.0601,-122 4497.0601,-86 4602.9399,-86 4602.9399,-122"/>
<text text-anchor="middle" x="4550" y="-99.8" font-family="Times,serif" font-size="14.00" fill="#000000">AppComponent</text>
</g>
<!-- AppModule -->
<g id="node15" class="node">
<title>AppModule</title>
<polygon fill="#8dd3c7" stroke="#000000" points="1765.6571,-187 1762.6571,-191 1741.6571,-191 1738.6571,-187 1682.3429,-187 1682.3429,-151 1765.6571,-151 1765.6571,-187"/>
<text text-anchor="middle" x="1724" y="-164.8" font-family="Times,serif" font-size="14.00" fill="#000000">AppModule</text>
</g>
<!-- AppComponent&#45;&gt;AppModule -->
<g id="edge1" class="edge">
<title>AppComponent&#45;&gt;AppModule</title>
<path fill="none" stroke="#000000" d="M4550,-122.1532C4550,-145.7566 4550,-184 4550,-184 4550,-184 1775.8647,-184 1775.8647,-184"/>
<polygon fill="#000000" stroke="#000000" points="1775.8647,-180.5001 1765.8647,-184 1775.8647,-187.5001 1775.8647,-180.5001"/>
</g>
<!-- FinancingExplorerCompareComponent -->
<g id="node2" class="node">
<title>FinancingExplorerCompareComponent</title>
<polygon fill="#ffffb3" stroke="#000000" points="4478.6217,-122 4241.3783,-122 4241.3783,-86 4478.6217,-86 4478.6217,-122"/>
<text text-anchor="middle" x="4360" y="-99.8" font-family="Times,serif" font-size="14.00" fill="#000000">FinancingExplorerCompareComponent</text>
</g>
<!-- FinancingExplorerCompareComponent&#45;&gt;AppModule -->
<g id="edge2" class="edge">
<title>FinancingExplorerCompareComponent&#45;&gt;AppModule</title>
<path fill="none" stroke="#000000" d="M4360,-122.2479C4360,-145.0179 4360,-181 4360,-181 4360,-181 1775.671,-181 1775.671,-181"/>
<polygon fill="#000000" stroke="#000000" points="1775.671,-177.5001 1765.671,-181 1775.6709,-184.5001 1775.671,-177.5001"/>
</g>
<!-- FinancingExplorerDetailsComponent -->
<g id="node3" class="node">
<title>FinancingExplorerDetailsComponent</title>
<polygon fill="#ffffb3" stroke="#000000" points="4222.9566,-122 3997.0434,-122 3997.0434,-86 4222.9566,-86 4222.9566,-122"/>
<text text-anchor="middle" x="4110" y="-99.8" font-family="Times,serif" font-size="14.00" fill="#000000">FinancingExplorerDetailsComponent</text>
</g>
<!-- FinancingExplorerDetailsComponent&#45;&gt;AppModule -->
<g id="edge3" class="edge">
<title>FinancingExplorerDetailsComponent&#45;&gt;AppModule</title>
<path fill="none" stroke="#000000" d="M4110,-122.2921C4110,-144.2057 4110,-178 4110,-178 4110,-178 1775.6656,-178 1775.6656,-178"/>
<polygon fill="#000000" stroke="#000000" points="1775.6656,-174.5001 1765.6656,-178 1775.6655,-181.5001 1775.6656,-174.5001"/>
</g>
<!-- FinancingExplorerFinancingDetailsComponent -->
<g id="node4" class="node">
<title>FinancingExplorerFinancingDetailsComponent</title>
<polygon fill="#ffffb3" stroke="#000000" points="3978.9496,-122 3697.0504,-122 3697.0504,-86 3978.9496,-86 3978.9496,-122"/>
<text text-anchor="middle" x="3838" y="-99.8" font-family="Times,serif" font-size="14.00" fill="#000000">FinancingExplorerFinancingDetailsComponent</text>
</g>
<!-- FinancingExplorerFinancingDetailsComponent&#45;&gt;AppModule -->
<g id="edge4" class="edge">
<title>FinancingExplorerFinancingDetailsComponent&#45;&gt;AppModule</title>
<path fill="none" stroke="#000000" d="M3838,-122.2843C3838,-143.3211 3838,-175 3838,-175 3838,-175 1775.7527,-175 1775.7527,-175"/>
<polygon fill="#000000" stroke="#000000" points="1775.7528,-171.5001 1765.7527,-175 1775.7527,-178.5001 1775.7528,-171.5001"/>
</g>
<!-- FinancingExplorerFooterComponent -->
<g id="node5" class="node">
<title>FinancingExplorerFooterComponent</title>
<polygon fill="#ffffb3" stroke="#000000" points="3679.3528,-122 3456.6472,-122 3456.6472,-86 3679.3528,-86 3679.3528,-122"/>
<text text-anchor="middle" x="3568" y="-99.8" font-family="Times,serif" font-size="14.00" fill="#000000">FinancingExplorerFooterComponent</text>
</g>
<!-- FinancingExplorerFooterComponent&#45;&gt;AppModule -->
<g id="edge5" class="edge">
<title>FinancingExplorerFooterComponent&#45;&gt;AppModule</title>
<path fill="none" stroke="#000000" d="M3568,-122.2228C3568,-142.3652 3568,-172 3568,-172 3568,-172 1775.9792,-172 1775.9792,-172"/>
<polygon fill="#000000" stroke="#000000" points="1775.9792,-168.5001 1765.9792,-172 1775.9791,-175.5001 1775.9792,-168.5001"/>
</g>
<!-- FinancingExplorerHeaderComponent -->
<g id="node6" class="node">
<title>FinancingExplorerHeaderComponent</title>
<polygon fill="#ffffb3" stroke="#000000" points="3438.2156,-122 3211.7844,-122 3211.7844,-86 3438.2156,-86 3438.2156,-122"/>
<text text-anchor="middle" x="3325" y="-99.8" font-family="Times,serif" font-size="14.00" fill="#000000">FinancingExplorerHeaderComponent</text>
</g>
<!-- FinancingExplorerHeaderComponent&#45;&gt;AppModule -->
<g id="edge6" class="edge">
<title>FinancingExplorerHeaderComponent&#45;&gt;AppModule</title>
<path fill="none" stroke="#000000" d="M3325,-122.1061C3325,-141.3391 3325,-169 3325,-169 3325,-169 1775.9999,-169 1775.9999,-169"/>
<polygon fill="#000000" stroke="#000000" points="1776,-165.5001 1765.9999,-169 1775.9999,-172.5001 1776,-165.5001"/>
</g>
<!-- FinancingExplorerHomeComponent -->
<g id="node7" class="node">
<title>FinancingExplorerHomeComponent</title>
<polygon fill="#ffffb3" stroke="#000000" points="3193.0167,-122 2972.9833,-122 2972.9833,-86 3193.0167,-86 3193.0167,-122"/>
<text text-anchor="middle" x="3083" y="-99.8" font-family="Times,serif" font-size="14.00" fill="#000000">FinancingExplorerHomeComponent</text>
</g>
<!-- FinancingExplorerHomeComponent&#45;&gt;AppModule -->
<g id="edge7" class="edge">
<title>FinancingExplorerHomeComponent&#45;&gt;AppModule</title>
<path fill="none" stroke="#000000" d="M3083,-122.2667C3083,-140.5552 3083,-166 3083,-166 3083,-166 1775.7875,-166 1775.7875,-166"/>
<polygon fill="#000000" stroke="#000000" points="1775.7876,-162.5001 1765.7875,-166 1775.7875,-169.5001 1775.7876,-162.5001"/>
</g>
<!-- FinancingExplorerMovieHomeComponent -->
<g id="node8" class="node">
<title>FinancingExplorerMovieHomeComponent</title>
<polygon fill="#ffffb3" stroke="#000000" points="2954.566,-122 2697.434,-122 2697.434,-86 2954.566,-86 2954.566,-122"/>
<text text-anchor="middle" x="2826" y="-99.8" font-family="Times,serif" font-size="14.00" fill="#000000">FinancingExplorerMovieHomeComponent</text>
</g>
<!-- FinancingExplorerMovieHomeComponent&#45;&gt;AppModule -->
<g id="edge8" class="edge">
<title>FinancingExplorerMovieHomeComponent&#45;&gt;AppModule</title>
<path fill="none" stroke="#000000" d="M2826,-122.0225C2826,-139.3734 2826,-163 2826,-163 2826,-163 1775.854,-163 1775.854,-163"/>
<polygon fill="#000000" stroke="#000000" points="1775.8541,-159.5001 1765.854,-163 1775.854,-166.5001 1775.8541,-159.5001"/>
</g>
<!-- FinancingExplorerNavbarComponent -->
<g id="node9" class="node">
<title>FinancingExplorerNavbarComponent</title>
<polygon fill="#ffffb3" stroke="#000000" points="2679.5013,-122 2452.4987,-122 2452.4987,-86 2679.5013,-86 2679.5013,-122"/>
<text text-anchor="middle" x="2566" y="-99.8" font-family="Times,serif" font-size="14.00" fill="#000000">FinancingExplorerNavbarComponent</text>
</g>
<!-- FinancingExplorerNavbarComponent&#45;&gt;AppModule -->
<g id="edge9" class="edge">
<title>FinancingExplorerNavbarComponent&#45;&gt;AppModule</title>
<path fill="none" stroke="#000000" d="M2566,-122.027C2566,-138.3976 2566,-160 2566,-160 2566,-160 1775.7549,-160 1775.7549,-160"/>
<polygon fill="#000000" stroke="#000000" points="1775.7549,-156.5001 1765.7549,-160 1775.7549,-163.5001 1775.7549,-156.5001"/>
</g>
<!-- FinancingExplorerProfileComponent -->
<g id="node10" class="node">
<title>FinancingExplorerProfileComponent</title>
<polygon fill="#ffffb3" stroke="#000000" points="2434.4044,-122 2209.5956,-122 2209.5956,-86 2434.4044,-86 2434.4044,-122"/>
<text text-anchor="middle" x="2322" y="-99.8" font-family="Times,serif" font-size="14.00" fill="#000000">FinancingExplorerProfileComponent</text>
</g>
<!-- FinancingExplorerProfileComponent&#45;&gt;AppModule -->
<g id="edge10" class="edge">
<title>FinancingExplorerProfileComponent&#45;&gt;AppModule</title>
<path fill="none" stroke="#000000" d="M2322,-122.2396C2322,-137.5706 2322,-157 2322,-157 2322,-157 1776.0502,-157 1776.0502,-157"/>
<polygon fill="#000000" stroke="#000000" points="1776.0502,-153.5001 1766.0502,-157 1776.0502,-160.5001 1776.0502,-153.5001"/>
</g>
<!-- FinancingExplorerSearchComponent -->
<g id="node11" class="node">
<title>FinancingExplorerSearchComponent</title>
<polygon fill="#ffffb3" stroke="#000000" points="2192.3917,-122 1967.6083,-122 1967.6083,-86 2192.3917,-86 2192.3917,-122"/>
<text text-anchor="middle" x="2080" y="-99.8" font-family="Times,serif" font-size="14.00" fill="#000000">FinancingExplorerSearchComponent</text>
</g>
<!-- FinancingExplorerSearchComponent&#45;&gt;AppModule -->
<g id="edge11" class="edge">
<title>FinancingExplorerSearchComponent&#45;&gt;AppModule</title>
<path fill="none" stroke="#000000" d="M2080,-122.0511C2080,-136.373 2080,-154 2080,-154 2080,-154 1775.8846,-154 1775.8846,-154"/>
<polygon fill="#000000" stroke="#000000" points="1775.8846,-150.5001 1765.8846,-154 1775.8845,-157.5001 1775.8846,-150.5001"/>
</g>
<!-- FinancingMovieCardComponent -->
<g id="node12" class="node">
<title>FinancingMovieCardComponent</title>
<polygon fill="#ffffb3" stroke="#000000" points="1949.587,-122 1748.413,-122 1748.413,-86 1949.587,-86 1949.587,-122"/>
<text text-anchor="middle" x="1849" y="-99.8" font-family="Times,serif" font-size="14.00" fill="#000000">FinancingMovieCardComponent</text>
</g>
<!-- FinancingMovieCardComponent&#45;&gt;AppModule -->
<g id="edge12" class="edge">
<title>FinancingMovieCardComponent&#45;&gt;AppModule</title>
<path fill="none" stroke="#000000" d="M1757.1424,-122.1061C1757.1424,-122.1061 1757.1424,-140.991 1757.1424,-140.991"/>
<polygon fill="#000000" stroke="#000000" points="1753.6424,-140.9909 1757.1424,-150.991 1760.6424,-140.991 1753.6424,-140.9909"/>
</g>
<!-- FinancingMovieCardHorizontalComponent -->
<g id="node13" class="node">
<title>FinancingMovieCardHorizontalComponent</title>
<polygon fill="#ffffb3" stroke="#000000" points="1730.4552,-122 1469.5448,-122 1469.5448,-86 1730.4552,-86 1730.4552,-122"/>
<text text-anchor="middle" x="1600" y="-99.8" font-family="Times,serif" font-size="14.00" fill="#000000">FinancingMovieCardHorizontalComponent</text>
</g>
<!-- FinancingMovieCardHorizontalComponent&#45;&gt;AppModule -->
<g id="edge13" class="edge">
<title>FinancingMovieCardHorizontalComponent&#45;&gt;AppModule</title>
<path fill="none" stroke="#000000" d="M1706.3247,-122.1061C1706.3247,-122.1061 1706.3247,-140.991 1706.3247,-140.991"/>
<polygon fill="#000000" stroke="#000000" points="1702.8248,-140.9909 1706.3247,-150.991 1709.8248,-140.991 1702.8248,-140.9909"/>
</g>
<!-- LayoutComponent -->
<g id="node14" class="node">
<title>LayoutComponent</title>
<polygon fill="#ffffb3" stroke="#000000" points="1451.4902,-122 1330.5098,-122 1330.5098,-86 1451.4902,-86 1451.4902,-122"/>
<text text-anchor="middle" x="1391" y="-99.8" font-family="Times,serif" font-size="14.00" fill="#000000">LayoutComponent</text>
</g>
<!-- LayoutComponent&#45;&gt;AppModule -->
<g id="edge14" class="edge">
<title>LayoutComponent&#45;&gt;AppModule</title>
<path fill="none" stroke="#000000" d="M1391,-122.0511C1391,-136.373 1391,-154 1391,-154 1391,-154 1672.1625,-154 1672.1625,-154"/>
<polygon fill="#000000" stroke="#000000" points="1672.1625,-157.5001 1682.1625,-154 1672.1625,-150.5001 1672.1625,-157.5001"/>
</g>
<!-- AppComponent  -->
<g id="node26" class="node">
<title>AppComponent </title>
<polygon fill="#80b1d3" stroke="#000000" points="1778.439,-252 1669.561,-252 1669.561,-216 1778.439,-216 1778.439,-252"/>
<text text-anchor="middle" x="1724" y="-229.8" font-family="Times,serif" font-size="14.00" fill="#000000">AppComponent </text>
</g>
<!-- AppModule&#45;&gt;AppComponent  -->
<g id="edge25" class="edge">
<title>AppModule&#45;&gt;AppComponent </title>
<path fill="none" stroke="#000000" stroke-dasharray="1,5" d="M1724,-187.1061C1724,-187.1061 1724,-205.991 1724,-205.991"/>
<polygon fill="#000000" stroke="#000000" points="1720.5001,-205.9909 1724,-215.991 1727.5001,-205.991 1720.5001,-205.9909"/>
</g>
<!-- AccountModule -->
<g id="node16" class="node">
<title>AccountModule</title>
<polygon fill="#8dd3c7" stroke="#000000" points="1307.4762,-122 1304.4762,-126 1283.4762,-126 1280.4762,-122 1200.5238,-122 1200.5238,-86 1307.4762,-86 1307.4762,-122"/>
<text text-anchor="middle" x="1254" y="-99.8" font-family="Times,serif" font-size="14.00" fill="#000000">AccountModule</text>
</g>
<!-- AccountModule&#45;&gt;AppModule -->
<g id="edge15" class="edge">
<title>AccountModule&#45;&gt;AppModule</title>
<path fill="none" stroke="#000000" d="M1254,-122.2396C1254,-137.5706 1254,-157 1254,-157 1254,-157 1672.2906,-157 1672.2906,-157"/>
<polygon fill="#000000" stroke="#000000" points="1672.2907,-160.5001 1682.2906,-157 1672.2906,-153.5001 1672.2907,-160.5001"/>
</g>
<!-- AppRoutingModule -->
<g id="node17" class="node">
<title>AppRoutingModule</title>
<polygon fill="#8dd3c7" stroke="#000000" points="1182.2744,-122 1179.2744,-126 1158.2744,-126 1155.2744,-122 1053.7256,-122 1053.7256,-86 1182.2744,-86 1182.2744,-122"/>
<text text-anchor="middle" x="1118" y="-99.8" font-family="Times,serif" font-size="14.00" fill="#000000">AppRoutingModule</text>
</g>
<!-- AppRoutingModule&#45;&gt;AppModule -->
<g id="edge16" class="edge">
<title>AppRoutingModule&#45;&gt;AppModule</title>
<path fill="none" stroke="#000000" d="M1118,-122.027C1118,-138.3976 1118,-160 1118,-160 1118,-160 1671.8684,-160 1671.8684,-160"/>
<polygon fill="#000000" stroke="#000000" points="1671.8684,-163.5001 1681.8684,-160 1671.8684,-156.5001 1671.8684,-163.5001"/>
</g>
<!-- AuthModule -->
<g id="node18" class="node">
<title>AuthModule</title>
<polygon fill="#8dd3c7" stroke="#000000" points="1035.5482,-122 1032.5482,-126 1011.5482,-126 1008.5482,-122 948.4518,-122 948.4518,-86 1035.5482,-86 1035.5482,-122"/>
<text text-anchor="middle" x="992" y="-99.8" font-family="Times,serif" font-size="14.00" fill="#000000">AuthModule</text>
</g>
<!-- AuthModule&#45;&gt;AppModule -->
<g id="edge17" class="edge">
<title>AuthModule&#45;&gt;AppModule</title>
<path fill="none" stroke="#000000" d="M992,-122.0225C992,-139.3734 992,-163 992,-163 992,-163 1672.2817,-163 1672.2817,-163"/>
<polygon fill="#000000" stroke="#000000" points="1672.2817,-166.5001 1682.2817,-163 1672.2816,-159.5001 1672.2817,-166.5001"/>
</g>
<!-- FinancingRangeSliderModule -->
<g id="node19" class="node">
<title>FinancingRangeSliderModule</title>
<polygon fill="#8dd3c7" stroke="#000000" points="930.2478,-122 927.2478,-126 906.2478,-126 903.2478,-122 745.7522,-122 745.7522,-86 930.2478,-86 930.2478,-122"/>
<text text-anchor="middle" x="838" y="-99.8" font-family="Times,serif" font-size="14.00" fill="#000000">FinancingRangeSliderModule</text>
</g>
<!-- FinancingRangeSliderModule&#45;&gt;AppModule -->
<g id="edge18" class="edge">
<title>FinancingRangeSliderModule&#45;&gt;AppModule</title>
<path fill="none" stroke="#000000" d="M838,-122.2667C838,-140.5552 838,-166 838,-166 838,-166 1672.1591,-166 1672.1591,-166"/>
<polygon fill="#000000" stroke="#000000" points="1672.1591,-169.5001 1682.1591,-166 1672.159,-162.5001 1672.1591,-169.5001"/>
</g>
<!-- KeyManagerModule -->
<g id="node20" class="node">
<title>KeyManagerModule</title>
<polygon fill="#8dd3c7" stroke="#000000" points="727.1205,-122 724.1205,-126 703.1205,-126 700.1205,-122 594.8795,-122 594.8795,-86 727.1205,-86 727.1205,-122"/>
<text text-anchor="middle" x="661" y="-99.8" font-family="Times,serif" font-size="14.00" fill="#000000">KeyManagerModule</text>
</g>
<!-- KeyManagerModule&#45;&gt;AppModule -->
<g id="edge19" class="edge">
<title>KeyManagerModule&#45;&gt;AppModule</title>
<path fill="none" stroke="#000000" d="M661,-122.1061C661,-141.3391 661,-169 661,-169 661,-169 1672.3291,-169 1672.3291,-169"/>
<polygon fill="#000000" stroke="#000000" points="1672.3292,-172.5001 1682.3291,-169 1672.3291,-165.5001 1672.3292,-172.5001"/>
</g>
<!-- MovieModule -->
<g id="node21" class="node">
<title>MovieModule</title>
<polygon fill="#8dd3c7" stroke="#000000" points="577.0997,-122 574.0997,-126 553.0997,-126 550.0997,-122 480.9003,-122 480.9003,-86 577.0997,-86 577.0997,-122"/>
<text text-anchor="middle" x="529" y="-99.8" font-family="Times,serif" font-size="14.00" fill="#000000">MovieModule</text>
</g>
<!-- MovieModule&#45;&gt;AppModule -->
<g id="edge20" class="edge">
<title>MovieModule&#45;&gt;AppModule</title>
<path fill="none" stroke="#000000" d="M529,-122.2228C529,-142.3652 529,-172 529,-172 529,-172 1672.17,-172 1672.17,-172"/>
<polygon fill="#000000" stroke="#000000" points="1672.17,-175.5001 1682.17,-172 1672.17,-168.5001 1672.17,-175.5001"/>
</g>
<!-- ProfileModule -->
<g id="node22" class="node">
<title>ProfileModule</title>
<polygon fill="#8dd3c7" stroke="#000000" points="462.65,-122 459.65,-126 438.65,-126 435.65,-122 365.35,-122 365.35,-86 462.65,-86 462.65,-122"/>
<text text-anchor="middle" x="414" y="-99.8" font-family="Times,serif" font-size="14.00" fill="#000000">ProfileModule</text>
</g>
<!-- ProfileModule&#45;&gt;AppModule -->
<g id="edge21" class="edge">
<title>ProfileModule&#45;&gt;AppModule</title>
<path fill="none" stroke="#000000" d="M414,-122.2843C414,-143.3211 414,-175 414,-175 414,-175 1672.2649,-175 1672.2649,-175"/>
<polygon fill="#000000" stroke="#000000" points="1672.2649,-178.5001 1682.2649,-175 1672.2649,-171.5001 1672.2649,-178.5001"/>
</g>
<!-- ToolbarModule -->
<g id="node23" class="node">
<title>ToolbarModule</title>
<polygon fill="#8dd3c7" stroke="#000000" points="346.8683,-122 343.8683,-126 322.8683,-126 319.8683,-122 243.1317,-122 243.1317,-86 346.8683,-86 346.8683,-122"/>
<text text-anchor="middle" x="295" y="-99.8" font-family="Times,serif" font-size="14.00" fill="#000000">ToolbarModule</text>
</g>
<!-- ToolbarModule&#45;&gt;AppModule -->
<g id="edge22" class="edge">
<title>ToolbarModule&#45;&gt;AppModule</title>
<path fill="none" stroke="#000000" d="M295,-122.2921C295,-144.2057 295,-178 295,-178 295,-178 1672.0066,-178 1672.0066,-178"/>
<polygon fill="#000000" stroke="#000000" points="1672.0067,-181.5001 1682.0066,-178 1672.0066,-174.5001 1672.0067,-181.5001"/>
</g>
<!-- UtilsModule -->
<g id="node24" class="node">
<title>UtilsModule</title>
<polygon fill="#8dd3c7" stroke="#000000" points="225.2731,-122 222.2731,-126 201.2731,-126 198.2731,-122 138.7269,-122 138.7269,-86 225.2731,-86 225.2731,-122"/>
<text text-anchor="middle" x="182" y="-99.8" font-family="Times,serif" font-size="14.00" fill="#000000">UtilsModule</text>
</g>
<!-- UtilsModule&#45;&gt;AppModule -->
<g id="edge23" class="edge">
<title>UtilsModule&#45;&gt;AppModule</title>
<path fill="none" stroke="#000000" d="M182,-122.2479C182,-145.0179 182,-181 182,-181 182,-181 1671.9555,-181 1671.9555,-181"/>
<polygon fill="#000000" stroke="#000000" points="1671.9555,-184.5001 1681.9555,-181 1671.9555,-177.5001 1671.9555,-184.5001"/>
</g>
<!-- WalletModule -->
<g id="node25" class="node">
<title>WalletModule</title>
<polygon fill="#8dd3c7" stroke="#000000" points="120.3655,-122 117.3655,-126 96.3655,-126 93.3655,-122 23.6345,-122 23.6345,-86 120.3655,-86 120.3655,-122"/>
<text text-anchor="middle" x="72" y="-99.8" font-family="Times,serif" font-size="14.00" fill="#000000">WalletModule</text>
</g>
<!-- WalletModule&#45;&gt;AppModule -->
<g id="edge24" class="edge">
<title>WalletModule&#45;&gt;AppModule</title>
<path fill="none" stroke="#000000" d="M72,-122.1532C72,-145.7566 72,-184 72,-184 72,-184 1672.3376,-184 1672.3376,-184"/>
<polygon fill="#000000" stroke="#000000" points="1672.3376,-187.5001 1682.3376,-184 1672.3376,-180.5001 1672.3376,-187.5001"/>
</g>
</g>
</svg>
