<?xml version="1.0" encoding="UTF-8" standalone="no"?>
<!DOCTYPE svg PUBLIC "-//W3C//DTD SVG 1.1//EN"
 "http://www.w3.org/Graphics/SVG/1.1/DTD/svg11.dtd">
<!-- Generated by graphviz version 2.40.1 (20161225.0304)
 -->
<!-- Title: dependencies Pages: 1 -->
<svg width="9250pt" height="284pt"
 viewBox="0.00 0.00 9250.00 284.00" xmlns="http://www.w3.org/2000/svg" xmlns:xlink="http://www.w3.org/1999/xlink">
<g id="graph0" class="graph" transform="scale(1 1) rotate(0) translate(4 280)">
<title>dependencies</title>
<polygon fill="#ffffff" stroke="transparent" points="-4,4 -4,-280 9246,-280 9246,4 -4,4"/>
<text text-anchor="start" x="4600.0091" y="-42.4" font-family="sans-serif" font-weight="bold" font-size="14.00" fill="#000000">Legend</text>
<polygon fill="#ffffb3" stroke="transparent" points="4387,-10 4387,-30 4407,-30 4407,-10 4387,-10"/>
<text text-anchor="start" x="4410.629" y="-15.4" font-family="sans-serif" font-size="14.00" fill="#000000"> &#160;Declarations</text>
<polygon fill="#8dd3c7" stroke="transparent" points="4500,-10 4500,-30 4520,-30 4520,-10 4500,-10"/>
<text text-anchor="start" x="4523.7251" y="-15.4" font-family="sans-serif" font-size="14.00" fill="#000000"> &#160;Module</text>
<polygon fill="#80b1d3" stroke="transparent" points="4586,-10 4586,-30 4606,-30 4606,-10 4586,-10"/>
<text text-anchor="start" x="4609.7812" y="-15.4" font-family="sans-serif" font-size="14.00" fill="#000000"> &#160;Bootstrap</text>
<polygon fill="#fdb462" stroke="transparent" points="4683,-10 4683,-30 4703,-30 4703,-10 4683,-10"/>
<text text-anchor="start" x="4706.6732" y="-15.4" font-family="sans-serif" font-size="14.00" fill="#000000"> &#160;Providers</text>
<polygon fill="#fb8072" stroke="transparent" points="4779,-10 4779,-30 4799,-30 4799,-10 4779,-10"/>
<text text-anchor="start" x="4802.7258" y="-15.4" font-family="sans-serif" font-size="14.00" fill="#000000"> &#160;Exports</text>
<g id="clust1" class="cluster">
<title>cluster_AppModule</title>
<polygon fill="none" stroke="#000000" stroke-dasharray="1,5" points="8,-70 8,-268 9234,-268 9234,-70 8,-70"/>
</g>
<g id="clust2" class="cluster">
<title>cluster_AppModule_declarations</title>
<polygon fill="none" stroke="#000000" points="5938,-78 5938,-130 9226,-130 9226,-78 5938,-78"/>
</g>
<g id="clust17" class="cluster">
<title>cluster_AppModule_imports</title>
<polygon fill="none" stroke="#000000" points="414,-78 414,-130 5930,-130 5930,-78 414,-78"/>
</g>
<g id="clust19" class="cluster">
<title>cluster_AppModule_bootstrap</title>
<polygon fill="none" stroke="#000000" points="4204,-208 4204,-260 4328,-260 4328,-208 4204,-208"/>
</g>
<g id="clust20" class="cluster">
<title>cluster_AppModule_providers</title>
<polygon fill="none" stroke="#000000" points="16,-78 16,-130 406,-130 406,-78 16,-78"/>
</g>
<!-- AppComponent -->
<g id="node1" class="node">
<title>AppComponent</title>
<polygon fill="#ffffb3" stroke="#000000" points="9217.9399,-122 9112.0601,-122 9112.0601,-86 9217.9399,-86 9217.9399,-122"/>
<text text-anchor="middle" x="9165" y="-99.8" font-family="Times,serif" font-size="14.00" fill="#000000">AppComponent</text>
</g>
<!-- AppModule -->
<g id="node15" class="node">
<title>AppModule</title>
<polygon fill="#8dd3c7" stroke="#000000" points="4307.6571,-187 4304.6571,-191 4283.6571,-191 4280.6571,-187 4224.3429,-187 4224.3429,-151 4307.6571,-151 4307.6571,-187"/>
<text text-anchor="middle" x="4266" y="-164.8" font-family="Times,serif" font-size="14.00" fill="#000000">AppModule</text>
</g>
<!-- AppComponent&#45;&gt;AppModule -->
<g id="edge1" class="edge">
<title>AppComponent&#45;&gt;AppModule</title>
<path fill="none" stroke="#000000" d="M9165,-122.1985C9165,-146.3563 9165,-186 9165,-186 9165,-186 4317.9819,-186 4317.9819,-186"/>
<polygon fill="#000000" stroke="#000000" points="4317.982,-182.5001 4307.9819,-186 4317.9819,-189.5001 4317.982,-182.5001"/>
</g>
<!-- LayoutComponent -->
<g id="node2" class="node">
<title>LayoutComponent</title>
<polygon fill="#ffffb3" stroke="#000000" points="9094.4902,-122 8973.5098,-122 8973.5098,-86 9094.4902,-86 9094.4902,-122"/>
<text text-anchor="middle" x="9034" y="-99.8" font-family="Times,serif" font-size="14.00" fill="#000000">LayoutComponent</text>
</g>
<!-- LayoutComponent&#45;&gt;AppModule -->
<g id="edge2" class="edge">
<title>LayoutComponent&#45;&gt;AppModule</title>
<path fill="none" stroke="#000000" d="M9034,-122.3802C9034,-146.2785 9034,-185 9034,-185 9034,-185 4317.9448,-185 4317.9448,-185"/>
<polygon fill="#000000" stroke="#000000" points="4317.9448,-181.5001 4307.9448,-185 4317.9448,-188.5001 4317.9448,-181.5001"/>
</g>
<!-- FinancingExplorerHomeComponent -->
<g id="node3" class="node">
<title>FinancingExplorerHomeComponent</title>
<polygon fill="#ffffb3" stroke="#000000" points="8955.0167,-122 8734.9833,-122 8734.9833,-86 8955.0167,-86 8955.0167,-122"/>
<text text-anchor="middle" x="8845" y="-99.8" font-family="Times,serif" font-size="14.00" fill="#000000">FinancingExplorerHomeComponent</text>
</g>
<!-- FinancingExplorerHomeComponent&#45;&gt;AppModule -->
<g id="edge3" class="edge">
<title>FinancingExplorerHomeComponent&#45;&gt;AppModule</title>
<path fill="none" stroke="#000000" d="M8845,-122.3228C8845,-145.6602 8845,-183 8845,-183 8845,-183 4317.6925,-183 4317.6925,-183"/>
<polygon fill="#000000" stroke="#000000" points="4317.6925,-179.5001 4307.6925,-183 4317.6925,-186.5001 4317.6925,-179.5001"/>
</g>
<!-- FinancingExplorerDetailsComponent -->
<g id="node4" class="node">
<title>FinancingExplorerDetailsComponent</title>
<polygon fill="#ffffb3" stroke="#000000" points="8716.9566,-122 8491.0434,-122 8491.0434,-86 8716.9566,-86 8716.9566,-122"/>
<text text-anchor="middle" x="8604" y="-99.8" font-family="Times,serif" font-size="14.00" fill="#000000">FinancingExplorerDetailsComponent</text>
</g>
<!-- FinancingExplorerDetailsComponent&#45;&gt;AppModule -->
<g id="edge4" class="edge">
<title>FinancingExplorerDetailsComponent&#45;&gt;AppModule</title>
<path fill="none" stroke="#000000" d="M8604,-122.0908C8604,-145.1328 8604,-182 8604,-182 8604,-182 4317.8893,-182 4317.8893,-182"/>
<polygon fill="#000000" stroke="#000000" points="4317.8894,-178.5001 4307.8893,-182 4317.8893,-185.5001 4317.8894,-178.5001"/>
</g>
<!-- FinancingExplorerSearchComponent -->
<g id="node5" class="node">
<title>FinancingExplorerSearchComponent</title>
<polygon fill="#ffffb3" stroke="#000000" points="8473.3917,-122 8248.6083,-122 8248.6083,-86 8473.3917,-86 8473.3917,-122"/>
<text text-anchor="middle" x="8361" y="-99.8" font-family="Times,serif" font-size="14.00" fill="#000000">FinancingExplorerSearchComponent</text>
</g>
<!-- FinancingExplorerSearchComponent&#45;&gt;AppModule -->
<g id="edge5" class="edge">
<title>FinancingExplorerSearchComponent&#45;&gt;AppModule</title>
<path fill="none" stroke="#000000" d="M8361,-122.2479C8361,-145.0179 8361,-181 8361,-181 8361,-181 4317.8635,-181 4317.8635,-181"/>
<polygon fill="#000000" stroke="#000000" points="4317.8636,-177.5001 4307.8635,-181 4317.8635,-184.5001 4317.8636,-177.5001"/>
</g>
<!-- FinancingMovieCardComponent -->
<g id="node6" class="node">
<title>FinancingMovieCardComponent</title>
<polygon fill="#ffffb3" stroke="#000000" points="8230.587,-122 8029.413,-122 8029.413,-86 8230.587,-86 8230.587,-122"/>
<text text-anchor="middle" x="8130" y="-99.8" font-family="Times,serif" font-size="14.00" fill="#000000">FinancingMovieCardComponent</text>
</g>
<!-- FinancingMovieCardComponent&#45;&gt;AppModule -->
<g id="edge6" class="edge">
<title>FinancingMovieCardComponent&#45;&gt;AppModule</title>
<path fill="none" stroke="#000000" d="M8130,-122.1554C8130,-144.3519 8130,-179 8130,-179 8130,-179 4317.7514,-179 4317.7514,-179"/>
<polygon fill="#000000" stroke="#000000" points="4317.7514,-175.5001 4307.7514,-179 4317.7514,-182.5001 4317.7514,-175.5001"/>
</g>
<!-- FinancingMovieCardHorizontalComponent -->
<g id="node7" class="node">
<title>FinancingMovieCardHorizontalComponent</title>
<polygon fill="#ffffb3" stroke="#000000" points="8011.4552,-122 7750.5448,-122 7750.5448,-86 8011.4552,-86 8011.4552,-122"/>
<text text-anchor="middle" x="7881" y="-99.8" font-family="Times,serif" font-size="14.00" fill="#000000">FinancingMovieCardHorizontalComponent</text>
</g>
<!-- FinancingMovieCardHorizontalComponent&#45;&gt;AppModule -->
<g id="edge7" class="edge">
<title>FinancingMovieCardHorizontalComponent&#45;&gt;AppModule</title>
<path fill="none" stroke="#000000" d="M7881,-122.2921C7881,-144.2057 7881,-178 7881,-178 7881,-178 4317.8483,-178 4317.8483,-178"/>
<polygon fill="#000000" stroke="#000000" points="4317.8483,-174.5001 4307.8483,-178 4317.8483,-181.5001 4317.8483,-174.5001"/>
</g>
<!-- FinancingExplorerFooterComponent -->
<g id="node8" class="node">
<title>FinancingExplorerFooterComponent</title>
<polygon fill="#ffffb3" stroke="#000000" points="7732.3528,-122 7509.6472,-122 7509.6472,-86 7732.3528,-86 7732.3528,-122"/>
<text text-anchor="middle" x="7621" y="-99.8" font-family="Times,serif" font-size="14.00" fill="#000000">FinancingExplorerFooterComponent</text>
</g>
<!-- FinancingExplorerFooterComponent&#45;&gt;AppModule -->
<g id="edge8" class="edge">
<title>FinancingExplorerFooterComponent&#45;&gt;AppModule</title>
<path fill="none" stroke="#000000" d="M7621,-122.0449C7621,-143.6623 7621,-177 7621,-177 7621,-177 4317.8123,-177 4317.8123,-177"/>
<polygon fill="#000000" stroke="#000000" points="4317.8123,-173.5001 4307.8123,-177 4317.8123,-180.5001 4317.8123,-173.5001"/>
</g>
<!-- FinancingExplorerHeaderComponent -->
<g id="node9" class="node">
<title>FinancingExplorerHeaderComponent</title>
<polygon fill="#ffffb3" stroke="#000000" points="7491.2156,-122 7264.7844,-122 7264.7844,-86 7491.2156,-86 7491.2156,-122"/>
<text text-anchor="middle" x="7378" y="-99.8" font-family="Times,serif" font-size="14.00" fill="#000000">FinancingExplorerHeaderComponent</text>
</g>
<!-- FinancingExplorerHeaderComponent&#45;&gt;AppModule -->
<g id="edge9" class="edge">
<title>FinancingExplorerHeaderComponent&#45;&gt;AppModule</title>
<path fill="none" stroke="#000000" d="M7378,-122.2843C7378,-143.3211 7378,-175 7378,-175 7378,-175 4317.9298,-175 4317.9298,-175"/>
<polygon fill="#000000" stroke="#000000" points="4317.9298,-171.5001 4307.9298,-175 4317.9297,-178.5001 4317.9298,-171.5001"/>
</g>
<!-- FinancingExplorerFinancingDetailsComponent -->
<g id="node10" class="node">
<title>FinancingExplorerFinancingDetailsComponent</title>
<polygon fill="#ffffb3" stroke="#000000" points="7246.9496,-122 6965.0504,-122 6965.0504,-86 7246.9496,-86 7246.9496,-122"/>
<text text-anchor="middle" x="7106" y="-99.8" font-family="Times,serif" font-size="14.00" fill="#000000">FinancingExplorerFinancingDetailsComponent</text>
</g>
<!-- FinancingExplorerFinancingDetailsComponent&#45;&gt;AppModule -->
<g id="edge10" class="edge">
<title>FinancingExplorerFinancingDetailsComponent&#45;&gt;AppModule</title>
<path fill="none" stroke="#000000" d="M7106,-122.0267C7106,-142.7672 7106,-174 7106,-174 7106,-174 4317.7945,-174 4317.7945,-174"/>
<polygon fill="#000000" stroke="#000000" points="4317.7945,-170.5001 4307.7945,-174 4317.7945,-177.5001 4317.7945,-170.5001"/>
</g>
<!-- FinancingExplorerNavbarComponent -->
<g id="node11" class="node">
<title>FinancingExplorerNavbarComponent</title>
<polygon fill="#ffffb3" stroke="#000000" points="6946.5013,-122 6719.4987,-122 6719.4987,-86 6946.5013,-86 6946.5013,-122"/>
<text text-anchor="middle" x="6833" y="-99.8" font-family="Times,serif" font-size="14.00" fill="#000000">FinancingExplorerNavbarComponent</text>
</g>
<!-- FinancingExplorerNavbarComponent&#45;&gt;AppModule -->
<g id="edge11" class="edge">
<title>FinancingExplorerNavbarComponent&#45;&gt;AppModule</title>
<path fill="none" stroke="#000000" d="M6833,-122.1289C6833,-142.5724 6833,-173 6833,-173 6833,-173 4317.8857,-173 4317.8857,-173"/>
<polygon fill="#000000" stroke="#000000" points="4317.8857,-169.5001 4307.8857,-173 4317.8857,-176.5001 4317.8857,-169.5001"/>
</g>
<!-- FinancingExplorerMovieHomeComponent -->
<g id="node12" class="node">
<title>FinancingExplorerMovieHomeComponent</title>
<polygon fill="#ffffb3" stroke="#000000" points="6701.566,-122 6444.434,-122 6444.434,-86 6701.566,-86 6701.566,-122"/>
<text text-anchor="middle" x="6573" y="-99.8" font-family="Times,serif" font-size="14.00" fill="#000000">FinancingExplorerMovieHomeComponent</text>
</g>
<!-- FinancingExplorerMovieHomeComponent&#45;&gt;AppModule -->
<g id="edge12" class="edge">
<title>FinancingExplorerMovieHomeComponent&#45;&gt;AppModule</title>
<path fill="none" stroke="#000000" d="M6573,-122.308C6573,-142.1455 6573,-171 6573,-171 6573,-171 4318.0117,-171 4318.0117,-171"/>
<polygon fill="#000000" stroke="#000000" points="4318.0117,-167.5001 4308.0117,-171 4318.0116,-174.5001 4318.0117,-167.5001"/>
</g>
<!-- FinancingExplorerProfileComponent -->
<g id="node13" class="node">
<title>FinancingExplorerProfileComponent</title>
<polygon fill="#ffffb3" stroke="#000000" points="6426.4044,-122 6201.5956,-122 6201.5956,-86 6426.4044,-86 6426.4044,-122"/>
<text text-anchor="middle" x="6314" y="-99.8" font-family="Times,serif" font-size="14.00" fill="#000000">FinancingExplorerProfileComponent</text>
</g>
<!-- FinancingExplorerProfileComponent&#45;&gt;AppModule -->
<g id="edge13" class="edge">
<title>FinancingExplorerProfileComponent&#45;&gt;AppModule</title>
<path fill="none" stroke="#000000" d="M6314,-122.0348C6314,-141.5762 6314,-170 6314,-170 6314,-170 4317.8376,-170 4317.8376,-170"/>
<polygon fill="#000000" stroke="#000000" points="4317.8377,-166.5001 4307.8376,-170 4317.8376,-173.5001 4317.8377,-166.5001"/>
</g>
<!-- FinancingExplorerCompareComponent -->
<g id="node14" class="node">
<title>FinancingExplorerCompareComponent</title>
<polygon fill="#ffffb3" stroke="#000000" points="6183.6217,-122 5946.3783,-122 5946.3783,-86 6183.6217,-86 6183.6217,-122"/>
<text text-anchor="middle" x="6065" y="-99.8" font-family="Times,serif" font-size="14.00" fill="#000000">FinancingExplorerCompareComponent</text>
</g>
<!-- FinancingExplorerCompareComponent&#45;&gt;AppModule -->
<g id="edge14" class="edge">
<title>FinancingExplorerCompareComponent&#45;&gt;AppModule</title>
<path fill="none" stroke="#000000" d="M6065,-122.1061C6065,-141.3391 6065,-169 6065,-169 6065,-169 4317.8209,-169 4317.8209,-169"/>
<polygon fill="#000000" stroke="#000000" points="4317.8209,-165.5001 4307.8209,-169 4317.8209,-172.5001 4317.8209,-165.5001"/>
</g>
<!-- AppComponent  -->
<g id="node54" class="node">
<title>AppComponent </title>
<polygon fill="#80b1d3" stroke="#000000" points="4320.439,-252 4211.561,-252 4211.561,-216 4320.439,-216 4320.439,-252"/>
<text text-anchor="middle" x="4266" y="-229.8" font-family="Times,serif" font-size="14.00" fill="#000000">AppComponent </text>
</g>
<!-- AppModule&#45;&gt;AppComponent  -->
<g id="edge54" class="edge">
<title>AppModule&#45;&gt;AppComponent </title>
<path fill="none" stroke="#000000" stroke-dasharray="1,5" d="M4266,-187.1061C4266,-187.1061 4266,-205.991 4266,-205.991"/>
<polygon fill="#000000" stroke="#000000" points="4262.5001,-205.9909 4266,-215.991 4269.5001,-205.991 4262.5001,-205.9909"/>
</g>
<!-- BrowserModule -->
<g id="node16" class="node">
<title>BrowserModule</title>
<polygon fill="#8dd3c7" stroke="#000000" points="5922.4734,-122 5919.4734,-126 5898.4734,-126 5895.4734,-122 5815.5266,-122 5815.5266,-86 5922.4734,-86 5922.4734,-122"/>
<text text-anchor="middle" x="5869" y="-99.8" font-family="Times,serif" font-size="14.00" fill="#000000">BrowserModule</text>
</g>
<!-- BrowserModule&#45;&gt;AppModule -->
<g id="edge15" class="edge">
<title>BrowserModule&#45;&gt;AppModule</title>
<path fill="none" stroke="#000000" d="M5869,-122.2222C5869,-140.8285 5869,-167 5869,-167 5869,-167 4318.0524,-167 4318.0524,-167"/>
<polygon fill="#000000" stroke="#000000" points="4318.0524,-163.5001 4308.0524,-167 4318.0524,-170.5001 4318.0524,-163.5001"/>
</g>
<!-- BrowserAnimationsModule -->
<g id="node17" class="node">
<title>BrowserAnimationsModule</title>
<polygon fill="#8dd3c7" stroke="#000000" points="5797.3019,-122 5794.3019,-126 5773.3019,-126 5770.3019,-122 5624.6981,-122 5624.6981,-86 5797.3019,-86 5797.3019,-122"/>
<text text-anchor="middle" x="5711" y="-99.8" font-family="Times,serif" font-size="14.00" fill="#000000">BrowserAnimationsModule</text>
</g>
<!-- BrowserAnimationsModule&#45;&gt;AppModule -->
<g id="edge16" class="edge">
<title>BrowserAnimationsModule&#45;&gt;AppModule</title>
<path fill="none" stroke="#000000" d="M5711,-122.2667C5711,-140.5552 5711,-166 5711,-166 5711,-166 4317.6877,-166 4317.6877,-166"/>
<polygon fill="#000000" stroke="#000000" points="4317.6877,-162.5001 4307.6877,-166 4317.6876,-169.5001 4317.6877,-162.5001"/>
</g>
<!-- AppRoutingModule -->
<g id="node18" class="node">
<title>AppRoutingModule</title>
<polygon fill="#8dd3c7" stroke="#000000" points="5606.2744,-122 5603.2744,-126 5582.2744,-126 5579.2744,-122 5477.7256,-122 5477.7256,-86 5606.2744,-86 5606.2744,-122"/>
<text text-anchor="middle" x="5542" y="-99.8" font-family="Times,serif" font-size="14.00" fill="#000000">AppRoutingModule</text>
</g>
<!-- AppRoutingModule&#45;&gt;AppModule -->
<g id="edge17" class="edge">
<title>AppRoutingModule&#45;&gt;AppModule</title>
<path fill="none" stroke="#000000" d="M5542,-122.302C5542,-140.2699 5542,-165 5542,-165 5542,-165 4317.7294,-165 4317.7294,-165"/>
<polygon fill="#000000" stroke="#000000" points="4317.7294,-161.5001 4307.7294,-165 4317.7293,-168.5001 4317.7294,-161.5001"/>
</g>
<!-- FormsModule -->
<g id="node19" class="node">
<title>FormsModule</title>
<polygon fill="#8dd3c7" stroke="#000000" points="5459.8288,-122 5456.8288,-126 5435.8288,-126 5432.8288,-122 5364.1712,-122 5364.1712,-86 5459.8288,-86 5459.8288,-122"/>
<text text-anchor="middle" x="5412" y="-99.8" font-family="Times,serif" font-size="14.00" fill="#000000">FormsModule</text>
</g>
<!-- FormsModule&#45;&gt;AppModule -->
<g id="edge18" class="edge">
<title>FormsModule&#45;&gt;AppModule</title>
<path fill="none" stroke="#000000" d="M5412,-122.0225C5412,-139.3734 5412,-163 5412,-163 5412,-163 4317.8042,-163 4317.8042,-163"/>
<polygon fill="#000000" stroke="#000000" points="4317.8042,-159.5001 4307.8042,-163 4317.8042,-166.5001 4317.8042,-159.5001"/>
</g>
<!-- ReactiveFormsModule -->
<g id="node20" class="node">
<title>ReactiveFormsModule</title>
<polygon fill="#8dd3c7" stroke="#000000" points="5346.3047,-122 5343.3047,-126 5322.3047,-126 5319.3047,-122 5201.6953,-122 5201.6953,-86 5346.3047,-86 5346.3047,-122"/>
<text text-anchor="middle" x="5274" y="-99.8" font-family="Times,serif" font-size="14.00" fill="#000000">ReactiveFormsModule</text>
</g>
<!-- ReactiveFormsModule&#45;&gt;AppModule -->
<g id="edge19" class="edge">
<title>ReactiveFormsModule&#45;&gt;AppModule</title>
<path fill="none" stroke="#000000" d="M5274,-122.0336C5274,-139.0597 5274,-162 5274,-162 5274,-162 4317.7111,-162 4317.7111,-162"/>
<polygon fill="#000000" stroke="#000000" points="4317.7111,-158.5001 4307.7111,-162 4317.711,-165.5001 4317.7111,-158.5001"/>
</g>
<!-- MovieModule -->
<g id="node21" class="node">
<title>MovieModule</title>
<polygon fill="#8dd3c7" stroke="#000000" points="5184.0997,-122 5181.0997,-126 5160.0997,-126 5157.0997,-122 5087.9003,-122 5087.9003,-86 5184.0997,-86 5184.0997,-122"/>
<text text-anchor="middle" x="5136" y="-99.8" font-family="Times,serif" font-size="14.00" fill="#000000">MovieModule</text>
</g>
<!-- MovieModule&#45;&gt;AppModule -->
<g id="edge20" class="edge">
<title>MovieModule&#45;&gt;AppModule</title>
<path fill="none" stroke="#000000" d="M5136,-122.0352C5136,-138.7344 5136,-161 5136,-161 5136,-161 4317.6688,-161 4317.6688,-161"/>
<polygon fill="#000000" stroke="#000000" points="4317.6688,-157.5001 4307.6688,-161 4317.6688,-164.5001 4317.6688,-157.5001"/>
</g>
<!-- RouterModule -->
<g id="node22" class="node">
<title>RouterModule</title>
<polygon fill="#8dd3c7" stroke="#000000" points="5069.6528,-122 5066.6528,-126 5045.6528,-126 5042.6528,-122 4972.3472,-122 4972.3472,-86 5069.6528,-86 5069.6528,-122"/>
<text text-anchor="middle" x="5021" y="-99.8" font-family="Times,serif" font-size="14.00" fill="#000000">RouterModule</text>
</g>
<!-- RouterModule&#45;&gt;AppModule -->
<g id="edge21" class="edge">
<title>RouterModule&#45;&gt;AppModule</title>
<path fill="none" stroke="#000000" d="M5021,-122.0091C5021,-138.0494 5021,-159 5021,-159 5021,-159 4317.6675,-159 4317.6675,-159"/>
<polygon fill="#000000" stroke="#000000" points="4317.6675,-155.5001 4307.6675,-159 4317.6675,-162.5001 4317.6675,-155.5001"/>
</g>
<!-- AuthModule -->
<g id="node23" class="node">
<title>AuthModule</title>
<polygon fill="#8dd3c7" stroke="#000000" points="4953.5482,-122 4950.5482,-126 4929.5482,-126 4926.5482,-122 4866.4518,-122 4866.4518,-86 4953.5482,-86 4953.5482,-122"/>
<text text-anchor="middle" x="4910" y="-99.8" font-family="Times,serif" font-size="14.00" fill="#000000">AuthModule</text>
</g>
<!-- AuthModule&#45;&gt;AppModule -->
<g id="edge22" class="edge">
<title>AuthModule&#45;&gt;AppModule</title>
<path fill="none" stroke="#000000" d="M4910,-122.2819C4910,-137.9478 4910,-158 4910,-158 4910,-158 4317.7584,-158 4317.7584,-158"/>
<polygon fill="#000000" stroke="#000000" points="4317.7585,-154.5001 4307.7584,-158 4317.7584,-161.5001 4317.7585,-154.5001"/>
</g>
<!-- ToolbarModule -->
<g id="node24" class="node">
<title>ToolbarModule</title>
<polygon fill="#8dd3c7" stroke="#000000" points="4847.8683,-122 4844.8683,-126 4823.8683,-126 4820.8683,-122 4744.1317,-122 4744.1317,-86 4847.8683,-86 4847.8683,-122"/>
<text text-anchor="middle" x="4796" y="-99.8" font-family="Times,serif" font-size="14.00" fill="#000000">ToolbarModule</text>
</g>
<!-- ToolbarModule&#45;&gt;AppModule -->
<g id="edge23" class="edge">
<title>ToolbarModule&#45;&gt;AppModule</title>
<path fill="none" stroke="#000000" d="M4796,-122.2396C4796,-137.5706 4796,-157 4796,-157 4796,-157 4318.0312,-157 4318.0312,-157"/>
<polygon fill="#000000" stroke="#000000" points="4318.0313,-153.5001 4308.0312,-157 4318.0312,-160.5001 4318.0313,-153.5001"/>
</g>
<!-- AccountModule -->
<g id="node25" class="node">
<title>AccountModule</title>
<polygon fill="#8dd3c7" stroke="#000000" points="4726.4762,-122 4723.4762,-126 4702.4762,-126 4699.4762,-122 4619.5238,-122 4619.5238,-86 4726.4762,-86 4726.4762,-122"/>
<text text-anchor="middle" x="4673" y="-99.8" font-family="Times,serif" font-size="14.00" fill="#000000">AccountModule</text>
</g>
<!-- AccountModule&#45;&gt;AppModule -->
<g id="edge24" class="edge">
<title>AccountModule&#45;&gt;AppModule</title>
<path fill="none" stroke="#000000" d="M4673,-122.1243C4673,-136.7832 4673,-155 4673,-155 4673,-155 4318.0232,-155 4318.0232,-155"/>
<polygon fill="#000000" stroke="#000000" points="4318.0232,-151.5001 4308.0232,-155 4318.0232,-158.5001 4318.0232,-151.5001"/>
</g>
<!-- ProfileModule -->
<g id="node26" class="node">
<title>ProfileModule</title>
<polygon fill="#8dd3c7" stroke="#000000" points="4601.65,-122 4598.65,-126 4577.65,-126 4574.65,-122 4504.35,-122 4504.35,-86 4601.65,-86 4601.65,-122"/>
<text text-anchor="middle" x="4553" y="-99.8" font-family="Times,serif" font-size="14.00" fill="#000000">ProfileModule</text>
</g>
<!-- ProfileModule&#45;&gt;AppModule -->
<g id="edge25" class="edge">
<title>ProfileModule&#45;&gt;AppModule</title>
<path fill="none" stroke="#000000" d="M4553,-122.0511C4553,-136.373 4553,-154 4553,-154 4553,-154 4317.7323,-154 4317.7323,-154"/>
<polygon fill="#000000" stroke="#000000" points="4317.7323,-150.5001 4307.7323,-154 4317.7322,-157.5001 4317.7323,-150.5001"/>
</g>
<!-- UtilsModule -->
<g id="node27" class="node">
<title>UtilsModule</title>
<polygon fill="#8dd3c7" stroke="#000000" points="4486.2731,-122 4483.2731,-126 4462.2731,-126 4459.2731,-122 4399.7269,-122 4399.7269,-86 4486.2731,-86 4486.2731,-122"/>
<text text-anchor="middle" x="4443" y="-99.8" font-family="Times,serif" font-size="14.00" fill="#000000">UtilsModule</text>
</g>
<!-- UtilsModule&#45;&gt;AppModule -->
<g id="edge26" class="edge">
<title>UtilsModule&#45;&gt;AppModule</title>
<path fill="none" stroke="#000000" d="M4443,-122.2458C4443,-136.1772 4443,-153 4443,-153 4443,-153 4317.9465,-153 4317.9465,-153"/>
<polygon fill="#000000" stroke="#000000" points="4317.9466,-149.5001 4307.9465,-153 4317.9465,-156.5001 4317.9466,-149.5001"/>
</g>
<!-- WalletModule -->
<g id="node28" class="node">
<title>WalletModule</title>
<polygon fill="#8dd3c7" stroke="#000000" points="4381.3655,-122 4378.3655,-126 4357.3655,-126 4354.3655,-122 4284.6345,-122 4284.6345,-86 4381.3655,-86 4381.3655,-122"/>
<text text-anchor="middle" x="4333" y="-99.8" font-family="Times,serif" font-size="14.00" fill="#000000">WalletModule</text>
</g>
<!-- WalletModule&#45;&gt;AppModule -->
<g id="edge27" class="edge">
<title>WalletModule&#45;&gt;AppModule</title>
<path fill="none" stroke="#000000" d="M4296.1977,-122.1061C4296.1977,-122.1061 4296.1977,-140.991 4296.1977,-140.991"/>
<polygon fill="#000000" stroke="#000000" points="4292.6978,-140.9909 4296.1977,-150.991 4299.6978,-140.991 4292.6978,-140.9909"/>
</g>
<!-- KeyManagerModule -->
<g id="node29" class="node">
<title>KeyManagerModule</title>
<polygon fill="#8dd3c7" stroke="#000000" points="4266.1205,-122 4263.1205,-126 4242.1205,-126 4239.1205,-122 4133.8795,-122 4133.8795,-86 4266.1205,-86 4266.1205,-122"/>
<text text-anchor="middle" x="4200" y="-99.8" font-family="Times,serif" font-size="14.00" fill="#000000">KeyManagerModule</text>
</g>
<!-- KeyManagerModule&#45;&gt;AppModule -->
<g id="edge28" class="edge">
<title>KeyManagerModule&#45;&gt;AppModule</title>
<path fill="none" stroke="#000000" d="M4245.2409,-122.1061C4245.2409,-122.1061 4245.2409,-140.991 4245.2409,-140.991"/>
<polygon fill="#000000" stroke="#000000" points="4241.741,-140.9909 4245.2409,-150.991 4248.741,-140.991 4241.741,-140.9909"/>
</g>
<!-- MatSidenavModule -->
<g id="node30" class="node">
<title>MatSidenavModule</title>
<polygon fill="#8dd3c7" stroke="#000000" points="4115.7022,-122 4112.7022,-126 4091.7022,-126 4088.7022,-122 3988.2978,-122 3988.2978,-86 4115.7022,-86 4115.7022,-122"/>
<text text-anchor="middle" x="4052" y="-99.8" font-family="Times,serif" font-size="14.00" fill="#000000">MatSidenavModule</text>
</g>
<!-- MatSidenavModule&#45;&gt;AppModule -->
<g id="edge29" class="edge">
<title>MatSidenavModule&#45;&gt;AppModule</title>
<path fill="none" stroke="#000000" d="M4052,-122.2458C4052,-136.1772 4052,-153 4052,-153 4052,-153 4214.2306,-153 4214.2306,-153"/>
<polygon fill="#000000" stroke="#000000" points="4214.2307,-156.5001 4224.2306,-153 4214.2306,-149.5001 4214.2307,-156.5001"/>
</g>
<!-- MatToolbarModule -->
<g id="node31" class="node">
<title>MatToolbarModule</title>
<polygon fill="#8dd3c7" stroke="#000000" points="3970.4187,-122 3967.4187,-126 3946.4187,-126 3943.4187,-122 3843.5813,-122 3843.5813,-86 3970.4187,-86 3970.4187,-122"/>
<text text-anchor="middle" x="3907" y="-99.8" font-family="Times,serif" font-size="14.00" fill="#000000">MatToolbarModule</text>
</g>
<!-- MatToolbarModule&#45;&gt;AppModule -->
<g id="edge30" class="edge">
<title>MatToolbarModule&#45;&gt;AppModule</title>
<path fill="none" stroke="#000000" d="M3907,-122.0511C3907,-136.373 3907,-154 3907,-154 3907,-154 4214.1155,-154 4214.1155,-154"/>
<polygon fill="#000000" stroke="#000000" points="4214.1156,-157.5001 4224.1155,-154 4214.1155,-150.5001 4214.1156,-157.5001"/>
</g>
<!-- MatListModule -->
<g id="node32" class="node">
<title>MatListModule</title>
<polygon fill="#8dd3c7" stroke="#000000" points="3825.8781,-122 3822.8781,-126 3801.8781,-126 3798.8781,-122 3722.1219,-122 3722.1219,-86 3825.8781,-86 3825.8781,-122"/>
<text text-anchor="middle" x="3774" y="-99.8" font-family="Times,serif" font-size="14.00" fill="#000000">MatListModule</text>
</g>
<!-- MatListModule&#45;&gt;AppModule -->
<g id="edge31" class="edge">
<title>MatListModule&#45;&gt;AppModule</title>
<path fill="none" stroke="#000000" d="M3774,-122.1243C3774,-136.7832 3774,-155 3774,-155 3774,-155 4214.0524,-155 4214.0524,-155"/>
<polygon fill="#000000" stroke="#000000" points="4214.0524,-158.5001 4224.0524,-155 4214.0523,-151.5001 4214.0524,-158.5001"/>
</g>
<!-- MatIconModule -->
<g id="node33" class="node">
<title>MatIconModule</title>
<polygon fill="#8dd3c7" stroke="#000000" points="3704.4748,-122 3701.4748,-126 3680.4748,-126 3677.4748,-122 3597.5252,-122 3597.5252,-86 3704.4748,-86 3704.4748,-122"/>
<text text-anchor="middle" x="3651" y="-99.8" font-family="Times,serif" font-size="14.00" fill="#000000">MatIconModule</text>
</g>
<!-- MatIconModule&#45;&gt;AppModule -->
<g id="edge32" class="edge">
<title>MatIconModule&#45;&gt;AppModule</title>
<path fill="none" stroke="#000000" d="M3651,-122.2396C3651,-137.5706 3651,-157 3651,-157 3651,-157 4214.2121,-157 4214.2121,-157"/>
<polygon fill="#000000" stroke="#000000" points="4214.2121,-160.5001 4224.2121,-157 4214.212,-153.5001 4214.2121,-160.5001"/>
</g>
<!-- MatButtonModule -->
<g id="node34" class="node">
<title>MatButtonModule</title>
<polygon fill="#8dd3c7" stroke="#000000" points="3579.2176,-122 3576.2176,-126 3555.2176,-126 3552.2176,-122 3458.7824,-122 3458.7824,-86 3579.2176,-86 3579.2176,-122"/>
<text text-anchor="middle" x="3519" y="-99.8" font-family="Times,serif" font-size="14.00" fill="#000000">MatButtonModule</text>
</g>
<!-- MatButtonModule&#45;&gt;AppModule -->
<g id="edge33" class="edge">
<title>MatButtonModule&#45;&gt;AppModule</title>
<path fill="none" stroke="#000000" d="M3519,-122.2819C3519,-137.9478 3519,-158 3519,-158 3519,-158 4214.2374,-158 4214.2374,-158"/>
<polygon fill="#000000" stroke="#000000" points="4214.2374,-161.5001 4224.2374,-158 4214.2374,-154.5001 4214.2374,-161.5001"/>
</g>
<!-- MatTooltipModule -->
<g id="node35" class="node">
<title>MatTooltipModule</title>
<polygon fill="#8dd3c7" stroke="#000000" points="3440.8244,-122 3437.8244,-126 3416.8244,-126 3413.8244,-122 3317.1756,-122 3317.1756,-86 3440.8244,-86 3440.8244,-122"/>
<text text-anchor="middle" x="3379" y="-99.8" font-family="Times,serif" font-size="14.00" fill="#000000">MatTooltipModule</text>
</g>
<!-- MatTooltipModule&#45;&gt;AppModule -->
<g id="edge34" class="edge">
<title>MatTooltipModule&#45;&gt;AppModule</title>
<path fill="none" stroke="#000000" d="M3379,-122.0091C3379,-138.0494 3379,-159 3379,-159 3379,-159 4214.1118,-159 4214.1118,-159"/>
<polygon fill="#000000" stroke="#000000" points="4214.1119,-162.5001 4224.1118,-159 4214.1118,-155.5001 4214.1119,-162.5001"/>
</g>
<!-- MatInputModule -->
<g id="node36" class="node">
<title>MatInputModule</title>
<polygon fill="#8dd3c7" stroke="#000000" points="3299.6513,-122 3296.6513,-126 3275.6513,-126 3272.6513,-122 3188.3487,-122 3188.3487,-86 3299.6513,-86 3299.6513,-122"/>
<text text-anchor="middle" x="3244" y="-99.8" font-family="Times,serif" font-size="14.00" fill="#000000">MatInputModule</text>
</g>
<!-- MatInputModule&#45;&gt;AppModule -->
<g id="edge35" class="edge">
<title>MatInputModule&#45;&gt;AppModule</title>
<path fill="none" stroke="#000000" d="M3244,-122.0352C3244,-138.7344 3244,-161 3244,-161 3244,-161 4214.0311,-161 4214.0311,-161"/>
<polygon fill="#000000" stroke="#000000" points="4214.0311,-164.5001 4224.0311,-161 4214.031,-157.5001 4214.0311,-164.5001"/>
</g>
<!-- MatCardModule -->
<g id="node37" class="node">
<title>MatCardModule</title>
<polygon fill="#8dd3c7" stroke="#000000" points="3170.8118,-122 3167.8118,-126 3146.8118,-126 3143.8118,-122 3061.1882,-122 3061.1882,-86 3170.8118,-86 3170.8118,-122"/>
<text text-anchor="middle" x="3116" y="-99.8" font-family="Times,serif" font-size="14.00" fill="#000000">MatCardModule</text>
</g>
<!-- MatCardModule&#45;&gt;AppModule -->
<g id="edge36" class="edge">
<title>MatCardModule&#45;&gt;AppModule</title>
<path fill="none" stroke="#000000" d="M3116,-122.0336C3116,-139.0597 3116,-162 3116,-162 3116,-162 4214.0499,-162 4214.0499,-162"/>
<polygon fill="#000000" stroke="#000000" points="4214.0499,-165.5001 4224.0499,-162 4214.0499,-158.5001 4214.0499,-165.5001"/>
</g>
<!-- MatGridListModule -->
<g id="node38" class="node">
<title>MatGridListModule</title>
<polygon fill="#8dd3c7" stroke="#000000" points="3043.5366,-122 3040.5366,-126 3019.5366,-126 3016.5366,-122 2914.4634,-122 2914.4634,-86 3043.5366,-86 3043.5366,-122"/>
<text text-anchor="middle" x="2979" y="-99.8" font-family="Times,serif" font-size="14.00" fill="#000000">MatGridListModule</text>
</g>
<!-- MatGridListModule&#45;&gt;AppModule -->
<g id="edge37" class="edge">
<title>MatGridListModule&#45;&gt;AppModule</title>
<path fill="none" stroke="#000000" d="M2979,-122.0225C2979,-139.3734 2979,-163 2979,-163 2979,-163 4214.2746,-163 4214.2746,-163"/>
<polygon fill="#000000" stroke="#000000" points="4214.2746,-166.5001 4224.2746,-163 4214.2746,-159.5001 4214.2746,-166.5001"/>
</g>
<!-- MatChipsModule -->
<g id="node39" class="node">
<title>MatChipsModule</title>
<polygon fill="#8dd3c7" stroke="#000000" points="2896.2716,-122 2893.2716,-126 2872.2716,-126 2869.2716,-122 2781.7284,-122 2781.7284,-86 2896.2716,-86 2896.2716,-122"/>
<text text-anchor="middle" x="2839" y="-99.8" font-family="Times,serif" font-size="14.00" fill="#000000">MatChipsModule</text>
</g>
<!-- MatChipsModule&#45;&gt;AppModule -->
<g id="edge38" class="edge">
<title>MatChipsModule&#45;&gt;AppModule</title>
<path fill="none" stroke="#000000" d="M2839,-122.302C2839,-140.2699 2839,-165 2839,-165 2839,-165 4214.0654,-165 4214.0654,-165"/>
<polygon fill="#000000" stroke="#000000" points="4214.0655,-168.5001 4224.0654,-165 4214.0654,-161.5001 4214.0655,-168.5001"/>
</g>
<!-- MatTabsModule -->
<g id="node40" class="node">
<title>MatTabsModule</title>
<polygon fill="#8dd3c7" stroke="#000000" points="2763.8118,-122 2760.8118,-126 2739.8118,-126 2736.8118,-122 2654.1882,-122 2654.1882,-86 2763.8118,-86 2763.8118,-122"/>
<text text-anchor="middle" x="2709" y="-99.8" font-family="Times,serif" font-size="14.00" fill="#000000">MatTabsModule</text>
</g>
<!-- MatTabsModule&#45;&gt;AppModule -->
<g id="edge39" class="edge">
<title>MatTabsModule&#45;&gt;AppModule</title>
<path fill="none" stroke="#000000" d="M2709,-122.2667C2709,-140.5552 2709,-166 2709,-166 2709,-166 4213.9512,-166 4213.9512,-166"/>
<polygon fill="#000000" stroke="#000000" points="4213.9512,-169.5001 4223.9512,-166 4213.9511,-162.5001 4213.9512,-169.5001"/>
</g>
<!-- MatProgressSpinnerModule -->
<g id="node41" class="node">
<title>MatProgressSpinnerModule</title>
<polygon fill="#8dd3c7" stroke="#000000" points="2635.8557,-122 2632.8557,-126 2611.8557,-126 2608.8557,-122 2462.1443,-122 2462.1443,-86 2635.8557,-86 2635.8557,-122"/>
<text text-anchor="middle" x="2549" y="-99.8" font-family="Times,serif" font-size="14.00" fill="#000000">MatProgressSpinnerModule</text>
</g>
<!-- MatProgressSpinnerModule&#45;&gt;AppModule -->
<g id="edge40" class="edge">
<title>MatProgressSpinnerModule&#45;&gt;AppModule</title>
<path fill="none" stroke="#000000" d="M2549,-122.2222C2549,-140.8285 2549,-167 2549,-167 2549,-167 4213.9834,-167 4213.9834,-167"/>
<polygon fill="#000000" stroke="#000000" points="4213.9835,-170.5001 4223.9834,-167 4213.9834,-163.5001 4213.9835,-170.5001"/>
</g>
<!-- MatProgressBarModule -->
<g id="node42" class="node">
<title>MatProgressBarModule</title>
<polygon fill="#8dd3c7" stroke="#000000" points="2444.0198,-122 2441.0198,-126 2420.0198,-126 2417.0198,-122 2293.9802,-122 2293.9802,-86 2444.0198,-86 2444.0198,-122"/>
<text text-anchor="middle" x="2369" y="-99.8" font-family="Times,serif" font-size="14.00" fill="#000000">MatProgressBarModule</text>
</g>
<!-- MatProgressBarModule&#45;&gt;AppModule -->
<g id="edge41" class="edge">
<title>MatProgressBarModule&#45;&gt;AppModule</title>
<path fill="none" stroke="#000000" d="M2394.0865,-122.1061C2394.0865,-141.3391 2394.0865,-169 2394.0865,-169 2394.0865,-169 4214.2779,-169 4214.2779,-169"/>
<polygon fill="#000000" stroke="#000000" points="4214.2779,-172.5001 4224.2779,-169 4214.2778,-165.5001 4214.2779,-172.5001"/>
</g>
<!-- MatProgressBarModule&#45;&gt;AppModule -->
<g id="edge52" class="edge">
<title>MatProgressBarModule&#45;&gt;AppModule</title>
<path fill="none" stroke="#000000" d="M2343.9135,-122.0348C2343.9135,-141.5762 2343.9135,-170 2343.9135,-170 2343.9135,-170 4214.067,-170 4214.067,-170"/>
<polygon fill="#000000" stroke="#000000" points="4214.067,-173.5001 4224.067,-170 4214.0669,-166.5001 4214.067,-173.5001"/>
</g>
<!-- MatExpansionModule -->
<g id="node43" class="node">
<title>MatExpansionModule</title>
<polygon fill="#8dd3c7" stroke="#000000" points="2275.7021,-122 2272.7021,-126 2251.7021,-126 2248.7021,-122 2134.2979,-122 2134.2979,-86 2275.7021,-86 2275.7021,-122"/>
<text text-anchor="middle" x="2205" y="-99.8" font-family="Times,serif" font-size="14.00" fill="#000000">MatExpansionModule</text>
</g>
<!-- MatExpansionModule&#45;&gt;AppModule -->
<g id="edge42" class="edge">
<title>MatExpansionModule&#45;&gt;AppModule</title>
<path fill="none" stroke="#000000" d="M2205,-122.308C2205,-142.1455 2205,-171 2205,-171 2205,-171 4213.8968,-171 4213.8968,-171"/>
<polygon fill="#000000" stroke="#000000" points="4213.8968,-174.5001 4223.8968,-171 4213.8968,-167.5001 4213.8968,-174.5001"/>
</g>
<!-- MatBadgeModule -->
<g id="node44" class="node">
<title>MatBadgeModule</title>
<polygon fill="#8dd3c7" stroke="#000000" points="2115.8655,-122 2112.8655,-126 2091.8655,-126 2088.8655,-122 1998.1345,-122 1998.1345,-86 2115.8655,-86 2115.8655,-122"/>
<text text-anchor="middle" x="2057" y="-99.8" font-family="Times,serif" font-size="14.00" fill="#000000">MatBadgeModule</text>
</g>
<!-- MatBadgeModule&#45;&gt;AppModule -->
<g id="edge43" class="edge">
<title>MatBadgeModule&#45;&gt;AppModule</title>
<path fill="none" stroke="#000000" d="M2057,-122.1289C2057,-142.5724 2057,-173 2057,-173 2057,-173 4214.3308,-173 4214.3308,-173"/>
<polygon fill="#000000" stroke="#000000" points="4214.3309,-176.5001 4224.3308,-173 4214.3308,-169.5001 4214.3309,-176.5001"/>
</g>
<!-- MatMenuModule -->
<g id="node45" class="node">
<title>MatMenuModule</title>
<polygon fill="#8dd3c7" stroke="#000000" points="1980.2591,-122 1977.2591,-126 1956.2591,-126 1953.2591,-122 1865.7409,-122 1865.7409,-86 1980.2591,-86 1980.2591,-122"/>
<text text-anchor="middle" x="1923" y="-99.8" font-family="Times,serif" font-size="14.00" fill="#000000">MatMenuModule</text>
</g>
<!-- MatMenuModule&#45;&gt;AppModule -->
<g id="edge44" class="edge">
<title>MatMenuModule&#45;&gt;AppModule</title>
<path fill="none" stroke="#000000" d="M1923,-122.0267C1923,-142.7672 1923,-174 1923,-174 1923,-174 4214.3384,-174 4214.3384,-174"/>
<polygon fill="#000000" stroke="#000000" points="4214.3385,-177.5001 4224.3384,-174 4214.3384,-170.5001 4214.3385,-177.5001"/>
</g>
<!-- MatRadioModule -->
<g id="node46" class="node">
<title>MatRadioModule</title>
<polygon fill="#8dd3c7" stroke="#000000" points="1847.5423,-122 1844.5423,-126 1823.5423,-126 1820.5423,-122 1732.4577,-122 1732.4577,-86 1847.5423,-86 1847.5423,-122"/>
<text text-anchor="middle" x="1790" y="-99.8" font-family="Times,serif" font-size="14.00" fill="#000000">MatRadioModule</text>
</g>
<!-- MatRadioModule&#45;&gt;AppModule -->
<g id="edge45" class="edge">
<title>MatRadioModule&#45;&gt;AppModule</title>
<path fill="none" stroke="#000000" d="M1790,-122.2843C1790,-143.3211 1790,-175 1790,-175 1790,-175 4214.3211,-175 4214.3211,-175"/>
<polygon fill="#000000" stroke="#000000" points="4214.3212,-178.5001 4224.3211,-175 4214.3211,-171.5001 4214.3212,-178.5001"/>
</g>
<!-- AkitaNgRouterStoreModule.forRoot() -->
<g id="node47" class="node">
<title>AkitaNgRouterStoreModule.forRoot()</title>
<polygon fill="#8dd3c7" stroke="#000000" points="1713.7793,-122 1710.7793,-126 1689.7793,-126 1686.7793,-122 1482.2207,-122 1482.2207,-86 1713.7793,-86 1713.7793,-122"/>
<text text-anchor="middle" x="1598" y="-99.8" font-family="Times,serif" font-size="14.00" fill="#000000">AkitaNgRouterStoreModule.forRoot()</text>
</g>
<!-- AkitaNgRouterStoreModule.forRoot()&#45;&gt;AppModule -->
<g id="edge46" class="edge">
<title>AkitaNgRouterStoreModule.forRoot()&#45;&gt;AppModule</title>
<path fill="none" stroke="#000000" d="M1598,-122.0449C1598,-143.6623 1598,-177 1598,-177 1598,-177 4214.0921,-177 4214.0921,-177"/>
<polygon fill="#000000" stroke="#000000" points="4214.0921,-180.5001 4224.0921,-177 4214.0921,-173.5001 4214.0921,-180.5001"/>
</g>
<!-- { &#160;} -->
<g id="node48" class="node">
<title>{ &#160;}</title>
<polygon fill="#8dd3c7" stroke="#000000" points="1464,-122 1461,-126 1440,-126 1437,-122 1410,-122 1410,-86 1464,-86 1464,-122"/>
<text text-anchor="middle" x="1437" y="-99.8" font-family="Times,serif" font-size="14.00" fill="#000000">{ &#160;}</text>
</g>
<!-- { &#160;}&#45;&gt;AppModule -->
<g id="edge47" class="edge">
<title>{ &#160;}&#45;&gt;AppModule</title>
<path fill="none" stroke="#000000" d="M1437,-122.2921C1437,-144.2057 1437,-178 1437,-178 1437,-178 4214.0909,-178 4214.0909,-178"/>
<polygon fill="#000000" stroke="#000000" points="4214.0909,-181.5001 4224.0909,-178 4214.0908,-174.5001 4214.0909,-181.5001"/>
</g>
<!-- AngularFireFunctionsModule -->
<g id="node49" class="node">
<title>AngularFireFunctionsModule</title>
<polygon fill="#8dd3c7" stroke="#000000" points="1391.6937,-122 1388.6937,-126 1367.6937,-126 1364.6937,-122 1208.3063,-122 1208.3063,-86 1391.6937,-86 1391.6937,-122"/>
<text text-anchor="middle" x="1300" y="-99.8" font-family="Times,serif" font-size="14.00" fill="#000000">AngularFireFunctionsModule</text>
</g>
<!-- AngularFireFunctionsModule&#45;&gt;AppModule -->
<g id="edge48" class="edge">
<title>AngularFireFunctionsModule&#45;&gt;AppModule</title>
<path fill="none" stroke="#000000" d="M1300,-122.1554C1300,-144.3519 1300,-179 1300,-179 1300,-179 4214.0717,-179 4214.0717,-179"/>
<polygon fill="#000000" stroke="#000000" points="4214.0717,-182.5001 4224.0717,-179 4214.0717,-175.5001 4214.0717,-182.5001"/>
</g>
<!-- AngularFirestoreModule.enablePersistence(args) -->
<g id="node50" class="node">
<title>AngularFirestoreModule.enablePersistence(args)</title>
<polygon fill="#8dd3c7" stroke="#000000" points="1190.3285,-122 1187.3285,-126 1166.3285,-126 1163.3285,-122 899.6715,-122 899.6715,-86 1190.3285,-86 1190.3285,-122"/>
<text text-anchor="middle" x="1045" y="-99.8" font-family="Times,serif" font-size="14.00" fill="#000000">AngularFirestoreModule.enablePersistence(args)</text>
</g>
<!-- AngularFirestoreModule.enablePersistence(args)&#45;&gt;AppModule -->
<g id="edge49" class="edge">
<title>AngularFirestoreModule.enablePersistence(args)&#45;&gt;AppModule</title>
<path fill="none" stroke="#000000" d="M1045,-122.2479C1045,-145.0179 1045,-181 1045,-181 1045,-181 4214.0966,-181 4214.0966,-181"/>
<polygon fill="#000000" stroke="#000000" points="4214.0966,-184.5001 4224.0966,-181 4214.0966,-177.5001 4214.0966,-184.5001"/>
</g>
<!-- FlexModule -->
<g id="node51" class="node">
<title>FlexModule</title>
<polygon fill="#8dd3c7" stroke="#000000" points="881.4387,-122 878.4387,-126 857.4387,-126 854.4387,-122 796.5613,-122 796.5613,-86 881.4387,-86 881.4387,-122"/>
<text text-anchor="middle" x="839" y="-99.8" font-family="Times,serif" font-size="14.00" fill="#000000">FlexModule</text>
</g>
<!-- FlexModule&#45;&gt;AppModule -->
<g id="edge50" class="edge">
<title>FlexModule&#45;&gt;AppModule</title>
<path fill="none" stroke="#000000" d="M839,-122.0908C839,-145.1328 839,-182 839,-182 839,-182 4214.2129,-182 4214.2129,-182"/>
<polygon fill="#000000" stroke="#000000" points="4214.2129,-185.5001 4224.2129,-182 4214.2128,-178.5001 4214.2129,-185.5001"/>
</g>
<!-- AngularFullpageModule -->
<g id="node52" class="node">
<title>AngularFullpageModule</title>
<polygon fill="#8dd3c7" stroke="#000000" points="779.4158,-122 776.4158,-126 755.4158,-126 752.4158,-122 624.5842,-122 624.5842,-86 779.4158,-86 779.4158,-122"/>
<text text-anchor="middle" x="702" y="-99.8" font-family="Times,serif" font-size="14.00" fill="#000000">AngularFullpageModule</text>
</g>
<!-- AngularFullpageModule&#45;&gt;AppModule -->
<g id="edge51" class="edge">
<title>AngularFullpageModule&#45;&gt;AppModule</title>
<path fill="none" stroke="#000000" d="M702,-122.3228C702,-145.6602 702,-183 702,-183 702,-183 4214.1192,-183 4214.1192,-183"/>
<polygon fill="#000000" stroke="#000000" points="4214.1192,-186.5001 4224.1192,-183 4214.1191,-179.5001 4214.1192,-186.5001"/>
</g>
<!-- FinancingRangeSliderModule -->
<g id="node53" class="node">
<title>FinancingRangeSliderModule</title>
<polygon fill="#8dd3c7" stroke="#000000" points="606.2478,-122 603.2478,-126 582.2478,-126 579.2478,-122 421.7522,-122 421.7522,-86 606.2478,-86 606.2478,-122"/>
<text text-anchor="middle" x="514" y="-99.8" font-family="Times,serif" font-size="14.00" fill="#000000">FinancingRangeSliderModule</text>
</g>
<!-- FinancingRangeSliderModule&#45;&gt;AppModule -->
<g id="edge53" class="edge">
<title>FinancingRangeSliderModule&#45;&gt;AppModule</title>
<path fill="none" stroke="#000000" d="M514,-122.3802C514,-146.2785 514,-185 514,-185 514,-185 4214.1847,-185 4214.1847,-185"/>
<polygon fill="#000000" stroke="#000000" points="4214.1848,-188.5001 4224.1847,-185 4214.1847,-181.5001 4214.1848,-188.5001"/>
</g>
<!-- { provide: LOCALE_ID, useValue: &#39;fr&#45;FR&#39; } -->
<g id="node55" class="node">
<title>{ provide: LOCALE_ID, useValue: &#39;fr&#45;FR&#39; }</title>
<ellipse fill="#fdb462" stroke="#000000" cx="211" cy="-104" rx="186.6262" ry="18"/>
<text text-anchor="middle" x="211" y="-99.8" font-family="Times,serif" font-size="14.00" fill="#000000">{ provide: LOCALE_ID, useValue: &#39;fr&#45;FR&#39; }</text>
</g>
<!-- { provide: LOCALE_ID, useValue: &#39;fr&#45;FR&#39; }&#45;&gt;AppModule -->
<g id="edge55" class="edge">
<title>{ provide: LOCALE_ID, useValue: &#39;fr&#45;FR&#39; }&#45;&gt;AppModule</title>
<path fill="none" stroke="#000000" d="M211,-122.1985C211,-146.3563 211,-186 211,-186 211,-186 4214.212,-186 4214.212,-186"/>
<polygon fill="#000000" stroke="#000000" points="4214.212,-189.5001 4224.212,-186 4214.212,-182.5001 4214.212,-189.5001"/>
</g>
</g>
</svg>
