<?xml version="1.0" encoding="UTF-8" standalone="no"?>
<!DOCTYPE svg PUBLIC "-//W3C//DTD SVG 1.1//EN"
 "http://www.w3.org/Graphics/SVG/1.1/DTD/svg11.dtd">
<!-- Generated by graphviz version 2.40.1 (20161225.0304)
 -->
<!-- Title: dependencies Pages: 1 -->
<svg width="573pt" height="211pt"
 viewBox="0.00 0.00 573.00 211.00" xmlns="http://www.w3.org/2000/svg" xmlns:xlink="http://www.w3.org/1999/xlink">
<g id="graph0" class="graph" transform="scale(1 1) rotate(0) translate(4 207)">
<title>dependencies</title>
<polygon fill="#ffffff" stroke="transparent" points="-4,4 -4,-207 569,-207 569,4 -4,4"/>
<text text-anchor="start" x="261.5091" y="-42.4" font-family="sans-serif" font-weight="bold" font-size="14.00" fill="#000000">Legend</text>
<polygon fill="#ffffb3" stroke="transparent" points="48.5,-10 48.5,-30 68.5,-30 68.5,-10 48.5,-10"/>
<text text-anchor="start" x="72.129" y="-15.4" font-family="sans-serif" font-size="14.00" fill="#000000"> &#160;Declarations</text>
<polygon fill="#8dd3c7" stroke="transparent" points="161.5,-10 161.5,-30 181.5,-30 181.5,-10 161.5,-10"/>
<text text-anchor="start" x="185.2251" y="-15.4" font-family="sans-serif" font-size="14.00" fill="#000000"> &#160;Module</text>
<polygon fill="#80b1d3" stroke="transparent" points="247.5,-10 247.5,-30 267.5,-30 267.5,-10 247.5,-10"/>
<text text-anchor="start" x="271.2812" y="-15.4" font-family="sans-serif" font-size="14.00" fill="#000000"> &#160;Bootstrap</text>
<polygon fill="#fdb462" stroke="transparent" points="344.5,-10 344.5,-30 364.5,-30 364.5,-10 344.5,-10"/>
<text text-anchor="start" x="368.1732" y="-15.4" font-family="sans-serif" font-size="14.00" fill="#000000"> &#160;Providers</text>
<polygon fill="#fb8072" stroke="transparent" points="440.5,-10 440.5,-30 460.5,-30 460.5,-10 440.5,-10"/>
<text text-anchor="start" x="464.2258" y="-15.4" font-family="sans-serif" font-size="14.00" fill="#000000"> &#160;Exports</text>
<g id="clust1" class="cluster">
<title>cluster_MarketplaceSearchModule</title>
<polygon fill="none" stroke="#000000" stroke-dasharray="1,5" points="8,-70 8,-195 557,-195 557,-70 8,-70"/>
</g>
<g id="clust2" class="cluster">
<title>cluster_MarketplaceSearchModule_declarations</title>
<polygon fill="none" stroke="#000000" points="343,-78 343,-130 549,-130 549,-78 343,-78"/>
</g>
<g id="clust4" class="cluster">
<title>cluster_MarketplaceSearchModule_imports</title>
<polygon fill="none" stroke="#000000" points="16,-78 16,-130 335,-130 335,-78 16,-78"/>
</g>
<!-- MarketplaceSearchComponent -->
<g id="node1" class="node">
<title>MarketplaceSearchComponent</title>
<polygon fill="#ffffb3" stroke="#000000" points="540.8792,-122 351.1208,-122 351.1208,-86 540.8792,-86 540.8792,-122"/>
<text text-anchor="middle" x="446" y="-99.8" font-family="Times,serif" font-size="14.00" fill="#000000">MarketplaceSearchComponent</text>
</g>
<!-- MarketplaceSearchModule -->
<g id="node2" class="node">
<title>MarketplaceSearchModule</title>
<polygon fill="#8dd3c7" stroke="#000000" points="348.5967,-187 345.5967,-191 324.5967,-191 321.5967,-187 181.4033,-187 181.4033,-151 348.5967,-151 348.5967,-187"/>
<text text-anchor="middle" x="265" y="-164.8" font-family="Times,serif" font-size="14.00" fill="#000000">MarketplaceSearchModule</text>
</g>
<!-- MarketplaceSearchComponent&#45;&gt;MarketplaceSearchModule -->
<g id="edge1" class="edge">
<title>MarketplaceSearchComponent&#45;&gt;MarketplaceSearchModule</title>
<path fill="none" stroke="#000000" d="M351.0033,-104C342.9079,-104 337.7269,-104 337.7269,-104 337.7269,-104 337.7269,-140.8939 337.7269,-140.8939"/>
<polygon fill="#000000" stroke="#000000" points="334.227,-140.8938 337.7269,-150.8939 341.227,-140.8939 334.227,-140.8938"/>
</g>
<!-- MovieCardModule -->
<g id="node3" class="node">
<title>MovieCardModule</title>
<polygon fill="#8dd3c7" stroke="#000000" points="326.8118,-122 323.8118,-126 302.8118,-126 299.8118,-122 203.1882,-122 203.1882,-86 326.8118,-86 326.8118,-122"/>
<text text-anchor="middle" x="265" y="-99.8" font-family="Times,serif" font-size="14.00" fill="#000000">MovieCardModule</text>
</g>
<!-- MovieCardModule&#45;&gt;MarketplaceSearchModule -->
<g id="edge2" class="edge">
<title>MovieCardModule&#45;&gt;MarketplaceSearchModule</title>
<path fill="none" stroke="#000000" d="M265,-122.1061C265,-122.1061 265,-140.991 265,-140.991"/>
<polygon fill="#000000" stroke="#000000" points="261.5001,-140.9909 265,-150.991 268.5001,-140.991 261.5001,-140.9909"/>
</g>
<!-- MovieDisplayListModule -->
<g id="node4" class="node">
<title>MovieDisplayListModule</title>
<polygon fill="#8dd3c7" stroke="#000000" points="185.9256,-122 182.9256,-126 161.9256,-126 158.9256,-122 24.0744,-122 24.0744,-86 185.9256,-86 185.9256,-122"/>
<text text-anchor="middle" x="105" y="-99.8" font-family="Times,serif" font-size="14.00" fill="#000000">MovieDisplayListModule</text>
</g>
<!-- MovieDisplayListModule&#45;&gt;MarketplaceSearchModule -->
<g id="edge3" class="edge">
<title>MovieDisplayListModule&#45;&gt;MarketplaceSearchModule</title>
<path fill="none" stroke="#000000" d="M185.944,-104C191.2484,-104 194.5284,-104 194.5284,-104 194.5284,-104 194.5284,-140.8939 194.5284,-140.8939"/>
<polygon fill="#000000" stroke="#000000" points="191.0285,-140.8938 194.5284,-150.8939 198.0285,-140.8939 191.0285,-140.8938"/>
</g>
</g>
</svg>
