<?xml version="1.0" encoding="UTF-8" standalone="no"?>
<!DOCTYPE svg PUBLIC "-//W3C//DTD SVG 1.1//EN"
 "http://www.w3.org/Graphics/SVG/1.1/DTD/svg11.dtd">
<!-- Generated by graphviz version 2.40.1 (20161225.0304)
 -->
<!-- Title: dependencies Pages: 1 -->
<svg width="3645pt" height="211pt"
 viewBox="0.00 0.00 3645.00 211.00" xmlns="http://www.w3.org/2000/svg" xmlns:xlink="http://www.w3.org/1999/xlink">
<g id="graph0" class="graph" transform="scale(1 1) rotate(0) translate(4 207)">
<title>dependencies</title>
<polygon fill="#ffffff" stroke="transparent" points="-4,4 -4,-207 3641,-207 3641,4 -4,4"/>
<text text-anchor="start" x="1797.5091" y="-42.4" font-family="sans-serif" font-weight="bold" font-size="14.00" fill="#000000">Legend</text>
<polygon fill="#ffffb3" stroke="transparent" points="1584.5,-10 1584.5,-30 1604.5,-30 1604.5,-10 1584.5,-10"/>
<text text-anchor="start" x="1608.129" y="-15.4" font-family="sans-serif" font-size="14.00" fill="#000000"> &#160;Declarations</text>
<polygon fill="#8dd3c7" stroke="transparent" points="1697.5,-10 1697.5,-30 1717.5,-30 1717.5,-10 1697.5,-10"/>
<text text-anchor="start" x="1721.2251" y="-15.4" font-family="sans-serif" font-size="14.00" fill="#000000"> &#160;Module</text>
<polygon fill="#80b1d3" stroke="transparent" points="1783.5,-10 1783.5,-30 1803.5,-30 1803.5,-10 1783.5,-10"/>
<text text-anchor="start" x="1807.2812" y="-15.4" font-family="sans-serif" font-size="14.00" fill="#000000"> &#160;Bootstrap</text>
<polygon fill="#fdb462" stroke="transparent" points="1880.5,-10 1880.5,-30 1900.5,-30 1900.5,-10 1880.5,-10"/>
<text text-anchor="start" x="1904.1732" y="-15.4" font-family="sans-serif" font-size="14.00" fill="#000000"> &#160;Providers</text>
<polygon fill="#fb8072" stroke="transparent" points="1976.5,-10 1976.5,-30 1996.5,-30 1996.5,-10 1976.5,-10"/>
<text text-anchor="start" x="2000.2258" y="-15.4" font-family="sans-serif" font-size="14.00" fill="#000000"> &#160;Exports</text>
<g id="clust1" class="cluster">
<title>cluster_MarketplaceSearchModule</title>
<polygon fill="none" stroke="#000000" stroke-dasharray="1,5" points="8,-70 8,-195 3629,-195 3629,-70 8,-70"/>
</g>
<g id="clust2" class="cluster">
<title>cluster_MarketplaceSearchModule_declarations</title>
<polygon fill="none" stroke="#000000" points="3415,-78 3415,-130 3621,-130 3621,-78 3415,-78"/>
</g>
<g id="clust4" class="cluster">
<title>cluster_MarketplaceSearchModule_imports</title>
<polygon fill="none" stroke="#000000" points="16,-78 16,-130 3407,-130 3407,-78 16,-78"/>
</g>
<!-- MarketplaceSearchComponent -->
<g id="node1" class="node">
<title>MarketplaceSearchComponent</title>
<polygon fill="#ffffb3" stroke="#000000" points="3612.8792,-122 3423.1208,-122 3423.1208,-86 3612.8792,-86 3612.8792,-122"/>
<text text-anchor="middle" x="3518" y="-99.8" font-family="Times,serif" font-size="14.00" fill="#000000">MarketplaceSearchComponent</text>
</g>
<!-- MarketplaceSearchModule -->
<g id="node2" class="node">
<title>MarketplaceSearchModule</title>
<polygon fill="#8dd3c7" stroke="#000000" points="1910.5967,-187 1907.5967,-191 1886.5967,-191 1883.5967,-187 1743.4033,-187 1743.4033,-151 1910.5967,-151 1910.5967,-187"/>
<text text-anchor="middle" x="1827" y="-164.8" font-family="Times,serif" font-size="14.00" fill="#000000">MarketplaceSearchModule</text>
</g>
<!-- MarketplaceSearchComponent&#45;&gt;MarketplaceSearchModule -->
<g id="edge1" class="edge">
<title>MarketplaceSearchComponent&#45;&gt;MarketplaceSearchModule</title>
<path fill="none" stroke="#000000" d="M3518,-122.1532C3518,-145.7566 3518,-184 3518,-184 3518,-184 1920.857,-184 1920.857,-184"/>
<polygon fill="#000000" stroke="#000000" points="1920.857,-180.5001 1910.857,-184 1920.8569,-187.5001 1920.857,-180.5001"/>
</g>
<!-- CommonModule -->
<g id="node3" class="node">
<title>CommonModule</title>
<polygon fill="#8dd3c7" stroke="#000000" points="3398.6681,-122 3395.6681,-126 3374.6681,-126 3371.6681,-122 3287.3319,-122 3287.3319,-86 3398.6681,-86 3398.6681,-122"/>
<text text-anchor="middle" x="3343" y="-99.8" font-family="Times,serif" font-size="14.00" fill="#000000">CommonModule</text>
</g>
<!-- CommonModule&#45;&gt;MarketplaceSearchModule -->
<g id="edge2" class="edge">
<title>CommonModule&#45;&gt;MarketplaceSearchModule</title>
<path fill="none" stroke="#000000" d="M3343,-122.0908C3343,-145.1328 3343,-182 3343,-182 3343,-182 1920.6662,-182 1920.6662,-182"/>
<polygon fill="#000000" stroke="#000000" points="1920.6662,-178.5001 1910.6662,-182 1920.6661,-185.5001 1920.6662,-178.5001"/>
</g>
<!-- FlexLayoutModule -->
<g id="node4" class="node">
<title>FlexLayoutModule</title>
<polygon fill="#8dd3c7" stroke="#000000" points="3269.0954,-122 3266.0954,-126 3245.0954,-126 3242.0954,-122 3144.9046,-122 3144.9046,-86 3269.0954,-86 3269.0954,-122"/>
<text text-anchor="middle" x="3207" y="-99.8" font-family="Times,serif" font-size="14.00" fill="#000000">FlexLayoutModule</text>
</g>
<!-- FlexLayoutModule&#45;&gt;MarketplaceSearchModule -->
<g id="edge3" class="edge">
<title>FlexLayoutModule&#45;&gt;MarketplaceSearchModule</title>
<path fill="none" stroke="#000000" d="M3207,-122.2921C3207,-144.2057 3207,-178 3207,-178 3207,-178 1920.7319,-178 1920.7319,-178"/>
<polygon fill="#000000" stroke="#000000" points="1920.732,-174.5001 1910.7319,-178 1920.7319,-181.5001 1920.732,-174.5001"/>
</g>
<!-- ReactiveFormsModule -->
<g id="node5" class="node">
<title>ReactiveFormsModule</title>
<polygon fill="#8dd3c7" stroke="#000000" points="3127.3047,-122 3124.3047,-126 3103.3047,-126 3100.3047,-122 2982.6953,-122 2982.6953,-86 3127.3047,-86 3127.3047,-122"/>
<text text-anchor="middle" x="3055" y="-99.8" font-family="Times,serif" font-size="14.00" fill="#000000">ReactiveFormsModule</text>
</g>
<!-- ReactiveFormsModule&#45;&gt;MarketplaceSearchModule -->
<g id="edge4" class="edge">
<title>ReactiveFormsModule&#45;&gt;MarketplaceSearchModule</title>
<path fill="none" stroke="#000000" d="M3055,-122.2843C3055,-143.3211 3055,-175 3055,-175 3055,-175 1920.9221,-175 1920.9221,-175"/>
<polygon fill="#000000" stroke="#000000" points="1920.9221,-171.5001 1910.9221,-175 1920.9221,-178.5001 1920.9221,-171.5001"/>
</g>
<!-- HttpClientModule -->
<g id="node6" class="node">
<title>HttpClientModule</title>
<polygon fill="#8dd3c7" stroke="#000000" points="2965.1611,-122 2962.1611,-126 2941.1611,-126 2938.1611,-122 2846.8389,-122 2846.8389,-86 2965.1611,-86 2965.1611,-122"/>
<text text-anchor="middle" x="2906" y="-99.8" font-family="Times,serif" font-size="14.00" fill="#000000">HttpClientModule</text>
</g>
<!-- HttpClientModule&#45;&gt;MarketplaceSearchModule -->
<g id="edge5" class="edge">
<title>HttpClientModule&#45;&gt;MarketplaceSearchModule</title>
<path fill="none" stroke="#000000" d="M2906,-122.2228C2906,-142.3652 2906,-172 2906,-172 2906,-172 1920.7695,-172 1920.7695,-172"/>
<polygon fill="#000000" stroke="#000000" points="1920.7695,-168.5001 1910.7695,-172 1920.7694,-175.5001 1920.7695,-168.5001"/>
</g>
<!-- MovieCardModule -->
<g id="node7" class="node">
<title>MovieCardModule</title>
<polygon fill="#8dd3c7" stroke="#000000" points="2828.8118,-122 2825.8118,-126 2804.8118,-126 2801.8118,-122 2705.1882,-122 2705.1882,-86 2828.8118,-86 2828.8118,-122"/>
<text text-anchor="middle" x="2767" y="-99.8" font-family="Times,serif" font-size="14.00" fill="#000000">MovieCardModule</text>
</g>
<!-- MovieCardModule&#45;&gt;MarketplaceSearchModule -->
<g id="edge6" class="edge">
<title>MovieCardModule&#45;&gt;MarketplaceSearchModule</title>
<path fill="none" stroke="#000000" d="M2767,-122.1061C2767,-141.3391 2767,-169 2767,-169 2767,-169 1920.8319,-169 1920.8319,-169"/>
<polygon fill="#000000" stroke="#000000" points="1920.832,-165.5001 1910.8319,-169 1920.8319,-172.5001 1920.832,-165.5001"/>
</g>
<!-- MovieDisplayListModule -->
<g id="node8" class="node">
<title>MovieDisplayListModule</title>
<polygon fill="#8dd3c7" stroke="#000000" points="2687.9256,-122 2684.9256,-126 2663.9256,-126 2660.9256,-122 2526.0744,-122 2526.0744,-86 2687.9256,-86 2687.9256,-122"/>
<text text-anchor="middle" x="2607" y="-99.8" font-family="Times,serif" font-size="14.00" fill="#000000">MovieDisplayListModule</text>
</g>
<!-- MovieDisplayListModule&#45;&gt;MarketplaceSearchModule -->
<g id="edge7" class="edge">
<title>MovieDisplayListModule&#45;&gt;MarketplaceSearchModule</title>
<path fill="none" stroke="#000000" d="M2607,-122.2222C2607,-140.8285 2607,-167 2607,-167 2607,-167 1920.8439,-167 1920.8439,-167"/>
<polygon fill="#000000" stroke="#000000" points="1920.8439,-163.5001 1910.8439,-167 1920.8438,-170.5001 1920.8439,-163.5001"/>
</g>
<!-- MatIconModule -->
<g id="node9" class="node">
<title>MatIconModule</title>
<polygon fill="#8dd3c7" stroke="#000000" points="2508.4748,-122 2505.4748,-126 2484.4748,-126 2481.4748,-122 2401.5252,-122 2401.5252,-86 2508.4748,-86 2508.4748,-122"/>
<text text-anchor="middle" x="2455" y="-99.8" font-family="Times,serif" font-size="14.00" fill="#000000">MatIconModule</text>
</g>
<!-- MatIconModule&#45;&gt;MarketplaceSearchModule -->
<g id="edge8" class="edge">
<title>MatIconModule&#45;&gt;MarketplaceSearchModule</title>
<path fill="none" stroke="#000000" d="M2455,-122.0225C2455,-139.3734 2455,-163 2455,-163 2455,-163 1920.7182,-163 1920.7182,-163"/>
<polygon fill="#000000" stroke="#000000" points="1920.7182,-159.5001 1910.7182,-163 1920.7181,-166.5001 1920.7182,-159.5001"/>
</g>
<!-- MatDividerModule -->
<g id="node10" class="node">
<title>MatDividerModule</title>
<polygon fill="#8dd3c7" stroke="#000000" points="2383.3627,-122 2380.3627,-126 2359.3627,-126 2356.3627,-122 2258.6373,-122 2258.6373,-86 2383.3627,-86 2383.3627,-122"/>
<text text-anchor="middle" x="2321" y="-99.8" font-family="Times,serif" font-size="14.00" fill="#000000">MatDividerModule</text>
</g>
<!-- MatDividerModule&#45;&gt;MarketplaceSearchModule -->
<g id="edge9" class="edge">
<title>MatDividerModule&#45;&gt;MarketplaceSearchModule</title>
<path fill="none" stroke="#000000" d="M2321,-122.027C2321,-138.3976 2321,-160 2321,-160 2321,-160 1920.8004,-160 1920.8004,-160"/>
<polygon fill="#000000" stroke="#000000" points="1920.8004,-156.5001 1910.8004,-160 1920.8003,-163.5001 1920.8004,-156.5001"/>
</g>
<!-- MatMenuModule -->
<g id="node11" class="node">
<title>MatMenuModule</title>
<polygon fill="#8dd3c7" stroke="#000000" points="2240.2591,-122 2237.2591,-126 2216.2591,-126 2213.2591,-122 2125.7409,-122 2125.7409,-86 2240.2591,-86 2240.2591,-122"/>
<text text-anchor="middle" x="2183" y="-99.8" font-family="Times,serif" font-size="14.00" fill="#000000">MatMenuModule</text>
</g>
<!-- MatMenuModule&#45;&gt;MarketplaceSearchModule -->
<g id="edge10" class="edge">
<title>MatMenuModule&#45;&gt;MarketplaceSearchModule</title>
<path fill="none" stroke="#000000" d="M2183,-122.2396C2183,-137.5706 2183,-157 2183,-157 2183,-157 1920.9162,-157 1920.9162,-157"/>
<polygon fill="#000000" stroke="#000000" points="1920.9163,-153.5001 1910.9162,-157 1920.9162,-160.5001 1920.9163,-153.5001"/>
</g>
<!-- MatButtonModule -->
<g id="node12" class="node">
<title>MatButtonModule</title>
<polygon fill="#8dd3c7" stroke="#000000" points="2108.2176,-122 2105.2176,-126 2084.2176,-126 2081.2176,-122 1987.7824,-122 1987.7824,-86 2108.2176,-86 2108.2176,-122"/>
<text text-anchor="middle" x="2048" y="-99.8" font-family="Times,serif" font-size="14.00" fill="#000000">MatButtonModule</text>
</g>
<!-- MatButtonModule&#45;&gt;MarketplaceSearchModule -->
<g id="edge11" class="edge">
<title>MatButtonModule&#45;&gt;MarketplaceSearchModule</title>
<path fill="none" stroke="#000000" d="M2048,-122.0511C2048,-136.373 2048,-154 2048,-154 2048,-154 1920.8657,-154 1920.8657,-154"/>
<polygon fill="#000000" stroke="#000000" points="1920.8658,-150.5001 1910.8657,-154 1920.8657,-157.5001 1920.8658,-150.5001"/>
</g>
<!-- MatFormFieldModule -->
<g id="node13" class="node">
<title>MatFormFieldModule</title>
<polygon fill="#8dd3c7" stroke="#000000" points="1969.712,-122 1966.712,-126 1945.712,-126 1942.712,-122 1828.288,-122 1828.288,-86 1969.712,-86 1969.712,-122"/>
<text text-anchor="middle" x="1899" y="-99.8" font-family="Times,serif" font-size="14.00" fill="#000000">MatFormFieldModule</text>
</g>
<!-- MatFormFieldModule&#45;&gt;MarketplaceSearchModule -->
<g id="edge12" class="edge">
<title>MatFormFieldModule&#45;&gt;MarketplaceSearchModule</title>
<path fill="none" stroke="#000000" d="M1869.5961,-122.1061C1869.5961,-122.1061 1869.5961,-140.991 1869.5961,-140.991"/>
<polygon fill="#000000" stroke="#000000" points="1866.0962,-140.9909 1869.5961,-150.991 1873.0962,-140.991 1866.0962,-140.9909"/>
</g>
<!-- MatInputModule -->
<g id="node14" class="node">
<title>MatInputModule</title>
<polygon fill="#8dd3c7" stroke="#000000" points="1810.6513,-122 1807.6513,-126 1786.6513,-126 1783.6513,-122 1699.3487,-122 1699.3487,-86 1810.6513,-86 1810.6513,-122"/>
<text text-anchor="middle" x="1755" y="-99.8" font-family="Times,serif" font-size="14.00" fill="#000000">MatInputModule</text>
</g>
<!-- MatInputModule&#45;&gt;MarketplaceSearchModule -->
<g id="edge13" class="edge">
<title>MatInputModule&#45;&gt;MarketplaceSearchModule</title>
<path fill="none" stroke="#000000" d="M1777.0137,-122.1061C1777.0137,-122.1061 1777.0137,-140.991 1777.0137,-140.991"/>
<polygon fill="#000000" stroke="#000000" points="1773.5137,-140.9909 1777.0137,-150.991 1780.5137,-140.991 1773.5137,-140.9909"/>
</g>
<!-- MatExpansionModule -->
<g id="node15" class="node">
<title>MatExpansionModule</title>
<polygon fill="#8dd3c7" stroke="#000000" points="1681.7021,-122 1678.7021,-126 1657.7021,-126 1654.7021,-122 1540.2979,-122 1540.2979,-86 1681.7021,-86 1681.7021,-122"/>
<text text-anchor="middle" x="1611" y="-99.8" font-family="Times,serif" font-size="14.00" fill="#000000">MatExpansionModule</text>
</g>
<!-- MatExpansionModule&#45;&gt;MarketplaceSearchModule -->
<g id="edge14" class="edge">
<title>MatExpansionModule&#45;&gt;MarketplaceSearchModule</title>
<path fill="none" stroke="#000000" d="M1611,-122.0511C1611,-136.373 1611,-154 1611,-154 1611,-154 1733.1796,-154 1733.1796,-154"/>
<polygon fill="#000000" stroke="#000000" points="1733.1796,-157.5001 1743.1796,-154 1733.1796,-150.5001 1733.1796,-157.5001"/>
</g>
<!-- MatCheckboxModule -->
<g id="node16" class="node">
<title>MatCheckboxModule</title>
<polygon fill="#8dd3c7" stroke="#000000" points="1522.3655,-122 1519.3655,-126 1498.3655,-126 1495.3655,-122 1383.6345,-122 1383.6345,-86 1522.3655,-86 1522.3655,-122"/>
<text text-anchor="middle" x="1453" y="-99.8" font-family="Times,serif" font-size="14.00" fill="#000000">MatCheckboxModule</text>
</g>
<!-- MatCheckboxModule&#45;&gt;MarketplaceSearchModule -->
<g id="edge15" class="edge">
<title>MatCheckboxModule&#45;&gt;MarketplaceSearchModule</title>
<path fill="none" stroke="#000000" d="M1453,-122.2396C1453,-137.5706 1453,-157 1453,-157 1453,-157 1733.0671,-157 1733.0671,-157"/>
<polygon fill="#000000" stroke="#000000" points="1733.0671,-160.5001 1743.0671,-157 1733.0671,-153.5001 1733.0671,-160.5001"/>
</g>
<!-- MatAutocompleteModule -->
<g id="node17" class="node">
<title>MatAutocompleteModule</title>
<polygon fill="#8dd3c7" stroke="#000000" points="1365.9129,-122 1362.9129,-126 1341.9129,-126 1338.9129,-122 1204.0871,-122 1204.0871,-86 1365.9129,-86 1365.9129,-122"/>
<text text-anchor="middle" x="1285" y="-99.8" font-family="Times,serif" font-size="14.00" fill="#000000">MatAutocompleteModule</text>
</g>
<!-- MatAutocompleteModule&#45;&gt;MarketplaceSearchModule -->
<g id="edge16" class="edge">
<title>MatAutocompleteModule&#45;&gt;MarketplaceSearchModule</title>
<path fill="none" stroke="#000000" d="M1285,-122.027C1285,-138.3976 1285,-160 1285,-160 1285,-160 1733.2039,-160 1733.2039,-160"/>
<polygon fill="#000000" stroke="#000000" points="1733.204,-163.5001 1743.2039,-160 1733.2039,-156.5001 1733.204,-163.5001"/>
</g>
<!-- MatListModule -->
<g id="node18" class="node">
<title>MatListModule</title>
<polygon fill="#8dd3c7" stroke="#000000" points="1185.8781,-122 1182.8781,-126 1161.8781,-126 1158.8781,-122 1082.1219,-122 1082.1219,-86 1185.8781,-86 1185.8781,-122"/>
<text text-anchor="middle" x="1134" y="-99.8" font-family="Times,serif" font-size="14.00" fill="#000000">MatListModule</text>
</g>
<!-- MatListModule&#45;&gt;MarketplaceSearchModule -->
<g id="edge17" class="edge">
<title>MatListModule&#45;&gt;MarketplaceSearchModule</title>
<path fill="none" stroke="#000000" d="M1134,-122.0225C1134,-139.3734 1134,-163 1134,-163 1134,-163 1733.063,-163 1733.063,-163"/>
<polygon fill="#000000" stroke="#000000" points="1733.063,-166.5001 1743.063,-163 1733.063,-159.5001 1733.063,-166.5001"/>
</g>
<!-- MatChipsModule -->
<g id="node19" class="node">
<title>MatChipsModule</title>
<polygon fill="#8dd3c7" stroke="#000000" points="1064.2716,-122 1061.2716,-126 1040.2716,-126 1037.2716,-122 949.7284,-122 949.7284,-86 1064.2716,-86 1064.2716,-122"/>
<text text-anchor="middle" x="1007" y="-99.8" font-family="Times,serif" font-size="14.00" fill="#000000">MatChipsModule</text>
</g>
<!-- MatChipsModule&#45;&gt;MarketplaceSearchModule -->
<g id="edge18" class="edge">
<title>MatChipsModule&#45;&gt;MarketplaceSearchModule</title>
<path fill="none" stroke="#000000" d="M1007,-122.2222C1007,-140.8285 1007,-167 1007,-167 1007,-167 1733.0992,-167 1733.0992,-167"/>
<polygon fill="#000000" stroke="#000000" points="1733.0992,-170.5001 1743.0992,-167 1733.0991,-163.5001 1733.0992,-170.5001"/>
</g>
<!-- MatNativeDateModule -->
<g id="node20" class="node">
<title>MatNativeDateModule</title>
<polygon fill="#8dd3c7" stroke="#000000" points="931.8431,-122 928.8431,-126 907.8431,-126 904.8431,-122 786.1569,-122 786.1569,-86 931.8431,-86 931.8431,-122"/>
<text text-anchor="middle" x="859" y="-99.8" font-family="Times,serif" font-size="14.00" fill="#000000">MatNativeDateModule</text>
</g>
<!-- MatNativeDateModule&#45;&gt;MarketplaceSearchModule -->
<g id="edge19" class="edge">
<title>MatNativeDateModule&#45;&gt;MarketplaceSearchModule</title>
<path fill="none" stroke="#000000" d="M859,-122.1061C859,-141.3391 859,-169 859,-169 859,-169 1733.2108,-169 1733.2108,-169"/>
<polygon fill="#000000" stroke="#000000" points="1733.2109,-172.5001 1743.2108,-169 1733.2108,-165.5001 1733.2109,-172.5001"/>
</g>
<!-- MatCardModule -->
<g id="node21" class="node">
<title>MatCardModule</title>
<polygon fill="#8dd3c7" stroke="#000000" points="767.8118,-122 764.8118,-126 743.8118,-126 740.8118,-122 658.1882,-122 658.1882,-86 767.8118,-86 767.8118,-122"/>
<text text-anchor="middle" x="713" y="-99.8" font-family="Times,serif" font-size="14.00" fill="#000000">MatCardModule</text>
</g>
<!-- MatCardModule&#45;&gt;MarketplaceSearchModule -->
<g id="edge20" class="edge">
<title>MatCardModule&#45;&gt;MarketplaceSearchModule</title>
<path fill="none" stroke="#000000" d="M713,-122.2228C713,-142.3652 713,-172 713,-172 713,-172 1733.2689,-172 1733.2689,-172"/>
<polygon fill="#000000" stroke="#000000" points="1733.269,-175.5001 1743.2689,-172 1733.2689,-168.5001 1733.269,-175.5001"/>
</g>
<!-- MatSelectModule -->
<g id="node22" class="node">
<title>MatSelectModule</title>
<polygon fill="#8dd3c7" stroke="#000000" points="640.3076,-122 637.3076,-126 616.3076,-126 613.3076,-122 523.6924,-122 523.6924,-86 640.3076,-86 640.3076,-122"/>
<text text-anchor="middle" x="582" y="-99.8" font-family="Times,serif" font-size="14.00" fill="#000000">MatSelectModule</text>
</g>
<!-- MatSelectModule&#45;&gt;MarketplaceSearchModule -->
<g id="edge21" class="edge">
<title>MatSelectModule&#45;&gt;MarketplaceSearchModule</title>
<path fill="none" stroke="#000000" d="M582,-122.2843C582,-143.3211 582,-175 582,-175 582,-175 1733.3788,-175 1733.3788,-175"/>
<polygon fill="#000000" stroke="#000000" points="1733.3789,-178.5001 1743.3788,-175 1733.3788,-171.5001 1733.3789,-178.5001"/>
</g>
<!-- MatDatepickerModule -->
<g id="node23" class="node">
<title>MatDatepickerModule</title>
<polygon fill="#8dd3c7" stroke="#000000" points="505.5072,-122 502.5072,-126 481.5072,-126 478.5072,-122 362.4928,-122 362.4928,-86 505.5072,-86 505.5072,-122"/>
<text text-anchor="middle" x="434" y="-99.8" font-family="Times,serif" font-size="14.00" fill="#000000">MatDatepickerModule</text>
</g>
<!-- MatDatepickerModule&#45;&gt;MarketplaceSearchModule -->
<g id="edge22" class="edge">
<title>MatDatepickerModule&#45;&gt;MarketplaceSearchModule</title>
<path fill="none" stroke="#000000" d="M434,-122.2921C434,-144.2057 434,-178 434,-178 434,-178 1733.2578,-178 1733.2578,-178"/>
<polygon fill="#000000" stroke="#000000" points="1733.2578,-181.5001 1743.2578,-178 1733.2578,-174.5001 1733.2578,-181.5001"/>
</g>
<!-- MatOptionModule -->
<g id="node24" class="node">
<title>MatOptionModule</title>
<polygon fill="#8dd3c7" stroke="#000000" points="344.4874,-122 341.4874,-126 320.4874,-126 317.4874,-122 223.5126,-122 223.5126,-86 344.4874,-86 344.4874,-122"/>
<text text-anchor="middle" x="284" y="-99.8" font-family="Times,serif" font-size="14.00" fill="#000000">MatOptionModule</text>
</g>
<!-- MatOptionModule&#45;&gt;MarketplaceSearchModule -->
<g id="edge23" class="edge">
<title>MatOptionModule&#45;&gt;MarketplaceSearchModule</title>
<path fill="none" stroke="#000000" d="M284,-122.0908C284,-145.1328 284,-182 284,-182 284,-182 1733.2204,-182 1733.2204,-182"/>
<polygon fill="#000000" stroke="#000000" points="1733.2204,-185.5001 1743.2204,-182 1733.2203,-178.5001 1733.2204,-185.5001"/>
</g>
<!-- RouterModule.forChild(args) -->
<g id="node25" class="node">
<title>RouterModule.forChild(args)</title>
<polygon fill="#8dd3c7" stroke="#000000" points="205.7323,-122 202.7323,-126 181.7323,-126 178.7323,-122 24.2677,-122 24.2677,-86 205.7323,-86 205.7323,-122"/>
<text text-anchor="middle" x="115" y="-99.8" font-family="Times,serif" font-size="14.00" fill="#000000">RouterModule.forChild(args)</text>
</g>
<!-- RouterModule.forChild(args)&#45;&gt;MarketplaceSearchModule -->
<g id="edge24" class="edge">
<title>RouterModule.forChild(args)&#45;&gt;MarketplaceSearchModule</title>
<path fill="none" stroke="#000000" d="M115,-122.1532C115,-145.7566 115,-184 115,-184 115,-184 1733.2678,-184 1733.2678,-184"/>
<polygon fill="#000000" stroke="#000000" points="1733.2678,-187.5001 1743.2678,-184 1733.2677,-180.5001 1733.2678,-187.5001"/>
</g>
</g>
</svg>
