<?xml version="1.0" encoding="UTF-8" standalone="no"?>
<!DOCTYPE svg PUBLIC "-//W3C//DTD SVG 1.1//EN"
 "http://www.w3.org/Graphics/SVG/1.1/DTD/svg11.dtd">
<!-- Generated by graphviz version 2.40.1 (20161225.0304)
 -->
<!-- Title: dependencies Pages: 1 -->
<svg width="2244pt" height="284pt"
 viewBox="0.00 0.00 2244.00 284.00" xmlns="http://www.w3.org/2000/svg" xmlns:xlink="http://www.w3.org/1999/xlink">
<g id="graph0" class="graph" transform="scale(1 1) rotate(0) translate(4 280)">
<title>dependencies</title>
<polygon fill="#ffffff" stroke="transparent" points="-4,4 -4,-280 2240,-280 2240,4 -4,4"/>
<text text-anchor="start" x="1097.0091" y="-42.4" font-family="sans-serif" font-weight="bold" font-size="14.00" fill="#000000">Legend</text>
<polygon fill="#ffffb3" stroke="transparent" points="884,-10 884,-30 904,-30 904,-10 884,-10"/>
<text text-anchor="start" x="907.629" y="-15.4" font-family="sans-serif" font-size="14.00" fill="#000000"> &#160;Declarations</text>
<polygon fill="#8dd3c7" stroke="transparent" points="997,-10 997,-30 1017,-30 1017,-10 997,-10"/>
<text text-anchor="start" x="1020.7251" y="-15.4" font-family="sans-serif" font-size="14.00" fill="#000000"> &#160;Module</text>
<polygon fill="#80b1d3" stroke="transparent" points="1083,-10 1083,-30 1103,-30 1103,-10 1083,-10"/>
<text text-anchor="start" x="1106.7812" y="-15.4" font-family="sans-serif" font-size="14.00" fill="#000000"> &#160;Bootstrap</text>
<polygon fill="#fdb462" stroke="transparent" points="1180,-10 1180,-30 1200,-30 1200,-10 1180,-10"/>
<text text-anchor="start" x="1203.6732" y="-15.4" font-family="sans-serif" font-size="14.00" fill="#000000"> &#160;Providers</text>
<polygon fill="#fb8072" stroke="transparent" points="1276,-10 1276,-30 1296,-30 1296,-10 1276,-10"/>
<text text-anchor="start" x="1299.7258" y="-15.4" font-family="sans-serif" font-size="14.00" fill="#000000"> &#160;Exports</text>
<g id="clust1" class="cluster">
<title>cluster_MovieDisplayModule</title>
<polygon fill="none" stroke="#000000" stroke-dasharray="1,5" points="8,-70 8,-268 2228,-268 2228,-70 8,-70"/>
</g>
<g id="clust2" class="cluster">
<title>cluster_MovieDisplayModule_declarations</title>
<polygon fill="none" stroke="#000000" points="16,-78 16,-130 2220,-130 2220,-78 16,-78"/>
</g>
<g id="clust13" class="cluster">
<title>cluster_MovieDisplayModule_exports</title>
<polygon fill="none" stroke="#000000" points="1021,-208 1021,-260 1201,-260 1201,-208 1021,-208"/>
</g>
<!-- MovieDisplayComponent -->
<g id="node1" class="node">
<title>MovieDisplayComponent</title>
<polygon fill="#ffffb3" stroke="#000000" points="2211.9298,-122 2050.0702,-122 2050.0702,-86 2211.9298,-86 2211.9298,-122"/>
<text text-anchor="middle" x="2131" y="-99.8" font-family="Times,serif" font-size="14.00" fill="#000000">MovieDisplayComponent</text>
</g>
<!-- MovieDisplayModule -->
<g id="node10" class="node">
<title>MovieDisplayModule</title>
<polygon fill="#8dd3c7" stroke="#000000" points="1180.647,-187 1177.647,-191 1156.647,-191 1153.647,-187 1041.353,-187 1041.353,-151 1180.647,-151 1180.647,-187"/>
<text text-anchor="middle" x="1111" y="-164.8" font-family="Times,serif" font-size="14.00" fill="#000000">MovieDisplayModule</text>
</g>
<!-- MovieDisplayComponent&#45;&gt;MovieDisplayModule -->
<g id="edge1" class="edge">
<title>MovieDisplayComponent&#45;&gt;MovieDisplayModule</title>
<path fill="none" stroke="#000000" d="M2131,-122.0109C2131,-144.4852 2131,-180 2131,-180 2131,-180 1190.7073,-180 1190.7073,-180"/>
<polygon fill="#000000" stroke="#000000" points="1190.7073,-176.5001 1180.7073,-180 1190.7072,-183.5001 1190.7073,-176.5001"/>
</g>
<!-- MovieDisplayFestivalPrizesComponent -->
<g id="node2" class="node">
<title>MovieDisplayFestivalPrizesComponent</title>
<polygon fill="#ffffb3" stroke="#000000" points="2031.965,-122 1792.035,-122 1792.035,-86 2031.965,-86 2031.965,-122"/>
<text text-anchor="middle" x="1912" y="-99.8" font-family="Times,serif" font-size="14.00" fill="#000000">MovieDisplayFestivalPrizesComponent</text>
</g>
<!-- MovieDisplayFestivalPrizesComponent&#45;&gt;MovieDisplayModule -->
<g id="edge2" class="edge">
<title>MovieDisplayFestivalPrizesComponent&#45;&gt;MovieDisplayModule</title>
<path fill="none" stroke="#000000" d="M1912,-122.1289C1912,-142.5724 1912,-173 1912,-173 1912,-173 1190.6823,-173 1190.6823,-173"/>
<polygon fill="#000000" stroke="#000000" points="1190.6823,-169.5001 1180.6823,-173 1190.6822,-176.5001 1190.6823,-169.5001"/>
</g>
<!-- MovieDisplayMainComponent -->
<g id="node3" class="node">
<title>MovieDisplayMainComponent</title>
<polygon fill="#ffffb3" stroke="#000000" points="1774.479,-122 1583.521,-122 1583.521,-86 1774.479,-86 1774.479,-122"/>
<text text-anchor="middle" x="1679" y="-99.8" font-family="Times,serif" font-size="14.00" fill="#000000">MovieDisplayMainComponent</text>
</g>
<!-- MovieDisplayMainComponent&#45;&gt;MovieDisplayModule -->
<g id="edge3" class="edge">
<title>MovieDisplayMainComponent&#45;&gt;MovieDisplayModule</title>
<path fill="none" stroke="#000000" d="M1679,-122.2667C1679,-140.5552 1679,-166 1679,-166 1679,-166 1190.6479,-166 1190.6479,-166"/>
<polygon fill="#000000" stroke="#000000" points="1190.648,-162.5001 1180.6479,-166 1190.6479,-169.5001 1190.648,-162.5001"/>
</g>
<!-- MovieDisplayPromotionalDescriptionComponent -->
<g id="node4" class="node">
<title>MovieDisplayPromotionalDescriptionComponent</title>
<polygon fill="#ffffb3" stroke="#000000" points="1565.9622,-122 1270.0378,-122 1270.0378,-86 1565.9622,-86 1565.9622,-122"/>
<text text-anchor="middle" x="1418" y="-99.8" font-family="Times,serif" font-size="14.00" fill="#000000">MovieDisplayPromotionalDescriptionComponent</text>
</g>
<!-- MovieDisplayPromotionalDescriptionComponent&#45;&gt;MovieDisplayModule -->
<g id="edge4" class="edge">
<title>MovieDisplayPromotionalDescriptionComponent&#45;&gt;MovieDisplayModule</title>
<path fill="none" stroke="#000000" d="M1418,-122.0091C1418,-138.0494 1418,-159 1418,-159 1418,-159 1190.6631,-159 1190.6631,-159"/>
<polygon fill="#000000" stroke="#000000" points="1190.6631,-155.5001 1180.6631,-159 1190.663,-162.5001 1190.6631,-155.5001"/>
</g>
<!-- MovieDisplayPromotionalElementsComponent -->
<g id="node5" class="node">
<title>MovieDisplayPromotionalElementsComponent</title>
<polygon fill="#ffffb3" stroke="#000000" points="1252.2477,-122 969.7523,-122 969.7523,-86 1252.2477,-86 1252.2477,-122"/>
<text text-anchor="middle" x="1111" y="-99.8" font-family="Times,serif" font-size="14.00" fill="#000000">MovieDisplayPromotionalElementsComponent</text>
</g>
<!-- MovieDisplayPromotionalElementsComponent&#45;&gt;MovieDisplayModule -->
<g id="edge5" class="edge">
<title>MovieDisplayPromotionalElementsComponent&#45;&gt;MovieDisplayModule</title>
<path fill="none" stroke="#000000" d="M1111,-122.1061C1111,-122.1061 1111,-140.991 1111,-140.991"/>
<polygon fill="#000000" stroke="#000000" points="1107.5001,-140.9909 1111,-150.991 1114.5001,-140.991 1107.5001,-140.9909"/>
</g>
<!-- MovieDisplaySalesAgentDealComponent -->
<g id="node6" class="node">
<title>MovieDisplaySalesAgentDealComponent</title>
<polygon fill="#ffffb3" stroke="#000000" points="951.6147,-122 700.3853,-122 700.3853,-86 951.6147,-86 951.6147,-122"/>
<text text-anchor="middle" x="826" y="-99.8" font-family="Times,serif" font-size="14.00" fill="#000000">MovieDisplaySalesAgentDealComponent</text>
</g>
<!-- MovieDisplaySalesAgentDealComponent&#45;&gt;MovieDisplayModule -->
<g id="edge6" class="edge">
<title>MovieDisplaySalesAgentDealComponent&#45;&gt;MovieDisplayModule</title>
<path fill="none" stroke="#000000" d="M826,-122.0091C826,-138.0494 826,-159 826,-159 826,-159 1031.2812,-159 1031.2812,-159"/>
<polygon fill="#000000" stroke="#000000" points="1031.2812,-162.5001 1041.2812,-159 1031.2811,-155.5001 1031.2812,-162.5001"/>
</g>
<!-- MovieDisplaySalesCastComponent -->
<g id="node7" class="node">
<title>MovieDisplaySalesCastComponent</title>
<polygon fill="#ffffb3" stroke="#000000" points="681.8626,-122 466.1374,-122 466.1374,-86 681.8626,-86 681.8626,-122"/>
<text text-anchor="middle" x="574" y="-99.8" font-family="Times,serif" font-size="14.00" fill="#000000">MovieDisplaySalesCastComponent</text>
</g>
<!-- MovieDisplaySalesCastComponent&#45;&gt;MovieDisplayModule -->
<g id="edge7" class="edge">
<title>MovieDisplaySalesCastComponent&#45;&gt;MovieDisplayModule</title>
<path fill="none" stroke="#000000" d="M574,-122.2667C574,-140.5552 574,-166 574,-166 574,-166 1031.3472,-166 1031.3472,-166"/>
<polygon fill="#000000" stroke="#000000" points="1031.3472,-169.5001 1041.3472,-166 1031.3471,-162.5001 1031.3472,-169.5001"/>
</g>
<!-- MovieDisplaySalesInfoComponent -->
<g id="node8" class="node">
<title>MovieDisplaySalesInfoComponent</title>
<polygon fill="#ffffb3" stroke="#000000" points="448.2976,-122 233.7024,-122 233.7024,-86 448.2976,-86 448.2976,-122"/>
<text text-anchor="middle" x="341" y="-99.8" font-family="Times,serif" font-size="14.00" fill="#000000">MovieDisplaySalesInfoComponent</text>
</g>
<!-- MovieDisplaySalesInfoComponent&#45;&gt;MovieDisplayModule -->
<g id="edge8" class="edge">
<title>MovieDisplaySalesInfoComponent&#45;&gt;MovieDisplayModule</title>
<path fill="none" stroke="#000000" d="M341,-122.1289C341,-142.5724 341,-173 341,-173 341,-173 1031.3096,-173 1031.3096,-173"/>
<polygon fill="#000000" stroke="#000000" points="1031.3096,-176.5001 1041.3096,-173 1031.3095,-169.5001 1031.3096,-176.5001"/>
</g>
<!-- MovieDisplayStoryComponent -->
<g id="node9" class="node">
<title>MovieDisplayStoryComponent</title>
<polygon fill="#ffffb3" stroke="#000000" points="215.7631,-122 24.2369,-122 24.2369,-86 215.7631,-86 215.7631,-122"/>
<text text-anchor="middle" x="120" y="-99.8" font-family="Times,serif" font-size="14.00" fill="#000000">MovieDisplayStoryComponent</text>
</g>
<!-- MovieDisplayStoryComponent&#45;&gt;MovieDisplayModule -->
<g id="edge9" class="edge">
<title>MovieDisplayStoryComponent&#45;&gt;MovieDisplayModule</title>
<path fill="none" stroke="#000000" d="M120,-122.0109C120,-144.4852 120,-180 120,-180 120,-180 1031.3148,-180 1031.3148,-180"/>
<polygon fill="#000000" stroke="#000000" points="1031.3148,-183.5001 1041.3148,-180 1031.3148,-176.5001 1031.3148,-183.5001"/>
</g>
<!-- MovieDisplayComponent  -->
<g id="node11" class="node">
<title>MovieDisplayComponent </title>
<polygon fill="#fb8072" stroke="#000000" points="1193.4292,-252 1028.5708,-252 1028.5708,-216 1193.4292,-216 1193.4292,-252"/>
<text text-anchor="middle" x="1111" y="-229.8" font-family="Times,serif" font-size="14.00" fill="#000000">MovieDisplayComponent </text>
</g>
<!-- MovieDisplayModule&#45;&gt;MovieDisplayComponent  -->
<g id="edge10" class="edge">
<title>MovieDisplayModule&#45;&gt;MovieDisplayComponent </title>
<path fill="none" stroke="#000000" stroke-dasharray="5,2" d="M1111,-187.1061C1111,-187.1061 1111,-205.991 1111,-205.991"/>
<polygon fill="#000000" stroke="#000000" points="1107.5001,-205.9909 1111,-215.991 1114.5001,-205.991 1107.5001,-205.9909"/>
</g>
</g>
</svg>
