<?xml version="1.0" encoding="UTF-8" standalone="no"?>
<!DOCTYPE svg PUBLIC "-//W3C//DTD SVG 1.1//EN"
 "http://www.w3.org/Graphics/SVG/1.1/DTD/svg11.dtd">
<!-- Generated by graphviz version 2.40.1 (20161225.0304)
 -->
<!-- Title: dependencies Pages: 1 -->
<svg width="3765pt" height="284pt"
 viewBox="0.00 0.00 3765.00 284.00" xmlns="http://www.w3.org/2000/svg" xmlns:xlink="http://www.w3.org/1999/xlink">
<g id="graph0" class="graph" transform="scale(1 1) rotate(0) translate(4 280)">
<title>dependencies</title>
<polygon fill="#ffffff" stroke="transparent" points="-4,4 -4,-280 3761,-280 3761,4 -4,4"/>
<text text-anchor="start" x="1857.5091" y="-42.4" font-family="sans-serif" font-weight="bold" font-size="14.00" fill="#000000">Legend</text>
<polygon fill="#ffffb3" stroke="transparent" points="1644.5,-10 1644.5,-30 1664.5,-30 1664.5,-10 1644.5,-10"/>
<text text-anchor="start" x="1668.129" y="-15.4" font-family="sans-serif" font-size="14.00" fill="#000000"> &#160;Declarations</text>
<polygon fill="#8dd3c7" stroke="transparent" points="1757.5,-10 1757.5,-30 1777.5,-30 1777.5,-10 1757.5,-10"/>
<text text-anchor="start" x="1781.2251" y="-15.4" font-family="sans-serif" font-size="14.00" fill="#000000"> &#160;Module</text>
<polygon fill="#80b1d3" stroke="transparent" points="1843.5,-10 1843.5,-30 1863.5,-30 1863.5,-10 1843.5,-10"/>
<text text-anchor="start" x="1867.2812" y="-15.4" font-family="sans-serif" font-size="14.00" fill="#000000"> &#160;Bootstrap</text>
<polygon fill="#fdb462" stroke="transparent" points="1940.5,-10 1940.5,-30 1960.5,-30 1960.5,-10 1940.5,-10"/>
<text text-anchor="start" x="1964.1732" y="-15.4" font-family="sans-serif" font-size="14.00" fill="#000000"> &#160;Providers</text>
<polygon fill="#fb8072" stroke="transparent" points="2036.5,-10 2036.5,-30 2056.5,-30 2056.5,-10 2036.5,-10"/>
<text text-anchor="start" x="2060.2258" y="-15.4" font-family="sans-serif" font-size="14.00" fill="#000000"> &#160;Exports</text>
<g id="clust1" class="cluster">
<title>cluster_AppModule</title>
<polygon fill="none" stroke="#000000" stroke-dasharray="1,5" points="8,-70 8,-268 3749,-268 3749,-70 8,-70"/>
</g>
<g id="clust2" class="cluster">
<title>cluster_AppModule_declarations</title>
<polygon fill="none" stroke="#000000" points="3481,-78 3481,-130 3741,-130 3741,-78 3481,-78"/>
</g>
<g id="clust5" class="cluster">
<title>cluster_AppModule_imports</title>
<polygon fill="none" stroke="#000000" points="16,-78 16,-130 3473,-130 3473,-78 16,-78"/>
</g>
<g id="clust7" class="cluster">
<title>cluster_AppModule_bootstrap</title>
<polygon fill="none" stroke="#000000" points="1976,-208 1976,-260 2100,-260 2100,-208 1976,-208"/>
</g>
<!-- AppComponent -->
<g id="node1" class="node">
<title>AppComponent</title>
<polygon fill="#ffffb3" stroke="#000000" points="3732.9399,-122 3627.0601,-122 3627.0601,-86 3732.9399,-86 3732.9399,-122"/>
<text text-anchor="middle" x="3680" y="-99.8" font-family="Times,serif" font-size="14.00" fill="#000000">AppComponent</text>
</g>
<!-- AppModule -->
<g id="node3" class="node">
<title>AppModule</title>
<polygon fill="#8dd3c7" stroke="#000000" points="2079.6571,-187 2076.6571,-191 2055.6571,-191 2052.6571,-187 1996.3429,-187 1996.3429,-151 2079.6571,-151 2079.6571,-187"/>
<text text-anchor="middle" x="2038" y="-164.8" font-family="Times,serif" font-size="14.00" fill="#000000">AppModule</text>
</g>
<!-- AppComponent&#45;&gt;AppModule -->
<g id="edge1" class="edge">
<title>AppComponent&#45;&gt;AppModule</title>
<path fill="none" stroke="#000000" d="M3680,-122.1532C3680,-145.7566 3680,-184 3680,-184 3680,-184 2089.8237,-184 2089.8237,-184"/>
<polygon fill="#000000" stroke="#000000" points="2089.8237,-180.5001 2079.8237,-184 2089.8237,-187.5001 2089.8237,-180.5001"/>
</g>
<!-- LayoutComponent -->
<g id="node2" class="node">
<title>LayoutComponent</title>
<polygon fill="#ffffb3" stroke="#000000" points="3609.4902,-122 3488.5098,-122 3488.5098,-86 3609.4902,-86 3609.4902,-122"/>
<text text-anchor="middle" x="3549" y="-99.8" font-family="Times,serif" font-size="14.00" fill="#000000">LayoutComponent</text>
</g>
<!-- LayoutComponent&#45;&gt;AppModule -->
<g id="edge2" class="edge">
<title>LayoutComponent&#45;&gt;AppModule</title>
<path fill="none" stroke="#000000" d="M3549,-122.2479C3549,-145.0179 3549,-181 3549,-181 3549,-181 2089.9898,-181 2089.9898,-181"/>
<polygon fill="#000000" stroke="#000000" points="2089.9899,-177.5001 2079.9898,-181 2089.9898,-184.5001 2089.9899,-177.5001"/>
</g>
<!-- AppComponent  -->
<g id="node26" class="node">
<title>AppComponent </title>
<polygon fill="#80b1d3" stroke="#000000" points="2092.439,-252 1983.561,-252 1983.561,-216 2092.439,-216 2092.439,-252"/>
<text text-anchor="middle" x="2038" y="-229.8" font-family="Times,serif" font-size="14.00" fill="#000000">AppComponent </text>
</g>
<!-- AppModule&#45;&gt;AppComponent  -->
<g id="edge25" class="edge">
<title>AppModule&#45;&gt;AppComponent </title>
<path fill="none" stroke="#000000" stroke-dasharray="1,5" d="M2038,-187.1061C2038,-187.1061 2038,-205.991 2038,-205.991"/>
<polygon fill="#000000" stroke="#000000" points="2034.5001,-205.9909 2038,-215.991 2041.5001,-205.991 2034.5001,-205.9909"/>
</g>
<!-- BrowserModule -->
<g id="node4" class="node">
<title>BrowserModule</title>
<polygon fill="#8dd3c7" stroke="#000000" points="3465.4734,-122 3462.4734,-126 3441.4734,-126 3438.4734,-122 3358.5266,-122 3358.5266,-86 3465.4734,-86 3465.4734,-122"/>
<text text-anchor="middle" x="3412" y="-99.8" font-family="Times,serif" font-size="14.00" fill="#000000">BrowserModule</text>
</g>
<!-- BrowserModule&#45;&gt;AppModule -->
<g id="edge3" class="edge">
<title>BrowserModule&#45;&gt;AppModule</title>
<path fill="none" stroke="#000000" d="M3412,-122.2921C3412,-144.2057 3412,-178 3412,-178 3412,-178 2089.8713,-178 2089.8713,-178"/>
<polygon fill="#000000" stroke="#000000" points="2089.8714,-174.5001 2079.8713,-178 2089.8713,-181.5001 2089.8714,-174.5001"/>
</g>
<!-- BrowserAnimationsModule -->
<g id="node5" class="node">
<title>BrowserAnimationsModule</title>
<polygon fill="#8dd3c7" stroke="#000000" points="3340.3019,-122 3337.3019,-126 3316.3019,-126 3313.3019,-122 3167.6981,-122 3167.6981,-86 3340.3019,-86 3340.3019,-122"/>
<text text-anchor="middle" x="3254" y="-99.8" font-family="Times,serif" font-size="14.00" fill="#000000">BrowserAnimationsModule</text>
</g>
<!-- BrowserAnimationsModule&#45;&gt;AppModule -->
<g id="edge4" class="edge">
<title>BrowserAnimationsModule&#45;&gt;AppModule</title>
<path fill="none" stroke="#000000" d="M3254,-122.2843C3254,-143.3211 3254,-175 3254,-175 3254,-175 2089.8575,-175 2089.8575,-175"/>
<polygon fill="#000000" stroke="#000000" points="2089.8575,-171.5001 2079.8575,-175 2089.8574,-178.5001 2089.8575,-171.5001"/>
</g>
<!-- AppRoutingModule -->
<g id="node6" class="node">
<title>AppRoutingModule</title>
<polygon fill="#8dd3c7" stroke="#000000" points="3149.2744,-122 3146.2744,-126 3125.2744,-126 3122.2744,-122 3020.7256,-122 3020.7256,-86 3149.2744,-86 3149.2744,-122"/>
<text text-anchor="middle" x="3085" y="-99.8" font-family="Times,serif" font-size="14.00" fill="#000000">AppRoutingModule</text>
</g>
<!-- AppRoutingModule&#45;&gt;AppModule -->
<g id="edge5" class="edge">
<title>AppRoutingModule&#45;&gt;AppModule</title>
<path fill="none" stroke="#000000" d="M3085,-122.2228C3085,-142.3652 3085,-172 3085,-172 3085,-172 2089.6897,-172 2089.6897,-172"/>
<polygon fill="#000000" stroke="#000000" points="2089.6898,-168.5001 2079.6897,-172 2089.6897,-175.5001 2089.6898,-168.5001"/>
</g>
<!-- FlexLayoutModule -->
<g id="node7" class="node">
<title>FlexLayoutModule</title>
<polygon fill="#8dd3c7" stroke="#000000" points="3003.0954,-122 3000.0954,-126 2979.0954,-126 2976.0954,-122 2878.9046,-122 2878.9046,-86 3003.0954,-86 3003.0954,-122"/>
<text text-anchor="middle" x="2941" y="-99.8" font-family="Times,serif" font-size="14.00" fill="#000000">FlexLayoutModule</text>
</g>
<!-- FlexLayoutModule&#45;&gt;AppModule -->
<g id="edge6" class="edge">
<title>FlexLayoutModule&#45;&gt;AppModule</title>
<path fill="none" stroke="#000000" d="M2941,-122.1061C2941,-141.3391 2941,-169 2941,-169 2941,-169 2089.7425,-169 2089.7425,-169"/>
<polygon fill="#000000" stroke="#000000" points="2089.7426,-165.5001 2079.7425,-169 2089.7425,-172.5001 2089.7426,-165.5001"/>
</g>
<!-- HttpClientModule -->
<g id="node8" class="node">
<title>HttpClientModule</title>
<polygon fill="#8dd3c7" stroke="#000000" points="2861.1611,-122 2858.1611,-126 2837.1611,-126 2834.1611,-122 2742.8389,-122 2742.8389,-86 2861.1611,-86 2861.1611,-122"/>
<text text-anchor="middle" x="2802" y="-99.8" font-family="Times,serif" font-size="14.00" fill="#000000">HttpClientModule</text>
</g>
<!-- HttpClientModule&#45;&gt;AppModule -->
<g id="edge7" class="edge">
<title>HttpClientModule&#45;&gt;AppModule</title>
<path fill="none" stroke="#000000" d="M2802,-122.2667C2802,-140.5552 2802,-166 2802,-166 2802,-166 2089.891,-166 2089.891,-166"/>
<polygon fill="#000000" stroke="#000000" points="2089.891,-162.5001 2079.891,-166 2089.8909,-169.5001 2089.891,-162.5001"/>
</g>
<!-- MatSidenavModule -->
<g id="node9" class="node">
<title>MatSidenavModule</title>
<polygon fill="#8dd3c7" stroke="#000000" points="2724.7022,-122 2721.7022,-126 2700.7022,-126 2697.7022,-122 2597.2978,-122 2597.2978,-86 2724.7022,-86 2724.7022,-122"/>
<text text-anchor="middle" x="2661" y="-99.8" font-family="Times,serif" font-size="14.00" fill="#000000">MatSidenavModule</text>
</g>
<!-- MatSidenavModule&#45;&gt;AppModule -->
<g id="edge8" class="edge">
<title>MatSidenavModule&#45;&gt;AppModule</title>
<path fill="none" stroke="#000000" d="M2661,-122.0225C2661,-139.3734 2661,-163 2661,-163 2661,-163 2089.8442,-163 2089.8442,-163"/>
<polygon fill="#000000" stroke="#000000" points="2089.8442,-159.5001 2079.8442,-163 2089.8441,-166.5001 2089.8442,-159.5001"/>
</g>
<!-- MatIconModule -->
<g id="node10" class="node">
<title>MatIconModule</title>
<polygon fill="#8dd3c7" stroke="#000000" points="2579.4748,-122 2576.4748,-126 2555.4748,-126 2552.4748,-122 2472.5252,-122 2472.5252,-86 2579.4748,-86 2579.4748,-122"/>
<text text-anchor="middle" x="2526" y="-99.8" font-family="Times,serif" font-size="14.00" fill="#000000">MatIconModule</text>
</g>
<!-- MatIconModule&#45;&gt;AppModule -->
<g id="edge9" class="edge">
<title>MatIconModule&#45;&gt;AppModule</title>
<path fill="none" stroke="#000000" d="M2526,-122.027C2526,-138.3976 2526,-160 2526,-160 2526,-160 2090.029,-160 2090.029,-160"/>
<polygon fill="#000000" stroke="#000000" points="2090.029,-156.5001 2080.029,-160 2090.0289,-163.5001 2090.029,-156.5001"/>
</g>
<!-- MatButtonModule -->
<g id="node11" class="node">
<title>MatButtonModule</title>
<polygon fill="#8dd3c7" stroke="#000000" points="2454.2176,-122 2451.2176,-126 2430.2176,-126 2427.2176,-122 2333.7824,-122 2333.7824,-86 2454.2176,-86 2454.2176,-122"/>
<text text-anchor="middle" x="2394" y="-99.8" font-family="Times,serif" font-size="14.00" fill="#000000">MatButtonModule</text>
</g>
<!-- MatButtonModule&#45;&gt;AppModule -->
<g id="edge10" class="edge">
<title>MatButtonModule&#45;&gt;AppModule</title>
<path fill="none" stroke="#000000" d="M2394,-122.2396C2394,-137.5706 2394,-157 2394,-157 2394,-157 2089.8846,-157 2089.8846,-157"/>
<polygon fill="#000000" stroke="#000000" points="2089.8846,-153.5001 2079.8846,-157 2089.8845,-160.5001 2089.8846,-153.5001"/>
</g>
<!-- MatDividerModule -->
<g id="node12" class="node">
<title>MatDividerModule</title>
<polygon fill="#8dd3c7" stroke="#000000" points="2315.3627,-122 2312.3627,-126 2291.3627,-126 2288.3627,-122 2190.6373,-122 2190.6373,-86 2315.3627,-86 2315.3627,-122"/>
<text text-anchor="middle" x="2253" y="-99.8" font-family="Times,serif" font-size="14.00" fill="#000000">MatDividerModule</text>
</g>
<!-- MatDividerModule&#45;&gt;AppModule -->
<g id="edge11" class="edge">
<title>MatDividerModule&#45;&gt;AppModule</title>
<path fill="none" stroke="#000000" d="M2253,-122.0511C2253,-136.373 2253,-154 2253,-154 2253,-154 2089.7091,-154 2089.7091,-154"/>
<polygon fill="#000000" stroke="#000000" points="2089.7091,-150.5001 2079.7091,-154 2089.7091,-157.5001 2089.7091,-150.5001"/>
</g>
<!-- OrganizationModule -->
<g id="node13" class="node">
<title>OrganizationModule</title>
<polygon fill="#8dd3c7" stroke="#000000" points="2172.1331,-122 2169.1331,-126 2148.1331,-126 2145.1331,-122 2039.8669,-122 2039.8669,-86 2172.1331,-86 2172.1331,-122"/>
<text text-anchor="middle" x="2106" y="-99.8" font-family="Times,serif" font-size="14.00" fill="#000000">OrganizationModule</text>
</g>
<!-- OrganizationModule&#45;&gt;AppModule -->
<g id="edge12" class="edge">
<title>OrganizationModule&#45;&gt;AppModule</title>
<path fill="none" stroke="#000000" d="M2059.7559,-122.1061C2059.7559,-122.1061 2059.7559,-140.991 2059.7559,-140.991"/>
<polygon fill="#000000" stroke="#000000" points="2056.256,-140.9909 2059.7559,-150.991 2063.256,-140.991 2056.256,-140.9909"/>
</g>
<!-- ToolbarModule -->
<g id="node14" class="node">
<title>ToolbarModule</title>
<polygon fill="#8dd3c7" stroke="#000000" points="2021.8683,-122 2018.8683,-126 1997.8683,-126 1994.8683,-122 1918.1317,-122 1918.1317,-86 2021.8683,-86 2021.8683,-122"/>
<text text-anchor="middle" x="1970" y="-99.8" font-family="Times,serif" font-size="14.00" fill="#000000">ToolbarModule</text>
</g>
<!-- ToolbarModule&#45;&gt;AppModule -->
<g id="edge13" class="edge">
<title>ToolbarModule&#45;&gt;AppModule</title>
<path fill="none" stroke="#000000" d="M2009.053,-122.1061C2009.053,-122.1061 2009.053,-140.991 2009.053,-140.991"/>
<polygon fill="#000000" stroke="#000000" points="2005.553,-140.9909 2009.053,-150.991 2012.553,-140.991 2005.553,-140.9909"/>
</g>
<!-- MovieModule -->
<g id="node15" class="node">
<title>MovieModule</title>
<polygon fill="#8dd3c7" stroke="#000000" points="1900.0997,-122 1897.0997,-126 1876.0997,-126 1873.0997,-122 1803.9003,-122 1803.9003,-86 1900.0997,-86 1900.0997,-122"/>
<text text-anchor="middle" x="1852" y="-99.8" font-family="Times,serif" font-size="14.00" fill="#000000">MovieModule</text>
</g>
<!-- MovieModule&#45;&gt;AppModule -->
<g id="edge14" class="edge">
<title>MovieModule&#45;&gt;AppModule</title>
<path fill="none" stroke="#000000" d="M1852,-122.0511C1852,-136.373 1852,-154 1852,-154 1852,-154 1986.258,-154 1986.258,-154"/>
<polygon fill="#000000" stroke="#000000" points="1986.258,-157.5001 1996.258,-154 1986.2579,-150.5001 1986.258,-157.5001"/>
</g>
<!-- AccountModule -->
<g id="node16" class="node">
<title>AccountModule</title>
<polygon fill="#8dd3c7" stroke="#000000" points="1785.4762,-122 1782.4762,-126 1761.4762,-126 1758.4762,-122 1678.5238,-122 1678.5238,-86 1785.4762,-86 1785.4762,-122"/>
<text text-anchor="middle" x="1732" y="-99.8" font-family="Times,serif" font-size="14.00" fill="#000000">AccountModule</text>
</g>
<!-- AccountModule&#45;&gt;AppModule -->
<g id="edge15" class="edge">
<title>AccountModule&#45;&gt;AppModule</title>
<path fill="none" stroke="#000000" d="M1732,-122.2396C1732,-137.5706 1732,-157 1732,-157 1732,-157 1986.0936,-157 1986.0936,-157"/>
<polygon fill="#000000" stroke="#000000" points="1986.0937,-160.5001 1996.0936,-157 1986.0936,-153.5001 1986.0937,-160.5001"/>
</g>
<!-- ProfileModule -->
<g id="node17" class="node">
<title>ProfileModule</title>
<polygon fill="#8dd3c7" stroke="#000000" points="1660.65,-122 1657.65,-126 1636.65,-126 1633.65,-122 1563.35,-122 1563.35,-86 1660.65,-86 1660.65,-122"/>
<text text-anchor="middle" x="1612" y="-99.8" font-family="Times,serif" font-size="14.00" fill="#000000">ProfileModule</text>
</g>
<!-- ProfileModule&#45;&gt;AppModule -->
<g id="edge16" class="edge">
<title>ProfileModule&#45;&gt;AppModule</title>
<path fill="none" stroke="#000000" d="M1612,-122.027C1612,-138.3976 1612,-160 1612,-160 1612,-160 1985.9876,-160 1985.9876,-160"/>
<polygon fill="#000000" stroke="#000000" points="1985.9877,-163.5001 1995.9876,-160 1985.9876,-156.5001 1985.9877,-163.5001"/>
</g>
<!-- WalletModule -->
<g id="node18" class="node">
<title>WalletModule</title>
<polygon fill="#8dd3c7" stroke="#000000" points="1545.3655,-122 1542.3655,-126 1521.3655,-126 1518.3655,-122 1448.6345,-122 1448.6345,-86 1545.3655,-86 1545.3655,-122"/>
<text text-anchor="middle" x="1497" y="-99.8" font-family="Times,serif" font-size="14.00" fill="#000000">WalletModule</text>
</g>
<!-- WalletModule&#45;&gt;AppModule -->
<g id="edge17" class="edge">
<title>WalletModule&#45;&gt;AppModule</title>
<path fill="none" stroke="#000000" d="M1497,-122.0225C1497,-139.3734 1497,-163 1497,-163 1497,-163 1985.9988,-163 1985.9988,-163"/>
<polygon fill="#000000" stroke="#000000" points="1985.9988,-166.5001 1995.9988,-163 1985.9988,-159.5001 1985.9988,-166.5001"/>
</g>
<!-- KeyManagerModule -->
<g id="node19" class="node">
<title>KeyManagerModule</title>
<polygon fill="#8dd3c7" stroke="#000000" points="1430.1205,-122 1427.1205,-126 1406.1205,-126 1403.1205,-122 1297.8795,-122 1297.8795,-86 1430.1205,-86 1430.1205,-122"/>
<text text-anchor="middle" x="1364" y="-99.8" font-family="Times,serif" font-size="14.00" fill="#000000">KeyManagerModule</text>
</g>
<!-- KeyManagerModule&#45;&gt;AppModule -->
<g id="edge18" class="edge">
<title>KeyManagerModule&#45;&gt;AppModule</title>
<path fill="none" stroke="#000000" d="M1364,-122.2667C1364,-140.5552 1364,-166 1364,-166 1364,-166 1986.0929,-166 1986.0929,-166"/>
<polygon fill="#000000" stroke="#000000" points="1986.093,-169.5001 1996.0929,-166 1986.0929,-162.5001 1986.093,-169.5001"/>
</g>
<!-- NotificationWidgetModule -->
<g id="node20" class="node">
<title>NotificationWidgetModule</title>
<polygon fill="#8dd3c7" stroke="#000000" points="1279.4101,-122 1276.4101,-126 1255.4101,-126 1252.4101,-122 1110.5899,-122 1110.5899,-86 1279.4101,-86 1279.4101,-122"/>
<text text-anchor="middle" x="1195" y="-99.8" font-family="Times,serif" font-size="14.00" fill="#000000">NotificationWidgetModule</text>
</g>
<!-- NotificationWidgetModule&#45;&gt;AppModule -->
<g id="edge19" class="edge">
<title>NotificationWidgetModule&#45;&gt;AppModule</title>
<path fill="none" stroke="#000000" d="M1195,-122.1061C1195,-141.3391 1195,-169 1195,-169 1195,-169 1986.1955,-169 1986.1955,-169"/>
<polygon fill="#000000" stroke="#000000" points="1986.1955,-172.5001 1996.1955,-169 1986.1955,-165.5001 1986.1955,-172.5001"/>
</g>
<!-- AngularFireModule.initializeApp(args) -->
<g id="node21" class="node">
<title>AngularFireModule.initializeApp(args)</title>
<polygon fill="#8dd3c7" stroke="#000000" points="1092.7057,-122 1089.7057,-126 1068.7057,-126 1065.7057,-122 855.2943,-122 855.2943,-86 1092.7057,-86 1092.7057,-122"/>
<text text-anchor="middle" x="974" y="-99.8" font-family="Times,serif" font-size="14.00" fill="#000000">AngularFireModule.initializeApp(args)</text>
</g>
<!-- AngularFireModule.initializeApp(args)&#45;&gt;AppModule -->
<g id="edge20" class="edge">
<title>AngularFireModule.initializeApp(args)&#45;&gt;AppModule</title>
<path fill="none" stroke="#000000" d="M974,-122.2228C974,-142.3652 974,-172 974,-172 974,-172 1986.2899,-172 1986.2899,-172"/>
<polygon fill="#000000" stroke="#000000" points="1986.29,-175.5001 1996.2899,-172 1986.2899,-168.5001 1986.29,-175.5001"/>
</g>
<!-- AngularFirestoreModule.enablePersistence(args) -->
<g id="node22" class="node">
<title>AngularFirestoreModule.enablePersistence(args)</title>
<polygon fill="#8dd3c7" stroke="#000000" points="837.3285,-122 834.3285,-126 813.3285,-126 810.3285,-122 546.6715,-122 546.6715,-86 837.3285,-86 837.3285,-122"/>
<text text-anchor="middle" x="692" y="-99.8" font-family="Times,serif" font-size="14.00" fill="#000000">AngularFirestoreModule.enablePersistence(args)</text>
</g>
<!-- AngularFirestoreModule.enablePersistence(args)&#45;&gt;AppModule -->
<g id="edge21" class="edge">
<title>AngularFirestoreModule.enablePersistence(args)&#45;&gt;AppModule</title>
<path fill="none" stroke="#000000" d="M692,-122.2843C692,-143.3211 692,-175 692,-175 692,-175 1986.2409,-175 1986.2409,-175"/>
<polygon fill="#000000" stroke="#000000" points="1986.241,-178.5001 1996.2409,-175 1986.2409,-171.5001 1986.241,-178.5001"/>
</g>
<!-- AngularFireFunctionsModule -->
<g id="node23" class="node">
<title>AngularFireFunctionsModule</title>
<polygon fill="#8dd3c7" stroke="#000000" points="528.6937,-122 525.6937,-126 504.6937,-126 501.6937,-122 345.3063,-122 345.3063,-86 528.6937,-86 528.6937,-122"/>
<text text-anchor="middle" x="437" y="-99.8" font-family="Times,serif" font-size="14.00" fill="#000000">AngularFireFunctionsModule</text>
</g>
<!-- AngularFireFunctionsModule&#45;&gt;AppModule -->
<g id="edge22" class="edge">
<title>AngularFireFunctionsModule&#45;&gt;AppModule</title>
<path fill="none" stroke="#000000" d="M437,-122.2921C437,-144.2057 437,-178 437,-178 437,-178 1986.0001,-178 1986.0001,-178"/>
<polygon fill="#000000" stroke="#000000" points="1986.0001,-181.5001 1996.0001,-178 1986,-174.5001 1986.0001,-181.5001"/>
</g>
<!-- AkitaNgRouterStoreModule.forRoot() -->
<g id="node24" class="node">
<title>AkitaNgRouterStoreModule.forRoot()</title>
<polygon fill="#8dd3c7" stroke="#000000" points="327.7793,-122 324.7793,-126 303.7793,-126 300.7793,-122 96.2207,-122 96.2207,-86 327.7793,-86 327.7793,-122"/>
<text text-anchor="middle" x="212" y="-99.8" font-family="Times,serif" font-size="14.00" fill="#000000">AkitaNgRouterStoreModule.forRoot()</text>
</g>
<!-- AkitaNgRouterStoreModule.forRoot()&#45;&gt;AppModule -->
<g id="edge23" class="edge">
<title>AkitaNgRouterStoreModule.forRoot()&#45;&gt;AppModule</title>
<path fill="none" stroke="#000000" d="M212,-122.2479C212,-145.0179 212,-181 212,-181 212,-181 1985.9921,-181 1985.9921,-181"/>
<polygon fill="#000000" stroke="#000000" points="1985.9921,-184.5001 1995.9921,-181 1985.992,-177.5001 1985.9921,-184.5001"/>
</g>
<!-- { &#160;} -->
<g id="node25" class="node">
<title>{ &#160;}</title>
<polygon fill="#8dd3c7" stroke="#000000" points="78,-122 75,-126 54,-126 51,-122 24,-122 24,-86 78,-86 78,-122"/>
<text text-anchor="middle" x="51" y="-99.8" font-family="Times,serif" font-size="14.00" fill="#000000">{ &#160;}</text>
</g>
<!-- { &#160;}&#45;&gt;AppModule -->
<g id="edge24" class="edge">
<title>{ &#160;}&#45;&gt;AppModule</title>
<path fill="none" stroke="#000000" d="M51,-122.1532C51,-145.7566 51,-184 51,-184 51,-184 1986.0402,-184 1986.0402,-184"/>
<polygon fill="#000000" stroke="#000000" points="1986.0403,-187.5001 1996.0402,-184 1986.0402,-180.5001 1986.0403,-187.5001"/>
</g>
</g>
</svg>
