<?xml version="1.0" encoding="UTF-8" standalone="no"?>
<!DOCTYPE svg PUBLIC "-//W3C//DTD SVG 1.1//EN"
 "http://www.w3.org/Graphics/SVG/1.1/DTD/svg11.dtd">
<!-- Generated by graphviz version 2.40.1 (20161225.0304)
 -->
<!-- Title: dependencies Pages: 1 -->
<svg width="1531pt" height="284pt"
 viewBox="0.00 0.00 1531.00 284.00" xmlns="http://www.w3.org/2000/svg" xmlns:xlink="http://www.w3.org/1999/xlink">
<g id="graph0" class="graph" transform="scale(1 1) rotate(0) translate(4 280)">
<title>dependencies</title>
<polygon fill="#ffffff" stroke="transparent" points="-4,4 -4,-280 1527,-280 1527,4 -4,4"/>
<text text-anchor="start" x="740.5091" y="-42.4" font-family="sans-serif" font-weight="bold" font-size="14.00" fill="#000000">Legend</text>
<polygon fill="#ffffb3" stroke="transparent" points="527.5,-10 527.5,-30 547.5,-30 547.5,-10 527.5,-10"/>
<text text-anchor="start" x="551.129" y="-15.4" font-family="sans-serif" font-size="14.00" fill="#000000"> &#160;Declarations</text>
<polygon fill="#8dd3c7" stroke="transparent" points="640.5,-10 640.5,-30 660.5,-30 660.5,-10 640.5,-10"/>
<text text-anchor="start" x="664.2251" y="-15.4" font-family="sans-serif" font-size="14.00" fill="#000000"> &#160;Module</text>
<polygon fill="#80b1d3" stroke="transparent" points="726.5,-10 726.5,-30 746.5,-30 746.5,-10 726.5,-10"/>
<text text-anchor="start" x="750.2812" y="-15.4" font-family="sans-serif" font-size="14.00" fill="#000000"> &#160;Bootstrap</text>
<polygon fill="#fdb462" stroke="transparent" points="823.5,-10 823.5,-30 843.5,-30 843.5,-10 823.5,-10"/>
<text text-anchor="start" x="847.1732" y="-15.4" font-family="sans-serif" font-size="14.00" fill="#000000"> &#160;Providers</text>
<polygon fill="#fb8072" stroke="transparent" points="919.5,-10 919.5,-30 939.5,-30 939.5,-10 919.5,-10"/>
<text text-anchor="start" x="943.2258" y="-15.4" font-family="sans-serif" font-size="14.00" fill="#000000"> &#160;Exports</text>
<g id="clust1" class="cluster">
<title>cluster_AppModule</title>
<polygon fill="none" stroke="#000000" stroke-dasharray="1,5" points="8,-70 8,-268 1515,-268 1515,-70 8,-70"/>
</g>
<g id="clust2" class="cluster">
<title>cluster_AppModule_declarations</title>
<polygon fill="none" stroke="#000000" points="1247,-78 1247,-130 1507,-130 1507,-78 1247,-78"/>
</g>
<g id="clust5" class="cluster">
<title>cluster_AppModule_imports</title>
<polygon fill="none" stroke="#000000" points="16,-78 16,-130 1239,-130 1239,-78 16,-78"/>
</g>
<g id="clust7" class="cluster">
<title>cluster_AppModule_bootstrap</title>
<polygon fill="none" stroke="#000000" points="699,-208 699,-260 823,-260 823,-208 699,-208"/>
</g>
<!-- AppComponent -->
<g id="node1" class="node">
<title>AppComponent</title>
<polygon fill="#ffffb3" stroke="#000000" points="1498.9399,-122 1393.0601,-122 1393.0601,-86 1498.9399,-86 1498.9399,-122"/>
<text text-anchor="middle" x="1446" y="-99.8" font-family="Times,serif" font-size="14.00" fill="#000000">AppComponent</text>
</g>
<!-- AppModule -->
<g id="node3" class="node">
<title>AppModule</title>
<polygon fill="#8dd3c7" stroke="#000000" points="802.6571,-187 799.6571,-191 778.6571,-191 775.6571,-187 719.3429,-187 719.3429,-151 802.6571,-151 802.6571,-187"/>
<text text-anchor="middle" x="761" y="-164.8" font-family="Times,serif" font-size="14.00" fill="#000000">AppModule</text>
</g>
<!-- AppComponent&#45;&gt;AppModule -->
<g id="edge1" class="edge">
<title>AppComponent&#45;&gt;AppModule</title>
<path fill="none" stroke="#000000" d="M1446,-122.2479C1446,-145.0179 1446,-181 1446,-181 1446,-181 812.8187,-181 812.8187,-181"/>
<polygon fill="#000000" stroke="#000000" points="812.8187,-177.5001 802.8187,-181 812.8186,-184.5001 812.8187,-177.5001"/>
</g>
<!-- LayoutComponent -->
<g id="node2" class="node">
<title>LayoutComponent</title>
<polygon fill="#ffffb3" stroke="#000000" points="1375.4902,-122 1254.5098,-122 1254.5098,-86 1375.4902,-86 1375.4902,-122"/>
<text text-anchor="middle" x="1315" y="-99.8" font-family="Times,serif" font-size="14.00" fill="#000000">LayoutComponent</text>
</g>
<!-- LayoutComponent&#45;&gt;AppModule -->
<g id="edge2" class="edge">
<title>LayoutComponent&#45;&gt;AppModule</title>
<path fill="none" stroke="#000000" d="M1315,-122.2843C1315,-143.3211 1315,-175 1315,-175 1315,-175 813.0948,-175 813.0948,-175"/>
<polygon fill="#000000" stroke="#000000" points="813.0948,-171.5001 803.0948,-175 813.0947,-178.5001 813.0948,-171.5001"/>
</g>
<!-- AppComponent  -->
<g id="node13" class="node">
<title>AppComponent </title>
<polygon fill="#80b1d3" stroke="#000000" points="815.439,-252 706.561,-252 706.561,-216 815.439,-216 815.439,-252"/>
<text text-anchor="middle" x="761" y="-229.8" font-family="Times,serif" font-size="14.00" fill="#000000">AppComponent </text>
</g>
<!-- AppModule&#45;&gt;AppComponent  -->
<g id="edge12" class="edge">
<title>AppModule&#45;&gt;AppComponent </title>
<path fill="none" stroke="#000000" stroke-dasharray="1,5" d="M761,-187.1061C761,-187.1061 761,-205.991 761,-205.991"/>
<polygon fill="#000000" stroke="#000000" points="757.5001,-205.9909 761,-215.991 764.5001,-205.991 757.5001,-205.9909"/>
</g>
<!-- AccountModule -->
<g id="node4" class="node">
<title>AccountModule</title>
<polygon fill="#8dd3c7" stroke="#000000" points="1231.4762,-122 1228.4762,-126 1207.4762,-126 1204.4762,-122 1124.5238,-122 1124.5238,-86 1231.4762,-86 1231.4762,-122"/>
<text text-anchor="middle" x="1178" y="-99.8" font-family="Times,serif" font-size="14.00" fill="#000000">AccountModule</text>
</g>
<!-- AccountModule&#45;&gt;AppModule -->
<g id="edge3" class="edge">
<title>AccountModule&#45;&gt;AppModule</title>
<path fill="none" stroke="#000000" d="M1178,-122.1061C1178,-141.3391 1178,-169 1178,-169 1178,-169 812.8928,-169 812.8928,-169"/>
<polygon fill="#000000" stroke="#000000" points="812.8929,-165.5001 802.8928,-169 812.8928,-172.5001 812.8929,-165.5001"/>
</g>
<!-- AppRoutingModule -->
<g id="node5" class="node">
<title>AppRoutingModule</title>
<polygon fill="#8dd3c7" stroke="#000000" points="1106.2744,-122 1103.2744,-126 1082.2744,-126 1079.2744,-122 977.7256,-122 977.7256,-86 1106.2744,-86 1106.2744,-122"/>
<text text-anchor="middle" x="1042" y="-99.8" font-family="Times,serif" font-size="14.00" fill="#000000">AppRoutingModule</text>
</g>
<!-- AppRoutingModule&#45;&gt;AppModule -->
<g id="edge4" class="edge">
<title>AppRoutingModule&#45;&gt;AppModule</title>
<path fill="none" stroke="#000000" d="M1042,-122.0225C1042,-139.3734 1042,-163 1042,-163 1042,-163 812.7651,-163 812.7651,-163"/>
<polygon fill="#000000" stroke="#000000" points="812.7652,-159.5001 802.7651,-163 812.7651,-166.5001 812.7652,-159.5001"/>
</g>
<!-- KeyManagerModule -->
<g id="node6" class="node">
<title>KeyManagerModule</title>
<polygon fill="#8dd3c7" stroke="#000000" points="959.1205,-122 956.1205,-126 935.1205,-126 932.1205,-122 826.8795,-122 826.8795,-86 959.1205,-86 959.1205,-122"/>
<text text-anchor="middle" x="893" y="-99.8" font-family="Times,serif" font-size="14.00" fill="#000000">KeyManagerModule</text>
</g>
<!-- KeyManagerModule&#45;&gt;AppModule -->
<g id="edge5" class="edge">
<title>KeyManagerModule&#45;&gt;AppModule</title>
<path fill="none" stroke="#000000" d="M893,-122.2396C893,-137.5706 893,-157 893,-157 893,-157 812.7656,-157 812.7656,-157"/>
<polygon fill="#000000" stroke="#000000" points="812.7657,-153.5001 802.7656,-157 812.7656,-160.5001 812.7657,-153.5001"/>
</g>
<!-- MovieModule -->
<g id="node7" class="node">
<title>MovieModule</title>
<polygon fill="#8dd3c7" stroke="#000000" points="809.0997,-122 806.0997,-126 785.0997,-126 782.0997,-122 712.9003,-122 712.9003,-86 809.0997,-86 809.0997,-122"/>
<text text-anchor="middle" x="761" y="-99.8" font-family="Times,serif" font-size="14.00" fill="#000000">MovieModule</text>
</g>
<!-- MovieModule&#45;&gt;AppModule -->
<g id="edge6" class="edge">
<title>MovieModule&#45;&gt;AppModule</title>
<path fill="none" stroke="#000000" d="M761,-122.1061C761,-122.1061 761,-140.991 761,-140.991"/>
<polygon fill="#000000" stroke="#000000" points="757.5001,-140.9909 761,-150.991 764.5001,-140.991 757.5001,-140.9909"/>
</g>
<!-- NotificationWidgetModule -->
<g id="node8" class="node">
<title>NotificationWidgetModule</title>
<polygon fill="#8dd3c7" stroke="#000000" points="695.4101,-122 692.4101,-126 671.4101,-126 668.4101,-122 526.5899,-122 526.5899,-86 695.4101,-86 695.4101,-122"/>
<text text-anchor="middle" x="611" y="-99.8" font-family="Times,serif" font-size="14.00" fill="#000000">NotificationWidgetModule</text>
</g>
<!-- NotificationWidgetModule&#45;&gt;AppModule -->
<g id="edge7" class="edge">
<title>NotificationWidgetModule&#45;&gt;AppModule</title>
<path fill="none" stroke="#000000" d="M611,-122.2396C611,-137.5706 611,-157 611,-157 611,-157 709.2166,-157 709.2166,-157"/>
<polygon fill="#000000" stroke="#000000" points="709.2167,-160.5001 719.2166,-157 709.2166,-153.5001 709.2167,-160.5001"/>
</g>
<!-- OrganizationModule -->
<g id="node9" class="node">
<title>OrganizationModule</title>
<polygon fill="#8dd3c7" stroke="#000000" points="508.1331,-122 505.1331,-126 484.1331,-126 481.1331,-122 375.8669,-122 375.8669,-86 508.1331,-86 508.1331,-122"/>
<text text-anchor="middle" x="442" y="-99.8" font-family="Times,serif" font-size="14.00" fill="#000000">OrganizationModule</text>
</g>
<!-- OrganizationModule&#45;&gt;AppModule -->
<g id="edge8" class="edge">
<title>OrganizationModule&#45;&gt;AppModule</title>
<path fill="none" stroke="#000000" d="M442,-122.0225C442,-139.3734 442,-163 442,-163 442,-163 709.2963,-163 709.2963,-163"/>
<polygon fill="#000000" stroke="#000000" points="709.2964,-166.5001 719.2963,-163 709.2963,-159.5001 709.2964,-166.5001"/>
</g>
<!-- ProfileModule -->
<g id="node10" class="node">
<title>ProfileModule</title>
<polygon fill="#8dd3c7" stroke="#000000" points="357.65,-122 354.65,-126 333.65,-126 330.65,-122 260.35,-122 260.35,-86 357.65,-86 357.65,-122"/>
<text text-anchor="middle" x="309" y="-99.8" font-family="Times,serif" font-size="14.00" fill="#000000">ProfileModule</text>
</g>
<!-- ProfileModule&#45;&gt;AppModule -->
<g id="edge9" class="edge">
<title>ProfileModule&#45;&gt;AppModule</title>
<path fill="none" stroke="#000000" d="M309,-122.1061C309,-141.3391 309,-169 309,-169 309,-169 709.2871,-169 709.2871,-169"/>
<polygon fill="#000000" stroke="#000000" points="709.2871,-172.5001 719.2871,-169 709.2871,-165.5001 709.2871,-172.5001"/>
</g>
<!-- ToolbarModule -->
<g id="node11" class="node">
<title>ToolbarModule</title>
<polygon fill="#8dd3c7" stroke="#000000" points="241.8683,-122 238.8683,-126 217.8683,-126 214.8683,-122 138.1317,-122 138.1317,-86 241.8683,-86 241.8683,-122"/>
<text text-anchor="middle" x="190" y="-99.8" font-family="Times,serif" font-size="14.00" fill="#000000">ToolbarModule</text>
</g>
<!-- ToolbarModule&#45;&gt;AppModule -->
<g id="edge10" class="edge">
<title>ToolbarModule&#45;&gt;AppModule</title>
<path fill="none" stroke="#000000" d="M190,-122.2843C190,-143.3211 190,-175 190,-175 190,-175 709.013,-175 709.013,-175"/>
<polygon fill="#000000" stroke="#000000" points="709.013,-178.5001 719.013,-175 709.013,-171.5001 709.013,-178.5001"/>
</g>
<!-- WalletModule -->
<g id="node12" class="node">
<title>WalletModule</title>
<polygon fill="#8dd3c7" stroke="#000000" points="120.3655,-122 117.3655,-126 96.3655,-126 93.3655,-122 23.6345,-122 23.6345,-86 120.3655,-86 120.3655,-122"/>
<text text-anchor="middle" x="72" y="-99.8" font-family="Times,serif" font-size="14.00" fill="#000000">WalletModule</text>
</g>
<!-- WalletModule&#45;&gt;AppModule -->
<g id="edge11" class="edge">
<title>WalletModule&#45;&gt;AppModule</title>
<path fill="none" stroke="#000000" d="M72,-122.2479C72,-145.0179 72,-181 72,-181 72,-181 709.1947,-181 709.1947,-181"/>
<polygon fill="#000000" stroke="#000000" points="709.1947,-184.5001 719.1947,-181 709.1947,-177.5001 709.1947,-184.5001"/>
</g>
</g>
</svg>
