<?xml version="1.0" encoding="UTF-8" standalone="no"?>
<!DOCTYPE svg PUBLIC "-//W3C//DTD SVG 1.1//EN"
 "http://www.w3.org/Graphics/SVG/1.1/DTD/svg11.dtd">
<!-- Generated by graphviz version 2.40.1 (20161225.0304)
 -->
<!-- Title: dependencies Pages: 1 -->
<svg width="1933pt" height="211pt"
 viewBox="0.00 0.00 1933.00 211.00" xmlns="http://www.w3.org/2000/svg" xmlns:xlink="http://www.w3.org/1999/xlink">
<g id="graph0" class="graph" transform="scale(1 1) rotate(0) translate(4 207)">
<title>dependencies</title>
<polygon fill="#ffffff" stroke="transparent" points="-4,4 -4,-207 1929,-207 1929,4 -4,4"/>
<text text-anchor="start" x="941.5091" y="-42.4" font-family="sans-serif" font-weight="bold" font-size="14.00" fill="#000000">Legend</text>
<polygon fill="#ffffb3" stroke="transparent" points="728.5,-10 728.5,-30 748.5,-30 748.5,-10 728.5,-10"/>
<text text-anchor="start" x="752.129" y="-15.4" font-family="sans-serif" font-size="14.00" fill="#000000"> &#160;Declarations</text>
<polygon fill="#8dd3c7" stroke="transparent" points="841.5,-10 841.5,-30 861.5,-30 861.5,-10 841.5,-10"/>
<text text-anchor="start" x="865.2251" y="-15.4" font-family="sans-serif" font-size="14.00" fill="#000000"> &#160;Module</text>
<polygon fill="#80b1d3" stroke="transparent" points="927.5,-10 927.5,-30 947.5,-30 947.5,-10 927.5,-10"/>
<text text-anchor="start" x="951.2812" y="-15.4" font-family="sans-serif" font-size="14.00" fill="#000000"> &#160;Bootstrap</text>
<polygon fill="#fdb462" stroke="transparent" points="1024.5,-10 1024.5,-30 1044.5,-30 1044.5,-10 1024.5,-10"/>
<text text-anchor="start" x="1048.1732" y="-15.4" font-family="sans-serif" font-size="14.00" fill="#000000"> &#160;Providers</text>
<polygon fill="#fb8072" stroke="transparent" points="1120.5,-10 1120.5,-30 1140.5,-30 1140.5,-10 1120.5,-10"/>
<text text-anchor="start" x="1144.2258" y="-15.4" font-family="sans-serif" font-size="14.00" fill="#000000"> &#160;Exports</text>
<g id="clust1" class="cluster">
<title>cluster_SelectionModule</title>
<polygon fill="none" stroke="#000000" stroke-dasharray="1,5" points="8,-70 8,-195 1917,-195 1917,-70 8,-70"/>
</g>
<g id="clust2" class="cluster">
<title>cluster_SelectionModule_declarations</title>
<polygon fill="none" stroke="#000000" points="1689,-78 1689,-130 1909,-130 1909,-78 1689,-78"/>
</g>
<g id="clust4" class="cluster">
<title>cluster_SelectionModule_imports</title>
<polygon fill="none" stroke="#000000" points="16,-78 16,-130 1681,-130 1681,-78 16,-78"/>
</g>
<!-- MarketplaceSelectionComponent -->
<g id="node1" class="node">
<title>MarketplaceSelectionComponent</title>
<polygon fill="#ffffb3" stroke="#000000" points="1900.8904,-122 1697.1096,-122 1697.1096,-86 1900.8904,-86 1900.8904,-122"/>
<text text-anchor="middle" x="1799" y="-99.8" font-family="Times,serif" font-size="14.00" fill="#000000">MarketplaceSelectionComponent</text>
</g>
<!-- SelectionModule -->
<g id="node2" class="node">
<title>SelectionModule</title>
<polygon fill="#8dd3c7" stroke="#000000" points="959.6486,-187 956.6486,-191 935.6486,-191 932.6486,-187 848.3514,-187 848.3514,-151 959.6486,-151 959.6486,-187"/>
<text text-anchor="middle" x="904" y="-164.8" font-family="Times,serif" font-size="14.00" fill="#000000">SelectionModule</text>
</g>
<!-- MarketplaceSelectionComponent&#45;&gt;SelectionModule -->
<g id="edge1" class="edge">
<title>MarketplaceSelectionComponent&#45;&gt;SelectionModule</title>
<path fill="none" stroke="#000000" d="M1799,-122.0908C1799,-145.1328 1799,-182 1799,-182 1799,-182 969.9863,-182 969.9863,-182"/>
<polygon fill="#000000" stroke="#000000" points="969.9863,-178.5001 959.9863,-182 969.9862,-185.5001 969.9863,-178.5001"/>
</g>
<!-- CommonModule -->
<g id="node3" class="node">
<title>CommonModule</title>
<polygon fill="#8dd3c7" stroke="#000000" points="1672.6681,-122 1669.6681,-126 1648.6681,-126 1645.6681,-122 1561.3319,-122 1561.3319,-86 1672.6681,-86 1672.6681,-122"/>
<text text-anchor="middle" x="1617" y="-99.8" font-family="Times,serif" font-size="14.00" fill="#000000">CommonModule</text>
</g>
<!-- CommonModule&#45;&gt;SelectionModule -->
<g id="edge2" class="edge">
<title>CommonModule&#45;&gt;SelectionModule</title>
<path fill="none" stroke="#000000" d="M1617,-122.2843C1617,-143.3211 1617,-175 1617,-175 1617,-175 969.6509,-175 969.6509,-175"/>
<polygon fill="#000000" stroke="#000000" points="969.651,-171.5001 959.6509,-175 969.6509,-178.5001 969.651,-171.5001"/>
</g>
<!-- FlexLayoutModule -->
<g id="node4" class="node">
<title>FlexLayoutModule</title>
<polygon fill="#8dd3c7" stroke="#000000" points="1543.0954,-122 1540.0954,-126 1519.0954,-126 1516.0954,-122 1418.9046,-122 1418.9046,-86 1543.0954,-86 1543.0954,-122"/>
<text text-anchor="middle" x="1481" y="-99.8" font-family="Times,serif" font-size="14.00" fill="#000000">FlexLayoutModule</text>
</g>
<!-- FlexLayoutModule&#45;&gt;SelectionModule -->
<g id="edge3" class="edge">
<title>FlexLayoutModule&#45;&gt;SelectionModule</title>
<path fill="none" stroke="#000000" d="M1481,-122.1061C1481,-141.3391 1481,-169 1481,-169 1481,-169 969.8495,-169 969.8495,-169"/>
<polygon fill="#000000" stroke="#000000" points="969.8495,-165.5001 959.8495,-169 969.8494,-172.5001 969.8495,-165.5001"/>
</g>
<!-- ReactiveFormsModule -->
<g id="node5" class="node">
<title>ReactiveFormsModule</title>
<polygon fill="#8dd3c7" stroke="#000000" points="1401.3047,-122 1398.3047,-126 1377.3047,-126 1374.3047,-122 1256.6953,-122 1256.6953,-86 1401.3047,-86 1401.3047,-122"/>
<text text-anchor="middle" x="1329" y="-99.8" font-family="Times,serif" font-size="14.00" fill="#000000">ReactiveFormsModule</text>
</g>
<!-- ReactiveFormsModule&#45;&gt;SelectionModule -->
<g id="edge4" class="edge">
<title>ReactiveFormsModule&#45;&gt;SelectionModule</title>
<path fill="none" stroke="#000000" d="M1329,-122.0225C1329,-139.3734 1329,-163 1329,-163 1329,-163 969.9984,-163 969.9984,-163"/>
<polygon fill="#000000" stroke="#000000" points="969.9984,-159.5001 959.9984,-163 969.9983,-166.5001 969.9984,-159.5001"/>
</g>
<!-- CatalogFormSelectionModule -->
<g id="node6" class="node">
<title>CatalogFormSelectionModule</title>
<polygon fill="#8dd3c7" stroke="#000000" points="1238.5294,-122 1235.5294,-126 1214.5294,-126 1211.5294,-122 1053.4706,-122 1053.4706,-86 1238.5294,-86 1238.5294,-122"/>
<text text-anchor="middle" x="1146" y="-99.8" font-family="Times,serif" font-size="14.00" fill="#000000">CatalogFormSelectionModule</text>
</g>
<!-- CatalogFormSelectionModule&#45;&gt;SelectionModule -->
<g id="edge5" class="edge">
<title>CatalogFormSelectionModule&#45;&gt;SelectionModule</title>
<path fill="none" stroke="#000000" d="M1146,-122.2396C1146,-137.5706 1146,-157 1146,-157 1146,-157 969.8235,-157 969.8235,-157"/>
<polygon fill="#000000" stroke="#000000" points="969.8236,-153.5001 959.8235,-157 969.8235,-160.5001 969.8236,-153.5001"/>
</g>
<!-- MatButtonModule -->
<g id="node7" class="node">
<title>MatButtonModule</title>
<polygon fill="#8dd3c7" stroke="#000000" points="1035.2176,-122 1032.2176,-126 1011.2176,-126 1008.2176,-122 914.7824,-122 914.7824,-86 1035.2176,-86 1035.2176,-122"/>
<text text-anchor="middle" x="975" y="-99.8" font-family="Times,serif" font-size="14.00" fill="#000000">MatButtonModule</text>
</g>
<!-- MatButtonModule&#45;&gt;SelectionModule -->
<g id="edge6" class="edge">
<title>MatButtonModule&#45;&gt;SelectionModule</title>
<path fill="none" stroke="#000000" d="M937.3577,-122.1061C937.3577,-122.1061 937.3577,-140.991 937.3577,-140.991"/>
<polygon fill="#000000" stroke="#000000" points="933.8577,-140.9909 937.3577,-150.991 940.8577,-140.991 933.8577,-140.9909"/>
</g>
<!-- MatDividerModule -->
<g id="node8" class="node">
<title>MatDividerModule</title>
<polygon fill="#8dd3c7" stroke="#000000" points="896.3627,-122 893.3627,-126 872.3627,-126 869.3627,-122 771.6373,-122 771.6373,-86 896.3627,-86 896.3627,-122"/>
<text text-anchor="middle" x="834" y="-99.8" font-family="Times,serif" font-size="14.00" fill="#000000">MatDividerModule</text>
</g>
<!-- MatDividerModule&#45;&gt;SelectionModule -->
<g id="edge7" class="edge">
<title>MatDividerModule&#45;&gt;SelectionModule</title>
<path fill="none" stroke="#000000" d="M872.3037,-122.1061C872.3037,-122.1061 872.3037,-140.991 872.3037,-140.991"/>
<polygon fill="#000000" stroke="#000000" points="868.8037,-140.9909 872.3037,-150.991 875.8037,-140.991 868.8037,-140.9909"/>
</g>
<!-- MatInputModule -->
<g id="node9" class="node">
<title>MatInputModule</title>
<polygon fill="#8dd3c7" stroke="#000000" points="753.6513,-122 750.6513,-126 729.6513,-126 726.6513,-122 642.3487,-122 642.3487,-86 753.6513,-86 753.6513,-122"/>
<text text-anchor="middle" x="698" y="-99.8" font-family="Times,serif" font-size="14.00" fill="#000000">MatInputModule</text>
</g>
<!-- MatInputModule&#45;&gt;SelectionModule -->
<g id="edge8" class="edge">
<title>MatInputModule&#45;&gt;SelectionModule</title>
<path fill="none" stroke="#000000" d="M698,-122.2396C698,-137.5706 698,-157 698,-157 698,-157 838.2534,-157 838.2534,-157"/>
<polygon fill="#000000" stroke="#000000" points="838.2535,-160.5001 848.2534,-157 838.2534,-153.5001 838.2535,-160.5001"/>
</g>
<!-- MatFormFieldModule -->
<g id="node10" class="node">
<title>MatFormFieldModule</title>
<polygon fill="#8dd3c7" stroke="#000000" points="624.712,-122 621.712,-126 600.712,-126 597.712,-122 483.288,-122 483.288,-86 624.712,-86 624.712,-122"/>
<text text-anchor="middle" x="554" y="-99.8" font-family="Times,serif" font-size="14.00" fill="#000000">MatFormFieldModule</text>
</g>
<!-- MatFormFieldModule&#45;&gt;SelectionModule -->
<g id="edge9" class="edge">
<title>MatFormFieldModule&#45;&gt;SelectionModule</title>
<path fill="none" stroke="#000000" d="M554,-122.0225C554,-139.3734 554,-163 554,-163 554,-163 838.1544,-163 838.1544,-163"/>
<polygon fill="#000000" stroke="#000000" points="838.1545,-166.5001 848.1544,-163 838.1544,-159.5001 838.1545,-166.5001"/>
</g>
<!-- MatIconModule -->
<g id="node11" class="node">
<title>MatIconModule</title>
<polygon fill="#8dd3c7" stroke="#000000" points="465.4748,-122 462.4748,-126 441.4748,-126 438.4748,-122 358.5252,-122 358.5252,-86 465.4748,-86 465.4748,-122"/>
<text text-anchor="middle" x="412" y="-99.8" font-family="Times,serif" font-size="14.00" fill="#000000">MatIconModule</text>
</g>
<!-- MatIconModule&#45;&gt;SelectionModule -->
<g id="edge10" class="edge">
<title>MatIconModule&#45;&gt;SelectionModule</title>
<path fill="none" stroke="#000000" d="M412,-122.1061C412,-141.3391 412,-169 412,-169 412,-169 838.0404,-169 838.0404,-169"/>
<polygon fill="#000000" stroke="#000000" points="838.0404,-172.5001 848.0404,-169 838.0403,-165.5001 838.0404,-172.5001"/>
</g>
<!-- MatSelectModule -->
<g id="node12" class="node">
<title>MatSelectModule</title>
<polygon fill="#8dd3c7" stroke="#000000" points="340.3076,-122 337.3076,-126 316.3076,-126 313.3076,-122 223.6924,-122 223.6924,-86 340.3076,-86 340.3076,-122"/>
<text text-anchor="middle" x="282" y="-99.8" font-family="Times,serif" font-size="14.00" fill="#000000">MatSelectModule</text>
</g>
<!-- MatSelectModule&#45;&gt;SelectionModule -->
<g id="edge11" class="edge">
<title>MatSelectModule&#45;&gt;SelectionModule</title>
<path fill="none" stroke="#000000" d="M282,-122.2843C282,-143.3211 282,-175 282,-175 282,-175 838.2543,-175 838.2543,-175"/>
<polygon fill="#000000" stroke="#000000" points="838.2543,-178.5001 848.2543,-175 838.2542,-171.5001 838.2543,-178.5001"/>
</g>
<!-- RouterModule.forChild(args) -->
<g id="node13" class="node">
<title>RouterModule.forChild(args)</title>
<polygon fill="#8dd3c7" stroke="#000000" points="205.7323,-122 202.7323,-126 181.7323,-126 178.7323,-122 24.2677,-122 24.2677,-86 205.7323,-86 205.7323,-122"/>
<text text-anchor="middle" x="115" y="-99.8" font-family="Times,serif" font-size="14.00" fill="#000000">RouterModule.forChild(args)</text>
</g>
<!-- RouterModule.forChild(args)&#45;&gt;SelectionModule -->
<g id="edge12" class="edge">
<title>RouterModule.forChild(args)&#45;&gt;SelectionModule</title>
<path fill="none" stroke="#000000" d="M115,-122.0908C115,-145.1328 115,-182 115,-182 115,-182 838.2047,-182 838.2047,-182"/>
<polygon fill="#000000" stroke="#000000" points="838.2047,-185.5001 848.2047,-182 838.2047,-178.5001 838.2047,-185.5001"/>
</g>
</g>
</svg>
