<?xml version="1.0" encoding="UTF-8" standalone="no"?>
<!DOCTYPE svg PUBLIC "-//W3C//DTD SVG 1.1//EN"
 "http://www.w3.org/Graphics/SVG/1.1/DTD/svg11.dtd">
<!-- Generated by graphviz version 2.40.1 (20161225.0304)
 -->
<!-- Title: dependencies Pages: 1 -->
<svg width="504pt" height="211pt"
 viewBox="0.00 0.00 504.00 211.00" xmlns="http://www.w3.org/2000/svg" xmlns:xlink="http://www.w3.org/1999/xlink">
<g id="graph0" class="graph" transform="scale(1 1) rotate(0) translate(4 207)">
<title>dependencies</title>
<polygon fill="#ffffff" stroke="transparent" points="-4,4 -4,-207 500,-207 500,4 -4,4"/>
<text text-anchor="start" x="227.0091" y="-42.4" font-family="sans-serif" font-weight="bold" font-size="14.00" fill="#000000">Legend</text>
<polygon fill="#ffffb3" stroke="transparent" points="14,-10 14,-30 34,-30 34,-10 14,-10"/>
<text text-anchor="start" x="37.629" y="-15.4" font-family="sans-serif" font-size="14.00" fill="#000000"> &#160;Declarations</text>
<polygon fill="#8dd3c7" stroke="transparent" points="127,-10 127,-30 147,-30 147,-10 127,-10"/>
<text text-anchor="start" x="150.7251" y="-15.4" font-family="sans-serif" font-size="14.00" fill="#000000"> &#160;Module</text>
<polygon fill="#80b1d3" stroke="transparent" points="213,-10 213,-30 233,-30 233,-10 213,-10"/>
<text text-anchor="start" x="236.7812" y="-15.4" font-family="sans-serif" font-size="14.00" fill="#000000"> &#160;Bootstrap</text>
<polygon fill="#fdb462" stroke="transparent" points="310,-10 310,-30 330,-30 330,-10 310,-10"/>
<text text-anchor="start" x="333.6732" y="-15.4" font-family="sans-serif" font-size="14.00" fill="#000000"> &#160;Providers</text>
<polygon fill="#fb8072" stroke="transparent" points="406,-10 406,-30 426,-30 426,-10 406,-10"/>
<text text-anchor="start" x="429.7258" y="-15.4" font-family="sans-serif" font-size="14.00" fill="#000000"> &#160;Exports</text>
<g id="clust1" class="cluster">
<title>cluster_SelectionModule</title>
<polygon fill="none" stroke="#000000" stroke-dasharray="1,5" points="25,-70 25,-195 471,-195 471,-70 25,-70"/>
</g>
<g id="clust2" class="cluster">
<title>cluster_SelectionModule_declarations</title>
<polygon fill="none" stroke="#000000" points="243,-78 243,-130 463,-130 463,-78 243,-78"/>
</g>
<g id="clust4" class="cluster">
<title>cluster_SelectionModule_imports</title>
<polygon fill="none" stroke="#000000" points="33,-78 33,-130 235,-130 235,-78 33,-78"/>
</g>
<!-- MarketplaceSelectionComponent -->
<g id="node1" class="node">
<title>MarketplaceSelectionComponent</title>
<polygon fill="#ffffb3" stroke="#000000" points="454.8904,-122 251.1096,-122 251.1096,-86 454.8904,-86 454.8904,-122"/>
<text text-anchor="middle" x="353" y="-99.8" font-family="Times,serif" font-size="14.00" fill="#000000">MarketplaceSelectionComponent</text>
</g>
<!-- SelectionModule -->
<g id="node2" class="node">
<title>SelectionModule</title>
<polygon fill="#8dd3c7" stroke="#000000" points="298.6486,-187 295.6486,-191 274.6486,-191 271.6486,-187 187.3514,-187 187.3514,-151 298.6486,-151 298.6486,-187"/>
<text text-anchor="middle" x="243" y="-164.8" font-family="Times,serif" font-size="14.00" fill="#000000">SelectionModule</text>
</g>
<!-- MarketplaceSelectionComponent&#45;&gt;SelectionModule -->
<g id="edge1" class="edge">
<title>MarketplaceSelectionComponent&#45;&gt;SelectionModule</title>
<path fill="none" stroke="#000000" d="M275.0645,-122.1061C275.0645,-122.1061 275.0645,-140.991 275.0645,-140.991"/>
<polygon fill="#000000" stroke="#000000" points="271.5646,-140.9909 275.0645,-150.991 278.5646,-140.991 271.5646,-140.9909"/>
</g>
<!-- CatalogFormSelectionModule -->
<g id="node3" class="node">
<title>CatalogFormSelectionModule</title>
<polygon fill="#8dd3c7" stroke="#000000" points="226.5294,-122 223.5294,-126 202.5294,-126 199.5294,-122 41.4706,-122 41.4706,-86 226.5294,-86 226.5294,-122"/>
<text text-anchor="middle" x="134" y="-99.8" font-family="Times,serif" font-size="14.00" fill="#000000">CatalogFormSelectionModule</text>
</g>
<!-- CatalogFormSelectionModule&#45;&gt;SelectionModule -->
<g id="edge2" class="edge">
<title>CatalogFormSelectionModule&#45;&gt;SelectionModule</title>
<path fill="none" stroke="#000000" d="M206.9702,-122.1061C206.9702,-122.1061 206.9702,-140.991 206.9702,-140.991"/>
<polygon fill="#000000" stroke="#000000" points="203.4703,-140.9909 206.9702,-150.991 210.4703,-140.991 203.4703,-140.9909"/>
</g>
</g>
</svg>
