<?xml version="1.0" encoding="UTF-8" standalone="no"?>
<!DOCTYPE svg PUBLIC "-//W3C//DTD SVG 1.1//EN"
 "http://www.w3.org/Graphics/SVG/1.1/DTD/svg11.dtd">
<!-- Generated by graphviz version 2.40.1 (20161225.0304)
 -->
<!-- Title: dependencies Pages: 1 -->
<svg width="504pt" height="284pt"
 viewBox="0.00 0.00 504.00 284.00" xmlns="http://www.w3.org/2000/svg" xmlns:xlink="http://www.w3.org/1999/xlink">
<g id="graph0" class="graph" transform="scale(1 1) rotate(0) translate(4 280)">
<title>dependencies</title>
<polygon fill="#ffffff" stroke="transparent" points="-4,4 -4,-280 500,-280 500,4 -4,4"/>
<text text-anchor="start" x="227.0091" y="-42.4" font-family="sans-serif" font-weight="bold" font-size="14.00" fill="#000000">Legend</text>
<polygon fill="#ffffb3" stroke="transparent" points="14,-10 14,-30 34,-30 34,-10 14,-10"/>
<text text-anchor="start" x="37.629" y="-15.4" font-family="sans-serif" font-size="14.00" fill="#000000"> &#160;Declarations</text>
<polygon fill="#8dd3c7" stroke="transparent" points="127,-10 127,-30 147,-30 147,-10 127,-10"/>
<text text-anchor="start" x="150.7251" y="-15.4" font-family="sans-serif" font-size="14.00" fill="#000000"> &#160;Module</text>
<polygon fill="#80b1d3" stroke="transparent" points="213,-10 213,-30 233,-30 233,-10 213,-10"/>
<text text-anchor="start" x="236.7812" y="-15.4" font-family="sans-serif" font-size="14.00" fill="#000000"> &#160;Bootstrap</text>
<polygon fill="#fdb462" stroke="transparent" points="310,-10 310,-30 330,-30 330,-10 310,-10"/>
<text text-anchor="start" x="333.6732" y="-15.4" font-family="sans-serif" font-size="14.00" fill="#000000"> &#160;Providers</text>
<polygon fill="#fb8072" stroke="transparent" points="406,-10 406,-30 426,-30 426,-10 406,-10"/>
<text text-anchor="start" x="429.7258" y="-15.4" font-family="sans-serif" font-size="14.00" fill="#000000"> &#160;Exports</text>
<g id="clust1" class="cluster">
<title>cluster_FeedbackMessageModule</title>
<polygon fill="none" stroke="#000000" stroke-dasharray="1,5" points="138,-70 138,-268 358,-268 358,-70 138,-70"/>
</g>
<g id="clust2" class="cluster">
<title>cluster_FeedbackMessageModule_declarations</title>
<polygon fill="none" stroke="#000000" points="148,-78 148,-130 348,-130 348,-78 148,-78"/>
</g>
<g id="clust5" class="cluster">
<title>cluster_FeedbackMessageModule_exports</title>
<polygon fill="none" stroke="#000000" points="146,-208 146,-260 350,-260 350,-208 146,-208"/>
</g>
<!-- FeedbackMessageComponent -->
<g id="node1" class="node">
<title>FeedbackMessageComponent</title>
<polygon fill="#ffffb3" stroke="#000000" points="339.951,-122 156.049,-122 156.049,-86 339.951,-86 339.951,-122"/>
<text text-anchor="middle" x="248" y="-99.8" font-family="Times,serif" font-size="14.00" fill="#000000">FeedbackMessageComponent</text>
</g>
<!-- FeedbackMessageModule -->
<g id="node2" class="node">
<title>FeedbackMessageModule</title>
<polygon fill="#8dd3c7" stroke="#000000" points="329.1685,-187 326.1685,-191 305.1685,-191 302.1685,-187 166.8315,-187 166.8315,-151 329.1685,-151 329.1685,-187"/>
<text text-anchor="middle" x="248" y="-164.8" font-family="Times,serif" font-size="14.00" fill="#000000">FeedbackMessageModule</text>
</g>
<!-- FeedbackMessageComponent&#45;&gt;FeedbackMessageModule -->
<g id="edge1" class="edge">
<title>FeedbackMessageComponent&#45;&gt;FeedbackMessageModule</title>
<path fill="none" stroke="#000000" d="M248,-122.1061C248,-122.1061 248,-140.991 248,-140.991"/>
<polygon fill="#000000" stroke="#000000" points="244.5001,-140.9909 248,-150.991 251.5001,-140.991 244.5001,-140.9909"/>
</g>
<!-- FeedbackMessageComponent  -->
<g id="node3" class="node">
<title>FeedbackMessageComponent </title>
<polygon fill="#fb8072" stroke="#000000" points="341.9515,-252 154.0485,-252 154.0485,-216 341.9515,-216 341.9515,-252"/>
<text text-anchor="middle" x="248" y="-229.8" font-family="Times,serif" font-size="14.00" fill="#000000">FeedbackMessageComponent </text>
</g>
<!-- FeedbackMessageModule&#45;&gt;FeedbackMessageComponent  -->
<g id="edge2" class="edge">
<title>FeedbackMessageModule&#45;&gt;FeedbackMessageComponent </title>
<path fill="none" stroke="#000000" stroke-dasharray="5,2" d="M248,-187.1061C248,-187.1061 248,-205.991 248,-205.991"/>
<polygon fill="#000000" stroke="#000000" points="244.5001,-205.9909 248,-215.991 251.5001,-205.991 244.5001,-205.9909"/>
</g>
</g>
</svg>
