<?xml version="1.0" encoding="UTF-8" standalone="no"?>
<!DOCTYPE svg PUBLIC "-//W3C//DTD SVG 1.1//EN"
 "http://www.w3.org/Graphics/SVG/1.1/DTD/svg11.dtd">
<!-- Generated by graphviz version 2.40.1 (20161225.0304)
 -->
<!-- Title: dependencies Pages: 1 -->
<svg width="2454pt" height="284pt"
 viewBox="0.00 0.00 2454.00 284.00" xmlns="http://www.w3.org/2000/svg" xmlns:xlink="http://www.w3.org/1999/xlink">
<g id="graph0" class="graph" transform="scale(1 1) rotate(0) translate(4 280)">
<title>dependencies</title>
<polygon fill="#ffffff" stroke="transparent" points="-4,4 -4,-280 2450,-280 2450,4 -4,4"/>
<text text-anchor="start" x="1202.0091" y="-42.4" font-family="sans-serif" font-weight="bold" font-size="14.00" fill="#000000">Legend</text>
<polygon fill="#ffffb3" stroke="transparent" points="989,-10 989,-30 1009,-30 1009,-10 989,-10"/>
<text text-anchor="start" x="1012.629" y="-15.4" font-family="sans-serif" font-size="14.00" fill="#000000"> &#160;Declarations</text>
<polygon fill="#8dd3c7" stroke="transparent" points="1102,-10 1102,-30 1122,-30 1122,-10 1102,-10"/>
<text text-anchor="start" x="1125.7251" y="-15.4" font-family="sans-serif" font-size="14.00" fill="#000000"> &#160;Module</text>
<polygon fill="#80b1d3" stroke="transparent" points="1188,-10 1188,-30 1208,-30 1208,-10 1188,-10"/>
<text text-anchor="start" x="1211.7812" y="-15.4" font-family="sans-serif" font-size="14.00" fill="#000000"> &#160;Bootstrap</text>
<polygon fill="#fdb462" stroke="transparent" points="1285,-10 1285,-30 1305,-30 1305,-10 1285,-10"/>
<text text-anchor="start" x="1308.6732" y="-15.4" font-family="sans-serif" font-size="14.00" fill="#000000"> &#160;Providers</text>
<polygon fill="#fb8072" stroke="transparent" points="1381,-10 1381,-30 1401,-30 1401,-10 1381,-10"/>
<text text-anchor="start" x="1404.7258" y="-15.4" font-family="sans-serif" font-size="14.00" fill="#000000"> &#160;Exports</text>
<g id="clust1" class="cluster">
<title>cluster_MovieModule</title>
<polygon fill="none" stroke="#000000" stroke-dasharray="1,5" points="8,-70 8,-268 2438,-268 2438,-70 8,-70"/>
</g>
<g id="clust2" class="cluster">
<title>cluster_MovieModule_declarations</title>
<polygon fill="none" stroke="#000000" points="1046,-78 1046,-130 2430,-130 2430,-78 1046,-78"/>
</g>
<g id="clust11" class="cluster">
<title>cluster_MovieModule_imports</title>
<polygon fill="none" stroke="#000000" points="16,-78 16,-130 1038,-130 1038,-78 16,-78"/>
</g>
<g id="clust12" class="cluster">
<title>cluster_MovieModule_exports</title>
<polygon fill="none" stroke="#000000" points="938,-208 938,-260 1308,-260 1308,-208 938,-208"/>
</g>
<!-- HomeEmptyComponent -->
<g id="node1" class="node">
<title>HomeEmptyComponent</title>
<polygon fill="#ffffb3" stroke="#000000" points="2422.378,-122 2269.622,-122 2269.622,-86 2422.378,-86 2422.378,-122"/>
<text text-anchor="middle" x="2346" y="-99.8" font-family="Times,serif" font-size="14.00" fill="#000000">HomeEmptyComponent</text>
</g>
<!-- MovieModule -->
<g id="node9" class="node">
<title>MovieModule</title>
<polygon fill="#8dd3c7" stroke="#000000" points="1176.0997,-187 1173.0997,-191 1152.0997,-191 1149.0997,-187 1079.9003,-187 1079.9003,-151 1176.0997,-151 1176.0997,-187"/>
<text text-anchor="middle" x="1128" y="-164.8" font-family="Times,serif" font-size="14.00" fill="#000000">MovieModule</text>
</g>
<!-- HomeEmptyComponent&#45;&gt;MovieModule -->
<g id="edge1" class="edge">
<title>HomeEmptyComponent&#45;&gt;MovieModule</title>
<path fill="none" stroke="#000000" d="M2346,-122.3228C2346,-145.6602 2346,-183 2346,-183 2346,-183 1186.1222,-183 1186.1222,-183"/>
<polygon fill="#000000" stroke="#000000" points="1186.1222,-179.5001 1176.1222,-183 1186.1222,-186.5001 1186.1222,-179.5001"/>
</g>
<!-- MovieCreateComponent -->
<g id="node2" class="node">
<title>MovieCreateComponent</title>
<polygon fill="#ffffb3" stroke="#000000" points="2251.4144,-122 2096.5856,-122 2096.5856,-86 2251.4144,-86 2251.4144,-122"/>
<text text-anchor="middle" x="2174" y="-99.8" font-family="Times,serif" font-size="14.00" fill="#000000">MovieCreateComponent</text>
</g>
<!-- MovieCreateComponent&#45;&gt;MovieModule -->
<g id="edge2" class="edge">
<title>MovieCreateComponent&#45;&gt;MovieModule</title>
<path fill="none" stroke="#000000" d="M2174,-122.2921C2174,-144.2057 2174,-178 2174,-178 2174,-178 1186.3529,-178 1186.3529,-178"/>
<polygon fill="#000000" stroke="#000000" points="1186.353,-174.5001 1176.3529,-178 1186.3529,-181.5001 1186.353,-174.5001"/>
</g>
<!-- MovieEditableComponent -->
<g id="node3" class="node">
<title>MovieEditableComponent</title>
<polygon fill="#ffffb3" stroke="#000000" points="2079.0365,-122 1914.9635,-122 1914.9635,-86 2079.0365,-86 2079.0365,-122"/>
<text text-anchor="middle" x="1997" y="-99.8" font-family="Times,serif" font-size="14.00" fill="#000000">MovieEditableComponent</text>
</g>
<!-- MovieEditableComponent&#45;&gt;MovieModule -->
<g id="edge3" class="edge">
<title>MovieEditableComponent&#45;&gt;MovieModule</title>
<path fill="none" stroke="#000000" d="M1997,-122.0267C1997,-142.7672 1997,-174 1997,-174 1997,-174 1186.2707,-174 1186.2707,-174"/>
<polygon fill="#000000" stroke="#000000" points="1186.2707,-170.5001 1176.2707,-174 1186.2707,-177.5001 1186.2707,-170.5001"/>
</g>
<!-- MovieEmptyComponent -->
<g id="node4" class="node">
<title>MovieEmptyComponent</title>
<polygon fill="#ffffb3" stroke="#000000" points="1896.7162,-122 1741.2838,-122 1741.2838,-86 1896.7162,-86 1896.7162,-122"/>
<text text-anchor="middle" x="1819" y="-99.8" font-family="Times,serif" font-size="14.00" fill="#000000">MovieEmptyComponent</text>
</g>
<!-- MovieEmptyComponent&#45;&gt;MovieModule -->
<g id="edge4" class="edge">
<title>MovieEmptyComponent&#45;&gt;MovieModule</title>
<path fill="none" stroke="#000000" d="M1819,-122.1061C1819,-141.3391 1819,-169 1819,-169 1819,-169 1186.3151,-169 1186.3151,-169"/>
<polygon fill="#000000" stroke="#000000" points="1186.3152,-165.5001 1176.3151,-169 1186.3151,-172.5001 1186.3152,-165.5001"/>
</g>
<!-- MovieListComponent -->
<g id="node5" class="node">
<title>MovieListComponent</title>
<polygon fill="#ffffb3" stroke="#000000" points="1723.661,-122 1584.339,-122 1584.339,-86 1723.661,-86 1723.661,-122"/>
<text text-anchor="middle" x="1654" y="-99.8" font-family="Times,serif" font-size="14.00" fill="#000000">MovieListComponent</text>
</g>
<!-- MovieListComponent&#45;&gt;MovieModule -->
<g id="edge5" class="edge">
<title>MovieListComponent&#45;&gt;MovieModule</title>
<path fill="none" stroke="#000000" d="M1654,-122.302C1654,-140.2699 1654,-165 1654,-165 1654,-165 1186.0734,-165 1186.0734,-165"/>
<polygon fill="#000000" stroke="#000000" points="1186.0734,-161.5001 1176.0734,-165 1186.0734,-168.5001 1186.0734,-161.5001"/>
</g>
<!-- MoviePickerComponent -->
<g id="node6" class="node">
<title>MoviePickerComponent</title>
<polygon fill="#ffffb3" stroke="#000000" points="1565.6456,-122 1412.3544,-122 1412.3544,-86 1565.6456,-86 1565.6456,-122"/>
<text text-anchor="middle" x="1489" y="-99.8" font-family="Times,serif" font-size="14.00" fill="#000000">MoviePickerComponent</text>
</g>
<!-- MoviePickerComponent&#45;&gt;MovieModule -->
<g id="edge6" class="edge">
<title>MoviePickerComponent&#45;&gt;MovieModule</title>
<path fill="none" stroke="#000000" d="M1489,-122.027C1489,-138.3976 1489,-160 1489,-160 1489,-160 1186.3115,-160 1186.3115,-160"/>
<polygon fill="#000000" stroke="#000000" points="1186.3115,-156.5001 1176.3115,-160 1186.3114,-163.5001 1186.3115,-156.5001"/>
</g>
<!-- MovieTitleFormComponent -->
<g id="node7" class="node">
<title>MovieTitleFormComponent</title>
<polygon fill="#ffffb3" stroke="#000000" points="1394.1553,-122 1219.8447,-122 1219.8447,-86 1394.1553,-86 1394.1553,-122"/>
<text text-anchor="middle" x="1307" y="-99.8" font-family="Times,serif" font-size="14.00" fill="#000000">MovieTitleFormComponent</text>
</g>
<!-- MovieTitleFormComponent&#45;&gt;MovieModule -->
<g id="edge7" class="edge">
<title>MovieTitleFormComponent&#45;&gt;MovieModule</title>
<path fill="none" stroke="#000000" d="M1259.6226,-122.1871C1259.6226,-137.1824 1259.6226,-156 1259.6226,-156 1259.6226,-156 1186.264,-156 1186.264,-156"/>
<polygon fill="#000000" stroke="#000000" points="1186.264,-152.5001 1176.264,-156 1186.264,-159.5001 1186.264,-152.5001"/>
</g>
<!-- MovieViewComponent -->
<g id="node8" class="node">
<title>MovieViewComponent</title>
<polygon fill="#ffffb3" stroke="#000000" points="1202.2007,-122 1053.7993,-122 1053.7993,-86 1202.2007,-86 1202.2007,-122"/>
<text text-anchor="middle" x="1128" y="-99.8" font-family="Times,serif" font-size="14.00" fill="#000000">MovieViewComponent</text>
</g>
<!-- MovieViewComponent&#45;&gt;MovieModule -->
<g id="edge8" class="edge">
<title>MovieViewComponent&#45;&gt;MovieModule</title>
<path fill="none" stroke="#000000" d="M1128,-122.1061C1128,-122.1061 1128,-140.991 1128,-140.991"/>
<polygon fill="#000000" stroke="#000000" points="1124.5001,-140.9909 1128,-150.991 1131.5001,-140.991 1124.5001,-140.9909"/>
</g>
<!-- MoviePickerComponent  -->
<g id="node17" class="node">
<title>MoviePickerComponent </title>
<polygon fill="#fb8072" stroke="#000000" points="1299.6453,-252 1142.3547,-252 1142.3547,-216 1299.6453,-216 1299.6453,-252"/>
<text text-anchor="middle" x="1221" y="-229.8" font-family="Times,serif" font-size="14.00" fill="#000000">MoviePickerComponent </text>
</g>
<!-- MovieModule&#45;&gt;MoviePickerComponent  -->
<g id="edge16" class="edge">
<title>MovieModule&#45;&gt;MoviePickerComponent </title>
<path fill="none" stroke="#000000" stroke-dasharray="5,2" d="M1159.2386,-187.1061C1159.2386,-187.1061 1159.2386,-205.991 1159.2386,-205.991"/>
<polygon fill="#000000" stroke="#000000" points="1155.7387,-205.9909 1159.2386,-215.991 1162.7387,-205.991 1155.7387,-205.9909"/>
</g>
<!-- MovieTitleFormComponent  -->
<g id="node18" class="node">
<title>MovieTitleFormComponent </title>
<polygon fill="#fb8072" stroke="#000000" points="1124.1551,-252 945.8449,-252 945.8449,-216 1124.1551,-216 1124.1551,-252"/>
<text text-anchor="middle" x="1035" y="-229.8" font-family="Times,serif" font-size="14.00" fill="#000000">MovieTitleFormComponent </text>
</g>
<!-- MovieModule&#45;&gt;MovieTitleFormComponent  -->
<g id="edge17" class="edge">
<title>MovieModule&#45;&gt;MovieTitleFormComponent </title>
<path fill="none" stroke="#000000" stroke-dasharray="5,2" d="M1102.0138,-187.1061C1102.0138,-187.1061 1102.0138,-205.991 1102.0138,-205.991"/>
<polygon fill="#000000" stroke="#000000" points="1098.5139,-205.9909 1102.0138,-215.991 1105.5139,-205.991 1098.5139,-205.9909"/>
</g>
<!-- MovieCardModule -->
<g id="node10" class="node">
<title>MovieCardModule</title>
<polygon fill="#8dd3c7" stroke="#000000" points="1029.8118,-122 1026.8118,-126 1005.8118,-126 1002.8118,-122 906.1882,-122 906.1882,-86 1029.8118,-86 1029.8118,-122"/>
<text text-anchor="middle" x="968" y="-99.8" font-family="Times,serif" font-size="14.00" fill="#000000">MovieCardModule</text>
</g>
<!-- MovieCardModule&#45;&gt;MovieModule -->
<g id="edge9" class="edge">
<title>MovieCardModule&#45;&gt;MovieModule</title>
<path fill="none" stroke="#000000" d="M987.7891,-122.1871C987.7891,-137.1824 987.7891,-156 987.7891,-156 987.7891,-156 1069.7474,-156 1069.7474,-156"/>
<polygon fill="#000000" stroke="#000000" points="1069.7474,-159.5001 1079.7474,-156 1069.7473,-152.5001 1069.7474,-159.5001"/>
</g>
<!-- MovieDisplayModule -->
<g id="node11" class="node">
<title>MovieDisplayModule</title>
<polygon fill="#8dd3c7" stroke="#000000" points="888.647,-122 885.647,-126 864.647,-126 861.647,-122 749.353,-122 749.353,-86 888.647,-86 888.647,-122"/>
<text text-anchor="middle" x="819" y="-99.8" font-family="Times,serif" font-size="14.00" fill="#000000">MovieDisplayModule</text>
</g>
<!-- MovieDisplayModule&#45;&gt;MovieModule -->
<g id="edge10" class="edge">
<title>MovieDisplayModule&#45;&gt;MovieModule</title>
<path fill="none" stroke="#000000" d="M819,-122.027C819,-138.3976 819,-160 819,-160 819,-160 1069.7188,-160 1069.7188,-160"/>
<polygon fill="#000000" stroke="#000000" points="1069.7188,-163.5001 1079.7188,-160 1069.7187,-156.5001 1069.7188,-163.5001"/>
</g>
<!-- MovieFormModule -->
<g id="node12" class="node">
<title>MovieFormModule</title>
<polygon fill="#8dd3c7" stroke="#000000" points="731.4341,-122 728.4341,-126 707.4341,-126 704.4341,-122 604.5659,-122 604.5659,-86 731.4341,-86 731.4341,-122"/>
<text text-anchor="middle" x="668" y="-99.8" font-family="Times,serif" font-size="14.00" fill="#000000">MovieFormModule</text>
</g>
<!-- MovieFormModule&#45;&gt;MovieModule -->
<g id="edge11" class="edge">
<title>MovieFormModule&#45;&gt;MovieModule</title>
<path fill="none" stroke="#000000" d="M668,-122.302C668,-140.2699 668,-165 668,-165 668,-165 1069.6414,-165 1069.6414,-165"/>
<polygon fill="#000000" stroke="#000000" points="1069.6414,-168.5001 1079.6414,-165 1069.6413,-161.5001 1069.6414,-168.5001"/>
</g>
<!-- MovieImdbSearchModule -->
<g id="node13" class="node">
<title>MovieImdbSearchModule</title>
<polygon fill="#8dd3c7" stroke="#000000" points="586.738,-122 583.738,-126 562.738,-126 559.738,-122 423.262,-122 423.262,-86 586.738,-86 586.738,-122"/>
<text text-anchor="middle" x="505" y="-99.8" font-family="Times,serif" font-size="14.00" fill="#000000">MovieImdbSearchModule</text>
</g>
<!-- MovieImdbSearchModule&#45;&gt;MovieModule -->
<g id="edge12" class="edge">
<title>MovieImdbSearchModule&#45;&gt;MovieModule</title>
<path fill="none" stroke="#000000" d="M505,-122.1061C505,-141.3391 505,-169 505,-169 505,-169 1069.891,-169 1069.891,-169"/>
<polygon fill="#000000" stroke="#000000" points="1069.891,-172.5001 1079.891,-169 1069.8909,-165.5001 1069.891,-172.5001"/>
</g>
<!-- MovieRoutingModule -->
<g id="node14" class="node">
<title>MovieRoutingModule</title>
<polygon fill="#8dd3c7" stroke="#000000" points="405.7176,-122 402.7176,-126 381.7176,-126 378.7176,-122 264.2824,-122 264.2824,-86 405.7176,-86 405.7176,-122"/>
<text text-anchor="middle" x="335" y="-99.8" font-family="Times,serif" font-size="14.00" fill="#000000">MovieRoutingModule</text>
</g>
<!-- MovieRoutingModule&#45;&gt;MovieModule -->
<g id="edge13" class="edge">
<title>MovieRoutingModule&#45;&gt;MovieModule</title>
<path fill="none" stroke="#000000" d="M335,-122.0267C335,-142.7672 335,-174 335,-174 335,-174 1069.8845,-174 1069.8845,-174"/>
<polygon fill="#000000" stroke="#000000" points="1069.8845,-177.5001 1079.8845,-174 1069.8844,-170.5001 1069.8845,-177.5001"/>
</g>
<!-- UiFormModule -->
<g id="node15" class="node">
<title>UiFormModule</title>
<polygon fill="#8dd3c7" stroke="#000000" points="245.8809,-122 242.8809,-126 221.8809,-126 218.8809,-122 142.1191,-122 142.1191,-86 245.8809,-86 245.8809,-122"/>
<text text-anchor="middle" x="194" y="-99.8" font-family="Times,serif" font-size="14.00" fill="#000000">UiFormModule</text>
</g>
<!-- UiFormModule&#45;&gt;MovieModule -->
<g id="edge14" class="edge">
<title>UiFormModule&#45;&gt;MovieModule</title>
<path fill="none" stroke="#000000" d="M194,-122.2921C194,-144.2057 194,-178 194,-178 194,-178 1069.7509,-178 1069.7509,-178"/>
<polygon fill="#000000" stroke="#000000" points="1069.7509,-181.5001 1079.7509,-178 1069.7508,-174.5001 1069.7509,-181.5001"/>
</g>
<!-- UploadModule -->
<g id="node16" class="node">
<title>UploadModule</title>
<polygon fill="#8dd3c7" stroke="#000000" points="124.2619,-122 121.2619,-126 100.2619,-126 97.2619,-122 23.7381,-122 23.7381,-86 124.2619,-86 124.2619,-122"/>
<text text-anchor="middle" x="74" y="-99.8" font-family="Times,serif" font-size="14.00" fill="#000000">UploadModule</text>
</g>
<!-- UploadModule&#45;&gt;MovieModule -->
<g id="edge15" class="edge">
<title>UploadModule&#45;&gt;MovieModule</title>
<path fill="none" stroke="#000000" d="M74,-122.3228C74,-145.6602 74,-183 74,-183 74,-183 1069.6257,-183 1069.6257,-183"/>
<polygon fill="#000000" stroke="#000000" points="1069.6257,-186.5001 1079.6257,-183 1069.6256,-179.5001 1069.6257,-186.5001"/>
</g>
</g>
</svg>
