<?xml version="1.0" encoding="UTF-8" standalone="no"?>
<!DOCTYPE svg PUBLIC "-//W3C//DTD SVG 1.1//EN"
 "http://www.w3.org/Graphics/SVG/1.1/DTD/svg11.dtd">
<!-- Generated by graphviz version 2.40.1 (20161225.0304)
 -->
<!-- Title: dependencies Pages: 1 -->
<svg width="2632pt" height="284pt"
 viewBox="0.00 0.00 2632.00 284.00" xmlns="http://www.w3.org/2000/svg" xmlns:xlink="http://www.w3.org/1999/xlink">
<g id="graph0" class="graph" transform="scale(1 1) rotate(0) translate(4 280)">
<title>dependencies</title>
<polygon fill="#ffffff" stroke="transparent" points="-4,4 -4,-280 2628,-280 2628,4 -4,4"/>
<text text-anchor="start" x="1291.0091" y="-42.4" font-family="sans-serif" font-weight="bold" font-size="14.00" fill="#000000">Legend</text>
<polygon fill="#ffffb3" stroke="transparent" points="1078,-10 1078,-30 1098,-30 1098,-10 1078,-10"/>
<text text-anchor="start" x="1101.629" y="-15.4" font-family="sans-serif" font-size="14.00" fill="#000000"> &#160;Declarations</text>
<polygon fill="#8dd3c7" stroke="transparent" points="1191,-10 1191,-30 1211,-30 1211,-10 1191,-10"/>
<text text-anchor="start" x="1214.7251" y="-15.4" font-family="sans-serif" font-size="14.00" fill="#000000"> &#160;Module</text>
<polygon fill="#80b1d3" stroke="transparent" points="1277,-10 1277,-30 1297,-30 1297,-10 1277,-10"/>
<text text-anchor="start" x="1300.7812" y="-15.4" font-family="sans-serif" font-size="14.00" fill="#000000"> &#160;Bootstrap</text>
<polygon fill="#fdb462" stroke="transparent" points="1374,-10 1374,-30 1394,-30 1394,-10 1374,-10"/>
<text text-anchor="start" x="1397.6732" y="-15.4" font-family="sans-serif" font-size="14.00" fill="#000000"> &#160;Providers</text>
<polygon fill="#fb8072" stroke="transparent" points="1470,-10 1470,-30 1490,-30 1490,-10 1470,-10"/>
<text text-anchor="start" x="1493.7258" y="-15.4" font-family="sans-serif" font-size="14.00" fill="#000000"> &#160;Exports</text>
<g id="clust1" class="cluster">
<title>cluster_MovieFormModule</title>
<polygon fill="none" stroke="#000000" stroke-dasharray="1,5" points="8,-70 8,-268 2616,-268 2616,-70 8,-70"/>
</g>
<g id="clust2" class="cluster">
<title>cluster_MovieFormModule_declarations</title>
<polygon fill="none" stroke="#000000" points="262,-78 262,-130 2608,-130 2608,-78 262,-78"/>
</g>
<g id="clust13" class="cluster">
<title>cluster_MovieFormModule_imports</title>
<polygon fill="none" stroke="#000000" points="16,-78 16,-130 254,-130 254,-78 16,-78"/>
</g>
<g id="clust14" class="cluster">
<title>cluster_MovieFormModule_exports</title>
<polygon fill="none" stroke="#000000" points="1043,-208 1043,-260 1237,-260 1237,-208 1043,-208"/>
</g>
<!-- MovieFormFestivalPrizesComponent -->
<g id="node1" class="node">
<title>MovieFormFestivalPrizesComponent</title>
<polygon fill="#ffffb3" stroke="#000000" points="2600.2519,-122 2373.7481,-122 2373.7481,-86 2600.2519,-86 2600.2519,-122"/>
<text text-anchor="middle" x="2487" y="-99.8" font-family="Times,serif" font-size="14.00" fill="#000000">MovieFormFestivalPrizesComponent</text>
</g>
<!-- MovieFormModule -->
<g id="node11" class="node">
<title>MovieFormModule</title>
<polygon fill="#8dd3c7" stroke="#000000" points="1203.4341,-187 1200.4341,-191 1179.4341,-191 1176.4341,-187 1076.5659,-187 1076.5659,-151 1203.4341,-151 1203.4341,-187"/>
<text text-anchor="middle" x="1140" y="-164.8" font-family="Times,serif" font-size="14.00" fill="#000000">MovieFormModule</text>
</g>
<!-- MovieFormFestivalPrizesComponent&#45;&gt;MovieFormModule -->
<g id="edge1" class="edge">
<title>MovieFormFestivalPrizesComponent&#45;&gt;MovieFormModule</title>
<path fill="none" stroke="#000000" d="M2487,-122.2479C2487,-145.0179 2487,-181 2487,-181 2487,-181 1213.6115,-181 1213.6115,-181"/>
<polygon fill="#000000" stroke="#000000" points="1213.6115,-177.5001 1203.6115,-181 1213.6114,-184.5001 1213.6115,-177.5001"/>
</g>
<!-- MovieFormMainComponent -->
<g id="node2" class="node">
<title>MovieFormMainComponent</title>
<polygon fill="#ffffb3" stroke="#000000" points="2355.766,-122 2178.234,-122 2178.234,-86 2355.766,-86 2355.766,-122"/>
<text text-anchor="middle" x="2267" y="-99.8" font-family="Times,serif" font-size="14.00" fill="#000000">MovieFormMainComponent</text>
</g>
<!-- MovieFormMainComponent&#45;&gt;MovieFormModule -->
<g id="edge2" class="edge">
<title>MovieFormMainComponent&#45;&gt;MovieFormModule</title>
<path fill="none" stroke="#000000" d="M2267,-122.2843C2267,-143.3211 2267,-175 2267,-175 2267,-175 1213.4138,-175 1213.4138,-175"/>
<polygon fill="#000000" stroke="#000000" points="1213.4139,-171.5001 1203.4138,-175 1213.4138,-178.5001 1213.4139,-171.5001"/>
</g>
<!-- MovieFormPromotionalDescriptionComponent -->
<g id="node3" class="node">
<title>MovieFormPromotionalDescriptionComponent</title>
<polygon fill="#ffffb3" stroke="#000000" points="2160.2491,-122 1877.7509,-122 1877.7509,-86 2160.2491,-86 2160.2491,-122"/>
<text text-anchor="middle" x="2019" y="-99.8" font-family="Times,serif" font-size="14.00" fill="#000000">MovieFormPromotionalDescriptionComponent</text>
</g>
<!-- MovieFormPromotionalDescriptionComponent&#45;&gt;MovieFormModule -->
<g id="edge3" class="edge">
<title>MovieFormPromotionalDescriptionComponent&#45;&gt;MovieFormModule</title>
<path fill="none" stroke="#000000" d="M2019,-122.1061C2019,-141.3391 2019,-169 2019,-169 2019,-169 1213.5691,-169 1213.5691,-169"/>
<polygon fill="#000000" stroke="#000000" points="1213.5691,-165.5001 1203.5691,-169 1213.5691,-172.5001 1213.5691,-165.5001"/>
</g>
<!-- MovieFormPromotionalElementsComponent -->
<g id="node4" class="node">
<title>MovieFormPromotionalElementsComponent</title>
<polygon fill="#ffffb3" stroke="#000000" points="1859.5348,-122 1590.4652,-122 1590.4652,-86 1859.5348,-86 1859.5348,-122"/>
<text text-anchor="middle" x="1725" y="-99.8" font-family="Times,serif" font-size="14.00" fill="#000000">MovieFormPromotionalElementsComponent</text>
</g>
<!-- MovieFormPromotionalElementsComponent&#45;&gt;MovieFormModule -->
<g id="edge4" class="edge">
<title>MovieFormPromotionalElementsComponent&#45;&gt;MovieFormModule</title>
<path fill="none" stroke="#000000" d="M1725,-122.0225C1725,-139.3734 1725,-163 1725,-163 1725,-163 1213.4397,-163 1213.4397,-163"/>
<polygon fill="#000000" stroke="#000000" points="1213.4398,-159.5001 1203.4397,-163 1213.4397,-166.5001 1213.4398,-159.5001"/>
</g>
<!-- MovieFormRootComponent -->
<g id="node5" class="node">
<title>MovieFormRootComponent</title>
<polygon fill="#ffffb3" stroke="#000000" points="1572.9438,-122 1397.0562,-122 1397.0562,-86 1572.9438,-86 1572.9438,-122"/>
<text text-anchor="middle" x="1485" y="-99.8" font-family="Times,serif" font-size="14.00" fill="#000000">MovieFormRootComponent</text>
</g>
<!-- MovieFormRootComponent&#45;&gt;MovieFormModule -->
<g id="edge5" class="edge">
<title>MovieFormRootComponent&#45;&gt;MovieFormModule</title>
<path fill="none" stroke="#000000" d="M1485,-122.2396C1485,-137.5706 1485,-157 1485,-157 1485,-157 1213.2783,-157 1213.2783,-157"/>
<polygon fill="#000000" stroke="#000000" points="1213.2784,-153.5001 1203.2783,-157 1213.2783,-160.5001 1213.2784,-153.5001"/>
</g>
<!-- MovieFormSalesAgentDealComponent -->
<g id="node6" class="node">
<title>MovieFormSalesAgentDealComponent</title>
<polygon fill="#ffffb3" stroke="#000000" points="1379.4015,-122 1140.5985,-122 1140.5985,-86 1379.4015,-86 1379.4015,-122"/>
<text text-anchor="middle" x="1260" y="-99.8" font-family="Times,serif" font-size="14.00" fill="#000000">MovieFormSalesAgentDealComponent</text>
</g>
<!-- MovieFormSalesAgentDealComponent&#45;&gt;MovieFormModule -->
<g id="edge6" class="edge">
<title>MovieFormSalesAgentDealComponent&#45;&gt;MovieFormModule</title>
<path fill="none" stroke="#000000" d="M1172.0081,-122.1061C1172.0081,-122.1061 1172.0081,-140.991 1172.0081,-140.991"/>
<polygon fill="#000000" stroke="#000000" points="1168.5081,-140.9909 1172.0081,-150.991 1175.5081,-140.991 1168.5081,-140.9909"/>
</g>
<!-- MovieFormSalesCastComponent -->
<g id="node7" class="node">
<title>MovieFormSalesCastComponent</title>
<polygon fill="#ffffb3" stroke="#000000" points="1122.1497,-122 919.8503,-122 919.8503,-86 1122.1497,-86 1122.1497,-122"/>
<text text-anchor="middle" x="1021" y="-99.8" font-family="Times,serif" font-size="14.00" fill="#000000">MovieFormSalesCastComponent</text>
</g>
<!-- MovieFormSalesCastComponent&#45;&gt;MovieFormModule -->
<g id="edge7" class="edge">
<title>MovieFormSalesCastComponent&#45;&gt;MovieFormModule</title>
<path fill="none" stroke="#000000" d="M1099.554,-122.1061C1099.554,-122.1061 1099.554,-140.991 1099.554,-140.991"/>
<polygon fill="#000000" stroke="#000000" points="1096.0541,-140.9909 1099.554,-150.991 1103.0541,-140.991 1096.0541,-140.9909"/>
</g>
<!-- MovieFormSalesInfoComponent -->
<g id="node8" class="node">
<title>MovieFormSalesInfoComponent</title>
<polygon fill="#ffffb3" stroke="#000000" points="901.5842,-122 700.4158,-122 700.4158,-86 901.5842,-86 901.5842,-122"/>
<text text-anchor="middle" x="801" y="-99.8" font-family="Times,serif" font-size="14.00" fill="#000000">MovieFormSalesInfoComponent</text>
</g>
<!-- MovieFormSalesInfoComponent&#45;&gt;MovieFormModule -->
<g id="edge8" class="edge">
<title>MovieFormSalesInfoComponent&#45;&gt;MovieFormModule</title>
<path fill="none" stroke="#000000" d="M801,-122.2396C801,-137.5706 801,-157 801,-157 801,-157 1066.6344,-157 1066.6344,-157"/>
<polygon fill="#000000" stroke="#000000" points="1066.6344,-160.5001 1076.6344,-157 1066.6343,-153.5001 1066.6344,-160.5001"/>
</g>
<!-- MovieFormStoryComponent -->
<g id="node9" class="node">
<title>MovieFormStoryComponent</title>
<polygon fill="#ffffb3" stroke="#000000" points="682.0504,-122 503.9496,-122 503.9496,-86 682.0504,-86 682.0504,-122"/>
<text text-anchor="middle" x="593" y="-99.8" font-family="Times,serif" font-size="14.00" fill="#000000">MovieFormStoryComponent</text>
</g>
<!-- MovieFormStoryComponent&#45;&gt;MovieFormModule -->
<g id="edge9" class="edge">
<title>MovieFormStoryComponent&#45;&gt;MovieFormModule</title>
<path fill="none" stroke="#000000" d="M593,-122.0225C593,-139.3734 593,-163 593,-163 593,-163 1066.7178,-163 1066.7178,-163"/>
<polygon fill="#000000" stroke="#000000" points="1066.7178,-166.5001 1076.7178,-163 1066.7177,-159.5001 1066.7178,-166.5001"/>
</g>
<!-- MovieFormVersionInfoComponent -->
<g id="node10" class="node">
<title>MovieFormVersionInfoComponent</title>
<polygon fill="#ffffb3" stroke="#000000" points="485.8542,-122 270.1458,-122 270.1458,-86 485.8542,-86 485.8542,-122"/>
<text text-anchor="middle" x="378" y="-99.8" font-family="Times,serif" font-size="14.00" fill="#000000">MovieFormVersionInfoComponent</text>
</g>
<!-- MovieFormVersionInfoComponent&#45;&gt;MovieFormModule -->
<g id="edge10" class="edge">
<title>MovieFormVersionInfoComponent&#45;&gt;MovieFormModule</title>
<path fill="none" stroke="#000000" d="M378,-122.1061C378,-141.3391 378,-169 378,-169 378,-169 1066.6689,-169 1066.6689,-169"/>
<polygon fill="#000000" stroke="#000000" points="1066.6689,-172.5001 1076.6689,-169 1066.6688,-165.5001 1066.6689,-172.5001"/>
</g>
<!-- MovieFormRootComponent  -->
<g id="node14" class="node">
<title>MovieFormRootComponent </title>
<polygon fill="#fb8072" stroke="#000000" points="1229.4432,-252 1050.5568,-252 1050.5568,-216 1229.4432,-216 1229.4432,-252"/>
<text text-anchor="middle" x="1140" y="-229.8" font-family="Times,serif" font-size="14.00" fill="#000000">MovieFormRootComponent </text>
</g>
<!-- MovieFormModule&#45;&gt;MovieFormRootComponent  -->
<g id="edge13" class="edge">
<title>MovieFormModule&#45;&gt;MovieFormRootComponent </title>
<path fill="none" stroke="#000000" stroke-dasharray="5,2" d="M1140,-187.1061C1140,-187.1061 1140,-205.991 1140,-205.991"/>
<polygon fill="#000000" stroke="#000000" points="1136.5001,-205.9909 1140,-215.991 1143.5001,-205.991 1136.5001,-205.9909"/>
</g>
<!-- UiFormModule -->
<g id="node12" class="node">
<title>UiFormModule</title>
<polygon fill="#8dd3c7" stroke="#000000" points="245.8809,-122 242.8809,-126 221.8809,-126 218.8809,-122 142.1191,-122 142.1191,-86 245.8809,-86 245.8809,-122"/>
<text text-anchor="middle" x="194" y="-99.8" font-family="Times,serif" font-size="14.00" fill="#000000">UiFormModule</text>
</g>
<!-- UiFormModule&#45;&gt;MovieFormModule -->
<g id="edge11" class="edge">
<title>UiFormModule&#45;&gt;MovieFormModule</title>
<path fill="none" stroke="#000000" d="M194,-122.2843C194,-143.3211 194,-175 194,-175 194,-175 1066.4613,-175 1066.4613,-175"/>
<polygon fill="#000000" stroke="#000000" points="1066.4614,-178.5001 1076.4613,-175 1066.4613,-171.5001 1066.4614,-178.5001"/>
</g>
<!-- UploadModule -->
<g id="node13" class="node">
<title>UploadModule</title>
<polygon fill="#8dd3c7" stroke="#000000" points="124.2619,-122 121.2619,-126 100.2619,-126 97.2619,-122 23.7381,-122 23.7381,-86 124.2619,-86 124.2619,-122"/>
<text text-anchor="middle" x="74" y="-99.8" font-family="Times,serif" font-size="14.00" fill="#000000">UploadModule</text>
</g>
<!-- UploadModule&#45;&gt;MovieFormModule -->
<g id="edge12" class="edge">
<title>UploadModule&#45;&gt;MovieFormModule</title>
<path fill="none" stroke="#000000" d="M74,-122.2479C74,-145.0179 74,-181 74,-181 74,-181 1066.5092,-181 1066.5092,-181"/>
<polygon fill="#000000" stroke="#000000" points="1066.5093,-184.5001 1076.5092,-181 1066.5092,-177.5001 1066.5093,-184.5001"/>
</g>
</g>
</svg>
