<?xml version="1.0" encoding="UTF-8" standalone="no"?>
<!DOCTYPE svg PUBLIC "-//W3C//DTD SVG 1.1//EN"
 "http://www.w3.org/Graphics/SVG/1.1/DTD/svg11.dtd">
<!-- Generated by graphviz version 2.40.1 (20161225.0304)
 -->
<!-- Title: dependencies Pages: 1 -->
<svg width="504pt" height="284pt"
 viewBox="0.00 0.00 504.00 284.00" xmlns="http://www.w3.org/2000/svg" xmlns:xlink="http://www.w3.org/1999/xlink">
<g id="graph0" class="graph" transform="scale(1 1) rotate(0) translate(4 280)">
<title>dependencies</title>
<polygon fill="#ffffff" stroke="transparent" points="-4,4 -4,-280 500,-280 500,4 -4,4"/>
<text text-anchor="start" x="227.0091" y="-42.4" font-family="sans-serif" font-weight="bold" font-size="14.00" fill="#000000">Legend</text>
<polygon fill="#ffffb3" stroke="transparent" points="14,-10 14,-30 34,-30 34,-10 14,-10"/>
<text text-anchor="start" x="37.629" y="-15.4" font-family="sans-serif" font-size="14.00" fill="#000000"> &#160;Declarations</text>
<polygon fill="#8dd3c7" stroke="transparent" points="127,-10 127,-30 147,-30 147,-10 127,-10"/>
<text text-anchor="start" x="150.7251" y="-15.4" font-family="sans-serif" font-size="14.00" fill="#000000"> &#160;Module</text>
<polygon fill="#80b1d3" stroke="transparent" points="213,-10 213,-30 233,-30 233,-10 213,-10"/>
<text text-anchor="start" x="236.7812" y="-15.4" font-family="sans-serif" font-size="14.00" fill="#000000"> &#160;Bootstrap</text>
<polygon fill="#fdb462" stroke="transparent" points="310,-10 310,-30 330,-30 330,-10 310,-10"/>
<text text-anchor="start" x="333.6732" y="-15.4" font-family="sans-serif" font-size="14.00" fill="#000000"> &#160;Providers</text>
<polygon fill="#fb8072" stroke="transparent" points="406,-10 406,-30 426,-30 426,-10 406,-10"/>
<text text-anchor="start" x="429.7258" y="-15.4" font-family="sans-serif" font-size="14.00" fill="#000000"> &#160;Exports</text>
<g id="clust1" class="cluster">
<title>cluster_NotificationModule</title>
<polygon fill="none" stroke="#000000" stroke-dasharray="1,5" points="50.5,-70 50.5,-268 445.5,-268 445.5,-70 50.5,-70"/>
</g>
<g id="clust2" class="cluster">
<title>cluster_NotificationModule_declarations</title>
<polygon fill="none" stroke="#000000" points="58.5,-78 58.5,-130 437.5,-130 437.5,-78 58.5,-78"/>
</g>
<g id="clust6" class="cluster">
<title>cluster_NotificationModule_exports</title>
<polygon fill="none" stroke="#000000" points="152.5,-208 152.5,-260 342.5,-260 342.5,-208 152.5,-208"/>
</g>
<!-- NotificationItemComponent -->
<g id="node1" class="node">
<title>NotificationItemComponent</title>
<polygon fill="#ffffb3" stroke="#000000" points="429.6386,-122 255.3614,-122 255.3614,-86 429.6386,-86 429.6386,-122"/>
<text text-anchor="middle" x="342.5" y="-99.8" font-family="Times,serif" font-size="14.00" fill="#000000">NotificationItemComponent</text>
</g>
<!-- NotificationModule -->
<g id="node3" class="node">
<title>NotificationModule</title>
<polygon fill="#8dd3c7" stroke="#000000" points="311.1994,-187 308.1994,-191 287.1994,-191 284.1994,-187 183.8006,-187 183.8006,-151 311.1994,-151 311.1994,-187"/>
<text text-anchor="middle" x="247.5" y="-164.8" font-family="Times,serif" font-size="14.00" fill="#000000">NotificationModule</text>
</g>
<!-- NotificationItemComponent&#45;&gt;NotificationModule -->
<g id="edge1" class="edge">
<title>NotificationItemComponent&#45;&gt;NotificationModule</title>
<path fill="none" stroke="#000000" d="M283.1403,-122.1061C283.1403,-122.1061 283.1403,-140.991 283.1403,-140.991"/>
<polygon fill="#000000" stroke="#000000" points="279.6403,-140.9909 283.1403,-150.991 286.6403,-140.991 279.6403,-140.9909"/>
</g>
<!-- NotificationListComponent -->
<g id="node2" class="node">
<title>NotificationListComponent</title>
<polygon fill="#ffffb3" stroke="#000000" points="236.7604,-122 66.2396,-122 66.2396,-86 236.7604,-86 236.7604,-122"/>
<text text-anchor="middle" x="151.5" y="-99.8" font-family="Times,serif" font-size="14.00" fill="#000000">NotificationListComponent</text>
</g>
<!-- NotificationListComponent&#45;&gt;NotificationModule -->
<g id="edge2" class="edge">
<title>NotificationListComponent&#45;&gt;NotificationModule</title>
<path fill="none" stroke="#000000" d="M210.3903,-122.1061C210.3903,-122.1061 210.3903,-140.991 210.3903,-140.991"/>
<polygon fill="#000000" stroke="#000000" points="206.8903,-140.9909 210.3903,-150.991 213.8903,-140.991 206.8903,-140.9909"/>
</g>
<!-- NotificationListComponent  -->
<g id="node4" class="node">
<title>NotificationListComponent </title>
<polygon fill="#fb8072" stroke="#000000" points="334.7604,-252 160.2396,-252 160.2396,-216 334.7604,-216 334.7604,-252"/>
<text text-anchor="middle" x="247.5" y="-229.8" font-family="Times,serif" font-size="14.00" fill="#000000">NotificationListComponent </text>
</g>
<!-- NotificationModule&#45;&gt;NotificationListComponent  -->
<g id="edge3" class="edge">
<title>NotificationModule&#45;&gt;NotificationListComponent </title>
<path fill="none" stroke="#000000" stroke-dasharray="5,2" d="M247.5,-187.1061C247.5,-187.1061 247.5,-205.991 247.5,-205.991"/>
<polygon fill="#000000" stroke="#000000" points="244.0001,-205.9909 247.5,-215.991 251.0001,-205.991 244.0001,-205.9909"/>
</g>
</g>
</svg>
