<?xml version="1.0" encoding="UTF-8" standalone="no"?>
<!DOCTYPE svg PUBLIC "-//W3C//DTD SVG 1.1//EN"
 "http://www.w3.org/Graphics/SVG/1.1/DTD/svg11.dtd">
<!-- Generated by graphviz version 2.40.1 (20161225.0304)
 -->
<!-- Title: dependencies Pages: 1 -->
<svg width="504pt" height="284pt"
 viewBox="0.00 0.00 504.00 284.00" xmlns="http://www.w3.org/2000/svg" xmlns:xlink="http://www.w3.org/1999/xlink">
<g id="graph0" class="graph" transform="scale(1 1) rotate(0) translate(4 280)">
<title>dependencies</title>
<polygon fill="#ffffff" stroke="transparent" points="-4,4 -4,-280 500,-280 500,4 -4,4"/>
<text text-anchor="start" x="227.0091" y="-42.4" font-family="sans-serif" font-weight="bold" font-size="14.00" fill="#000000">Legend</text>
<polygon fill="#ffffb3" stroke="transparent" points="14,-10 14,-30 34,-30 34,-10 14,-10"/>
<text text-anchor="start" x="37.629" y="-15.4" font-family="sans-serif" font-size="14.00" fill="#000000"> &#160;Declarations</text>
<polygon fill="#8dd3c7" stroke="transparent" points="127,-10 127,-30 147,-30 147,-10 127,-10"/>
<text text-anchor="start" x="150.7251" y="-15.4" font-family="sans-serif" font-size="14.00" fill="#000000"> &#160;Module</text>
<polygon fill="#80b1d3" stroke="transparent" points="213,-10 213,-30 233,-30 233,-10 213,-10"/>
<text text-anchor="start" x="236.7812" y="-15.4" font-family="sans-serif" font-size="14.00" fill="#000000"> &#160;Bootstrap</text>
<polygon fill="#fdb462" stroke="transparent" points="310,-10 310,-30 330,-30 330,-10 310,-10"/>
<text text-anchor="start" x="333.6732" y="-15.4" font-family="sans-serif" font-size="14.00" fill="#000000"> &#160;Providers</text>
<polygon fill="#fb8072" stroke="transparent" points="406,-10 406,-30 426,-30 426,-10 406,-10"/>
<text text-anchor="start" x="429.7258" y="-15.4" font-family="sans-serif" font-size="14.00" fill="#000000"> &#160;Exports</text>
<g id="clust1" class="cluster">
<title>cluster_IpModule</title>
<polygon fill="none" stroke="#000000" stroke-dasharray="1,5" points="102,-70 102,-268 394,-268 394,-70 102,-70"/>
</g>
<g id="clust2" class="cluster">
<title>cluster_IpModule_declarations</title>
<polygon fill="none" stroke="#000000" points="113,-78 113,-130 383,-130 383,-78 113,-78"/>
</g>
<g id="clust6" class="cluster">
<title>cluster_IpModule_exports</title>
<polygon fill="none" stroke="#000000" points="110,-208 110,-260 386,-260 386,-208 110,-208"/>
</g>
<!-- AddComponent -->
<g id="node1" class="node">
<title>AddComponent</title>
<polygon fill="#ffffb3" stroke="#000000" points="374.9399,-122 269.0601,-122 269.0601,-86 374.9399,-86 374.9399,-122"/>
<text text-anchor="middle" x="322" y="-99.8" font-family="Times,serif" font-size="14.00" fill="#000000">AddComponent</text>
</g>
<!-- IpModule -->
<g id="node3" class="node">
<title>IpModule</title>
<polygon fill="#8dd3c7" stroke="#000000" points="222.7107,-187 219.7107,-191 198.7107,-191 195.7107,-187 151.2893,-187 151.2893,-151 222.7107,-151 222.7107,-187"/>
<text text-anchor="middle" x="187" y="-164.8" font-family="Times,serif" font-size="14.00" fill="#000000">IpModule</text>
</g>
<!-- AddComponent&#45;&gt;IpModule -->
<g id="edge1" class="edge">
<title>AddComponent&#45;&gt;IpModule</title>
<path fill="none" stroke="#000000" d="M339.6565,-122.0225C339.6565,-139.3734 339.6565,-163 339.6565,-163 339.6565,-163 232.7912,-163 232.7912,-163"/>
<polygon fill="#000000" stroke="#000000" points="232.7912,-159.5001 222.7912,-163 232.7911,-166.5001 232.7912,-159.5001"/>
</g>
<!-- ExplorerComponent -->
<g id="node2" class="node">
<title>ExplorerComponent</title>
<polygon fill="#ffffb3" stroke="#000000" points="251.3118,-122 120.6882,-122 120.6882,-86 251.3118,-86 251.3118,-122"/>
<text text-anchor="middle" x="186" y="-99.8" font-family="Times,serif" font-size="14.00" fill="#000000">ExplorerComponent</text>
</g>
<!-- ExplorerComponent&#45;&gt;IpModule -->
<g id="edge2" class="edge">
<title>ExplorerComponent&#45;&gt;IpModule</title>
<path fill="none" stroke="#000000" d="M187,-122.1061C187,-122.1061 187,-140.991 187,-140.991"/>
<polygon fill="#000000" stroke="#000000" points="183.5001,-140.9909 187,-150.991 190.5001,-140.991 183.5001,-140.9909"/>
</g>
<!-- AddComponent  -->
<g id="node4" class="node">
<title>AddComponent </title>
<polygon fill="#fb8072" stroke="#000000" points="378.439,-252 269.561,-252 269.561,-216 378.439,-216 378.439,-252"/>
<text text-anchor="middle" x="324" y="-229.8" font-family="Times,serif" font-size="14.00" fill="#000000">AddComponent </text>
</g>
<!-- IpModule&#45;&gt;AddComponent  -->
<g id="edge3" class="edge">
<title>IpModule&#45;&gt;AddComponent </title>
<path fill="none" stroke="#000000" stroke-dasharray="5,2" d="M222.9209,-175C257.503,-175 304.5935,-175 304.5935,-175 304.5935,-175 304.5935,-205.9775 304.5935,-205.9775"/>
<polygon fill="#000000" stroke="#000000" points="301.0936,-205.9774 304.5935,-215.9775 308.0936,-205.9775 301.0936,-205.9774"/>
</g>
<!-- ExplorerComponent  -->
<g id="node5" class="node">
<title>ExplorerComponent </title>
<polygon fill="#fb8072" stroke="#000000" points="251.8115,-252 118.1885,-252 118.1885,-216 251.8115,-216 251.8115,-252"/>
<text text-anchor="middle" x="185" y="-229.8" font-family="Times,serif" font-size="14.00" fill="#000000">ExplorerComponent </text>
</g>
<!-- IpModule&#45;&gt;ExplorerComponent  -->
<g id="edge4" class="edge">
<title>IpModule&#45;&gt;ExplorerComponent </title>
<path fill="none" stroke="#000000" stroke-dasharray="5,2" d="M187,-187.1061C187,-187.1061 187,-205.991 187,-205.991"/>
<polygon fill="#000000" stroke="#000000" points="183.5001,-205.9909 187,-215.991 190.5001,-205.991 183.5001,-205.9909"/>
</g>
</g>
</svg>
