<?xml version="1.0" encoding="UTF-8" standalone="no"?>
<!DOCTYPE svg PUBLIC "-//W3C//DTD SVG 1.1//EN"
 "http://www.w3.org/Graphics/SVG/1.1/DTD/svg11.dtd">
<!-- Generated by graphviz version 2.40.1 (20161225.0304)
 -->
<!-- Title: dependencies Pages: 1 -->
<svg width="1008pt" height="211pt"
 viewBox="0.00 0.00 1008.00 211.00" xmlns="http://www.w3.org/2000/svg" xmlns:xlink="http://www.w3.org/1999/xlink">
<g id="graph0" class="graph" transform="scale(1 1) rotate(0) translate(4 207)">
<title>dependencies</title>
<polygon fill="#ffffff" stroke="transparent" points="-4,4 -4,-207 1004,-207 1004,4 -4,4"/>
<text text-anchor="start" x="479.0091" y="-42.4" font-family="sans-serif" font-weight="bold" font-size="14.00" fill="#000000">Legend</text>
<polygon fill="#ffffb3" stroke="transparent" points="266,-10 266,-30 286,-30 286,-10 266,-10"/>
<text text-anchor="start" x="289.629" y="-15.4" font-family="sans-serif" font-size="14.00" fill="#000000"> &#160;Declarations</text>
<polygon fill="#8dd3c7" stroke="transparent" points="379,-10 379,-30 399,-30 399,-10 379,-10"/>
<text text-anchor="start" x="402.7251" y="-15.4" font-family="sans-serif" font-size="14.00" fill="#000000"> &#160;Module</text>
<polygon fill="#80b1d3" stroke="transparent" points="465,-10 465,-30 485,-30 485,-10 465,-10"/>
<text text-anchor="start" x="488.7812" y="-15.4" font-family="sans-serif" font-size="14.00" fill="#000000"> &#160;Bootstrap</text>
<polygon fill="#fdb462" stroke="transparent" points="562,-10 562,-30 582,-30 582,-10 562,-10"/>
<text text-anchor="start" x="585.6732" y="-15.4" font-family="sans-serif" font-size="14.00" fill="#000000"> &#160;Providers</text>
<polygon fill="#fb8072" stroke="transparent" points="658,-10 658,-30 678,-30 678,-10 658,-10"/>
<text text-anchor="start" x="681.7258" y="-15.4" font-family="sans-serif" font-size="14.00" fill="#000000"> &#160;Exports</text>
<g id="clust1" class="cluster">
<title>cluster_MarketplaceHomeModule</title>
<polygon fill="none" stroke="#000000" stroke-dasharray="1,5" points="8,-70 8,-195 992,-195 992,-70 8,-70"/>
</g>
<g id="clust2" class="cluster">
<title>cluster_MarketplaceHomeModule_declarations</title>
<polygon fill="none" stroke="#000000" points="782,-78 782,-130 984,-130 984,-78 782,-78"/>
</g>
<g id="clust4" class="cluster">
<title>cluster_MarketplaceHomeModule_imports</title>
<polygon fill="none" stroke="#000000" points="16,-78 16,-130 774,-130 774,-78 16,-78"/>
</g>
<!-- MarketplaceHomeComponent -->
<g id="node1" class="node">
<title>MarketplaceHomeComponent</title>
<polygon fill="#ffffb3" stroke="#000000" points="975.5043,-122 790.4957,-122 790.4957,-86 975.5043,-86 975.5043,-122"/>
<text text-anchor="middle" x="883" y="-99.8" font-family="Times,serif" font-size="14.00" fill="#000000">MarketplaceHomeComponent</text>
</g>
<!-- MarketplaceHomeModule -->
<g id="node2" class="node">
<title>MarketplaceHomeModule</title>
<polygon fill="#8dd3c7" stroke="#000000" points="587.7212,-187 584.7212,-191 563.7212,-191 560.7212,-187 424.2788,-187 424.2788,-151 587.7212,-151 587.7212,-187"/>
<text text-anchor="middle" x="506" y="-164.8" font-family="Times,serif" font-size="14.00" fill="#000000">MarketplaceHomeModule</text>
</g>
<!-- MarketplaceHomeComponent&#45;&gt;MarketplaceHomeModule -->
<g id="edge1" class="edge">
<title>MarketplaceHomeComponent&#45;&gt;MarketplaceHomeModule</title>
<path fill="none" stroke="#000000" d="M883,-122.2843C883,-143.3211 883,-175 883,-175 883,-175 597.8034,-175 597.8034,-175"/>
<polygon fill="#000000" stroke="#000000" points="597.8034,-171.5001 587.8034,-175 597.8034,-178.5001 597.8034,-171.5001"/>
</g>
<!-- CommonModule -->
<g id="node3" class="node">
<title>CommonModule</title>
<polygon fill="#8dd3c7" stroke="#000000" points="765.6681,-122 762.6681,-126 741.6681,-126 738.6681,-122 654.3319,-122 654.3319,-86 765.6681,-86 765.6681,-122"/>
<text text-anchor="middle" x="710" y="-99.8" font-family="Times,serif" font-size="14.00" fill="#000000">CommonModule</text>
</g>
<!-- CommonModule&#45;&gt;MarketplaceHomeModule -->
<g id="edge2" class="edge">
<title>CommonModule&#45;&gt;MarketplaceHomeModule</title>
<path fill="none" stroke="#000000" d="M710,-122.0225C710,-139.3734 710,-163 710,-163 710,-163 597.7992,-163 597.7992,-163"/>
<polygon fill="#000000" stroke="#000000" points="597.7992,-159.5001 587.7992,-163 597.7991,-166.5001 597.7992,-159.5001"/>
</g>
<!-- MatButtonModule -->
<g id="node4" class="node">
<title>MatButtonModule</title>
<polygon fill="#8dd3c7" stroke="#000000" points="636.2176,-122 633.2176,-126 612.2176,-126 609.2176,-122 515.7824,-122 515.7824,-86 636.2176,-86 636.2176,-122"/>
<text text-anchor="middle" x="576" y="-99.8" font-family="Times,serif" font-size="14.00" fill="#000000">MatButtonModule</text>
</g>
<!-- MatButtonModule&#45;&gt;MarketplaceHomeModule -->
<g id="edge3" class="edge">
<title>MatButtonModule&#45;&gt;MarketplaceHomeModule</title>
<path fill="none" stroke="#000000" d="M551.8759,-122.1061C551.8759,-122.1061 551.8759,-140.991 551.8759,-140.991"/>
<polygon fill="#000000" stroke="#000000" points="548.376,-140.9909 551.8759,-150.991 555.376,-140.991 548.376,-140.9909"/>
</g>
<!-- FlexLayoutModule -->
<g id="node5" class="node">
<title>FlexLayoutModule</title>
<polygon fill="#8dd3c7" stroke="#000000" points="498.0954,-122 495.0954,-126 474.0954,-126 471.0954,-122 373.9046,-122 373.9046,-86 498.0954,-86 498.0954,-122"/>
<text text-anchor="middle" x="436" y="-99.8" font-family="Times,serif" font-size="14.00" fill="#000000">FlexLayoutModule</text>
</g>
<!-- FlexLayoutModule&#45;&gt;MarketplaceHomeModule -->
<g id="edge4" class="edge">
<title>FlexLayoutModule&#45;&gt;MarketplaceHomeModule</title>
<path fill="none" stroke="#000000" d="M461.0936,-122.1061C461.0936,-122.1061 461.0936,-140.991 461.0936,-140.991"/>
<polygon fill="#000000" stroke="#000000" points="457.5937,-140.9909 461.0936,-150.991 464.5937,-140.991 457.5937,-140.9909"/>
</g>
<!-- MatCarouselModule -->
<g id="node6" class="node">
<title>MatCarouselModule</title>
<polygon fill="#8dd3c7" stroke="#000000" points="355.8613,-122 352.8613,-126 331.8613,-126 328.8613,-122 224.1387,-122 224.1387,-86 355.8613,-86 355.8613,-122"/>
<text text-anchor="middle" x="290" y="-99.8" font-family="Times,serif" font-size="14.00" fill="#000000">MatCarouselModule</text>
</g>
<!-- MatCarouselModule&#45;&gt;MarketplaceHomeModule -->
<g id="edge5" class="edge">
<title>MatCarouselModule&#45;&gt;MarketplaceHomeModule</title>
<path fill="none" stroke="#000000" d="M290,-122.0225C290,-139.3734 290,-163 290,-163 290,-163 414.0317,-163 414.0317,-163"/>
<polygon fill="#000000" stroke="#000000" points="414.0317,-166.5001 424.0317,-163 414.0316,-159.5001 414.0317,-166.5001"/>
</g>
<!-- RouterModule.forChild(args) -->
<g id="node7" class="node">
<title>RouterModule.forChild(args)</title>
<polygon fill="#8dd3c7" stroke="#000000" points="205.7323,-122 202.7323,-126 181.7323,-126 178.7323,-122 24.2677,-122 24.2677,-86 205.7323,-86 205.7323,-122"/>
<text text-anchor="middle" x="115" y="-99.8" font-family="Times,serif" font-size="14.00" fill="#000000">RouterModule.forChild(args)</text>
</g>
<!-- RouterModule.forChild(args)&#45;&gt;MarketplaceHomeModule -->
<g id="edge6" class="edge">
<title>RouterModule.forChild(args)&#45;&gt;MarketplaceHomeModule</title>
<path fill="none" stroke="#000000" d="M115,-122.2843C115,-143.3211 115,-175 115,-175 115,-175 414.0336,-175 414.0336,-175"/>
<polygon fill="#000000" stroke="#000000" points="414.0336,-178.5001 424.0336,-175 414.0336,-171.5001 414.0336,-178.5001"/>
</g>
</g>
</svg>
