<?xml version="1.0" encoding="UTF-8" standalone="no"?>
<!DOCTYPE svg PUBLIC "-//W3C//DTD SVG 1.1//EN"
 "http://www.w3.org/Graphics/SVG/1.1/DTD/svg11.dtd">
<!-- Generated by graphviz version 2.40.1 (20161225.0304)
 -->
<!-- Title: dependencies Pages: 1 -->
<svg width="2272pt" height="284pt"
 viewBox="0.00 0.00 2272.00 284.00" xmlns="http://www.w3.org/2000/svg" xmlns:xlink="http://www.w3.org/1999/xlink">
<g id="graph0" class="graph" transform="scale(1 1) rotate(0) translate(4 280)">
<title>dependencies</title>
<polygon fill="#ffffff" stroke="transparent" points="-4,4 -4,-280 2268,-280 2268,4 -4,4"/>
<text text-anchor="start" x="1111.0091" y="-42.4" font-family="sans-serif" font-weight="bold" font-size="14.00" fill="#000000">Legend</text>
<polygon fill="#ffffb3" stroke="transparent" points="898,-10 898,-30 918,-30 918,-10 898,-10"/>
<text text-anchor="start" x="921.629" y="-15.4" font-family="sans-serif" font-size="14.00" fill="#000000"> &#160;Declarations</text>
<polygon fill="#8dd3c7" stroke="transparent" points="1011,-10 1011,-30 1031,-30 1031,-10 1011,-10"/>
<text text-anchor="start" x="1034.7251" y="-15.4" font-family="sans-serif" font-size="14.00" fill="#000000"> &#160;Module</text>
<polygon fill="#80b1d3" stroke="transparent" points="1097,-10 1097,-30 1117,-30 1117,-10 1097,-10"/>
<text text-anchor="start" x="1120.7812" y="-15.4" font-family="sans-serif" font-size="14.00" fill="#000000"> &#160;Bootstrap</text>
<polygon fill="#fdb462" stroke="transparent" points="1194,-10 1194,-30 1214,-30 1214,-10 1194,-10"/>
<text text-anchor="start" x="1217.6732" y="-15.4" font-family="sans-serif" font-size="14.00" fill="#000000"> &#160;Providers</text>
<polygon fill="#fb8072" stroke="transparent" points="1290,-10 1290,-30 1310,-30 1310,-10 1290,-10"/>
<text text-anchor="start" x="1313.7258" y="-15.4" font-family="sans-serif" font-size="14.00" fill="#000000"> &#160;Exports</text>
<g id="clust1" class="cluster">
<title>cluster_MovieModule</title>
<polygon fill="none" stroke="#000000" stroke-dasharray="1,5" points="8,-70 8,-268 2256,-268 2256,-70 8,-70"/>
</g>
<g id="clust2" class="cluster">
<title>cluster_MovieModule_declarations</title>
<polygon fill="none" stroke="#000000" points="1046,-78 1046,-130 2248,-130 2248,-78 1046,-78"/>
</g>
<g id="clust10" class="cluster">
<title>cluster_MovieModule_imports</title>
<polygon fill="none" stroke="#000000" points="16,-78 16,-130 1038,-130 1038,-78 16,-78"/>
</g>
<g id="clust11" class="cluster">
<title>cluster_MovieModule_exports</title>
<polygon fill="none" stroke="#000000" points="858,-208 858,-260 1228,-260 1228,-208 858,-208"/>
</g>
<!-- HomeEmptyComponent -->
<g id="node1" class="node">
<title>HomeEmptyComponent</title>
<polygon fill="#ffffb3" stroke="#000000" points="2240.378,-122 2087.622,-122 2087.622,-86 2240.378,-86 2240.378,-122"/>
<text text-anchor="middle" x="2164" y="-99.8" font-family="Times,serif" font-size="14.00" fill="#000000">HomeEmptyComponent</text>
</g>
<!-- MovieModule -->
<g id="node8" class="node">
<title>MovieModule</title>
<polygon fill="#8dd3c7" stroke="#000000" points="1096.0997,-187 1093.0997,-191 1072.0997,-191 1069.0997,-187 999.9003,-187 999.9003,-151 1096.0997,-151 1096.0997,-187"/>
<text text-anchor="middle" x="1048" y="-164.8" font-family="Times,serif" font-size="14.00" fill="#000000">MovieModule</text>
</g>
<!-- HomeEmptyComponent&#45;&gt;MovieModule -->
<g id="edge1" class="edge">
<title>HomeEmptyComponent&#45;&gt;MovieModule</title>
<path fill="none" stroke="#000000" d="M2164,-122.0908C2164,-145.1328 2164,-182 2164,-182 2164,-182 1106.3113,-182 1106.3113,-182"/>
<polygon fill="#000000" stroke="#000000" points="1106.3114,-178.5001 1096.3113,-182 1106.3113,-185.5001 1106.3114,-178.5001"/>
</g>
<!-- MovieCreateComponent -->
<g id="node2" class="node">
<title>MovieCreateComponent</title>
<polygon fill="#ffffb3" stroke="#000000" points="2069.4144,-122 1914.5856,-122 1914.5856,-86 2069.4144,-86 2069.4144,-122"/>
<text text-anchor="middle" x="1992" y="-99.8" font-family="Times,serif" font-size="14.00" fill="#000000">MovieCreateComponent</text>
</g>
<!-- MovieCreateComponent&#45;&gt;MovieModule -->
<g id="edge2" class="edge">
<title>MovieCreateComponent&#45;&gt;MovieModule</title>
<path fill="none" stroke="#000000" d="M1992,-122.0449C1992,-143.6623 1992,-177 1992,-177 1992,-177 1106.1109,-177 1106.1109,-177"/>
<polygon fill="#000000" stroke="#000000" points="1106.1109,-173.5001 1096.1109,-177 1106.1109,-180.5001 1106.1109,-173.5001"/>
</g>
<!-- MovieEmptyComponent -->
<g id="node3" class="node">
<title>MovieEmptyComponent</title>
<polygon fill="#ffffb3" stroke="#000000" points="1896.7162,-122 1741.2838,-122 1741.2838,-86 1896.7162,-86 1896.7162,-122"/>
<text text-anchor="middle" x="1819" y="-99.8" font-family="Times,serif" font-size="14.00" fill="#000000">MovieEmptyComponent</text>
</g>
<!-- MovieEmptyComponent&#45;&gt;MovieModule -->
<g id="edge3" class="edge">
<title>MovieEmptyComponent&#45;&gt;MovieModule</title>
<path fill="none" stroke="#000000" d="M1819,-122.2228C1819,-142.3652 1819,-172 1819,-172 1819,-172 1106.2295,-172 1106.2295,-172"/>
<polygon fill="#000000" stroke="#000000" points="1106.2295,-168.5001 1096.2295,-172 1106.2295,-175.5001 1106.2295,-168.5001"/>
</g>
<!-- MovieListComponent -->
<g id="node4" class="node">
<title>MovieListComponent</title>
<polygon fill="#ffffb3" stroke="#000000" points="1723.661,-122 1584.339,-122 1584.339,-86 1723.661,-86 1723.661,-122"/>
<text text-anchor="middle" x="1654" y="-99.8" font-family="Times,serif" font-size="14.00" fill="#000000">MovieListComponent</text>
</g>
<!-- MovieListComponent&#45;&gt;MovieModule -->
<g id="edge4" class="edge">
<title>MovieListComponent&#45;&gt;MovieModule</title>
<path fill="none" stroke="#000000" d="M1654,-122.2222C1654,-140.8285 1654,-167 1654,-167 1654,-167 1106.0583,-167 1106.0583,-167"/>
<polygon fill="#000000" stroke="#000000" points="1106.0584,-163.5001 1096.0583,-167 1106.0583,-170.5001 1106.0584,-163.5001"/>
</g>
<!-- MoviePickerComponent -->
<g id="node5" class="node">
<title>MoviePickerComponent</title>
<polygon fill="#ffffb3" stroke="#000000" points="1565.6456,-122 1412.3544,-122 1412.3544,-86 1565.6456,-86 1565.6456,-122"/>
<text text-anchor="middle" x="1489" y="-99.8" font-family="Times,serif" font-size="14.00" fill="#000000">MoviePickerComponent</text>
</g>
<!-- MoviePickerComponent&#45;&gt;MovieModule -->
<g id="edge5" class="edge">
<title>MoviePickerComponent&#45;&gt;MovieModule</title>
<path fill="none" stroke="#000000" d="M1489,-122.0336C1489,-139.0597 1489,-162 1489,-162 1489,-162 1106.4562,-162 1106.4562,-162"/>
<polygon fill="#000000" stroke="#000000" points="1106.4563,-158.5001 1096.4562,-162 1106.4562,-165.5001 1106.4563,-158.5001"/>
</g>
<!-- MovieTitleFormComponent -->
<g id="node6" class="node">
<title>MovieTitleFormComponent</title>
<polygon fill="#ffffb3" stroke="#000000" points="1394.1553,-122 1219.8447,-122 1219.8447,-86 1394.1553,-86 1394.1553,-122"/>
<text text-anchor="middle" x="1307" y="-99.8" font-family="Times,serif" font-size="14.00" fill="#000000">MovieTitleFormComponent</text>
</g>
<!-- MovieTitleFormComponent&#45;&gt;MovieModule -->
<g id="edge6" class="edge">
<title>MovieTitleFormComponent&#45;&gt;MovieModule</title>
<path fill="none" stroke="#000000" d="M1307,-122.2396C1307,-137.5706 1307,-157 1307,-157 1307,-157 1106.1089,-157 1106.1089,-157"/>
<polygon fill="#000000" stroke="#000000" points="1106.109,-153.5001 1096.1089,-157 1106.1089,-160.5001 1106.109,-153.5001"/>
</g>
<!-- MovieViewComponent -->
<g id="node7" class="node">
<title>MovieViewComponent</title>
<polygon fill="#ffffb3" stroke="#000000" points="1202.2007,-122 1053.7993,-122 1053.7993,-86 1202.2007,-86 1202.2007,-122"/>
<text text-anchor="middle" x="1128" y="-99.8" font-family="Times,serif" font-size="14.00" fill="#000000">MovieViewComponent</text>
</g>
<!-- MovieViewComponent&#45;&gt;MovieModule -->
<g id="edge7" class="edge">
<title>MovieViewComponent&#45;&gt;MovieModule</title>
<path fill="none" stroke="#000000" d="M1074.9747,-122.1061C1074.9747,-122.1061 1074.9747,-140.991 1074.9747,-140.991"/>
<polygon fill="#000000" stroke="#000000" points="1071.4748,-140.9909 1074.9747,-150.991 1078.4748,-140.991 1071.4748,-140.9909"/>
</g>
<!-- MoviePickerComponent  -->
<g id="node16" class="node">
<title>MoviePickerComponent </title>
<polygon fill="#fb8072" stroke="#000000" points="1219.6453,-252 1062.3547,-252 1062.3547,-216 1219.6453,-216 1219.6453,-252"/>
<text text-anchor="middle" x="1141" y="-229.8" font-family="Times,serif" font-size="14.00" fill="#000000">MoviePickerComponent </text>
</g>
<!-- MovieModule&#45;&gt;MoviePickerComponent  -->
<g id="edge15" class="edge">
<title>MovieModule&#45;&gt;MoviePickerComponent </title>
<path fill="none" stroke="#000000" stroke-dasharray="5,2" d="M1079.2386,-187.1061C1079.2386,-187.1061 1079.2386,-205.991 1079.2386,-205.991"/>
<polygon fill="#000000" stroke="#000000" points="1075.7387,-205.9909 1079.2386,-215.991 1082.7387,-205.991 1075.7387,-205.9909"/>
</g>
<!-- MovieTitleFormComponent  -->
<g id="node17" class="node">
<title>MovieTitleFormComponent </title>
<polygon fill="#fb8072" stroke="#000000" points="1044.1551,-252 865.8449,-252 865.8449,-216 1044.1551,-216 1044.1551,-252"/>
<text text-anchor="middle" x="955" y="-229.8" font-family="Times,serif" font-size="14.00" fill="#000000">MovieTitleFormComponent </text>
</g>
<!-- MovieModule&#45;&gt;MovieTitleFormComponent  -->
<g id="edge16" class="edge">
<title>MovieModule&#45;&gt;MovieTitleFormComponent </title>
<path fill="none" stroke="#000000" stroke-dasharray="5,2" d="M1022.0139,-187.1061C1022.0139,-187.1061 1022.0139,-205.991 1022.0139,-205.991"/>
<polygon fill="#000000" stroke="#000000" points="1018.5139,-205.9909 1022.0139,-215.991 1025.5139,-205.991 1018.5139,-205.9909"/>
</g>
<!-- MovieCardModule -->
<g id="node9" class="node">
<title>MovieCardModule</title>
<polygon fill="#8dd3c7" stroke="#000000" points="1029.8118,-122 1026.8118,-126 1005.8118,-126 1002.8118,-122 906.1882,-122 906.1882,-86 1029.8118,-86 1029.8118,-122"/>
<text text-anchor="middle" x="968" y="-99.8" font-family="Times,serif" font-size="14.00" fill="#000000">MovieCardModule</text>
</g>
<!-- MovieCardModule&#45;&gt;MovieModule -->
<g id="edge8" class="edge">
<title>MovieCardModule&#45;&gt;MovieModule</title>
<path fill="none" stroke="#000000" d="M1014.803,-122.1061C1014.803,-122.1061 1014.803,-140.991 1014.803,-140.991"/>
<polygon fill="#000000" stroke="#000000" points="1011.303,-140.9909 1014.803,-150.991 1018.303,-140.991 1011.303,-140.9909"/>
</g>
<!-- MovieDisplayModule -->
<g id="node10" class="node">
<title>MovieDisplayModule</title>
<polygon fill="#8dd3c7" stroke="#000000" points="888.647,-122 885.647,-126 864.647,-126 861.647,-122 749.353,-122 749.353,-86 888.647,-86 888.647,-122"/>
<text text-anchor="middle" x="819" y="-99.8" font-family="Times,serif" font-size="14.00" fill="#000000">MovieDisplayModule</text>
</g>
<!-- MovieDisplayModule&#45;&gt;MovieModule -->
<g id="edge9" class="edge">
<title>MovieDisplayModule&#45;&gt;MovieModule</title>
<path fill="none" stroke="#000000" d="M877.3729,-122.2396C877.3729,-137.5706 877.3729,-157 877.3729,-157 877.3729,-157 989.5615,-157 989.5615,-157"/>
<polygon fill="#000000" stroke="#000000" points="989.5616,-160.5001 999.5615,-157 989.5615,-153.5001 989.5616,-160.5001"/>
</g>
<!-- MovieFormModule -->
<g id="node11" class="node">
<title>MovieFormModule</title>
<polygon fill="#8dd3c7" stroke="#000000" points="731.4341,-122 728.4341,-126 707.4341,-126 704.4341,-122 604.5659,-122 604.5659,-86 731.4341,-86 731.4341,-122"/>
<text text-anchor="middle" x="668" y="-99.8" font-family="Times,serif" font-size="14.00" fill="#000000">MovieFormModule</text>
</g>
<!-- MovieFormModule&#45;&gt;MovieModule -->
<g id="edge10" class="edge">
<title>MovieFormModule&#45;&gt;MovieModule</title>
<path fill="none" stroke="#000000" d="M668,-122.0336C668,-139.0597 668,-162 668,-162 668,-162 989.8727,-162 989.8727,-162"/>
<polygon fill="#000000" stroke="#000000" points="989.8728,-165.5001 999.8727,-162 989.8727,-158.5001 989.8728,-165.5001"/>
</g>
<!-- MovieImdbSearchModule -->
<g id="node12" class="node">
<title>MovieImdbSearchModule</title>
<polygon fill="#8dd3c7" stroke="#000000" points="586.738,-122 583.738,-126 562.738,-126 559.738,-122 423.262,-122 423.262,-86 586.738,-86 586.738,-122"/>
<text text-anchor="middle" x="505" y="-99.8" font-family="Times,serif" font-size="14.00" fill="#000000">MovieImdbSearchModule</text>
</g>
<!-- MovieImdbSearchModule&#45;&gt;MovieModule -->
<g id="edge11" class="edge">
<title>MovieImdbSearchModule&#45;&gt;MovieModule</title>
<path fill="none" stroke="#000000" d="M505,-122.2222C505,-140.8285 505,-167 505,-167 505,-167 989.8124,-167 989.8124,-167"/>
<polygon fill="#000000" stroke="#000000" points="989.8124,-170.5001 999.8124,-167 989.8123,-163.5001 989.8124,-170.5001"/>
</g>
<!-- MovieRoutingModule -->
<g id="node13" class="node">
<title>MovieRoutingModule</title>
<polygon fill="#8dd3c7" stroke="#000000" points="405.7176,-122 402.7176,-126 381.7176,-126 378.7176,-122 264.2824,-122 264.2824,-86 405.7176,-86 405.7176,-122"/>
<text text-anchor="middle" x="335" y="-99.8" font-family="Times,serif" font-size="14.00" fill="#000000">MovieRoutingModule</text>
</g>
<!-- MovieRoutingModule&#45;&gt;MovieModule -->
<g id="edge12" class="edge">
<title>MovieRoutingModule&#45;&gt;MovieModule</title>
<path fill="none" stroke="#000000" d="M335,-122.2228C335,-142.3652 335,-172 335,-172 335,-172 989.8324,-172 989.8324,-172"/>
<polygon fill="#000000" stroke="#000000" points="989.8324,-175.5001 999.8324,-172 989.8324,-168.5001 989.8324,-175.5001"/>
</g>
<!-- UiFormModule -->
<g id="node14" class="node">
<title>UiFormModule</title>
<polygon fill="#8dd3c7" stroke="#000000" points="245.8809,-122 242.8809,-126 221.8809,-126 218.8809,-122 142.1191,-122 142.1191,-86 245.8809,-86 245.8809,-122"/>
<text text-anchor="middle" x="194" y="-99.8" font-family="Times,serif" font-size="14.00" fill="#000000">UiFormModule</text>
</g>
<!-- UiFormModule&#45;&gt;MovieModule -->
<g id="edge13" class="edge">
<title>UiFormModule&#45;&gt;MovieModule</title>
<path fill="none" stroke="#000000" d="M194,-122.0449C194,-143.6623 194,-177 194,-177 194,-177 989.9473,-177 989.9473,-177"/>
<polygon fill="#000000" stroke="#000000" points="989.9473,-180.5001 999.9473,-177 989.9473,-173.5001 989.9473,-180.5001"/>
</g>
<!-- UploadModule -->
<g id="node15" class="node">
<title>UploadModule</title>
<polygon fill="#8dd3c7" stroke="#000000" points="124.2619,-122 121.2619,-126 100.2619,-126 97.2619,-122 23.7381,-122 23.7381,-86 124.2619,-86 124.2619,-122"/>
<text text-anchor="middle" x="74" y="-99.8" font-family="Times,serif" font-size="14.00" fill="#000000">UploadModule</text>
</g>
<!-- UploadModule&#45;&gt;MovieModule -->
<g id="edge14" class="edge">
<title>UploadModule&#45;&gt;MovieModule</title>
<path fill="none" stroke="#000000" d="M74,-122.0908C74,-145.1328 74,-182 74,-182 74,-182 989.6992,-182 989.6992,-182"/>
<polygon fill="#000000" stroke="#000000" points="989.6992,-185.5001 999.6992,-182 989.6992,-178.5001 989.6992,-185.5001"/>
</g>
</g>
</svg>
