<?xml version="1.0" encoding="UTF-8" standalone="no"?>
<!DOCTYPE svg PUBLIC "-//W3C//DTD SVG 1.1//EN"
 "http://www.w3.org/Graphics/SVG/1.1/DTD/svg11.dtd">
<!-- Generated by graphviz version 2.40.1 (20161225.0304)
 -->
<!-- Title: dependencies Pages: 1 -->
<svg width="504pt" height="211pt"
 viewBox="0.00 0.00 504.00 211.00" xmlns="http://www.w3.org/2000/svg" xmlns:xlink="http://www.w3.org/1999/xlink">
<g id="graph0" class="graph" transform="scale(1 1) rotate(0) translate(4 207)">
<title>dependencies</title>
<polygon fill="#ffffff" stroke="transparent" points="-4,4 -4,-207 500,-207 500,4 -4,4"/>
<text text-anchor="start" x="227.0091" y="-42.4" font-family="sans-serif" font-weight="bold" font-size="14.00" fill="#000000">Legend</text>
<polygon fill="#ffffb3" stroke="transparent" points="14,-10 14,-30 34,-30 34,-10 14,-10"/>
<text text-anchor="start" x="37.629" y="-15.4" font-family="sans-serif" font-size="14.00" fill="#000000"> &#160;Declarations</text>
<polygon fill="#8dd3c7" stroke="transparent" points="127,-10 127,-30 147,-30 147,-10 127,-10"/>
<text text-anchor="start" x="150.7251" y="-15.4" font-family="sans-serif" font-size="14.00" fill="#000000"> &#160;Module</text>
<polygon fill="#80b1d3" stroke="transparent" points="213,-10 213,-30 233,-30 233,-10 213,-10"/>
<text text-anchor="start" x="236.7812" y="-15.4" font-family="sans-serif" font-size="14.00" fill="#000000"> &#160;Bootstrap</text>
<polygon fill="#fdb462" stroke="transparent" points="310,-10 310,-30 330,-30 330,-10 310,-10"/>
<text text-anchor="start" x="333.6732" y="-15.4" font-family="sans-serif" font-size="14.00" fill="#000000"> &#160;Providers</text>
<polygon fill="#fb8072" stroke="transparent" points="406,-10 406,-30 426,-30 426,-10 406,-10"/>
<text text-anchor="start" x="429.7258" y="-15.4" font-family="sans-serif" font-size="14.00" fill="#000000"> &#160;Exports</text>
<g id="clust1" class="cluster">
<title>cluster_CatalogCompletionModule</title>
<polygon fill="none" stroke="#000000" stroke-dasharray="1,5" points="44,-70 44,-195 452,-195 452,-70 44,-70"/>
</g>
<g id="clust2" class="cluster">
<title>cluster_CatalogCompletionModule_declarations</title>
<polygon fill="none" stroke="#000000" points="238,-78 238,-130 444,-130 444,-78 238,-78"/>
</g>
<g id="clust4" class="cluster">
<title>cluster_CatalogCompletionModule_imports</title>
<polygon fill="none" stroke="#000000" points="52,-78 52,-130 230,-130 230,-78 52,-78"/>
</g>
<!-- CatalogCompletionComponent -->
<g id="node1" class="node">
<title>CatalogCompletionComponent</title>
<polygon fill="#ffffb3" stroke="#000000" points="436.493,-122 245.507,-122 245.507,-86 436.493,-86 436.493,-122"/>
<text text-anchor="middle" x="341" y="-99.8" font-family="Times,serif" font-size="14.00" fill="#000000">CatalogCompletionComponent</text>
</g>
<!-- CatalogCompletionModule -->
<g id="node2" class="node">
<title>CatalogCompletionModule</title>
<polygon fill="#8dd3c7" stroke="#000000" points="325.7105,-187 322.7105,-191 301.7105,-191 298.7105,-187 156.2895,-187 156.2895,-151 325.7105,-151 325.7105,-187"/>
<text text-anchor="middle" x="241" y="-164.8" font-family="Times,serif" font-size="14.00" fill="#000000">CatalogCompletionModule</text>
</g>
<!-- CatalogCompletionComponent&#45;&gt;CatalogCompletionModule -->
<g id="edge1" class="edge">
<title>CatalogCompletionComponent&#45;&gt;CatalogCompletionModule</title>
<path fill="none" stroke="#000000" d="M285.5544,-122.1061C285.5544,-122.1061 285.5544,-140.991 285.5544,-140.991"/>
<polygon fill="#000000" stroke="#000000" points="282.0544,-140.9909 285.5544,-150.991 289.0544,-140.991 282.0544,-140.9909"/>
</g>
<!-- FeedbackMessageModule -->
<g id="node3" class="node">
<title>FeedbackMessageModule</title>
<polygon fill="#8dd3c7" stroke="#000000" points="222.1685,-122 219.1685,-126 198.1685,-126 195.1685,-122 59.8315,-122 59.8315,-86 222.1685,-86 222.1685,-122"/>
<text text-anchor="middle" x="141" y="-99.8" font-family="Times,serif" font-size="14.00" fill="#000000">FeedbackMessageModule</text>
</g>
<!-- FeedbackMessageModule&#45;&gt;CatalogCompletionModule -->
<g id="edge2" class="edge">
<title>FeedbackMessageModule&#45;&gt;CatalogCompletionModule</title>
<path fill="none" stroke="#000000" d="M189.2395,-122.1061C189.2395,-122.1061 189.2395,-140.991 189.2395,-140.991"/>
<polygon fill="#000000" stroke="#000000" points="185.7396,-140.9909 189.2395,-150.991 192.7396,-140.991 185.7396,-140.9909"/>
</g>
</g>
</svg>
