<?xml version="1.0" encoding="UTF-8" standalone="no"?>
<!DOCTYPE svg PUBLIC "-//W3C//DTD SVG 1.1//EN"
 "http://www.w3.org/Graphics/SVG/1.1/DTD/svg11.dtd">
<!-- Generated by graphviz version 2.40.1 (20161225.0304)
 -->
<!-- Title: dependencies Pages: 1 -->
<svg width="762pt" height="211pt"
 viewBox="0.00 0.00 762.00 211.00" xmlns="http://www.w3.org/2000/svg" xmlns:xlink="http://www.w3.org/1999/xlink">
<g id="graph0" class="graph" transform="scale(1 1) rotate(0) translate(4 207)">
<title>dependencies</title>
<polygon fill="#ffffff" stroke="transparent" points="-4,4 -4,-207 758,-207 758,4 -4,4"/>
<text text-anchor="start" x="356.0091" y="-42.4" font-family="sans-serif" font-weight="bold" font-size="14.00" fill="#000000">Legend</text>
<polygon fill="#ffffb3" stroke="transparent" points="143,-10 143,-30 163,-30 163,-10 143,-10"/>
<text text-anchor="start" x="166.629" y="-15.4" font-family="sans-serif" font-size="14.00" fill="#000000"> &#160;Declarations</text>
<polygon fill="#8dd3c7" stroke="transparent" points="256,-10 256,-30 276,-30 276,-10 256,-10"/>
<text text-anchor="start" x="279.7251" y="-15.4" font-family="sans-serif" font-size="14.00" fill="#000000"> &#160;Module</text>
<polygon fill="#80b1d3" stroke="transparent" points="342,-10 342,-30 362,-30 362,-10 342,-10"/>
<text text-anchor="start" x="365.7812" y="-15.4" font-family="sans-serif" font-size="14.00" fill="#000000"> &#160;Bootstrap</text>
<polygon fill="#fdb462" stroke="transparent" points="439,-10 439,-30 459,-30 459,-10 439,-10"/>
<text text-anchor="start" x="462.6732" y="-15.4" font-family="sans-serif" font-size="14.00" fill="#000000"> &#160;Providers</text>
<polygon fill="#fb8072" stroke="transparent" points="535,-10 535,-30 555,-30 555,-10 535,-10"/>
<text text-anchor="start" x="558.7258" y="-15.4" font-family="sans-serif" font-size="14.00" fill="#000000"> &#160;Exports</text>
<g id="clust1" class="cluster">
<title>cluster_CatalogCompletionModule</title>
<polygon fill="none" stroke="#000000" stroke-dasharray="1,5" points="8,-70 8,-195 746,-195 746,-70 8,-70"/>
</g>
<g id="clust2" class="cluster">
<title>cluster_CatalogCompletionModule_declarations</title>
<polygon fill="none" stroke="#000000" points="532,-78 532,-130 738,-130 738,-78 532,-78"/>
</g>
<g id="clust4" class="cluster">
<title>cluster_CatalogCompletionModule_imports</title>
<polygon fill="none" stroke="#000000" points="16,-78 16,-130 524,-130 524,-78 16,-78"/>
</g>
<!-- CatalogCompletionComponent -->
<g id="node1" class="node">
<title>CatalogCompletionComponent</title>
<polygon fill="#ffffb3" stroke="#000000" points="730.493,-122 539.507,-122 539.507,-86 730.493,-86 730.493,-122"/>
<text text-anchor="middle" x="635" y="-99.8" font-family="Times,serif" font-size="14.00" fill="#000000">CatalogCompletionComponent</text>
</g>
<!-- CatalogCompletionModule -->
<g id="node2" class="node">
<title>CatalogCompletionModule</title>
<polygon fill="#8dd3c7" stroke="#000000" points="466.7105,-187 463.7105,-191 442.7105,-191 439.7105,-187 297.2895,-187 297.2895,-151 466.7105,-151 466.7105,-187"/>
<text text-anchor="middle" x="382" y="-164.8" font-family="Times,serif" font-size="14.00" fill="#000000">CatalogCompletionModule</text>
</g>
<!-- CatalogCompletionComponent&#45;&gt;CatalogCompletionModule -->
<g id="edge1" class="edge">
<title>CatalogCompletionComponent&#45;&gt;CatalogCompletionModule</title>
<path fill="none" stroke="#000000" d="M635,-122.1061C635,-141.3391 635,-169 635,-169 635,-169 476.9492,-169 476.9492,-169"/>
<polygon fill="#000000" stroke="#000000" points="476.9492,-165.5001 466.9492,-169 476.9491,-172.5001 476.9492,-165.5001"/>
</g>
<!-- CommonModule -->
<g id="node3" class="node">
<title>CommonModule</title>
<polygon fill="#8dd3c7" stroke="#000000" points="515.6681,-122 512.6681,-126 491.6681,-126 488.6681,-122 404.3319,-122 404.3319,-86 515.6681,-86 515.6681,-122"/>
<text text-anchor="middle" x="460" y="-99.8" font-family="Times,serif" font-size="14.00" fill="#000000">CommonModule</text>
</g>
<!-- CommonModule&#45;&gt;CatalogCompletionModule -->
<g id="edge2" class="edge">
<title>CommonModule&#45;&gt;CatalogCompletionModule</title>
<path fill="none" stroke="#000000" d="M435.3857,-122.1061C435.3857,-122.1061 435.3857,-140.991 435.3857,-140.991"/>
<polygon fill="#000000" stroke="#000000" points="431.8858,-140.9909 435.3857,-150.991 438.8858,-140.991 431.8858,-140.9909"/>
</g>
<!-- FeedbackMessageModule -->
<g id="node4" class="node">
<title>FeedbackMessageModule</title>
<polygon fill="#8dd3c7" stroke="#000000" points="386.1685,-122 383.1685,-126 362.1685,-126 359.1685,-122 223.8315,-122 223.8315,-86 386.1685,-86 386.1685,-122"/>
<text text-anchor="middle" x="305" y="-99.8" font-family="Times,serif" font-size="14.00" fill="#000000">FeedbackMessageModule</text>
</g>
<!-- FeedbackMessageModule&#45;&gt;CatalogCompletionModule -->
<g id="edge3" class="edge">
<title>FeedbackMessageModule&#45;&gt;CatalogCompletionModule</title>
<path fill="none" stroke="#000000" d="M341.7395,-122.1061C341.7395,-122.1061 341.7395,-140.991 341.7395,-140.991"/>
<polygon fill="#000000" stroke="#000000" points="338.2396,-140.9909 341.7395,-150.991 345.2396,-140.991 338.2396,-140.9909"/>
</g>
<!-- RouterModule.forChild(args) -->
<g id="node5" class="node">
<title>RouterModule.forChild(args)</title>
<polygon fill="#8dd3c7" stroke="#000000" points="205.7323,-122 202.7323,-126 181.7323,-126 178.7323,-122 24.2677,-122 24.2677,-86 205.7323,-86 205.7323,-122"/>
<text text-anchor="middle" x="115" y="-99.8" font-family="Times,serif" font-size="14.00" fill="#000000">RouterModule.forChild(args)</text>
</g>
<!-- RouterModule.forChild(args)&#45;&gt;CatalogCompletionModule -->
<g id="edge4" class="edge">
<title>RouterModule.forChild(args)&#45;&gt;CatalogCompletionModule</title>
<path fill="none" stroke="#000000" d="M115,-122.1061C115,-141.3391 115,-169 115,-169 115,-169 287.1527,-169 287.1527,-169"/>
<polygon fill="#000000" stroke="#000000" points="287.1527,-172.5001 297.1527,-169 287.1526,-165.5001 287.1527,-172.5001"/>
</g>
</g>
</svg>
